solid ASCII
  facet normal 0.000000e+00 1.000000e+00 0.000000e+00
    outer loop
      vertex   3.787510e-02 6.500000e-02 -1.224053e-02
      vertex   3.802420e-02 6.500000e-02 1.185889e-02
      vertex   3.989756e-02 6.500000e-02 1.058429e-06
    endloop
  endfacet
  facet normal 0.000000e+00 1.000000e+00 -0.000000e+00
    outer loop
      vertex   3.787510e-02 6.500000e-02 -1.224053e-02
      vertex   3.362634e-02 6.500000e-02 2.147682e-02
      vertex   3.802420e-02 6.500000e-02 1.185889e-02
    endloop
  endfacet
  facet normal 0.000000e+00 1.000000e+00 0.000000e+00
    outer loop
      vertex   3.091203e-02 6.500000e-02 -2.510267e-02
      vertex   3.362634e-02 6.500000e-02 2.147682e-02
      vertex   3.787510e-02 6.500000e-02 -1.224053e-02
    endloop
  endfacet
  facet normal 0.000000e+00 1.000000e+00 -0.000000e+00
    outer loop
      vertex   3.091203e-02 6.500000e-02 -2.510267e-02
      vertex   2.883196e-02 6.500000e-02 2.766411e-02
      vertex   3.362634e-02 6.500000e-02 2.147682e-02
    endloop
  endfacet
  facet normal 0.000000e+00 1.000000e+00 0.000000e+00
    outer loop
      vertex   3.091203e-02 6.500000e-02 -2.510267e-02
      vertex   2.216697e-02 6.500000e-02 3.317545e-02
      vertex   2.883196e-02 6.500000e-02 2.766411e-02
    endloop
  endfacet
  facet normal 0.000000e+00 1.000000e+00 -0.000000e+00
    outer loop
      vertex   2.388537e-02 6.500000e-02 -3.203240e-02
      vertex   2.216697e-02 6.500000e-02 3.317545e-02
      vertex   3.091203e-02 6.500000e-02 -2.510267e-02
    endloop
  endfacet
  facet normal 0.000000e+00 1.000000e+00 0.000000e+00
    outer loop
      vertex   1.582888e-02 6.500000e-02 -3.660059e-02
      vertex   2.216697e-02 6.500000e-02 3.317545e-02
      vertex   2.388537e-02 6.500000e-02 -3.203240e-02
    endloop
  endfacet
  facet normal 0.000000e+00 1.000000e+00 -0.000000e+00
    outer loop
      vertex   1.582888e-02 6.500000e-02 -3.660059e-02
      vertex   1.529099e-02 6.500000e-02 3.691573e-02
      vertex   2.216697e-02 6.500000e-02 3.317545e-02
    endloop
  endfacet
  facet normal 0.000000e+00 1.000000e+00 0.000000e+00
    outer loop
      vertex   1.582888e-02 6.500000e-02 -3.660059e-02
      vertex   6.767219e-03 6.500000e-02 3.929837e-02
      vertex   1.529099e-02 6.500000e-02 3.691573e-02
    endloop
  endfacet
  facet normal 0.000000e+00 1.000000e+00 0.000000e+00
    outer loop
      vertex   4.727359e-03 6.500000e-02 -3.959557e-02
      vertex   6.767219e-03 6.500000e-02 3.929837e-02
      vertex   1.582888e-02 6.500000e-02 -3.660059e-02
    endloop
  endfacet
  facet normal 0.000000e+00 1.000000e+00 0.000000e+00
    outer loop
      vertex   -3.787510e-02 6.500000e-02 1.224053e-02
      vertex   -3.802420e-02 6.500000e-02 -1.185889e-02
      vertex   -3.989756e-02 6.500000e-02 -1.058429e-06
    endloop
  endfacet
  facet normal 0.000000e+00 1.000000e+00 0.000000e+00
    outer loop
      vertex   -3.787510e-02 6.500000e-02 1.224053e-02
      vertex   -3.122915e-02 6.500000e-02 -2.457047e-02
      vertex   -3.802420e-02 6.500000e-02 -1.185889e-02
    endloop
  endfacet
  facet normal 0.000000e+00 1.000000e+00 0.000000e+00
    outer loop
      vertex   -3.091203e-02 6.500000e-02 2.510267e-02
      vertex   -3.122915e-02 6.500000e-02 -2.457047e-02
      vertex   -3.787510e-02 6.500000e-02 1.224053e-02
    endloop
  endfacet
  facet normal 0.000000e+00 1.000000e+00 0.000000e+00
    outer loop
      vertex   -3.091203e-02 6.500000e-02 2.510267e-02
      vertex   -2.216697e-02 6.500000e-02 -3.317545e-02
      vertex   -3.122915e-02 6.500000e-02 -2.457047e-02
    endloop
  endfacet
  facet normal 0.000000e+00 1.000000e+00 0.000000e+00
    outer loop
      vertex   -2.388537e-02 6.500000e-02 3.203240e-02
      vertex   -2.216697e-02 6.500000e-02 -3.317545e-02
      vertex   -3.091203e-02 6.500000e-02 2.510267e-02
    endloop
  endfacet
  facet normal 0.000000e+00 1.000000e+00 0.000000e+00
    outer loop
      vertex   -1.582888e-02 6.500000e-02 3.660059e-02
      vertex   -2.216697e-02 6.500000e-02 -3.317545e-02
      vertex   -2.388537e-02 6.500000e-02 3.203240e-02
    endloop
  endfacet
  facet normal 0.000000e+00 1.000000e+00 0.000000e+00
    outer loop
      vertex   -1.582888e-02 6.500000e-02 3.660059e-02
      vertex   -1.529099e-02 6.500000e-02 -3.691573e-02
      vertex   -2.216697e-02 6.500000e-02 -3.317545e-02
    endloop
  endfacet
  facet normal 0.000000e+00 1.000000e+00 0.000000e+00
    outer loop
      vertex   -1.582888e-02 6.500000e-02 3.660059e-02
      vertex   -6.767219e-03 6.500000e-02 -3.929837e-02
      vertex   -1.529099e-02 6.500000e-02 -3.691573e-02
    endloop
  endfacet
  facet normal 0.000000e+00 1.000000e+00 0.000000e+00
    outer loop
      vertex   -4.727359e-03 6.500000e-02 3.959557e-02
      vertex   -6.767219e-03 6.500000e-02 -3.929837e-02
      vertex   -1.582888e-02 6.500000e-02 3.660059e-02
    endloop
  endfacet
  facet normal 0.000000e+00 1.000000e+00 0.000000e+00
    outer loop
      vertex   -4.727359e-03 6.500000e-02 3.959557e-02
      vertex   4.727359e-03 6.500000e-02 -3.959557e-02
      vertex   -6.767219e-03 6.500000e-02 -3.929837e-02
    endloop
  endfacet
  facet normal 0.000000e+00 1.000000e+00 0.000000e+00
    outer loop
      vertex   6.767219e-03 6.500000e-02 3.929837e-02
      vertex   4.727359e-03 6.500000e-02 -3.959557e-02
      vertex   -4.727359e-03 6.500000e-02 3.959557e-02
    endloop
  endfacet
  facet normal 0.000000e+00 -1.000000e+00 0.000000e+00
    outer loop
      vertex   -3.787510e-02 -6.500000e-02 -1.224053e-02
      vertex   -3.802420e-02 -6.500000e-02 1.185889e-02
      vertex   -3.989756e-02 -6.500000e-02 1.058429e-06
    endloop
  endfacet
  facet normal 0.000000e+00 -1.000000e+00 0.000000e+00
    outer loop
      vertex   -3.787510e-02 -6.500000e-02 -1.224053e-02
      vertex   -3.122915e-02 -6.500000e-02 2.457047e-02
      vertex   -3.802420e-02 -6.500000e-02 1.185889e-02
    endloop
  endfacet
  facet normal 0.000000e+00 -1.000000e+00 0.000000e+00
    outer loop
      vertex   -3.091203e-02 -6.500000e-02 -2.510267e-02
      vertex   -3.122915e-02 -6.500000e-02 2.457047e-02
      vertex   -3.787510e-02 -6.500000e-02 -1.224053e-02
    endloop
  endfacet
  facet normal 0.000000e+00 -1.000000e+00 0.000000e+00
    outer loop
      vertex   -3.091203e-02 -6.500000e-02 -2.510267e-02
      vertex   -2.216697e-02 -6.500000e-02 3.317545e-02
      vertex   -3.122915e-02 -6.500000e-02 2.457047e-02
    endloop
  endfacet
  facet normal 0.000000e+00 -1.000000e+00 0.000000e+00
    outer loop
      vertex   -2.388537e-02 -6.500000e-02 -3.203240e-02
      vertex   -2.216697e-02 -6.500000e-02 3.317545e-02
      vertex   -3.091203e-02 -6.500000e-02 -2.510267e-02
    endloop
  endfacet
  facet normal 0.000000e+00 -1.000000e+00 0.000000e+00
    outer loop
      vertex   -1.582888e-02 -6.500000e-02 -3.660059e-02
      vertex   -2.216697e-02 -6.500000e-02 3.317545e-02
      vertex   -2.388537e-02 -6.500000e-02 -3.203240e-02
    endloop
  endfacet
  facet normal 0.000000e+00 -1.000000e+00 0.000000e+00
    outer loop
      vertex   -1.582888e-02 -6.500000e-02 -3.660059e-02
      vertex   -1.529099e-02 -6.500000e-02 3.691573e-02
      vertex   -2.216697e-02 -6.500000e-02 3.317545e-02
    endloop
  endfacet
  facet normal 0.000000e+00 -1.000000e+00 0.000000e+00
    outer loop
      vertex   -1.582888e-02 -6.500000e-02 -3.660059e-02
      vertex   -6.767219e-03 -6.500000e-02 3.929837e-02
      vertex   -1.529099e-02 -6.500000e-02 3.691573e-02
    endloop
  endfacet
  facet normal 0.000000e+00 -1.000000e+00 0.000000e+00
    outer loop
      vertex   -4.727359e-03 -6.500000e-02 -3.959557e-02
      vertex   -6.767219e-03 -6.500000e-02 3.929837e-02
      vertex   -1.582888e-02 -6.500000e-02 -3.660059e-02
    endloop
  endfacet
  facet normal 0.000000e+00 -1.000000e+00 0.000000e+00
    outer loop
      vertex   3.787510e-02 -6.500000e-02 1.224053e-02
      vertex   3.802420e-02 -6.500000e-02 -1.185889e-02
      vertex   3.989756e-02 -6.500000e-02 -1.058429e-06
    endloop
  endfacet
  facet normal 0.000000e+00 -1.000000e+00 -0.000000e+00
    outer loop
      vertex   3.787510e-02 -6.500000e-02 1.224053e-02
      vertex   3.122915e-02 -6.500000e-02 -2.457047e-02
      vertex   3.802420e-02 -6.500000e-02 -1.185889e-02
    endloop
  endfacet
  facet normal 0.000000e+00 -1.000000e+00 0.000000e+00
    outer loop
      vertex   3.091203e-02 -6.500000e-02 2.510267e-02
      vertex   3.122915e-02 -6.500000e-02 -2.457047e-02
      vertex   3.787510e-02 -6.500000e-02 1.224053e-02
    endloop
  endfacet
  facet normal 0.000000e+00 -1.000000e+00 -0.000000e+00
    outer loop
      vertex   3.091203e-02 -6.500000e-02 2.510267e-02
      vertex   2.216697e-02 -6.500000e-02 -3.317545e-02
      vertex   3.122915e-02 -6.500000e-02 -2.457047e-02
    endloop
  endfacet
  facet normal 0.000000e+00 -1.000000e+00 -0.000000e+00
    outer loop
      vertex   2.388537e-02 -6.500000e-02 3.203240e-02
      vertex   2.216697e-02 -6.500000e-02 -3.317545e-02
      vertex   3.091203e-02 -6.500000e-02 2.510267e-02
    endloop
  endfacet
  facet normal 0.000000e+00 -1.000000e+00 0.000000e+00
    outer loop
      vertex   1.582888e-02 -6.500000e-02 3.660059e-02
      vertex   2.216697e-02 -6.500000e-02 -3.317545e-02
      vertex   2.388537e-02 -6.500000e-02 3.203240e-02
    endloop
  endfacet
  facet normal 0.000000e+00 -1.000000e+00 -0.000000e+00
    outer loop
      vertex   1.582888e-02 -6.500000e-02 3.660059e-02
      vertex   1.529099e-02 -6.500000e-02 -3.691573e-02
      vertex   2.216697e-02 -6.500000e-02 -3.317545e-02
    endloop
  endfacet
  facet normal 0.000000e+00 -1.000000e+00 0.000000e+00
    outer loop
      vertex   1.582888e-02 -6.500000e-02 3.660059e-02
      vertex   6.767219e-03 -6.500000e-02 -3.929837e-02
      vertex   1.529099e-02 -6.500000e-02 -3.691573e-02
    endloop
  endfacet
  facet normal 0.000000e+00 -1.000000e+00 0.000000e+00
    outer loop
      vertex   4.727359e-03 -6.500000e-02 3.959557e-02
      vertex   6.767219e-03 -6.500000e-02 -3.929837e-02
      vertex   1.582888e-02 -6.500000e-02 3.660059e-02
    endloop
  endfacet
  facet normal 0.000000e+00 -1.000000e+00 -0.000000e+00
    outer loop
      vertex   4.727359e-03 -6.500000e-02 3.959557e-02
      vertex   -4.727359e-03 -6.500000e-02 -3.959557e-02
      vertex   6.767219e-03 -6.500000e-02 -3.929837e-02
    endloop
  endfacet
  facet normal 0.000000e+00 -1.000000e+00 0.000000e+00
    outer loop
      vertex   -6.767219e-03 -6.500000e-02 3.929837e-02
      vertex   -4.727359e-03 -6.500000e-02 -3.959557e-02
      vertex   4.727359e-03 -6.500000e-02 3.959557e-02
    endloop
  endfacet
  facet normal -7.091927e-02 -2.307571e-03 9.974794e-01
    outer loop
      vertex   -4.727359e-03 6.500000e-02 3.959557e-02
      vertex   -7.184314e-03 8.125000e-03 3.928931e-02
      vertex   1.443198e-03 4.062500e-03 3.989331e-02
    endloop
  endfacet
  facet normal -2.833133e-01 7.074883e-03 9.590013e-01
    outer loop
      vertex   -4.727359e-03 6.500000e-02 3.959557e-02
      vertex   -1.470332e-02 2.031250e-03 3.711296e-02
      vertex   -7.184314e-03 8.125000e-03 3.928931e-02
    endloop
  endfacet
  facet normal -2.604672e-01 3.200102e-03 9.654774e-01
    outer loop
      vertex   -1.582888e-02 6.500000e-02 3.660059e-02
      vertex   -1.470332e-02 2.031250e-03 3.711296e-02
      vertex   -4.727359e-03 6.500000e-02 3.959557e-02
    endloop
  endfacet
  facet normal -4.462685e-01 -6.953668e-04 8.948989e-01
    outer loop
      vertex   -1.582888e-02 6.500000e-02 3.660059e-02
      vertex   -2.115857e-02 4.062500e-03 3.389543e-02
      vertex   -1.470332e-02 2.031250e-03 3.711296e-02
    endloop
  endfacet
  facet normal -4.932406e-01 4.523483e-03 8.698812e-01
    outer loop
      vertex   -2.388537e-02 6.500000e-02 3.203240e-02
      vertex   -2.115857e-02 4.062500e-03 3.389543e-02
      vertex   -1.582888e-02 6.500000e-02 3.660059e-02
    endloop
  endfacet
  facet normal -6.131346e-01 -3.284526e-03 7.899716e-01
    outer loop
      vertex   -2.388537e-02 6.500000e-02 3.203240e-02
      vertex   -2.750368e-02 2.031250e-03 2.896224e-02
      vertex   -2.115857e-02 4.062500e-03 3.389543e-02
    endloop
  endfacet
  facet normal -7.021676e-01 5.633656e-03 7.119894e-01
    outer loop
      vertex   -3.091203e-02 6.500000e-02 2.510267e-02
      vertex   -2.750368e-02 2.031250e-03 2.896224e-02
      vertex   -2.388537e-02 6.500000e-02 3.203240e-02
    endloop
  endfacet
  facet normal -7.461614e-01 4.191205e-04 6.657650e-01
    outer loop
      vertex   -3.091203e-02 6.500000e-02 2.510267e-02
      vertex   -3.203240e-02 4.062500e-03 2.388537e-02
      vertex   -2.750368e-02 2.031250e-03 2.896224e-02
    endloop
  endfacet
  facet normal -8.643609e-01 5.846948e-03 5.028380e-01
    outer loop
      vertex   -3.091203e-02 6.500000e-02 2.510267e-02
      vertex   -3.632425e-02 5.078125e-03 1.649602e-02
      vertex   -3.203240e-02 4.062500e-03 2.388537e-02
    endloop
  endfacet
  facet normal -8.793506e-01 1.104889e-02 4.760468e-01
    outer loop
      vertex   -3.787510e-02 6.500000e-02 1.224053e-02
      vertex   -3.632425e-02 5.078125e-03 1.649602e-02
      vertex   -3.091203e-02 6.500000e-02 2.510267e-02
    endloop
  endfacet
  facet normal -9.446532e-01 -1.150211e-03 3.280687e-01
    outer loop
      vertex   -3.787510e-02 6.500000e-02 1.224053e-02
      vertex   -3.892906e-02 8.125000e-03 9.006316e-03
      vertex   -3.632425e-02 5.078125e-03 1.649602e-02
    endloop
  endfacet
  facet normal -9.910935e-01 1.081851e-02 1.327278e-01
    outer loop
      vertex   -3.787510e-02 6.500000e-02 1.224053e-02
      vertex   -3.987837e-02 5.078125e-03 2.166032e-03
      vertex   -3.892906e-02 8.125000e-03 9.006316e-03
    endloop
  endfacet
  facet normal -9.866103e-01 5.579082e-03 1.629998e-01
    outer loop
      vertex   -3.989756e-02 6.500000e-02 -1.058429e-06
      vertex   -3.987837e-02 5.078125e-03 2.166032e-03
      vertex   -3.787510e-02 6.500000e-02 1.224053e-02
    endloop
  endfacet
  facet normal -9.979640e-01 -2.624149e-03 -6.372590e-02
    outer loop
      vertex   -3.989756e-02 6.500000e-02 -1.058429e-06
      vertex   -3.928931e-02 8.125000e-03 -7.184314e-03
      vertex   -3.987837e-02 5.078125e-03 2.166032e-03
    endloop
  endfacet
  facet normal -9.877080e-01 9.145040e-03 -1.560426e-01
    outer loop
      vertex   -3.802420e-02 6.500000e-02 -1.185889e-02
      vertex   -3.928931e-02 8.125000e-03 -7.184314e-03
      vertex   -3.989756e-02 6.500000e-02 -1.058429e-06
    endloop
  endfacet
  facet normal -9.608712e-01 -1.392789e-03 -2.769920e-01
    outer loop
      vertex   -3.802420e-02 6.500000e-02 -1.185889e-02
      vertex   -3.711296e-02 2.031250e-03 -1.470332e-02
      vertex   -3.928931e-02 8.125000e-03 -7.184314e-03
    endloop
  endfacet
  facet normal -8.818727e-01 8.532694e-03 -4.714104e-01
    outer loop
      vertex   -3.122915e-02 6.500000e-02 -2.457047e-02
      vertex   -3.711296e-02 2.031250e-03 -1.470332e-02
      vertex   -3.802420e-02 6.500000e-02 -1.185889e-02
    endloop
  endfacet
  facet normal -8.967026e-01 1.446476e-02 -4.423971e-01
    outer loop
      vertex   -3.122915e-02 6.500000e-02 -2.457047e-02
      vertex   -3.389543e-02 4.062500e-03 -2.115857e-02
      vertex   -3.711296e-02 2.031250e-03 -1.470332e-02
    endloop
  endfacet
  facet normal -7.894398e-01 1.731265e-04 -6.138280e-01
    outer loop
      vertex   -3.122915e-02 6.500000e-02 -2.457047e-02
      vertex   -2.896224e-02 2.031250e-03 -2.750368e-02
      vertex   -3.389543e-02 4.062500e-03 -2.115857e-02
    endloop
  endfacet
  facet normal -6.679955e-01 1.061304e-02 -7.440897e-01
    outer loop
      vertex   -3.122915e-02 6.500000e-02 -2.457047e-02
      vertex   -2.388537e-02 4.062500e-03 -3.203240e-02
      vertex   -2.896224e-02 2.031250e-03 -2.750368e-02
    endloop
  endfacet
  facet normal -6.885656e-01 5.814954e-03 -7.251507e-01
    outer loop
      vertex   -2.216697e-02 6.500000e-02 -3.317545e-02
      vertex   -2.388537e-02 4.062500e-03 -3.203240e-02
      vertex   -3.122915e-02 6.500000e-02 -2.457047e-02
    endloop
  endfacet
  facet normal -5.020324e-01 -2.065548e-03 -8.648463e-01
    outer loop
      vertex   -2.216697e-02 6.500000e-02 -3.317545e-02
      vertex   -1.649602e-02 5.078125e-03 -3.632425e-02
      vertex   -2.388537e-02 4.062500e-03 -3.203240e-02
    endloop
  endfacet
  facet normal -4.778420e-01 9.384065e-04 -8.784453e-01
    outer loop
      vertex   -1.529099e-02 6.500000e-02 -3.691573e-02
      vertex   -1.649602e-02 5.078125e-03 -3.632425e-02
      vertex   -2.216697e-02 6.500000e-02 -3.317545e-02
    endloop
  endfacet
  facet normal -3.274903e-01 -2.740622e-03 -9.448506e-01
    outer loop
      vertex   -1.529099e-02 6.500000e-02 -3.691573e-02
      vertex   -9.006316e-03 8.125000e-03 -3.892906e-02
      vertex   -1.649602e-02 5.078125e-03 -3.632425e-02
    endloop
  endfacet
  facet normal -2.692066e-01 4.344776e-03 -9.630727e-01
    outer loop
      vertex   -6.767219e-03 6.500000e-02 -3.929837e-02
      vertex   -9.006316e-03 8.125000e-03 -3.892906e-02
      vertex   -1.529099e-02 6.500000e-02 -3.691573e-02
    endloop
  endfacet
  facet normal -1.379032e-01 -1.002212e-03 -9.904452e-01
    outer loop
      vertex   -6.767219e-03 6.500000e-02 -3.929837e-02
      vertex   -2.166032e-03 5.078125e-03 -3.987837e-02
      vertex   -9.006316e-03 8.125000e-03 -3.892906e-02
    endloop
  endfacet
  facet normal -2.584653e-02 7.691181e-03 -9.996363e-01
    outer loop
      vertex   4.727359e-03 6.500000e-02 -3.959557e-02
      vertex   -2.166032e-03 5.078125e-03 -3.987837e-02
      vertex   -6.767219e-03 6.500000e-02 -3.929837e-02
    endloop
  endfacet
  facet normal 6.372487e-02 -2.620974e-03 -9.979641e-01
    outer loop
      vertex   4.727359e-03 6.500000e-02 -3.959557e-02
      vertex   7.184314e-03 8.125000e-03 -3.928931e-02
      vertex   -2.166032e-03 5.078125e-03 -3.987837e-02
    endloop
  endfacet
  facet normal 2.833133e-01 7.074883e-03 -9.590013e-01
    outer loop
      vertex   4.727359e-03 6.500000e-02 -3.959557e-02
      vertex   1.470332e-02 2.031250e-03 -3.711296e-02
      vertex   7.184314e-03 8.125000e-03 -3.928931e-02
    endloop
  endfacet
  facet normal 2.604672e-01 3.200102e-03 -9.654774e-01
    outer loop
      vertex   1.582888e-02 6.500000e-02 -3.660059e-02
      vertex   1.470332e-02 2.031250e-03 -3.711296e-02
      vertex   4.727359e-03 6.500000e-02 -3.959557e-02
    endloop
  endfacet
  facet normal 4.462685e-01 -6.953668e-04 -8.948989e-01
    outer loop
      vertex   1.582888e-02 6.500000e-02 -3.660059e-02
      vertex   2.115857e-02 4.062500e-03 -3.389543e-02
      vertex   1.470332e-02 2.031250e-03 -3.711296e-02
    endloop
  endfacet
  facet normal 4.932406e-01 4.523483e-03 -8.698812e-01
    outer loop
      vertex   2.388537e-02 6.500000e-02 -3.203240e-02
      vertex   2.115857e-02 4.062500e-03 -3.389543e-02
      vertex   1.582888e-02 6.500000e-02 -3.660059e-02
    endloop
  endfacet
  facet normal 6.131346e-01 -3.284526e-03 -7.899716e-01
    outer loop
      vertex   2.388537e-02 6.500000e-02 -3.203240e-02
      vertex   2.750368e-02 2.031250e-03 -2.896224e-02
      vertex   2.115857e-02 4.062500e-03 -3.389543e-02
    endloop
  endfacet
  facet normal 7.021676e-01 5.633656e-03 -7.119894e-01
    outer loop
      vertex   3.091203e-02 6.500000e-02 -2.510267e-02
      vertex   2.750368e-02 2.031250e-03 -2.896224e-02
      vertex   2.388537e-02 6.500000e-02 -3.203240e-02
    endloop
  endfacet
  facet normal 7.461614e-01 4.191205e-04 -6.657650e-01
    outer loop
      vertex   3.091203e-02 6.500000e-02 -2.510267e-02
      vertex   3.203240e-02 4.062500e-03 -2.388537e-02
      vertex   2.750368e-02 2.031250e-03 -2.896224e-02
    endloop
  endfacet
  facet normal 8.643609e-01 5.846948e-03 -5.028380e-01
    outer loop
      vertex   3.091203e-02 6.500000e-02 -2.510267e-02
      vertex   3.632425e-02 5.078125e-03 -1.649602e-02
      vertex   3.203240e-02 4.062500e-03 -2.388537e-02
    endloop
  endfacet
  facet normal 8.793506e-01 1.104889e-02 -4.760468e-01
    outer loop
      vertex   3.787510e-02 6.500000e-02 -1.224053e-02
      vertex   3.632425e-02 5.078125e-03 -1.649602e-02
      vertex   3.091203e-02 6.500000e-02 -2.510267e-02
    endloop
  endfacet
  facet normal 9.446532e-01 -1.150211e-03 -3.280687e-01
    outer loop
      vertex   3.787510e-02 6.500000e-02 -1.224053e-02
      vertex   3.892906e-02 8.125000e-03 -9.006316e-03
      vertex   3.632425e-02 5.078125e-03 -1.649602e-02
    endloop
  endfacet
  facet normal 9.910935e-01 1.081851e-02 -1.327278e-01
    outer loop
      vertex   3.787510e-02 6.500000e-02 -1.224053e-02
      vertex   3.987837e-02 5.078125e-03 -2.166032e-03
      vertex   3.892906e-02 8.125000e-03 -9.006316e-03
    endloop
  endfacet
  facet normal 9.866103e-01 5.579082e-03 -1.629998e-01
    outer loop
      vertex   3.989756e-02 6.500000e-02 1.058429e-06
      vertex   3.987837e-02 5.078125e-03 -2.166032e-03
      vertex   3.787510e-02 6.500000e-02 -1.224053e-02
    endloop
  endfacet
  facet normal 9.979640e-01 -2.624149e-03 6.372590e-02
    outer loop
      vertex   3.989756e-02 6.500000e-02 1.058429e-06
      vertex   3.928931e-02 8.125000e-03 7.184314e-03
      vertex   3.987837e-02 5.078125e-03 -2.166032e-03
    endloop
  endfacet
  facet normal 9.877080e-01 9.145040e-03 1.560426e-01
    outer loop
      vertex   3.802420e-02 6.500000e-02 1.185889e-02
      vertex   3.928931e-02 8.125000e-03 7.184314e-03
      vertex   3.989756e-02 6.500000e-02 1.058429e-06
    endloop
  endfacet
  facet normal 9.608712e-01 -1.392789e-03 2.769920e-01
    outer loop
      vertex   3.802420e-02 6.500000e-02 1.185889e-02
      vertex   3.711296e-02 2.031250e-03 1.470332e-02
      vertex   3.928931e-02 8.125000e-03 7.184314e-03
    endloop
  endfacet
  facet normal 9.094211e-01 5.623736e-03 4.158385e-01
    outer loop
      vertex   3.362634e-02 6.500000e-02 2.147682e-02
      vertex   3.711296e-02 2.031250e-03 1.470332e-02
      vertex   3.802420e-02 6.500000e-02 1.185889e-02
    endloop
  endfacet
  facet normal 8.951894e-01 1.625360e-03 4.456830e-01
    outer loop
      vertex   3.362634e-02 6.500000e-02 2.147682e-02
      vertex   3.389543e-02 4.062500e-03 2.115857e-02
      vertex   3.711296e-02 2.031250e-03 1.470332e-02
    endloop
  endfacet
  facet normal 7.894232e-01 2.800661e-04 6.138493e-01
    outer loop
      vertex   3.362634e-02 6.500000e-02 2.147682e-02
      vertex   2.896224e-02 2.031250e-03 2.750368e-02
      vertex   3.389543e-02 4.062500e-03 2.115857e-02
    endloop
  endfacet
  facet normal 7.904627e-01 7.490175e-05 6.125102e-01
    outer loop
      vertex   2.883196e-02 6.500000e-02 2.766411e-02
      vertex   2.896224e-02 2.031250e-03 2.750368e-02
      vertex   3.362634e-02 6.500000e-02 2.147682e-02
    endloop
  endfacet
  facet normal 6.655547e-01 -5.245256e-04 7.463489e-01
    outer loop
      vertex   2.883196e-02 6.500000e-02 2.766411e-02
      vertex   2.388537e-02 4.062500e-03 3.203240e-02
      vertex   2.896224e-02 2.031250e-03 2.750368e-02
    endloop
  endfacet
  facet normal 6.372534e-01 3.514584e-03 7.706463e-01
    outer loop
      vertex   2.216697e-02 6.500000e-02 3.317545e-02
      vertex   2.388537e-02 4.062500e-03 3.203240e-02
      vertex   2.883196e-02 6.500000e-02 2.766411e-02
    endloop
  endfacet
  facet normal 5.020324e-01 -2.065548e-03 8.648463e-01
    outer loop
      vertex   2.216697e-02 6.500000e-02 3.317545e-02
      vertex   1.649602e-02 5.078125e-03 3.632425e-02
      vertex   2.388537e-02 4.062500e-03 3.203240e-02
    endloop
  endfacet
  facet normal 4.778420e-01 9.384065e-04 8.784453e-01
    outer loop
      vertex   1.529099e-02 6.500000e-02 3.691573e-02
      vertex   1.649602e-02 5.078125e-03 3.632425e-02
      vertex   2.216697e-02 6.500000e-02 3.317545e-02
    endloop
  endfacet
  facet normal 3.274903e-01 -2.740622e-03 9.448506e-01
    outer loop
      vertex   1.529099e-02 6.500000e-02 3.691573e-02
      vertex   9.006316e-03 8.125000e-03 3.892906e-02
      vertex   1.649602e-02 5.078125e-03 3.632425e-02
    endloop
  endfacet
  facet normal 2.692066e-01 4.344776e-03 9.630727e-01
    outer loop
      vertex   6.767219e-03 6.500000e-02 3.929837e-02
      vertex   9.006316e-03 8.125000e-03 3.892906e-02
      vertex   1.529099e-02 6.500000e-02 3.691573e-02
    endloop
  endfacet
  facet normal 1.272273e-01 -1.431776e-03 9.918726e-01
    outer loop
      vertex   6.767219e-03 6.500000e-02 3.929837e-02
      vertex   1.443198e-03 4.062500e-03 3.989331e-02
      vertex   9.006316e-03 8.125000e-03 3.892906e-02
    endloop
  endfacet
  facet normal 2.584657e-02 7.501524e-03 9.996378e-01
    outer loop
      vertex   -4.727359e-03 6.500000e-02 3.959557e-02
      vertex   1.443198e-03 4.062500e-03 3.989331e-02
      vertex   6.767219e-03 6.500000e-02 3.929837e-02
    endloop
  endfacet
  facet normal 1.255749e-01 1.694422e-03 9.920827e-01
    outer loop
      vertex   4.727359e-03 -6.500000e-02 3.959557e-02
      vertex   9.006316e-03 8.125000e-03 3.892906e-02
      vertex   1.443198e-03 4.062500e-03 3.989331e-02
    endloop
  endfacet
  facet normal 2.604631e-01 -6.441288e-03 9.654623e-01
    outer loop
      vertex   1.582888e-02 -6.500000e-02 3.660059e-02
      vertex   9.006316e-03 8.125000e-03 3.892906e-02
      vertex   4.727359e-03 -6.500000e-02 3.959557e-02
    endloop
  endfacet
  facet normal 3.287022e-01 5.950351e-04 9.444334e-01
    outer loop
      vertex   1.582888e-02 -6.500000e-02 3.660059e-02
      vertex   1.649602e-02 5.078125e-03 3.632425e-02
      vertex   9.006316e-03 8.125000e-03 3.892906e-02
    endloop
  endfacet
  facet normal 5.021045e-01 -1.369738e-03 8.648059e-01
    outer loop
      vertex   1.582888e-02 -6.500000e-02 3.660059e-02
      vertex   2.388537e-02 4.062500e-03 3.203240e-02
      vertex   1.649602e-02 5.078125e-03 3.632425e-02
    endloop
  endfacet
  facet normal 4.932456e-01 -0.000000e+00 8.698901e-01
    outer loop
      vertex   2.388537e-02 -6.500000e-02 3.203240e-02
      vertex   2.388537e-02 4.062500e-03 3.203240e-02
      vertex   1.582888e-02 -6.500000e-02 3.660059e-02
    endloop
  endfacet
  facet normal 6.656716e-01 -0.000000e+00 7.462448e-01
    outer loop
      vertex   2.388537e-02 -6.500000e-02 3.203240e-02
      vertex   2.896224e-02 2.031250e-03 2.750368e-02
      vertex   2.388537e-02 4.062500e-03 3.203240e-02
    endloop
  endfacet
  facet normal 7.021697e-01 -5.078521e-03 7.119915e-01
    outer loop
      vertex   3.091203e-02 -6.500000e-02 2.510267e-02
      vertex   2.896224e-02 2.031250e-03 2.750368e-02
      vertex   2.388537e-02 -6.500000e-02 3.203240e-02
    endloop
  endfacet
  facet normal 7.893163e-01 9.668559e-04 6.139861e-01
    outer loop
      vertex   3.091203e-02 -6.500000e-02 2.510267e-02
      vertex   3.389543e-02 4.062500e-03 2.115857e-02
      vertex   2.896224e-02 2.031250e-03 2.750368e-02
    endloop
  endfacet
  facet normal 8.793529e-01 -1.080011e-02 4.760481e-01
    outer loop
      vertex   3.787510e-02 -6.500000e-02 1.224053e-02
      vertex   3.389543e-02 4.062500e-03 2.115857e-02
      vertex   3.091203e-02 -6.500000e-02 2.510267e-02
    endloop
  endfacet
  facet normal 8.941783e-01 -6.280958e-03 4.476669e-01
    outer loop
      vertex   3.787510e-02 -6.500000e-02 1.224053e-02
      vertex   3.711296e-02 2.031250e-03 1.470332e-02
      vertex   3.389543e-02 4.062500e-03 2.115857e-02
    endloop
  endfacet
  facet normal 9.604224e-01 6.858556e-04 2.785467e-01
    outer loop
      vertex   3.787510e-02 -6.500000e-02 1.224053e-02
      vertex   3.928931e-02 8.125000e-03 7.184314e-03
      vertex   3.711296e-02 2.031250e-03 1.470332e-02
    endloop
  endfacet
  facet normal 9.865956e-01 -7.809966e-03 1.629974e-01
    outer loop
      vertex   3.989756e-02 -6.500000e-02 -1.058429e-06
      vertex   3.928931e-02 8.125000e-03 7.184314e-03
      vertex   3.787510e-02 -6.500000e-02 1.224053e-02
    endloop
  endfacet
  facet normal 9.980636e-01 2.193633e-03 6.216228e-02
    outer loop
      vertex   3.989756e-02 -6.500000e-02 -1.058429e-06
      vertex   3.987837e-02 5.078125e-03 -2.166032e-03
      vertex   3.928931e-02 8.125000e-03 7.184314e-03
    endloop
  endfacet
  facet normal 9.877391e-01 -4.550504e-03 -1.560475e-01
    outer loop
      vertex   3.802420e-02 -6.500000e-02 -1.185889e-02
      vertex   3.987837e-02 5.078125e-03 -2.166032e-03
      vertex   3.989756e-02 -6.500000e-02 -1.058429e-06
    endloop
  endfacet
  facet normal 9.900686e-01 -6.773443e-03 -1.404216e-01
    outer loop
      vertex   3.802420e-02 -6.500000e-02 -1.185889e-02
      vertex   3.892906e-02 8.125000e-03 -9.006316e-03
      vertex   3.987837e-02 5.078125e-03 -2.166032e-03
    endloop
  endfacet
  facet normal 9.443635e-01 1.144650e-03 -3.289015e-01
    outer loop
      vertex   3.802420e-02 -6.500000e-02 -1.185889e-02
      vertex   3.632425e-02 5.078125e-03 -1.649602e-02
      vertex   3.892906e-02 8.125000e-03 -9.006316e-03
    endloop
  endfacet
  facet normal 8.818624e-01 -9.801056e-03 -4.714049e-01
    outer loop
      vertex   3.122915e-02 -6.500000e-02 -2.457047e-02
      vertex   3.632425e-02 5.078125e-03 -1.649602e-02
      vertex   3.802420e-02 -6.500000e-02 -1.185889e-02
    endloop
  endfacet
  facet normal 8.650170e-01 -5.083753e-03 -5.017167e-01
    outer loop
      vertex   3.122915e-02 -6.500000e-02 -2.457047e-02
      vertex   3.203240e-02 4.062500e-03 -2.388537e-02
      vertex   3.632425e-02 5.078125e-03 -1.649602e-02
    endloop
  endfacet
  facet normal 7.466575e-01 -2.085343e-03 -6.652054e-01
    outer loop
      vertex   3.122915e-02 -6.500000e-02 -2.457047e-02
      vertex   2.750368e-02 2.031250e-03 -2.896224e-02
      vertex   3.203240e-02 4.062500e-03 -2.388537e-02
    endloop
  endfacet
  facet normal 6.885478e-01 -9.241261e-03 -7.251320e-01
    outer loop
      vertex   2.216697e-02 -6.500000e-02 -3.317545e-02
      vertex   2.750368e-02 2.031250e-03 -2.896224e-02
      vertex   3.122915e-02 -6.500000e-02 -2.457047e-02
    endloop
  endfacet
  facet normal 6.139400e-01 7.351945e-04 -7.893524e-01
    outer loop
      vertex   2.216697e-02 -6.500000e-02 -3.317545e-02
      vertex   2.115857e-02 4.062500e-03 -3.389543e-02
      vertex   2.750368e-02 2.031250e-03 -2.896224e-02
    endloop
  endfacet
  facet normal 4.467979e-01 -2.802809e-03 -8.946305e-01
    outer loop
      vertex   2.216697e-02 -6.500000e-02 -3.317545e-02
      vertex   1.470332e-02 2.031250e-03 -3.711296e-02
      vertex   2.115857e-02 4.062500e-03 -3.389543e-02
    endloop
  endfacet
  facet normal 4.778416e-01 1.604574e-03 -8.784445e-01
    outer loop
      vertex   1.529099e-02 -6.500000e-02 -3.691573e-02
      vertex   1.470332e-02 2.031250e-03 -3.711296e-02
      vertex   2.216697e-02 -6.500000e-02 -3.317545e-02
    endloop
  endfacet
  facet normal 2.692091e-01 -4.735850e-04 -9.630816e-01
    outer loop
      vertex   6.767219e-03 -6.500000e-02 -3.929837e-02
      vertex   1.470332e-02 2.031250e-03 -3.711296e-02
      vertex   1.529099e-02 -6.500000e-02 -3.691573e-02
    endloop
  endfacet
  facet normal 2.769412e-01 -1.460615e-03 -9.608858e-01
    outer loop
      vertex   6.767219e-03 -6.500000e-02 -3.929837e-02
      vertex   7.184314e-03 8.125000e-03 -3.928931e-02
      vertex   1.470332e-02 2.031250e-03 -3.711296e-02
    endloop
  endfacet
  facet normal 6.295084e-02 -2.354450e-04 -9.980166e-01
    outer loop
      vertex   6.767219e-03 -6.500000e-02 -3.929837e-02
      vertex   -2.166032e-03 5.078125e-03 -3.987837e-02
      vertex   7.184314e-03 8.125000e-03 -3.928931e-02
    endloop
  endfacet
  facet normal 2.584698e-02 -4.978831e-03 -9.996535e-01
    outer loop
      vertex   -4.727359e-03 -6.500000e-02 -3.959557e-02
      vertex   -2.166032e-03 5.078125e-03 -3.987837e-02
      vertex   6.767219e-03 -6.500000e-02 -3.929837e-02
    endloop
  endfacet
  facet normal -1.370235e-01 1.010685e-03 -9.905673e-01
    outer loop
      vertex   -4.727359e-03 -6.500000e-02 -3.959557e-02
      vertex   -9.006316e-03 8.125000e-03 -3.892906e-02
      vertex   -2.166032e-03 5.078125e-03 -3.987837e-02
    endloop
  endfacet
  facet normal -2.604631e-01 -6.441288e-03 -9.654623e-01
    outer loop
      vertex   -1.582888e-02 -6.500000e-02 -3.660059e-02
      vertex   -9.006316e-03 8.125000e-03 -3.892906e-02
      vertex   -4.727359e-03 -6.500000e-02 -3.959557e-02
    endloop
  endfacet
  facet normal -3.287022e-01 5.950351e-04 -9.444334e-01
    outer loop
      vertex   -1.582888e-02 -6.500000e-02 -3.660059e-02
      vertex   -1.649602e-02 5.078125e-03 -3.632425e-02
      vertex   -9.006316e-03 8.125000e-03 -3.892906e-02
    endloop
  endfacet
  facet normal -5.021045e-01 -1.369738e-03 -8.648059e-01
    outer loop
      vertex   -1.582888e-02 -6.500000e-02 -3.660059e-02
      vertex   -2.388537e-02 4.062500e-03 -3.203240e-02
      vertex   -1.649602e-02 5.078125e-03 -3.632425e-02
    endloop
  endfacet
  facet normal -4.932456e-01 0.000000e+00 -8.698901e-01
    outer loop
      vertex   -2.388537e-02 -6.500000e-02 -3.203240e-02
      vertex   -2.388537e-02 4.062500e-03 -3.203240e-02
      vertex   -1.582888e-02 -6.500000e-02 -3.660059e-02
    endloop
  endfacet
  facet normal -6.656716e-01 0.000000e+00 -7.462448e-01
    outer loop
      vertex   -2.388537e-02 -6.500000e-02 -3.203240e-02
      vertex   -2.896224e-02 2.031250e-03 -2.750368e-02
      vertex   -2.388537e-02 4.062500e-03 -3.203240e-02
    endloop
  endfacet
  facet normal -7.021697e-01 -5.078521e-03 -7.119915e-01
    outer loop
      vertex   -3.091203e-02 -6.500000e-02 -2.510267e-02
      vertex   -2.896224e-02 2.031250e-03 -2.750368e-02
      vertex   -2.388537e-02 -6.500000e-02 -3.203240e-02
    endloop
  endfacet
  facet normal -7.893163e-01 9.668559e-04 -6.139861e-01
    outer loop
      vertex   -3.091203e-02 -6.500000e-02 -2.510267e-02
      vertex   -3.389543e-02 4.062500e-03 -2.115857e-02
      vertex   -2.896224e-02 2.031250e-03 -2.750368e-02
    endloop
  endfacet
  facet normal -8.793529e-01 -1.080011e-02 -4.760481e-01
    outer loop
      vertex   -3.787510e-02 -6.500000e-02 -1.224053e-02
      vertex   -3.389543e-02 4.062500e-03 -2.115857e-02
      vertex   -3.091203e-02 -6.500000e-02 -2.510267e-02
    endloop
  endfacet
  facet normal -8.941783e-01 -6.280958e-03 -4.476669e-01
    outer loop
      vertex   -3.787510e-02 -6.500000e-02 -1.224053e-02
      vertex   -3.711296e-02 2.031250e-03 -1.470332e-02
      vertex   -3.389543e-02 4.062500e-03 -2.115857e-02
    endloop
  endfacet
  facet normal -9.604224e-01 6.858556e-04 -2.785467e-01
    outer loop
      vertex   -3.787510e-02 -6.500000e-02 -1.224053e-02
      vertex   -3.928931e-02 8.125000e-03 -7.184314e-03
      vertex   -3.711296e-02 2.031250e-03 -1.470332e-02
    endloop
  endfacet
  facet normal -9.865956e-01 -7.809966e-03 -1.629974e-01
    outer loop
      vertex   -3.989756e-02 -6.500000e-02 1.058429e-06
      vertex   -3.928931e-02 8.125000e-03 -7.184314e-03
      vertex   -3.787510e-02 -6.500000e-02 -1.224053e-02
    endloop
  endfacet
  facet normal -9.980636e-01 2.193633e-03 -6.216228e-02
    outer loop
      vertex   -3.989756e-02 -6.500000e-02 1.058429e-06
      vertex   -3.987837e-02 5.078125e-03 2.166032e-03
      vertex   -3.928931e-02 8.125000e-03 -7.184314e-03
    endloop
  endfacet
  facet normal -9.877391e-01 -4.550504e-03 1.560475e-01
    outer loop
      vertex   -3.802420e-02 -6.500000e-02 1.185889e-02
      vertex   -3.987837e-02 5.078125e-03 2.166032e-03
      vertex   -3.989756e-02 -6.500000e-02 1.058429e-06
    endloop
  endfacet
  facet normal -9.900686e-01 -6.773443e-03 1.404216e-01
    outer loop
      vertex   -3.802420e-02 -6.500000e-02 1.185889e-02
      vertex   -3.892906e-02 8.125000e-03 9.006316e-03
      vertex   -3.987837e-02 5.078125e-03 2.166032e-03
    endloop
  endfacet
  facet normal -9.443635e-01 1.144650e-03 3.289015e-01
    outer loop
      vertex   -3.802420e-02 -6.500000e-02 1.185889e-02
      vertex   -3.632425e-02 5.078125e-03 1.649602e-02
      vertex   -3.892906e-02 8.125000e-03 9.006316e-03
    endloop
  endfacet
  facet normal -8.818624e-01 -9.801056e-03 4.714049e-01
    outer loop
      vertex   -3.122915e-02 -6.500000e-02 2.457047e-02
      vertex   -3.632425e-02 5.078125e-03 1.649602e-02
      vertex   -3.802420e-02 -6.500000e-02 1.185889e-02
    endloop
  endfacet
  facet normal -8.650170e-01 -5.083753e-03 5.017167e-01
    outer loop
      vertex   -3.122915e-02 -6.500000e-02 2.457047e-02
      vertex   -3.203240e-02 4.062500e-03 2.388537e-02
      vertex   -3.632425e-02 5.078125e-03 1.649602e-02
    endloop
  endfacet
  facet normal -7.466575e-01 -2.085343e-03 6.652054e-01
    outer loop
      vertex   -3.122915e-02 -6.500000e-02 2.457047e-02
      vertex   -2.750368e-02 2.031250e-03 2.896224e-02
      vertex   -3.203240e-02 4.062500e-03 2.388537e-02
    endloop
  endfacet
  facet normal -6.885478e-01 -9.241261e-03 7.251320e-01
    outer loop
      vertex   -2.216697e-02 -6.500000e-02 3.317545e-02
      vertex   -2.750368e-02 2.031250e-03 2.896224e-02
      vertex   -3.122915e-02 -6.500000e-02 2.457047e-02
    endloop
  endfacet
  facet normal -6.139400e-01 7.351945e-04 7.893524e-01
    outer loop
      vertex   -2.216697e-02 -6.500000e-02 3.317545e-02
      vertex   -2.115857e-02 4.062500e-03 3.389543e-02
      vertex   -2.750368e-02 2.031250e-03 2.896224e-02
    endloop
  endfacet
  facet normal -4.467979e-01 -2.802809e-03 8.946305e-01
    outer loop
      vertex   -2.216697e-02 -6.500000e-02 3.317545e-02
      vertex   -1.470332e-02 2.031250e-03 3.711296e-02
      vertex   -2.115857e-02 4.062500e-03 3.389543e-02
    endloop
  endfacet
  facet normal -4.778416e-01 1.604574e-03 8.784445e-01
    outer loop
      vertex   -1.529099e-02 -6.500000e-02 3.691573e-02
      vertex   -1.470332e-02 2.031250e-03 3.711296e-02
      vertex   -2.216697e-02 -6.500000e-02 3.317545e-02
    endloop
  endfacet
  facet normal -2.692091e-01 -4.735850e-04 9.630816e-01
    outer loop
      vertex   -6.767219e-03 -6.500000e-02 3.929837e-02
      vertex   -1.470332e-02 2.031250e-03 3.711296e-02
      vertex   -1.529099e-02 -6.500000e-02 3.691573e-02
    endloop
  endfacet
  facet normal -2.769412e-01 -1.460615e-03 9.608858e-01
    outer loop
      vertex   -6.767219e-03 -6.500000e-02 3.929837e-02
      vertex   -7.184314e-03 8.125000e-03 3.928931e-02
      vertex   -1.470332e-02 2.031250e-03 3.711296e-02
    endloop
  endfacet
  facet normal -6.996732e-02 -2.755239e-04 9.975492e-01
    outer loop
      vertex   -6.767219e-03 -6.500000e-02 3.929837e-02
      vertex   1.443198e-03 4.062500e-03 3.989331e-02
      vertex   -7.184314e-03 8.125000e-03 3.928931e-02
    endloop
  endfacet
  facet normal -2.584690e-02 -5.538832e-03 9.996506e-01
    outer loop
      vertex   4.727359e-03 -6.500000e-02 3.959557e-02
      vertex   1.443198e-03 4.062500e-03 3.989331e-02
      vertex   -6.767219e-03 -6.500000e-02 3.929837e-02
    endloop
  endfacet
  facet normal -1.000000e+00 0.000000e+00 0.000000e+00
    outer loop
      vertex   -6.500000e-02 3.935887e-02 -6.405947e-03
      vertex   -6.500000e-02 3.543828e-02 1.842261e-02
      vertex   -6.500000e-02 3.916036e-02 6.800122e-03
    endloop
  endfacet
  facet normal -1.000000e+00 0.000000e+00 0.000000e+00
    outer loop
      vertex   -6.500000e-02 3.935887e-02 -6.405947e-03
      vertex   -6.500000e-02 3.032588e-02 2.589397e-02
      vertex   -6.500000e-02 3.543828e-02 1.842261e-02
    endloop
  endfacet
  facet normal -1.000000e+00 0.000000e+00 0.000000e+00
    outer loop
      vertex   -6.500000e-02 3.696174e-02 -1.513586e-02
      vertex   -6.500000e-02 3.032588e-02 2.589397e-02
      vertex   -6.500000e-02 3.935887e-02 -6.405947e-03
    endloop
  endfacet
  facet normal -1.000000e+00 0.000000e+00 0.000000e+00
    outer loop
      vertex   -6.500000e-02 3.696174e-02 -1.513586e-02
      vertex   -6.500000e-02 2.239884e-02 3.306896e-02
      vertex   -6.500000e-02 3.032588e-02 2.589397e-02
    endloop
  endfacet
  facet normal -1.000000e+00 0.000000e+00 0.000000e+00
    outer loop
      vertex   -6.500000e-02 3.049838e-02 -2.548773e-02
      vertex   -6.500000e-02 2.239884e-02 3.306896e-02
      vertex   -6.500000e-02 3.696174e-02 -1.513586e-02
    endloop
  endfacet
  facet normal -1.000000e+00 0.000000e+00 0.000000e+00
    outer loop
      vertex   -6.500000e-02 3.049838e-02 -2.548773e-02
      vertex   -6.500000e-02 1.513586e-02 3.696174e-02
      vertex   -6.500000e-02 2.239884e-02 3.306896e-02
    endloop
  endfacet
  facet normal -1.000000e+00 0.000000e+00 0.000000e+00
    outer loop
      vertex   -6.500000e-02 2.178480e-02 -3.342764e-02
      vertex   -6.500000e-02 1.513586e-02 3.696174e-02
      vertex   -6.500000e-02 3.049838e-02 -2.548773e-02
    endloop
  endfacet
  facet normal -1.000000e+00 0.000000e+00 0.000000e+00
    outer loop
      vertex   -6.500000e-02 2.178480e-02 -3.342764e-02
      vertex   -6.500000e-02 6.405947e-03 3.935887e-02
      vertex   -6.500000e-02 1.513586e-02 3.696174e-02
    endloop
  endfacet
  facet normal -1.000000e+00 0.000000e+00 0.000000e+00
    outer loop
      vertex   -6.500000e-02 1.409643e-02 -3.738818e-02
      vertex   -6.500000e-02 6.405947e-03 3.935887e-02
      vertex   -6.500000e-02 2.178480e-02 -3.342764e-02
    endloop
  endfacet
  facet normal -1.000000e+00 0.000000e+00 0.000000e+00
    outer loop
      vertex   -6.500000e-02 1.409643e-02 -3.738818e-02
      vertex   -6.500000e-02 -5.090877e-03 3.955047e-02
      vertex   -6.500000e-02 6.405947e-03 3.935887e-02
    endloop
  endfacet
  facet normal -1.000000e+00 0.000000e+00 0.000000e+00
    outer loop
      vertex   -6.500000e-02 5.090877e-03 -3.955047e-02
      vertex   -6.500000e-02 -5.090877e-03 3.955047e-02
      vertex   -6.500000e-02 1.409643e-02 -3.738818e-02
    endloop
  endfacet
  facet normal -1.000000e+00 0.000000e+00 0.000000e+00
    outer loop
      vertex   -6.500000e-02 -3.935887e-02 6.405947e-03
      vertex   -6.500000e-02 -3.543828e-02 -1.842261e-02
      vertex   -6.500000e-02 -3.916036e-02 -6.800122e-03
    endloop
  endfacet
  facet normal -1.000000e+00 0.000000e+00 0.000000e+00
    outer loop
      vertex   -6.500000e-02 -3.935887e-02 6.405947e-03
      vertex   -6.500000e-02 -3.032588e-02 -2.589397e-02
      vertex   -6.500000e-02 -3.543828e-02 -1.842261e-02
    endloop
  endfacet
  facet normal -1.000000e+00 0.000000e+00 -0.000000e+00
    outer loop
      vertex   -6.500000e-02 -3.696174e-02 1.513586e-02
      vertex   -6.500000e-02 -3.032588e-02 -2.589397e-02
      vertex   -6.500000e-02 -3.935887e-02 6.405947e-03
    endloop
  endfacet
  facet normal -1.000000e+00 0.000000e+00 0.000000e+00
    outer loop
      vertex   -6.500000e-02 -3.696174e-02 1.513586e-02
      vertex   -6.500000e-02 -1.876735e-02 -3.501535e-02
      vertex   -6.500000e-02 -3.032588e-02 -2.589397e-02
    endloop
  endfacet
  facet normal -1.000000e+00 0.000000e+00 -0.000000e+00
    outer loop
      vertex   -6.500000e-02 -3.049838e-02 2.548773e-02
      vertex   -6.500000e-02 -1.876735e-02 -3.501535e-02
      vertex   -6.500000e-02 -3.696174e-02 1.513586e-02
    endloop
  endfacet
  facet normal -1.000000e+00 0.000000e+00 -0.000000e+00
    outer loop
      vertex   -6.500000e-02 -2.178480e-02 3.342764e-02
      vertex   -6.500000e-02 -1.876735e-02 -3.501535e-02
      vertex   -6.500000e-02 -3.049838e-02 2.548773e-02
    endloop
  endfacet
  facet normal -1.000000e+00 0.000000e+00 0.000000e+00
    outer loop
      vertex   -6.500000e-02 -2.178480e-02 3.342764e-02
      vertex   -6.500000e-02 -6.405947e-03 -3.935887e-02
      vertex   -6.500000e-02 -1.876735e-02 -3.501535e-02
    endloop
  endfacet
  facet normal -1.000000e+00 0.000000e+00 -0.000000e+00
    outer loop
      vertex   -6.500000e-02 -1.409643e-02 3.738818e-02
      vertex   -6.500000e-02 -6.405947e-03 -3.935887e-02
      vertex   -6.500000e-02 -2.178480e-02 3.342764e-02
    endloop
  endfacet
  facet normal -1.000000e+00 0.000000e+00 0.000000e+00
    outer loop
      vertex   -6.500000e-02 -1.409643e-02 3.738818e-02
      vertex   -6.500000e-02 5.090877e-03 -3.955047e-02
      vertex   -6.500000e-02 -6.405947e-03 -3.935887e-02
    endloop
  endfacet
  facet normal -1.000000e+00 0.000000e+00 -0.000000e+00
    outer loop
      vertex   -6.500000e-02 -5.090877e-03 3.955047e-02
      vertex   -6.500000e-02 5.090877e-03 -3.955047e-02
      vertex   -6.500000e-02 -1.409643e-02 3.738818e-02
    endloop
  endfacet
  facet normal 1.000000e+00 0.000000e+00 0.000000e+00
    outer loop
      vertex   6.500000e-02 -3.211740e-02 -2.363534e-02
      vertex   6.500000e-02 -3.975596e-02 -5.543232e-05
      vertex   6.500000e-02 -3.752622e-02 -1.348850e-02
    endloop
  endfacet
  facet normal 1.000000e+00 0.000000e+00 0.000000e+00
    outer loop
      vertex   6.500000e-02 -3.211740e-02 -2.363534e-02
      vertex   6.500000e-02 -3.785287e-02 1.260854e-02
      vertex   6.500000e-02 -3.975596e-02 -5.543232e-05
    endloop
  endfacet
  facet normal 1.000000e+00 0.000000e+00 0.000000e+00
    outer loop
      vertex   6.500000e-02 -3.211740e-02 -2.363534e-02
      vertex   6.500000e-02 -3.261749e-02 2.271289e-02
      vertex   6.500000e-02 -3.785287e-02 1.260854e-02
    endloop
  endfacet
  facet normal 1.000000e+00 0.000000e+00 0.000000e+00
    outer loop
      vertex   6.500000e-02 -2.600596e-02 -3.031426e-02
      vertex   6.500000e-02 -3.261749e-02 2.271289e-02
      vertex   6.500000e-02 -3.211740e-02 -2.363534e-02
    endloop
  endfacet
  facet normal 1.000000e+00 0.000000e+00 0.000000e+00
    outer loop
      vertex   6.500000e-02 -1.866695e-02 -3.526131e-02
      vertex   6.500000e-02 -3.261749e-02 2.271289e-02
      vertex   6.500000e-02 -2.600596e-02 -3.031426e-02
    endloop
  endfacet
  facet normal 1.000000e+00 0.000000e+00 0.000000e+00
    outer loop
      vertex   6.500000e-02 -1.866695e-02 -3.526131e-02
      vertex   6.500000e-02 -2.363534e-02 3.211740e-02
      vertex   6.500000e-02 -3.261749e-02 2.271289e-02
    endloop
  endfacet
  facet normal 1.000000e+00 0.000000e+00 0.000000e+00
    outer loop
      vertex   6.500000e-02 -7.004853e-03 -3.919987e-02
      vertex   6.500000e-02 -2.363534e-02 3.211740e-02
      vertex   6.500000e-02 -1.866695e-02 -3.526131e-02
    endloop
  endfacet
  facet normal 1.000000e+00 0.000000e+00 0.000000e+00
    outer loop
      vertex   6.500000e-02 -7.004853e-03 -3.919987e-02
      vertex   6.500000e-02 -1.348850e-02 3.752622e-02
      vertex   6.500000e-02 -2.363534e-02 3.211740e-02
    endloop
  endfacet
  facet normal 1.000000e+00 0.000000e+00 0.000000e+00
    outer loop
      vertex   6.500000e-02 3.046427e-03 -3.982441e-02
      vertex   6.500000e-02 -1.348850e-02 3.752622e-02
      vertex   6.500000e-02 -7.004853e-03 -3.919987e-02
    endloop
  endfacet
  facet normal 1.000000e+00 0.000000e+00 0.000000e+00
    outer loop
      vertex   6.500000e-02 3.211740e-02 2.363534e-02
      vertex   6.500000e-02 3.975596e-02 5.543232e-05
      vertex   6.500000e-02 3.752622e-02 1.348850e-02
    endloop
  endfacet
  facet normal 1.000000e+00 0.000000e+00 0.000000e+00
    outer loop
      vertex   6.500000e-02 3.211740e-02 2.363534e-02
      vertex   6.500000e-02 3.785287e-02 -1.260854e-02
      vertex   6.500000e-02 3.975596e-02 5.543232e-05
    endloop
  endfacet
  facet normal 1.000000e+00 0.000000e+00 0.000000e+00
    outer loop
      vertex   6.500000e-02 3.211740e-02 2.363534e-02
      vertex   6.500000e-02 3.261749e-02 -2.271289e-02
      vertex   6.500000e-02 3.785287e-02 -1.260854e-02
    endloop
  endfacet
  facet normal 1.000000e+00 0.000000e+00 0.000000e+00
    outer loop
      vertex   6.500000e-02 2.600596e-02 3.031426e-02
      vertex   6.500000e-02 3.261749e-02 -2.271289e-02
      vertex   6.500000e-02 3.211740e-02 2.363534e-02
    endloop
  endfacet
  facet normal 1.000000e+00 0.000000e+00 0.000000e+00
    outer loop
      vertex   6.500000e-02 1.866695e-02 3.526131e-02
      vertex   6.500000e-02 3.261749e-02 -2.271289e-02
      vertex   6.500000e-02 2.600596e-02 3.031426e-02
    endloop
  endfacet
  facet normal 1.000000e+00 0.000000e+00 0.000000e+00
    outer loop
      vertex   6.500000e-02 1.866695e-02 3.526131e-02
      vertex   6.500000e-02 2.363534e-02 -3.211740e-02
      vertex   6.500000e-02 3.261749e-02 -2.271289e-02
    endloop
  endfacet
  facet normal 1.000000e+00 0.000000e+00 0.000000e+00
    outer loop
      vertex   6.500000e-02 7.004853e-03 3.919987e-02
      vertex   6.500000e-02 2.363534e-02 -3.211740e-02
      vertex   6.500000e-02 1.866695e-02 3.526131e-02
    endloop
  endfacet
  facet normal 1.000000e+00 0.000000e+00 0.000000e+00
    outer loop
      vertex   6.500000e-02 7.004853e-03 3.919987e-02
      vertex   6.500000e-02 1.348850e-02 -3.752622e-02
      vertex   6.500000e-02 2.363534e-02 -3.211740e-02
    endloop
  endfacet
  facet normal 1.000000e+00 0.000000e+00 0.000000e+00
    outer loop
      vertex   6.500000e-02 -3.046427e-03 3.982441e-02
      vertex   6.500000e-02 1.348850e-02 -3.752622e-02
      vertex   6.500000e-02 7.004853e-03 3.919987e-02
    endloop
  endfacet
  facet normal 1.000000e+00 0.000000e+00 0.000000e+00
    outer loop
      vertex   6.500000e-02 -3.046427e-03 3.982441e-02
      vertex   6.500000e-02 3.046427e-03 -3.982441e-02
      vertex   6.500000e-02 1.348850e-02 -3.752622e-02
    endloop
  endfacet
  facet normal 1.000000e+00 -0.000000e+00 0.000000e+00
    outer loop
      vertex   6.500000e-02 -1.348850e-02 3.752622e-02
      vertex   6.500000e-02 3.046427e-03 -3.982441e-02
      vertex   6.500000e-02 -3.046427e-03 3.982441e-02
    endloop
  endfacet
  facet normal -2.892015e-03 -2.334700e-01 9.723597e-01
    outer loop
      vertex   -6.500000e-02 -1.409643e-02 3.738818e-02
      vertex   -3.046875e-03 -6.877410e-03 3.930578e-02
      vertex   -6.500000e-02 -5.090877e-03 3.955047e-02
    endloop
  endfacet
  facet normal 3.474879e-03 -2.844757e-01 9.586769e-01
    outer loop
      vertex   -6.500000e-02 -1.409643e-02 3.738818e-02
      vertex   -5.078125e-03 -1.600635e-02 3.660424e-02
      vertex   -3.046875e-03 -6.877410e-03 3.930578e-02
    endloop
  endfacet
  facet normal -2.965976e-03 -4.579417e-01 8.889773e-01
    outer loop
      vertex   -6.500000e-02 -2.178480e-02 3.342764e-02
      vertex   -5.078125e-03 -1.600635e-02 3.660424e-02
      vertex   -6.500000e-02 -1.409643e-02 3.738818e-02
    endloop
  endfacet
  facet normal 2.777225e-03 -5.036986e-01 8.638750e-01
    outer loop
      vertex   -6.500000e-02 -2.178480e-02 3.342764e-02
      vertex   -8.125000e-03 -2.330124e-02 3.236061e-02
      vertex   -5.078125e-03 -1.600635e-02 3.660424e-02
    endloop
  endfacet
  facet normal -4.090691e-03 -6.735250e-01 7.391531e-01
    outer loop
      vertex   -6.500000e-02 -3.049838e-02 2.548773e-02
      vertex   -8.125000e-03 -2.330124e-02 3.236061e-02
      vertex   -6.500000e-02 -2.178480e-02 3.342764e-02
    endloop
  endfacet
  facet normal -6.471496e-03 -6.633921e-01 7.482440e-01
    outer loop
      vertex   -6.500000e-02 -3.049838e-02 2.548773e-02
      vertex   -2.031250e-03 -2.979927e-02 2.665217e-02
      vertex   -8.125000e-03 -2.330124e-02 3.236061e-02
    endloop
  endfacet
  facet normal -2.423471e-03 -7.940822e-01 6.078056e-01
    outer loop
      vertex   -6.500000e-02 -3.049838e-02 2.548773e-02
      vertex   -8.125000e-03 -3.329821e-02 2.205660e-02
      vertex   -2.031250e-03 -2.979927e-02 2.665217e-02
    endloop
  endfacet
  facet normal -9.806258e-03 -8.481989e-01 5.295870e-01
    outer loop
      vertex   -6.500000e-02 -3.696174e-02 1.513586e-02
      vertex   -8.125000e-03 -3.329821e-02 2.205660e-02
      vertex   -6.500000e-02 -3.049838e-02 2.548773e-02
    endloop
  endfacet
  facet normal 2.368968e-03 -8.917251e-01 4.525712e-01
    outer loop
      vertex   -6.500000e-02 -3.696174e-02 1.513586e-02
      vertex   -6.093750e-03 -3.729949e-02 1.416204e-02
      vertex   -8.125000e-03 -3.329821e-02 2.205660e-02
    endloop
  endfacet
  facet normal -1.151593e-03 -9.643062e-01 2.647873e-01
    outer loop
      vertex   -6.500000e-02 -3.935887e-02 6.405947e-03
      vertex   -6.093750e-03 -3.729949e-02 1.416204e-02
      vertex   -6.500000e-02 -3.696174e-02 1.513586e-02
    endloop
  endfacet
  facet normal -2.144968e-03 -9.623480e-01 2.718119e-01
    outer loop
      vertex   -6.500000e-02 -3.935887e-02 6.405947e-03
      vertex   -8.125000e-03 -3.942368e-02 6.625320e-03
      vertex   -6.093750e-03 -3.729949e-02 1.416204e-02
    endloop
  endfacet
  facet normal -1.466161e-03 -9.963122e-01 8.578965e-02
    outer loop
      vertex   -6.500000e-02 -3.935887e-02 6.405947e-03
      vertex   -8.125000e-03 -3.995466e-02 4.587967e-04
      vertex   -8.125000e-03 -3.942368e-02 6.625320e-03
    endloop
  endfacet
  facet normal -1.204497e-02 -9.998145e-01 -1.502891e-02
    outer loop
      vertex   -6.500000e-02 -3.916036e-02 -6.800122e-03
      vertex   -8.125000e-03 -3.995466e-02 4.587967e-04
      vertex   -6.500000e-02 -3.935887e-02 6.405947e-03
    endloop
  endfacet
  facet normal -2.532079e-03 -9.960151e-01 -8.914847e-02
    outer loop
      vertex   -6.500000e-02 -3.916036e-02 -6.800122e-03
      vertex   -5.078125e-03 -3.930578e-02 -6.877410e-03
      vertex   -8.125000e-03 -3.995466e-02 4.587967e-04
    endloop
  endfacet
  facet normal -2.693005e-03 -9.588899e-01 -2.837656e-01
    outer loop
      vertex   -6.500000e-02 -3.916036e-02 -6.800122e-03
      vertex   -5.078125e-03 -3.660424e-02 -1.600635e-02
      vertex   -5.078125e-03 -3.930578e-02 -6.877410e-03
    endloop
  endfacet
  facet normal -6.232529e-03 -9.523370e-01 -3.049843e-01
    outer loop
      vertex   -6.500000e-02 -3.543828e-02 -1.842261e-02
      vertex   -5.078125e-03 -3.660424e-02 -1.600635e-02
      vertex   -6.500000e-02 -3.916036e-02 -6.800122e-03
    endloop
  endfacet
  facet normal 3.513482e-03 -8.637391e-01 -5.039270e-01
    outer loop
      vertex   -6.500000e-02 -3.543828e-02 -1.842261e-02
      vertex   -8.125000e-03 -3.236061e-02 -2.330124e-02
      vertex   -5.078125e-03 -3.660424e-02 -1.600635e-02
    endloop
  endfacet
  facet normal -3.781561e-03 -8.252801e-01 -5.647110e-01
    outer loop
      vertex   -6.500000e-02 -3.032588e-02 -2.589397e-02
      vertex   -8.125000e-03 -3.236061e-02 -2.330124e-02
      vertex   -6.500000e-02 -3.543828e-02 -1.842261e-02
    endloop
  endfacet
  facet normal 3.083544e-03 -7.527051e-01 -6.583506e-01
    outer loop
      vertex   -6.500000e-02 -3.032588e-02 -2.589397e-02
      vertex   -2.031250e-03 -2.665217e-02 -2.979927e-02
      vertex   -8.125000e-03 -3.236061e-02 -2.330124e-02
    endloop
  endfacet
  facet normal -1.254291e-02 -6.194375e-01 -7.849458e-01
    outer loop
      vertex   -6.500000e-02 -1.876735e-02 -3.501535e-02
      vertex   -2.031250e-03 -2.665217e-02 -2.979927e-02
      vertex   -6.500000e-02 -3.032588e-02 -2.589397e-02
    endloop
  endfacet
  facet normal -1.181201e-02 -6.156008e-01 -7.879696e-01
    outer loop
      vertex   -6.500000e-02 -1.876735e-02 -3.501535e-02
      vertex   -8.125000e-03 -2.205660e-02 -3.329821e-02
      vertex   -2.031250e-03 -2.665217e-02 -2.979927e-02
    endloop
  endfacet
  facet normal 7.728974e-04 -4.522456e-01 -8.918931e-01
    outer loop
      vertex   -6.500000e-02 -1.876735e-02 -3.501535e-02
      vertex   -6.093750e-03 -1.416204e-02 -3.729949e-02
      vertex   -8.125000e-03 -2.205660e-02 -3.329821e-02
    endloop
  endfacet
  facet normal -1.066506e-02 -3.314892e-01 -9.433987e-01
    outer loop
      vertex   -6.500000e-02 -6.405947e-03 -3.935887e-02
      vertex   -6.093750e-03 -1.416204e-02 -3.729949e-02
      vertex   -6.500000e-02 -1.876735e-02 -3.501535e-02
    endloop
  endfacet
  facet normal -2.144968e-03 -2.718119e-01 -9.623480e-01
    outer loop
      vertex   -6.500000e-02 -6.405947e-03 -3.935887e-02
      vertex   -8.125000e-03 -6.625320e-03 -3.942368e-02
      vertex   -6.093750e-03 -1.416204e-02 -3.729949e-02
    endloop
  endfacet
  facet normal -1.466161e-03 -8.578965e-02 -9.963122e-01
    outer loop
      vertex   -6.500000e-02 -6.405947e-03 -3.935887e-02
      vertex   -8.125000e-03 -4.587967e-04 -3.995466e-02
      vertex   -8.125000e-03 -6.625320e-03 -3.942368e-02
    endloop
  endfacet
  facet normal -8.731211e-03 -1.666276e-02 -9.998230e-01
    outer loop
      vertex   -6.500000e-02 5.090877e-03 -3.955047e-02
      vertex   -8.125000e-03 -4.587967e-04 -3.995466e-02
      vertex   -6.500000e-02 -6.405947e-03 -3.935887e-02
    endloop
  endfacet
  facet normal 1.459041e-03 8.750396e-02 -9.961631e-01
    outer loop
      vertex   -6.500000e-02 5.090877e-03 -3.955047e-02
      vertex   -5.078125e-03 6.877410e-03 -3.930578e-02
      vertex   -8.125000e-03 -4.587967e-04 -3.995466e-02
    endloop
  endfacet
  facet normal -2.990048e-03 2.334699e-01 -9.723594e-01
    outer loop
      vertex   -6.500000e-02 1.409643e-02 -3.738818e-02
      vertex   -5.078125e-03 6.877410e-03 -3.930578e-02
      vertex   -6.500000e-02 5.090877e-03 -3.955047e-02
    endloop
  endfacet
  facet normal 3.500292e-03 2.837648e-01 -9.588875e-01
    outer loop
      vertex   -6.500000e-02 1.409643e-02 -3.738818e-02
      vertex   -5.078125e-03 1.600635e-02 -3.660424e-02
      vertex   -5.078125e-03 6.877410e-03 -3.930578e-02
    endloop
  endfacet
  facet normal -2.965976e-03 4.579417e-01 -8.889773e-01
    outer loop
      vertex   -6.500000e-02 2.178480e-02 -3.342764e-02
      vertex   -5.078125e-03 1.600635e-02 -3.660424e-02
      vertex   -6.500000e-02 1.409643e-02 -3.738818e-02
    endloop
  endfacet
  facet normal 2.777225e-03 5.036986e-01 -8.638750e-01
    outer loop
      vertex   -6.500000e-02 2.178480e-02 -3.342764e-02
      vertex   -8.125000e-03 2.330124e-02 -3.236061e-02
      vertex   -5.078125e-03 1.600635e-02 -3.660424e-02
    endloop
  endfacet
  facet normal -4.090691e-03 6.735250e-01 -7.391531e-01
    outer loop
      vertex   -6.500000e-02 3.049838e-02 -2.548773e-02
      vertex   -8.125000e-03 2.330124e-02 -3.236061e-02
      vertex   -6.500000e-02 2.178480e-02 -3.342764e-02
    endloop
  endfacet
  facet normal -6.471496e-03 6.633921e-01 -7.482440e-01
    outer loop
      vertex   -6.500000e-02 3.049838e-02 -2.548773e-02
      vertex   -2.031250e-03 2.979927e-02 -2.665217e-02
      vertex   -8.125000e-03 2.330124e-02 -3.236061e-02
    endloop
  endfacet
  facet normal -2.423471e-03 7.940822e-01 -6.078056e-01
    outer loop
      vertex   -6.500000e-02 3.049838e-02 -2.548773e-02
      vertex   -8.125000e-03 3.329821e-02 -2.205660e-02
      vertex   -2.031250e-03 2.979927e-02 -2.665217e-02
    endloop
  endfacet
  facet normal -9.806258e-03 8.481989e-01 -5.295870e-01
    outer loop
      vertex   -6.500000e-02 3.696174e-02 -1.513586e-02
      vertex   -8.125000e-03 3.329821e-02 -2.205660e-02
      vertex   -6.500000e-02 3.049838e-02 -2.548773e-02
    endloop
  endfacet
  facet normal 2.368968e-03 8.917251e-01 -4.525712e-01
    outer loop
      vertex   -6.500000e-02 3.696174e-02 -1.513586e-02
      vertex   -6.093750e-03 3.729949e-02 -1.416204e-02
      vertex   -8.125000e-03 3.329821e-02 -2.205660e-02
    endloop
  endfacet
  facet normal -1.151593e-03 9.643062e-01 -2.647873e-01
    outer loop
      vertex   -6.500000e-02 3.935887e-02 -6.405947e-03
      vertex   -6.093750e-03 3.729949e-02 -1.416204e-02
      vertex   -6.500000e-02 3.696174e-02 -1.513586e-02
    endloop
  endfacet
  facet normal -2.144968e-03 9.623480e-01 -2.718119e-01
    outer loop
      vertex   -6.500000e-02 3.935887e-02 -6.405947e-03
      vertex   -8.125000e-03 3.942368e-02 -6.625320e-03
      vertex   -6.093750e-03 3.729949e-02 -1.416204e-02
    endloop
  endfacet
  facet normal -1.466161e-03 9.963122e-01 -8.578965e-02
    outer loop
      vertex   -6.500000e-02 3.935887e-02 -6.405947e-03
      vertex   -8.125000e-03 3.995466e-02 -4.587967e-04
      vertex   -8.125000e-03 3.942368e-02 -6.625320e-03
    endloop
  endfacet
  facet normal -1.204497e-02 9.998145e-01 1.502891e-02
    outer loop
      vertex   -6.500000e-02 3.916036e-02 6.800122e-03
      vertex   -8.125000e-03 3.995466e-02 -4.587967e-04
      vertex   -6.500000e-02 3.935887e-02 -6.405947e-03
    endloop
  endfacet
  facet normal -2.532079e-03 9.960151e-01 8.914847e-02
    outer loop
      vertex   -6.500000e-02 3.916036e-02 6.800122e-03
      vertex   -5.078125e-03 3.930578e-02 6.877410e-03
      vertex   -8.125000e-03 3.995466e-02 -4.587967e-04
    endloop
  endfacet
  facet normal -2.693005e-03 9.588899e-01 2.837656e-01
    outer loop
      vertex   -6.500000e-02 3.916036e-02 6.800122e-03
      vertex   -5.078125e-03 3.660424e-02 1.600635e-02
      vertex   -5.078125e-03 3.930578e-02 6.877410e-03
    endloop
  endfacet
  facet normal -6.232529e-03 9.523370e-01 3.049843e-01
    outer loop
      vertex   -6.500000e-02 3.543828e-02 1.842261e-02
      vertex   -5.078125e-03 3.660424e-02 1.600635e-02
      vertex   -6.500000e-02 3.916036e-02 6.800122e-03
    endloop
  endfacet
  facet normal 3.513482e-03 8.637391e-01 5.039270e-01
    outer loop
      vertex   -6.500000e-02 3.543828e-02 1.842261e-02
      vertex   -8.125000e-03 3.236061e-02 2.330124e-02
      vertex   -5.078125e-03 3.660424e-02 1.600635e-02
    endloop
  endfacet
  facet normal -3.781561e-03 8.252801e-01 5.647110e-01
    outer loop
      vertex   -6.500000e-02 3.032588e-02 2.589397e-02
      vertex   -8.125000e-03 3.236061e-02 2.330124e-02
      vertex   -6.500000e-02 3.543828e-02 1.842261e-02
    endloop
  endfacet
  facet normal 3.083544e-03 7.527051e-01 6.583506e-01
    outer loop
      vertex   -6.500000e-02 3.032588e-02 2.589397e-02
      vertex   -2.031250e-03 2.665217e-02 2.979927e-02
      vertex   -8.125000e-03 3.236061e-02 2.330124e-02
    endloop
  endfacet
  facet normal -6.830201e-03 6.710470e-01 7.413834e-01
    outer loop
      vertex   -6.500000e-02 2.239884e-02 3.306896e-02
      vertex   -2.031250e-03 2.665217e-02 2.979927e-02
      vertex   -6.500000e-02 3.032588e-02 2.589397e-02
    endloop
  endfacet
  facet normal 4.349034e-04 6.054099e-01 7.959138e-01
    outer loop
      vertex   -6.500000e-02 2.239884e-02 3.306896e-02
      vertex   -8.125000e-03 2.205660e-02 3.329821e-02
      vertex   -2.031250e-03 2.665217e-02 2.979927e-02
    endloop
  endfacet
  facet normal -7.099775e-04 4.724000e-01 8.813840e-01
    outer loop
      vertex   -6.500000e-02 1.513586e-02 3.696174e-02
      vertex   -8.125000e-03 2.205660e-02 3.329821e-02
      vertex   -6.500000e-02 2.239884e-02 3.306896e-02
    endloop
  endfacet
  facet normal 2.368968e-03 4.525712e-01 8.917251e-01
    outer loop
      vertex   -6.500000e-02 1.513586e-02 3.696174e-02
      vertex   -6.093750e-03 1.416204e-02 3.729949e-02
      vertex   -8.125000e-03 2.205660e-02 3.329821e-02
    endloop
  endfacet
  facet normal -1.151593e-03 2.647873e-01 9.643062e-01
    outer loop
      vertex   -6.500000e-02 6.405947e-03 3.935887e-02
      vertex   -6.093750e-03 1.416204e-02 3.729949e-02
      vertex   -6.500000e-02 1.513586e-02 3.696174e-02
    endloop
  endfacet
  facet normal -2.144968e-03 2.718119e-01 9.623480e-01
    outer loop
      vertex   -6.500000e-02 6.405947e-03 3.935887e-02
      vertex   -8.125000e-03 6.625320e-03 3.942368e-02
      vertex   -6.093750e-03 1.416204e-02 3.729949e-02
    endloop
  endfacet
  facet normal -1.466161e-03 8.578965e-02 9.963122e-01
    outer loop
      vertex   -6.500000e-02 6.405947e-03 3.935887e-02
      vertex   -8.125000e-03 4.587967e-04 3.995466e-02
      vertex   -8.125000e-03 6.625320e-03 3.942368e-02
    endloop
  endfacet
  facet normal -8.731211e-03 1.666276e-02 9.998230e-01
    outer loop
      vertex   -6.500000e-02 -5.090877e-03 3.955047e-02
      vertex   -8.125000e-03 4.587967e-04 3.995466e-02
      vertex   -6.500000e-02 6.405947e-03 3.935887e-02
    endloop
  endfacet
  facet normal 1.422164e-03 -8.712842e-02 9.961961e-01
    outer loop
      vertex   -6.500000e-02 -5.090877e-03 3.955047e-02
      vertex   -3.046875e-03 -6.877410e-03 3.930578e-02
      vertex   -8.125000e-03 4.587967e-04 3.995466e-02
    endloop
  endfacet
  facet normal -2.532637e-03 -8.984440e-02 9.959526e-01
    outer loop
      vertex   6.500000e-02 -3.046427e-03 3.982441e-02
      vertex   -8.125000e-03 4.587967e-04 3.995466e-02
      vertex   -3.046875e-03 -6.877410e-03 3.930578e-02
    endloop
  endfacet
  facet normal 4.750459e-03 6.201505e-02 9.980639e-01
    outer loop
      vertex   6.500000e-02 7.004853e-03 3.919987e-02
      vertex   -8.125000e-03 4.587967e-04 3.995466e-02
      vertex   6.500000e-02 -3.046427e-03 3.982441e-02
    endloop
  endfacet
  facet normal 2.604100e-03 8.578945e-02 9.963099e-01
    outer loop
      vertex   6.500000e-02 7.004853e-03 3.919987e-02
      vertex   -8.125000e-03 6.625320e-03 3.942368e-02
      vertex   -8.125000e-03 4.587967e-04 3.995466e-02
    endloop
  endfacet
  facet normal 1.540233e-03 2.708921e-01 9.626085e-01
    outer loop
      vertex   6.500000e-02 7.004853e-03 3.919987e-02
      vertex   -6.093750e-03 1.416204e-02 3.729949e-02
      vertex   -8.125000e-03 6.625320e-03 3.942368e-02
    endloop
  endfacet
  facet normal 6.886460e-03 3.199606e-01 9.474058e-01
    outer loop
      vertex   6.500000e-02 1.866695e-02 3.526131e-02
      vertex   -6.093750e-03 1.416204e-02 3.729949e-02
      vertex   6.500000e-02 7.004853e-03 3.919987e-02
    endloop
  endfacet
  facet normal -3.026772e-03 4.514658e-01 8.922833e-01
    outer loop
      vertex   6.500000e-02 1.866695e-02 3.526131e-02
      vertex   -8.125000e-03 2.205660e-02 3.329821e-02
      vertex   -6.093750e-03 1.416204e-02 3.729949e-02
    endloop
  endfacet
  facet normal 3.648802e-03 5.589428e-01 8.291982e-01
    outer loop
      vertex   6.500000e-02 2.600596e-02 3.031426e-02
      vertex   -8.125000e-03 2.205660e-02 3.329821e-02
      vertex   6.500000e-02 1.866695e-02 3.526131e-02
    endloop
  endfacet
  facet normal -2.693096e-04 6.060011e-01 7.954638e-01
    outer loop
      vertex   6.500000e-02 2.600596e-02 3.031426e-02
      vertex   -2.031250e-03 2.665217e-02 2.979927e-02
      vertex   -8.125000e-03 2.205660e-02 3.329821e-02
    endloop
  endfacet
  facet normal 2.190791e-03 7.522927e-01 6.588254e-01
    outer loop
      vertex   6.500000e-02 2.600596e-02 3.031426e-02
      vertex   -8.125000e-03 3.236061e-02 2.330124e-02
      vertex   -2.031250e-03 2.665217e-02 2.979927e-02
    endloop
  endfacet
  facet normal -6.306354e-04 7.377533e-01 6.750701e-01
    outer loop
      vertex   6.500000e-02 3.211740e-02 2.363534e-02
      vertex   -8.125000e-03 3.236061e-02 2.330124e-02
      vertex   6.500000e-02 2.600596e-02 3.031426e-02
    endloop
  endfacet
  facet normal 5.762902e-04 8.642782e-01 5.030139e-01
    outer loop
      vertex   6.500000e-02 3.211740e-02 2.363534e-02
      vertex   -5.078125e-03 3.660424e-02 1.600635e-02
      vertex   -8.125000e-03 3.236061e-02 2.330124e-02
    endloop
  endfacet
  facet normal 5.290876e-03 8.824428e-01 4.703899e-01
    outer loop
      vertex   6.500000e-02 3.752622e-02 1.348850e-02
      vertex   -5.078125e-03 3.660424e-02 1.600635e-02
      vertex   6.500000e-02 3.211740e-02 2.363534e-02
    endloop
  endfacet
  facet normal -2.420172e-03 9.588906e-01 2.837658e-01
    outer loop
      vertex   6.500000e-02 3.752622e-02 1.348850e-02
      vertex   -5.078125e-03 3.930578e-02 6.877410e-03
      vertex   -5.078125e-03 3.660424e-02 1.600635e-02
    endloop
  endfacet
  facet normal 9.602829e-03 9.864566e-01 1.637411e-01
    outer loop
      vertex   6.500000e-02 3.975596e-02 5.543232e-05
      vertex   -5.078125e-03 3.930578e-02 6.877410e-03
      vertex   6.500000e-02 3.752622e-02 1.348850e-02
    endloop
  endfacet
  facet normal 2.093334e-03 9.961849e-01 8.724245e-02
    outer loop
      vertex   6.500000e-02 3.975596e-02 5.543232e-05
      vertex   -8.125000e-03 3.995466e-02 -4.587967e-04
      vertex   -5.078125e-03 3.930578e-02 6.877410e-03
    endloop
  endfacet
  facet normal 3.310460e-03 9.963078e-01 -8.578927e-02
    outer loop
      vertex   6.500000e-02 3.975596e-02 5.543232e-05
      vertex   -8.125000e-03 3.942368e-02 -6.625320e-03
      vertex   -8.125000e-03 3.995466e-02 -4.587967e-04
    endloop
  endfacet
  facet normal 9.082901e-03 9.888554e-01 -1.486016e-01
    outer loop
      vertex   6.500000e-02 3.785287e-02 -1.260854e-02
      vertex   -8.125000e-03 3.942368e-02 -6.625320e-03
      vertex   6.500000e-02 3.975596e-02 5.543232e-05
    endloop
  endfacet
  facet normal -1.554854e-03 9.623907e-01 -2.716649e-01
    outer loop
      vertex   6.500000e-02 3.785287e-02 -1.260854e-02
      vertex   -6.093750e-03 3.729949e-02 -1.416204e-02
      vertex   -8.125000e-03 3.942368e-02 -6.625320e-03
    endloop
  endfacet
  facet normal 3.141397e-03 8.878905e-01 -4.600442e-01
    outer loop
      vertex   6.500000e-02 3.261749e-02 -2.271289e-02
      vertex   -6.093750e-03 3.729949e-02 -1.416204e-02
      vertex   6.500000e-02 3.785287e-02 -1.260854e-02
    endloop
  endfacet
  facet normal 4.234061e-03 8.915258e-01 -4.529500e-01
    outer loop
      vertex   6.500000e-02 3.261749e-02 -2.271289e-02
      vertex   -8.125000e-03 3.329821e-02 -2.205660e-02
      vertex   -6.093750e-03 3.729949e-02 -1.416204e-02
    endloop
  endfacet
  facet normal 1.996743e-03 7.969087e-01 -6.040964e-01
    outer loop
      vertex   6.500000e-02 3.261749e-02 -2.271289e-02
      vertex   -2.031250e-03 2.979927e-02 -2.665217e-02
      vertex   -8.125000e-03 3.329821e-02 -2.205660e-02
    endloop
  endfacet
  facet normal 1.725468e-02 6.507074e-01 -7.591325e-01
    outer loop
      vertex   6.500000e-02 3.261749e-02 -2.271289e-02
      vertex   -8.125000e-03 2.330124e-02 -3.236061e-02
      vertex   -2.031250e-03 2.979927e-02 -2.665217e-02
    endloop
  endfacet
  facet normal -1.006910e-03 7.231590e-01 -6.906809e-01
    outer loop
      vertex   6.500000e-02 2.363534e-02 -3.211740e-02
      vertex   -8.125000e-03 2.330124e-02 -3.236061e-02
      vertex   6.500000e-02 3.261749e-02 -2.271289e-02
    endloop
  endfacet
  facet normal 5.762902e-04 5.030139e-01 -8.642782e-01
    outer loop
      vertex   6.500000e-02 2.363534e-02 -3.211740e-02
      vertex   -5.078125e-03 1.600635e-02 -3.660424e-02
      vertex   -8.125000e-03 2.330124e-02 -3.236061e-02
    endloop
  endfacet
  facet normal 5.290876e-03 4.703899e-01 -8.824428e-01
    outer loop
      vertex   6.500000e-02 1.348850e-02 -3.752622e-02
      vertex   -5.078125e-03 1.600635e-02 -3.660424e-02
      vertex   6.500000e-02 2.363534e-02 -3.211740e-02
    endloop
  endfacet
  facet normal -2.420172e-03 2.837658e-01 -9.588906e-01
    outer loop
      vertex   6.500000e-02 1.348850e-02 -3.752622e-02
      vertex   -5.078125e-03 6.877410e-03 -3.930578e-02
      vertex   -5.078125e-03 1.600635e-02 -3.660424e-02
    endloop
  endfacet
  facet normal 4.522655e-03 2.149425e-01 -9.766162e-01
    outer loop
      vertex   6.500000e-02 3.046427e-03 -3.982441e-02
      vertex   -5.078125e-03 6.877410e-03 -3.930578e-02
      vertex   6.500000e-02 1.348850e-02 -3.752622e-02
    endloop
  endfacet
  facet normal -2.498501e-03 8.913464e-02 -9.960165e-01
    outer loop
      vertex   6.500000e-02 3.046427e-03 -3.982441e-02
      vertex   -8.125000e-03 -4.587967e-04 -3.995466e-02
      vertex   -5.078125e-03 6.877410e-03 -3.930578e-02
    endloop
  endfacet
  facet normal 4.750459e-03 -6.201505e-02 -9.980639e-01
    outer loop
      vertex   6.500000e-02 -7.004853e-03 -3.919987e-02
      vertex   -8.125000e-03 -4.587967e-04 -3.995466e-02
      vertex   6.500000e-02 3.046427e-03 -3.982441e-02
    endloop
  endfacet
  facet normal 2.604100e-03 -8.578945e-02 -9.963099e-01
    outer loop
      vertex   6.500000e-02 -7.004853e-03 -3.919987e-02
      vertex   -8.125000e-03 -6.625320e-03 -3.942368e-02
      vertex   -8.125000e-03 -4.587967e-04 -3.995466e-02
    endloop
  endfacet
  facet normal 1.540233e-03 -2.708921e-01 -9.626085e-01
    outer loop
      vertex   6.500000e-02 -7.004853e-03 -3.919987e-02
      vertex   -6.093750e-03 -1.416204e-02 -3.729949e-02
      vertex   -8.125000e-03 -6.625320e-03 -3.942368e-02
    endloop
  endfacet
  facet normal 6.886460e-03 -3.199606e-01 -9.474058e-01
    outer loop
      vertex   6.500000e-02 -1.866695e-02 -3.526131e-02
      vertex   -6.093750e-03 -1.416204e-02 -3.729949e-02
      vertex   6.500000e-02 -7.004853e-03 -3.919987e-02
    endloop
  endfacet
  facet normal -3.026772e-03 -4.514658e-01 -8.922833e-01
    outer loop
      vertex   6.500000e-02 -1.866695e-02 -3.526131e-02
      vertex   -8.125000e-03 -2.205660e-02 -3.329821e-02
      vertex   -6.093750e-03 -1.416204e-02 -3.729949e-02
    endloop
  endfacet
  facet normal 3.648802e-03 -5.589428e-01 -8.291982e-01
    outer loop
      vertex   6.500000e-02 -2.600596e-02 -3.031426e-02
      vertex   -8.125000e-03 -2.205660e-02 -3.329821e-02
      vertex   6.500000e-02 -1.866695e-02 -3.526131e-02
    endloop
  endfacet
  facet normal -2.693096e-04 -6.060011e-01 -7.954638e-01
    outer loop
      vertex   6.500000e-02 -2.600596e-02 -3.031426e-02
      vertex   -2.031250e-03 -2.665217e-02 -2.979927e-02
      vertex   -8.125000e-03 -2.205660e-02 -3.329821e-02
    endloop
  endfacet
  facet normal 2.190791e-03 -7.522927e-01 -6.588254e-01
    outer loop
      vertex   6.500000e-02 -2.600596e-02 -3.031426e-02
      vertex   -8.125000e-03 -3.236061e-02 -2.330124e-02
      vertex   -2.031250e-03 -2.665217e-02 -2.979927e-02
    endloop
  endfacet
  facet normal -6.306354e-04 -7.377533e-01 -6.750701e-01
    outer loop
      vertex   6.500000e-02 -3.211740e-02 -2.363534e-02
      vertex   -8.125000e-03 -3.236061e-02 -2.330124e-02
      vertex   6.500000e-02 -2.600596e-02 -3.031426e-02
    endloop
  endfacet
  facet normal 5.762902e-04 -8.642782e-01 -5.030139e-01
    outer loop
      vertex   6.500000e-02 -3.211740e-02 -2.363534e-02
      vertex   -5.078125e-03 -3.660424e-02 -1.600635e-02
      vertex   -8.125000e-03 -3.236061e-02 -2.330124e-02
    endloop
  endfacet
  facet normal 5.290876e-03 -8.824428e-01 -4.703899e-01
    outer loop
      vertex   6.500000e-02 -3.752622e-02 -1.348850e-02
      vertex   -5.078125e-03 -3.660424e-02 -1.600635e-02
      vertex   6.500000e-02 -3.211740e-02 -2.363534e-02
    endloop
  endfacet
  facet normal -2.420172e-03 -9.588906e-01 -2.837658e-01
    outer loop
      vertex   6.500000e-02 -3.752622e-02 -1.348850e-02
      vertex   -5.078125e-03 -3.930578e-02 -6.877410e-03
      vertex   -5.078125e-03 -3.660424e-02 -1.600635e-02
    endloop
  endfacet
  facet normal 9.602829e-03 -9.864566e-01 -1.637411e-01
    outer loop
      vertex   6.500000e-02 -3.975596e-02 -5.543232e-05
      vertex   -5.078125e-03 -3.930578e-02 -6.877410e-03
      vertex   6.500000e-02 -3.752622e-02 -1.348850e-02
    endloop
  endfacet
  facet normal 2.093334e-03 -9.961849e-01 -8.724245e-02
    outer loop
      vertex   6.500000e-02 -3.975596e-02 -5.543232e-05
      vertex   -8.125000e-03 -3.995466e-02 4.587967e-04
      vertex   -5.078125e-03 -3.930578e-02 -6.877410e-03
    endloop
  endfacet
  facet normal 3.310460e-03 -9.963078e-01 8.578927e-02
    outer loop
      vertex   6.500000e-02 -3.975596e-02 -5.543232e-05
      vertex   -8.125000e-03 -3.942368e-02 6.625320e-03
      vertex   -8.125000e-03 -3.995466e-02 4.587967e-04
    endloop
  endfacet
  facet normal 9.082901e-03 -9.888554e-01 1.486016e-01
    outer loop
      vertex   6.500000e-02 -3.785287e-02 1.260854e-02
      vertex   -8.125000e-03 -3.942368e-02 6.625320e-03
      vertex   6.500000e-02 -3.975596e-02 -5.543232e-05
    endloop
  endfacet
  facet normal -1.554854e-03 -9.623907e-01 2.716649e-01
    outer loop
      vertex   6.500000e-02 -3.785287e-02 1.260854e-02
      vertex   -6.093750e-03 -3.729949e-02 1.416204e-02
      vertex   -8.125000e-03 -3.942368e-02 6.625320e-03
    endloop
  endfacet
  facet normal 3.141397e-03 -8.878905e-01 4.600442e-01
    outer loop
      vertex   6.500000e-02 -3.261749e-02 2.271289e-02
      vertex   -6.093750e-03 -3.729949e-02 1.416204e-02
      vertex   6.500000e-02 -3.785287e-02 1.260854e-02
    endloop
  endfacet
  facet normal 4.234061e-03 -8.915258e-01 4.529500e-01
    outer loop
      vertex   6.500000e-02 -3.261749e-02 2.271289e-02
      vertex   -8.125000e-03 -3.329821e-02 2.205660e-02
      vertex   -6.093750e-03 -3.729949e-02 1.416204e-02
    endloop
  endfacet
  facet normal 1.996743e-03 -7.969087e-01 6.040964e-01
    outer loop
      vertex   6.500000e-02 -3.261749e-02 2.271289e-02
      vertex   -2.031250e-03 -2.979927e-02 2.665217e-02
      vertex   -8.125000e-03 -3.329821e-02 2.205660e-02
    endloop
  endfacet
  facet normal 1.725468e-02 -6.507074e-01 7.591325e-01
    outer loop
      vertex   6.500000e-02 -3.261749e-02 2.271289e-02
      vertex   -8.125000e-03 -2.330124e-02 3.236061e-02
      vertex   -2.031250e-03 -2.979927e-02 2.665217e-02
    endloop
  endfacet
  facet normal -1.006910e-03 -7.231590e-01 6.906809e-01
    outer loop
      vertex   6.500000e-02 -2.363534e-02 3.211740e-02
      vertex   -8.125000e-03 -2.330124e-02 3.236061e-02
      vertex   6.500000e-02 -3.261749e-02 2.271289e-02
    endloop
  endfacet
  facet normal 5.762902e-04 -5.030139e-01 8.642782e-01
    outer loop
      vertex   6.500000e-02 -2.363534e-02 3.211740e-02
      vertex   -5.078125e-03 -1.600635e-02 3.660424e-02
      vertex   -8.125000e-03 -2.330124e-02 3.236061e-02
    endloop
  endfacet
  facet normal 5.290876e-03 -4.703899e-01 8.824428e-01
    outer loop
      vertex   6.500000e-02 -1.348850e-02 3.752622e-02
      vertex   -5.078125e-03 -1.600635e-02 3.660424e-02
      vertex   6.500000e-02 -2.363534e-02 3.211740e-02
    endloop
  endfacet
  facet normal -2.440051e-03 -2.832665e-01 9.590381e-01
    outer loop
      vertex   6.500000e-02 -1.348850e-02 3.752622e-02
      vertex   -3.046875e-03 -6.877410e-03 3.930578e-02
      vertex   -5.078125e-03 -1.600635e-02 3.660424e-02
    endloop
  endfacet
  facet normal 4.657656e-03 -2.149424e-01 9.766156e-01
    outer loop
      vertex   6.500000e-02 -3.046427e-03 3.982441e-02
      vertex   -3.046875e-03 -6.877410e-03 3.930578e-02
      vertex   6.500000e-02 -1.348850e-02 3.752622e-02
    endloop
  endfacet
endsolid
