solid ASCII
  facet normal 0.000000e+00 6.947981e-03 9.999759e-01
    outer loop
      vertex   7.500000e-02 3.361491e-02 -2.168036e-02
      vertex   6.500000e-02 -3.391293e-02 -2.121116e-02
      vertex   7.500000e-02 -3.391293e-02 -2.121116e-02
    endloop
  endfacet
  facet normal 7.699865e-01 -1.096577e-01 6.285667e-01
    outer loop
      vertex   7.500000e-02 3.361491e-02 -2.168036e-02
      vertex   6.500000e-02 3.909187e-02 -8.474987e-03
      vertex   6.500000e-02 -3.391293e-02 -2.121116e-02
    endloop
  endfacet
  facet normal 1.000000e+00 0.000000e+00 0.000000e+00
    outer loop
      vertex   6.500000e-02 3.909187e-02 -8.474987e-03
      vertex   6.500000e-02 3.904072e-02 -8.347468e-03
      vertex   6.500000e-02 -3.391293e-02 -2.121116e-02
    endloop
  endfacet
  facet normal -1.000000e+00 0.000000e+00 -0.000000e+00
    outer loop
      vertex   -6.500000e-02 3.904072e-02 -8.347468e-03
      vertex   -6.500000e-02 3.909187e-02 -8.474987e-03
      vertex   -6.500000e-02 -3.391293e-02 -2.121116e-02
    endloop
  endfacet
  facet normal 0.000000e+00 6.947981e-03 9.999759e-01
    outer loop
      vertex   -6.500000e-02 -3.391293e-02 -2.121116e-02
      vertex   -7.500000e-02 3.361491e-02 -2.168036e-02
      vertex   -7.500000e-02 -3.391293e-02 -2.121116e-02
    endloop
  endfacet
  facet normal -7.699865e-01 -1.096577e-01 6.285667e-01
    outer loop
      vertex   -6.500000e-02 3.909187e-02 -8.474987e-03
      vertex   -7.500000e-02 3.361491e-02 -2.168036e-02
      vertex   -6.500000e-02 -3.391293e-02 -2.121116e-02
    endloop
  endfacet
  facet normal 0.000000e+00 9.280998e-01 3.723314e-01
    outer loop
      vertex   6.500000e-02 3.909187e-02 -8.474987e-03
      vertex   -6.500000e-02 3.904072e-02 -8.347468e-03
      vertex   6.500000e-02 3.904072e-02 -8.347468e-03
    endloop
  endfacet
  facet normal 0.000000e+00 9.280998e-01 3.723314e-01
    outer loop
      vertex   6.500000e-02 3.909187e-02 -8.474987e-03
      vertex   -6.500000e-02 3.909187e-02 -8.474987e-03
      vertex   -6.500000e-02 3.904072e-02 -8.347468e-03
    endloop
  endfacet
  facet normal 0.000000e+00 9.280979e-01 3.723364e-01
    outer loop
      vertex   6.500000e-02 1.313923e-01 -2.385460e-01
      vertex   -6.500000e-02 3.909187e-02 -8.474987e-03
      vertex   6.500000e-02 3.909187e-02 -8.474987e-03
    endloop
  endfacet
  facet normal -0.000000e+00 9.280979e-01 3.723364e-01
    outer loop
      vertex   -6.500000e-02 1.313923e-01 -2.385460e-01
      vertex   -6.500000e-02 3.909187e-02 -8.474987e-03
      vertex   6.500000e-02 1.313923e-01 -2.385460e-01
    endloop
  endfacet
  facet normal 0.000000e+00 -1.000000e+00 0.000000e+00
    outer loop
      vertex   -1.333351e-03 1.203305e-01 -2.657973e-01
      vertex   4.000000e-02 1.203305e-01 -2.895989e-01
      vertex   4.000000e-02 1.203305e-01 -2.502144e-01
    endloop
  endfacet
  facet normal 0.000000e+00 -1.000000e+00 0.000000e+00
    outer loop
      vertex   -4.000000e-02 1.203305e-01 -2.502144e-01
      vertex   -1.333351e-03 1.203305e-01 -2.657973e-01
      vertex   4.000000e-02 1.203305e-01 -2.502144e-01
    endloop
  endfacet
  facet normal 0.000000e+00 -1.000000e+00 0.000000e+00
    outer loop
      vertex   -4.000000e-02 1.203305e-01 -2.502144e-01
      vertex   -4.000000e-02 1.203305e-01 -2.895989e-01
      vertex   -1.333351e-03 1.203305e-01 -2.657973e-01
    endloop
  endfacet
  facet normal 1.000000e+00 0.000000e+00 0.000000e+00
    outer loop
      vertex   -4.000000e-02 1.203305e-01 -2.502144e-01
      vertex   -4.000000e-02 8.897745e-02 -2.895989e-01
      vertex   -4.000000e-02 1.203305e-01 -2.895989e-01
    endloop
  endfacet
  facet normal 1.000000e+00 0.000000e+00 0.000000e+00
    outer loop
      vertex   -4.000000e-02 2.042090e-02 -2.895989e-01
      vertex   -4.000000e-02 8.897745e-02 -2.895989e-01
      vertex   -4.000000e-02 1.203305e-01 -2.502144e-01
    endloop
  endfacet
  facet normal 1.000000e+00 -0.000000e+00 0.000000e+00
    outer loop
      vertex   -4.000000e-02 -4.466953e-02 -2.502144e-01
      vertex   -4.000000e-02 2.042090e-02 -2.895989e-01
      vertex   -4.000000e-02 1.203305e-01 -2.502144e-01
    endloop
  endfacet
  facet normal 1.000000e+00 0.000000e+00 0.000000e+00
    outer loop
      vertex   -4.000000e-02 -4.466953e-02 -2.895989e-01
      vertex   -4.000000e-02 2.042090e-02 -2.895989e-01
      vertex   -4.000000e-02 -4.466953e-02 -2.502144e-01
    endloop
  endfacet
  facet normal 0.000000e+00 0.000000e+00 -1.000000e+00
    outer loop
      vertex   -4.000000e-02 1.203305e-01 -2.502144e-01
      vertex   4.000000e-02 -4.466953e-02 -2.502144e-01
      vertex   -4.000000e-02 -4.466953e-02 -2.502144e-01
    endloop
  endfacet
  facet normal -0.000000e+00 -0.000000e+00 -1.000000e+00
    outer loop
      vertex   4.000000e-02 1.203305e-01 -2.502144e-01
      vertex   4.000000e-02 -4.466953e-02 -2.502144e-01
      vertex   -4.000000e-02 1.203305e-01 -2.502144e-01
    endloop
  endfacet
  facet normal 0.000000e+00 1.000000e+00 0.000000e+00
    outer loop
      vertex   4.000000e-02 -4.466953e-02 -2.502144e-01
      vertex   -4.000000e-02 -4.466953e-02 -2.895989e-01
      vertex   -4.000000e-02 -4.466953e-02 -2.502144e-01
    endloop
  endfacet
  facet normal 0.000000e+00 1.000000e+00 0.000000e+00
    outer loop
      vertex   4.000000e-02 -4.466953e-02 -2.502144e-01
      vertex   4.000000e-02 -4.466953e-02 -2.895989e-01
      vertex   -4.000000e-02 -4.466953e-02 -2.895989e-01
    endloop
  endfacet
  facet normal -1.000000e+00 0.000000e+00 0.000000e+00
    outer loop
      vertex   4.000000e-02 -4.466953e-02 -2.502144e-01
      vertex   4.000000e-02 2.042090e-02 -2.895989e-01
      vertex   4.000000e-02 -4.466953e-02 -2.895989e-01
    endloop
  endfacet
  facet normal -1.000000e+00 -0.000000e+00 0.000000e+00
    outer loop
      vertex   4.000000e-02 1.203305e-01 -2.502144e-01
      vertex   4.000000e-02 2.042090e-02 -2.895989e-01
      vertex   4.000000e-02 -4.466953e-02 -2.502144e-01
    endloop
  endfacet
  facet normal -1.000000e+00 0.000000e+00 0.000000e+00
    outer loop
      vertex   4.000000e-02 8.897745e-02 -2.895989e-01
      vertex   4.000000e-02 2.042090e-02 -2.895989e-01
      vertex   4.000000e-02 1.203305e-01 -2.502144e-01
    endloop
  endfacet
  facet normal -1.000000e+00 0.000000e+00 0.000000e+00
    outer loop
      vertex   4.000000e-02 1.203305e-01 -2.895989e-01
      vertex   4.000000e-02 8.897745e-02 -2.895989e-01
      vertex   4.000000e-02 1.203305e-01 -2.502144e-01
    endloop
  endfacet
  facet normal -9.531992e-01 2.635098e-02 -3.011926e-01
    outer loop
      vertex   4.000000e-02 8.897745e-02 -2.895989e-01
      vertex   4.441959e-02 9.555590e-02 -3.030103e-01
      vertex   4.446070e-02 9.409148e-02 -3.032685e-01
    endloop
  endfacet
  facet normal -9.497583e-01 -0.000000e+00 -3.129842e-01
    outer loop
      vertex   4.000000e-02 1.203305e-01 -2.895989e-01
      vertex   4.441959e-02 9.555590e-02 -3.030103e-01
      vertex   4.000000e-02 8.897745e-02 -2.895989e-01
    endloop
  endfacet
  facet normal 2.044987e-01 -4.375342e-01 8.756393e-01
    outer loop
      vertex   4.000000e-02 1.203305e-01 -2.895989e-01
      vertex   2.296501e-03 1.294388e-01 -2.762424e-01
      vertex   4.441959e-02 9.555590e-02 -3.030103e-01
    endloop
  endfacet
  facet normal -3.906413e-01 -6.222562e-01 -6.783779e-01
    outer loop
      vertex   -1.333351e-03 1.203305e-01 -2.657973e-01
      vertex   2.296501e-03 1.294388e-01 -2.762424e-01
      vertex   4.000000e-02 1.203305e-01 -2.895989e-01
    endloop
  endfacet
  facet normal 3.379971e-01 -7.643687e-01 -5.490887e-01
    outer loop
      vertex   -4.000000e-02 1.203305e-01 -2.895989e-01
      vertex   2.296501e-03 1.294388e-01 -2.762424e-01
      vertex   -1.333351e-03 1.203305e-01 -2.657973e-01
    endloop
  endfacet
  facet normal -1.818866e-01 -4.428267e-01 8.779646e-01
    outer loop
      vertex   -4.441959e-02 9.555590e-02 -3.030103e-01
      vertex   2.296501e-03 1.294388e-01 -2.762424e-01
      vertex   -4.000000e-02 1.203305e-01 -2.895989e-01
    endloop
  endfacet
  facet normal 9.531992e-01 2.635098e-02 -3.011926e-01
    outer loop
      vertex   -4.441959e-02 9.555590e-02 -3.030103e-01
      vertex   -4.000000e-02 8.897745e-02 -2.895989e-01
      vertex   -4.446070e-02 9.409148e-02 -3.032685e-01
    endloop
  endfacet
  facet normal 9.497583e-01 0.000000e+00 -3.129842e-01
    outer loop
      vertex   -4.000000e-02 1.203305e-01 -2.895989e-01
      vertex   -4.000000e-02 8.897745e-02 -2.895989e-01
      vertex   -4.441959e-02 9.555590e-02 -3.030103e-01
    endloop
  endfacet
  facet normal 0.000000e+00 1.736489e-01 -9.848076e-01
    outer loop
      vertex   6.500000e-02 9.555590e-02 -3.030103e-01
      vertex   4.446070e-02 9.409148e-02 -3.032685e-01
      vertex   4.441959e-02 9.555590e-02 -3.030103e-01
    endloop
  endfacet
  facet normal 0.000000e+00 1.736489e-01 -9.848076e-01
    outer loop
      vertex   6.500000e-02 9.409148e-02 -3.032685e-01
      vertex   4.446070e-02 9.409148e-02 -3.032685e-01
      vertex   6.500000e-02 9.555590e-02 -3.030103e-01
    endloop
  endfacet
  facet normal 0.000000e+00 -9.366007e-01 -3.503987e-01
    outer loop
      vertex   -4.000000e-02 8.897745e-02 -2.895989e-01
      vertex   -6.500000e-02 9.409148e-02 -3.032685e-01
      vertex   -4.446070e-02 9.409148e-02 -3.032685e-01
    endloop
  endfacet
  facet normal -2.111010e-02 -9.484497e-01 -3.162238e-01
    outer loop
      vertex   -4.000000e-02 8.897745e-02 -2.895989e-01
      vertex   -7.500000e-02 9.110414e-02 -2.936410e-01
      vertex   -6.500000e-02 9.409148e-02 -3.032685e-01
    endloop
  endfacet
  facet normal 1.147252e-01 0.000000e+00 -9.933973e-01
    outer loop
      vertex   -4.000000e-02 2.042090e-02 -2.895989e-01
      vertex   -7.500000e-02 9.110414e-02 -2.936410e-01
      vertex   -4.000000e-02 8.897745e-02 -2.895989e-01
    endloop
  endfacet
  facet normal 4.209385e-01 1.573487e-01 -8.933376e-01
    outer loop
      vertex   -4.000000e-02 2.042090e-02 -2.895989e-01
      vertex   -7.500000e-02 1.482242e-02 -3.070769e-01
      vertex   -7.500000e-02 9.110414e-02 -2.936410e-01
    endloop
  endfacet
  facet normal -7.161848e-02 9.826075e-01 -1.713278e-01
    outer loop
      vertex   -4.446838e-02 1.529820e-02 -3.171110e-01
      vertex   -7.500000e-02 1.482242e-02 -3.070769e-01
      vertex   -4.000000e-02 2.042090e-02 -2.895989e-01
    endloop
  endfacet
  facet normal 0.000000e+00 9.988777e-01 4.736330e-02
    outer loop
      vertex   -4.446838e-02 1.529820e-02 -3.171110e-01
      vertex   -6.500000e-02 1.529820e-02 -3.171110e-01
      vertex   -7.500000e-02 1.482242e-02 -3.070769e-01
    endloop
  endfacet
  facet normal 0.000000e+00 -9.550782e-01 -2.963537e-01
    outer loop
      vertex   7.500000e-02 9.110414e-02 -2.936410e-01
      vertex   4.446070e-02 9.409148e-02 -3.032685e-01
      vertex   6.500000e-02 9.409148e-02 -3.032685e-01
    endloop
  endfacet
  facet normal 1.711801e-02 -9.382838e-01 -3.454424e-01
    outer loop
      vertex   7.500000e-02 9.110414e-02 -2.936410e-01
      vertex   4.000000e-02 8.897745e-02 -2.895989e-01
      vertex   4.446070e-02 9.409148e-02 -3.032685e-01
    endloop
  endfacet
  facet normal -1.147252e-01 0.000000e+00 -9.933973e-01
    outer loop
      vertex   7.500000e-02 9.110414e-02 -2.936410e-01
      vertex   4.000000e-02 2.042090e-02 -2.895989e-01
      vertex   4.000000e-02 8.897745e-02 -2.895989e-01
    endloop
  endfacet
  facet normal -4.209385e-01 1.573487e-01 -8.933376e-01
    outer loop
      vertex   7.500000e-02 1.482242e-02 -3.070769e-01
      vertex   4.000000e-02 2.042090e-02 -2.895989e-01
      vertex   7.500000e-02 9.110414e-02 -2.936410e-01
    endloop
  endfacet
  facet normal 7.161848e-02 9.826075e-01 -1.713278e-01
    outer loop
      vertex   7.500000e-02 1.482242e-02 -3.070769e-01
      vertex   4.446838e-02 1.529820e-02 -3.171110e-01
      vertex   4.000000e-02 2.042090e-02 -2.895989e-01
    endloop
  endfacet
  facet normal 0.000000e+00 9.988777e-01 4.736330e-02
    outer loop
      vertex   6.500000e-02 1.529820e-02 -3.171110e-01
      vertex   4.446838e-02 1.529820e-02 -3.171110e-01
      vertex   7.500000e-02 1.482242e-02 -3.070769e-01
    endloop
  endfacet
  facet normal -9.870660e-01 0.000000e+00 -1.603145e-01
    outer loop
      vertex   4.000000e-02 -4.466953e-02 -2.895989e-01
      vertex   4.000000e-02 2.042090e-02 -2.895989e-01
      vertex   4.446838e-02 1.529820e-02 -3.171110e-01
    endloop
  endfacet
  facet normal 9.870660e-01 0.000000e+00 -1.603145e-01
    outer loop
      vertex   -4.000000e-02 2.042090e-02 -2.895989e-01
      vertex   -4.000000e-02 -4.466953e-02 -2.895989e-01
      vertex   -4.446838e-02 1.529820e-02 -3.171110e-01
    endloop
  endfacet
  facet normal -4.961052e-01 3.312484e-01 8.025921e-01
    outer loop
      vertex   -4.000000e-02 -4.466953e-02 -2.895989e-01
      vertex   -8.520408e-03 -5.463272e-02 -2.660284e-01
      vertex   -4.446838e-02 1.529820e-02 -3.171110e-01
    endloop
  endfacet
  facet normal 4.961052e-01 3.312484e-01 8.025921e-01
    outer loop
      vertex   8.520408e-03 -5.463272e-02 -2.660284e-01
      vertex   4.000000e-02 -4.466953e-02 -2.895989e-01
      vertex   4.446838e-02 1.529820e-02 -3.171110e-01
    endloop
  endfacet
  facet normal 0.000000e+00 -9.210925e-01 -3.893437e-01
    outer loop
      vertex   8.520408e-03 -5.463272e-02 -2.660284e-01
      vertex   -4.000000e-02 -4.466953e-02 -2.895989e-01
      vertex   4.000000e-02 -4.466953e-02 -2.895989e-01
    endloop
  endfacet
  facet normal 0.000000e+00 -9.210925e-01 -3.893437e-01
    outer loop
      vertex   -8.520408e-03 -5.463272e-02 -2.660284e-01
      vertex   -4.000000e-02 -4.466953e-02 -2.895989e-01
      vertex   8.520408e-03 -5.463272e-02 -2.660284e-01
    endloop
  endfacet
  facet normal -1.000000e+00 0.000000e+00 -0.000000e+00
    outer loop
      vertex   -7.500000e-02 -3.391293e-02 -2.121116e-02
      vertex   -7.500000e-02 3.361491e-02 -2.168036e-02
      vertex   -7.500000e-02 -4.478464e-02 -2.642920e-01
    endloop
  endfacet
  facet normal -1.000000e+00 0.000000e+00 0.000000e+00
    outer loop
      vertex   -7.500000e-02 -4.478464e-02 -2.642920e-01
      vertex   -7.500000e-02 -8.602608e-02 -3.040012e-02
      vertex   -7.500000e-02 -3.391293e-02 -2.121116e-02
    endloop
  endfacet
  facet normal -1.000000e+00 0.000000e+00 0.000000e+00
    outer loop
      vertex   -7.500000e-02 1.482242e-02 -3.070769e-01
      vertex   -7.500000e-02 -4.478464e-02 -2.642920e-01
      vertex   -7.500000e-02 3.361491e-02 -2.168036e-02
    endloop
  endfacet
  facet normal -1.000000e+00 0.000000e+00 -0.000000e+00
    outer loop
      vertex   -7.500000e-02 3.361491e-02 -2.168036e-02
      vertex   -7.500000e-02 9.110414e-02 -2.936410e-01
      vertex   -7.500000e-02 1.482242e-02 -3.070769e-01
    endloop
  endfacet
  facet normal -1.000000e+00 -0.000000e+00 0.000000e+00
    outer loop
      vertex   -7.500000e-02 1.221113e-01 -2.422693e-01
      vertex   -7.500000e-02 9.110414e-02 -2.936410e-01
      vertex   -7.500000e-02 3.361491e-02 -2.168036e-02
    endloop
  endfacet
  facet normal -1.000000e+00 -0.000000e+00 0.000000e+00
    outer loop
      vertex   -7.500000e-02 9.381942e-02 -2.931622e-01
      vertex   -7.500000e-02 9.110414e-02 -2.936410e-01
      vertex   -7.500000e-02 1.221113e-01 -2.422693e-01
    endloop
  endfacet
  facet normal 0.000000e+00 -5.898603e-01 -8.075053e-01
    outer loop
      vertex   4.446838e-02 1.529820e-02 -3.171110e-01
      vertex   6.500000e-02 -5.463272e-02 -2.660284e-01
      vertex   8.520408e-03 -5.463272e-02 -2.660284e-01
    endloop
  endfacet
  facet normal 0.000000e+00 -5.898603e-01 -8.075053e-01
    outer loop
      vertex   4.446838e-02 1.529820e-02 -3.171110e-01
      vertex   6.500000e-02 1.529820e-02 -3.171110e-01
      vertex   6.500000e-02 -5.463272e-02 -2.660284e-01
    endloop
  endfacet
  facet normal 1.000000e+00 0.000000e+00 -0.000000e+00
    outer loop
      vertex   7.500000e-02 -4.478464e-02 -2.642920e-01
      vertex   7.500000e-02 -3.391293e-02 -2.121116e-02
      vertex   7.500000e-02 -8.602608e-02 -3.040012e-02
    endloop
  endfacet
  facet normal 1.000000e+00 0.000000e+00 0.000000e+00
    outer loop
      vertex   7.500000e-02 1.221113e-01 -2.422693e-01
      vertex   7.500000e-02 9.110414e-02 -2.936410e-01
      vertex   7.500000e-02 9.381942e-02 -2.931622e-01
    endloop
  endfacet
  facet normal 1.000000e+00 0.000000e+00 0.000000e+00
    outer loop
      vertex   7.500000e-02 3.361491e-02 -2.168036e-02
      vertex   7.500000e-02 9.110414e-02 -2.936410e-01
      vertex   7.500000e-02 1.221113e-01 -2.422693e-01
    endloop
  endfacet
  facet normal 1.000000e+00 0.000000e+00 0.000000e+00
    outer loop
      vertex   7.500000e-02 -3.391293e-02 -2.121116e-02
      vertex   7.500000e-02 9.110414e-02 -2.936410e-01
      vertex   7.500000e-02 3.361491e-02 -2.168036e-02
    endloop
  endfacet
  facet normal 1.000000e+00 -0.000000e+00 0.000000e+00
    outer loop
      vertex   7.500000e-02 -4.478464e-02 -2.642920e-01
      vertex   7.500000e-02 9.110414e-02 -2.936410e-01
      vertex   7.500000e-02 -3.391293e-02 -2.121116e-02
    endloop
  endfacet
  facet normal 1.000000e+00 0.000000e+00 0.000000e+00
    outer loop
      vertex   7.500000e-02 -4.478464e-02 -2.642920e-01
      vertex   7.500000e-02 1.482242e-02 -3.070769e-01
      vertex   7.500000e-02 9.110414e-02 -2.936410e-01
    endloop
  endfacet
  facet normal 7.071069e-01 6.562642e-01 2.632815e-01
    outer loop
      vertex   7.500000e-02 1.221113e-01 -2.422693e-01
      vertex   6.500000e-02 1.313923e-01 -2.385460e-01
      vertex   6.500000e-02 3.909187e-02 -8.474987e-03
    endloop
  endfacet
  facet normal 7.071067e-01 6.562644e-01 2.632816e-01
    outer loop
      vertex   7.500000e-02 1.221113e-01 -2.422693e-01
      vertex   6.500000e-02 3.909187e-02 -8.474987e-03
      vertex   7.500000e-02 3.361491e-02 -2.168036e-02
    endloop
  endfacet
  facet normal 5.332013e-01 7.394157e-01 -4.110484e-01
    outer loop
      vertex   6.500000e-02 1.313923e-01 -2.385460e-01
      vertex   7.500000e-02 1.221113e-01 -2.422693e-01
      vertex   7.500000e-02 9.381942e-02 -2.931622e-01
    endloop
  endfacet
  facet normal 5.332011e-01 7.394158e-01 -4.110485e-01
    outer loop
      vertex   6.500000e-02 9.555590e-02 -3.030103e-01
      vertex   6.500000e-02 1.313923e-01 -2.385460e-01
      vertex   7.500000e-02 9.381942e-02 -2.931622e-01
    endloop
  endfacet
  facet normal 7.071067e-01 1.227883e-01 -6.963642e-01
    outer loop
      vertex   6.500000e-02 9.555590e-02 -3.030103e-01
      vertex   7.500000e-02 9.110414e-02 -2.936410e-01
      vertex   6.500000e-02 9.409148e-02 -3.032685e-01
    endloop
  endfacet
  facet normal 7.071062e-01 1.227844e-01 -6.963655e-01
    outer loop
      vertex   7.500000e-02 9.381942e-02 -2.931622e-01
      vertex   7.500000e-02 9.110414e-02 -2.936410e-01
      vertex   6.500000e-02 9.555590e-02 -3.030103e-01
    endloop
  endfacet
  facet normal 7.071069e-01 -6.963642e-01 -1.227878e-01
    outer loop
      vertex   7.500000e-02 -8.602608e-02 -3.040012e-02
      vertex   6.500000e-02 -9.587416e-02 -3.213660e-02
      vertex   7.500000e-02 -4.478464e-02 -2.642920e-01
    endloop
  endfacet
  facet normal 7.071067e-01 -6.963643e-01 -1.227878e-01
    outer loop
      vertex   7.500000e-02 -4.478464e-02 -2.642920e-01
      vertex   6.500000e-02 -9.587416e-02 -3.213660e-02
      vertex   6.500000e-02 -5.463272e-02 -2.660284e-01
    endloop
  endfacet
  facet normal 0.000000e+00 -1.736482e-01 9.848078e-01
    outer loop
      vertex   -6.500000e-02 -3.391293e-02 -2.121116e-02
      vertex   6.500000e-02 3.904072e-02 -8.347468e-03
      vertex   -6.500000e-02 3.904072e-02 -8.347468e-03
    endloop
  endfacet
  facet normal 0.000000e+00 -1.736482e-01 9.848078e-01
    outer loop
      vertex   6.500000e-02 -3.391293e-02 -2.121116e-02
      vertex   6.500000e-02 3.904072e-02 -8.347468e-03
      vertex   -6.500000e-02 -3.391293e-02 -2.121116e-02
    endloop
  endfacet
  facet normal 0.000000e+00 -1.736482e-01 9.848078e-01
    outer loop
      vertex   7.500000e-02 -8.602608e-02 -3.040012e-02
      vertex   7.500000e-02 -3.391293e-02 -2.121116e-02
      vertex   6.500000e-02 -3.391293e-02 -2.121116e-02
    endloop
  endfacet
  facet normal 8.257177e-08 -1.736482e-01 9.848078e-01
    outer loop
      vertex   6.500000e-02 -3.391293e-02 -2.121116e-02
      vertex   6.500000e-02 -9.587416e-02 -3.213660e-02
      vertex   7.500000e-02 -8.602608e-02 -3.040012e-02
    endloop
  endfacet
  facet normal 0.000000e+00 -1.736482e-01 9.848078e-01
    outer loop
      vertex   6.500000e-02 -3.391293e-02 -2.121116e-02
      vertex   -6.500000e-02 -9.587416e-02 -3.213660e-02
      vertex   6.500000e-02 -9.587416e-02 -3.213660e-02
    endloop
  endfacet
  facet normal 0.000000e+00 -1.736482e-01 9.848078e-01
    outer loop
      vertex   -6.500000e-02 -3.391293e-02 -2.121116e-02
      vertex   -6.500000e-02 -9.587416e-02 -3.213660e-02
      vertex   6.500000e-02 -3.391293e-02 -2.121116e-02
    endloop
  endfacet
  facet normal 0.000000e+00 -1.736482e-01 9.848078e-01
    outer loop
      vertex   -7.500000e-02 -8.602608e-02 -3.040012e-02
      vertex   -6.500000e-02 -3.391293e-02 -2.121116e-02
      vertex   -7.500000e-02 -3.391293e-02 -2.121116e-02
    endloop
  endfacet
  facet normal -8.257177e-08 -1.736482e-01 9.848078e-01
    outer loop
      vertex   -7.500000e-02 -8.602608e-02 -3.040012e-02
      vertex   -6.500000e-02 -9.587416e-02 -3.213660e-02
      vertex   -6.500000e-02 -3.391293e-02 -2.121116e-02
    endloop
  endfacet
  facet normal 0.000000e+00 -9.848078e-01 -1.736482e-01
    outer loop
      vertex   8.520408e-03 -5.463272e-02 -2.660284e-01
      vertex   6.500000e-02 -5.463272e-02 -2.660284e-01
      vertex   6.500000e-02 -9.587416e-02 -3.213660e-02
    endloop
  endfacet
  facet normal 0.000000e+00 -9.848078e-01 -1.736482e-01
    outer loop
      vertex   -8.520408e-03 -5.463272e-02 -2.660284e-01
      vertex   8.520408e-03 -5.463272e-02 -2.660284e-01
      vertex   6.500000e-02 -9.587416e-02 -3.213660e-02
    endloop
  endfacet
  facet normal 0.000000e+00 -9.848078e-01 -1.736482e-01
    outer loop
      vertex   -6.500000e-02 -9.587416e-02 -3.213660e-02
      vertex   -8.520408e-03 -5.463272e-02 -2.660284e-01
      vertex   6.500000e-02 -9.587416e-02 -3.213660e-02
    endloop
  endfacet
  facet normal 0.000000e+00 -9.848078e-01 -1.736482e-01
    outer loop
      vertex   -6.500000e-02 -5.463272e-02 -2.660284e-01
      vertex   -8.520408e-03 -5.463272e-02 -2.660284e-01
      vertex   -6.500000e-02 -9.587416e-02 -3.213660e-02
    endloop
  endfacet
  facet normal -0.000000e+00 -5.898603e-01 -8.075053e-01
    outer loop
      vertex   -4.446838e-02 1.529820e-02 -3.171110e-01
      vertex   -6.500000e-02 -5.463272e-02 -2.660284e-01
      vertex   -6.500000e-02 1.529820e-02 -3.171110e-01
    endloop
  endfacet
  facet normal -0.000000e+00 -5.898603e-01 -8.075053e-01
    outer loop
      vertex   -8.520408e-03 -5.463272e-02 -2.660284e-01
      vertex   -6.500000e-02 -5.463272e-02 -2.660284e-01
      vertex   -4.446838e-02 1.529820e-02 -3.171110e-01
    endloop
  endfacet
  facet normal 0.000000e+00 1.736489e-01 -9.848076e-01
    outer loop
      vertex   -4.446070e-02 9.409148e-02 -3.032685e-01
      vertex   -6.500000e-02 9.555590e-02 -3.030103e-01
      vertex   -4.441959e-02 9.555590e-02 -3.030103e-01
    endloop
  endfacet
  facet normal 0.000000e+00 1.736489e-01 -9.848076e-01
    outer loop
      vertex   -6.500000e-02 9.409148e-02 -3.032685e-01
      vertex   -6.500000e-02 9.555590e-02 -3.030103e-01
      vertex   -4.446070e-02 9.409148e-02 -3.032685e-01
    endloop
  endfacet
  facet normal 0.000000e+00 6.199046e-01 -7.846772e-01
    outer loop
      vertex   2.296501e-03 1.294388e-01 -2.762424e-01
      vertex   6.500000e-02 9.555590e-02 -3.030103e-01
      vertex   4.441959e-02 9.555590e-02 -3.030103e-01
    endloop
  endfacet
  facet normal 2.560451e-01 8.448900e-01 -4.696827e-01
    outer loop
      vertex   6.500000e-02 9.555590e-02 -3.030103e-01
      vertex   2.296501e-03 1.294388e-01 -2.762424e-01
      vertex   6.500000e-02 1.313923e-01 -2.385460e-01
    endloop
  endfacet
  facet normal 0.000000e+00 9.986601e-01 -5.175038e-02
    outer loop
      vertex   6.500000e-02 1.313923e-01 -2.385460e-01
      vertex   2.296501e-03 1.294388e-01 -2.762424e-01
      vertex   -6.500000e-02 1.313923e-01 -2.385460e-01
    endloop
  endfacet
  facet normal -2.751872e-01 8.002866e-01 -5.327414e-01
    outer loop
      vertex   -4.441959e-02 9.555590e-02 -3.030103e-01
      vertex   -6.500000e-02 1.313923e-01 -2.385460e-01
      vertex   2.296501e-03 1.294388e-01 -2.762424e-01
    endloop
  endfacet
  facet normal 0.000000e+00 8.740258e-01 -4.858796e-01
    outer loop
      vertex   -4.441959e-02 9.555590e-02 -3.030103e-01
      vertex   -6.500000e-02 9.555590e-02 -3.030103e-01
      vertex   -6.500000e-02 1.313923e-01 -2.385460e-01
    endloop
  endfacet
  facet normal -7.071067e-01 -6.963643e-01 -1.227878e-01
    outer loop
      vertex   -7.500000e-02 -4.478464e-02 -2.642920e-01
      vertex   -6.500000e-02 -5.463272e-02 -2.660284e-01
      vertex   -6.500000e-02 -9.587416e-02 -3.213660e-02
    endloop
  endfacet
  facet normal -7.071069e-01 -6.963642e-01 -1.227878e-01
    outer loop
      vertex   -7.500000e-02 -8.602608e-02 -3.040012e-02
      vertex   -7.500000e-02 -4.478464e-02 -2.642920e-01
      vertex   -6.500000e-02 -9.587416e-02 -3.213660e-02
    endloop
  endfacet
  facet normal -6.161060e-01 -4.646112e-01 -6.360423e-01
    outer loop
      vertex   -6.500000e-02 -5.463272e-02 -2.660284e-01
      vertex   -7.500000e-02 1.482242e-02 -3.070769e-01
      vertex   -6.500000e-02 1.529820e-02 -3.171110e-01
    endloop
  endfacet
  facet normal -5.818001e-01 -4.742687e-01 -6.607403e-01
    outer loop
      vertex   -6.500000e-02 -5.463272e-02 -2.660284e-01
      vertex   -7.500000e-02 -4.478464e-02 -2.642920e-01
      vertex   -7.500000e-02 1.482242e-02 -3.070769e-01
    endloop
  endfacet
  facet normal -5.332013e-01 7.394157e-01 -4.110484e-01
    outer loop
      vertex   -6.500000e-02 1.313923e-01 -2.385460e-01
      vertex   -7.500000e-02 9.381942e-02 -2.931622e-01
      vertex   -7.500000e-02 1.221113e-01 -2.422693e-01
    endloop
  endfacet
  facet normal -5.332011e-01 7.394158e-01 -4.110485e-01
    outer loop
      vertex   -6.500000e-02 9.555590e-02 -3.030103e-01
      vertex   -7.500000e-02 9.381942e-02 -2.931622e-01
      vertex   -6.500000e-02 1.313923e-01 -2.385460e-01
    endloop
  endfacet
  facet normal -7.071069e-01 6.562642e-01 2.632815e-01
    outer loop
      vertex   -6.500000e-02 1.313923e-01 -2.385460e-01
      vertex   -7.500000e-02 1.221113e-01 -2.422693e-01
      vertex   -7.500000e-02 3.361491e-02 -2.168036e-02
    endloop
  endfacet
  facet normal -7.071067e-01 6.562643e-01 2.632816e-01
    outer loop
      vertex   -6.500000e-02 1.313923e-01 -2.385460e-01
      vertex   -7.500000e-02 3.361491e-02 -2.168036e-02
      vertex   -6.500000e-02 3.909187e-02 -8.474987e-03
    endloop
  endfacet
  facet normal -7.071065e-01 1.227844e-01 -6.963652e-01
    outer loop
      vertex   -7.500000e-02 9.381942e-02 -2.931622e-01
      vertex   -6.500000e-02 9.409148e-02 -3.032685e-01
      vertex   -7.500000e-02 9.110414e-02 -2.936410e-01
    endloop
  endfacet
  facet normal -7.071062e-01 1.227884e-01 -6.963648e-01
    outer loop
      vertex   -6.500000e-02 9.555590e-02 -3.030103e-01
      vertex   -6.500000e-02 9.409148e-02 -3.032685e-01
      vertex   -7.500000e-02 9.381942e-02 -2.931622e-01
    endloop
  endfacet
  facet normal 5.818001e-01 -4.742687e-01 -6.607403e-01
    outer loop
      vertex   7.500000e-02 1.482242e-02 -3.070769e-01
      vertex   7.500000e-02 -4.478464e-02 -2.642920e-01
      vertex   6.500000e-02 -5.463272e-02 -2.660284e-01
    endloop
  endfacet
  facet normal 6.161060e-01 -4.646112e-01 -6.360423e-01
    outer loop
      vertex   6.500000e-02 -5.463272e-02 -2.660284e-01
      vertex   6.500000e-02 1.529820e-02 -3.171110e-01
      vertex   7.500000e-02 1.482242e-02 -3.070769e-01
    endloop
  endfacet
  facet normal -1.000000e+00 0.000000e+00 0.000000e+00
    outer loop
      vertex   -7.500000e-02 8.567163e-02 -2.857363e-01
      vertex   -7.500000e-02 5.089526e-02 -2.707186e-01
      vertex   -7.500000e-02 6.934786e-02 -2.733527e-01
    endloop
  endfacet
  facet normal -1.000000e+00 0.000000e+00 0.000000e+00
    outer loop
      vertex   -7.500000e-02 8.567163e-02 -2.857363e-01
      vertex   -7.500000e-02 3.848390e-02 -2.737906e-01
      vertex   -7.500000e-02 5.089526e-02 -2.707186e-01
    endloop
  endfacet
  facet normal -1.000000e+00 0.000000e+00 0.000000e+00
    outer loop
      vertex   -7.500000e-02 8.567163e-02 -2.857363e-01
      vertex   -7.500000e-02 2.639774e-02 -2.824039e-01
      vertex   -7.500000e-02 3.848390e-02 -2.737906e-01
    endloop
  endfacet
  facet normal -1.000000e+00 -0.000000e+00 0.000000e+00
    outer loop
      vertex   -7.500000e-02 8.567163e-02 -2.857363e-01
      vertex   -7.500000e-02 1.671284e-02 -2.996782e-01
      vertex   -7.500000e-02 2.639774e-02 -2.824039e-01
    endloop
  endfacet
  facet normal -1.000000e+00 0.000000e+00 0.000000e+00
    outer loop
      vertex   -7.500000e-02 5.101331e-02 -3.496972e-01
      vertex   -7.500000e-02 8.064970e-02 -3.402467e-01
      vertex   -7.500000e-02 6.710594e-02 -3.480272e-01
    endloop
  endfacet
  facet normal -1.000000e+00 0.000000e+00 0.000000e+00
    outer loop
      vertex   -7.500000e-02 3.722023e-02 -3.460520e-01
      vertex   -7.500000e-02 8.064970e-02 -3.402467e-01
      vertex   -7.500000e-02 5.101331e-02 -3.496972e-01
    endloop
  endfacet
  facet normal -1.000000e+00 0.000000e+00 0.000000e+00
    outer loop
      vertex   -7.500000e-02 3.722023e-02 -3.460520e-01
      vertex   -7.500000e-02 9.047762e-02 -3.275375e-01
      vertex   -7.500000e-02 8.064970e-02 -3.402467e-01
    endloop
  endfacet
  facet normal -1.000000e+00 0.000000e+00 0.000000e+00
    outer loop
      vertex   -7.500000e-02 2.316553e-02 -3.339653e-01
      vertex   -7.500000e-02 9.047762e-02 -3.275375e-01
      vertex   -7.500000e-02 3.722023e-02 -3.460520e-01
    endloop
  endfacet
  facet normal -1.000000e+00 0.000000e+00 0.000000e+00
    outer loop
      vertex   -7.500000e-02 2.316553e-02 -3.339653e-01
      vertex   -7.500000e-02 9.439939e-02 -3.139208e-01
      vertex   -7.500000e-02 9.047762e-02 -3.275375e-01
    endloop
  endfacet
  facet normal -1.000000e+00 0.000000e+00 0.000000e+00
    outer loop
      vertex   -7.500000e-02 1.598127e-02 -3.192737e-01
      vertex   -7.500000e-02 9.439939e-02 -3.139208e-01
      vertex   -7.500000e-02 2.316553e-02 -3.339653e-01
    endloop
  endfacet
  facet normal -1.000000e+00 0.000000e+00 0.000000e+00
    outer loop
      vertex   -7.500000e-02 1.598127e-02 -3.192737e-01
      vertex   -7.500000e-02 9.329068e-02 -3.005925e-01
      vertex   -7.500000e-02 9.439939e-02 -3.139208e-01
    endloop
  endfacet
  facet normal -1.000000e+00 0.000000e+00 0.000000e+00
    outer loop
      vertex   -7.500000e-02 9.329068e-02 -3.005925e-01
      vertex   -7.500000e-02 1.671284e-02 -2.996782e-01
      vertex   -7.500000e-02 8.567163e-02 -2.857363e-01
    endloop
  endfacet
  facet normal -1.000000e+00 -0.000000e+00 0.000000e+00
    outer loop
      vertex   -7.500000e-02 9.329068e-02 -3.005925e-01
      vertex   -7.500000e-02 1.598127e-02 -3.192737e-01
      vertex   -7.500000e-02 1.671284e-02 -2.996782e-01
    endloop
  endfacet
  facet normal 1.000000e+00 0.000000e+00 0.000000e+00
    outer loop
      vertex   -6.500000e-02 5.732777e-02 -2.709003e-01
      vertex   -6.500000e-02 9.080950e-02 -2.943816e-01
      vertex   -6.500000e-02 7.781857e-02 -2.781826e-01
    endloop
  endfacet
  facet normal 1.000000e+00 -0.000000e+00 0.000000e+00
    outer loop
      vertex   -6.500000e-02 3.927470e-02 -2.735774e-01
      vertex   -6.500000e-02 9.080950e-02 -2.943816e-01
      vertex   -6.500000e-02 5.732777e-02 -2.709003e-01
    endloop
  endfacet
  facet normal 1.000000e+00 -0.000000e+00 0.000000e+00
    outer loop
      vertex   -6.500000e-02 2.652592e-02 -2.820400e-01
      vertex   -6.500000e-02 9.080950e-02 -2.943816e-01
      vertex   -6.500000e-02 3.927470e-02 -2.735774e-01
    endloop
  endfacet
  facet normal 1.000000e+00 -0.000000e+00 0.000000e+00
    outer loop
      vertex   -6.500000e-02 1.878642e-02 -2.929574e-01
      vertex   -6.500000e-02 9.080950e-02 -2.943816e-01
      vertex   -6.500000e-02 2.652592e-02 -2.820400e-01
    endloop
  endfacet
  facet normal 1.000000e+00 0.000000e+00 0.000000e+00
    outer loop
      vertex   -6.500000e-02 1.540734e-02 -3.120484e-01
      vertex   -6.500000e-02 9.080950e-02 -2.943816e-01
      vertex   -6.500000e-02 1.878642e-02 -2.929574e-01
    endloop
  endfacet
  facet normal 1.000000e+00 0.000000e+00 0.000000e+00
    outer loop
      vertex   -6.500000e-02 7.573805e-02 -3.441011e-01
      vertex   -6.500000e-02 3.515325e-02 -3.445135e-01
      vertex   -6.500000e-02 5.732246e-02 -3.494721e-01
    endloop
  endfacet
  facet normal 1.000000e+00 0.000000e+00 0.000000e+00
    outer loop
      vertex   -6.500000e-02 8.735600e-02 -3.324521e-01
      vertex   -6.500000e-02 3.515325e-02 -3.445135e-01
      vertex   -6.500000e-02 7.573805e-02 -3.441011e-01
    endloop
  endfacet
  facet normal 1.000000e+00 0.000000e+00 0.000000e+00
    outer loop
      vertex   -6.500000e-02 8.735600e-02 -3.324521e-01
      vertex   -6.500000e-02 2.095631e-02 -3.311599e-01
      vertex   -6.500000e-02 3.515325e-02 -3.445135e-01
    endloop
  endfacet
  facet normal 1.000000e+00 0.000000e+00 0.000000e+00
    outer loop
      vertex   -6.500000e-02 9.414812e-02 -3.144777e-01
      vertex   -6.500000e-02 2.095631e-02 -3.311599e-01
      vertex   -6.500000e-02 8.735600e-02 -3.324521e-01
    endloop
  endfacet
  facet normal 1.000000e+00 0.000000e+00 0.000000e+00
    outer loop
      vertex   -6.500000e-02 9.414812e-02 -3.144777e-01
      vertex   -6.500000e-02 1.540734e-02 -3.120484e-01
      vertex   -6.500000e-02 2.095631e-02 -3.311599e-01
    endloop
  endfacet
  facet normal 1.000000e+00 0.000000e+00 0.000000e+00
    outer loop
      vertex   -6.500000e-02 9.080950e-02 -2.943816e-01
      vertex   -6.500000e-02 1.540734e-02 -3.120484e-01
      vertex   -6.500000e-02 9.414812e-02 -3.144777e-01
    endloop
  endfacet
  facet normal 1.415360e-01 9.765483e-01 1.622373e-01
    outer loop
      vertex   -6.500000e-02 9.414812e-02 -3.144777e-01
      vertex   -7.500000e-02 9.329068e-02 -3.005925e-01
      vertex   -6.500000e-02 9.080950e-02 -2.943816e-01
    endloop
  endfacet
  facet normal 2.964426e-02 9.961200e-01 8.286222e-02
    outer loop
      vertex   -6.500000e-02 9.414812e-02 -3.144777e-01
      vertex   -7.500000e-02 9.439939e-02 -3.139208e-01
      vertex   -7.500000e-02 9.329068e-02 -3.005925e-01
    endloop
  endfacet
  facet normal 8.733593e-03 9.609021e-01 -2.767505e-01
    outer loop
      vertex   -6.500000e-02 9.414812e-02 -3.144777e-01
      vertex   -7.500000e-02 9.047762e-02 -3.275375e-01
      vertex   -7.500000e-02 9.439939e-02 -3.139208e-01
    endloop
  endfacet
  facet normal 1.174702e-01 9.289648e-01 -3.510345e-01
    outer loop
      vertex   -6.500000e-02 8.735600e-02 -3.324521e-01
      vertex   -7.500000e-02 9.047762e-02 -3.275375e-01
      vertex   -6.500000e-02 9.414812e-02 -3.144777e-01
    endloop
  endfacet
  facet normal -5.361887e-02 7.899291e-01 -6.108494e-01
    outer loop
      vertex   -6.500000e-02 8.735600e-02 -3.324521e-01
      vertex   -7.500000e-02 8.064970e-02 -3.402467e-01
      vertex   -7.500000e-02 9.047762e-02 -3.275375e-01
    endloop
  endfacet
  facet normal 7.536841e-02 7.060366e-01 -7.041534e-01
    outer loop
      vertex   -6.500000e-02 7.573805e-02 -3.441011e-01
      vertex   -7.500000e-02 8.064970e-02 -3.402467e-01
      vertex   -6.500000e-02 8.735600e-02 -3.324521e-01
    endloop
  endfacet
  facet normal -8.920149e-02 4.961405e-01 -8.636479e-01
    outer loop
      vertex   -6.500000e-02 7.573805e-02 -3.441011e-01
      vertex   -7.500000e-02 6.710594e-02 -3.480272e-01
      vertex   -7.500000e-02 8.064970e-02 -3.402467e-01
    endloop
  endfacet
  facet normal 1.339915e-01 2.774658e-01 -9.513459e-01
    outer loop
      vertex   -6.500000e-02 5.732246e-02 -3.494721e-01
      vertex   -7.500000e-02 6.710594e-02 -3.480272e-01
      vertex   -6.500000e-02 7.573805e-02 -3.441011e-01
    endloop
  endfacet
  facet normal -4.269897e-02 1.031280e-01 -9.937512e-01
    outer loop
      vertex   -6.500000e-02 5.732246e-02 -3.494721e-01
      vertex   -7.500000e-02 5.101331e-02 -3.496972e-01
      vertex   -7.500000e-02 6.710594e-02 -3.480272e-01
    endloop
  endfacet
  facet normal 1.576812e-01 -2.155469e-01 -9.636785e-01
    outer loop
      vertex   -6.500000e-02 3.515325e-02 -3.445135e-01
      vertex   -7.500000e-02 5.101331e-02 -3.496972e-01
      vertex   -6.500000e-02 5.732246e-02 -3.494721e-01
    endloop
  endfacet
  facet normal 9.549328e-02 -2.543361e-01 -9.623898e-01
    outer loop
      vertex   -6.500000e-02 3.515325e-02 -3.445135e-01
      vertex   -7.500000e-02 3.722023e-02 -3.460520e-01
      vertex   -7.500000e-02 5.101331e-02 -3.496972e-01
    endloop
  endfacet
  facet normal -1.812197e-02 -6.519219e-01 -7.580695e-01
    outer loop
      vertex   -6.500000e-02 3.515325e-02 -3.445135e-01
      vertex   -7.500000e-02 2.316553e-02 -3.339653e-01
      vertex   -7.500000e-02 3.722023e-02 -3.460520e-01
    endloop
  endfacet
  facet normal 5.291167e-02 -6.841816e-01 -7.273898e-01
    outer loop
      vertex   -6.500000e-02 2.095631e-02 -3.311599e-01
      vertex   -7.500000e-02 2.316553e-02 -3.339653e-01
      vertex   -6.500000e-02 3.515325e-02 -3.445135e-01
    endloop
  endfacet
  facet normal -7.501174e-02 -8.958122e-01 -4.380568e-01
    outer loop
      vertex   -6.500000e-02 2.095631e-02 -3.311599e-01
      vertex   -7.500000e-02 1.598127e-02 -3.192737e-01
      vertex   -7.500000e-02 2.316553e-02 -3.339653e-01
    endloop
  endfacet
  facet normal 1.448054e-01 -9.502179e-01 -2.758936e-01
    outer loop
      vertex   -6.500000e-02 1.540734e-02 -3.120484e-01
      vertex   -7.500000e-02 1.598127e-02 -3.192737e-01
      vertex   -6.500000e-02 2.095631e-02 -3.311599e-01
    endloop
  endfacet
  facet normal -8.401107e-02 -9.957711e-01 3.717556e-02
    outer loop
      vertex   -6.500000e-02 1.540734e-02 -3.120484e-01
      vertex   -7.500000e-02 1.671284e-02 -2.996782e-01
      vertex   -7.500000e-02 1.598127e-02 -3.192737e-01
    endloop
  endfacet
  facet normal 8.672038e-02 -9.809848e-01 1.736331e-01
    outer loop
      vertex   -6.500000e-02 1.878642e-02 -2.929574e-01
      vertex   -7.500000e-02 1.671284e-02 -2.996782e-01
      vertex   -6.500000e-02 1.540734e-02 -3.120484e-01
    endloop
  endfacet
  facet normal -1.462119e-01 -8.628882e-01 4.837830e-01
    outer loop
      vertex   -6.500000e-02 1.878642e-02 -2.929574e-01
      vertex   -7.500000e-02 2.639774e-02 -2.824039e-01
      vertex   -7.500000e-02 1.671284e-02 -2.996782e-01
    endloop
  endfacet
  facet normal -1.058900e-02 -8.157554e-01 5.783002e-01
    outer loop
      vertex   -6.500000e-02 2.652592e-02 -2.820400e-01
      vertex   -7.500000e-02 2.639774e-02 -2.824039e-01
      vertex   -6.500000e-02 1.878642e-02 -2.929574e-01
    endloop
  endfacet
  facet normal -2.322488e-02 -5.528946e-01 8.329275e-01
    outer loop
      vertex   -6.500000e-02 3.927470e-02 -2.735774e-01
      vertex   -7.500000e-02 2.639774e-02 -2.824039e-01
      vertex   -6.500000e-02 2.652592e-02 -2.820400e-01
    endloop
  endfacet
  facet normal 2.852112e-02 -5.801249e-01 8.140281e-01
    outer loop
      vertex   -6.500000e-02 3.927470e-02 -2.735774e-01
      vertex   -7.500000e-02 3.848390e-02 -2.737906e-01
      vertex   -7.500000e-02 2.639774e-02 -2.824039e-01
    endloop
  endfacet
  facet normal -1.695140e-03 -2.402698e-01 9.707047e-01
    outer loop
      vertex   -6.500000e-02 3.927470e-02 -2.735774e-01
      vertex   -7.500000e-02 5.089526e-02 -2.707186e-01
      vertex   -7.500000e-02 3.848390e-02 -2.737906e-01
    endloop
  endfacet
  facet normal 1.116344e-01 -1.457695e-01 9.830000e-01
    outer loop
      vertex   -6.500000e-02 5.732777e-02 -2.709003e-01
      vertex   -7.500000e-02 5.089526e-02 -2.707186e-01
      vertex   -6.500000e-02 3.927470e-02 -2.735774e-01
    endloop
  endfacet
  facet normal -7.271481e-02 1.409431e-01 9.873437e-01
    outer loop
      vertex   -6.500000e-02 5.732777e-02 -2.709003e-01
      vertex   -7.500000e-02 6.934786e-02 -2.733527e-01
      vertex   -7.500000e-02 5.089526e-02 -2.707186e-01
    endloop
  endfacet
  facet normal 1.689808e-01 3.300575e-01 9.287128e-01
    outer loop
      vertex   -6.500000e-02 7.781857e-02 -2.781826e-01
      vertex   -7.500000e-02 6.934786e-02 -2.733527e-01
      vertex   -6.500000e-02 5.732777e-02 -2.709003e-01
    endloop
  endfacet
  facet normal -1.261477e-01 5.995605e-01 7.903252e-01
    outer loop
      vertex   -6.500000e-02 7.781857e-02 -2.781826e-01
      vertex   -7.500000e-02 8.567163e-02 -2.857363e-01
      vertex   -7.500000e-02 6.934786e-02 -2.733527e-01
    endloop
  endfacet
  facet normal 1.387039e-01 7.725825e-01 6.195785e-01
    outer loop
      vertex   -6.500000e-02 9.080950e-02 -2.943816e-01
      vertex   -7.500000e-02 8.567163e-02 -2.857363e-01
      vertex   -6.500000e-02 7.781857e-02 -2.781826e-01
    endloop
  endfacet
  facet normal -6.252718e-02 8.880647e-01 4.554465e-01
    outer loop
      vertex   -6.500000e-02 9.080950e-02 -2.943816e-01
      vertex   -7.500000e-02 9.329068e-02 -3.005925e-01
      vertex   -7.500000e-02 8.567163e-02 -2.857363e-01
    endloop
  endfacet
  facet normal 1.000000e+00 0.000000e+00 0.000000e+00
    outer loop
      vertex   6.500000e-02 -1.595700e-02 -6.860954e-03
      vertex   6.500000e-02 -1.630097e-02 6.005881e-03
      vertex   6.500000e-02 -1.744282e-02 -3.078871e-04
    endloop
  endfacet
  facet normal 1.000000e+00 0.000000e+00 -0.000000e+00
    outer loop
      vertex   6.500000e-02 -1.595700e-02 -6.860954e-03
      vertex   6.500000e-02 -1.274750e-02 1.187912e-02
      vertex   6.500000e-02 -1.630097e-02 6.005881e-03
    endloop
  endfacet
  facet normal 1.000000e+00 0.000000e+00 -0.000000e+00
    outer loop
      vertex   6.500000e-02 -1.307386e-02 -1.155079e-02
      vertex   6.500000e-02 -1.274750e-02 1.187912e-02
      vertex   6.500000e-02 -1.595700e-02 -6.860954e-03
    endloop
  endfacet
  facet normal 1.000000e+00 0.000000e+00 0.000000e+00
    outer loop
      vertex   6.500000e-02 -9.337384e-03 -1.473635e-02
      vertex   6.500000e-02 -1.274750e-02 1.187912e-02
      vertex   6.500000e-02 -1.307386e-02 -1.155079e-02
    endloop
  endfacet
  facet normal 1.000000e+00 0.000000e+00 -0.000000e+00
    outer loop
      vertex   6.500000e-02 -9.337384e-03 -1.473635e-02
      vertex   6.500000e-02 -6.691208e-03 1.595908e-02
      vertex   6.500000e-02 -1.274750e-02 1.187912e-02
    endloop
  endfacet
  facet normal 1.000000e+00 0.000000e+00 0.000000e+00
    outer loop
      vertex   6.500000e-02 -4.250542e-03 -1.684136e-02
      vertex   6.500000e-02 -6.691208e-03 1.595908e-02
      vertex   6.500000e-02 -9.337384e-03 -1.473635e-02
    endloop
  endfacet
  facet normal 1.000000e+00 0.000000e+00 -0.000000e+00
    outer loop
      vertex   6.500000e-02 -4.250542e-03 -1.684136e-02
      vertex   6.500000e-02 1.377231e-03 1.728827e-02
      vertex   6.500000e-02 -6.691208e-03 1.595908e-02
    endloop
  endfacet
  facet normal 1.000000e+00 0.000000e+00 0.000000e+00
    outer loop
      vertex   6.500000e-02 1.393170e-02 -1.046519e-02
      vertex   6.500000e-02 2.603334e-03 -1.722890e-02
      vertex   6.500000e-02 8.771093e-03 -1.499221e-02
    endloop
  endfacet
  facet normal 1.000000e+00 0.000000e+00 0.000000e+00
    outer loop
      vertex   6.500000e-02 1.688250e-02 -3.942992e-03
      vertex   6.500000e-02 2.603334e-03 -1.722890e-02
      vertex   6.500000e-02 1.393170e-02 -1.046519e-02
    endloop
  endfacet
  facet normal 1.000000e+00 0.000000e+00 0.000000e+00
    outer loop
      vertex   6.500000e-02 1.667018e-02 4.519359e-03
      vertex   6.500000e-02 2.603334e-03 -1.722890e-02
      vertex   6.500000e-02 1.688250e-02 -3.942992e-03
    endloop
  endfacet
  facet normal 1.000000e+00 0.000000e+00 0.000000e+00
    outer loop
      vertex   6.500000e-02 1.301838e-02 1.149870e-02
      vertex   6.500000e-02 2.603334e-03 -1.722890e-02
      vertex   6.500000e-02 1.667018e-02 4.519359e-03
    endloop
  endfacet
  facet normal 1.000000e+00 0.000000e+00 0.000000e+00
    outer loop
      vertex   6.500000e-02 7.727467e-03 1.564075e-02
      vertex   6.500000e-02 2.603334e-03 -1.722890e-02
      vertex   6.500000e-02 1.301838e-02 1.149870e-02
    endloop
  endfacet
  facet normal 1.000000e+00 0.000000e+00 0.000000e+00
    outer loop
      vertex   6.500000e-02 1.377231e-03 1.728827e-02
      vertex   6.500000e-02 2.603334e-03 -1.722890e-02
      vertex   6.500000e-02 7.727467e-03 1.564075e-02
    endloop
  endfacet
  facet normal 1.000000e+00 0.000000e+00 0.000000e+00
    outer loop
      vertex   6.500000e-02 1.377231e-03 1.728827e-02
      vertex   6.500000e-02 -4.250542e-03 -1.684136e-02
      vertex   6.500000e-02 2.603334e-03 -1.722890e-02
    endloop
  endfacet
  facet normal -1.000000e+00 0.000000e+00 0.000000e+00
    outer loop
      vertex   -6.500000e-02 4.092062e-03 -1.685337e-02
      vertex   -6.500000e-02 1.456926e-02 -9.596003e-03
      vertex   -6.500000e-02 1.093314e-02 -1.353259e-02
    endloop
  endfacet
  facet normal -1.000000e+00 0.000000e+00 0.000000e+00
    outer loop
      vertex   -6.500000e-02 1.688250e-02 -3.942992e-03
      vertex   -6.500000e-02 1.456926e-02 -9.596003e-03
      vertex   -6.500000e-02 4.092062e-03 -1.685337e-02
    endloop
  endfacet
  facet normal -1.000000e+00 0.000000e+00 -0.000000e+00
    outer loop
      vertex   -6.500000e-02 1.667018e-02 4.519359e-03
      vertex   -6.500000e-02 1.688250e-02 -3.942992e-03
      vertex   -6.500000e-02 4.092062e-03 -1.685337e-02
    endloop
  endfacet
  facet normal -1.000000e+00 0.000000e+00 0.000000e+00
    outer loop
      vertex   -6.500000e-02 4.092062e-03 -1.685337e-02
      vertex   -6.500000e-02 1.301838e-02 1.149870e-02
      vertex   -6.500000e-02 1.667018e-02 4.519359e-03
    endloop
  endfacet
  facet normal -1.000000e+00 0.000000e+00 0.000000e+00
    outer loop
      vertex   -6.500000e-02 4.092062e-03 -1.685337e-02
      vertex   -6.500000e-02 6.002518e-03 1.629933e-02
      vertex   -6.500000e-02 1.301838e-02 1.149870e-02
    endloop
  endfacet
  facet normal -1.000000e+00 0.000000e+00 0.000000e+00
    outer loop
      vertex   -6.500000e-02 4.092062e-03 -1.685337e-02
      vertex   -6.500000e-02 -1.825618e-03 1.717517e-02
      vertex   -6.500000e-02 6.002518e-03 1.629933e-02
    endloop
  endfacet
  facet normal -1.000000e+00 0.000000e+00 -0.000000e+00
    outer loop
      vertex   -6.500000e-02 -1.647380e-02 5.741131e-03
      vertex   -6.500000e-02 -1.595700e-02 -6.860954e-03
      vertex   -6.500000e-02 -1.739659e-02 1.527432e-04
    endloop
  endfacet
  facet normal -1.000000e+00 0.000000e+00 0.000000e+00
    outer loop
      vertex   -6.500000e-02 -1.379706e-02 1.055176e-02
      vertex   -6.500000e-02 -1.595700e-02 -6.860954e-03
      vertex   -6.500000e-02 -1.647380e-02 5.741131e-03
    endloop
  endfacet
  facet normal -1.000000e+00 0.000000e+00 -0.000000e+00
    outer loop
      vertex   -6.500000e-02 -1.379706e-02 1.055176e-02
      vertex   -6.500000e-02 -1.120562e-02 -1.314357e-02
      vertex   -6.500000e-02 -1.595700e-02 -6.860954e-03
    endloop
  endfacet
  facet normal -1.000000e+00 0.000000e+00 0.000000e+00
    outer loop
      vertex   -6.500000e-02 -8.811499e-03 1.505670e-02
      vertex   -6.500000e-02 -1.120562e-02 -1.314357e-02
      vertex   -6.500000e-02 -1.379706e-02 1.055176e-02
    endloop
  endfacet
  facet normal -1.000000e+00 0.000000e+00 -0.000000e+00
    outer loop
      vertex   -6.500000e-02 -8.811499e-03 1.505670e-02
      vertex   -6.500000e-02 -4.250542e-03 -1.684136e-02
      vertex   -6.500000e-02 -1.120562e-02 -1.314357e-02
    endloop
  endfacet
  facet normal -1.000000e+00 0.000000e+00 0.000000e+00
    outer loop
      vertex   -6.500000e-02 -1.825618e-03 1.717517e-02
      vertex   -6.500000e-02 -4.250542e-03 -1.684136e-02
      vertex   -6.500000e-02 -8.811499e-03 1.505670e-02
    endloop
  endfacet
  facet normal -1.000000e+00 0.000000e+00 -0.000000e+00
    outer loop
      vertex   -6.500000e-02 -1.825618e-03 1.717517e-02
      vertex   -6.500000e-02 4.092062e-03 -1.685337e-02
      vertex   -6.500000e-02 -4.250542e-03 -1.684136e-02
    endloop
  endfacet
  facet normal -1.646633e-03 8.344530e-02 9.965110e-01
    outer loop
      vertex   6.500000e-02 1.377231e-03 1.728827e-02
      vertex   6.093750e-03 3.886300e-03 1.698084e-02
      vertex   -4.875000e-03 -1.230590e-03 1.739119e-02
    endloop
  endfacet
  facet normal 5.644712e-03 2.511256e-01 9.679381e-01
    outer loop
      vertex   6.500000e-02 7.727467e-03 1.564075e-02
      vertex   6.093750e-03 3.886300e-03 1.698084e-02
      vertex   6.500000e-02 1.377231e-03 1.728827e-02
    endloop
  endfacet
  facet normal -2.324150e-03 3.609917e-01 9.325661e-01
    outer loop
      vertex   6.500000e-02 7.727467e-03 1.564075e-02
      vertex   0.000000e+00 8.958424e-03 1.500225e-02
      vertex   6.093750e-03 3.886300e-03 1.698084e-02
    endloop
  endfacet
  facet normal 3.939140e-03 6.164259e-01 7.874030e-01
    outer loop
      vertex   6.500000e-02 1.301838e-02 1.149870e-02
      vertex   0.000000e+00 8.958424e-03 1.500225e-02
      vertex   6.500000e-02 7.727467e-03 1.564075e-02
    endloop
  endfacet
  facet normal 2.885120e-03 6.264459e-01 7.794595e-01
    outer loop
      vertex   6.500000e-02 1.301838e-02 1.149870e-02
      vertex   -1.218750e-03 1.237144e-02 1.226375e-02
      vertex   0.000000e+00 8.958424e-03 1.500225e-02
    endloop
  endfacet
  facet normal -7.047446e-04 7.928330e-01 6.094385e-01
    outer loop
      vertex   6.500000e-02 1.301838e-02 1.149870e-02
      vertex   -9.750000e-03 1.531378e-02 8.426124e-03
      vertex   -1.218750e-03 1.237144e-02 1.226375e-02
    endloop
  endfacet
  facet normal 8.151760e-03 8.860135e-01 4.635878e-01
    outer loop
      vertex   6.500000e-02 1.667018e-02 4.519359e-03
      vertex   -9.750000e-03 1.531378e-02 8.426124e-03
      vertex   6.500000e-02 1.301838e-02 1.149870e-02
    endloop
  endfacet
  facet normal 1.690138e-03 9.342206e-01 3.566917e-01
    outer loop
      vertex   6.500000e-02 1.667018e-02 4.519359e-03
      vertex   6.093750e-03 1.693242e-02 4.111629e-03
      vertex   -9.750000e-03 1.531378e-02 8.426124e-03
    endloop
  endfacet
  facet normal 3.667969e-03 9.939921e-01 1.093908e-01
    outer loop
      vertex   6.500000e-02 1.667018e-02 4.519359e-03
      vertex   -2.437500e-03 1.746731e-02 -4.626475e-04
      vertex   6.093750e-03 1.693242e-02 4.111629e-03
    endloop
  endfacet
  facet normal 9.963145e-03 9.996358e-01 2.508097e-02
    outer loop
      vertex   6.500000e-02 1.688250e-02 -3.942992e-03
      vertex   -2.437500e-03 1.746731e-02 -4.626475e-04
      vertex   6.500000e-02 1.667018e-02 4.519359e-03
    endloop
  endfacet
  facet normal 7.912817e-04 9.885671e-01 -1.507793e-01
    outer loop
      vertex   6.500000e-02 1.688250e-02 -3.942992e-03
      vertex   2.437500e-03 1.683774e-02 -4.564785e-03
      vertex   -2.437500e-03 1.746731e-02 -4.626475e-04
    endloop
  endfacet
  facet normal 3.099691e-03 9.255922e-01 -3.785095e-01
    outer loop
      vertex   6.500000e-02 1.688250e-02 -3.942992e-03
      vertex   0.000000e+00 1.515802e-02 -8.692261e-03
      vertex   2.437500e-03 1.683774e-02 -4.564785e-03
    endloop
  endfacet
  facet normal 5.945922e-03 9.110770e-01 -4.121934e-01
    outer loop
      vertex   6.500000e-02 1.393170e-02 -1.046519e-02
      vertex   0.000000e+00 1.515802e-02 -8.692261e-03
      vertex   6.500000e-02 1.688250e-02 -3.942992e-03
    endloop
  endfacet
  facet normal -7.106812e-04 8.100493e-01 -5.863613e-01
    outer loop
      vertex   6.500000e-02 1.393170e-02 -1.046519e-02
      vertex   0.000000e+00 1.299210e-02 -1.168445e-02
      vertex   0.000000e+00 1.515802e-02 -8.692261e-03
    endloop
  endfacet
  facet normal 4.568493e-03 6.594454e-01 -7.517386e-01
    outer loop
      vertex   6.500000e-02 8.771093e-03 -1.499221e-02
      vertex   0.000000e+00 1.299210e-02 -1.168445e-02
      vertex   6.500000e-02 1.393170e-02 -1.046519e-02
    endloop
  endfacet
  facet normal 2.246709e-03 6.380171e-01 -7.700189e-01
    outer loop
      vertex   6.500000e-02 8.771093e-03 -1.499221e-02
      vertex   0.000000e+00 9.447023e-03 -1.462180e-02
      vertex   0.000000e+00 1.299210e-02 -1.168445e-02
    endloop
  endfacet
  facet normal -1.343279e-03 3.781303e-01 -9.257514e-01
    outer loop
      vertex   6.500000e-02 8.771093e-03 -1.499221e-02
      vertex   2.437500e-03 3.508793e-03 -1.705086e-02
      vertex   0.000000e+00 9.447023e-03 -1.462180e-02
    endloop
  endfacet
  facet normal 2.258703e-03 3.409167e-01 -9.400908e-01
    outer loop
      vertex   6.500000e-02 2.603334e-03 -1.722890e-02
      vertex   2.437500e-03 3.508793e-03 -1.705086e-02
      vertex   6.500000e-02 8.771093e-03 -1.499221e-02
    endloop
  endfacet
  facet normal -1.741738e-03 7.572254e-02 -9.971274e-01
    outer loop
      vertex   6.500000e-02 2.603334e-03 -1.722890e-02
      vertex   0.000000e+00 -1.386430e-03 -1.741835e-02
      vertex   2.437500e-03 3.508793e-03 -1.705086e-02
    endloop
  endfacet
  facet normal 6.374951e-03 -5.645237e-02 -9.983849e-01
    outer loop
      vertex   6.500000e-02 -4.250542e-03 -1.684136e-02
      vertex   0.000000e+00 -1.386430e-03 -1.741835e-02
      vertex   6.500000e-02 2.603334e-03 -1.722890e-02
    endloop
  endfacet
  facet normal 9.413894e-04 -1.769127e-01 -9.842261e-01
    outer loop
      vertex   6.500000e-02 -4.250542e-03 -1.684136e-02
      vertex   -4.875000e-03 -4.720628e-03 -1.682369e-02
      vertex   0.000000e+00 -1.386430e-03 -1.741835e-02
    endloop
  endfacet
  facet normal 2.178263e-03 -3.588552e-01 -9.333907e-01
    outer loop
      vertex   6.500000e-02 -4.250542e-03 -1.684136e-02
      vertex   2.437500e-03 -7.803744e-03 -1.562128e-02
      vertex   -4.875000e-03 -4.720628e-03 -1.682369e-02
    endloop
  endfacet
  facet normal 3.696620e-03 -3.823662e-01 -9.240035e-01
    outer loop
      vertex   6.500000e-02 -9.337384e-03 -1.473635e-02
      vertex   2.437500e-03 -7.803744e-03 -1.562128e-02
      vertex   6.500000e-02 -4.250542e-03 -1.684136e-02
    endloop
  endfacet
  facet normal -1.478593e-03 -5.443502e-01 -8.388568e-01
    outer loop
      vertex   6.500000e-02 -9.337384e-03 -1.473635e-02
      vertex   7.312500e-03 -1.109754e-02 -1.349247e-02
      vertex   2.437500e-03 -7.803744e-03 -1.562128e-02
    endloop
  endfacet
  facet normal 3.386873e-03 -6.487730e-01 -7.609745e-01
    outer loop
      vertex   6.500000e-02 -1.307386e-02 -1.155079e-02
      vertex   7.312500e-03 -1.109754e-02 -1.349247e-02
      vertex   6.500000e-02 -9.337384e-03 -1.473635e-02
    endloop
  endfacet
  facet normal -3.178081e-03 -7.464898e-01 -6.653893e-01
    outer loop
      vertex   6.500000e-02 -1.307386e-02 -1.155079e-02
      vertex   -1.218750e-03 -1.444350e-02 -9.697938e-03
      vertex   7.312500e-03 -1.109754e-02 -1.349247e-02
    endloop
  endfacet
  facet normal 2.966279e-03 -8.518913e-01 -5.237103e-01
    outer loop
      vertex   6.500000e-02 -1.595700e-02 -6.860954e-03
      vertex   -1.218750e-03 -1.444350e-02 -9.697938e-03
      vertex   6.500000e-02 -1.307386e-02 -1.155079e-02
    endloop
  endfacet
  facet normal -2.687903e-03 -9.069954e-01 -4.211320e-01
    outer loop
      vertex   6.500000e-02 -1.595700e-02 -6.860954e-03
      vertex   2.437500e-03 -1.683774e-02 -4.564785e-03
      vertex   -1.218750e-03 -1.444350e-02 -9.697938e-03
    endloop
  endfacet
  facet normal 5.613517e-03 -9.752304e-01 -2.211204e-01
    outer loop
      vertex   6.500000e-02 -1.744282e-02 -3.078871e-04
      vertex   2.437500e-03 -1.683774e-02 -4.564785e-03
      vertex   6.500000e-02 -1.595700e-02 -6.860954e-03
    endloop
  endfacet
  facet normal 9.462115e-04 -9.880168e-01 -1.543437e-01
    outer loop
      vertex   6.500000e-02 -1.744282e-02 -3.078871e-04
      vertex   -2.437500e-03 -1.745914e-02 -6.168313e-04
      vertex   2.437500e-03 -1.683774e-02 -4.564785e-03
    endloop
  endfacet
  facet normal -7.885927e-05 -9.975529e-01 6.991640e-02
    outer loop
      vertex   6.500000e-02 -1.744282e-02 -3.078871e-04
      vertex   4.875000e-03 -1.721230e-02 2.913289e-03
      vertex   -2.437500e-03 -1.745914e-02 -6.168313e-04
    endloop
  endfacet
  facet normal 5.761440e-03 -9.840208e-01 1.779604e-01
    outer loop
      vertex   6.500000e-02 -1.630097e-02 6.005881e-03
      vertex   4.875000e-03 -1.721230e-02 2.913289e-03
      vertex   6.500000e-02 -1.744282e-02 -3.078871e-04
    endloop
  endfacet
  facet normal -9.182444e-04 -9.542377e-01 2.990477e-01
    outer loop
      vertex   6.500000e-02 -1.630097e-02 6.005881e-03
      vertex   0.000000e+00 -1.580766e-02 7.380421e-03
      vertex   4.875000e-03 -1.721230e-02 2.913289e-03
    endloop
  endfacet
  facet normal 4.453227e-03 -8.555812e-01 5.176495e-01
    outer loop
      vertex   6.500000e-02 -1.274750e-02 1.187912e-02
      vertex   0.000000e+00 -1.580766e-02 7.380421e-03
      vertex   6.500000e-02 -1.630097e-02 6.005881e-03
    endloop
  endfacet
  facet normal -1.001457e-03 -8.200492e-01 5.722922e-01
    outer loop
      vertex   6.500000e-02 -1.274750e-02 1.187912e-02
      vertex   -3.656250e-03 -1.243019e-02 1.221366e-02
      vertex   0.000000e+00 -1.580766e-02 7.380421e-03
    endloop
  endfacet
  facet normal 1.458950e-03 -5.587153e-01 8.293583e-01
    outer loop
      vertex   6.500000e-02 -6.691208e-03 1.595908e-02
      vertex   -3.656250e-03 -1.243019e-02 1.221366e-02
      vertex   6.500000e-02 -1.274750e-02 1.187912e-02
    endloop
  endfacet
  facet normal 7.435848e-03 -6.073852e-01 7.943727e-01
    outer loop
      vertex   6.500000e-02 -6.691208e-03 1.595908e-02
      vertex   -4.875000e-03 -8.415392e-03 1.529482e-02
      vertex   -3.656250e-03 -1.243019e-02 1.221366e-02
    endloop
  endfacet
  facet normal 1.110455e-03 -3.983690e-01 9.172246e-01
    outer loop
      vertex   6.500000e-02 -6.691208e-03 1.595908e-02
      vertex   9.750000e-03 -5.163136e-03 1.668964e-02
      vertex   -4.875000e-03 -8.415392e-03 1.529482e-02
    endloop
  endfacet
  facet normal 9.144460e-03 -1.425575e-01 9.897443e-01
    outer loop
      vertex   6.500000e-02 -6.691208e-03 1.595908e-02
      vertex   -4.875000e-03 -1.230590e-03 1.739119e-02
      vertex   9.750000e-03 -5.163136e-03 1.668964e-02
    endloop
  endfacet
  facet normal 7.519531e-03 -1.625448e-01 9.866725e-01
    outer loop
      vertex   6.500000e-02 1.377231e-03 1.728827e-02
      vertex   -4.875000e-03 -1.230590e-03 1.739119e-02
      vertex   6.500000e-02 -6.691208e-03 1.595908e-02
    endloop
  endfacet
  facet normal -1.733007e-03 -1.818648e-01 9.833220e-01
    outer loop
      vertex   -6.500000e-02 -1.825618e-03 1.717517e-02
      vertex   9.750000e-03 -5.163136e-03 1.668964e-02
      vertex   -4.875000e-03 -1.230590e-03 1.739119e-02
    endloop
  endfacet
  facet normal -9.845128e-03 -3.564159e-01 9.342755e-01
    outer loop
      vertex   -6.500000e-02 -1.825618e-03 1.717517e-02
      vertex   -4.875000e-03 -8.415392e-03 1.529482e-02
      vertex   9.750000e-03 -5.163136e-03 1.668964e-02
    endloop
  endfacet
  facet normal -1.878241e-03 -2.902001e-01 9.569641e-01
    outer loop
      vertex   -6.500000e-02 -8.811499e-03 1.505670e-02
      vertex   -4.875000e-03 -8.415392e-03 1.529482e-02
      vertex   -6.500000e-02 -1.825618e-03 1.717517e-02
    endloop
  endfacet
  facet normal 8.674516e-04 -6.086576e-01 7.934325e-01
    outer loop
      vertex   -6.500000e-02 -8.811499e-03 1.505670e-02
      vertex   -3.656250e-03 -1.243019e-02 1.221366e-02
      vertex   -4.875000e-03 -8.415392e-03 1.529482e-02
    endloop
  endfacet
  facet normal -5.162232e-03 -6.704292e-01 7.419555e-01
    outer loop
      vertex   -6.500000e-02 -1.379706e-02 1.055176e-02
      vertex   -3.656250e-03 -1.243019e-02 1.221366e-02
      vertex   -6.500000e-02 -8.811499e-03 1.505670e-02
    endloop
  endfacet
  facet normal 2.688072e-03 -8.187352e-01 5.741650e-01
    outer loop
      vertex   -6.500000e-02 -1.379706e-02 1.055176e-02
      vertex   0.000000e+00 -1.580766e-02 7.380421e-03
      vertex   -3.656250e-03 -1.243019e-02 1.221366e-02
    endloop
  endfacet
  facet normal -3.307037e-03 -8.738309e-01 4.862188e-01
    outer loop
      vertex   -6.500000e-02 -1.647380e-02 5.741131e-03
      vertex   0.000000e+00 -1.580766e-02 7.380421e-03
      vertex   -6.500000e-02 -1.379706e-02 1.055176e-02
    endloop
  endfacet
  facet normal 2.150727e-03 -9.532756e-01 3.020944e-01
    outer loop
      vertex   -6.500000e-02 -1.647380e-02 5.741131e-03
      vertex   4.875000e-03 -1.721230e-02 2.913289e-03
      vertex   0.000000e+00 -1.580766e-02 7.380421e-03
    endloop
  endfacet
  facet normal -3.834231e-03 -9.866320e-01 1.629193e-01
    outer loop
      vertex   -6.500000e-02 -1.739659e-02 1.527432e-04
      vertex   4.875000e-03 -1.721230e-02 2.913289e-03
      vertex   -6.500000e-02 -1.647380e-02 5.741131e-03
    endloop
  endfacet
  facet normal -1.358334e-04 -9.975446e-01 7.003385e-02
    outer loop
      vertex   -6.500000e-02 -1.739659e-02 1.527432e-04
      vertex   -2.437500e-03 -1.745914e-02 -6.168313e-04
      vertex   4.875000e-03 -1.721230e-02 2.913289e-03
    endloop
  endfacet
  facet normal -2.943236e-03 -9.872695e-01 -1.590289e-01
    outer loop
      vertex   -6.500000e-02 -1.739659e-02 1.527432e-04
      vertex   2.437500e-03 -1.683774e-02 -4.564785e-03
      vertex   -2.437500e-03 -1.745914e-02 -6.168313e-04
    endloop
  endfacet
  facet normal -5.947330e-03 -9.795610e-01 -2.010595e-01
    outer loop
      vertex   -6.500000e-02 -1.595700e-02 -6.860954e-03
      vertex   2.437500e-03 -1.683774e-02 -4.564785e-03
      vertex   -6.500000e-02 -1.739659e-02 1.527432e-04
    endloop
  endfacet
  facet normal 2.618199e-03 -9.055478e-01 -4.242362e-01
    outer loop
      vertex   -6.500000e-02 -1.595700e-02 -6.860954e-03
      vertex   -1.218750e-03 -1.444350e-02 -9.697938e-03
      vertex   2.437500e-03 -1.683774e-02 -4.564785e-03
    endloop
  endfacet
  facet normal -7.903472e-03 -7.975670e-01 -6.031786e-01
    outer loop
      vertex   -6.500000e-02 -1.120562e-02 -1.314357e-02
      vertex   -1.218750e-03 -1.444350e-02 -9.697938e-03
      vertex   -6.500000e-02 -1.595700e-02 -6.860954e-03
    endloop
  endfacet
  facet normal -2.086195e-03 -7.477159e-01 -6.640155e-01
    outer loop
      vertex   -6.500000e-02 -1.120562e-02 -1.314357e-02
      vertex   7.312500e-03 -1.109754e-02 -1.349247e-02
      vertex   -1.218750e-03 -1.444350e-02 -9.697938e-03
    endloop
  endfacet
  facet normal -3.225306e-03 -5.461680e-01 -8.376694e-01
    outer loop
      vertex   -6.500000e-02 -1.120562e-02 -1.314357e-02
      vertex   2.437500e-03 -7.803744e-03 -1.562128e-02
      vertex   7.312500e-03 -1.109754e-02 -1.349247e-02
    endloop
  endfacet
  facet normal -8.759509e-03 -4.694245e-01 -8.829292e-01
    outer loop
      vertex   -6.500000e-02 -4.250542e-03 -1.684136e-02
      vertex   2.437500e-03 -7.803744e-03 -1.562128e-02
      vertex   -6.500000e-02 -1.120562e-02 -1.314357e-02
    endloop
  endfacet
  facet normal -2.609674e-03 -3.687098e-01 -9.295409e-01
    outer loop
      vertex   -6.500000e-02 -4.250542e-03 -1.684136e-02
      vertex   -4.875000e-03 -4.720628e-03 -1.682369e-02
      vertex   2.437500e-03 -7.803744e-03 -1.562128e-02
    endloop
  endfacet
  facet normal -1.071595e-03 -1.740602e-01 -9.847344e-01
    outer loop
      vertex   -6.500000e-02 -4.250542e-03 -1.684136e-02
      vertex   0.000000e+00 -1.386430e-03 -1.741835e-02
      vertex   -4.875000e-03 -4.720628e-03 -1.682369e-02
    endloop
  endfacet
  facet normal -8.812939e-03 -1.440439e-03 -9.999601e-01
    outer loop
      vertex   -6.500000e-02 4.092062e-03 -1.685337e-02
      vertex   0.000000e+00 -1.386430e-03 -1.741835e-02
      vertex   -6.500000e-02 -4.250542e-03 -1.684136e-02
    endloop
  endfacet
  facet normal -2.262761e-03 7.598042e-02 -9.971067e-01
    outer loop
      vertex   -6.500000e-02 4.092062e-03 -1.685337e-02
      vertex   2.437500e-03 3.508793e-03 -1.705086e-02
      vertex   0.000000e+00 -1.386430e-03 -1.741835e-02
    endloop
  endfacet
  facet normal 5.661064e-04 3.788021e-01 -9.254775e-01
    outer loop
      vertex   -6.500000e-02 4.092062e-03 -1.685337e-02
      vertex   0.000000e+00 9.447023e-03 -1.462180e-02
      vertex   2.437500e-03 3.508793e-03 -1.705086e-02
    endloop
  endfacet
  facet normal -5.090664e-03 4.366822e-01 -8.996014e-01
    outer loop
      vertex   -6.500000e-02 1.093314e-02 -1.353259e-02
      vertex   0.000000e+00 9.447023e-03 -1.462180e-02
      vertex   -6.500000e-02 4.092062e-03 -1.685337e-02
    endloop
  endfacet
  facet normal 1.683962e-03 6.380178e-01 -7.700198e-01
    outer loop
      vertex   -6.500000e-02 1.093314e-02 -1.353259e-02
      vertex   0.000000e+00 1.299210e-02 -1.168445e-02
      vertex   0.000000e+00 9.447023e-03 -1.462180e-02
    endloop
  endfacet
  facet normal -3.976635e-03 7.345798e-01 -6.785106e-01
    outer loop
      vertex   -6.500000e-02 1.456926e-02 -9.596003e-03
      vertex   0.000000e+00 1.299210e-02 -1.168445e-02
      vertex   -6.500000e-02 1.093314e-02 -1.353259e-02
    endloop
  endfacet
  facet normal 8.153162e-04 8.100493e-01 -5.863613e-01
    outer loop
      vertex   -6.500000e-02 1.456926e-02 -9.596003e-03
      vertex   0.000000e+00 1.515802e-02 -8.692261e-03
      vertex   0.000000e+00 1.299210e-02 -1.168445e-02
    endloop
  endfacet
  facet normal -3.117442e-03 9.255056e-01 -3.787210e-01
    outer loop
      vertex   -6.500000e-02 1.688250e-02 -3.942992e-03
      vertex   0.000000e+00 1.515802e-02 -8.692261e-03
      vertex   -6.500000e-02 1.456926e-02 -9.596003e-03
    endloop
  endfacet
  facet normal -2.847026e-03 9.268192e-01 -3.754970e-01
    outer loop
      vertex   -6.500000e-02 1.688250e-02 -3.942992e-03
      vertex   2.437500e-03 1.683774e-02 -4.564785e-03
      vertex   0.000000e+00 1.515802e-02 -8.692261e-03
    endloop
  endfacet
  facet normal -7.507711e-04 9.882924e-01 -1.525697e-01
    outer loop
      vertex   -6.500000e-02 1.688250e-02 -3.942992e-03
      vertex   -2.437500e-03 1.746731e-02 -4.626475e-04
      vertex   2.437500e-03 1.683774e-02 -4.564785e-03
    endloop
  endfacet
  facet normal -1.073941e-02 9.996277e-01 2.508076e-02
    outer loop
      vertex   -6.500000e-02 1.667018e-02 4.519359e-03
      vertex   -2.437500e-03 1.746731e-02 -4.626475e-04
      vertex   -6.500000e-02 1.688250e-02 -3.942992e-03
    endloop
  endfacet
  facet normal -2.963963e-03 9.925755e-01 1.215940e-01
    outer loop
      vertex   -6.500000e-02 1.667018e-02 4.519359e-03
      vertex   6.093750e-03 1.693242e-02 4.111629e-03
      vertex   -2.437500e-03 1.746731e-02 -4.626475e-04
    endloop
  endfacet
  facet normal -1.472894e-03 9.380448e-01 3.465110e-01
    outer loop
      vertex   -6.500000e-02 1.667018e-02 4.519359e-03
      vertex   -9.750000e-03 1.531378e-02 8.426124e-03
      vertex   6.093750e-03 1.693242e-02 4.111629e-03
    endloop
  endfacet
  facet normal -1.102855e-02 8.859890e-01 4.635750e-01
    outer loop
      vertex   -6.500000e-02 1.301838e-02 1.149870e-02
      vertex   -9.750000e-03 1.531378e-02 8.426124e-03
      vertex   -6.500000e-02 1.667018e-02 4.519359e-03
    endloop
  endfacet
  facet normal 7.725713e-04 7.944186e-01 6.073701e-01
    outer loop
      vertex   -6.500000e-02 1.301838e-02 1.149870e-02
      vertex   -1.218750e-03 1.237144e-02 1.226375e-02
      vertex   -9.750000e-03 1.531378e-02 8.426124e-03
    endloop
  endfacet
  facet normal -3.020739e-03 6.251627e-01 7.804886e-01
    outer loop
      vertex   -6.500000e-02 1.301838e-02 1.149870e-02
      vertex   0.000000e+00 8.958424e-03 1.500225e-02
      vertex   -1.218750e-03 1.237144e-02 1.226375e-02
    endloop
  endfacet
  facet normal -9.211275e-03 5.646841e-01 8.252557e-01
    outer loop
      vertex   -6.500000e-02 6.002518e-03 1.629933e-02
      vertex   0.000000e+00 8.958424e-03 1.500225e-02
      vertex   -6.500000e-02 1.301838e-02 1.149870e-02
    endloop
  endfacet
  facet normal 1.955446e-03 3.654549e-01 9.308270e-01
    outer loop
      vertex   -6.500000e-02 6.002518e-03 1.629933e-02
      vertex   6.093750e-03 3.886300e-03 1.698084e-02
      vertex   0.000000e+00 8.958424e-03 1.500225e-02
    endloop
  endfacet
  facet normal -6.216687e-03 1.111877e-01 9.937800e-01
    outer loop
      vertex   -6.500000e-02 -1.825618e-03 1.717517e-02
      vertex   6.093750e-03 3.886300e-03 1.698084e-02
      vertex   -6.500000e-02 6.002518e-03 1.629933e-02
    endloop
  endfacet
  facet normal -4.463476e-03 8.944117e-02 9.959821e-01
    outer loop
      vertex   -6.500000e-02 -1.825618e-03 1.717517e-02
      vertex   -4.875000e-03 -1.230590e-03 1.739119e-02
      vertex   6.093750e-03 3.886300e-03 1.698084e-02
    endloop
  endfacet
  facet normal -1.000000e+00 0.000000e+00 0.000000e+00
    outer loop
      vertex   6.500000e-02 8.567163e-02 -2.857363e-01
      vertex   6.500000e-02 4.912308e-02 -2.712717e-01
      vertex   6.500000e-02 6.934786e-02 -2.733527e-01
    endloop
  endfacet
  facet normal -1.000000e+00 0.000000e+00 0.000000e+00
    outer loop
      vertex   6.500000e-02 3.035129e-02 -2.786754e-01
      vertex   6.500000e-02 4.912308e-02 -2.712717e-01
      vertex   6.500000e-02 8.567163e-02 -2.857363e-01
    endloop
  endfacet
  facet normal -1.000000e+00 -0.000000e+00 0.000000e+00
    outer loop
      vertex   6.500000e-02 8.567163e-02 -2.857363e-01
      vertex   6.500000e-02 2.074742e-02 -2.898091e-01
      vertex   6.500000e-02 3.035129e-02 -2.786754e-01
    endloop
  endfacet
  facet normal -1.000000e+00 0.000000e+00 0.000000e+00
    outer loop
      vertex   6.500000e-02 5.101331e-02 -3.496972e-01
      vertex   6.500000e-02 8.064970e-02 -3.402467e-01
      vertex   6.500000e-02 6.710594e-02 -3.480272e-01
    endloop
  endfacet
  facet normal -1.000000e+00 0.000000e+00 0.000000e+00
    outer loop
      vertex   6.500000e-02 3.188576e-02 -3.422063e-01
      vertex   6.500000e-02 8.064970e-02 -3.402467e-01
      vertex   6.500000e-02 5.101331e-02 -3.496972e-01
    endloop
  endfacet
  facet normal -1.000000e+00 0.000000e+00 0.000000e+00
    outer loop
      vertex   6.500000e-02 3.188576e-02 -3.422063e-01
      vertex   6.500000e-02 9.047762e-02 -3.275375e-01
      vertex   6.500000e-02 8.064970e-02 -3.402467e-01
    endloop
  endfacet
  facet normal -1.000000e+00 0.000000e+00 0.000000e+00
    outer loop
      vertex   6.500000e-02 1.801857e-02 -3.252826e-01
      vertex   6.500000e-02 9.047762e-02 -3.275375e-01
      vertex   6.500000e-02 3.188576e-02 -3.422063e-01
    endloop
  endfacet
  facet normal -1.000000e+00 0.000000e+00 0.000000e+00
    outer loop
      vertex   6.500000e-02 1.801857e-02 -3.252826e-01
      vertex   6.500000e-02 9.439939e-02 -3.139208e-01
      vertex   6.500000e-02 9.047762e-02 -3.275375e-01
    endloop
  endfacet
  facet normal -1.000000e+00 0.000000e+00 0.000000e+00
    outer loop
      vertex   6.500000e-02 1.801857e-02 -3.252826e-01
      vertex   6.500000e-02 9.329068e-02 -3.005925e-01
      vertex   6.500000e-02 9.439939e-02 -3.139208e-01
    endloop
  endfacet
  facet normal -1.000000e+00 0.000000e+00 0.000000e+00
    outer loop
      vertex   6.500000e-02 8.567163e-02 -2.857363e-01
      vertex   6.500000e-02 1.518467e-02 -3.067532e-01
      vertex   6.500000e-02 2.074742e-02 -2.898091e-01
    endloop
  endfacet
  facet normal -1.000000e+00 -0.000000e+00 0.000000e+00
    outer loop
      vertex   6.500000e-02 9.329068e-02 -3.005925e-01
      vertex   6.500000e-02 1.518467e-02 -3.067532e-01
      vertex   6.500000e-02 8.567163e-02 -2.857363e-01
    endloop
  endfacet
  facet normal -1.000000e+00 0.000000e+00 0.000000e+00
    outer loop
      vertex   6.500000e-02 9.329068e-02 -3.005925e-01
      vertex   6.500000e-02 1.801857e-02 -3.252826e-01
      vertex   6.500000e-02 1.518467e-02 -3.067532e-01
    endloop
  endfacet
  facet normal 1.000000e+00 0.000000e+00 0.000000e+00
    outer loop
      vertex   7.500000e-02 5.033393e-02 -2.708382e-01
      vertex   7.500000e-02 8.530897e-02 -2.851406e-01
      vertex   7.500000e-02 6.912747e-02 -2.732782e-01
    endloop
  endfacet
  facet normal 1.000000e+00 -0.000000e+00 0.000000e+00
    outer loop
      vertex   7.500000e-02 3.113862e-02 -2.785561e-01
      vertex   7.500000e-02 8.530897e-02 -2.851406e-01
      vertex   7.500000e-02 5.033393e-02 -2.708382e-01
    endloop
  endfacet
  facet normal 1.000000e+00 0.000000e+00 0.000000e+00
    outer loop
      vertex   7.500000e-02 1.878642e-02 -2.929574e-01
      vertex   7.500000e-02 8.530897e-02 -2.851406e-01
      vertex   7.500000e-02 3.113862e-02 -2.785561e-01
    endloop
  endfacet
  facet normal 1.000000e+00 0.000000e+00 0.000000e+00
    outer loop
      vertex   7.500000e-02 1.513600e-02 -3.058245e-01
      vertex   7.500000e-02 8.530897e-02 -2.851406e-01
      vertex   7.500000e-02 1.878642e-02 -2.929574e-01
    endloop
  endfacet
  facet normal 1.000000e+00 0.000000e+00 0.000000e+00
    outer loop
      vertex   7.500000e-02 1.513600e-02 -3.058245e-01
      vertex   7.500000e-02 9.349898e-02 -3.018516e-01
      vertex   7.500000e-02 8.530897e-02 -2.851406e-01
    endloop
  endfacet
  facet normal 1.000000e+00 0.000000e+00 -0.000000e+00
    outer loop
      vertex   7.500000e-02 1.817494e-02 -3.251638e-01
      vertex   7.500000e-02 9.349898e-02 -3.018516e-01
      vertex   7.500000e-02 1.513600e-02 -3.058245e-01
    endloop
  endfacet
  facet normal 1.000000e+00 0.000000e+00 0.000000e+00
    outer loop
      vertex   7.500000e-02 7.997584e-02 -3.406011e-01
      vertex   7.500000e-02 4.549693e-02 -3.485764e-01
      vertex   7.500000e-02 6.365470e-02 -3.489999e-01
    endloop
  endfacet
  facet normal 1.000000e+00 0.000000e+00 0.000000e+00
    outer loop
      vertex   7.500000e-02 7.997584e-02 -3.406011e-01
      vertex   7.500000e-02 2.749466e-02 -3.392155e-01
      vertex   7.500000e-02 4.549693e-02 -3.485764e-01
    endloop
  endfacet
  facet normal 1.000000e+00 0.000000e+00 0.000000e+00
    outer loop
      vertex   7.500000e-02 9.085751e-02 -3.268202e-01
      vertex   7.500000e-02 2.749466e-02 -3.392155e-01
      vertex   7.500000e-02 7.997584e-02 -3.406011e-01
    endloop
  endfacet
  facet normal 1.000000e+00 0.000000e+00 0.000000e+00
    outer loop
      vertex   7.500000e-02 9.085751e-02 -3.268202e-01
      vertex   7.500000e-02 1.817494e-02 -3.251638e-01
      vertex   7.500000e-02 2.749466e-02 -3.392155e-01
    endloop
  endfacet
  facet normal 1.000000e+00 0.000000e+00 0.000000e+00
    outer loop
      vertex   7.500000e-02 9.430244e-02 -3.148432e-01
      vertex   7.500000e-02 1.817494e-02 -3.251638e-01
      vertex   7.500000e-02 9.085751e-02 -3.268202e-01
    endloop
  endfacet
  facet normal 1.000000e+00 0.000000e+00 0.000000e+00
    outer loop
      vertex   7.500000e-02 9.349898e-02 -3.018516e-01
      vertex   7.500000e-02 1.817494e-02 -3.251638e-01
      vertex   7.500000e-02 9.430244e-02 -3.148432e-01
    endloop
  endfacet
  facet normal -1.031984e-02 9.965049e-01 8.289424e-02
    outer loop
      vertex   7.500000e-02 9.349898e-02 -3.018516e-01
      vertex   6.500000e-02 9.439939e-02 -3.139208e-01
      vertex   6.500000e-02 9.329068e-02 -3.005925e-01
    endloop
  endfacet
  facet normal 1.536863e-02 9.979752e-01 6.171953e-02
    outer loop
      vertex   7.500000e-02 9.430244e-02 -3.148432e-01
      vertex   6.500000e-02 9.439939e-02 -3.139208e-01
      vertex   7.500000e-02 9.349898e-02 -3.018516e-01
    endloop
  endfacet
  facet normal -1.621084e-02 9.608125e-01 -2.767247e-01
    outer loop
      vertex   7.500000e-02 9.430244e-02 -3.148432e-01
      vertex   6.500000e-02 9.047762e-02 -3.275375e-01
      vertex   6.500000e-02 9.439939e-02 -3.139208e-01
    endloop
  endfacet
  facet normal -1.667796e-02 9.609026e-01 -2.763838e-01
    outer loop
      vertex   7.500000e-02 9.085751e-02 -3.268202e-01
      vertex   6.500000e-02 9.047762e-02 -3.275375e-01
      vertex   7.500000e-02 9.430244e-02 -3.148432e-01
    endloop
  endfacet
  facet normal 1.463700e-02 7.847431e-01 -6.196482e-01
    outer loop
      vertex   7.500000e-02 7.997584e-02 -3.406011e-01
      vertex   6.500000e-02 9.047762e-02 -3.275375e-01
      vertex   7.500000e-02 9.085751e-02 -3.268202e-01
    endloop
  endfacet
  facet normal 3.160733e-02 7.906718e-01 -6.114238e-01
    outer loop
      vertex   7.500000e-02 7.997584e-02 -3.406011e-01
      vertex   6.500000e-02 8.064970e-02 -3.402467e-01
      vertex   6.500000e-02 9.047762e-02 -3.275375e-01
    endloop
  endfacet
  facet normal 2.831032e-03 4.981243e-01 -8.671010e-01
    outer loop
      vertex   7.500000e-02 7.997584e-02 -3.406011e-01
      vertex   6.500000e-02 6.710594e-02 -3.480272e-01
      vertex   6.500000e-02 8.064970e-02 -3.402467e-01
    endloop
  endfacet
  facet normal 7.123838e-02 4.564047e-01 -8.869159e-01
    outer loop
      vertex   7.500000e-02 6.365470e-02 -3.489999e-01
      vertex   6.500000e-02 6.710594e-02 -3.480272e-01
      vertex   7.500000e-02 7.997584e-02 -3.406011e-01
    endloop
  endfacet
  facet normal -6.102059e-02 1.030297e-01 -9.928048e-01
    outer loop
      vertex   7.500000e-02 6.365470e-02 -3.489999e-01
      vertex   6.500000e-02 5.101331e-02 -3.496972e-01
      vertex   6.500000e-02 6.710594e-02 -3.480272e-01
    endloop
  endfacet
  facet normal 9.870090e-02 -2.320567e-02 -9.948465e-01
    outer loop
      vertex   7.500000e-02 4.549693e-02 -3.485764e-01
      vertex   6.500000e-02 5.101331e-02 -3.496972e-01
      vertex   7.500000e-02 6.365470e-02 -3.489999e-01
    endloop
  endfacet
  facet normal -9.634737e-02 -3.629625e-01 -9.268092e-01
    outer loop
      vertex   7.500000e-02 4.549693e-02 -3.485764e-01
      vertex   6.500000e-02 3.188576e-02 -3.422063e-01
      vertex   6.500000e-02 5.101331e-02 -3.496972e-01
    endloop
  endfacet
  facet normal 6.265116e-02 -4.604350e-01 -8.854798e-01
    outer loop
      vertex   7.500000e-02 2.749466e-02 -3.392155e-01
      vertex   6.500000e-02 3.188576e-02 -3.422063e-01
      vertex   7.500000e-02 4.549693e-02 -3.485764e-01
    endloop
  endfacet
  facet normal -1.967074e-01 -8.170820e-01 -5.419255e-01
    outer loop
      vertex   7.500000e-02 1.817494e-02 -3.251638e-01
      vertex   6.500000e-02 3.188576e-02 -3.422063e-01
      vertex   7.500000e-02 2.749466e-02 -3.392155e-01
    endloop
  endfacet
  facet normal 1.961809e-02 -7.733501e-01 -6.336756e-01
    outer loop
      vertex   7.500000e-02 1.817494e-02 -3.251638e-01
      vertex   6.500000e-02 1.801857e-02 -3.252826e-01
      vertex   6.500000e-02 3.188576e-02 -3.422063e-01
    endloop
  endfacet
  facet normal 1.725030e-02 -9.883587e-01 -1.511606e-01
    outer loop
      vertex   7.500000e-02 1.817494e-02 -3.251638e-01
      vertex   6.500000e-02 1.518467e-02 -3.067532e-01
      vertex   6.500000e-02 1.801857e-02 -3.252826e-01
    endloop
  endfacet
  facet normal 9.608777e-03 -9.878323e-01 -1.552257e-01
    outer loop
      vertex   7.500000e-02 1.513600e-02 -3.058245e-01
      vertex   6.500000e-02 1.518467e-02 -3.067532e-01
      vertex   7.500000e-02 1.817494e-02 -3.251638e-01
    endloop
  endfacet
  facet normal -3.001700e-02 -9.616001e-01 2.728082e-01
    outer loop
      vertex   7.500000e-02 1.878642e-02 -2.929574e-01
      vertex   6.500000e-02 1.518467e-02 -3.067532e-01
      vertex   7.500000e-02 1.513600e-02 -3.058245e-01
    endloop
  endfacet
  facet normal -8.777284e-02 -9.464416e-01 3.107155e-01
    outer loop
      vertex   7.500000e-02 1.878642e-02 -2.929574e-01
      vertex   6.500000e-02 2.074742e-02 -2.898091e-01
      vertex   6.500000e-02 1.518467e-02 -3.067532e-01
    endloop
  endfacet
  facet normal 5.603483e-02 -7.578500e-01 6.500180e-01
    outer loop
      vertex   7.500000e-02 3.113862e-02 -2.785561e-01
      vertex   6.500000e-02 2.074742e-02 -2.898091e-01
      vertex   7.500000e-02 1.878642e-02 -2.929574e-01
    endloop
  endfacet
  facet normal 5.175673e-02 -7.561973e-01 6.522936e-01
    outer loop
      vertex   7.500000e-02 3.113862e-02 -2.785561e-01
      vertex   6.500000e-02 3.035129e-02 -2.786754e-01
      vertex   6.500000e-02 2.074742e-02 -2.898091e-01
    endloop
  endfacet
  facet normal 1.778777e-02 -3.668434e-01 9.301126e-01
    outer loop
      vertex   7.500000e-02 3.113862e-02 -2.785561e-01
      vertex   6.500000e-02 4.912308e-02 -2.712717e-01
      vertex   6.500000e-02 3.035129e-02 -2.786754e-01
    endloop
  endfacet
  facet normal 4.954700e-03 -3.730427e-01 9.278009e-01
    outer loop
      vertex   7.500000e-02 5.033393e-02 -2.708382e-01
      vertex   6.500000e-02 4.912308e-02 -2.712717e-01
      vertex   7.500000e-02 3.113862e-02 -2.785561e-01
    endloop
  endfacet
  facet normal -5.847317e-02 1.285297e-01 9.899803e-01
    outer loop
      vertex   7.500000e-02 6.912747e-02 -2.732782e-01
      vertex   6.500000e-02 4.912308e-02 -2.712717e-01
      vertex   7.500000e-02 5.033393e-02 -2.708382e-01
    endloop
  endfacet
  facet normal -5.151365e-03 1.023515e-01 9.947350e-01
    outer loop
      vertex   7.500000e-02 6.912747e-02 -2.732782e-01
      vertex   6.500000e-02 6.934786e-02 -2.733527e-01
      vertex   6.500000e-02 4.912308e-02 -2.712717e-01
    endloop
  endfacet
  facet normal 7.024528e-03 5.912182e-01 8.064811e-01
    outer loop
      vertex   7.500000e-02 8.530897e-02 -2.851406e-01
      vertex   6.500000e-02 6.934786e-02 -2.733527e-01
      vertex   7.500000e-02 6.912747e-02 -2.732782e-01
    endloop
  endfacet
  facet normal -2.553083e-02 6.041916e-01 7.964299e-01
    outer loop
      vertex   7.500000e-02 8.530897e-02 -2.851406e-01
      vertex   6.500000e-02 8.567163e-02 -2.857363e-01
      vertex   6.500000e-02 6.934786e-02 -2.733527e-01
    endloop
  endfacet
  facet normal 6.349456e-03 8.979382e-01 4.400757e-01
    outer loop
      vertex   7.500000e-02 9.349898e-02 -3.018516e-01
      vertex   6.500000e-02 8.567163e-02 -2.857363e-01
      vertex   7.500000e-02 8.530897e-02 -2.851406e-01
    endloop
  endfacet
  facet normal 3.889510e-02 8.891325e-01 4.559941e-01
    outer loop
      vertex   7.500000e-02 9.349898e-02 -3.018516e-01
      vertex   6.500000e-02 9.329068e-02 -3.005925e-01
      vertex   6.500000e-02 8.567163e-02 -2.857363e-01
    endloop
  endfacet
endsolid
