solid ASCII
  facet normal -1.000000e+00 0.000000e+00 0.000000e+00
    outer loop
      vertex   5.000000e-03 5.702602e-02 -1.815619e-02
      vertex   5.000000e-03 5.655745e-02 1.946431e-02
      vertex   5.000000e-03 5.964549e-02 -7.586542e-04
    endloop
  endfacet
  facet normal -1.000000e+00 0.000000e+00 0.000000e+00
    outer loop
      vertex   5.000000e-03 4.732192e-02 -3.631522e-02
      vertex   5.000000e-03 5.655745e-02 1.946431e-02
      vertex   5.000000e-03 5.702602e-02 -1.815619e-02
    endloop
  endfacet
  facet normal -1.000000e+00 0.000000e+00 0.000000e+00
    outer loop
      vertex   5.000000e-03 4.732192e-02 -3.631522e-02
      vertex   5.000000e-03 4.694001e-02 3.697583e-02
      vertex   5.000000e-03 5.655745e-02 1.946431e-02
    endloop
  endfacet
  facet normal -1.000000e+00 0.000000e+00 0.000000e+00
    outer loop
      vertex   5.000000e-03 4.732192e-02 -3.631522e-02
      vertex   5.000000e-03 3.626342e-02 4.767508e-02
      vertex   5.000000e-03 4.694001e-02 3.697583e-02
    endloop
  endfacet
  facet normal -1.000000e+00 0.000000e+00 0.000000e+00
    outer loop
      vertex   5.000000e-03 3.301922e-02 -4.987320e-02
      vertex   5.000000e-03 3.626342e-02 4.767508e-02
      vertex   5.000000e-03 4.732192e-02 -3.631522e-02
    endloop
  endfacet
  facet normal -1.000000e+00 0.000000e+00 0.000000e+00
    outer loop
      vertex   5.000000e-03 3.301922e-02 -4.987320e-02
      vertex   5.000000e-03 2.276842e-02 5.529971e-02
      vertex   5.000000e-03 3.626342e-02 4.767508e-02
    endloop
  endfacet
  facet normal -1.000000e+00 0.000000e+00 0.000000e+00
    outer loop
      vertex   5.000000e-03 1.614281e-02 -5.731803e-02
      vertex   5.000000e-03 2.276842e-02 5.529971e-02
      vertex   5.000000e-03 3.301922e-02 -4.987320e-02
    endloop
  endfacet
  facet normal -1.000000e+00 0.000000e+00 0.000000e+00
    outer loop
      vertex   5.000000e-03 1.614281e-02 -5.731803e-02
      vertex   5.000000e-03 5.667369e-03 5.948607e-02
      vertex   5.000000e-03 2.276842e-02 5.529971e-02
    endloop
  endfacet
  facet normal -1.000000e+00 0.000000e+00 0.000000e+00
    outer loop
      vertex   5.000000e-03 -5.667369e-03 -5.948607e-02
      vertex   5.000000e-03 5.667369e-03 5.948607e-02
      vertex   5.000000e-03 1.614281e-02 -5.731803e-02
    endloop
  endfacet
  facet normal -1.000000e+00 0.000000e+00 -0.000000e+00
    outer loop
      vertex   5.000000e-03 -5.702602e-02 1.815619e-02
      vertex   5.000000e-03 -5.655745e-02 -1.946431e-02
      vertex   5.000000e-03 -5.964549e-02 7.586542e-04
    endloop
  endfacet
  facet normal -1.000000e+00 0.000000e+00 0.000000e+00
    outer loop
      vertex   5.000000e-03 -4.732192e-02 3.631522e-02
      vertex   5.000000e-03 -5.655745e-02 -1.946431e-02
      vertex   5.000000e-03 -5.702602e-02 1.815619e-02
    endloop
  endfacet
  facet normal -1.000000e+00 0.000000e+00 -0.000000e+00
    outer loop
      vertex   5.000000e-03 -4.732192e-02 3.631522e-02
      vertex   5.000000e-03 -4.694001e-02 -3.697583e-02
      vertex   5.000000e-03 -5.655745e-02 -1.946431e-02
    endloop
  endfacet
  facet normal -1.000000e+00 0.000000e+00 0.000000e+00
    outer loop
      vertex   5.000000e-03 -4.732192e-02 3.631522e-02
      vertex   5.000000e-03 -2.951592e-02 -5.148739e-02
      vertex   5.000000e-03 -4.694001e-02 -3.697583e-02
    endloop
  endfacet
  facet normal -1.000000e+00 0.000000e+00 -0.000000e+00
    outer loop
      vertex   5.000000e-03 -3.301922e-02 4.987320e-02
      vertex   5.000000e-03 -2.951592e-02 -5.148739e-02
      vertex   5.000000e-03 -4.732192e-02 3.631522e-02
    endloop
  endfacet
  facet normal -1.000000e+00 0.000000e+00 0.000000e+00
    outer loop
      vertex   5.000000e-03 -1.614281e-02 5.731803e-02
      vertex   5.000000e-03 -2.951592e-02 -5.148739e-02
      vertex   5.000000e-03 -3.301922e-02 4.987320e-02
    endloop
  endfacet
  facet normal -1.000000e+00 0.000000e+00 -0.000000e+00
    outer loop
      vertex   5.000000e-03 -1.614281e-02 5.731803e-02
      vertex   5.000000e-03 -5.667369e-03 -5.948607e-02
      vertex   5.000000e-03 -2.951592e-02 -5.148739e-02
    endloop
  endfacet
  facet normal -1.000000e+00 0.000000e+00 0.000000e+00
    outer loop
      vertex   5.000000e-03 5.667369e-03 5.948607e-02
      vertex   5.000000e-03 -5.667369e-03 -5.948607e-02
      vertex   5.000000e-03 -1.614281e-02 5.731803e-02
    endloop
  endfacet
  facet normal 1.000000e+00 0.000000e+00 -0.000000e+00
    outer loop
      vertex   5.500000e-02 -5.645872e-02 -1.849768e-02
      vertex   5.500000e-02 -5.518758e-02 2.286201e-02
      vertex   5.500000e-02 -5.972665e-02 2.395637e-03
    endloop
  endfacet
  facet normal 1.000000e+00 0.000000e+00 0.000000e+00
    outer loop
      vertex   5.500000e-02 -5.645872e-02 -1.849768e-02
      vertex   5.500000e-02 -4.216748e-02 4.181034e-02
      vertex   5.500000e-02 -5.518758e-02 2.286201e-02
    endloop
  endfacet
  facet normal 1.000000e+00 0.000000e+00 -0.000000e+00
    outer loop
      vertex   5.500000e-02 -4.271022e-02 -4.145889e-02
      vertex   5.500000e-02 -4.216748e-02 4.181034e-02
      vertex   5.500000e-02 -5.645872e-02 -1.849768e-02
    endloop
  endfacet
  facet normal 1.000000e+00 0.000000e+00 0.000000e+00
    outer loop
      vertex   5.500000e-02 -4.271022e-02 -4.145889e-02
      vertex   5.500000e-02 -2.276842e-02 5.529971e-02
      vertex   5.500000e-02 -4.216748e-02 4.181034e-02
    endloop
  endfacet
  facet normal 1.000000e+00 0.000000e+00 0.000000e+00
    outer loop
      vertex   5.500000e-02 -1.803874e-02 -5.666962e-02
      vertex   5.500000e-02 -2.276842e-02 5.529971e-02
      vertex   5.500000e-02 -4.271022e-02 -4.145889e-02
    endloop
  endfacet
  facet normal 1.000000e+00 0.000000e+00 -0.000000e+00
    outer loop
      vertex   5.500000e-02 -1.803874e-02 -5.666962e-02
      vertex   5.500000e-02 -4.781232e-03 5.947966e-02
      vertex   5.500000e-02 -2.276842e-02 5.529971e-02
    endloop
  endfacet
  facet normal 1.000000e+00 0.000000e+00 0.000000e+00
    outer loop
      vertex   5.500000e-02 4.781232e-03 -5.947966e-02
      vertex   5.500000e-02 -4.781232e-03 5.947966e-02
      vertex   5.500000e-02 -1.803874e-02 -5.666962e-02
    endloop
  endfacet
  facet normal 1.000000e+00 0.000000e+00 0.000000e+00
    outer loop
      vertex   5.500000e-02 5.645872e-02 1.849768e-02
      vertex   5.500000e-02 5.518758e-02 -2.286201e-02
      vertex   5.500000e-02 5.972665e-02 -2.395637e-03
    endloop
  endfacet
  facet normal 1.000000e+00 0.000000e+00 0.000000e+00
    outer loop
      vertex   5.500000e-02 5.645872e-02 1.849768e-02
      vertex   5.500000e-02 4.216748e-02 -4.181034e-02
      vertex   5.500000e-02 5.518758e-02 -2.286201e-02
    endloop
  endfacet
  facet normal 1.000000e+00 0.000000e+00 0.000000e+00
    outer loop
      vertex   5.500000e-02 4.271022e-02 4.145889e-02
      vertex   5.500000e-02 4.216748e-02 -4.181034e-02
      vertex   5.500000e-02 5.645872e-02 1.849768e-02
    endloop
  endfacet
  facet normal 1.000000e+00 0.000000e+00 0.000000e+00
    outer loop
      vertex   5.500000e-02 4.271022e-02 4.145889e-02
      vertex   5.500000e-02 2.276842e-02 -5.529971e-02
      vertex   5.500000e-02 4.216748e-02 -4.181034e-02
    endloop
  endfacet
  facet normal 1.000000e+00 0.000000e+00 0.000000e+00
    outer loop
      vertex   5.500000e-02 1.803874e-02 5.666962e-02
      vertex   5.500000e-02 2.276842e-02 -5.529971e-02
      vertex   5.500000e-02 4.271022e-02 4.145889e-02
    endloop
  endfacet
  facet normal 1.000000e+00 0.000000e+00 0.000000e+00
    outer loop
      vertex   5.500000e-02 1.803874e-02 5.666962e-02
      vertex   5.500000e-02 4.781232e-03 -5.947966e-02
      vertex   5.500000e-02 2.276842e-02 -5.529971e-02
    endloop
  endfacet
  facet normal 1.000000e+00 0.000000e+00 0.000000e+00
    outer loop
      vertex   5.500000e-02 -4.781232e-03 5.947966e-02
      vertex   5.500000e-02 4.781232e-03 -5.947966e-02
      vertex   5.500000e-02 1.803874e-02 5.666962e-02
    endloop
  endfacet
  facet normal 3.453314e-02 1.221437e-01 9.919115e-01
    outer loop
      vertex   5.500000e-02 1.803874e-02 5.666962e-02
      vertex   3.000000e-02 1.266532e-04 5.974567e-02
      vertex   5.500000e-02 -4.781232e-03 5.947966e-02
    endloop
  endfacet
  facet normal 3.143287e-02 1.263969e-01 9.914816e-01
    outer loop
      vertex   5.500000e-02 1.803874e-02 5.666962e-02
      vertex   3.000000e-02 1.599146e-02 5.772318e-02
      vertex   3.000000e-02 1.266532e-04 5.974567e-02
    endloop
  endfacet
  facet normal 5.648059e-03 4.021830e-01 9.155419e-01
    outer loop
      vertex   5.500000e-02 1.803874e-02 5.666962e-02
      vertex   3.000000e-02 3.051663e-02 5.134251e-02
      vertex   3.000000e-02 1.599146e-02 5.772318e-02
    endloop
  endfacet
  facet normal 8.029587e-02 5.231103e-01 8.484740e-01
    outer loop
      vertex   5.500000e-02 4.271022e-02 4.145889e-02
      vertex   3.000000e-02 3.051663e-02 5.134251e-02
      vertex   5.500000e-02 1.803874e-02 5.666962e-02
    endloop
  endfacet
  facet normal 1.997392e-02 6.045248e-01 7.963358e-01
    outer loop
      vertex   5.500000e-02 4.271022e-02 4.145889e-02
      vertex   3.000000e-02 4.235526e-02 4.235541e-02
      vertex   3.000000e-02 3.051663e-02 5.134251e-02
    endloop
  endfacet
  facet normal 1.082129e-02 7.890884e-01 6.141843e-01
    outer loop
      vertex   5.500000e-02 4.271022e-02 4.145889e-02
      vertex   3.000000e-02 5.118574e-02 3.101023e-02
      vertex   3.000000e-02 4.235526e-02 4.235541e-02
    endloop
  endfacet
  facet normal 7.593819e-02 8.554805e-01 5.122368e-01
    outer loop
      vertex   5.500000e-02 5.645872e-02 1.849768e-02
      vertex   3.000000e-02 5.118574e-02 3.101023e-02
      vertex   5.500000e-02 4.271022e-02 4.145889e-02
    endloop
  endfacet
  facet normal 3.836107e-03 9.187432e-01 3.948371e-01
    outer loop
      vertex   5.500000e-02 5.645872e-02 1.849768e-02
      vertex   3.000000e-02 5.759933e-02 1.608649e-02
      vertex   3.000000e-02 5.118574e-02 3.101023e-02
    endloop
  endfacet
  facet normal 2.885162e-02 9.855246e-01 1.670594e-01
    outer loop
      vertex   5.500000e-02 5.645872e-02 1.849768e-02
      vertex   3.000000e-02 5.985465e-02 2.781852e-03
      vertex   3.000000e-02 5.759933e-02 1.608649e-02
    endloop
  endfacet
  facet normal 3.703620e-02 9.873100e-01 1.544255e-01
    outer loop
      vertex   5.500000e-02 5.972665e-02 -2.395637e-03
      vertex   3.000000e-02 5.985465e-02 2.781852e-03
      vertex   5.500000e-02 5.645872e-02 1.849768e-02
    endloop
  endfacet
  facet normal -9.612858e-03 9.974247e-01 -7.107391e-02
    outer loop
      vertex   5.500000e-02 5.972665e-02 -2.395637e-03
      vertex   3.000000e-02 5.893125e-02 -1.017673e-02
      vertex   3.000000e-02 5.985465e-02 2.781852e-03
    endloop
  endfacet
  facet normal 3.630542e-02 9.756344e-01 -2.163780e-01
    outer loop
      vertex   5.500000e-02 5.518758e-02 -2.286201e-02
      vertex   3.000000e-02 5.893125e-02 -1.017673e-02
      vertex   5.500000e-02 5.972665e-02 -2.395637e-03
    endloop
  endfacet
  facet normal -2.652630e-02 9.433687e-01 -3.306839e-01
    outer loop
      vertex   5.500000e-02 5.518758e-02 -2.286201e-02
      vertex   3.000000e-02 5.244573e-02 -2.867851e-02
      vertex   3.000000e-02 5.893125e-02 -1.017673e-02
    endloop
  endfacet
  facet normal 4.133460e-02 8.234771e-01 -5.658417e-01
    outer loop
      vertex   5.500000e-02 4.216748e-02 -4.181034e-02
      vertex   3.000000e-02 5.244573e-02 -2.867851e-02
      vertex   5.500000e-02 5.518758e-02 -2.286201e-02
    endloop
  endfacet
  facet normal -2.379205e-02 7.647628e-01 -6.438725e-01
    outer loop
      vertex   5.500000e-02 4.216748e-02 -4.181034e-02
      vertex   3.000000e-02 3.792568e-02 -4.592477e-02
      vertex   3.000000e-02 5.244573e-02 -2.867851e-02
    endloop
  endfacet
  facet normal 3.822638e-02 5.704866e-01 -8.204169e-01
    outer loop
      vertex   5.500000e-02 2.276842e-02 -5.529971e-02
      vertex   3.000000e-02 3.792568e-02 -4.592477e-02
      vertex   5.500000e-02 4.216748e-02 -4.181034e-02
    endloop
  endfacet
  facet normal -2.563448e-02 4.949299e-01 -8.685547e-01
    outer loop
      vertex   5.500000e-02 2.276842e-02 -5.529971e-02
      vertex   3.000000e-02 1.932076e-02 -5.652644e-02
      vertex   3.000000e-02 3.792568e-02 -4.592477e-02
    endloop
  endfacet
  facet normal 1.657795e-02 2.263225e-01 -9.739113e-01
    outer loop
      vertex   5.500000e-02 4.781232e-03 -5.947966e-02
      vertex   3.000000e-02 1.932076e-02 -5.652644e-02
      vertex   5.500000e-02 2.276842e-02 -5.529971e-02
    endloop
  endfacet
  facet normal -2.155814e-02 1.632749e-01 -9.863451e-01
    outer loop
      vertex   5.500000e-02 4.781232e-03 -5.947966e-02
      vertex   3.000000e-02 -1.266532e-04 -5.974567e-02
      vertex   3.000000e-02 1.932076e-02 -5.652644e-02
    endloop
  endfacet
  facet normal 3.453314e-02 -1.221437e-01 -9.919115e-01
    outer loop
      vertex   5.500000e-02 -1.803874e-02 -5.666962e-02
      vertex   3.000000e-02 -1.266532e-04 -5.974567e-02
      vertex   5.500000e-02 4.781232e-03 -5.947966e-02
    endloop
  endfacet
  facet normal 3.143287e-02 -1.263969e-01 -9.914816e-01
    outer loop
      vertex   5.500000e-02 -1.803874e-02 -5.666962e-02
      vertex   3.000000e-02 -1.599146e-02 -5.772318e-02
      vertex   3.000000e-02 -1.266532e-04 -5.974567e-02
    endloop
  endfacet
  facet normal 5.648059e-03 -4.021830e-01 -9.155419e-01
    outer loop
      vertex   5.500000e-02 -1.803874e-02 -5.666962e-02
      vertex   3.000000e-02 -3.051663e-02 -5.134251e-02
      vertex   3.000000e-02 -1.599146e-02 -5.772318e-02
    endloop
  endfacet
  facet normal 8.029587e-02 -5.231103e-01 -8.484740e-01
    outer loop
      vertex   5.500000e-02 -4.271022e-02 -4.145889e-02
      vertex   3.000000e-02 -3.051663e-02 -5.134251e-02
      vertex   5.500000e-02 -1.803874e-02 -5.666962e-02
    endloop
  endfacet
  facet normal 1.997392e-02 -6.045248e-01 -7.963358e-01
    outer loop
      vertex   5.500000e-02 -4.271022e-02 -4.145889e-02
      vertex   3.000000e-02 -4.235526e-02 -4.235541e-02
      vertex   3.000000e-02 -3.051663e-02 -5.134251e-02
    endloop
  endfacet
  facet normal 1.082129e-02 -7.890884e-01 -6.141843e-01
    outer loop
      vertex   5.500000e-02 -4.271022e-02 -4.145889e-02
      vertex   3.000000e-02 -5.118574e-02 -3.101023e-02
      vertex   3.000000e-02 -4.235526e-02 -4.235541e-02
    endloop
  endfacet
  facet normal 7.593819e-02 -8.554805e-01 -5.122368e-01
    outer loop
      vertex   5.500000e-02 -5.645872e-02 -1.849768e-02
      vertex   3.000000e-02 -5.118574e-02 -3.101023e-02
      vertex   5.500000e-02 -4.271022e-02 -4.145889e-02
    endloop
  endfacet
  facet normal 3.836107e-03 -9.187432e-01 -3.948371e-01
    outer loop
      vertex   5.500000e-02 -5.645872e-02 -1.849768e-02
      vertex   3.000000e-02 -5.759933e-02 -1.608649e-02
      vertex   3.000000e-02 -5.118574e-02 -3.101023e-02
    endloop
  endfacet
  facet normal 2.885162e-02 -9.855246e-01 -1.670594e-01
    outer loop
      vertex   5.500000e-02 -5.645872e-02 -1.849768e-02
      vertex   3.000000e-02 -5.985465e-02 -2.781852e-03
      vertex   3.000000e-02 -5.759933e-02 -1.608649e-02
    endloop
  endfacet
  facet normal 3.703620e-02 -9.873100e-01 -1.544255e-01
    outer loop
      vertex   5.500000e-02 -5.972665e-02 2.395637e-03
      vertex   3.000000e-02 -5.985465e-02 -2.781852e-03
      vertex   5.500000e-02 -5.645872e-02 -1.849768e-02
    endloop
  endfacet
  facet normal -9.612858e-03 -9.974247e-01 7.107391e-02
    outer loop
      vertex   5.500000e-02 -5.972665e-02 2.395637e-03
      vertex   3.000000e-02 -5.893125e-02 1.017673e-02
      vertex   3.000000e-02 -5.985465e-02 -2.781852e-03
    endloop
  endfacet
  facet normal 3.630542e-02 -9.756344e-01 2.163780e-01
    outer loop
      vertex   5.500000e-02 -5.518758e-02 2.286201e-02
      vertex   3.000000e-02 -5.893125e-02 1.017673e-02
      vertex   5.500000e-02 -5.972665e-02 2.395637e-03
    endloop
  endfacet
  facet normal -2.652630e-02 -9.433687e-01 3.306839e-01
    outer loop
      vertex   5.500000e-02 -5.518758e-02 2.286201e-02
      vertex   3.000000e-02 -5.244573e-02 2.867851e-02
      vertex   3.000000e-02 -5.893125e-02 1.017673e-02
    endloop
  endfacet
  facet normal 4.133460e-02 -8.234771e-01 5.658417e-01
    outer loop
      vertex   5.500000e-02 -4.216748e-02 4.181034e-02
      vertex   3.000000e-02 -5.244573e-02 2.867851e-02
      vertex   5.500000e-02 -5.518758e-02 2.286201e-02
    endloop
  endfacet
  facet normal -2.379205e-02 -7.647628e-01 6.438725e-01
    outer loop
      vertex   5.500000e-02 -4.216748e-02 4.181034e-02
      vertex   3.000000e-02 -3.792568e-02 4.592477e-02
      vertex   3.000000e-02 -5.244573e-02 2.867851e-02
    endloop
  endfacet
  facet normal 3.822638e-02 -5.704866e-01 8.204169e-01
    outer loop
      vertex   5.500000e-02 -2.276842e-02 5.529971e-02
      vertex   3.000000e-02 -3.792568e-02 4.592477e-02
      vertex   5.500000e-02 -4.216748e-02 4.181034e-02
    endloop
  endfacet
  facet normal -2.563448e-02 -4.949299e-01 8.685547e-01
    outer loop
      vertex   5.500000e-02 -2.276842e-02 5.529971e-02
      vertex   3.000000e-02 -1.932076e-02 5.652644e-02
      vertex   3.000000e-02 -3.792568e-02 4.592477e-02
    endloop
  endfacet
  facet normal 1.657795e-02 -2.263225e-01 9.739113e-01
    outer loop
      vertex   5.500000e-02 -4.781232e-03 5.947966e-02
      vertex   3.000000e-02 -1.932076e-02 5.652644e-02
      vertex   5.500000e-02 -2.276842e-02 5.529971e-02
    endloop
  endfacet
  facet normal -2.155814e-02 -1.632749e-01 9.863451e-01
    outer loop
      vertex   5.500000e-02 -4.781232e-03 5.947966e-02
      vertex   3.000000e-02 1.266532e-04 5.974567e-02
      vertex   3.000000e-02 -1.932076e-02 5.652644e-02
    endloop
  endfacet
  facet normal -3.223928e-02 -9.886624e-02 9.945784e-01
    outer loop
      vertex   5.000000e-03 -1.614281e-02 5.731803e-02
      vertex   3.000000e-02 1.266532e-04 5.974567e-02
      vertex   5.000000e-03 5.667369e-03 5.948607e-02
    endloop
  endfacet
  facet normal 1.047785e-02 -1.633039e-01 9.865202e-01
    outer loop
      vertex   5.000000e-03 -1.614281e-02 5.731803e-02
      vertex   3.000000e-02 -1.932076e-02 5.652644e-02
      vertex   3.000000e-02 1.266532e-04 5.974567e-02
    endloop
  endfacet
  facet normal -2.233070e-02 -4.035104e-01 9.147025e-01
    outer loop
      vertex   5.000000e-03 -3.301922e-02 4.987320e-02
      vertex   3.000000e-02 -1.932076e-02 5.652644e-02
      vertex   5.000000e-03 -1.614281e-02 5.731803e-02
    endloop
  endfacet
  facet normal 4.002397e-02 -4.946959e-01 8.681440e-01
    outer loop
      vertex   5.000000e-03 -3.301922e-02 4.987320e-02
      vertex   3.000000e-02 -3.792568e-02 4.592477e-02
      vertex   3.000000e-02 -1.932076e-02 5.652644e-02
    endloop
  endfacet
  facet normal -2.039103e-02 -6.878169e-01 7.255978e-01
    outer loop
      vertex   5.000000e-03 -4.732192e-02 3.631522e-02
      vertex   3.000000e-02 -3.792568e-02 4.592477e-02
      vertex   5.000000e-03 -3.301922e-02 4.987320e-02
    endloop
  endfacet
  facet normal 3.992223e-02 -7.643695e-01 6.435414e-01
    outer loop
      vertex   5.000000e-03 -4.732192e-02 3.631522e-02
      vertex   3.000000e-02 -5.244573e-02 2.867851e-02
      vertex   3.000000e-02 -3.792568e-02 4.592477e-02
    endloop
  endfacet
  facet normal -3.676308e-02 -8.813675e-01 4.709987e-01
    outer loop
      vertex   5.000000e-03 -5.702602e-02 1.815619e-02
      vertex   3.000000e-02 -5.244573e-02 2.867851e-02
      vertex   5.000000e-03 -4.732192e-02 3.631522e-02
    endloop
  endfacet
  facet normal 3.364663e-02 -9.431665e-01 3.306130e-01
    outer loop
      vertex   5.000000e-03 -5.702602e-02 1.815619e-02
      vertex   3.000000e-02 -5.893125e-02 1.017673e-02
      vertex   3.000000e-02 -5.244573e-02 2.867851e-02
    endloop
  endfacet
  facet normal -2.782739e-02 -9.884713e-01 1.488293e-01
    outer loop
      vertex   5.000000e-03 -5.964549e-02 7.586542e-04
      vertex   3.000000e-02 -5.893125e-02 1.017673e-02
      vertex   5.000000e-03 -5.702602e-02 1.815619e-02
    endloop
  endfacet
  facet normal 1.720735e-03 -9.974693e-01 7.107709e-02
    outer loop
      vertex   5.000000e-03 -5.964549e-02 7.586542e-04
      vertex   3.000000e-02 -5.985465e-02 -2.781852e-03
      vertex   3.000000e-02 -5.893125e-02 1.017673e-02
    endloop
  endfacet
  facet normal -3.190132e-02 -9.854332e-01 -1.670439e-01
    outer loop
      vertex   5.000000e-03 -5.964549e-02 7.586542e-04
      vertex   3.000000e-02 -5.759933e-02 -1.608649e-02
      vertex   3.000000e-02 -5.985465e-02 -2.781852e-03
    endloop
  endfacet
  facet normal -2.079812e-02 -9.883276e-01 -1.509171e-01
    outer loop
      vertex   5.000000e-03 -5.655745e-02 -1.946431e-02
      vertex   3.000000e-02 -5.759933e-02 -1.608649e-02
      vertex   5.000000e-03 -5.964549e-02 7.586542e-04
    endloop
  endfacet
  facet normal 1.505691e-02 -9.186458e-01 -3.947952e-01
    outer loop
      vertex   5.000000e-03 -5.655745e-02 -1.946431e-02
      vertex   3.000000e-02 -5.118574e-02 -3.101023e-02
      vertex   3.000000e-02 -5.759933e-02 -1.608649e-02
    endloop
  endfacet
  facet normal -3.396732e-02 -8.760038e-01 -4.811066e-01
    outer loop
      vertex   5.000000e-03 -4.694001e-02 -3.697583e-02
      vertex   3.000000e-02 -5.118574e-02 -3.101023e-02
      vertex   5.000000e-03 -5.655745e-02 -1.946431e-02
    endloop
  endfacet
  facet normal 1.254874e-02 -7.890725e-01 -6.141719e-01
    outer loop
      vertex   5.000000e-03 -4.694001e-02 -3.697583e-02
      vertex   3.000000e-02 -4.235526e-02 -4.235541e-02
      vertex   3.000000e-02 -5.118574e-02 -3.101023e-02
    endloop
  endfacet
  facet normal -4.793002e-02 -6.392270e-01 -7.675230e-01
    outer loop
      vertex   5.000000e-03 -2.951592e-02 -5.148739e-02
      vertex   3.000000e-02 -4.235526e-02 -4.235541e-02
      vertex   5.000000e-03 -4.694001e-02 -3.697583e-02
    endloop
  endfacet
  facet normal -1.958331e-02 -6.045295e-01 -7.963420e-01
    outer loop
      vertex   5.000000e-03 -2.951592e-02 -5.148739e-02
      vertex   3.000000e-02 -3.051663e-02 -5.134251e-02
      vertex   3.000000e-02 -4.235526e-02 -4.235541e-02
    endloop
  endfacet
  facet normal -1.079245e-02 -4.021660e-01 -9.155032e-01
    outer loop
      vertex   5.000000e-03 -2.951592e-02 -5.148739e-02
      vertex   3.000000e-02 -1.599146e-02 -5.772318e-02
      vertex   3.000000e-02 -3.051663e-02 -5.134251e-02
    endloop
  endfacet
  facet normal -6.432776e-02 -3.173279e-01 -9.461316e-01
    outer loop
      vertex   5.000000e-03 -5.667369e-03 -5.948607e-02
      vertex   3.000000e-02 -1.599146e-02 -5.772318e-02
      vertex   5.000000e-03 -2.951592e-02 -5.148739e-02
    endloop
  endfacet
  facet normal 1.772362e-02 -1.264395e-01 -9.918160e-01
    outer loop
      vertex   5.000000e-03 -5.667369e-03 -5.948607e-02
      vertex   3.000000e-02 -1.266532e-04 -5.974567e-02
      vertex   3.000000e-02 -1.599146e-02 -5.772318e-02
    endloop
  endfacet
  facet normal -3.223928e-02 9.886624e-02 -9.945784e-01
    outer loop
      vertex   5.000000e-03 1.614281e-02 -5.731803e-02
      vertex   3.000000e-02 -1.266532e-04 -5.974567e-02
      vertex   5.000000e-03 -5.667369e-03 -5.948607e-02
    endloop
  endfacet
  facet normal 1.047785e-02 1.633039e-01 -9.865202e-01
    outer loop
      vertex   5.000000e-03 1.614281e-02 -5.731803e-02
      vertex   3.000000e-02 1.932076e-02 -5.652644e-02
      vertex   3.000000e-02 -1.266532e-04 -5.974567e-02
    endloop
  endfacet
  facet normal -2.233070e-02 4.035104e-01 -9.147025e-01
    outer loop
      vertex   5.000000e-03 3.301922e-02 -4.987320e-02
      vertex   3.000000e-02 1.932076e-02 -5.652644e-02
      vertex   5.000000e-03 1.614281e-02 -5.731803e-02
    endloop
  endfacet
  facet normal 4.002397e-02 4.946959e-01 -8.681440e-01
    outer loop
      vertex   5.000000e-03 3.301922e-02 -4.987320e-02
      vertex   3.000000e-02 3.792568e-02 -4.592477e-02
      vertex   3.000000e-02 1.932076e-02 -5.652644e-02
    endloop
  endfacet
  facet normal -2.039103e-02 6.878169e-01 -7.255978e-01
    outer loop
      vertex   5.000000e-03 4.732192e-02 -3.631522e-02
      vertex   3.000000e-02 3.792568e-02 -4.592477e-02
      vertex   5.000000e-03 3.301922e-02 -4.987320e-02
    endloop
  endfacet
  facet normal 3.992223e-02 7.643695e-01 -6.435414e-01
    outer loop
      vertex   5.000000e-03 4.732192e-02 -3.631522e-02
      vertex   3.000000e-02 5.244573e-02 -2.867851e-02
      vertex   3.000000e-02 3.792568e-02 -4.592477e-02
    endloop
  endfacet
  facet normal -3.676308e-02 8.813675e-01 -4.709987e-01
    outer loop
      vertex   5.000000e-03 5.702602e-02 -1.815619e-02
      vertex   3.000000e-02 5.244573e-02 -2.867851e-02
      vertex   5.000000e-03 4.732192e-02 -3.631522e-02
    endloop
  endfacet
  facet normal 3.364663e-02 9.431665e-01 -3.306130e-01
    outer loop
      vertex   5.000000e-03 5.702602e-02 -1.815619e-02
      vertex   3.000000e-02 5.893125e-02 -1.017673e-02
      vertex   3.000000e-02 5.244573e-02 -2.867851e-02
    endloop
  endfacet
  facet normal -2.782739e-02 9.884713e-01 -1.488293e-01
    outer loop
      vertex   5.000000e-03 5.964549e-02 -7.586542e-04
      vertex   3.000000e-02 5.893125e-02 -1.017673e-02
      vertex   5.000000e-03 5.702602e-02 -1.815619e-02
    endloop
  endfacet
  facet normal 1.720735e-03 9.974693e-01 -7.107709e-02
    outer loop
      vertex   5.000000e-03 5.964549e-02 -7.586542e-04
      vertex   3.000000e-02 5.985465e-02 2.781852e-03
      vertex   3.000000e-02 5.893125e-02 -1.017673e-02
    endloop
  endfacet
  facet normal -3.190132e-02 9.854332e-01 1.670439e-01
    outer loop
      vertex   5.000000e-03 5.964549e-02 -7.586542e-04
      vertex   3.000000e-02 5.759933e-02 1.608649e-02
      vertex   3.000000e-02 5.985465e-02 2.781852e-03
    endloop
  endfacet
  facet normal -2.079812e-02 9.883276e-01 1.509171e-01
    outer loop
      vertex   5.000000e-03 5.655745e-02 1.946431e-02
      vertex   3.000000e-02 5.759933e-02 1.608649e-02
      vertex   5.000000e-03 5.964549e-02 -7.586542e-04
    endloop
  endfacet
  facet normal 1.505691e-02 9.186458e-01 3.947952e-01
    outer loop
      vertex   5.000000e-03 5.655745e-02 1.946431e-02
      vertex   3.000000e-02 5.118574e-02 3.101023e-02
      vertex   3.000000e-02 5.759933e-02 1.608649e-02
    endloop
  endfacet
  facet normal -3.396732e-02 8.760038e-01 4.811066e-01
    outer loop
      vertex   5.000000e-03 4.694001e-02 3.697583e-02
      vertex   3.000000e-02 5.118574e-02 3.101023e-02
      vertex   5.000000e-03 5.655745e-02 1.946431e-02
    endloop
  endfacet
  facet normal 1.254874e-02 7.890725e-01 6.141719e-01
    outer loop
      vertex   5.000000e-03 4.694001e-02 3.697583e-02
      vertex   3.000000e-02 4.235526e-02 4.235541e-02
      vertex   3.000000e-02 5.118574e-02 3.101023e-02
    endloop
  endfacet
  facet normal -2.217686e-02 7.076816e-01 7.061833e-01
    outer loop
      vertex   5.000000e-03 3.626342e-02 4.767508e-02
      vertex   3.000000e-02 4.235526e-02 4.235541e-02
      vertex   5.000000e-03 4.694001e-02 3.697583e-02
    endloop
  endfacet
  facet normal 2.214191e-02 6.044972e-01 7.962995e-01
    outer loop
      vertex   5.000000e-03 3.626342e-02 4.767508e-02
      vertex   3.000000e-02 3.051663e-02 5.134251e-02
      vertex   3.000000e-02 4.235526e-02 4.235541e-02
    endloop
  endfacet
  facet normal -1.464313e-02 4.918587e-01 8.705519e-01
    outer loop
      vertex   5.000000e-03 2.276842e-02 5.529971e-02
      vertex   3.000000e-02 3.051663e-02 5.134251e-02
      vertex   5.000000e-03 3.626342e-02 4.767508e-02
    endloop
  endfacet
  facet normal 2.026747e-02 4.021068e-01 9.153684e-01
    outer loop
      vertex   5.000000e-03 2.276842e-02 5.529971e-02
      vertex   3.000000e-02 1.599146e-02 5.772318e-02
      vertex   3.000000e-02 3.051663e-02 5.134251e-02
    endloop
  endfacet
  facet normal -2.968848e-02 2.376758e-01 9.708907e-01
    outer loop
      vertex   5.000000e-03 5.667369e-03 5.948607e-02
      vertex   3.000000e-02 1.599146e-02 5.772318e-02
      vertex   5.000000e-03 2.276842e-02 5.529971e-02
    endloop
  endfacet
  facet normal 1.772362e-02 1.264395e-01 9.918160e-01
    outer loop
      vertex   5.000000e-03 5.667369e-03 5.948607e-02
      vertex   3.000000e-02 1.266532e-04 5.974567e-02
      vertex   3.000000e-02 1.599146e-02 5.772318e-02
    endloop
  endfacet
  facet normal -1.000000e+00 -1.550910e-16 2.220446e-16
    outer loop
      vertex   -1.325499e-17 5.610509e-02 -2.050754e-02
      vertex   -3.921459e-18 5.588291e-02 2.137175e-02
      vertex   -8.953367e-18 5.953451e-02 1.260577e-03
    endloop
  endfacet
  facet normal -1.000000e+00 -1.550911e-16 2.220446e-16
    outer loop
      vertex   -1.325499e-17 5.610509e-02 -2.050754e-02
      vertex   9.303079e-19 4.694001e-02 3.697583e-02
      vertex   -3.921459e-18 5.588291e-02 2.137175e-02
    endloop
  endfacet
  facet normal -1.000000e+00 -1.550912e-16 2.220446e-16
    outer loop
      vertex   -1.562667e-17 4.552376e-02 -3.857936e-02
      vertex   9.303079e-19 4.694001e-02 3.697583e-02
      vertex   -1.325499e-17 5.610509e-02 -2.050754e-02
    endloop
  endfacet
  facet normal -1.000000e+00 -1.550910e-16 2.220446e-16
    outer loop
      vertex   -1.562667e-17 4.552376e-02 -3.857936e-02
      vertex   5.824634e-18 3.343410e-02 4.958447e-02
      vertex   9.303079e-19 4.694001e-02 3.697583e-02
    endloop
  endfacet
  facet normal -1.000000e+00 -1.550910e-16 2.220446e-16
    outer loop
      vertex   -1.621273e-17 3.253827e-02 -5.028871e-02
      vertex   5.824634e-18 3.343410e-02 4.958447e-02
      vertex   -1.562667e-17 4.552376e-02 -3.857936e-02
    endloop
  endfacet
  facet normal -1.000000e+00 -1.550911e-16 2.220446e-16
    outer loop
      vertex   -1.621273e-17 3.253827e-02 -5.028871e-02
      vertex   9.678190e-18 1.886948e-02 5.676642e-02
      vertex   5.824634e-18 3.343410e-02 4.958447e-02
    endloop
  endfacet
  facet normal -1.000000e+00 -1.550911e-16 2.220446e-16
    outer loop
      vertex   -1.506815e-17 1.421586e-02 -5.793159e-02
      vertex   9.678190e-18 1.886948e-02 5.676642e-02
      vertex   -1.621273e-17 3.253827e-02 -5.028871e-02
    endloop
  endfacet
  facet normal -1.000000e+00 -4.176039e-17 2.174465e-16
    outer loop
      vertex   -1.506815e-17 1.421586e-02 -5.793159e-02
      vertex   1.092957e-17 4.294941e-03 5.972228e-02
      vertex   9.678190e-18 1.886948e-02 5.676642e-02
    endloop
  endfacet
  facet normal -1.000000e+00 -1.549197e-16 2.079045e-16
    outer loop
      vertex   -1.113655e-17 -1.158221e-02 -5.824435e-02
      vertex   1.092957e-17 4.294941e-03 5.972228e-02
      vertex   -1.506815e-17 1.421586e-02 -5.793159e-02
    endloop
  endfacet
  facet normal -1.000000e+00 -1.550910e-16 2.220446e-16
    outer loop
      vertex   1.325499e-17 -5.610509e-02 2.050754e-02
      vertex   3.921459e-18 -5.588291e-02 -2.137175e-02
      vertex   8.953367e-18 -5.953451e-02 -1.260577e-03
    endloop
  endfacet
  facet normal -1.000000e+00 -1.550911e-16 2.220446e-16
    outer loop
      vertex   1.325499e-17 -5.610509e-02 2.050754e-02
      vertex   -9.303079e-19 -4.694001e-02 -3.697583e-02
      vertex   3.921459e-18 -5.588291e-02 -2.137175e-02
    endloop
  endfacet
  facet normal -1.000000e+00 -1.550912e-16 2.220446e-16
    outer loop
      vertex   1.562667e-17 -4.552376e-02 3.857936e-02
      vertex   -9.303079e-19 -4.694001e-02 -3.697583e-02
      vertex   1.325499e-17 -5.610509e-02 2.050754e-02
    endloop
  endfacet
  facet normal -1.000000e+00 -1.550910e-16 2.220446e-16
    outer loop
      vertex   1.562667e-17 -4.552376e-02 3.857936e-02
      vertex   -5.824634e-18 -3.343410e-02 -4.958447e-02
      vertex   -9.303079e-19 -4.694001e-02 -3.697583e-02
    endloop
  endfacet
  facet normal -1.000000e+00 -1.550910e-16 2.220446e-16
    outer loop
      vertex   1.621273e-17 -3.253827e-02 5.028871e-02
      vertex   -5.824634e-18 -3.343410e-02 -4.958447e-02
      vertex   1.562667e-17 -4.552376e-02 3.857936e-02
    endloop
  endfacet
  facet normal -1.000000e+00 -1.550911e-16 2.220446e-16
    outer loop
      vertex   1.621273e-17 -3.253827e-02 5.028871e-02
      vertex   -1.113655e-17 -1.158221e-02 -5.824435e-02
      vertex   -5.824634e-18 -3.343410e-02 -4.958447e-02
    endloop
  endfacet
  facet normal -1.000000e+00 -1.550911e-16 2.220446e-16
    outer loop
      vertex   1.506815e-17 -1.421586e-02 5.793159e-02
      vertex   -1.113655e-17 -1.158221e-02 -5.824435e-02
      vertex   1.621273e-17 -3.253827e-02 5.028871e-02
    endloop
  endfacet
  facet normal -1.000000e+00 -2.448598e-16 2.200096e-16
    outer loop
      vertex   1.092957e-17 4.294941e-03 5.972228e-02
      vertex   -1.113655e-17 -1.158221e-02 -5.824435e-02
      vertex   1.506815e-17 -1.421586e-02 5.793159e-02
    endloop
  endfacet
  facet normal 2.371366e-01 9.609617e-02 9.667118e-01
    outer loop
      vertex   5.000000e-03 1.614281e-02 5.731803e-02
      vertex   1.092957e-17 4.294941e-03 5.972228e-02
      vertex   5.000000e-03 -5.667369e-03 5.948607e-02
    endloop
  endfacet
  facet normal 2.722605e-04 1.987631e-01 9.800475e-01
    outer loop
      vertex   5.000000e-03 1.614281e-02 5.731803e-02
      vertex   9.678190e-18 1.886948e-02 5.676642e-02
      vertex   1.092957e-17 4.294941e-03 5.972228e-02
    endloop
  endfacet
  facet normal 1.408180e-01 4.378558e-01 8.879485e-01
    outer loop
      vertex   5.000000e-03 1.614281e-02 5.731803e-02
      vertex   5.824634e-18 3.343410e-02 4.958447e-02
      vertex   9.678190e-18 1.886948e-02 5.676642e-02
    endloop
  endfacet
  facet normal -1.933926e-02 4.035355e-01 9.147596e-01
    outer loop
      vertex   5.000000e-03 3.301922e-02 4.987320e-02
      vertex   5.824634e-18 3.343410e-02 4.958447e-02
      vertex   5.000000e-03 1.614281e-02 5.731803e-02
    endloop
  endfacet
  facet normal 1.517365e-02 6.878807e-01 7.256651e-01
    outer loop
      vertex   5.000000e-03 4.732192e-02 3.631522e-02
      vertex   5.824634e-18 3.343410e-02 4.958447e-02
      vertex   5.000000e-03 3.301922e-02 4.987320e-02
    endloop
  endfacet
  facet normal 4.441072e-02 6.817351e-01 7.302499e-01
    outer loop
      vertex   5.000000e-03 4.732192e-02 3.631522e-02
      vertex   9.303079e-19 4.694001e-02 3.697583e-02
      vertex   5.824634e-18 3.343410e-02 4.958447e-02
    endloop
  endfacet
  facet normal -5.728910e-04 8.676128e-01 4.972400e-01
    outer loop
      vertex   5.000000e-03 4.732192e-02 3.631522e-02
      vertex   -3.921459e-18 5.588291e-02 2.137175e-02
      vertex   9.303079e-19 4.694001e-02 3.697583e-02
    endloop
  endfacet
  facet normal 1.009551e-01 8.774577e-01 4.689094e-01
    outer loop
      vertex   5.000000e-03 5.702602e-02 1.815619e-02
      vertex   -3.921459e-18 5.588291e-02 2.137175e-02
      vertex   5.000000e-03 4.732192e-02 3.631522e-02
    endloop
  endfacet
  facet normal -1.093921e-01 9.780080e-01 1.775776e-01
    outer loop
      vertex   5.000000e-03 5.702602e-02 1.815619e-02
      vertex   -8.953367e-18 5.953451e-02 1.260577e-03
      vertex   -3.921459e-18 5.588291e-02 2.137175e-02
    endloop
  endfacet
  facet normal -7.001361e-03 9.888300e-01 1.488833e-01
    outer loop
      vertex   5.000000e-03 5.964549e-02 7.586542e-04
      vertex   -8.953367e-18 5.953451e-02 1.260577e-03
      vertex   5.000000e-03 5.702602e-02 1.815619e-02
    endloop
  endfacet
  facet normal -3.752024e-02 9.871208e-01 -1.555143e-01
    outer loop
      vertex   5.000000e-03 5.964549e-02 7.586542e-04
      vertex   -1.325499e-17 5.610509e-02 -2.050754e-02
      vertex   -8.953367e-18 5.953451e-02 1.260577e-03
    endloop
  endfacet
  facet normal -5.784335e-02 9.868863e-01 -1.506970e-01
    outer loop
      vertex   5.000000e-03 5.655745e-02 -1.946431e-02
      vertex   -1.325499e-17 5.610509e-02 -2.050754e-02
      vertex   5.000000e-03 5.964549e-02 7.586542e-04
    endloop
  endfacet
  facet normal 2.113482e-02 8.763138e-01 -4.812769e-01
    outer loop
      vertex   5.000000e-03 4.694001e-02 -3.697583e-02
      vertex   -1.325499e-17 5.610509e-02 -2.050754e-02
      vertex   5.000000e-03 5.655745e-02 -1.946431e-02
    endloop
  endfacet
  facet normal -8.211062e-02 8.600442e-01 -5.035691e-01
    outer loop
      vertex   5.000000e-03 4.694001e-02 -3.697583e-02
      vertex   -1.562667e-17 4.552376e-02 -3.857936e-02
      vertex   -1.325499e-17 5.610509e-02 -2.050754e-02
    endloop
  endfacet
  facet normal 2.602335e-02 7.076160e-01 -7.061178e-01
    outer loop
      vertex   5.000000e-03 3.626342e-02 -4.767508e-02
      vertex   -1.562667e-17 4.552376e-02 -3.857936e-02
      vertex   5.000000e-03 4.694001e-02 -3.697583e-02
    endloop
  endfacet
  facet normal -1.100478e-01 6.656049e-01 -7.381460e-01
    outer loop
      vertex   5.000000e-03 3.626342e-02 -4.767508e-02
      vertex   -1.621273e-17 3.253827e-02 -5.028871e-02
      vertex   -1.562667e-17 4.552376e-02 -3.857936e-02
    endloop
  endfacet
  facet normal 8.827399e-02 4.899912e-01 -8.672464e-01
    outer loop
      vertex   5.000000e-03 2.276842e-02 -5.529971e-02
      vertex   -1.621273e-17 3.253827e-02 -5.028871e-02
      vertex   5.000000e-03 3.626342e-02 -4.767508e-02
    endloop
  endfacet
  facet normal -1.701916e-01 3.793654e-01 -9.094596e-01
    outer loop
      vertex   5.000000e-03 2.276842e-02 -5.529971e-02
      vertex   -1.506815e-17 1.421586e-02 -5.793159e-02
      vertex   -1.621273e-17 3.253827e-02 -5.028871e-02
    endloop
  endfacet
  facet normal 1.039852e-01 2.364916e-01 -9.660532e-01
    outer loop
      vertex   5.000000e-03 5.667369e-03 -5.948607e-02
      vertex   -1.506815e-17 1.421586e-02 -5.793159e-02
      vertex   5.000000e-03 2.276842e-02 -5.529971e-02
    endloop
  endfacet
  facet normal -2.786562e-01 1.164260e-02 -9.603204e-01
    outer loop
      vertex   5.000000e-03 5.667369e-03 -5.948607e-02
      vertex   -1.113655e-17 -1.158221e-02 -5.824435e-02
      vertex   -1.506815e-17 1.421586e-02 -5.793159e-02
    endloop
  endfacet
  facet normal 9.371689e-02 -9.848231e-02 -9.907161e-01
    outer loop
      vertex   5.000000e-03 -1.614281e-02 -5.731803e-02
      vertex   -1.113655e-17 -1.158221e-02 -5.824435e-02
      vertex   5.000000e-03 5.667369e-03 -5.948607e-02
    endloop
  endfacet
  facet normal -1.616583e-01 -3.635767e-01 -9.174304e-01
    outer loop
      vertex   5.000000e-03 -1.614281e-02 -5.731803e-02
      vertex   -5.824634e-18 -3.343410e-02 -4.958447e-02
      vertex   -1.113655e-17 -1.158221e-02 -5.824435e-02
    endloop
  endfacet
  facet normal -1.933926e-02 -4.035355e-01 -9.147596e-01
    outer loop
      vertex   5.000000e-03 -3.301922e-02 -4.987320e-02
      vertex   -5.824634e-18 -3.343410e-02 -4.958447e-02
      vertex   5.000000e-03 -1.614281e-02 -5.731803e-02
    endloop
  endfacet
  facet normal 1.517365e-02 -6.878807e-01 -7.256651e-01
    outer loop
      vertex   5.000000e-03 -4.732192e-02 -3.631522e-02
      vertex   -5.824634e-18 -3.343410e-02 -4.958447e-02
      vertex   5.000000e-03 -3.301922e-02 -4.987320e-02
    endloop
  endfacet
  facet normal 4.441072e-02 -6.817351e-01 -7.302499e-01
    outer loop
      vertex   5.000000e-03 -4.732192e-02 -3.631522e-02
      vertex   -9.303079e-19 -4.694001e-02 -3.697583e-02
      vertex   -5.824634e-18 -3.343410e-02 -4.958447e-02
    endloop
  endfacet
  facet normal -5.728910e-04 -8.676128e-01 -4.972400e-01
    outer loop
      vertex   5.000000e-03 -4.732192e-02 -3.631522e-02
      vertex   3.921459e-18 -5.588291e-02 -2.137175e-02
      vertex   -9.303079e-19 -4.694001e-02 -3.697583e-02
    endloop
  endfacet
  facet normal 1.009551e-01 -8.774577e-01 -4.689094e-01
    outer loop
      vertex   5.000000e-03 -5.702602e-02 -1.815619e-02
      vertex   3.921459e-18 -5.588291e-02 -2.137175e-02
      vertex   5.000000e-03 -4.732192e-02 -3.631522e-02
    endloop
  endfacet
  facet normal -1.093921e-01 -9.780080e-01 -1.775776e-01
    outer loop
      vertex   5.000000e-03 -5.702602e-02 -1.815619e-02
      vertex   8.953367e-18 -5.953451e-02 -1.260577e-03
      vertex   3.921459e-18 -5.588291e-02 -2.137175e-02
    endloop
  endfacet
  facet normal -7.001361e-03 -9.888300e-01 -1.488833e-01
    outer loop
      vertex   5.000000e-03 -5.964549e-02 -7.586542e-04
      vertex   8.953367e-18 -5.953451e-02 -1.260577e-03
      vertex   5.000000e-03 -5.702602e-02 -1.815619e-02
    endloop
  endfacet
  facet normal -3.752024e-02 -9.871208e-01 1.555143e-01
    outer loop
      vertex   5.000000e-03 -5.964549e-02 -7.586542e-04
      vertex   1.325499e-17 -5.610509e-02 2.050754e-02
      vertex   8.953367e-18 -5.953451e-02 -1.260577e-03
    endloop
  endfacet
  facet normal -5.784335e-02 -9.868863e-01 1.506970e-01
    outer loop
      vertex   5.000000e-03 -5.655745e-02 1.946431e-02
      vertex   1.325499e-17 -5.610509e-02 2.050754e-02
      vertex   5.000000e-03 -5.964549e-02 -7.586542e-04
    endloop
  endfacet
  facet normal 2.113482e-02 -8.763138e-01 4.812769e-01
    outer loop
      vertex   5.000000e-03 -4.694001e-02 3.697583e-02
      vertex   1.325499e-17 -5.610509e-02 2.050754e-02
      vertex   5.000000e-03 -5.655745e-02 1.946431e-02
    endloop
  endfacet
  facet normal -8.211062e-02 -8.600442e-01 5.035691e-01
    outer loop
      vertex   5.000000e-03 -4.694001e-02 3.697583e-02
      vertex   1.562667e-17 -4.552376e-02 3.857936e-02
      vertex   1.325499e-17 -5.610509e-02 2.050754e-02
    endloop
  endfacet
  facet normal 2.602335e-02 -7.076160e-01 7.061178e-01
    outer loop
      vertex   5.000000e-03 -3.626342e-02 4.767508e-02
      vertex   1.562667e-17 -4.552376e-02 3.857936e-02
      vertex   5.000000e-03 -4.694001e-02 3.697583e-02
    endloop
  endfacet
  facet normal -1.100478e-01 -6.656049e-01 7.381460e-01
    outer loop
      vertex   5.000000e-03 -3.626342e-02 4.767508e-02
      vertex   1.621273e-17 -3.253827e-02 5.028871e-02
      vertex   1.562667e-17 -4.552376e-02 3.857936e-02
    endloop
  endfacet
  facet normal 8.827399e-02 -4.899912e-01 8.672464e-01
    outer loop
      vertex   5.000000e-03 -2.276842e-02 5.529971e-02
      vertex   1.621273e-17 -3.253827e-02 5.028871e-02
      vertex   5.000000e-03 -3.626342e-02 4.767508e-02
    endloop
  endfacet
  facet normal -1.701916e-01 -3.793654e-01 9.094596e-01
    outer loop
      vertex   5.000000e-03 -2.276842e-02 5.529971e-02
      vertex   1.506815e-17 -1.421586e-02 5.793159e-02
      vertex   1.621273e-17 -3.253827e-02 5.028871e-02
    endloop
  endfacet
  facet normal 1.039852e-01 -2.364916e-01 9.660532e-01
    outer loop
      vertex   5.000000e-03 -5.667369e-03 5.948607e-02
      vertex   1.506815e-17 -1.421586e-02 5.793159e-02
      vertex   5.000000e-03 -2.276842e-02 5.529971e-02
    endloop
  endfacet
  facet normal -1.433338e-01 -9.529415e-02 9.850759e-01
    outer loop
      vertex   5.000000e-03 -5.667369e-03 5.948607e-02
      vertex   1.092957e-17 4.294941e-03 5.972228e-02
      vertex   1.506815e-17 -1.421586e-02 5.793159e-02
    endloop
  endfacet
  facet normal 1.000000e+00 0.000000e+00 -0.000000e+00
    outer loop
      vertex   5.000000e-03 -5.702602e-02 -1.815619e-02
      vertex   5.000000e-03 -5.655745e-02 1.946431e-02
      vertex   5.000000e-03 -5.964549e-02 -7.586542e-04
    endloop
  endfacet
  facet normal 1.000000e+00 0.000000e+00 0.000000e+00
    outer loop
      vertex   5.000000e-03 -4.732192e-02 -3.631522e-02
      vertex   5.000000e-03 -5.655745e-02 1.946431e-02
      vertex   5.000000e-03 -5.702602e-02 -1.815619e-02
    endloop
  endfacet
  facet normal 1.000000e+00 0.000000e+00 -0.000000e+00
    outer loop
      vertex   5.000000e-03 -4.732192e-02 -3.631522e-02
      vertex   5.000000e-03 -4.694001e-02 3.697583e-02
      vertex   5.000000e-03 -5.655745e-02 1.946431e-02
    endloop
  endfacet
  facet normal 1.000000e+00 0.000000e+00 0.000000e+00
    outer loop
      vertex   5.000000e-03 -4.732192e-02 -3.631522e-02
      vertex   5.000000e-03 -3.626342e-02 4.767508e-02
      vertex   5.000000e-03 -4.694001e-02 3.697583e-02
    endloop
  endfacet
  facet normal 1.000000e+00 0.000000e+00 0.000000e+00
    outer loop
      vertex   5.000000e-03 -3.301922e-02 -4.987320e-02
      vertex   5.000000e-03 -3.626342e-02 4.767508e-02
      vertex   5.000000e-03 -4.732192e-02 -3.631522e-02
    endloop
  endfacet
  facet normal 1.000000e+00 0.000000e+00 -0.000000e+00
    outer loop
      vertex   5.000000e-03 -3.301922e-02 -4.987320e-02
      vertex   5.000000e-03 -2.276842e-02 5.529971e-02
      vertex   5.000000e-03 -3.626342e-02 4.767508e-02
    endloop
  endfacet
  facet normal 1.000000e+00 0.000000e+00 0.000000e+00
    outer loop
      vertex   5.000000e-03 -1.614281e-02 -5.731803e-02
      vertex   5.000000e-03 -2.276842e-02 5.529971e-02
      vertex   5.000000e-03 -3.301922e-02 -4.987320e-02
    endloop
  endfacet
  facet normal 1.000000e+00 0.000000e+00 -0.000000e+00
    outer loop
      vertex   5.000000e-03 -1.614281e-02 -5.731803e-02
      vertex   5.000000e-03 -5.667369e-03 5.948607e-02
      vertex   5.000000e-03 -2.276842e-02 5.529971e-02
    endloop
  endfacet
  facet normal 1.000000e+00 0.000000e+00 0.000000e+00
    outer loop
      vertex   5.000000e-03 5.667369e-03 -5.948607e-02
      vertex   5.000000e-03 -5.667369e-03 5.948607e-02
      vertex   5.000000e-03 -1.614281e-02 -5.731803e-02
    endloop
  endfacet
  facet normal 1.000000e+00 0.000000e+00 0.000000e+00
    outer loop
      vertex   5.000000e-03 5.702602e-02 1.815619e-02
      vertex   5.000000e-03 5.655745e-02 -1.946431e-02
      vertex   5.000000e-03 5.964549e-02 7.586542e-04
    endloop
  endfacet
  facet normal 1.000000e+00 0.000000e+00 0.000000e+00
    outer loop
      vertex   5.000000e-03 4.732192e-02 3.631522e-02
      vertex   5.000000e-03 5.655745e-02 -1.946431e-02
      vertex   5.000000e-03 5.702602e-02 1.815619e-02
    endloop
  endfacet
  facet normal 1.000000e+00 0.000000e+00 0.000000e+00
    outer loop
      vertex   5.000000e-03 4.732192e-02 3.631522e-02
      vertex   5.000000e-03 4.694001e-02 -3.697583e-02
      vertex   5.000000e-03 5.655745e-02 -1.946431e-02
    endloop
  endfacet
  facet normal 1.000000e+00 0.000000e+00 0.000000e+00
    outer loop
      vertex   5.000000e-03 4.732192e-02 3.631522e-02
      vertex   5.000000e-03 3.626342e-02 -4.767508e-02
      vertex   5.000000e-03 4.694001e-02 -3.697583e-02
    endloop
  endfacet
  facet normal 1.000000e+00 0.000000e+00 0.000000e+00
    outer loop
      vertex   5.000000e-03 3.301922e-02 4.987320e-02
      vertex   5.000000e-03 3.626342e-02 -4.767508e-02
      vertex   5.000000e-03 4.732192e-02 3.631522e-02
    endloop
  endfacet
  facet normal 1.000000e+00 0.000000e+00 0.000000e+00
    outer loop
      vertex   5.000000e-03 3.301922e-02 4.987320e-02
      vertex   5.000000e-03 2.276842e-02 -5.529971e-02
      vertex   5.000000e-03 3.626342e-02 -4.767508e-02
    endloop
  endfacet
  facet normal 1.000000e+00 0.000000e+00 0.000000e+00
    outer loop
      vertex   5.000000e-03 1.614281e-02 5.731803e-02
      vertex   5.000000e-03 2.276842e-02 -5.529971e-02
      vertex   5.000000e-03 3.301922e-02 4.987320e-02
    endloop
  endfacet
  facet normal 1.000000e+00 0.000000e+00 0.000000e+00
    outer loop
      vertex   5.000000e-03 1.614281e-02 5.731803e-02
      vertex   5.000000e-03 5.667369e-03 -5.948607e-02
      vertex   5.000000e-03 2.276842e-02 -5.529971e-02
    endloop
  endfacet
  facet normal 1.000000e+00 0.000000e+00 0.000000e+00
    outer loop
      vertex   5.000000e-03 -5.667369e-03 5.948607e-02
      vertex   5.000000e-03 5.667369e-03 -5.948607e-02
      vertex   5.000000e-03 1.614281e-02 5.731803e-02
    endloop
  endfacet
endsolid
