# WaveFront *.obj file (generated by Autodesk ATF)

mtllib ankle_link_dexter_collision.mtl

g Body1

v -1.470332 0.203125 3.711296
v -0.718431 0.812500 3.928931
v -2.115857 0.406250 3.389543
v -3.203240 0.406250 2.388537
v -3.892906 0.812500 0.900632
v -3.928931 0.812500 -0.718431
v -3.389543 0.406250 -2.115857
v -2.388537 0.406250 -3.203240
v -0.900632 0.812500 -3.892906
v 0.718431 0.812500 -3.928931
v 2.115857 0.406250 -3.389543
v 3.203240 0.406250 -2.388537
v 3.892906 0.812500 -0.900632
v 3.928931 0.812500 0.718431
v 3.389543 0.406250 2.115857
v 2.388537 0.406250 3.203240
v 0.900632 0.812500 3.892906
v 0.676722 6.500000 3.929837
v 2.216697 6.500000 3.317545
v 3.362634 6.500000 2.147682
v 3.989756 6.500000 0.000106
v 3.091203 6.500000 -2.510267
v 1.582888 6.500000 -3.660059
v -0.676722 6.500000 -3.929837
v -2.216697 6.500000 -3.317545
v -3.802420 6.500000 -1.185889
v -3.787510 6.500000 1.224053
v -2.388537 6.500000 3.203240
v -0.472736 6.500000 3.959557
v -1.529099 -6.500000 3.691573
v -3.122915 -6.500000 2.457047
v -3.989756 -6.500000 0.000106
v -3.091203 -6.500000 -2.510267
v -1.582888 -6.500000 -3.660059
v 0.676722 -6.500000 -3.929837
v 2.216697 -6.500000 -3.317545
v 3.802420 -6.500000 -1.185889
v 3.787510 -6.500000 1.224053
v 2.388537 -6.500000 3.203240
v 0.472736 -6.500000 3.959557
v 1.582888 -6.500000 3.660059
v 3.091203 -6.500000 2.510267
v 3.989756 -6.500000 -0.000106
v 3.122915 -6.500000 -2.457047
v 1.529099 -6.500000 -3.691573
v -0.472736 -6.500000 -3.959557
v -2.388537 -6.500000 -3.203240
v -3.787510 -6.500000 -1.224053
v -3.802420 -6.500000 1.185889
v -2.216697 -6.500000 3.317545
v -0.676722 -6.500000 3.929837
v -1.582888 6.500000 3.660059
v -3.091203 6.500000 2.510267
v -3.989756 6.500000 -0.000106
v -3.122915 6.500000 -2.457047
v -1.529099 6.500000 -3.691573
v 0.472736 6.500000 -3.959557
v 2.388537 6.500000 -3.203240
v 3.787510 6.500000 -1.224053
v 3.802420 6.500000 1.185889
v 2.883196 6.500000 2.766411
v 1.529099 6.500000 3.691573
v 0.144320 0.406250 3.989331
v 1.649602 0.507812 3.632425
v 2.896224 0.203125 2.750368
v 3.711296 0.203125 1.470332
v 3.987837 0.507812 -0.216603
v 3.632425 0.507812 -1.649602
v 2.750368 0.203125 -2.896224
v 1.470332 0.203125 -3.711296
v -0.216603 0.507812 -3.987837
v -1.649602 0.507812 -3.632425
v -2.896224 0.203125 -2.750368
v -3.711296 0.203125 -1.470332
v -3.987837 0.507812 0.216603
v -3.632425 0.507812 1.649602
v -2.750368 0.203125 2.896224
usemtl Paint_-_Metal_Flake_(Aqua)
f 59 60 21
f 59 20 60
f 22 20 59
f 22 61 20
f 22 19 61
f 58 19 22
f 23 19 58
f 23 62 19
f 23 18 62
f 57 18 23
f 27 26 54
f 27 55 26
f 53 55 27
f 53 25 55
f 28 25 53
f 52 25 28
f 52 56 25
f 52 24 56
f 29 24 52
f 29 57 24
f 18 57 29
f 48 49 32
f 48 31 49
f 33 31 48
f 33 50 31
f 47 50 33
f 34 50 47
f 34 30 50
f 34 51 30
f 46 51 34
f 38 37 43
f 38 44 37
f 42 44 38
f 42 36 44
f 39 36 42
f 41 36 39
f 41 45 36
f 41 35 45
f 40 35 41
f 40 46 35
f 51 46 40
f 29 2 63
f 29 1 2
f 52 1 29
f 52 3 1
f 28 3 52
f 28 77 3
f 53 77 28
f 53 4 77
f 53 76 4
f 27 76 53
f 27 5 76
f 27 75 5
f 54 75 27
f 54 6 75
f 26 6 54
f 26 74 6
f 55 74 26
f 55 7 74
f 55 73 7
f 55 8 73
f 25 8 55
f 25 72 8
f 56 72 25
f 56 9 72
f 24 9 56
f 24 71 9
f 57 71 24
f 57 10 71
f 57 70 10
f 23 70 57
f 23 11 70
f 58 11 23
f 58 69 11
f 22 69 58
f 22 12 69
f 22 68 12
f 59 68 22
f 59 13 68
f 59 67 13
f 21 67 59
f 21 14 67
f 60 14 21
f 60 66 14
f 20 66 60
f 20 15 66
f 20 65 15
f 61 65 20
f 61 16 65
f 19 16 61
f 19 64 16
f 62 64 19
f 62 17 64
f 18 17 62
f 18 63 17
f 29 63 18
f 40 17 63
f 41 17 40
f 41 64 17
f 41 16 64
f 39 16 41
f 39 65 16
f 42 65 39
f 42 15 65
f 38 15 42
f 38 66 15
f 38 14 66
f 43 14 38
f 43 67 14
f 37 67 43
f 37 13 67
f 37 68 13
f 44 68 37
f 44 12 68
f 44 69 12
f 36 69 44
f 36 11 69
f 36 70 11
f 45 70 36
f 35 70 45
f 35 10 70
f 35 71 10
f 46 71 35
f 46 9 71
f 34 9 46
f 34 72 9
f 34 8 72
f 47 8 34
f 47 73 8
f 33 73 47
f 33 7 73
f 48 7 33
f 48 74 7
f 48 6 74
f 32 6 48
f 32 75 6
f 49 75 32
f 49 5 75
f 49 76 5
f 31 76 49
f 31 4 76
f 31 77 4
f 50 77 31
f 50 3 77
f 50 1 3
f 30 1 50
f 51 1 30
f 51 2 1
f 51 63 2
f 40 63 51
g Body2

v -0.812500 -2.330124 3.236061
v -0.507812 -1.600635 3.660424
v -0.203125 -2.979927 2.665217
v -0.609375 -3.729949 1.416204
v -0.812500 -3.995466 0.045880
v -0.507812 -3.660424 -1.600635
v -0.203125 -2.665217 -2.979927
v -0.609375 -1.416204 -3.729949
v -0.812500 -0.045880 -3.995466
v -0.507812 1.600635 -3.660424
v -0.203125 2.979927 -2.665217
v -0.609375 3.729949 -1.416204
v -0.812500 3.995466 -0.045880
v -0.507812 3.660424 1.600635
v -0.203125 2.665217 2.979927
v -0.609375 1.416204 3.729949
v -0.812500 0.045880 3.995466
v -6.500000 0.640595 3.935887
v -6.500000 2.239884 3.306896
v -6.500000 3.543828 1.842261
v -6.500000 3.935887 -0.640595
v -6.500000 3.049838 -2.548773
v -6.500000 1.409643 -3.738818
v -6.500000 -0.640595 -3.935887
v -6.500000 -3.032588 -2.589397
v -6.500000 -3.916036 -0.680012
v -6.500000 -3.696174 1.513586
v -6.500000 -2.178480 3.342764
v -6.500000 -0.509088 3.955047
v 6.500000 -2.363534 3.211740
v 6.500000 -3.785287 1.260854
v 6.500000 -3.752622 -1.348850
v 6.500000 -2.600596 -3.031426
v 6.500000 -0.700485 -3.919987
v 6.500000 1.348850 -3.752622
v 6.500000 3.261749 -2.271289
v 6.500000 3.975596 0.005543
v 6.500000 3.211740 2.363534
v 6.500000 1.866695 3.526131
v 6.500000 -0.304643 3.982441
v 6.500000 0.700485 3.919987
v 6.500000 2.600596 3.031426
v 6.500000 3.752622 1.348850
v 6.500000 3.785287 -1.260854
v 6.500000 2.363534 -3.211740
v 6.500000 0.304643 -3.982441
v 6.500000 -1.866695 -3.526131
v 6.500000 -3.211740 -2.363534
v 6.500000 -3.975596 -0.005543
v 6.500000 -3.261749 2.271289
v 6.500000 -1.348850 3.752622
v -6.500000 -1.409643 3.738818
v -6.500000 -3.049838 2.548773
v -6.500000 -3.935887 0.640595
v -6.500000 -3.543828 -1.842261
v -6.500000 -1.876735 -3.501535
v -6.500000 0.509088 -3.955047
v -6.500000 2.178480 -3.342764
v -6.500000 3.696174 -1.513586
v -6.500000 3.916036 0.680012
v -6.500000 3.032588 2.589397
v -6.500000 1.513586 3.696174
v -0.304688 -0.687741 3.930578
v -0.812500 0.662532 3.942368
v -0.812500 2.205660 3.329821
v -0.812500 3.236061 2.330124
v -0.507812 3.930578 0.687741
v -0.812500 3.942368 -0.662532
v -0.812500 3.329821 -2.205660
v -0.812500 2.330124 -3.236061
v -0.507812 0.687741 -3.930578
v -0.812500 -0.662532 -3.942368
v -0.812500 -2.205660 -3.329821
v -0.812500 -3.236061 -2.330124
v -0.507812 -3.930578 -0.687741
v -0.812500 -3.942368 0.662532
v -0.812500 -3.329821 2.205660
f 98 97 137
f 98 138 97
f 136 138 98
f 136 96 138
f 99 96 136
f 99 139 96
f 135 139 99
f 135 95 139
f 100 95 135
f 100 106 95
f 134 106 100
f 131 132 103
f 131 102 132
f 104 102 131
f 104 133 102
f 130 133 104
f 105 133 130
f 105 101 133
f 129 101 105
f 129 134 101
f 106 134 129
f 125 126 109
f 125 108 126
f 125 127 108
f 110 127 125
f 124 127 110
f 124 107 127
f 111 107 124
f 111 128 107
f 123 128 111
f 115 114 120
f 115 121 114
f 115 113 121
f 119 113 115
f 116 113 119
f 116 122 113
f 118 122 116
f 118 112 122
f 117 112 118
f 117 123 112
f 128 123 117
f 129 140 106
f 129 79 140
f 105 79 129
f 105 78 79
f 130 78 105
f 130 80 78
f 130 154 80
f 104 154 130
f 104 81 154
f 131 81 104
f 131 153 81
f 131 82 153
f 103 82 131
f 103 152 82
f 103 83 152
f 132 83 103
f 132 151 83
f 102 151 132
f 102 84 151
f 133 84 102
f 133 150 84
f 133 85 150
f 101 85 133
f 101 149 85
f 101 86 149
f 134 86 101
f 134 148 86
f 100 148 134
f 100 87 148
f 135 87 100
f 135 147 87
f 99 147 135
f 99 88 147
f 99 146 88
f 136 146 99
f 136 89 146
f 98 89 136
f 98 145 89
f 98 90 145
f 137 90 98
f 137 144 90
f 137 91 144
f 97 91 137
f 97 143 91
f 138 143 97
f 138 92 143
f 96 92 138
f 96 142 92
f 139 142 96
f 139 93 142
f 95 93 139
f 95 141 93
f 95 94 141
f 106 94 95
f 106 140 94
f 117 94 140
f 118 94 117
f 118 141 94
f 118 93 141
f 116 93 118
f 116 142 93
f 119 142 116
f 119 92 142
f 119 143 92
f 115 143 119
f 115 91 143
f 120 91 115
f 120 144 91
f 114 144 120
f 114 90 144
f 114 145 90
f 121 145 114
f 121 89 145
f 113 89 121
f 113 146 89
f 113 88 146
f 113 147 88
f 122 147 113
f 122 87 147
f 112 87 122
f 112 148 87
f 123 148 112
f 123 86 148
f 111 86 123
f 111 149 86
f 111 85 149
f 124 85 111
f 124 150 85
f 110 150 124
f 110 84 150
f 110 151 84
f 125 151 110
f 125 83 151
f 109 83 125
f 109 152 83
f 126 152 109
f 126 82 152
f 126 153 82
f 108 153 126
f 108 81 153
f 127 81 108
f 127 154 81
f 127 80 154
f 127 78 80
f 107 78 127
f 107 79 78
f 128 79 107
f 128 140 79
f 117 140 128
# 154 vertices
# 0 texture params
# 0 normals
# 300 facets

# 2 groups
