# WaveFront *.obj file (generated by Autodesk ATF)

mtllib ankle_link_sinister_collision.mtl

g Body2

v -0.406250 0.903809 -3.886255
v -0.812500 0.045880 -3.995466
v -0.406250 1.646976 -3.640512
v -0.812500 2.857663 -2.792779
v -0.406250 3.677371 -1.562945
v -0.812500 3.995466 0.045880
v -0.406250 3.640512 1.646976
v -0.812500 2.792779 2.857663
v -0.406250 1.562945 3.677371
v -0.812500 -0.045880 3.995466
v -0.406250 -1.646976 3.640512
v -0.812500 -2.857663 2.792779
v -0.406250 -3.677371 1.562945
v -0.812500 -3.995466 -0.045880
v -0.406250 -3.640512 -1.646976
v -0.812500 -2.792779 -2.857663
v -0.406250 -1.562945 -3.677371
v -6.500000 -1.348850 -3.752622
v -6.500000 -3.261749 -2.271289
v -6.500000 -3.975596 0.005543
v -6.500000 -3.211740 2.363534
v -6.500000 -1.866695 3.526131
v -6.500000 0.304643 3.982441
v -6.500000 2.363534 3.211740
v -6.500000 3.785287 1.260854
v -6.500000 3.752622 -1.348850
v -6.500000 2.600596 -3.031426
v -6.500000 0.700485 -3.919987
v 6.500000 0.640595 -3.935887
v 6.500000 2.239884 -3.306896
v 6.500000 3.543828 -1.842261
v 6.500000 3.935887 0.640595
v 6.500000 3.049838 2.548773
v 6.500000 1.409643 3.738818
v 6.500000 -0.640595 3.935887
v 6.500000 -3.032588 2.589397
v 6.500000 -3.916036 0.680012
v 6.500000 -3.696174 -1.513586
v 6.500000 -2.178480 -3.342764
v 6.500000 -0.509088 -3.955047
v 6.500000 -1.409643 -3.738818
v 6.500000 -3.049838 -2.548773
v 6.500000 -3.935887 -0.640595
v 6.500000 -3.543828 1.842261
v 6.500000 -1.876735 3.501535
v 6.500000 0.509088 3.955047
v 6.500000 2.178480 3.342764
v 6.500000 3.696174 1.513586
v 6.500000 3.916036 -0.680012
v 6.500000 3.032588 -2.589397
v 6.500000 1.513586 -3.696174
v -6.500000 -0.304643 -3.982441
v -6.500000 1.866695 -3.526131
v -6.500000 3.211740 -2.363534
v -6.500000 3.975596 -0.005543
v -6.500000 3.261749 2.271289
v -6.500000 1.348850 3.752622
v -6.500000 -0.700485 3.919987
v -6.500000 -2.600596 3.031426
v -6.500000 -3.752622 1.348850
v -6.500000 -3.785287 -1.260854
v -6.500000 -2.363534 -3.211740
v -0.609375 -0.773372 -3.911472
v -0.507812 -2.205483 -3.327585
v -0.507812 -3.303676 -2.243925
v -0.406250 -3.886255 -0.903809
v -0.609375 -3.911472 0.773372
v -0.507812 -3.327585 2.205483
v -0.507812 -2.243925 3.303676
v -0.406250 -0.903809 3.886255
v -0.609375 0.814331 3.905984
v -0.507812 2.205483 3.327585
v -0.507812 3.303676 2.243925
v -0.406250 3.886255 0.903809
v -0.609375 3.911472 -0.773372
v -0.507812 3.327585 -2.205483
v -0.507812 2.243925 -3.303676
usemtl Paint_-_Metal_Flake_(Aqua)
f 21 20 60
f 21 61 20
f 21 19 61
f 59 19 21
f 22 19 59
f 22 62 19
f 58 62 22
f 58 18 62
f 23 18 58
f 54 55 26
f 54 25 55
f 54 56 25
f 27 56 54
f 53 56 27
f 53 24 56
f 28 24 53
f 28 57 24
f 52 57 28
f 52 23 57
f 18 23 52
f 32 31 49
f 32 50 31
f 48 50 32
f 48 30 50
f 33 30 48
f 33 51 30
f 47 51 33
f 47 29 51
f 34 29 47
f 34 40 29
f 46 40 34
f 43 44 37
f 43 36 44
f 38 36 43
f 38 45 36
f 42 45 38
f 39 45 42
f 39 35 45
f 41 35 39
f 41 46 35
f 40 46 41
f 52 2 63
f 28 2 52
f 28 1 2
f 28 3 1
f 53 3 28
f 53 77 3
f 27 77 53
f 27 4 77
f 54 4 27
f 54 76 4
f 54 5 76
f 26 5 54
f 26 75 5
f 55 75 26
f 55 6 75
f 55 74 6
f 25 74 55
f 25 7 74
f 56 7 25
f 56 73 7
f 56 8 73
f 24 8 56
f 24 72 8
f 24 9 72
f 57 9 24
f 57 71 9
f 23 71 57
f 23 10 71
f 58 10 23
f 58 70 10
f 58 11 70
f 22 11 58
f 22 69 11
f 59 69 22
f 59 12 69
f 21 12 59
f 21 68 12
f 21 13 68
f 60 13 21
f 60 67 13
f 20 67 60
f 20 14 67
f 20 66 14
f 61 66 20
f 61 15 66
f 19 15 61
f 19 65 15
f 19 16 65
f 62 16 19
f 62 64 16
f 62 17 64
f 18 17 62
f 18 63 17
f 52 63 18
f 41 63 40
f 41 17 63
f 39 17 41
f 39 64 17
f 39 16 64
f 42 16 39
f 42 65 16
f 42 15 65
f 38 15 42
f 38 66 15
f 43 66 38
f 43 14 66
f 37 14 43
f 37 67 14
f 37 13 67
f 44 13 37
f 44 68 13
f 36 68 44
f 36 12 68
f 36 69 12
f 45 69 36
f 45 11 69
f 45 70 11
f 35 70 45
f 35 10 70
f 46 10 35
f 46 71 10
f 34 71 46
f 34 9 71
f 47 9 34
f 47 72 9
f 47 8 72
f 33 8 47
f 33 73 8
f 33 7 73
f 48 7 33
f 48 74 7
f 32 74 48
f 32 6 74
f 49 6 32
f 49 75 6
f 49 5 75
f 31 5 49
f 31 76 5
f 50 76 31
f 50 4 76
f 50 77 4
f 30 77 50
f 30 3 77
f 51 3 30
f 51 1 3
f 29 1 51
f 29 2 1
f 40 2 29
f 40 63 2
g Body1

v 1.470332 0.203125 -3.711296
v 0.718431 0.812500 -3.928931
v 2.115857 0.406250 -3.389543
v 3.203240 0.406250 -2.388537
v 3.892906 0.812500 -0.900632
v 3.928931 0.812500 0.718431
v 3.389543 0.406250 2.115857
v 2.388537 0.406250 3.203240
v 0.900632 0.812500 3.892906
v -0.718431 0.812500 3.928931
v -2.115857 0.406250 3.389543
v -3.203240 0.406250 2.388537
v -3.892906 0.812500 0.900632
v -3.928931 0.812500 -0.718431
v -3.389543 0.406250 -2.115857
v -2.388537 0.406250 -3.203240
v -0.900632 0.812500 -3.892906
v -0.676722 6.500000 -3.929837
v -2.216697 6.500000 -3.317545
v -3.362634 6.500000 -2.147682
v -3.989756 6.500000 -0.000106
v -3.091203 6.500000 2.510267
v -1.582888 6.500000 3.660059
v 0.676722 6.500000 3.929837
v 2.216697 6.500000 3.317545
v 3.802420 6.500000 1.185889
v 3.787510 6.500000 -1.224053
v 2.388537 6.500000 -3.203240
v 0.472736 6.500000 -3.959557
v 1.529099 -6.500000 -3.691573
v 3.122915 -6.500000 -2.457047
v 3.989756 -6.500000 -0.000106
v 3.091203 -6.500000 2.510267
v 1.582888 -6.500000 3.660059
v -0.676722 -6.500000 3.929837
v -2.216697 -6.500000 3.317545
v -3.802420 -6.500000 1.185889
v -3.787510 -6.500000 -1.224053
v -2.388537 -6.500000 -3.203240
v -0.472736 -6.500000 -3.959557
v -1.582888 -6.500000 -3.660059
v -3.091203 -6.500000 -2.510267
v -3.989756 -6.500000 0.000106
v -3.122915 -6.500000 2.457047
v -1.529099 -6.500000 3.691573
v 0.472736 -6.500000 3.959557
v 2.388537 -6.500000 3.203240
v 3.787510 -6.500000 1.224053
v 3.802420 -6.500000 -1.185889
v 2.216697 -6.500000 -3.317545
v 0.676722 -6.500000 -3.929837
v 1.582888 6.500000 -3.660059
v 3.091203 6.500000 -2.510267
v 3.989756 6.500000 0.000106
v 3.122915 6.500000 2.457047
v 1.529099 6.500000 3.691573
v -0.472736 6.500000 3.959557
v -2.388537 6.500000 3.203240
v -3.787510 6.500000 1.224053
v -3.802420 6.500000 -1.185889
v -2.883196 6.500000 -2.766411
v -1.529099 6.500000 -3.691573
v -0.144320 0.406250 -3.989331
v -1.649602 0.507812 -3.632425
v -2.896224 0.203125 -2.750368
v -3.711296 0.203125 -1.470332
v -3.987837 0.507812 0.216603
v -3.632425 0.507812 1.649602
v -2.750368 0.203125 2.896224
v -1.470332 0.203125 3.711296
v 0.216603 0.507812 3.987837
v 1.649602 0.507812 3.632425
v 2.896224 0.203125 2.750368
v 3.711296 0.203125 1.470332
v 3.987837 0.507812 -0.216603
v 3.632425 0.507812 -1.649602
v 2.750368 0.203125 -2.896224
f 136 137 98
f 136 97 137
f 99 97 136
f 99 138 97
f 99 96 138
f 135 96 99
f 100 96 135
f 100 139 96
f 100 95 139
f 134 95 100
f 104 103 131
f 104 132 103
f 130 132 104
f 130 102 132
f 105 102 130
f 129 102 105
f 129 133 102
f 129 101 133
f 106 101 129
f 106 134 101
f 95 134 106
f 125 126 109
f 125 108 126
f 110 108 125
f 110 127 108
f 124 127 110
f 111 127 124
f 111 107 127
f 111 128 107
f 123 128 111
f 115 114 120
f 115 121 114
f 119 121 115
f 119 113 121
f 116 113 119
f 118 113 116
f 118 122 113
f 118 112 122
f 117 112 118
f 117 123 112
f 128 123 117
f 106 79 140
f 106 78 79
f 129 78 106
f 129 80 78
f 105 80 129
f 105 154 80
f 130 154 105
f 130 81 154
f 130 153 81
f 104 153 130
f 104 82 153
f 104 152 82
f 131 152 104
f 131 83 152
f 103 83 131
f 103 151 83
f 132 151 103
f 132 84 151
f 132 150 84
f 132 85 150
f 102 85 132
f 102 149 85
f 133 149 102
f 133 86 149
f 101 86 133
f 101 148 86
f 134 148 101
f 134 87 148
f 134 147 87
f 100 147 134
f 100 88 147
f 135 88 100
f 135 146 88
f 99 146 135
f 99 89 146
f 99 145 89
f 136 145 99
f 136 90 145
f 136 144 90
f 98 144 136
f 98 91 144
f 137 91 98
f 137 143 91
f 97 143 137
f 97 92 143
f 97 142 92
f 138 142 97
f 138 93 142
f 96 93 138
f 96 141 93
f 139 141 96
f 139 94 141
f 95 94 139
f 95 140 94
f 106 140 95
f 117 94 140
f 118 94 117
f 118 141 94
f 118 93 141
f 116 93 118
f 116 142 93
f 119 142 116
f 119 92 142
f 115 92 119
f 115 143 92
f 115 91 143
f 120 91 115
f 120 144 91
f 114 144 120
f 114 90 144
f 114 145 90
f 121 145 114
f 121 89 145
f 121 146 89
f 113 146 121
f 113 88 146
f 113 147 88
f 122 147 113
f 112 147 122
f 112 87 147
f 112 148 87
f 123 148 112
f 123 86 148
f 111 86 123
f 111 149 86
f 111 85 149
f 124 85 111
f 124 150 85
f 110 150 124
f 110 84 150
f 125 84 110
f 125 151 84
f 125 83 151
f 109 83 125
f 109 152 83
f 126 152 109
f 126 82 152
f 126 153 82
f 108 153 126
f 108 81 153
f 108 154 81
f 127 154 108
f 127 80 154
f 127 78 80
f 107 78 127
f 128 78 107
f 128 79 78
f 128 140 79
f 117 140 128
# 154 vertices
# 0 texture params
# 0 normals
# 300 facets

# 2 groups
