# WaveFront *.obj file (generated by Autodesk ATF)

mtllib arm_upper_sinister_collision.mtl

g Body1

v 0.600000 2.940494 -5.198248
v 0.600000 5.371600 -2.625829
v 0.600000 5.967601 0.235744
v 0.600000 4.943042 3.363837
v 0.600000 2.501572 5.423137
v 0.600000 -1.017707 5.893399
v 0.600000 -3.953738 4.494159
v 0.600000 -5.914075 0.788504
v 0.600000 -5.370906 -2.625703
v 0.600000 -3.538496 -4.820560
v 0.000000 -3.150519 -5.067292
v 0.000000 -5.181739 -3.009004
v 0.000000 -5.934933 0.683113
v 0.000000 -4.943042 3.363837
v -0.000000 -1.998295 5.613007
v -0.000000 1.533180 5.779137
v -0.000000 4.512310 3.939769
v -0.000000 5.862721 1.229317
v -0.000000 5.701604 -1.802907
v -0.000000 4.271238 -4.191655
v 0.000000 2.785916 -5.289577
v 0.000000 -0.736663 -5.912391
v 0.000000 1.172967 -5.868355
v -0.000000 5.122747 -3.104863
v -0.000000 5.979777 -0.168470
v -0.000000 5.378464 2.604276
v -0.000000 3.265652 4.998105
v -0.000000 -0.112580 5.989161
v 0.000000 -3.708537 4.691859
v 0.000000 -5.601379 2.137323
v 0.000000 -5.803991 -1.365530
v 0.000000 -4.403878 -4.054055
v 0.600000 -1.780290 -5.683855
v 0.600000 -4.600030 -3.836984
v 0.600000 -5.888959 -1.096762
v 0.600000 -5.133623 3.026819
v 0.600000 -2.727283 5.322473
v 0.600000 0.706797 5.942548
v 0.600000 3.953738 4.494159
v 0.600000 5.713438 1.783022
v 0.600000 5.840372 -1.339618
v 0.600000 4.403878 -4.054055
v 0.600000 0.736663 -5.912391
usemtl Steel_-_Satin
f 40 41 3
f 40 2 41
f 4 2 40
f 4 42 2
f 39 42 4
f 39 1 42
f 5 1 39
f 5 43 1
f 38 43 5
f 8 7 36
f 35 7 8
f 9 7 35
f 34 7 9
f 10 7 34
f 10 37 7
f 33 37 10
f 33 6 37
f 43 6 33
f 43 38 6
f 30 14 29
f 29 13 30
f 29 31 13
f 29 12 31
f 29 32 12
f 29 11 32
f 15 11 29
f 15 22 11
f 28 22 15
f 19 18 25
f 19 26 18
f 24 26 19
f 24 17 26
f 20 17 24
f 20 27 17
f 21 27 20
f 21 16 27
f 23 16 21
f 23 28 16
f 22 28 23
f 23 43 22
f 21 43 23
f 21 1 43
f 20 1 21
f 20 42 1
f 24 42 20
f 24 2 42
f 19 2 24
f 19 41 2
f 25 41 19
f 25 3 41
f 18 3 25
f 18 40 3
f 26 40 18
f 26 4 40
f 17 4 26
f 17 39 4
f 27 39 17
f 27 5 39
f 16 5 27
f 16 38 5
f 28 38 16
f 28 6 38
f 15 6 28
f 15 37 6
f 29 37 15
f 29 7 37
f 14 7 29
f 14 36 7
f 30 36 14
f 30 8 36
f 13 8 30
f 31 8 13
f 31 35 8
f 31 9 35
f 12 9 31
f 12 34 9
f 32 34 12
f 32 10 34
f 11 10 32
f 11 33 10
f 22 33 11
f 22 43 33
g Body4

v 5.152083 -1.742973 -5.736046
v 5.251041 -3.614378 -4.771999
v 5.547916 -5.042336 -3.233820
v 5.646875 -5.848830 -1.289686
v 5.152083 -5.785077 1.522820
v 5.350000 -4.867206 3.502807
v 4.756250 -3.512401 4.851695
v 5.350000 -1.384005 5.832450
v 5.251041 0.661985 5.947792
v 5.448958 2.975660 5.191510
v 5.152083 4.801503 3.580192
v 4.954166 5.686860 1.892762
v 5.350000 5.988314 0.135043
v 5.547916 5.371755 -2.632393
v 5.350000 3.993370 -4.471017
v 5.547916 2.470586 -5.464070
v 5.251041 0.628885 -5.955029
v 10.100000 2.801878 -5.272098
v 10.100000 5.418878 -2.536532
v 10.100000 5.993223 -0.067589
v 10.100000 5.418559 2.511585
v 10.100000 3.822045 4.617232
v 10.100000 1.480417 5.799741
v 10.100000 -2.122869 5.595254
v 10.100000 -4.970321 3.341267
v 10.100000 -5.969981 0.415656
v 10.100000 -5.327224 -2.729503
v 10.100000 -3.661452 -4.740938
v 10.100000 -1.405728 -5.826425
v 0.600000 -0.807311 -5.931084
v 0.600000 -3.730885 -4.683463
v 0.600000 -5.242772 -2.888399
v 0.600000 -5.959611 0.358570
v 0.600000 -4.582155 3.851410
v 0.600000 -2.466914 5.456067
v 0.600000 0.225129 5.987808
v 0.600000 2.470004 5.462846
v 0.600000 4.530668 3.896366
v 0.600000 5.836825 1.361899
v 0.600000 5.794103 -1.478894
v 0.600000 4.403878 -4.054055
v 0.600000 3.311478 -4.986343
v 0.600000 0.404997 -5.978336
v 0.600000 1.748901 -5.717553
v 0.600000 5.242772 -2.888399
v 0.600000 5.980618 0.213651
v 0.600000 5.458282 2.455545
v 0.600000 3.444012 4.901174
v 0.600000 1.425769 5.813492
v 0.600000 -1.084628 5.885323
v 0.600000 -3.625770 4.768282
v 0.600000 -5.480138 2.366986
v 0.600000 -5.794103 -1.478894
v 0.600000 -4.586860 -3.855284
v 0.600000 -2.379209 -5.479758
v 10.100000 -0.382453 -5.977997
v 10.100000 -2.496499 -5.439672
v 10.100000 -4.600030 -3.836984
v 10.100000 -5.843944 -1.248382
v 10.100000 -5.641693 1.996182
v 10.100000 -3.708399 4.673534
v 10.100000 -0.426272 5.957061
v 10.100000 2.837416 5.266513
v 10.100000 4.615801 3.820851
v 10.100000 5.897023 1.052537
v 10.100000 5.885701 -1.107554
v 10.100000 4.446089 -3.986235
v 10.100000 0.984307 -5.899832
v 5.350000 1.656489 -5.761440
v 5.350000 3.182590 -5.077223
v 5.350000 4.742547 -3.662693
v 5.547916 5.871677 -1.162273
v 5.547916 5.904637 1.042405
v 5.350000 5.299402 2.803853
v 4.954166 4.008935 4.454618
v 5.350000 1.892784 5.686942
v 5.251041 -0.444387 5.976728
v 5.448958 -2.431685 5.473784
v 5.547916 -4.340458 4.133445
v 5.350000 -5.302439 2.792726
v 5.350000 -5.983153 0.078623
v 5.547916 -5.537414 -2.293684
v 5.350000 -4.472399 -3.994621
v 5.350000 -2.642068 -5.378777
v 5.745833 -0.712958 -5.946405
usemtl Paint_-_Metal_Flake_(Aqua)
f 108 109 63
f 64 109 108
f 64 62 109
f 64 110 62
f 107 110 64
f 65 110 107
f 65 61 110
f 106 61 65
f 66 61 106
f 66 111 61
f 105 111 66
f 105 99 111
f 103 104 68
f 69 104 103
f 102 104 69
f 70 104 102
f 101 104 70
f 71 104 101
f 100 104 71
f 100 67 104
f 72 67 100
f 72 105 67
f 99 105 72
f 94 95 77
f 76 95 94
f 96 76 94
f 75 96 94
f 94 97 75
f 94 74 97
f 94 98 74
f 78 98 94
f 93 98 78
f 93 73 98
f 79 73 93
f 83 82 89
f 83 90 82
f 88 90 83
f 88 81 90
f 84 81 88
f 84 91 81
f 85 91 84
f 85 80 91
f 87 80 85
f 87 92 80
f 86 92 87
f 86 79 92
f 73 79 86
f 72 128 99
f 72 44 128
f 100 44 72
f 100 127 44
f 100 45 127
f 71 45 100
f 101 45 71
f 101 126 45
f 101 46 126
f 70 46 101
f 70 125 46
f 102 125 70
f 102 47 125
f 102 124 47
f 69 124 102
f 69 48 124
f 103 48 69
f 103 123 48
f 68 123 103
f 68 49 123
f 68 122 49
f 104 122 68
f 104 50 122
f 104 121 50
f 67 121 104
f 67 51 121
f 105 51 67
f 105 120 51
f 105 52 120
f 66 52 105
f 66 119 52
f 106 119 66
f 106 53 119
f 65 53 106
f 65 118 53
f 107 118 65
f 107 54 118
f 64 54 107
f 64 117 54
f 64 55 117
f 108 55 64
f 108 116 55
f 108 56 116
f 63 56 108
f 63 115 56
f 109 115 63
f 109 57 115
f 62 57 109
f 110 57 62
f 110 114 57
f 110 58 114
f 61 58 110
f 61 113 58
f 61 59 113
f 61 112 59
f 111 112 61
f 111 60 112
f 99 60 111
f 99 128 60
f 87 60 86
f 87 112 60
f 87 59 112
f 85 59 87
f 85 113 59
f 85 58 113
f 84 58 85
f 84 114 58
f 88 114 84
f 88 57 114
f 83 57 88
f 83 115 57
f 89 115 83
f 89 56 115
f 89 116 56
f 82 116 89
f 82 55 116
f 90 55 82
f 90 117 55
f 90 54 117
f 81 54 90
f 81 118 54
f 91 118 81
f 91 53 118
f 80 53 91
f 80 119 53
f 92 119 80
f 92 52 119
f 79 52 92
f 79 120 52
f 93 120 79
f 93 51 120
f 93 121 51
f 78 121 93
f 78 50 121
f 94 50 78
f 94 122 50
f 77 122 94
f 77 49 122
f 95 49 77
f 95 123 49
f 95 48 123
f 76 48 95
f 76 124 48
f 76 47 124
f 96 47 76
f 96 125 47
f 75 125 96
f 75 46 125
f 97 46 75
f 97 126 46
f 97 45 126
f 74 45 97
f 98 45 74
f 98 127 45
f 98 44 127
f 73 44 98
f 73 128 44
f 86 128 73
f 86 60 128
g Body5

v 17.236744 0.963021 4.800000
v 16.468975 1.708291 4.800000
v 17.333202 -0.738917 4.000000
v 14.990170 -1.919314 4.000000
v 13.801975 0.959912 4.000000
v 15.820045 1.953165 4.000000
v 17.850965 1.807800 4.800000
v 16.892958 2.639481 4.800000
v 15.500000 3.000000 4.800000
v 15.500000 -3.000000 4.000000
v 18.004887 -1.616965 4.000000
v 18.238436 1.125154 4.000000
v 15.500000 3.000000 4.000000
v 13.776694 -0.897886 4.800000
v 16.945480 -1.331562 4.800000
v 14.605330 -1.772924 4.800000
v 14.242398 1.499578 4.800000
v 13.577905 0.430944 4.800000
v 10.100000 3.000000 4.000000
v 10.100000 -3.000000 4.000000
v 17.253183 2.410584 4.000000
v 18.459171 -0.307165 4.000000
v 17.074287 -2.496069 4.000000
v 10.100000 -3.000000 4.800000
v 10.100000 3.000000 4.800000
v 18.449757 0.101467 4.800000
v 18.113997 -1.415101 4.800000
v 17.241236 -2.421099 4.800000
v 15.500000 -3.000000 4.800000
v 14.768517 1.833735 4.000000
v 13.569370 -0.380665 4.000000
v 14.196525 -1.475964 4.000000
v 15.917606 -1.922684 4.000000
v 16.855293 -1.455889 4.000000
v 17.366154 0.567963 4.000000
v 16.694515 1.584788 4.000000
v 17.452124 -0.110310 4.800000
v 15.281762 1.967144 4.800000
v 15.690232 -1.948237 4.800000
usemtl Steel_-_Satin
f 138 152 148
f 157 152 138
f 137 147 153
f 141 147 137
f 147 152 153
f 148 152 147
f 149 134 141
f 149 164 134
f 140 164 149
f 140 163 164
f 150 163 140
f 150 131 163
f 139 131 150
f 139 162 131
f 151 162 139
f 151 161 162
f 138 161 151
f 138 132 161
f 138 160 132
f 148 160 138
f 148 159 160
f 147 159 148
f 147 133 159
f 147 158 133
f 141 158 147
f 141 134 158
f 151 157 138
f 151 156 157
f 151 155 156
f 139 155 151
f 150 155 139
f 150 154 155
f 140 154 150
f 140 135 154
f 149 135 140
f 149 136 135
f 141 136 149
f 141 137 136
f 156 167 157
f 156 143 167
f 155 143 156
f 155 165 143
f 154 165 155
f 154 129 165
f 135 129 154
f 135 130 129
f 136 130 135
f 137 130 136
f 137 166 130
f 144 157 167
f 144 152 157
f 142 152 144
f 146 152 142
f 146 153 152
f 145 153 146
f 145 137 153
f 166 137 145
f 166 158 134
f 145 158 166
f 145 133 158
f 146 133 145
f 146 159 133
f 142 159 146
f 142 160 159
f 144 160 142
f 144 132 160
f 167 132 144
f 167 161 132
f 143 161 167
f 143 162 161
f 143 131 162
f 165 131 143
f 165 163 131
f 129 163 165
f 129 164 163
f 130 164 129
f 130 134 164
f 166 134 130
g Body6

v 17.446314 -0.135011 -4.000000
v 17.223936 0.970900 -4.000000
v 17.442814 -0.015495 -4.800000
v 15.303312 -1.955620 -4.800000
v 13.761346 0.956818 -4.800000
v 15.666718 1.943725 -4.800000
v 18.293520 1.054229 -4.000000
v 17.703318 2.013102 -4.000000
v 16.772013 2.699136 -4.000000
v 10.100000 -3.000000 -4.000000
v 17.673822 -2.039252 -4.800000
v 18.379108 0.798882 -4.800000
v 15.500000 3.000000 -4.800000
v 13.590466 -0.540459 -4.000000
v 16.117128 -1.861770 -4.000000
v 14.196525 -1.475964 -4.000000
v 14.242398 1.499578 -4.000000
v 13.577064 0.417996 -4.000000
v 10.100000 3.000000 -4.800000
v 10.100000 -3.000000 -4.800000
v 17.532463 2.133212 -4.800000
v 18.353191 -0.727299 -4.800000
v 15.500000 -3.000000 -4.800000
v 10.100000 3.000000 -4.000000
v 15.500000 3.000000 -4.000000
v 18.473885 -0.023287 -4.000000
v 18.113997 -1.415101 -4.000000
v 17.310017 -2.367081 -4.000000
v 15.500000 -3.000000 -4.000000
v 14.444054 1.666087 -4.800000
v 13.532847 -0.037677 -4.800000
v 14.014726 -1.269439 -4.800000
v 16.301441 -1.816971 -4.800000
v 17.024231 -1.252975 -4.800000
v 16.972584 1.300879 -4.800000
v 16.463417 1.712024 -4.000000
v 16.969849 -1.333402 -4.000000
v 15.326969 1.964626 -4.000000
v 14.977259 -1.917968 -4.000000
f 190 177 187
f 196 177 190
f 192 186 191
f 180 186 192
f 186 177 191
f 187 177 186
f 188 173 180
f 188 202 173
f 179 202 188
f 179 170 202
f 189 170 179
f 189 201 170
f 178 201 189
f 178 200 201
f 190 200 178
f 190 171 200
f 190 199 171
f 187 199 190
f 187 198 199
f 186 198 187
f 186 172 198
f 186 197 172
f 180 197 186
f 173 197 180
f 190 195 196
f 178 195 190
f 178 194 195
f 189 194 178
f 189 193 194
f 179 193 189
f 179 174 193
f 188 174 179
f 188 175 174
f 188 176 175
f 180 176 188
f 180 192 176
f 195 182 196
f 195 204 182
f 194 204 195
f 194 168 204
f 193 168 194
f 174 168 193
f 174 169 168
f 175 169 174
f 175 203 169
f 176 203 175
f 176 205 203
f 192 205 176
f 206 196 182
f 183 196 206
f 183 177 196
f 181 177 183
f 185 177 181
f 185 191 177
f 184 191 185
f 184 192 191
f 205 192 184
f 205 197 173
f 184 197 205
f 184 172 197
f 185 172 184
f 185 198 172
f 181 198 185
f 181 199 198
f 183 199 181
f 183 171 199
f 206 171 183
f 182 171 206
f 182 200 171
f 182 201 200
f 204 201 182
f 168 201 204
f 168 170 201
f 169 170 168
f 169 202 170
f 203 202 169
f 203 173 202
f 205 173 203
# 206 vertices
# 0 texture params
# 0 normals
# 404 facets

# 4 groups
