# WaveFront *.obj file (generated by Autodesk ATF)

mtllib arm_upper_dexter_collision.mtl

g Body1

v -0.000000 0.259938 5.981158
v -0.000000 1.686665 5.737800
v -0.000000 3.150588 5.095586
v -0.000000 4.341723 4.097459
v -0.000000 5.388756 2.607041
v -0.000000 5.855719 1.192505
v -0.000000 5.958054 -0.573164
v -0.000000 5.567161 -2.188917
v -0.000000 4.630051 -3.775557
v 0.000000 2.867998 -5.223835
v 0.000000 1.194318 -5.865196
v 0.000000 -0.797236 -5.916432
v 0.000000 -2.370347 -5.496214
v 0.000000 -3.698732 -4.707569
v 0.000000 -4.710441 -3.687328
v 0.000000 -5.484386 -2.400694
v 0.000000 -5.891867 -1.034183
v 0.000000 -5.958688 0.551386
v 0.000000 -5.567225 2.153561
v 0.000000 -4.404512 4.022536
v -0.000000 -2.964086 5.206284
v -0.000000 -1.392383 5.809774
v -0.600000 -1.561634 5.772430
v -0.600000 -3.083416 5.131073
v -0.600000 -4.253907 4.207830
v -0.600000 -5.015563 3.279566
v -0.600000 -5.583449 2.160306
v -0.600000 -5.936704 0.625754
v -0.600000 -5.813849 -1.382270
v -0.600000 -5.334260 -2.737401
v -0.600000 -4.607082 -3.812406
v -0.600000 -3.599133 -4.791417
v -0.600000 -2.006627 -5.621427
v -0.600000 0.167224 -5.957491
v -0.600000 2.401988 -5.460114
v -0.600000 3.893305 -4.551908
v -0.600000 4.801274 -3.579472
v -0.600000 5.484386 -2.400694
v -0.600000 5.891867 -1.034183
v -0.600000 5.901030 0.903949
v -0.600000 5.374979 2.636554
v -0.600000 4.404512 4.022536
v -0.600000 2.766859 5.296731
v -0.600000 1.279103 5.847291
v -0.600000 -0.195144 5.987747
usemtl Steel_-_Satin
f 36 38 37
f 39 38 36
f 36 40 39
f 36 41 40
f 42 41 36
f 36 43 42
f 35 43 36
f 35 44 43
f 34 44 35
f 34 45 44
f 27 29 28
f 27 30 29
f 26 30 27
f 26 31 30
f 25 31 26
f 25 32 31
f 24 32 25
f 24 33 32
f 23 33 24
f 23 34 33
f 45 34 23
f 17 19 18
f 16 19 17
f 15 19 16
f 15 20 19
f 14 20 15
f 14 21 20
f 13 21 14
f 13 22 21
f 12 22 13
f 12 1 22
f 8 10 9
f 7 10 8
f 6 10 7
f 5 10 6
f 4 10 5
f 3 10 4
f 2 10 3
f 2 11 10
f 1 11 2
f 1 12 11
f 1 44 45
f 2 44 1
f 2 43 44
f 3 43 2
f 3 42 43
f 4 42 3
f 5 42 4
f 5 41 42
f 6 41 5
f 6 40 41
f 7 40 6
f 7 39 40
f 8 39 7
f 8 38 39
f 9 38 8
f 9 37 38
f 9 36 37
f 10 36 9
f 10 35 36
f 11 35 10
f 11 34 35
f 12 34 11
f 12 33 34
f 13 33 12
f 14 33 13
f 14 32 33
f 14 31 32
f 15 31 14
f 15 30 31
f 16 30 15
f 16 29 30
f 17 29 16
f 17 28 29
f 18 28 17
f 19 28 18
f 19 27 28
f 19 26 27
f 20 26 19
f 20 25 26
f 20 24 25
f 21 24 20
f 22 24 21
f 22 23 24
f 22 45 23
f 1 45 22
g Body7

v -13.545481 0.063804 -4.800000
v -13.834898 -1.063845 -4.800000
v -13.541737 0.210548 -4.000000
v -14.626567 1.783084 -4.000000
v -17.265205 0.927503 -4.000000
v -16.519314 -1.699683 -4.000000
v -15.500000 -3.000000 -4.800000
v -18.400038 -0.701072 -4.800000
v -17.379887 2.274098 -4.800000
v -10.100000 3.000000 -4.800000
v -17.128262 -2.463364 -4.000000
v -18.479446 -0.060662 -4.000000
v -17.270859 2.403812 -4.000000
v -10.100000 -3.000000 -4.000000
v -13.965918 1.252616 -4.800000
v -17.457951 -0.111324 -4.800000
v -15.827085 -1.932436 -4.800000
v -15.711945 1.977361 -4.800000
v -14.801319 1.848209 -4.800000
v -10.100000 3.000000 -4.000000
v -15.500000 3.000000 -4.000000
v -18.127419 1.353477 -4.000000
v -18.148872 -1.351443 -4.000000
v -15.500000 -3.000000 -4.000000
v -10.100000 -3.000000 -4.800000
v -15.500000 3.000000 -4.800000
v -18.354641 0.787934 -4.800000
v -17.845058 -1.821374 -4.800000
v -16.760021 -2.704452 -4.800000
v -15.512181 -1.969818 -4.000000
v -17.221001 -0.974943 -4.000000
v -17.466423 0.110850 -4.000000
v -16.658749 1.595282 -4.000000
v -15.574047 1.971089 -4.000000
v -13.920111 1.194320 -4.000000
v -13.702325 -0.845922 -4.000000
v -14.337917 -1.587829 -4.000000
v -14.698492 -1.805994 -4.800000
v -17.262426 0.926020 -4.800000
v -16.650648 1.604268 -4.800000
v -16.968412 -1.307624 -4.800000
f 71 65 55
f 66 65 71
f 69 70 59
f 52 70 69
f 65 70 55
f 59 70 65
f 58 79 66
f 58 78 79
f 67 78 58
f 67 50 78
f 67 77 50
f 57 77 67
f 57 76 77
f 68 76 57
f 68 51 76
f 56 51 68
f 56 75 51
f 69 75 56
f 49 66 79
f 49 65 66
f 80 65 49
f 48 65 80
f 48 59 65
f 81 59 48
f 82 59 81
f 82 69 59
f 75 69 82
f 69 74 52
f 56 74 69
f 56 73 74
f 68 73 56
f 68 53 73
f 57 53 68
f 57 72 53
f 67 72 57
f 67 54 72
f 58 54 67
f 66 54 58
f 66 71 54
f 74 62 52
f 73 62 74
f 73 86 62
f 53 86 73
f 53 61 86
f 72 61 53
f 72 84 61
f 54 84 72
f 54 85 84
f 54 63 85
f 71 63 54
f 71 64 63
f 55 64 71
f 55 60 64
f 55 46 60
f 70 46 55
f 70 47 46
f 70 83 47
f 52 83 70
f 52 62 83
f 62 51 75
f 86 51 62
f 86 76 51
f 61 76 86
f 61 77 76
f 84 77 61
f 84 50 77
f 84 78 50
f 85 78 84
f 85 79 78
f 63 79 85
f 64 79 63
f 64 49 79
f 60 49 64
f 60 80 49
f 46 80 60
f 46 48 80
f 46 81 48
f 47 81 46
f 47 82 81
f 83 82 47
f 83 75 82
f 62 75 83
g Body8

v -13.549274 0.072422 4.000000
v -13.834898 -1.063845 4.000000
v -13.694878 -0.828614 4.800000
v -13.859756 1.078179 4.800000
v -16.513493 1.713619 4.800000
v -17.040770 -1.234185 4.800000
v -15.500000 -3.000000 4.000000
v -18.394897 -0.618811 4.000000
v -17.393513 2.301219 4.000000
v -10.100000 3.000000 4.000000
v -17.177299 -2.423747 4.800000
v -18.459602 0.059852 4.800000
v -16.833908 2.648551 4.800000
v -10.100000 -3.000000 4.800000
v -14.152905 1.429283 4.000000
v -17.281517 -0.770216 4.000000
v -15.350344 -1.981117 4.000000
v -16.277565 1.828281 4.000000
v -15.357895 1.964523 4.000000
v -10.100000 3.000000 4.800000
v -15.500000 3.000000 4.800000
v -18.029373 1.553329 4.800000
v -18.229591 -1.204594 4.800000
v -15.500000 -3.000000 4.800000
v -10.100000 -3.000000 4.000000
v -15.500000 3.000000 4.000000
v -18.211735 1.159887 4.000000
v -17.700066 -1.997192 4.000000
v -16.864983 -2.658915 4.000000
v -16.048935 -1.891506 4.800000
v -17.446749 0.009403 4.800000
v -17.122147 1.132427 4.800000
v -15.624148 1.968568 4.800000
v -14.626567 1.783084 4.800000
v -13.514573 0.018794 4.800000
v -14.364307 -1.616669 4.800000
v -15.170922 -1.958768 4.800000
v -14.517162 -1.722755 4.000000
v -17.434296 0.438577 4.000000
v -17.025600 1.261880 4.000000
v -16.269979 -1.811046 4.000000
f 112 106 96
f 107 106 112
f 110 111 100
f 93 111 110
f 106 111 96
f 100 111 106
f 99 119 107
f 99 91 119
f 108 91 99
f 108 118 91
f 98 118 108
f 98 117 118
f 109 117 98
f 109 92 117
f 97 92 109
f 97 116 92
f 110 116 97
f 120 107 119
f 120 106 107
f 90 106 120
f 121 106 90
f 121 100 106
f 89 100 121
f 122 100 89
f 122 110 100
f 123 110 122
f 116 110 123
f 97 93 110
f 97 115 93
f 97 114 115
f 109 114 97
f 109 94 114
f 98 94 109
f 98 113 94
f 108 113 98
f 108 95 113
f 99 95 108
f 99 112 95
f 107 112 99
f 93 127 103
f 115 127 93
f 114 127 115
f 114 102 127
f 94 102 114
f 94 125 102
f 113 125 94
f 113 126 125
f 95 126 113
f 95 104 126
f 112 104 95
f 112 105 104
f 112 101 105
f 96 101 112
f 96 87 101
f 111 87 96
f 111 88 87
f 111 124 88
f 93 124 111
f 93 103 124
f 127 116 103
f 127 92 116
f 102 92 127
f 102 117 92
f 125 117 102
f 125 118 117
f 126 118 125
f 126 91 118
f 104 91 126
f 104 119 91
f 105 119 104
f 105 120 119
f 101 120 105
f 101 90 120
f 87 90 101
f 87 121 90
f 87 89 121
f 88 89 87
f 88 122 89
f 124 122 88
f 124 123 122
f 103 123 124
f 103 116 123
g Body6

v -5.251041 -0.874752 5.925102
v -5.350000 -3.187179 5.072408
v -5.350000 -4.650561 3.778026
v -5.547916 -5.610134 2.095034
v -4.954166 -5.989083 0.271120
v -5.152083 -5.720208 -1.777733
v -5.152083 -4.737903 -3.660570
v -5.350000 -3.171060 -5.087452
v -5.152083 -1.089896 -5.896434
v -5.152083 0.972307 -5.916911
v -5.448958 2.924238 -5.223731
v -4.954166 4.598270 -3.847376
v -5.350000 5.668852 -1.949154
v -10.100000 5.889148 1.099605
v -0.600000 -0.540327 5.955476
v -0.600000 0.885783 5.925081
v -0.600000 2.119833 5.598940
v -0.600000 3.381523 4.934464
v -0.600000 4.746133 3.619445
v -0.600000 5.672358 1.893149
v -0.600000 5.979120 0.303227
v -0.600000 5.862747 -1.215977
v -0.600000 5.540592 -2.283258
v -0.600000 4.979843 -3.320855
v -0.600000 3.938441 -4.504469
v -0.600000 2.966462 -5.210354
v -0.600000 1.937665 -5.668920
v -0.600000 0.615321 -5.942646
v -0.600000 -0.928590 -5.918523
v -0.600000 -1.958647 -5.663325
v -0.600000 -3.047874 -5.156370
v -0.600000 -4.252774 -4.206964
v -0.600000 -5.118258 -3.113620
v -0.600000 -5.674243 -1.905224
v -0.600000 -5.972768 -0.357211
v -0.600000 -5.902407 1.035866
v -0.600000 -5.610426 2.101028
v -0.600000 -4.789614 3.570967
v -0.600000 -3.648538 4.749002
v -0.600000 -2.326198 5.502695
v -10.100000 0.249109 5.980373
v -10.100000 -1.035779 5.902263
v -10.100000 -2.140732 5.593042
v -10.100000 -3.462525 4.879804
v -10.100000 -4.373171 4.097170
v -10.100000 -5.139756 3.063407
v -10.100000 -5.817794 1.333255
v -10.100000 -5.942418 -0.615244
v -10.100000 -5.551589 -2.240911
v -10.100000 -5.039073 -3.243038
v -10.100000 -4.198737 -4.259727
v -10.100000 -2.980883 -5.191932
v -10.100000 -2.041978 -5.638494
v -10.100000 -0.874199 -5.921376
v -10.100000 0.260129 -5.986809
v -10.100000 1.635059 -5.753500
v -10.100000 3.245876 -5.023156
v -10.100000 4.607545 -3.798748
v -10.100000 5.423534 -2.539711
v -10.100000 5.820221 -1.439691
v -10.100000 5.978262 -0.248876
v -10.100000 5.487376 2.378211
v -10.100000 4.697402 3.718281
v -10.100000 3.837047 4.602892
v -10.100000 2.836294 5.266081
v -10.100000 1.564553 5.783025
v -5.152083 0.097646 5.994971
v -5.547916 0.972223 5.916288
v -5.646875 1.850518 5.698811
v -5.547916 2.880553 5.245735
v -5.350000 4.119498 4.341711
v -5.251041 5.166332 3.016016
v -5.152083 5.673868 1.927922
v -5.152083 5.902836 1.057961
v -5.350000 5.986177 0.281898
v -5.350000 5.925090 -0.885724
v -5.547916 5.177272 -3.010045
v -5.547916 3.894882 -4.553657
v -5.350000 1.731921 -5.737420
v -5.350000 0.016276 -5.989081
v -5.448958 -2.229127 -5.558315
v -5.547916 -3.944902 -4.511958
v -5.350000 -5.350119 -2.702926
v -5.350000 -5.961869 -0.606256
v -4.954166 -5.892146 1.111153
v -5.350000 -5.151265 3.070169
v -5.350000 -3.970381 4.491743
v -5.152083 -2.065263 5.623379
usemtl Paint_-_Metal_Flake_(Aqua)
f 184 186 185
f 184 187 186
f 184 188 187
f 184 141 188
f 184 189 141
f 190 189 184
f 184 191 190
f 184 192 191
f 183 192 184
f 183 193 192
f 183 168 193
f 182 168 183
f 174 176 175
f 173 176 174
f 173 177 176
f 172 177 173
f 172 178 177
f 171 178 172
f 171 179 178
f 170 179 171
f 170 180 179
f 170 181 180
f 169 181 170
f 168 181 169
f 168 182 181
f 161 163 162
f 161 164 163
f 160 164 161
f 160 165 164
f 159 165 160
f 159 166 165
f 158 166 159
f 158 167 166
f 157 167 158
f 156 167 157
f 156 142 167
f 155 142 156
f 150 152 151
f 149 152 150
f 148 152 149
f 147 152 148
f 146 152 147
f 145 152 146
f 145 153 152
f 144 153 145
f 144 154 153
f 143 154 144
f 143 155 154
f 142 155 143
f 168 128 194
f 169 128 168
f 169 215 128
f 170 215 169
f 170 129 215
f 171 129 170
f 171 214 129
f 172 214 171
f 172 130 214
f 173 130 172
f 173 213 130
f 173 131 213
f 174 131 173
f 174 212 131
f 174 132 212
f 175 132 174
f 175 211 132
f 175 133 211
f 176 133 175
f 176 210 133
f 177 210 176
f 177 134 210
f 178 134 177
f 178 209 134
f 179 209 178
f 179 135 209
f 179 208 135
f 180 208 179
f 181 208 180
f 181 136 208
f 181 207 136
f 182 207 181
f 182 137 207
f 183 137 182
f 183 206 137
f 183 138 206
f 184 138 183
f 184 205 138
f 185 205 184
f 185 139 205
f 185 204 139
f 186 204 185
f 186 140 204
f 187 140 186
f 187 203 140
f 188 203 187
f 188 202 203
f 141 202 188
f 141 201 202
f 141 200 201
f 189 200 141
f 189 199 200
f 190 199 189
f 190 198 199
f 191 198 190
f 191 197 198
f 192 197 191
f 192 196 197
f 193 196 192
f 193 195 196
f 168 195 193
f 168 194 195
f 143 194 142
f 143 195 194
f 143 196 195
f 144 196 143
f 144 197 196
f 145 197 144
f 145 198 197
f 146 198 145
f 146 199 198
f 147 199 146
f 147 200 199
f 147 201 200
f 148 201 147
f 148 202 201
f 148 203 202
f 149 203 148
f 149 140 203
f 150 140 149
f 150 204 140
f 151 204 150
f 151 139 204
f 152 139 151
f 152 205 139
f 152 138 205
f 153 138 152
f 154 138 153
f 154 206 138
f 155 206 154
f 155 137 206
f 155 207 137
f 156 207 155
f 156 136 207
f 156 208 136
f 157 208 156
f 158 208 157
f 158 135 208
f 158 209 135
f 159 209 158
f 159 134 209
f 160 134 159
f 160 210 134
f 161 210 160
f 161 133 210
f 161 211 133
f 162 211 161
f 162 132 211
f 163 132 162
f 163 212 132
f 164 212 163
f 164 131 212
f 165 131 164
f 165 213 131
f 165 130 213
f 165 214 130
f 166 214 165
f 166 129 214
f 167 129 166
f 167 215 129
f 167 128 215
f 142 128 167
f 142 194 128
# 215 vertices
# 0 texture params
# 0 normals
# 422 facets

# 4 groups
