# WaveFront *.obj file (generated by Autodesk ATF)

mtllib backpack_collision.mtl

g Body1

v -12.863366 2.180756 13.759476
v -12.540520 1.469683 13.854767
v 11.291359 1.943039 -25.989289
v 10.521983 0.514118 -25.083046
v 10.407658 0.316490 -24.769692
v 11.527303 2.478210 -26.023377
v 11.375238 1.719236 -25.825394
v 10.775035 0.415264 -24.795662
v 11.258963 0.730637 -24.992779
v 11.991690 2.013897 -25.504646
v 11.686171 1.568708 -25.518875
v 11.406590 0.643051 -24.695507
v 11.848030 1.335651 -25.173760
v 12.272720 2.619028 -25.416306
v 11.371450 0.447475 -24.259945
v 12.378050 2.097687 -25.087906
v 11.868361 0.988234 -24.688801
v 12.173496 1.461666 -24.875179
v 12.619234 2.393509 -24.824150
v 12.332418 1.685543 -24.846173
v 11.817804 0.755547 -24.291702
v 12.455177 1.398453 -24.115391
v 11.429283 0.390285 -23.854134
v 11.889519 0.692810 -23.811642
v 12.441017 1.570734 -24.482128
v 12.856679 2.272709 -24.034187
v 10.000000 5.393398 15.630043
v 10.000000 7.641985 14.271087
v 10.000000 8.987736 13.221168
v 10.000000 11.411690 10.630478
v 10.000000 12.711887 8.670410
v 10.000000 13.819275 6.337295
v 10.000000 14.628269 3.595604
v 10.000000 14.947430 1.311874
v -1.666667 6.405966 15.077911
v -0.833333 9.469179 12.773147
v 0.833333 12.402710 9.184608
v 0.000000 13.103752 7.937889
v -3.333333 13.885925 6.165100
v 0.000000 14.567410 3.865761
v 0.000000 14.942562 1.404068
v 10.584127 0.063732 13.437286
v 11.487719 0.397921 13.437286
v 12.146114 0.907557 13.437286
v -13.000000 9.909576 7.499451
v -12.707550 12.000000 -24.785805
v 12.481621 1.319023 13.437286
v 12.231779 1.625727 14.870575
v 12.120640 12.000000 -25.620640
v 11.985563 13.736095 -24.923859
v 12.990920 2.779377 -1.376106
v 12.520940 8.238846 12.036011
v 11.311703 13.221375 6.980636
v 11.913248 14.171902 2.099319
v -13.000000 11.158897 4.835312
v -13.000000 11.860088 2.030304
v -10.000000 12.000000 -26.500000
v -12.414206 12.000000 -25.272782
v -12.725144 13.252125 -23.500000
v -11.112492 14.785065 -23.500000
v -11.275450 13.741081 -25.574356
v -10.618303 14.268730 -25.360443
v -11.174645 13.143646 -26.006024
v -11.272201 12.729343 -26.112003
v -10.597446 14.116184 -25.528404
v -10.661675 13.868721 -25.747376
v -10.633950 13.281322 -26.132042
v -10.705899 13.573845 -25.948799
v -11.118527 12.569878 -26.217705
v -10.641733 12.881050 -26.287277
v -10.607561 12.351978 -26.412865
v -10.000000 12.454285 -26.465405
v -10.000000 12.812958 -26.376274
v -10.000000 13.421291 -26.138951
v -10.000000 13.775063 -25.917309
v -10.000000 14.092445 -25.646115
v -10.000000 14.324303 -25.395218
v -10.000000 14.523392 -25.117603
v -10.000000 14.769199 -24.647019
v -10.000000 14.891914 -24.288010
v -10.000000 14.975006 -23.878895
v -10.000000 15.000000 -23.500000
v -10.416297 14.968300 -23.500000
v -10.825024 14.883324 -23.500000
v -12.691485 2.028503 14.305588
v -11.524483 2.573166 15.979461
v -12.084709 2.851200 15.582123
v -12.800402 2.680006 14.455902
v -12.727916 3.103855 14.672546
v -13.000000 8.624306 9.270935
v -12.115023 12.768227 -25.477814
v -12.176910 13.031094 -25.277527
v -11.562974 14.091980 -24.969986
v -11.188233 14.625168 -24.314438
v -10.678928 14.872910 -24.021950
v -11.116762 14.577850 -24.542698
v -11.827551 13.702065 -25.153382
v -11.604088 13.611786 -25.452103
v -10.668565 14.793526 -24.345238
v -11.316468 14.350811 -24.804714
v -11.887662 13.314522 -25.416832
v -10.958447 14.495476 -24.857647
v -11.304198 14.076168 -25.220684
v -11.364311 13.449478 -25.738503
v -10.772547 14.637875 -24.691399
v -11.442278 13.212936 -25.832092
v -11.708084 13.035393 -25.732025
v -11.643602 12.684120 -25.912789
v -11.880829 12.467159 -25.779434
v -11.046365 13.712791 -25.723568
v -10.980546 14.162178 -25.327408
v -10.615087 14.438683 -25.130760
v -10.450916 14.667519 -24.787018
v -10.894493 14.329269 -25.160500
v 10.000000 14.820114 2.504806
v 12.139064 0.931097 -23.845787
v 12.195534 2.327583 -25.420067
v 10.635464 0.993166 -25.635140
v 11.804511 0.606705 13.437286
v 12.557072 1.498581 13.853226
v 12.324301 12.000000 -25.395218
v 11.791000 14.075726 -24.709789
v 12.951998 2.470911 -4.838974
v 12.926060 7.945314 10.975044
v 12.693487 11.887108 6.544746
v 12.424784 13.649113 1.925628
v 11.076535 0.202644 13.437286
v 12.237965 1.081041 13.963608
v 12.581169 12.000000 -25.019447
v 11.588293 14.242393 -24.697556
v 12.883325 2.174976 -4.838974
v 11.198547 8.543161 13.264267
v 12.972341 11.384026 5.362991
v 12.793198 12.987221 1.742477
v 0.833333 14.993183 0.482422
v 12.024456 1.129791 14.604347
v 12.785065 12.000000 -24.612492
v 11.108696 14.728313 -24.032452
v 12.772287 1.858114 -2.915161
v 12.133266 8.379185 12.552986
v 12.893541 11.497974 6.108269
v 12.879785 12.760960 1.434181
v 0.000000 14.792938 2.687439
v 11.827143 1.436192 15.222549
v 12.891914 12.000000 -24.288010
v 12.255296 12.795105 -25.302746
v 12.645032 1.586195 -4.742790
v 12.817566 7.623329 11.775726
v 12.953446 10.973068 6.633797
v 12.941944 12.475868 1.623199
v -2.500000 14.194992 5.252624
v 12.332689 1.242393 14.111015
v 12.975006 12.000000 -23.878895
v 12.023981 13.430710 -25.178383
v 12.504112 1.349651 -4.838974
v 12.872110 6.924051 12.144943
v 10.860981 12.777596 8.286133
v 10.560945 14.749962 2.588096
v 1.666667 13.729649 6.549972
v 10.779610 2.036606 16.153137
v 12.965405 12.454285 -23.500000
v 11.874508 13.631054 -25.173439
v 12.321299 1.101101 -3.107544
v 12.378948 7.274607 13.086838
v 12.313887 11.961281 7.748215
v 11.521398 14.423077 2.356827
v -1.666667 11.804626 10.088852
v 11.587860 1.274830 15.299766
v 12.921410 12.677925 -23.500000
v 11.695786 13.856461 -25.128987
v 12.047444 0.809908 -5.704697
v 11.727865 8.153687 13.180809
v 10.714459 12.634632 8.626137
v 12.174378 13.910378 2.286056
v -1.875000 10.305489 11.945709
v 10.426640 1.589596 16.041015
v 12.823742 13.005291 -23.500000
v 10.957532 14.729866 -24.283253
v 11.773922 0.584244 0.355331
v 10.611566 8.304611 13.696686
v 12.249340 11.740219 8.317947
v 12.310982 13.653984 2.861252
v 0.833333 7.437698 14.421783
v 11.091128 1.567307 15.822220
v 12.638950 13.421291 -23.500000
v 11.339187 14.421677 -24.647728
v 11.481520 0.394413 -8.590424
v 12.321318 7.594467 12.936951
v 11.436630 12.337166 8.560715
v 11.079861 14.581795 2.701164
v 0.833333 5.270378 15.693619
v 11.744692 1.033230 14.873871
v 12.417309 13.775063 -23.500000
v 11.962530 12.505066 -25.701924
v 11.165423 0.236078 -2.674683
v 12.646882 7.424755 12.447021
v 11.935740 12.102543 8.298218
v 10.718843 14.593781 3.306946
v 10.000000 15.000000 0.020874
v 11.640200 0.830822 14.696060
v 12.198458 14.037376 -23.500000
v 11.909478 12.975300 -25.589867
v 10.907344 0.141794 -8.253754
v 11.268202 7.569893 13.972900
v 12.636131 11.371201 7.834228
v 12.590663 13.319374 2.407738
v 10.000000 14.219524 5.157593
v 11.584387 1.038994 15.054947
v 11.568441 14.552330 -23.500000
v 11.375502 14.094021 -25.139179
v 10.575456 0.058268 -12.341858
v 10.725845 7.382452 14.340973
v 10.648306 12.407173 9.038574
v 12.720313 12.921082 3.240265
v 12.829870 12.642029 3.264923
v 12.819000 10.800514 8.006439
v 12.661425 6.906013 12.806000
v 10.284342 0.015862 5.645828
v 11.837454 13.370605 -25.430565
v 11.954118 14.276276 -23.500000
v 12.089544 0.867756 13.718284
v 10.000000 13.320995 7.479057
v 12.024001 0.894308 14.105285
v 11.252125 14.725143 -23.500000
v 10.621179 14.814003 -24.319786
v 10.206413 0.007998 -12.245674
v 12.016565 7.100294 13.699150
v 12.899508 10.472935 8.025345
v 11.920025 13.970467 3.301147
v 10.000000 12.053391 9.728058
v 11.118328 1.068222 15.435798
v 10.933470 14.848289 -23.500000
v 11.588168 13.625809 -25.449257
v 12.990379 7.500000 -23.727726
v 11.505132 6.717545 14.410103
v 11.977222 11.626007 9.019951
v 10.466320 14.416534 4.303863
v 10.000000 10.116318 12.131958
v 11.299319 0.794180 14.990295
v 10.529089 14.951996 -23.500000
v 10.968435 14.642990 -24.526947
v 12.928114 7.500000 -24.140526
v 12.775787 6.289150 12.941025
v 11.308882 11.906807 9.386078
v 11.102888 14.363327 3.819496
v 10.000000 8.564827 13.578888
v 11.573765 0.621880 14.360710
v 12.781337 2.924513 14.542892
v 11.633621 13.218910 -25.697952
v 12.823742 7.500000 -24.505291
v 12.924036 6.307657 12.333603
v 10.575201 11.876038 9.886200
v 11.374790 14.319313 3.376739
v 10.000000 6.526676 15.010055
v 11.761622 0.716202 14.251083
v 11.524874 3.389771 15.977310
v 11.477624 13.447899 -25.668411
v 12.658227 7.500000 -24.888542
v 10.833102 6.543011 14.858948
v 11.664654 11.453964 9.704033
v 12.925999 12.276924 3.340545
v 12.723921 1.837351 -23.943588
v 11.262453 0.496447 14.487633
v 12.214755 3.128889 15.446167
v 11.269773 14.008942 -25.327088
v 12.481621 7.875000 -25.180977
v 12.344033 6.542305 13.655075
v 12.268251 11.176224 9.154999
v 11.779867 13.786221 4.557663
v 12.915665 2.686188 -24.113651
v 10.576343 1.000925 15.582855
v 12.539436 3.045200 15.019119
v 10.944282 14.377350 -25.054268
v 11.652998 6.750000 -25.990845
v 11.512745 6.004757 14.841812
v 12.537594 10.816322 9.049881
v 10.677056 14.214691 4.915787
v 12.718779 2.015594 -24.280022
v 11.607934 0.531277 13.977630
v 12.885816 2.735926 14.188492
v 10.600053 14.597633 -24.866211
v 12.171112 7.875000 -25.557244
v 12.620515 5.585289 13.772102
v 12.907549 9.848446 8.908539
v 12.134075 13.459930 4.602966
v 12.777779 2.428253 -24.466026
v 10.930305 0.641235 15.026016
v 11.011407 3.356056 16.224899
v 11.708952 12.711304 -25.857056
v 10.968758 7.500000 -26.334194
v 12.960628 5.421528 12.718628
v 12.610901 9.885824 10.100746
v 12.533442 13.083656 4.053543
v 12.282084 1.156797 -24.098980
v 11.127783 0.306725 14.101127
v 12.533876 2.570635 14.969604
v 11.284805 13.694359 -25.610943
v 12.696201 13.202255 -24.004406
v 11.083220 5.743927 15.212875
v 12.253931 10.464634 10.180977
v 11.241221 14.027168 4.860473
v 10.472014 14.089100 5.454681
v 10.542473 11.172600 10.853042
v 12.784814 5.369869 13.492752
v 12.879316 12.545921 -24.116860
v 11.538206 12.605564 -26.000298
v 12.771103 2.446798 14.428642
v 10.889966 0.376719 14.575653
v 12.665203 2.129539 -24.557251
v 11.393501 0.367537 13.759270
v 11.964796 2.892742 15.699692
v 10.988382 14.127541 -25.363747
v 12.470795 13.633659 -23.931870
v 11.973685 5.773529 14.568153
v 12.762373 10.185352 9.189651
v 12.289441 13.250679 4.700287
v 10.264377 14.987045 -4.573044
v 12.139223 1.218533 -24.605290
v 10.514231 0.553762 15.081741
v 12.419809 2.250080 15.038055
v 10.614005 14.436798 -25.129681
v 12.817676 12.507820 -24.384442
v 11.067356 5.225067 15.499237
v 10.777816 10.512032 11.557617
v 10.714459 13.927910 5.788482
v 10.218205 14.990623 -16.149727
v 12.516621 1.905821 -24.701729
v 10.560077 0.297308 14.605453
v 12.595537 2.053614 14.590469
v 10.267036 14.849766 -24.386795
v 12.800828 12.856163 -24.123966
v 12.699617 4.556046 14.160232
v 11.232892 11.009804 10.693847
v 11.625534 13.586212 5.573105
v 10.695758 14.914307 -15.782211
v 11.743565 0.636641 -24.093208
v 10.654219 0.165277 14.147980
v 12.808897 2.195284 14.100715
v 11.395749 13.204361 -25.861466
v 12.718548 12.418243 -24.690094
v 12.878172 4.776131 13.513115
v 11.853886 10.468246 10.777206
v 12.742987 12.441429 4.849586
v 11.216837 14.739239 -10.637024
v 11.101068 0.246679 -23.938606
v 10.707291 0.102615 13.732941
v 12.884069 2.298771 13.830070
v 10.323835 14.736259 -24.672260
v 12.370118 13.634781 -24.325051
v 12.476723 5.010004 14.350113
v 12.434796 9.903849 10.503357
v 12.885086 12.101631 4.610443
v 11.553127 14.563576 -10.637024
v 12.129776 1.669201 -25.127999
v 10.989207 0.193506 13.782837
v 12.200949 2.606636 15.423462
v 11.129209 13.407967 -25.890068
v 12.122436 13.952263 -24.314881
v 10.340956 4.637579 15.973862
v 10.258250 10.644157 11.552063
v 12.654815 12.375385 5.598694
v 11.997199 14.231842 -19.273590
v 12.487235 2.495436 -25.094044
v 10.206911 0.208254 14.491966
v 12.259516 2.052666 15.158500
v 11.236992 12.390564 -26.198460
v 12.000900 14.114582 -24.210949
v 10.695564 4.611000 15.915062
v 11.339231 10.260704 11.517723
v 11.284981 13.576050 6.145401
v 12.081077 14.154762 -7.329399
v 11.605175 0.714363 -24.587845
v 10.388000 0.078735 13.981460
v 12.528253 1.757099 14.457870
v 11.157195 12.779373 -26.150723
v 12.673585 12.735870 -24.636608
v 11.581041 5.069633 15.289215
v 12.138088 9.888779 11.065002
v 12.065113 13.330307 5.241005
v 12.288677 13.934292 -10.292481
v 10.732098 4.101105 16.123260
v 12.743225 1.854492 13.829407
v 10.726496 13.204041 -26.137276
v 12.469590 13.133682 -24.759396
v 12.091808 4.258240 15.230583
v 12.943916 8.953028 9.776626
v 12.254280 12.861336 5.966430
v 12.523388 13.617603 -20.559891
v 11.590919 1.034340 -25.104408
v 11.775061 3.916910 15.673950
v 11.874128 2.278561 15.654663
v 10.497091 14.173519 -25.494805
v 12.372367 13.415073 -24.661640
v 10.603895 14.938591 0.020874
v 12.638530 9.213812 10.799972
v 10.484236 13.820122 6.214256
v 12.866884 12.874603 -10.085755
v 12.569212 13.545452 -8.799454
v 12.541094 12.691917 5.289596
v 12.282809 9.533401 11.213127
v 12.977896 4.112423 13.296539
v 12.570621 13.144890 -24.520241
v 10.843513 13.709450 -25.803837
v 12.663914 1.810867 14.119133
v 11.369118 4.009670 15.900223
v 12.162342 1.965626 -25.299874
v 11.078228 0.383532 -24.472218
v 12.092443 3.814043 15.423019
v 11.539237 2.721880 15.978119
v 11.042928 12.279064 -26.299004
v 11.735978 14.287323 -24.339642
v 10.825024 14.883324 0.020874
v 12.828238 9.168526 10.204498
v 10.885029 13.602741 6.499313
v 12.948469 12.545364 -13.393372
v 10.620473 0.120430 -24.024071
v 12.346792 3.707258 15.162536
v 11.592119 2.165857 15.834175
v 10.355384 14.025551 -25.679321
v 11.669104 14.438171 -23.991669
v 11.216837 14.739239 0.020874
v 11.242266 9.863235 12.015442
v 11.811226 13.302452 5.970550
v 12.991822 12.208778 -14.312157
v 10.717204 0.265537 -24.491265
v 12.602079 3.564308 14.813827
v 12.254417 1.423685 14.623787
v 10.400442 13.678291 -25.951828
v 11.333021 14.658363 -23.884342
v 11.694723 14.467949 0.020874
v 11.663546 9.693420 11.850357
v 12.760403 11.505909 7.034508
v 10.240551 14.966248 0.862305
v 11.926401 2.457369 -25.731011
v 12.802582 3.401413 14.416466
v 12.403183 1.483780 14.384842
v 10.871679 12.363708 -26.342659
v 12.538857 12.371162 -25.048378
v 12.010509 14.225327 0.020874
v 12.681139 8.630569 11.284683
v 12.493496 12.217384 6.676430
v 10.779116 14.865456 1.029678
v 11.469950 1.290421 -25.467865
v 12.951998 3.200687 13.926834
v 11.351513 1.904102 15.875213
v 10.382573 12.397614 -26.445175
v 12.456777 12.744476 -25.045479
v 12.260586 13.965744 0.020874
v 11.728517 9.185452 12.292023
v 12.145758 12.542065 7.014725
v 11.197966 14.709129 1.111809
v 11.677339 1.994892 -25.769776
v 12.975006 2.621105 13.437286
v 11.863556 1.850945 15.475365
v 10.568857 12.840073 -26.311218
v 12.125526 13.797493 -24.604836
v 12.584486 13.521400 0.020874
v 11.965137 8.919785 12.285080
v 11.724361 12.781166 7.347778
v 11.155084 14.660706 1.884140
v 11.145866 1.024502 -25.431442
v 12.891914 2.211994 13.437286
v 11.993206 1.646458 15.221886
v 10.677056 12.000000 -26.417660
v 11.437727 14.488007 -24.342217
v 12.693414 13.321182 0.020874
v 12.324510 8.847239 11.842926
v 11.252125 12.901939 7.733581
v 10.732774 14.826313 1.671409
v 10.929976 0.647449 -25.105362
v 12.739239 1.783163 13.437286
v 10.642626 2.794849 16.342583
v 11.250518 12.000000 -26.221646
v 12.276461 13.222397 -25.015968
v 12.823742 13.005291 0.020874
v 10.685177 9.714790 12.414352
v 10.915180 13.175484 7.461105
v 11.624985 14.439770 1.634216
v 12.623040 1.544094 13.437286
v 11.590296 1.619617 15.570877
v 11.772783 12.000000 -25.914208
v 10.679779 14.880379 -23.949047
v 12.943408 12.566105 0.020874
v 11.369118 8.936117 12.816589
v 10.518303 13.352707 7.316025
v 12.283438 13.894333 1.191627
v 10.553142 0.818842 -25.475182
v 11.521398 0.415514 -23.500000
v 12.584486 3.000000 -25.021401
v -7.142857 14.372326 -25.336319
v 10.000000 13.804512 -25.893295
v -12.859041 12.902020 -16.884751
v -10.685729 14.912689 -6.961884
v 3.333333 2.166830 16.319267
v 2.500000 0.065838 14.061218
v 10.000000 -0.000000 13.437286
v -12.164888 13.924446 2.200294
v -11.109048 14.376957 3.729782
v -12.050116 13.652260 4.200867
v -12.899754 11.608994 5.825439
v -12.130385 12.356110 7.436287
v -10.808685 12.268051 9.181961
v -12.633040 9.848322 10.073486
v -12.706228 9.223225 10.585342
v -12.141846 8.389320 12.532898
v -12.933519 5.530106 12.816902
v -10.825024 6.230381 15.051735
v -12.943407 12.566105 0.020874
v -10.000000 14.834663 2.413643
v -10.000000 10.188324 12.073112
v -5.000000 0.082340 -24.177056
v 10.000000 0.653210 -25.364590
v -11.792898 0.598476 -3.780876
v -11.931403 6.750000 -25.793556
v -12.364504 13.799767 -23.861336
v -12.168581 13.979771 -24.094093
v -12.676426 13.158051 -24.189163
v -12.807741 12.781025 -24.191204
v -11.650349 7.500000 -26.004112
v -11.479765 0.392681 -4.838974
v 10.000000 0.361050 -24.921292
v 3.928571 0.082340 -24.177056
v -10.000000 10.439816 11.802696
v -10.000000 14.920181 1.680115
v -11.321182 4.355875 15.788261
v -11.153143 6.128666 14.967644
v -10.662198 7.427916 14.326637
v -12.664866 7.615023 12.241760
v -12.838554 8.861702 10.505020
v -12.809654 9.879984 9.410797
v -11.432923 11.896580 9.296921
v -12.926893 10.979527 6.904236
v -11.249426 13.571045 6.193634
v -12.393768 13.086136 4.787140
v -12.014423 13.834881 3.564804
v -12.597261 13.400230 1.747833
v 10.000000 0.025890 13.822891
v -0.416667 0.183475 14.459427
v -0.000000 2.166830 16.319267
v -11.177122 14.755104 -11.923325
v -12.951054 12.528896 -13.944641
v 10.000000 13.421291 -26.138951
v -0.892857 14.523392 -25.117603
v 12.725143 3.000000 -24.752125
v 11.252125 0.274857 -23.500000
v 11.042671 1.398325 -25.801438
v 10.490696 1.770542 -26.183319
v 11.775061 0.582691 -23.500000
v 12.393295 3.000000 -25.304512
v 0.691964 14.215126 -25.509915
v 10.000000 14.066902 -25.674378
v -12.772272 13.138031 -8.799454
v -10.805986 14.885769 -18.354813
v 6.666666 2.166830 16.319267
v 0.000000 0.013569 13.692978
v -12.125180 14.083904 0.962005
v -11.885075 14.193764 2.124771
v -10.462786 14.608410 3.497207
v -11.660542 13.896896 4.461395
v -12.021750 12.936821 6.421737
v -11.259173 12.974926 7.566856
v -12.980049 9.877974 8.181442
v -12.443052 10.302147 9.999283
v -10.958347 10.218330 11.788269
v -11.548261 8.496325 13.066864
v -12.577808 5.953030 13.626221
v -12.901206 4.342831 13.644195
v -12.862417 12.898090 0.020874
v -10.000000 14.751213 2.961227
v -10.000000 9.931185 12.338165
v -2.544643 0.211704 -24.598980
v 10.000000 0.992071 -25.722473
v -12.138700 0.901501 -17.536164
v -12.235207 7.312500 -25.493832
v -12.194501 13.846912 -24.356499
v -11.863674 14.287254 -24.019692
v 11.120105 2.505819 -26.225018
v 12.092443 0.853886 -23.500000
v 12.120640 3.000000 -25.620640
v -3.571429 13.767113 -25.922554
v 10.000000 14.321320 -25.392784
v -12.629421 13.443169 -14.312157
v -10.251237 14.986900 -10.085755
v -6.666667 2.019365 16.272484
v 10.000000 4.137932 16.213089
v -12.796595 13.010124 1.394829
v -11.543497 14.450153 1.996902
v -12.583645 13.146957 3.459122
v -12.810554 12.270222 4.836738
v -10.650876 13.701767 6.414657
v -12.824193 11.017239 7.612312
v -12.735716 10.712967 8.546867
v -11.819276 10.839401 10.362541
v -11.384940 9.744209 12.027588
v -10.472838 8.962236 13.191803
v -12.404556 6.484760 13.607231
v -12.331773 5.575701 14.268211
v -12.739239 13.216835 0.020874
v -10.000000 14.430557 4.402344
v -10.000000 9.330742 12.912338
v 3.035714 0.582312 -25.269467
v 10.000000 1.399239 -26.032189
v -12.192427 0.958458 5.261062
v -12.616333 7.500000 -24.952126
v -12.684470 12.593086 -24.689018
v -12.487171 13.452793 -24.320519
v 10.374695 1.306686 -25.938416
v 12.324301 1.104782 -23.500000
v 11.895218 3.000000 -25.824303
v 4.575893 13.545216 -26.061676
v 10.000000 14.602081 -24.987717
v -12.580851 13.524727 -7.329399
v -1.458333 3.993319 16.268066
v -1.666667 1.946938 16.245323
v 10.000000 3.180195 16.424942
v -12.432435 13.680725 1.433777
v -11.111990 14.631042 2.293014
v -11.536287 14.154079 3.772552
v -12.029703 13.461800 4.936310
v -12.746270 11.988892 6.047851
v -12.623477 11.313354 7.970413
v -12.545261 10.825424 9.011917
v -12.210465 10.503868 10.212402
v -12.967642 7.282928 11.262085
v -10.227726 9.120628 13.092766
v -12.032919 6.488499 14.093994
v -11.815704 5.822163 14.703026
v -12.563576 13.553127 0.020874
v -10.000000 14.130573 5.468262
v -10.000000 8.491457 13.634987
v -0.000000 0.879360 -25.620640
v 10.000000 2.121376 -26.363987
v -12.414299 1.221249 -4.646599
v -12.797356 6.750000 -24.576534
v -12.387528 13.352112 -24.705536
v -12.612984 12.957375 -24.603024
v 10.779842 2.080456 -26.236649
v 12.563576 1.446873 -23.500000
v 11.650349 3.000000 -26.004112
v 5.892857 12.803955 -26.378349
v 10.000000 14.823742 -24.505291
v -12.318606 13.898113 -9.970902
v -2.291667 3.535395 16.380676
v 5.416667 1.563202 16.048172
v 10.000000 2.450661 16.376991
v -11.711351 14.413876 1.227981
v -10.690292 14.680885 2.832580
v -12.976035 11.688728 4.355491
v -10.859668 13.937279 5.622513
v -11.378141 13.286186 6.737572
v -11.119909 12.695686 8.241928
v -11.910050 11.491383 9.325149
v -10.455214 10.947319 11.143967
v -12.893590 8.180868 10.945022
v -12.507773 7.573126 12.632164
v -12.828978 5.558350 13.241211
v -12.443537 4.878670 14.467651
v -12.324301 13.895218 0.020874
v -10.000000 13.915600 6.077637
v -10.000000 7.833916 14.142708
v -0.000000 1.337044 -25.988892
v 10.000000 3.000000 -26.500000
v -12.636751 1.574501 -5.127548
v -12.921411 7.500000 -24.177925
v -12.247741 13.586014 -24.687126
v -11.874930 14.152557 -24.412872
v 10.249800 2.423347 -26.430290
v 12.769199 1.852980 -23.500000
v 11.250518 3.000000 -26.221646
v 2.857143 12.274940 -26.485336
v 10.000000 14.943405 -24.066105
v -12.405274 13.789825 -18.722321
v 3.750000 2.716497 16.416153
v -4.166667 1.597446 16.081337
v 10.000000 1.683285 16.125183
v -11.429521 14.606953 0.969124
v -12.672398 13.083008 2.918876
v -12.705179 12.838097 3.754684
v -12.946499 11.615021 5.226295
v -12.682701 11.799446 6.805595
v -10.612520 12.832611 8.315956
v -10.607989 11.925346 9.808258
v -12.974649 8.945740 9.512123
v -12.648588 8.678621 11.333549
v -11.079853 8.147671 13.644592
v -12.270710 6.210409 13.979950
v -11.970789 5.213692 14.885391
v -12.007929 14.222473 0.020874
v -10.000000 13.423901 7.272476
v -10.000000 6.996527 14.716873
v -5.089286 1.881117 -26.275261
v -10.256556 0.013596 -7.820893
v -12.820442 1.985806 -5.368027
v -12.981734 7.500000 -23.803211
v -12.542783 12.230553 -25.067280
v -12.569915 12.588734 -24.924133
v 10.410785 2.572737 -26.435921
v 12.883325 2.174976 -23.500000
v 10.536405 3.000000 -26.439938
v -5.357143 12.189835 -26.493263
v 10.000000 14.990379 -23.727726
v -12.038705 14.199852 -6.961884
v -0.416667 2.611927 16.406318
v -0.625000 1.108959 15.762787
v 10.000000 1.130421 15.774635
v -10.759837 14.884377 0.663345
v -12.380558 13.604858 2.636795
v -11.836318 13.919792 3.902344
v -12.606340 12.588173 5.261398
v -12.268431 12.585068 6.604187
v -12.207163 11.796623 8.302078
v -11.713804 11.586414 9.470329
v -11.521105 10.528732 11.060577
v -12.493972 8.640411 11.716827
v -12.853552 6.421524 12.591331
v -11.247148 6.654400 14.605667
v -11.662954 5.563740 14.974090
v -11.567547 14.550621 0.020874
v -10.000000 12.887589 8.345642
v -10.000000 5.966036 15.331192
v 3.105469 2.665169 -26.471184
v -10.700640 0.085588 -0.125626
v -12.921411 2.322075 -4.838974
v -12.818388 12.941032 -23.864700
v -11.520323 14.487770 -24.193688
v -11.245133 14.687885 -23.942093
v 10.227726 0.009621 -23.500000
v 12.968303 2.583702 -23.500000
v 10.151948 3.000000 -26.496151
v -0.000000 12.151947 -26.496151
v 10.000000 15.000000 -23.500000
v -11.885146 14.330650 -14.036522
v -1.666667 2.437885 16.379181
v -4.166667 0.796896 15.467682
v 10.000000 0.548857 15.159302
v -11.084787 14.747757 1.251419
v -11.616986 14.299629 2.748169
v -10.999179 14.242695 4.446892
v -11.559361 13.735367 5.243568
v -12.358206 12.045769 7.473892
v -12.916476 10.018951 8.586464
v -12.158885 10.967182 9.687561
v -12.914875 8.911371 10.057716
v -11.734999 9.197254 12.271560
v -12.734201 6.987101 12.565018
v -10.685589 6.579655 14.875259
v -11.011196 4.856857 15.679542
v -10.968758 14.834194 0.020874
v -10.000000 12.431355 9.148018
v -10.000000 5.149042 15.760704
v 10.000000 -0.000000 -23.500000
v -11.021582 0.180176 3.625816
v -12.979813 2.677891 0.836288
v -12.962349 12.306118 -23.838036
v -11.609533 14.294224 -24.555947
v -10.999539 14.773502 -24.050301
v 10.566105 0.056593 -23.500000
v 12.951998 3.000000 -24.029091
v 0.982143 14.966713 -23.899285
v 10.000000 12.677925 -26.421410
v 10.000000 12.000000 -26.500000
v -11.519446 14.581169 -20.559891
v -6.666667 2.166830 16.319267
v 0.416667 0.536036 15.138946
v 10.000000 0.337410 14.813568
v -10.596283 14.869484 1.536735
v -12.834938 12.677216 3.020477
v -10.540638 14.377914 4.436081
v -12.364981 12.795273 5.754883
v -11.731264 12.545464 7.791984
v -12.394042 11.317421 8.668861
v -11.390156 11.142189 10.397064
v -12.245098 9.419064 11.384147
v -12.867309 7.552479 11.633880
v -12.294890 7.268631 13.223755
v -12.974534 4.163296 13.306427
v -10.338418 5.591314 15.510879
v -10.416297 14.968300 0.020874
v -10.000000 11.744843 10.159614
v -10.000000 4.646667 15.994011
v 10.000000 0.071886 -24.140526
v -11.129756 0.222866 -15.419968
v -10.403704 7.500000 -26.464211
v -12.884188 12.454659 -24.168522
v -12.099888 13.352768 -25.155758
v -11.950390 13.886166 -24.771427
v 10.970003 0.162163 -23.500000
v 12.871035 3.000000 -24.360977
v 0.491071 14.764305 -24.650196
v 10.000000 13.005291 -26.323742
v -12.986051 12.284561 -13.944641
v -11.631390 14.509693 -4.389290
v -3.333333 2.166830 16.319267
v 1.666667 0.284590 14.710296
v 10.000000 0.098593 14.182480
v -12.933365 12.467518 2.014839
v -12.419828 13.446877 3.218979
v -12.869495 12.321342 4.064270
v -11.834556 13.157410 6.295830
v -10.601368 13.280590 7.408356
v -11.742804 12.088562 8.624710
v -10.938002 11.370014 10.426315
v -11.891255 10.232662 10.995666
v -10.891366 9.177969 12.846351
v -11.699587 7.162209 13.946037
v -12.723272 4.955294 13.890358
v -11.608855 4.494183 15.543503
v -10.000000 15.000000 0.020874
v -10.000000 10.805470 11.386627
v 1.071428 0.010704 -23.741936
v 10.000000 0.176258 -24.505291
v -11.226229 0.262959 2.375336
v -11.117230 6.750000 -26.271778
v -12.642174 13.356544 -23.903542
v -12.325474 12.503788 -25.315880
v -12.340209 13.134800 -24.982739
v -12.663334 1.772268 14.036651
v -11.666364 0.547638 13.866859
v -12.925532 2.763601 14.033226
v -12.734905 2.370792 14.481644
v -11.840127 2.902357 15.799942
v -12.529512 2.456875 14.941109
v -12.097634 2.306026 15.455734
v -12.383749 1.858843 14.839432
v -10.887960 0.654572 15.065124
v -10.368801 1.076403 15.701362
v -11.592654 3.733124 15.867065
v -12.453041 2.828396 15.136429
v -11.443503 3.410736 16.031845
v -12.850338 2.402599 14.143196
v -12.229097 2.004454 15.170196
v -10.573590 0.316540 14.630737
v -12.300834 3.725464 15.206947
v -11.343790 0.393055 14.049606
v -13.000000 12.000000 -23.500000
v -11.570357 3.587122 15.925110
v -12.179721 3.267916 15.473503
v -11.211403 2.979149 16.164360
v -10.426251 0.557295 15.112556
v -10.000000 3.430340 16.403488
v -11.508675 3.979143 15.825760
v -11.110609 0.558897 14.767929
v -13.000000 5.021349 12.414490
v -11.790945 3.390917 15.797470
v -12.109299 1.664366 15.097618
v -11.124832 0.237408 13.720894
v -10.000000 2.833183 16.425720
v -12.123705 0.991978 -24.150871
v -10.536406 4.115150 16.157516
v -11.421581 0.369457 13.647095
v -13.000000 6.245464 11.566376
v -12.266665 1.480196 14.668007
v -10.979354 0.227364 14.011963
v -10.000000 2.130518 16.305649
v -12.718895 2.327303 -24.552796
v -11.906068 0.779579 -24.134453
v -10.151947 4.136471 16.209526
v -10.971487 0.351973 14.448440
v -12.235230 1.088726 14.000442
v -10.735808 0.213203 14.253296
v -10.000000 1.546467 16.053726
v -12.529929 1.989151 -24.748879
v -11.220651 0.728369 -25.032875
v -11.741448 0.583788 -23.831272
v -10.000000 4.137932 16.213089
v -12.274284 1.072582 13.735870
v -10.635661 0.100538 13.834915
v -10.000000 1.202530 15.839180
v -12.145258 1.473030 -24.927056
v -11.741341 2.566479 -25.897679
v -10.497412 0.277218 -24.647423
v -12.595757 2.546389 -24.924706
v -12.433761 1.462070 14.256058
v -10.329619 0.091877 14.079651
v -10.000000 1.081097 15.743324
v -12.118923 1.202194 -24.612068
v -11.797566 2.013550 -25.676781
v -12.007929 3.000000 -25.722473
v -10.280401 0.071663 -24.057808
v -11.644361 2.218534 15.804947
v -10.529089 0.048004 13.437286
v -10.000000 0.909309 15.587402
v -11.496542 0.484692 -24.125992
v -10.389965 0.176838 -24.425339
v -12.393295 3.000000 -25.304512
v -11.650349 3.000000 -26.004112
v -11.848795 1.294464 15.058967
v -10.825024 0.116676 13.437286
v -10.000000 0.606119 15.237129
v -12.400892 2.506435 -25.220024
v -11.231489 1.279434 -25.623638
v -12.837837 3.000000 -24.470001
v -12.654815 3.000000 -24.886765
v -11.772560 1.739590 15.485000
v -11.216837 0.260761 13.437286
v -10.000000 0.337410 14.813568
v -12.339531 1.915150 -25.017567
v -11.462076 1.960356 -25.894745
v -12.951998 3.000000 -24.029091
v -12.904231 3.000000 -24.251957
v -12.156206 1.128014 14.344154
v -11.617601 0.476612 13.437286
v -10.000000 0.157120 14.386803
v -11.879961 1.059502 -24.788857
v -10.953125 1.357624 -25.815415
v -12.971188 2.621593 -23.500000
v -13.000000 3.000000 -23.500000
v -11.249442 1.702885 15.832519
v -11.836318 0.627672 13.437286
v -10.000000 0.044752 13.937347
v -10.918271 0.174221 -23.891407
v -10.586147 0.529022 -25.094277
v -12.785065 1.887508 -23.500000
v -12.883324 2.174976 -23.500000
v -11.007699 2.217331 16.142486
v -12.010510 0.774673 13.437286
v -10.000000 -0.000000 13.437286
v -12.183344 2.074265 -25.326679
v -10.864454 1.068474 -25.623787
v -12.584486 1.478601 -23.500000
v -12.693414 1.678818 -23.500000
v -11.940841 0.786678 13.995209
v -12.321318 1.107216 13.437286
v -12.947194 2.568539 -23.842022
v -11.583048 0.675690 -24.530247
v -11.225275 2.416864 -26.171402
v -11.892785 0.678682 -23.500000
v -12.321318 1.107216 -23.500000
v -11.918053 1.065067 14.689285
v -12.584486 1.478601 13.437286
v -12.782126 2.097532 -24.143791
v -11.090703 0.321383 -24.272820
v -11.129410 1.893511 -26.046173
v -11.112492 0.214935 -23.500000
v -11.487719 0.397921 -23.500000
v -10.546582 2.465958 16.327698
v -12.739239 1.783163 13.437286
v -12.780567 1.952507 -23.886971
v -12.067637 2.574348 -25.616749
v -10.343355 0.444775 -25.020569
v -10.529089 0.048004 -23.500000
v -10.825024 0.116676 -23.500000
v -11.567224 0.886246 14.865021
v -12.883324 2.174976 13.437286
v -12.895336 2.573687 -24.143772
v -11.616860 0.879486 -24.859772
v -11.073173 1.587004 -25.910309
v -10.000000 0.024994 -23.878895
v -10.000000 -0.000000 -23.500000
v -10.969905 1.538059 15.848999
v -12.951998 2.470911 13.437286
v -12.511292 1.431616 -23.946594
v -11.695349 1.241585 -25.235481
v -10.534221 0.782450 -25.434349
v -10.000000 0.218510 -24.611061
v -10.000000 0.078590 -24.177925
v -10.476478 1.874716 16.170318
v -12.990378 2.772274 13.437286
v -12.290360 1.114712 -23.921276
v -11.179827 0.653145 -24.934570
v -10.626118 1.219109 -25.826950
v -10.000000 0.653210 -25.364590
v -10.000000 0.415514 -25.021401
v -11.766953 0.784309 14.399788
v -13.000000 3.000000 13.437286
v -12.642075 1.963558 -24.461289
v -10.767201 0.225765 -24.326935
v -10.562088 1.027523 -25.685661
v -10.000000 1.480553 -26.081169
v -10.000000 0.992071 -25.722473
v -11.351203 1.109192 15.319809
v -12.975006 3.143719 13.787865
v -12.734449 2.625946 -24.669987
v -10.566757 0.065647 -23.713970
v -10.918446 2.364311 -26.276112
v -10.000000 2.621593 -26.471188
v -10.000000 2.031242 -26.334194
v -10.852407 1.060520 15.549530
v -12.910957 3.271000 14.098350
v -12.588806 1.663345 -24.195366
v -11.906528 1.490410 -25.246578
v -10.542870 1.626919 -26.105187
v 13.000000 3.000000 -23.500000
v -10.000000 3.000000 -26.500000
v -11.447980 0.545786 14.356216
v -12.785065 3.421980 14.466636
v -12.361675 1.382942 -24.379486
v -10.871922 0.414867 -24.738014
v -10.766083 1.974321 -26.202385
v 13.000000 4.574936 12.647888
v 13.000000 3.000000 13.437286
v -11.421290 14.638950 -23.500000
v -12.602079 3.564308 14.813827
v -12.068083 0.846218 -23.770424
v -11.544306 1.494549 -25.577069
v -10.398822 2.423735 -26.405487
v 13.000000 6.961485 10.983902
v 13.000000 5.658501 12.007904
v -12.871035 12.860977 -23.500000
v -11.775061 14.417309 -23.500000
v -12.470718 1.635818 -24.507366
v -11.432425 0.964333 -25.171696
v -10.491394 3.000000 -26.456799
v 13.000000 9.429150 8.250534
v 13.000000 8.216908 9.778763
v -12.037378 12.000000 -25.698456
v -12.951998 12.529091 -23.500000
v -12.037378 14.198456 -23.500000
v -11.130580 0.843496 -25.240448
v -10.825024 3.000000 -26.383324
v 13.000000 11.141556 4.840050
v 13.000000 10.029228 7.314087
v -13.000000 12.000000 0.020874
v -11.743334 12.000000 -25.938217
v -12.951998 12.000000 -24.029091
v -12.276275 13.954117 -23.500000
v -11.336372 3.000000 -26.181137
v 13.000000 12.000000 0.020874
v 13.000000 11.685837 3.022880
v -13.000000 11.712814 2.835480
v -13.000000 11.955757 1.069427
v -11.109638 12.000000 -26.277920
v -12.848290 12.000000 -24.433472
v -12.500897 13.648232 -23.500000
v 13.000000 12.000000 -23.500000
v 13.000000 11.840996 2.091293
usemtl Paint_-_Metal_Flake_(Aqua)
f 394 335 317
f 394 344 335
f 371 362 353
f 371 380 362
f 398 388 380
f 398 466 388
f 424 1018 1025
f 415 1018 424
f 483 1018 415
f 475 483 397
f 240 731 326
f 326 731 199
f 335 240 326
f 232 240 335
f 317 326 199
f 335 326 317
f 1025 415 424
f 161 415 1025
f 169 415 161
f 169 397 415
f 177 397 169
f 177 466 397
f 185 466 177
f 185 388 466
f 193 388 185
f 193 380 388
f 201 380 193
f 201 362 380
f 220 362 201
f 209 362 220
f 209 353 362
f 209 344 353
f 224 344 209
f 232 344 224
f 232 335 344
f 199 394 317
f 412 344 394
f 421 344 412
f 421 353 344
f 430 353 421
f 430 371 353
f 439 371 430
f 448 371 439
f 448 380 371
f 448 398 380
f 457 398 448
f 457 466 398
f 475 397 466
f 483 415 397
f 115 33 158
f 34 469 433
f 34 158 469
f 115 158 34
f 33 198 158
f 33 237 198
f 199 442 394
f 433 442 199
f 394 442 412
f 433 469 442
f 158 198 190
f 469 158 460
f 442 451 412
f 442 460 451
f 469 460 442
f 158 190 460
f 198 253 190
f 198 245 253
f 237 245 198
f 412 451 421
f 421 451 430
f 460 478 451
f 190 166 460
f 190 253 166
f 451 478 430
f 460 166 478
f 166 54 478
f 166 253 54
f 430 478 439
f 253 229 54
f 478 54 439
f 54 486 439
f 54 174 486
f 54 229 174
f 439 486 448
f 174 126 486
f 174 182 126
f 229 182 174
f 486 457 448
f 486 126 457
f 126 206 457
f 182 206 126
f 182 293 206
f 293 214 206
f 457 134 466
f 206 134 457
f 206 214 134
f 466 142 475
f 466 134 142
f 214 215 134
f 134 150 142
f 134 261 150
f 215 261 134
f 352 261 215
f 142 150 475
f 150 1018 483
f 261 1019 150
f 150 1026 1018
f 1019 1026 150
f 261 1011 1019
f 149 1011 133
f 149 1012 1011
f 291 990 998
f 291 401 990
f 401 991 990
f 261 133 1011
f 228 1012 149
f 228 1004 1012
f 284 1004 228
f 386 1004 284
f 386 1005 1004
f 124 997 1005
f 124 998 997
f 251 998 124
f 291 998 251
f 444 991 401
f 149 133 141
f 124 1005 386
f 341 401 291
f 352 133 261
f 141 133 352
f 141 228 149
f 413 124 386
f 341 444 401
f 216 228 141
f 148 251 124
f 148 156 251
f 243 251 156
f 304 291 251
f 304 341 291
f 435 444 341
f 343 141 352
f 432 141 125
f 216 141 432
f 315 228 216
f 315 284 228
f 315 386 284
f 315 413 386
f 440 124 413
f 148 124 440
f 343 352 214
f 361 141 343
f 125 141 361
f 196 156 148
f 217 156 196
f 217 243 156
f 243 304 251
f 332 341 304
f 332 435 341
f 205 216 432
f 205 315 216
f 292 413 315
f 395 440 413
f 283 304 243
f 293 343 214
f 399 361 343
f 441 125 361
f 276 315 205
f 395 413 292
f 267 243 217
f 267 283 243
f 350 304 283
f 350 332 304
f 426 435 332
f 293 399 343
f 441 432 125
f 441 205 432
f 292 315 276
f 351 395 292
f 400 395 351
f 467 440 395
f 467 148 440
f 52 148 467
f 52 196 148
f 164 217 196
f 350 426 332
f 316 399 293
f 399 441 361
f 165 205 441
f 268 292 276
f 140 196 52
f 188 196 140
f 188 164 196
f 350 283 267
f 387 441 399
f 450 165 441
f 165 276 205
f 181 276 165
f 268 276 181
f 300 292 268
f 300 351 292
f 400 467 395
f 267 217 164
f 378 400 351
f 467 140 52
f 314 350 267
f 379 316 285
f 379 399 316
f 379 387 399
f 450 441 387
f 197 165 450
f 458 467 400
f 458 140 467
f 227 164 188
f 227 267 164
f 314 267 227
f 385 350 314
f 385 426 350
f 385 417 426
f 408 417 385
f 197 181 165
f 197 268 181
f 236 268 197
f 260 300 268
f 342 351 300
f 342 378 351
f 172 188 140
f 172 227 188
f 269 379 285
f 379 450 387
f 459 197 450
f 260 268 236
f 342 300 260
f 431 458 400
f 377 408 385
f 423 450 379
f 423 459 450
f 431 400 378
f 449 458 431
f 172 140 458
f 390 408 377
f 334 379 269
f 334 423 379
f 189 197 459
f 189 236 197
f 244 236 189
f 260 236 244
f 369 378 342
f 369 431 378
f 449 172 458
f 204 227 172
f 235 227 204
f 235 314 227
f 377 385 314
f 369 342 333
f 484 172 449
f 275 314 235
f 377 314 275
f 405 390 377
f 301 334 269
f 370 423 334
f 53 423 370
f 53 459 423
f 333 342 260
f 422 431 369
f 370 334 301
f 468 459 53
f 468 189 459
f 333 260 244
f 132 172 484
f 132 204 172
f 212 235 204
f 299 377 275
f 422 449 431
f 476 449 422
f 484 449 476
f 259 275 235
f 259 299 275
f 299 323 377
f 405 377 323
f 414 53 370
f 414 477 53
f 477 468 53
f 477 189 468
f 157 189 477
f 213 244 189
f 324 369 333
f 324 422 369
f 180 204 132
f 325 370 301
f 325 414 370
f 173 189 157
f 173 213 189
f 252 333 244
f 303 333 252
f 476 422 324
f 476 132 484
f 212 204 180
f 368 405 323
f 237 277 301
f 302 301 277
f 302 325 301
f 485 157 477
f 252 244 213
f 303 324 333
f 360 476 324
f 259 235 212
f 368 381 405
f 396 414 325
f 396 477 414
f 485 477 396
f 31 157 485
f 173 157 31
f 29 132 476
f 29 180 132
f 28 259 212
f 254 259 28
f 254 299 259
f 27 323 299
f 27 368 323
f 359 368 27
f 207 325 302
f 207 396 325
f 31 213 173
f 360 324 303
f 27 299 254
f 207 277 237
f 207 302 277
f 230 213 31
f 230 252 213
f 30 360 303
f 29 476 238
f 28 180 29
f 28 212 180
f 359 381 368
f 585 381 359
f 222 485 396
f 222 31 485
f 30 252 230
f 30 303 252
f 27 585 359
f 301 245 237
f 269 245 301
f 269 253 245
f 269 229 253
f 285 229 269
f 285 182 229
f 316 182 285
f 316 293 182
f 352 215 214
f 483 475 150
f 34 433 199
f 207 237 33
f 32 396 207
f 32 222 396
f 238 360 30
f 238 476 360
f 246 28 29
f 42 496 218
f 226 218 496
f 203 42 218
f 127 42 203
f 226 496 751
f 203 218 211
f 211 218 226
f 195 127 203
f 43 127 195
f 187 43 195
f 728 983 51
f 123 728 51
f 698 728 123
f 131 698 123
f 51 983 991
f 668 698 131
f 139 668 131
f 147 668 139
f 638 668 147
f 727 211 226
f 757 211 727
f 757 203 211
f 787 203 757
f 787 195 203
f 545 195 787
f 545 187 195
f 488 187 545
f 488 179 187
f 548 179 488
f 548 171 179
f 578 171 548
f 578 163 171
f 608 163 578
f 608 155 163
f 638 155 608
f 638 147 155
f 453 51 991
f 453 123 51
f 462 123 453
f 462 131 123
f 462 139 131
f 471 139 462
f 471 147 139
f 479 147 471
f 479 155 147
f 47 155 479
f 47 163 155
f 44 163 47
f 44 171 163
f 44 179 171
f 119 179 44
f 119 187 179
f 43 187 119
f 727 226 751
f 290 699 729
f 669 699 290
f 274 669 290
f 639 669 274
f 609 639 274
f 579 609 274
f 282 579 274
f 549 579 282
f 266 549 282
f 489 549 266
f 258 489 266
f 544 489 258
f 250 544 258
f 788 544 250
f 242 788 250
f 758 788 242
f 983 758 242
f 234 983 242
f 1025 983 234
f 234 153 1025
f 242 153 234
f 242 145 153
f 250 145 242
f 250 137 145
f 250 129 137
f 258 129 250
f 266 129 258
f 266 121 129
f 282 121 266
f 282 49 121
f 282 481 49
f 274 481 282
f 274 473 481
f 290 473 274
f 290 464 473
f 729 464 290
f 729 761 464
f 729 662 761
f 185 177 298
f 145 137 322
f 313 185 298
f 137 340 322
f 349 298 402
f 349 313 298
f 201 193 313
f 358 313 349
f 367 313 358
f 367 201 313
f 393 402 384
f 349 402 393
f 456 349 393
f 456 358 349
f 411 420 367
f 393 384 474
f 411 358 456
f 411 367 358
f 465 420 411
f 438 146 447
f 438 121 146
f 50 393 474
f 50 456 393
f 411 456 122
f 50 474 154
f 122 456 50
f 130 411 122
f 232 482 240
f 121 49 146
f 162 50 154
f 170 50 162
f 170 122 50
f 130 122 170
f 186 411 130
f 465 411 186
f 429 224 209
f 138 224 429
f 138 232 224
f 482 232 138
f 701 240 482
f 49 194 146
f 162 154 219
f 210 130 170
f 241 465 186
f 241 138 465
f 178 138 241
f 240 701 731
f 170 162 233
f 186 130 210
f 225 178 241
f 49 481 194
f 233 162 219
f 265 170 233
f 265 210 170
f 273 186 210
f 241 186 273
f 420 209 220
f 671 701 482
f 257 219 249
f 257 233 219
f 265 233 297
f 281 241 273
f 348 241 281
f 348 225 241
f 330 225 348
f 257 249 339
f 297 233 257
f 312 210 265
f 273 210 312
f 194 306 289
f 194 481 306
f 339 357 257
f 257 403 297
f 257 357 403
f 481 366 306
f 312 403 392
f 348 641 330
f 403 419 392
f 392 611 321
f 321 611 281
f 281 611 348
f 145 305 153
f 145 322 305
f 438 376 340
f 438 447 376
f 194 202 146
f 366 437 375
f 410 437 366
f 153 161 1025
f 305 161 153
f 340 376 322
f 289 202 194
f 366 375 306
f 437 455 375
f 437 446 455
f 551 542 491
f 305 331 161
f 322 331 305
f 322 402 331
f 376 402 322
f 376 384 402
f 447 384 376
f 447 474 384
f 447 146 474
f 289 249 202
f 289 306 249
f 375 455 383
f 383 428 403
f 383 790 428
f 403 312 297
f 790 542 428
f 383 403 357
f 455 790 383
f 760 790 455
f 437 761 446
f 437 464 761
f 481 473 366
f 437 473 464
f 410 473 437
f 410 366 473
f 438 129 121
f 340 129 438
f 340 137 129
f 760 446 761
f 339 375 383
f 339 306 375
f 339 249 306
f 219 146 202
f 154 146 219
f 474 146 154
f 169 161 331
f 429 465 138
f 420 465 429
f 209 420 429
f 641 671 330
f 348 611 641
f 581 611 392
f 551 581 392
f 312 321 273
f 392 321 312
f 419 551 392
f 403 551 419
f 428 551 403
f 428 542 551
f 312 265 297
f 281 273 321
f 482 330 671
f 482 225 330
f 482 178 225
f 138 178 482
f 220 367 420
f 201 367 220
f 193 185 313
f 169 298 177
f 331 298 169
f 331 402 298
f 202 249 219
f 383 357 339
f 446 760 455
f 731 808 199
f 82 808 731
f 347 462 453
f 280 453 991
f 280 347 453
f 338 347 280
f 409 256 288
f 382 471 347
f 479 471 382
f 409 356 311
f 409 391 356
f 409 418 391
f 445 454 418
f 160 418 409
f 445 418 160
f 311 356 264
f 418 454 391
f 445 480 454
f 184 480 445
f 472 288 585
f 472 409 288
f 160 409 472
f 184 168 480
f 184 231 168
f 645 675 160
f 184 445 160
f 480 144 454
f 480 168 144
f 221 44 128
f 119 44 221
f 645 472 615
f 645 160 472
f 705 271 176
f 615 472 585
f 271 231 184
f 271 287 231
f 356 296 264
f 356 365 296
f 391 365 356
f 391 454 365
f 454 144 463
f 231 208 168
f 231 239 208
f 287 239 231
f 436 120 404
f 436 152 120
f 119 310 43
f 365 320 296
f 454 463 365
f 271 184 176
f 319 287 271
f 319 308 287
f 328 308 319
f 463 48 365
f 144 48 463
f 168 192 144
f 168 208 192
f 287 308 239
f 176 184 160
f 365 48 320
f 144 136 48
f 144 192 136
f 208 200 192
f 239 200 208
f 239 263 200
f 308 263 239
f 328 364 337
f 765 328 319
f 364 328 765
f 355 346 127
f 320 329 296
f 48 329 320
f 48 136 427
f 192 200 136
f 328 337 308
f 705 735 271
f 176 675 705
f 160 675 176
f 364 765 795
f 319 735 765
f 319 271 735
f 381 585 288
f 405 381 288
f 256 405 288
f 390 405 256
f 264 408 390
f 417 408 264
f 272 417 264
f 426 417 272
f 248 272 296
f 248 426 272
f 435 426 248
f 248 296 307
f 264 296 272
f 390 311 264
f 390 409 311
f 256 409 390
f 795 373 364
f 795 537 373
f 373 337 364
f 295 308 337
f 263 308 295
f 247 200 263
f 255 200 247
f 255 136 200
f 307 296 329
f 280 248 307
f 496 373 537
f 346 373 496
f 346 337 373
f 247 263 295
f 436 48 427
f 374 48 436
f 374 329 48
f 444 248 280
f 444 435 248
f 42 346 496
f 346 295 337
f 355 295 346
f 279 247 295
f 255 247 279
f 223 136 255
f 436 427 136
f 404 374 436
f 338 329 374
f 338 307 329
f 120 479 382
f 47 479 120
f 44 47 120
f 128 44 120
f 338 382 347
f 404 382 338
f 404 120 382
f 152 128 120
f 223 221 128
f 223 119 221
f 279 119 223
f 279 310 119
f 310 127 43
f 355 127 310
f 346 42 127
f 471 462 347
f 444 280 991
f 307 338 280
f 374 404 338
f 136 152 436
f 136 128 152
f 136 223 128
f 255 279 223
f 295 310 279
f 295 355 310
f 750 780 191
f 720 750 191
f 35 720 191
f 690 720 35
f 183 690 35
f 660 690 183
f 630 660 183
f 246 630 183
f 36 630 246
f 600 630 36
f 570 600 36
f 510 570 36
f 175 510 36
f 523 510 175
f 809 523 175
f 779 809 175
f 167 779 175
f 37 779 167
f 749 779 37
f 719 749 37
f 38 719 37
f 689 719 38
f 159 689 38
f 659 689 159
f 39 659 159
f 151 659 39
f 629 659 151
f 599 629 151
f 40 599 151
f 569 599 40
f 143 569 40
f 509 569 143
f 524 509 143
f 41 524 143
f 808 524 41
f 135 808 41
f 27 35 191
f 159 151 39
f 199 808 135
f 135 34 199
f 41 34 135
f 41 115 34
f 143 115 41
f 143 33 115
f 40 33 143
f 40 207 33
f 151 207 40
f 151 32 207
f 159 32 151
f 159 222 32
f 38 222 159
f 38 31 222
f 37 31 38
f 37 230 31
f 167 230 37
f 167 30 230
f 175 30 167
f 175 238 30
f 36 238 175
f 36 29 238
f 246 29 36
f 183 28 246
f 183 254 28
f 35 254 183
f 27 254 35
f 191 585 27
f 191 865 585
f 780 865 191
f 294 22 638
f 294 318 22
f 116 294 608
f 23 548 488
f 23 336 548
f 23 15 336
f 548 336 24
f 638 262 668
f 638 22 262
f 318 25 22
f 668 262 698
f 22 25 262
f 318 18 25
f 15 372 21
f 12 372 15
f 407 15 345
f 407 12 15
f 407 9 12
f 21 372 17
f 781 811 416
f 8 9 407
f 470 9 8
f 470 461 9
f 751 781 727
f 372 12 17
f 12 9 389
f 416 345 787
f 407 345 416
f 26 286 270
f 278 286 26
f 278 309 286
f 327 19 309
f 327 16 19
f 406 117 16
f 406 10 117
f 7 6 452
f 3 6 7
f 363 549 489
f 14 549 363
f 117 579 14
f 434 639 579
f 12 389 17
f 9 461 389
f 118 546 461
f 3 577 6
f 6 669 639
f 6 577 669
f 487 461 470
f 487 118 461
f 607 546 118
f 4 512 487
f 389 461 443
f 487 512 572
f 425 407 416
f 8 407 425
f 4 487 470
f 17 13 318
f 389 13 17
f 389 443 13
f 461 546 443
f 577 699 669
f 416 787 757
f 4 470 8
f 572 118 487
f 572 607 118
f 602 547 607
f 13 18 318
f 443 7 11
f 546 7 443
f 607 547 546
f 637 667 697
f 547 602 632
f 270 758 983
f 309 19 286
f 16 363 19
f 16 117 363
f 452 434 10
f 452 6 434
f 667 662 697
f 286 788 270
f 19 544 286
f 117 14 363
f 10 434 117
f 6 639 434
f 637 699 577
f 697 699 637
f 697 729 699
f 662 729 697
f 728 270 983
f 26 270 728
f 20 16 327
f 20 406 16
f 354 406 20
f 10 406 354
f 3 637 577
f 632 662 667
f 262 278 26
f 327 309 278
f 11 10 354
f 11 452 10
f 11 7 452
f 632 667 637
f 416 757 727
f 811 425 416
f 5 425 811
f 5 8 425
f 5 4 8
f 602 607 572
f 781 416 727
f 521 4 5
f 512 4 521
f 811 521 5
f 23 545 345
f 23 488 545
f 578 24 116
f 578 548 24
f 21 24 336
f 116 24 21
f 608 578 116
f 294 21 17
f 294 116 21
f 318 294 17
f 638 608 294
f 336 15 21
f 23 345 15
f 787 345 545
f 11 13 443
f 354 13 11
f 354 18 13
f 20 25 18
f 26 698 262
f 637 547 632
f 637 546 547
f 3 546 637
f 3 7 546
f 354 20 18
f 327 25 20
f 278 25 327
f 278 262 25
f 728 698 26
f 758 270 788
f 14 579 549
f 639 609 579
f 286 544 788
f 19 489 544
f 363 489 19
f 434 579 117
f 949 496 917
f 751 496 949
f 57 662 984
f 761 662 57
f 640 73 610
f 670 73 640
f 670 700 73
f 550 490 543
f 81 82 759
f 759 82 731
f 80 81 759
f 730 700 670
f 57 700 730
f 57 73 700
f 72 73 57
f 74 610 73
f 74 580 610
f 75 580 74
f 75 550 580
f 76 550 75
f 77 550 76
f 77 490 550
f 77 543 490
f 78 543 77
f 78 789 543
f 79 789 78
f 80 789 79
f 80 759 789
f 701 759 731
f 671 759 701
f 671 789 759
f 641 789 671
f 611 789 641
f 611 543 789
f 581 543 611
f 581 550 543
f 551 550 581
f 491 550 551
f 491 580 550
f 491 610 580
f 542 610 491
f 542 640 610
f 790 640 542
f 760 640 790
f 760 670 640
f 761 670 760
f 761 730 670
f 57 730 761
f 508 552 492
f 642 688 702
f 702 688 792
f 792 732 702
f 792 540 732
f 612 582 552
f 612 672 582
f 612 642 672
f 702 732 642
f 508 492 541
f 493 553 540
f 583 553 493
f 552 582 492
f 732 1008 642
f 540 762 732
f 778 808 583
f 583 808 82
f 493 778 583
f 748 778 493
f 791 835 1013
f 1007 835 791
f 541 1007 791
f 999 1007 541
f 83 583 82
f 83 553 583
f 84 553 83
f 60 553 84
f 60 540 553
f 60 762 540
f 992 762 60
f 1000 762 992
f 1000 732 762
f 1000 1008 732
f 1016 642 1008
f 1016 672 642
f 1024 672 1016
f 1024 582 672
f 59 582 1024
f 59 492 582
f 999 492 59
f 541 492 999
f 1013 541 791
f 508 541 1013
f 568 552 508
f 598 552 568
f 598 612 552
f 628 612 598
f 628 642 612
f 658 642 628
f 688 642 658
f 718 792 688
f 718 540 792
f 748 540 718
f 748 493 540
f 643 733 703
f 733 763 793
f 763 614 793
f 763 584 614
f 584 674 614
f 764 538 794
f 793 539 733
f 793 614 539
f 703 673 643
f 703 733 673
f 539 494 733
f 539 644 494
f 614 644 539
f 674 644 614
f 674 704 644
f 734 764 704
f 494 554 733
f 494 644 554
f 910 917 555
f 555 917 496
f 643 585 613
f 613 585 865
f 615 585 643
f 537 555 496
f 537 495 555
f 795 495 537
f 795 538 495
f 795 794 538
f 765 794 795
f 765 764 794
f 735 764 765
f 735 704 764
f 705 704 735
f 705 644 704
f 675 644 705
f 675 554 644
f 645 554 675
f 645 733 554
f 645 673 733
f 615 673 645
f 615 643 673
f 865 643 613
f 840 643 865
f 840 733 643
f 847 733 840
f 854 733 847
f 854 763 733
f 854 584 763
f 854 674 584
f 861 674 854
f 861 704 674
f 868 704 861
f 875 704 868
f 875 734 704
f 882 734 875
f 889 734 882
f 889 764 734
f 896 764 889
f 896 538 764
f 903 538 896
f 903 495 538
f 910 495 903
f 555 495 910
f 90 851 624
f 562 45 90
f 776 843 965
f 851 843 506
f 624 683 90
f 648 1020 55
f 506 843 776
f 506 624 851
f 743 683 624
f 741 90 683
f 741 562 90
f 741 45 562
f 532 45 741
f 679 55 45
f 679 648 55
f 796 1020 648
f 796 56 1020
f 796 1021 56
f 1013 1021 796
f 567 776 979
f 506 776 567
f 743 624 654
f 741 683 743
f 500 45 532
f 500 679 45
f 798 648 679
f 508 1013 796
f 656 506 567
f 715 624 506
f 715 774 624
f 774 654 624
f 798 679 589
f 767 648 798
f 767 796 648
f 656 715 506
f 529 743 654
f 530 741 743
f 591 532 741
f 620 500 532
f 589 679 500
f 586 508 796
f 568 508 586
f 986 567 979
f 806 656 567
f 774 529 654
f 504 743 529
f 504 530 743
f 621 741 592
f 621 591 741
f 680 532 591
f 680 620 532
f 589 500 620
f 586 796 767
f 986 806 567
f 566 715 656
f 745 715 566
f 745 774 715
f 528 774 745
f 503 530 504
f 592 741 530
f 709 589 620
f 678 798 589
f 678 767 798
f 677 767 678
f 598 568 586
f 566 656 806
f 684 774 528
f 684 529 774
f 504 529 684
f 503 592 530
f 622 592 503
f 621 680 591
f 709 678 589
f 588 677 678
f 677 586 767
f 628 598 586
f 657 986 993
f 657 806 986
f 714 684 528
f 622 621 592
f 709 620 680
f 677 536 586
f 628 586 536
f 657 566 806
f 597 566 657
f 655 528 745
f 714 504 684
f 773 504 714
f 771 621 622
f 740 680 621
f 769 709 680
f 833 657 993
f 596 566 686
f 775 745 566
f 775 655 745
f 773 503 504
f 773 563 503
f 563 622 503
f 710 680 740
f 710 769 680
f 534 709 769
f 534 678 709
f 534 588 678
f 797 588 534
f 797 677 588
f 707 677 797
f 707 536 677
f 616 536 707
f 616 628 536
f 658 628 616
f 686 566 597
f 775 566 596
f 505 528 655
f 505 714 528
f 740 621 771
f 497 616 707
f 623 563 773
f 742 622 563
f 742 771 622
f 652 771 742
f 711 740 771
f 560 769 710
f 499 797 534
f 687 657 833
f 687 597 657
f 626 596 686
f 505 655 775
f 505 773 714
f 803 623 773
f 742 563 623
f 711 771 652
f 501 740 711
f 501 710 740
f 770 710 501
f 619 534 769
f 535 707 797
f 535 497 707
f 556 616 497
f 556 658 616
f 688 658 556
f 627 597 687
f 627 686 597
f 626 775 596
f 805 775 626
f 805 505 775
f 560 710 770
f 619 769 560
f 619 499 534
f 535 797 499
f 557 556 497
f 717 627 687
f 626 686 627
f 744 773 505
f 593 623 803
f 593 742 623
f 770 501 711
f 799 619 560
f 646 556 557
f 565 505 805
f 744 505 565
f 594 773 744
f 594 803 773
f 593 652 742
f 801 711 652
f 801 770 711
f 799 560 770
f 559 499 619
f 559 535 499
f 708 535 559
f 557 497 535
f 646 688 556
f 807 687 833
f 713 803 594
f 772 652 593
f 712 652 772
f 650 799 770
f 739 619 799
f 739 559 619
f 618 708 559
f 618 535 708
f 737 535 618
f 737 557 535
f 587 557 737
f 587 646 557
f 718 688 646
f 747 687 807
f 747 717 687
f 526 626 627
f 526 805 626
f 716 805 526
f 713 593 803
f 531 712 772
f 531 652 712
f 531 801 652
f 533 799 650
f 676 718 646
f 526 627 717
f 713 772 593
f 531 770 801
f 650 770 561
f 533 739 799
f 525 747 807
f 747 526 717
f 685 565 805
f 804 744 565
f 594 744 804
f 564 713 594
f 651 770 531
f 651 561 770
f 498 618 559
f 498 737 618
f 736 646 587
f 736 676 646
f 527 805 716
f 527 685 805
f 804 565 685
f 802 531 772
f 502 651 531
f 649 739 533
f 649 559 739
f 738 559 649
f 738 498 559
f 617 737 498
f 617 587 737
f 617 736 587
f 748 718 676
f 802 713 564
f 802 772 713
f 502 531 802
f 800 561 651
f 647 617 498
f 706 676 736
f 706 748 676
f 777 526 747
f 507 716 526
f 746 716 507
f 564 594 804
f 653 802 564
f 681 800 651
f 800 650 561
f 590 650 800
f 590 533 650
f 649 533 590
f 768 738 649
f 647 498 558
f 507 526 777
f 527 716 746
f 630 685 527
f 630 804 685
f 682 502 802
f 738 558 498
f 766 617 647
f 766 736 617
f 766 706 736
f 750 747 780
f 720 507 777
f 720 746 507
f 595 804 630
f 523 653 564
f 653 682 802
f 681 651 502
f 719 800 681
f 629 649 590
f 768 558 738
f 778 748 706
f 777 747 750
f 570 564 804
f 523 564 570
f 779 682 653
f 749 502 682
f 719 681 502
f 629 768 649
f 569 647 558
f 509 766 647
f 778 706 766
f 660 630 527
f 625 804 595
f 600 804 625
f 809 653 523
f 749 682 779
f 659 629 590
f 599 558 768
f 509 647 569
f 524 766 509
f 808 778 766
f 690 527 746
f 660 527 690
f 630 625 595
f 600 570 804
f 719 502 749
f 689 800 719
f 689 590 800
f 659 590 689
f 599 768 629
f 569 558 599
f 524 808 766
f 653 809 779
f 570 510 523
f 625 630 600
f 746 720 690
f 777 750 720
f 780 857 865
f 780 849 857
f 747 849 780
f 747 841 849
f 525 841 747
f 807 841 525
f 807 833 841
f 776 972 979
f 965 972 776
f 511 522 810
f 511 571 522
f 721 976 984
f 781 751 810
f 810 751 949
f 522 781 810
f 632 721 662
f 632 691 721
f 602 691 632
f 602 661 691
f 572 661 602
f 572 631 661
f 572 601 631
f 512 601 572
f 512 571 601
f 521 571 512
f 811 571 521
f 811 522 571
f 781 522 811
f 948 810 949
f 948 511 810
f 956 511 948
f 955 511 956
f 955 571 511
f 963 571 955
f 963 601 571
f 962 601 963
f 962 631 601
f 970 631 962
f 970 661 631
f 969 661 970
f 969 691 661
f 977 691 969
f 977 721 691
f 976 721 977
f 662 721 984
f 752 782 722
f 752 812 782
f 603 573 513
f 812 520 782
f 603 633 573
f 753 958 965
f 951 958 753
f 723 951 753
f 944 951 723
f 753 965 907
f 693 944 723
f 937 944 693
f 663 937 693
f 930 937 663
f 941 949 692
f 722 941 692
f 942 941 722
f 692 949 917
f 934 942 722
f 782 934 722
f 935 934 782
f 906 723 753
f 914 723 906
f 914 693 723
f 913 693 914
f 913 663 693
f 921 663 913
f 920 663 921
f 920 633 663
f 928 633 920
f 928 573 633
f 927 573 928
f 927 513 573
f 927 520 513
f 935 520 927
f 782 520 935
f 881 692 917
f 881 722 692
f 888 722 881
f 888 752 722
f 895 752 888
f 895 812 752
f 895 520 812
f 902 520 895
f 902 513 520
f 909 513 902
f 916 513 909
f 916 603 513
f 923 603 916
f 923 633 603
f 930 633 923
f 930 663 633
f 906 753 907
f 1015 694 835
f 1015 664 694
f 1023 664 1015
f 1023 634 664
f 1023 604 634
f 46 604 1023
f 58 604 46
f 58 574 604
f 1006 574 58
f 1006 514 574
f 1014 514 1006
f 1014 519 514
f 1014 813 519
f 1022 813 1014
f 1022 783 813
f 57 783 1022
f 984 783 57
f 1003 783 984
f 1010 783 1003
f 1010 813 783
f 1017 813 1010
f 1017 519 813
f 886 519 1017
f 886 514 519
f 878 514 886
f 878 574 514
f 885 574 878
f 885 604 574
f 893 604 885
f 893 634 604
f 892 634 893
f 892 664 634
f 900 664 892
f 899 664 900
f 899 694 664
f 907 694 899
f 835 694 907
f 1024 814 59
f 1024 515 814
f 516 575 515
f 60 726 992
f 726 60 84
f 516 666 575
f 992 725 1000
f 726 725 992
f 725 576 1000
f 1000 576 1016
f 725 755 576
f 59 724 999
f 814 724 59
f 515 606 814
f 575 606 515
f 575 786 665
f 575 665 606
f 755 725 94
f 94 100 755
f 96 100 94
f 83 81 80
f 100 93 755
f 100 103 93
f 114 103 100
f 114 111 103
f 756 726 84
f 756 94 726
f 102 100 96
f 114 100 102
f 80 79 99
f 755 786 666
f 755 93 786
f 99 94 756
f 636 605 518
f 816 696 636
f 816 92 696
f 101 91 92
f 101 107 91
f 695 815 58
f 113 78 77
f 111 61 103
f 111 110 61
f 111 66 110
f 65 66 111
f 99 756 84
f 105 94 99
f 105 96 94
f 105 102 96
f 112 114 102
f 62 111 114
f 62 65 111
f 93 97 786
f 103 97 93
f 63 69 64
f 63 70 69
f 77 76 65
f 95 99 84
f 112 102 105
f 62 114 112
f 76 66 65
f 74 66 76
f 74 68 66
f 786 97 665
f 103 98 97
f 61 98 103
f 66 68 110
f 95 84 83
f 1022 71 57
f 97 785 665
f 61 104 98
f 74 67 68
f 74 73 67
f 754 1015 835
f 784 1015 754
f 518 605 784
f 636 696 605
f 92 815 696
f 92 91 815
f 107 109 91
f 107 108 109
f 107 64 108
f 70 71 69
f 72 71 70
f 72 57 71
f 1007 784 754
f 517 636 518
f 106 64 107
f 63 64 106
f 73 72 70
f 724 784 1007
f 724 518 784
f 635 816 636
f 785 92 816
f 101 92 785
f 106 107 101
f 67 70 63
f 73 70 67
f 80 95 83
f 80 99 95
f 113 105 99
f 77 112 113
f 75 74 76
f 79 113 99
f 78 113 79
f 83 82 81
f 1008 1000 1016
f 666 576 755
f 516 576 666
f 516 1016 576
f 515 1016 516
f 1024 1016 515
f 666 786 575
f 726 94 725
f 113 112 105
f 77 62 112
f 65 62 77
f 63 68 67
f 63 110 68
f 104 110 63
f 104 61 110
f 101 98 104
f 101 97 98
f 785 97 101
f 635 665 785
f 635 606 665
f 517 814 606
f 517 724 814
f 1007 999 724
f 106 104 63
f 101 104 106
f 816 635 785
f 636 606 635
f 636 517 606
f 518 724 517
f 835 1007 754
f 109 1014 1006
f 58 46 695
f 815 1006 58
f 784 1023 1015
f 605 1023 784
f 605 46 1023
f 696 46 605
f 696 695 46
f 815 695 696
f 91 1006 815
f 91 109 1006
f 108 1014 109
f 64 1014 108
f 64 1022 1014
f 69 1022 64
f 69 71 1022
f 1020 56 1021
f 1021 55 1020
f 45 55 1021
f 90 45 907
f 851 90 907
f 907 843 851
f 907 965 843
f 1021 907 45
f 1013 907 1021
f 835 907 1013
f 979 972 819
f 986 979 89
f 993 986 89
f 844 833 837
f 827 833 844
f 841 833 827
f 944 1 951
f 829 841 836
f 838 841 829
f 840 849 841
f 821 829 844
f 838 829 821
f 844 836 827
f 844 829 836
f 923 2 930
f 817 873 85
f 828 823 87
f 823 880 87
f 847 840 936
f 923 866 2
f 880 908 915
f 894 950 908
f 908 950 915
f 859 964 901
f 923 916 866
f 859 922 964
f 950 957 915
f 861 854 957
f 922 818 964
f 819 88 979
f 830 88 819
f 830 820 88
f 85 820 830
f 873 901 852
f 818 985 964
f 868 950 826
f 861 950 868
f 818 834 985
f 85 824 820
f 873 824 85
f 873 852 824
f 901 929 852
f 964 929 901
f 850 834 818
f 979 88 89
f 820 822 88
f 964 943 929
f 964 985 943
f 846 834 850
f 846 853 834
f 824 822 820
f 929 887 852
f 929 943 887
f 834 858 985
f 853 858 834
f 853 860 858
f 853 867 860
f 88 828 89
f 88 822 828
f 852 845 824
f 852 887 845
f 985 842 943
f 867 874 860
f 828 837 833
f 828 87 837
f 894 880 823
f 971 950 894
f 971 978 950
f 971 825 978
f 832 839 825
f 832 896 839
f 832 903 896
f 888 881 867
f 846 867 853
f 917 867 881
f 910 867 917
f 824 831 822
f 824 845 831
f 985 858 842
f 845 894 831
f 887 894 845
f 943 971 887
f 943 842 971
f 858 832 842
f 860 832 858
f 874 832 860
f 874 903 832
f 910 903 874
f 937 930 2
f 944 937 1
f 922 916 909
f 922 866 916
f 859 2 866
f 817 937 2
f 817 1 937
f 818 922 909
f 859 866 922
f 873 2 859
f 830 951 1
f 819 951 830
f 819 958 951
f 972 965 958
f 838 840 841
f 936 840 838
f 86 838 821
f 915 936 838
f 854 847 936
f 880 838 86
f 915 838 880
f 957 936 915
f 854 936 957
f 861 957 950
f 826 978 839
f 889 826 839
f 882 826 889
f 875 826 882
f 875 868 826
f 87 821 844
f 880 86 821
f 826 950 978
f 837 87 844
f 87 880 821
f 894 908 880
f 825 839 978
f 896 889 839
f 822 823 828
f 831 823 822
f 831 894 823
f 887 971 894
f 842 825 971
f 832 825 842
f 895 846 850
f 888 867 846
f 910 874 867
f 828 993 89
f 833 993 828
f 841 827 836
f 865 849 840
f 849 865 857
f 958 819 972
f 1 85 830
f 817 85 1
f 2 873 817
f 859 901 873
f 902 818 909
f 902 850 818
f 895 850 902
f 895 888 846
f 907 899 906
f 913 914 938
f 899 900 945
f 921 913 938
f 900 892 945
f 980 938 931
f 980 921 938
f 952 921 980
f 952 920 921
f 927 928 994
f 987 952 980
f 959 952 987
f 1001 980 966
f 987 980 1001
f 848 959 987
f 848 987 876
f 869 1001 897
f 987 1001 869
f 856 848 876
f 893 885 872
f 876 987 869
f 925 856 876
f 883 856 925
f 934 911 942
f 925 876 904
f 981 869 897
f 904 876 869
f 946 925 904
f 932 883 925
f 904 869 981
f 864 935 927
f 974 942 911
f 953 904 981
f 946 904 953
f 960 925 946
f 960 932 925
f 974 948 941
f 1002 946 953
f 988 932 960
f 967 932 988
f 995 981 877
f 995 953 981
f 1009 946 1002
f 863 946 1009
f 863 960 946
f 884 967 871
f 864 927 994
f 883 935 864
f 883 934 935
f 932 934 883
f 932 911 934
f 967 974 911
f 879 974 967
f 879 948 974
f 939 870 877
f 891 953 995
f 1009 953 891
f 1009 1002 953
f 960 863 1009
f 871 967 988
f 947 995 898
f 871 988 940
f 956 879 884
f 878 886 870
f 947 905 891
f 1009 919 954
f 1009 954 912
f 871 940 955
f 898 933 947
f 870 1017 926
f 933 989 947
f 919 968 954
f 926 1017 975
f 954 940 912
f 954 962 940
f 962 963 940
f 899 924 906
f 899 945 924
f 892 855 945
f 973 855 892
f 872 855 973
f 939 918 890
f 989 982 947
f 947 982 905
f 968 961 970
f 872 862 855
f 872 897 862
f 890 897 872
f 890 918 897
f 939 877 918
f 870 898 877
f 870 926 898
f 961 969 970
f 1010 975 1017
f 1010 996 975
f 989 996 982
f 924 914 906
f 924 931 914
f 945 931 924
f 855 931 945
f 855 966 931
f 855 862 966
f 926 933 898
f 926 975 933
f 996 976 977
f 905 982 961
f 977 969 982
f 891 919 1009
f 905 919 891
f 905 961 919
f 982 969 961
f 996 977 982
f 1010 1003 996
f 890 885 878
f 892 893 973
f 870 886 1017
f 870 939 878
f 939 890 878
f 890 872 885
f 872 973 893
f 976 1003 984
f 996 1003 976
f 989 975 996
f 933 975 989
f 938 914 931
f 864 856 883
f 994 856 864
f 928 959 994
f 928 920 959
f 941 942 974
f 948 949 941
f 963 955 940
f 962 954 970
f 968 970 954
f 961 968 919
f 891 995 947
f 912 960 1009
f 912 988 960
f 940 988 912
f 955 884 871
f 956 884 955
f 948 879 956
f 967 884 879
f 911 932 967
f 994 848 856
f 994 959 848
f 920 952 959
f 931 966 980
f 862 1001 966
f 862 897 1001
f 918 981 897
f 877 981 918
f 877 898 995
f 983 990 991
f 983 998 990
f 983 997 998
f 983 1005 997
f 983 1004 1005
f 1018 1004 983
f 1012 1004 1018
f 1011 1012 1018
f 1019 1011 1018
f 1018 1026 1019
f 1025 1018 983
# 1026 vertices
# 0 texture params
# 0 normals
# 2048 facets

# 1 groups
