# WaveFront *.obj file (generated by Autodesk ATF)

mtllib calf_dexter_collision.mtl

g Body2

v 4.441959 9.555590 -30.301029
v 4.322762 11.019525 -29.777229
v 6.819089 12.686573 -28.146753
v -6.500000 11.810719 -29.236115
v -6.500000 11.332766 -29.591818
v -7.299799 9.485497 -29.903511
v -7.500000 9.381942 -29.316223
v -6.774494 13.265654 -24.365917
v -7.156154 13.148100 -24.786484
v -6.786890 13.425438 -25.385529
v -7.126960 13.250665 -25.690544
v -7.489353 12.597328 -25.622217
v -6.500000 13.101535 -27.476749
v -7.347242 12.913050 -26.494984
v -6.500000 13.474930 -25.738377
v -7.204519 12.972938 -26.966545
v -7.343808 12.769292 -27.021858
v -7.472001 12.519435 -26.784214
v -6.853344 12.973812 -27.588406
v -7.129456 12.802694 -27.587309
v -7.424656 12.410718 -27.475353
v -7.259346 12.617277 -27.659126
v -7.039358 12.690351 -27.938255
v -6.778994 12.620225 -28.265766
v -7.342918 12.314772 -27.952305
v -7.162701 12.317457 -28.320076
v -7.449003 12.098532 -27.852772
v -6.791653 12.382201 -28.584013
v -7.041373 12.221807 -28.596952
v -7.187703 11.913815 -28.757467
v 6.867871 0.541169 -31.687723
v -6.739383 12.073057 -28.947731
v -7.359891 11.877914 -28.479416
v -7.086977 11.832651 -28.956301
v -7.412596 11.576516 -28.632761
v -7.297816 11.453650 -29.012012
v -6.946049 11.518709 -29.322495
v -7.139840 11.271122 -29.346043
v 7.127610 0.620728 -31.531963
v -7.456271 11.179788 -28.812630
v -6.767468 11.176350 -29.643398
v -7.163486 10.829796 -29.594646
v -6.973330 10.636677 -29.832823
v -7.362116 10.257199 -29.581060
v -7.449561 10.453938 -29.278954
v -6.773845 10.459438 -29.999460
v -7.151412 10.246138 -29.858444
v -6.941293 9.962856 -30.096523
v 7.295501 1.242324 -31.340054
v 7.415856 1.116460 -31.142622
v 6.909028 -6.098546 -22.464279
v 7.421721 -4.854424 -26.495487
v 6.500000 -6.881598 -18.559118
v -3.250000 13.121498 -27.435352
v 3.250000 13.237398 -27.111635
v 0.812500 13.407080 -24.802210
v 6.500000 11.428181 -29.528198
v 6.500000 12.740942 -28.167309
v 6.500000 13.452427 -26.081432
v 3.676020 -5.335924 -27.145729
v 6.500000 -5.221536 -27.527210
v 6.500000 -3.974912 -29.671270
v 6.500000 -2.642744 -30.802631
v 6.500000 1.212763 -31.744884
v 6.500000 0.894501 -31.764254
v 6.500000 -0.348926 -31.676222
v -4.061223 11.146400 -29.089001
v 4.220370 11.146400 -29.459883
v -4.220370 11.146400 -29.459883
v -6.500000 9.409148 -30.326851
v 6.979583 9.383610 -30.197380
v -6.500000 9.555590 -30.301029
v 6.500000 1.529820 -31.711103
v 4.446838 1.529820 -31.711103
v 4.497582 1.472636 -31.129087
v 4.481297 1.490973 -30.664558
v 4.338143 1.653067 -29.850245
v -3.771598 -4.466953 -28.575027
v -2.353107 -4.466953 -27.204464
v 6.500000 9.409148 -30.326851
v -7.309087 10.984257 -29.317116
v 7.291208 11.596937 -28.896343
v 6.787516 12.371057 -28.603951
v 7.375703 12.033302 -28.261099
v 6.938244 13.371866 -25.758205
v 6.766963 13.424892 -25.895908
v 7.401082 12.831818 -26.368801
v 7.474701 12.579837 -26.541302
v 7.306925 12.942337 -26.610313
v 7.078598 13.227580 -26.369312
v 6.857488 13.281187 -26.697521
v 7.114232 13.066200 -26.938965
v 6.747541 13.179303 -27.175919
v 7.251474 12.809546 -27.283821
v 7.453112 12.261953 -27.566780
v 7.375542 12.582885 -27.347000
v 6.993825 12.939174 -27.504457
v 7.188451 12.566342 -27.915218
v 7.293908 12.304753 -28.092255
v 6.500000 0.230819 -31.746500
v 6.500000 -1.475586 -31.373030
v 6.500000 -2.228139 -31.040724
v 6.500000 -3.305049 -30.314369
v 6.500000 -3.721286 -29.943306
v 6.500000 -4.463748 -29.042679
v 6.500000 -4.894273 -28.310762
v 6.500000 -5.463272 -26.602844
v 3.676020 -5.033051 -28.025301
v 3.676020 -5.115540 -27.827864
v 6.500000 9.555590 -30.301029
v 6.500000 13.402785 -24.779675
v 6.500000 13.469000 -25.325811
v 6.500000 13.356345 -26.692451
v 6.500000 13.201594 -27.220375
v 6.500000 12.986811 -27.726852
v 6.500000 12.447210 -28.577402
v 6.500000 12.177736 -28.890060
v 6.500000 11.810719 -29.236115
v 6.500000 10.733160 -29.927811
v 6.500000 10.308584 -30.100895
v -0.406250 13.273838 -24.244862
v -0.203125 13.470152 -25.406061
v -0.609375 13.435439 -26.252485
v 3.250000 13.387779 -26.558437
v 3.250000 13.121498 -27.435352
v 3.250000 13.048202 -27.603649
v -3.250000 13.271538 -27.002281
v -3.250000 13.048202 -27.603649
v 7.360760 -6.374567 -18.492214
v 6.970898 -6.753175 -18.542171
v 6.705040 -5.441488 -26.599003
v 6.981171 -5.332723 -26.579826
v 7.259828 -5.112229 -26.540947
v 7.463324 -5.549972 -21.849188
v 7.357657 -5.685014 -22.495037
v 7.185112 -5.848601 -22.834898
v 6.664313 -6.175073 -22.477774
v 7.482347 0.980249 -30.926676
v 7.116843 1.209348 -31.525799
v 6.910119 1.259049 -31.648241
v 4.098959 11.146400 -29.170391
v -0.345307 -4.466953 -26.551674
v 1.301263 -4.466953 -26.717827
v 3.128174 -4.466953 -27.804468
v -4.000000 -4.466953 -24.021444
v 4.000000 -4.466953 -28.959892
v 4.000000 2.362677 -28.518993
v 4.000000 4.094226 -27.274319
v 4.000000 6.240719 -27.104897
v 4.000000 8.037999 -27.979000
v 4.000000 8.897745 -28.959892
v 4.000000 12.033047 -24.021444
v 3.831755 12.033047 -28.669409
v 2.432622 12.033047 -27.245636
v 0.998093 12.033047 -26.639412
v -0.712938 12.033047 -26.582794
v -2.620116 12.033047 -27.367760
v -3.831755 12.033047 -28.669409
v -6.500000 13.139226 -23.854595
v 6.500000 13.139226 -23.854595
v 4.223471 11.510964 -29.471306
v 4.163661 11.720117 -29.314499
v 4.013823 12.078495 -28.989904
v 3.885645 12.300720 -28.754211
v 3.416382 12.776558 -28.102459
v 3.049380 12.996223 -27.712746
v 2.846398 13.077406 -27.537476
v 2.342815 13.212045 -27.190395
v 1.335195 13.350307 -26.727551
v 0.563956 13.386010 -26.566511
v -0.155597 13.393800 -26.527958
v -1.006156 13.370164 -26.641142
v -1.685063 13.316841 -26.856449
v -2.456284 13.190332 -27.255354
v -2.846398 13.077406 -27.537476
v -3.177517 12.927237 -27.841965
v -3.778723 12.422543 -28.595644
v -4.000000 2.042090 -28.959892
v 4.499896 -1.717767 -31.052034
v -4.497529 -1.717767 -30.872337
v 7.500000 -5.889260 -18.428175
v -6.500000 -2.884393 -30.638420
v -6.500000 -3.489210 -30.161953
v -6.500000 -3.830943 -29.827583
v -6.500000 -4.149193 -29.470707
v -6.500000 -4.463748 -29.042679
v -6.500000 -4.822990 -28.453320
v -6.500000 -5.093376 -27.876238
v -6.500000 -5.332589 -27.172371
v -6.500000 -5.463272 -26.602844
v 7.500000 12.211128 -24.226933
v 7.500000 12.409414 -26.321407
v 7.500000 12.151495 -27.119904
v 7.500000 11.390118 -28.216454
v 7.500000 9.381942 -29.316223
v 7.500000 -0.097382 -30.661005
v 7.500000 -2.736447 -29.395100
v -6.500000 -2.343302 -30.974474
v -6.500000 -1.798251 -31.250105
v -6.500000 -1.300889 -31.436607
v -6.500000 -0.791999 -31.588861
v -6.500000 -0.427728 -31.663937
v -6.500000 0.310274 -31.753399
v -6.500000 0.841300 -31.763268
v -6.500000 1.318691 -31.736021
v -3.676020 -5.335924 -27.145729
v -3.676020 -5.115540 -27.827864
v -3.676020 -5.033051 -28.025301
v -7.500000 12.211128 -24.226933
v -7.421721 12.565439 -24.084789
v -7.274439 12.794838 -23.992758
v -7.128931 12.929882 -23.938580
v -6.851846 13.074015 -23.880756
v -6.500000 13.333159 -24.466331
v -6.500000 13.443807 -25.051758
v -7.036905 13.080618 -27.083096
v -6.500000 13.425100 -26.332081
v -6.500000 13.286615 -26.958681
v -6.777878 13.262560 -26.880402
v -7.127250 13.154324 -26.556881
v -7.449863 12.764828 -25.892696
v -6.500000 12.857765 -27.969931
v -6.500000 12.440982 -28.572418
v -6.917791 13.320690 -26.373154
v -7.376935 12.946129 -25.589382
v -7.226559 13.131846 -26.135599
v -7.264102 13.114006 -25.401058
v -6.866631 13.400422 -25.805050
v -7.428411 12.750260 -24.789446
v -7.046014 13.300798 -25.270222
v -7.314654 12.932421 -24.599579
v -6.963275 13.253726 -24.659737
v -7.500000 11.547784 -28.073896
v -7.500000 12.307654 -26.510834
v -7.500000 10.853409 -28.707729
v -7.449800 9.432890 -29.605164
v -7.017585 9.529319 -30.152039
v -6.500000 10.669098 -29.952969
v -7.411273 0.216764 -31.147120
v 7.140703 13.117903 -24.587318
v -6.912783 -2.684867 -30.665474
v 7.109222 13.266336 -25.732630
v -7.087473 -2.530144 -30.637568
v 7.315910 13.045946 -25.692665
v -7.254139 -2.523487 -30.463207
v 6.799042 13.410001 -25.216412
v -7.345349 -2.310070 -30.446472
v 7.446080 12.789731 -25.506145
v -6.777022 -3.020781 -30.488739
v 7.210155 13.168468 -25.344999
v -7.070714 -3.167839 -30.196396
v 7.028498 13.284134 -25.025871
v -7.427588 -2.666215 -30.014423
v 6.813275 13.329620 -24.689430
v -7.226559 -3.196879 -29.986401
v 7.401379 12.858456 -24.990568
v -7.477144 -2.648140 -29.817186
v 7.300136 12.966767 -24.686726
v -6.944253 -3.662820 -29.839607
v 7.461319 12.657312 -24.795147
v -7.330689 -3.273296 -29.738001
v -7.094012 -3.901004 -29.452595
v 6.870832 10.035530 -16.326830
v -7.418630 -3.520100 -29.259689
v 7.265055 9.721085 -16.368324
v -6.860343 -4.268513 -29.195923
v 6.722404 11.451972 -19.735889
v -7.215188 -4.054873 -29.091782
v 7.072933 11.681447 -20.715786
v -7.014133 -4.386913 -28.901731
v 7.283635 11.457477 -20.692802
v -7.475231 -3.659323 -28.809843
v -6.983260 -5.336380 -26.580471
v -7.220485 -4.437956 -28.506733
v -7.224749 -5.149135 -26.547455
v -7.339516 -4.102404 -28.744114
v -7.387047 -4.928099 -26.508478
v -6.865635 -4.735965 -28.454977
v -7.461849 -4.739310 -26.475189
v -7.032701 -4.712400 -28.327118
v -7.500000 -4.478464 -26.429195
v -7.226371 -4.746470 -27.867680
v -7.500000 -3.133208 -29.081837
v -7.387422 -4.519939 -27.835052
v -7.500000 -1.566720 -30.197556
v -7.447796 -4.174569 -28.186483
v -7.500000 0.452025 -30.745232
v -6.890252 -5.051557 -27.745464
v -7.312479 1.156127 -31.323765
v -7.141049 -5.023652 -27.369274
v -7.129084 1.184022 -31.512905
v -7.500000 9.091711 -16.451370
v -6.892491 1.026190 -31.664312
v -7.391502 9.537695 -16.392521
v -7.080113 0.537069 -31.575651
v -7.073654 9.913884 -16.342880
v -7.452504 1.009104 -31.036873
v -7.467297 10.788421 -20.058514
v -6.821235 0.247933 -31.693428
v -7.338435 11.112274 -20.041426
v -7.258904 0.320384 -31.392044
v -7.185401 11.402733 -20.263412
v -6.965143 -0.208618 -31.576639
v -6.960837 11.471869 -20.010002
v -7.170477 -0.236603 -31.429781
v -6.696510 11.907133 -20.850920
v -7.500000 -5.889260 -18.428175
v -6.829063 -0.601637 -31.571241
v -6.500000 -6.881598 -18.559118
v -7.065811 -0.849215 -31.385475
v -7.164201 -6.620370 -18.524649
v -7.323698 -0.788490 -31.130009
v -7.406606 -6.294920 -18.481703
v -7.136236 -1.341621 -31.178207
v -6.641282 -6.178112 -22.478310
v -6.893465 -1.477269 -31.284000
v -6.891128 -6.037881 -22.868275
v -7.058626 -1.904704 -31.007887
v -7.145644 -5.863517 -22.941202
v -7.268152 -1.755537 -30.863308
v -7.297472 -5.832759 -22.210068
v -7.471500 -1.025411 -30.690540
v -7.438708 -5.581244 -22.062048
v -7.411745 -1.499149 -30.717899
v -6.751936 -2.254527 -30.983711
v -3.210751 -4.466953 -27.879953
v -4.000000 -4.466953 -28.959892
v -4.000000 2.362677 -28.518993
v -4.000000 3.138861 -27.790359
v -4.000000 4.094226 -27.274319
v -4.000000 5.156087 -27.046539
v -4.000000 6.240719 -27.104897
v -4.000000 7.098222 -27.376560
v -4.000000 8.037999 -27.979000
v -4.000000 8.735073 -28.715073
v -4.000000 8.897745 -28.959892
v 4.446070 9.409148 -30.326851
v 4.282270 9.223183 -29.650776
v -4.289762 9.231754 -29.672043
v -4.446070 9.409148 -30.326851
v -4.441959 9.555590 -30.301029
v -4.354356 10.756887 -29.900038
v -4.222616 11.509963 -29.470549
v -4.052099 12.000108 -29.066648
v 7.458283 11.016282 -28.918995
v 6.982263 13.018343 -23.903091
v 7.427248 11.625575 -28.530014
v 6.946572 12.025355 -28.885311
v 7.070583 11.667051 -29.118797
v 7.118842 9.517128 -30.082907
v 6.764870 13.103818 -23.868801
v 7.142673 12.148815 -28.562363
v 6.839848 11.411776 -29.460632
v 7.323730 9.479676 -29.870502
v 6.845560 -3.967767 -29.579180
v 6.851846 9.543388 -30.231834
v 7.486166 10.417848 -29.122646
v 7.450098 9.434790 -29.615940
v 7.039474 -3.961142 -29.437283
v 7.457366 -3.794255 -28.726997
v 7.348207 11.041393 -29.215151
v 7.215940 -5.018867 -27.156494
v 7.022473 -3.352420 -30.076197
v 7.168819 -3.737759 -29.545223
v 7.162896 11.202136 -29.371805
v 7.037139 -5.117149 -27.345608
v 7.388916 -3.364205 -29.515482
v 7.274944 -3.486652 -29.636166
v 7.026629 11.052958 -29.589220
v 7.379865 -4.638798 -27.584743
v 7.473662 -2.959801 -29.574854
v 6.823658 -3.316397 -30.231674
v 7.405338 10.495863 -29.392950
v 7.204982 -4.857466 -27.669693
v 6.845764 -2.677269 -30.700958
v 7.257040 -2.814294 -30.253437
v 6.839240 10.858367 -29.795090
v 6.830810 -5.123904 -27.620270
v 7.268803 -2.206767 -30.635422
v 7.070714 -2.759996 -30.500183
v 7.312712 10.440503 -29.587744
v 7.028731 -4.886089 -27.970009
v 6.714609 -2.073813 -31.089968
v 7.420625 -2.595550 -30.074385
v 7.157600 10.567732 -29.726353
v 7.491793 -4.124234 -27.862061
v 7.376266 -2.041616 -30.539034
v 7.012021 -2.053085 -30.964115
v 6.963549 10.457333 -29.916683
v 7.449886 -4.343003 -27.845638
v 7.291769 -1.438620 -30.970165
v 7.147166 -1.696907 -31.026354
v 7.241145 10.046122 -29.836500
v 7.316716 -4.439495 -28.252750
v 7.433496 -1.374235 -30.715916
v 7.482658 -1.678409 -30.378901
v 6.811577 10.129608 -30.102428
v 6.853573 -4.755711 -28.437313
v 6.840506 -1.362890 -31.348198
v 7.160877 -1.021963 -31.255718
v 7.436691 12.529831 -24.099073
v 7.095096 -4.670529 -28.306072
v 7.203194 -0.606880 -31.329226
v 6.981518 -0.587238 -31.503468
v 7.379474 12.652854 -24.049719
v 6.846625 -4.428187 -28.974979
v 6.781887 -0.399166 -31.619886
v 7.356479 -0.444946 -31.155571
v 7.259828 12.808397 -23.987318
v 7.196692 -4.253961 -28.834280
v 7.456473 -0.275416 -30.950939
v 7.002722 0.100817 -31.596762
v 7.020764 12.486749 -28.269688
v 7.347831 -3.904663 -29.008863
v 7.367689 0.479775 -31.250282
v 7.208935 -0.057199 -31.417187
v -1.407832 -4.466953 -26.752029
v -6.500000 10.115012 -16.316341
v 6.500000 10.115012 -16.316341
v -4.000000 12.033047 -28.959892
v -3.270776 12.033047 -27.946400
v -1.666246 12.033047 -26.858311
v 0.178588 12.033047 -26.538366
v 1.742986 12.033047 -26.877544
v 3.270776 12.033047 -27.946400
v 4.000000 12.033047 -28.959892
v -4.000000 12.033047 -24.021444
v 4.000000 8.735073 -28.715073
v 4.000000 7.098222 -27.376560
v 4.000000 5.156087 -27.046539
v 4.000000 3.138861 -27.790359
v 4.000000 2.042090 -28.959892
v 4.000000 -4.466953 -24.021444
v 3.806643 -4.466953 -28.632332
v 2.260119 -4.466953 -27.142303
v 0.690615 -4.466953 -26.581013
v -4.455820 -1.717767 -30.425350
v -0.852041 -5.463272 -26.602844
v -4.499896 -1.717767 -31.052034
v 4.497529 -1.717767 -30.872337
v -4.304255 -1.717767 -29.724121
v 1.888640 -5.393123 -26.942171
v -0.010713 -5.474353 -26.540001
v 7.500000 9.091711 -16.451370
v -4.101968 -1.717767 -29.177086
v 2.720356 -5.245941 -27.455399
v -7.500000 6.542554 -27.176384
v 0.852041 -5.463272 -26.602844
v 4.141176 -1.717767 -29.282318
v 3.251772 -5.080798 -27.912207
v -7.500000 5.707425 -27.033026
v -7.500000 7.530210 -27.608074
v 4.405958 -1.717767 -30.160736
v 3.436825 -4.990833 -28.118216
v -7.500000 4.000959 -27.303610
v -7.500000 4.799254 -27.091290
v -4.441257 1.159393 -31.746105
v 3.792357 -4.730027 -28.615143
v -7.500000 2.645645 -28.197723
v -7.500000 3.378017 -27.622057
v -4.444157 0.057368 -31.727777
v 4.117768 -4.337387 -29.219830
v -7.500000 1.648535 -29.876686
v -7.500000 2.103627 -28.875954
v -4.473955 -1.098455 -31.502581
v 4.394805 -3.543020 -30.095711
v -7.286451 1.482182 -31.322805
v -7.500000 1.482242 -30.707693
v -4.492833 -1.794424 -31.243395
v 4.494902 -2.570400 -30.843838
v -6.500000 1.529820 -31.711103
v -7.007934 1.507522 -31.564358
v -4.499424 -2.400262 -30.949034
v 4.489944 -1.698674 -31.276896
v 6.979381 1.509972 -31.583767
v -4.446838 1.529820 -31.711103
v -4.480529 -2.902653 -30.625195
v 4.450421 -0.237324 -31.684589
v 7.500000 1.482242 -30.707693
v 7.287232 1.482171 -31.314686
v -4.374601 -3.676941 -29.980545
v 4.440214 0.954863 -31.752522
v 7.500000 1.723371 -29.633183
v 7.500000 1.542468 -30.287262
v -4.117768 -4.337387 -29.219830
v -4.483069 1.488981 -30.726114
v 7.500000 2.645645 -28.197723
v 7.500000 2.103627 -28.875954
v -3.603134 -4.872336 -28.346981
v -4.338143 1.653067 -29.850245
v 7.500000 4.000959 -27.303610
v 7.500000 3.378017 -27.622057
v -3.273748 -5.071835 -27.934410
v -7.188868 9.347651 -30.044897
v 7.500000 5.707425 -27.033026
v 7.500000 4.799254 -27.091290
v -2.867864 -5.208891 -27.567461
v -7.436026 9.232411 -29.670364
v 7.500000 7.530210 -27.608074
v 7.500000 6.542554 -27.176384
v -2.013955 -5.374360 -27.013268
v -7.500000 9.110414 -29.364100
v 7.500000 9.110414 -29.364100
v 7.500000 8.286143 -28.187233
v 7.500000 -4.478464 -26.429195
v -7.500000 8.494081 -28.428154
v 7.351699 9.288390 -29.838387
v 7.500000 8.807646 -28.828392
usemtl Paint_-_Metal_Flake_(Black)
f 130 309 53
f 130 311 309
f 129 311 130
f 129 313 311
f 129 307 313
f 181 307 129
f 181 292 307
f 444 292 181
f 296 294 292
f 418 296 292
f 263 444 265
f 419 444 263
f 418 444 419
f 418 292 444
f 448 107 53
f 53 443 448
f 309 438 443
f 190 438 309
f 309 443 53
f 315 190 309
f 309 317 315
f 311 317 309
f 311 319 317
f 311 321 319
f 313 321 311
f 313 323 321
f 307 323 313
f 281 323 307
f 279 323 281
f 277 323 279
f 277 321 323
f 275 321 277
f 275 319 321
f 273 319 275
f 273 317 319
f 273 315 317
f 190 315 273
f 307 283 281
f 285 283 464
f 287 463 468
f 463 287 285
f 463 285 464
f 459 464 283
f 283 460 459
f 307 460 283
f 307 455 460
f 209 447 451
f 506 7 502
f 506 235 7
f 506 233 235
f 234 233 506
f 452 234 506
f 209 234 452
f 209 452 447
f 292 451 456
f 209 451 292
f 307 456 455
f 292 456 307
f 298 209 292
f 294 298 292
f 294 300 298
f 296 300 294
f 296 302 300
f 296 304 302
f 418 304 296
f 418 306 304
f 159 306 418
f 213 306 159
f 213 304 306
f 212 304 213
f 212 302 304
f 211 302 212
f 211 300 302
f 210 300 211
f 210 298 300
f 209 298 210
f 322 285 287
f 257 283 285
f 272 281 283
f 286 281 272
f 279 281 286
f 239 287 297
f 239 322 287
f 322 257 285
f 272 283 257
f 324 257 322
f 253 257 324
f 264 257 253
f 264 272 257
f 286 272 264
f 312 322 239
f 312 324 322
f 261 264 253
f 276 286 264
f 284 279 286
f 312 239 301
f 247 253 324
f 276 284 286
f 277 279 284
f 289 239 297
f 301 239 289
f 320 324 312
f 320 247 324
f 247 261 253
f 276 264 261
f 282 277 284
f 305 312 301
f 255 261 247
f 268 276 261
f 282 284 276
f 290 277 282
f 291 301 289
f 320 245 247
f 245 255 247
f 268 261 255
f 268 274 276
f 274 282 276
f 290 275 277
f 310 312 305
f 314 312 310
f 314 320 312
f 243 245 320
f 262 268 255
f 295 301 291
f 303 301 295
f 303 305 301
f 318 320 314
f 318 243 320
f 243 255 245
f 259 255 251
f 259 262 255
f 270 274 268
f 280 274 270
f 280 282 274
f 293 295 291
f 303 310 305
f 316 318 314
f 251 255 243
f 262 270 268
f 288 282 280
f 288 290 282
f 273 275 290
f 308 310 303
f 316 314 310
f 241 243 318
f 266 270 262
f 278 280 270
f 299 295 293
f 299 303 295
f 325 318 316
f 325 241 318
f 241 251 243
f 249 251 241
f 249 259 251
f 266 262 259
f 266 278 270
f 288 280 278
f 288 273 290
f 308 316 310
f 184 266 259
f 204 293 205
f 202 303 299
f 202 308 303
f 201 308 202
f 200 316 308
f 199 325 316
f 249 241 325
f 183 259 249
f 184 259 183
f 185 266 184
f 189 273 288
f 190 273 189
f 204 299 293
f 201 200 308
f 200 199 316
f 182 249 325
f 186 266 185
f 186 278 266
f 187 278 186
f 188 278 187
f 188 288 278
f 203 299 204
f 202 299 203
f 198 325 199
f 198 182 325
f 182 183 249
f 188 189 288
f 293 472 471
f 291 472 293
f 291 467 472
f 289 467 291
f 297 467 289
f 297 468 467
f 287 468 297
f 293 471 205
f 356 80 110
f 356 71 80
f 350 71 356
f 350 507 71
f 354 507 350
f 358 507 354
f 358 503 507
f 195 503 358
f 351 160 267
f 267 160 419
f 263 267 419
f 263 269 267
f 265 269 263
f 265 271 269
f 265 401 271
f 444 401 265
f 191 401 444
f 405 271 401
f 409 271 405
f 409 269 271
f 346 269 409
f 346 267 269
f 351 267 346
f 357 194 195
f 345 194 357
f 95 193 194
f 88 192 193
f 358 357 195
f 347 194 345
f 95 194 347
f 95 88 193
f 248 192 88
f 248 191 192
f 248 260 191
f 373 357 358
f 373 345 357
f 87 88 95
f 87 248 88
f 256 260 248
f 260 401 191
f 381 358 354
f 373 358 381
f 84 95 347
f 96 87 95
f 405 260 256
f 405 401 260
f 361 345 373
f 361 347 345
f 99 95 84
f 96 95 99
f 89 87 96
f 244 248 87
f 244 256 248
f 361 373 381
f 82 347 361
f 82 84 347
f 258 256 244
f 258 405 256
f 393 381 354
f 82 361 365
f 99 84 82
f 94 89 96
f 89 244 87
f 409 405 258
f 385 381 393
f 365 361 381
f 352 99 82
f 98 96 99
f 98 94 96
f 92 89 94
f 250 258 244
f 240 258 250
f 385 365 381
f 349 82 365
f 349 352 82
f 352 98 99
f 90 89 92
f 90 244 89
f 242 244 90
f 242 250 244
f 240 409 258
f 350 385 393
f 389 385 350
f 369 365 385
f 413 98 352
f 97 94 98
f 97 92 94
f 252 250 242
f 252 240 250
f 346 409 240
f 348 352 349
f 97 98 413
f 85 242 90
f 389 369 385
f 377 369 389
f 353 365 369
f 353 349 365
f 348 413 352
f 91 92 97
f 91 90 92
f 85 252 242
f 254 240 252
f 351 240 254
f 351 346 240
f 397 350 356
f 397 389 350
f 353 369 377
f 348 349 353
f 3 97 413
f 86 90 91
f 86 85 90
f 246 252 85
f 254 252 246
f 83 413 348
f 3 413 83
f 115 97 3
f 93 91 97
f 86 246 85
f 377 389 397
f 118 348 353
f 117 348 118
f 117 83 348
f 115 3 58
f 115 93 97
f 120 356 110
f 120 397 356
f 120 377 397
f 57 118 353
f 116 3 83
f 114 93 115
f 113 91 93
f 59 91 113
f 59 86 91
f 112 246 86
f 111 254 246
f 160 351 254
f 119 377 120
f 57 377 119
f 57 353 377
f 117 116 83
f 116 58 3
f 113 93 114
f 112 86 59
f 112 111 246
f 111 160 254
f 393 354 350
f 61 378 131
f 61 106 378
f 131 378 132
f 106 398 378
f 406 398 106
f 378 366 132
f 398 382 378
f 398 402 382
f 398 406 402
f 378 382 366
f 366 362 132
f 382 374 366
f 382 402 374
f 132 362 133
f 366 374 362
f 402 394 374
f 410 394 402
f 362 52 133
f 362 370 52
f 374 370 362
f 374 394 370
f 394 390 370
f 394 360 390
f 370 390 52
f 52 390 505
f 390 386 505
f 360 386 390
f 386 360 197
f 371 197 360
f 414 360 394
f 414 394 410
f 367 360 414
f 371 360 367
f 368 414 410
f 368 367 414
f 407 404 399
f 65 140 31
f 65 64 140
f 383 388 375
f 383 399 388
f 407 412 404
f 64 73 140
f 375 380 372
f 375 388 380
f 399 392 388
f 399 400 392
f 31 412 407
f 31 39 412
f 31 140 39
f 399 404 400
f 140 139 39
f 404 403 400
f 404 412 403
f 388 379 380
f 388 392 379
f 412 416 403
f 412 39 416
f 392 391 379
f 139 49 39
f 392 400 391
f 403 416 408
f 39 49 415
f 379 391 387
f 400 408 391
f 403 408 400
f 39 415 416
f 49 50 415
f 391 408 395
f 416 415 408
f 391 395 387
f 408 411 395
f 408 415 411
f 415 138 411
f 50 138 415
f 411 138 196
f 383 102 101
f 386 197 505
f 364 410 359
f 368 410 364
f 384 371 367
f 359 410 406
f 396 197 371
f 376 367 368
f 384 367 376
f 396 371 384
f 355 359 406
f 355 406 62
f 363 364 359
f 363 368 364
f 387 384 376
f 363 359 355
f 376 368 363
f 395 396 384
f 196 197 396
f 379 387 376
f 395 384 387
f 380 376 363
f 372 355 104
f 372 363 355
f 379 376 380
f 380 363 372
f 411 396 395
f 196 396 411
f 479 196 138
f 50 479 138
f 50 480 479
f 49 480 50
f 139 480 49
f 139 475 480
f 140 475 139
f 140 73 475
f 105 62 406
f 103 375 372
f 102 375 63
f 102 383 375
f 101 399 383
f 101 407 399
f 100 31 407
f 100 65 31
f 410 402 406
f 61 131 107
f 105 406 106
f 62 104 355
f 103 372 104
f 103 63 375
f 66 407 101
f 66 100 407
f 137 53 107
f 181 134 505
f 129 134 181
f 129 135 134
f 129 136 135
f 130 136 129
f 130 51 136
f 130 137 51
f 53 137 130
f 131 137 107
f 131 51 137
f 132 51 131
f 132 136 51
f 133 136 132
f 133 135 136
f 52 135 133
f 52 134 135
f 52 505 134
f 171 123 124
f 13 54 175
f 238 341 72
f 238 342 341
f 5 342 238
f 5 343 342
f 4 343 5
f 4 344 343
f 223 344 4
f 223 177 344
f 222 177 223
f 222 176 177
f 13 176 222
f 128 176 13
f 175 176 128
f 175 128 13
f 173 174 127
f 127 172 173
f 123 172 127
f 171 172 123
f 124 170 171
f 55 170 124
f 55 169 170
f 55 168 169
f 125 167 168
f 1 120 110
f 2 120 1
f 2 119 120
f 2 57 119
f 161 57 2
f 161 118 57
f 162 118 161
f 163 118 162
f 163 117 118
f 164 117 163
f 164 116 117
f 165 116 164
f 165 58 116
f 165 115 58
f 165 166 115
f 113 114 55
f 126 166 167
f 126 115 166
f 167 115 126
f 167 114 115
f 125 114 167
f 168 114 125
f 168 55 114
f 124 113 55
f 124 59 113
f 123 59 124
f 122 59 123
f 122 112 59
f 122 111 112
f 56 111 122
f 56 160 111
f 121 160 56
f 54 174 175
f 13 174 54
f 13 127 174
f 218 127 13
f 218 123 127
f 217 123 218
f 15 123 217
f 15 122 123
f 215 122 15
f 215 56 122
f 214 56 215
f 214 121 56
f 159 121 214
f 160 121 159
f 110 337 1
f 80 337 110
f 442 446 60
f 60 448 442
f 107 448 60
f 60 61 107
f 446 61 60
f 109 446 450
f 109 61 446
f 450 61 109
f 450 106 61
f 450 108 106
f 454 108 450
f 454 106 108
f 458 106 454
f 458 105 106
f 462 105 458
f 462 62 105
f 466 62 462
f 466 104 62
f 466 103 104
f 470 103 466
f 470 63 103
f 470 102 63
f 474 102 470
f 474 101 102
f 478 101 474
f 478 66 101
f 478 100 66
f 482 100 478
f 482 65 100
f 482 64 65
f 482 73 64
f 74 73 482
f 7 498 502
f 236 498 7
f 6 498 236
f 6 494 498
f 237 494 6
f 237 70 494
f 72 70 237
f 12 234 209
f 18 234 12
f 27 234 18
f 27 233 234
f 40 235 233
f 45 7 235
f 229 12 209
f 221 18 12
f 21 27 18
f 35 233 27
f 40 233 35
f 45 235 40
f 236 7 45
f 229 209 210
f 229 221 12
f 225 221 229
f 14 18 221
f 17 18 14
f 17 21 18
f 25 27 21
f 33 35 27
f 44 236 45
f 14 221 225
f 25 33 27
f 81 40 35
f 81 45 40
f 6 236 44
f 231 229 210
f 231 225 229
f 22 21 17
f 22 25 21
f 36 81 35
f 81 44 45
f 211 231 210
f 227 225 231
f 226 225 227
f 226 14 225
f 30 35 33
f 36 35 30
f 9 231 211
f 9 227 231
f 220 14 226
f 220 16 14
f 16 17 14
f 16 22 17
f 26 25 22
f 26 33 25
f 30 33 26
f 42 44 81
f 47 44 42
f 47 6 44
f 11 227 9
f 11 226 227
f 20 22 16
f 34 36 30
f 38 36 34
f 38 81 36
f 42 81 38
f 237 6 47
f 9 211 212
f 230 11 9
f 216 16 220
f 216 20 16
f 23 22 20
f 23 26 22
f 29 30 26
f 48 237 47
f 232 9 212
f 232 230 9
f 224 226 11
f 224 220 226
f 34 30 29
f 37 38 34
f 37 42 38
f 43 47 42
f 213 232 212
f 228 11 230
f 224 11 228
f 224 216 220
f 19 20 216
f 19 23 20
f 28 29 26
f 43 42 37
f 48 47 43
f 8 232 213
f 10 230 232
f 10 228 230
f 219 216 224
f 19 216 219
f 24 23 19
f 24 26 23
f 24 28 26
f 32 34 29
f 32 37 34
f 41 43 37
f 28 32 29
f 46 48 43
f 72 237 48
f 215 232 8
f 215 10 232
f 228 217 224
f 217 219 224
f 4 37 32
f 41 37 4
f 238 43 41
f 238 46 43
f 72 48 46
f 15 228 10
f 15 217 228
f 13 19 219
f 222 24 19
f 238 41 5
f 159 8 213
f 214 8 159
f 214 215 8
f 15 10 215
f 218 219 217
f 218 13 219
f 13 222 19
f 223 24 222
f 223 28 24
f 223 32 28
f 5 41 4
f 46 238 72
f 32 223 4
f 501 438 206
f 206 497 501
f 188 497 206
f 208 493 188
f 485 489 186
f 457 471 476
f 457 205 471
f 457 204 205
f 461 204 457
f 461 203 204
f 461 202 203
f 465 202 461
f 465 201 202
f 465 200 201
f 469 200 465
f 469 199 200
f 469 198 199
f 473 198 469
f 477 198 473
f 477 182 198
f 481 182 477
f 481 183 182
f 183 481 184
f 184 481 485
f 184 485 185
f 185 485 186
f 186 489 187
f 208 489 493
f 188 489 208
f 187 489 188
f 497 207 493
f 188 207 497
f 188 493 207
f 206 189 188
f 206 190 189
f 190 206 438
f 195 508 503
f 194 508 195
f 194 504 508
f 193 504 194
f 193 499 504
f 192 499 193
f 191 499 192
f 500 499 191
f 495 500 191
f 444 495 191
f 444 496 495
f 491 496 181
f 492 491 181
f 484 196 479
f 483 196 484
f 488 196 483
f 197 196 488
f 487 197 488
f 492 197 487
f 181 197 492
f 181 505 197
f 181 496 444
f 445 178 327
f 441 178 445
f 441 490 178
f 476 461 457
f 476 465 461
f 476 469 465
f 486 469 476
f 439 469 486
f 473 486 180
f 473 439 486
f 469 439 473
f 437 481 477
f 441 481 437
f 441 485 481
f 180 477 473
f 486 477 180
f 486 437 477
f 490 437 486
f 490 441 437
f 445 485 441
f 327 485 445
f 327 489 485
f 78 489 327
f 326 489 78
f 326 493 489
f 497 493 326
f 79 497 326
f 79 501 497
f 417 501 79
f 417 438 501
f 142 438 417
f 142 443 438
f 436 443 142
f 436 448 443
f 143 448 436
f 143 442 448
f 435 442 143
f 435 446 442
f 144 446 435
f 144 450 446
f 144 454 450
f 144 458 454
f 434 458 144
f 146 458 434
f 462 458 146
f 449 466 462
f 453 466 449
f 146 449 462
f 432 449 146
f 77 449 432
f 77 453 449
f 76 453 77
f 470 466 453
f 440 76 75
f 470 76 440
f 470 453 76
f 179 474 470
f 75 470 440
f 75 179 470
f 75 474 179
f 74 474 75
f 74 478 474
f 482 478 74
f 340 494 70
f 339 494 340
f 339 498 494
f 339 502 498
f 336 502 339
f 335 502 336
f 335 506 502
f 334 506 335
f 334 452 506
f 333 452 334
f 333 447 452
f 332 447 333
f 332 451 447
f 331 451 332
f 331 456 451
f 330 456 331
f 330 455 456
f 330 460 455
f 329 460 330
f 329 459 460
f 328 459 329
f 328 464 459
f 178 464 328
f 178 463 464
f 490 463 178
f 486 463 490
f 486 468 463
f 486 467 468
f 476 467 486
f 476 472 467
f 476 471 472
f 71 337 80
f 507 337 71
f 507 338 337
f 503 338 507
f 503 151 338
f 508 151 503
f 508 428 151
f 508 150 428
f 504 150 508
f 499 150 504
f 499 429 150
f 500 429 499
f 500 149 429
f 495 149 500
f 495 430 149
f 496 430 495
f 496 148 430
f 491 148 496
f 492 148 491
f 492 431 148
f 487 431 492
f 487 147 431
f 488 147 487
f 488 432 147
f 483 432 488
f 483 77 432
f 484 77 483
f 484 76 77
f 479 76 484
f 479 75 76
f 480 75 479
f 480 74 75
f 475 74 480
f 73 74 475
f 340 72 341
f 70 72 340
f 141 162 161
f 141 163 162
f 342 340 341
f 342 339 340
f 343 339 342
f 69 339 343
f 420 336 67
f 69 336 339
f 343 336 69
f 343 67 336
f 344 67 343
f 344 420 67
f 177 420 344
f 177 158 420
f 177 421 158
f 176 421 177
f 175 421 176
f 175 157 421
f 174 157 175
f 174 422 157
f 173 422 174
f 172 422 173
f 172 156 422
f 171 156 172
f 171 423 156
f 170 423 171
f 170 155 423
f 169 155 170
f 169 424 155
f 168 424 169
f 168 154 424
f 167 154 168
f 167 425 154
f 166 425 167
f 165 425 166
f 165 153 425
f 153 165 164
f 153 164 163
f 426 163 141
f 153 163 426
f 141 151 426
f 161 151 141
f 68 151 161
f 338 151 68
f 338 68 161
f 161 2 338
f 2 337 338
f 1 337 2
f 420 335 336
f 420 334 335
f 427 334 420
f 333 334 427
f 332 333 427
f 427 331 332
f 145 331 427
f 145 330 331
f 145 329 330
f 327 329 145
f 328 329 327
f 178 328 327
f 78 327 145
f 145 326 78
f 145 79 326
f 145 417 79
f 142 417 145
f 433 142 145
f 433 436 142
f 143 436 433
f 433 435 143
f 433 144 435
f 433 434 144
f 146 434 433
f 427 433 145
f 152 433 427
f 147 432 146
f 431 147 146
f 433 431 146
f 433 148 431
f 433 430 148
f 152 430 433
f 149 430 152
f 152 429 149
f 152 150 429
f 426 150 152
f 428 150 426
f 151 428 426
f 152 153 426
f 425 153 152
f 154 425 152
f 152 424 154
f 155 424 152
f 152 423 155
f 427 423 152
f 427 156 423
f 422 156 427
f 427 157 422
f 427 421 157
f 427 158 421
f 420 158 427
f 418 160 159
f 419 160 418
g Body3

v 1.015625 -0.388412 1.701744
v 0.541667 -0.976707 1.449102
v 0.406250 -1.520893 0.856551
v 0.541667 -1.734741 0.223670
v -0.677083 -1.704371 -0.389012
v 0.033854 -1.340953 -1.114116
v 0.406250 -0.602837 -1.638103
v -0.203125 0.496645 -1.673362
v 0.541667 1.111308 -1.348647
v 0.406250 1.520893 -0.856551
v -0.203125 1.667108 -0.524028
v 0.270833 1.745507 0.084020
v 0.541667 1.734741 -0.223670
v 0.270833 1.331846 -1.133817
v 0.270833 0.833009 -1.536213
v 0.270833 -0.251241 -1.729373
v -0.203125 -0.998634 -1.431617
v 0.169271 -1.591672 -0.719913
v 0.270833 -1.745507 -0.084020
v -0.203125 -1.667108 0.524028
v 0.270833 -1.253884 1.214319
v -0.677083 -0.708007 1.599400
v -0.677083 1.704371 0.389012
v 0.033854 1.340953 1.114116
v 0.406250 0.602837 1.638103
v -1.218750 -0.083977 1.745509
v -6.500000 0.292026 1.719143
v -6.500000 1.436322 0.984828
v -6.500000 1.741921 0.111835
v -6.500000 1.478111 -0.912429
v -6.500000 0.640524 -1.619455
v -6.500000 -0.292026 -1.719143
v -6.500000 -1.436322 -0.984828
v -6.500000 -1.741921 -0.111835
v -6.500000 -1.478111 0.912429
v -6.500000 -0.640524 1.619455
v 6.500000 -0.292026 1.719143
v 6.500000 -1.436322 0.984828
v 6.500000 -1.741921 0.111835
v 6.500000 -1.478111 -0.912429
v 6.500000 -0.640524 -1.619455
v 6.500000 0.292026 -1.719143
v 6.500000 1.436322 -0.984828
v 6.500000 1.741921 -0.111835
v 6.500000 1.478111 0.912429
v 6.500000 1.088306 1.364692
v 6.500000 0.167609 1.737441
v 6.500000 0.640524 1.619455
v 6.500000 1.713318 0.333669
v 6.500000 1.656584 -0.550024
v 6.500000 0.959336 -1.448106
v 6.500000 -0.167609 -1.737441
v 6.500000 -1.088306 -1.364692
v 6.500000 -1.713318 -0.333669
v 6.500000 -1.656584 0.550024
v 6.500000 -0.959336 1.448106
v -6.500000 -0.167609 1.737441
v -6.500000 -1.088306 1.364692
v -6.500000 -1.713318 0.333669
v -6.500000 -1.656584 -0.550024
v -6.500000 -0.959336 -1.448106
v -6.500000 0.167609 -1.737441
v -6.500000 1.088306 -1.364692
v -6.500000 1.713318 -0.333669
v -6.500000 1.656584 0.550024
v -6.500000 0.959336 1.448106
v 0.270833 0.083977 -1.745509
v 0.609375 0.251241 1.729373
v -0.203125 0.998634 1.431617
v 0.169271 1.591672 0.719913
usemtl Paint_-_Metal_Flake_(Aqua)
f 572 573 537
f 538 573 572
f 538 536 573
f 538 574 536
f 571 574 538
f 539 574 571
f 539 535 574
f 570 535 539
f 567 568 542
f 543 568 567
f 543 541 568
f 543 569 541
f 566 569 543
f 544 569 566
f 544 540 569
f 565 540 544
f 565 570 540
f 535 570 565
f 562 563 547
f 548 563 562
f 548 546 563
f 548 564 546
f 561 564 548
f 549 564 561
f 549 545 564
f 560 545 549
f 557 558 552
f 553 558 557
f 553 551 558
f 553 559 551
f 554 559 553
f 556 559 554
f 556 550 559
f 555 550 556
f 555 560 550
f 545 560 555
f 565 509 534
f 544 509 565
f 544 530 509
f 544 510 530
f 566 510 544
f 566 529 510
f 543 529 566
f 543 511 529
f 543 528 511
f 567 528 543
f 567 512 528
f 567 527 512
f 542 527 567
f 542 513 527
f 568 513 542
f 568 526 513
f 541 526 568
f 541 514 526
f 569 514 541
f 569 525 514
f 569 515 525
f 540 515 569
f 540 524 515
f 540 575 524
f 570 575 540
f 570 516 575
f 539 516 570
f 539 523 516
f 571 523 539
f 571 517 523
f 571 522 517
f 538 522 571
f 538 518 522
f 538 519 518
f 572 519 538
f 572 521 519
f 572 520 521
f 537 520 572
f 537 531 520
f 573 531 537
f 573 578 531
f 536 578 573
f 536 532 578
f 574 532 536
f 574 577 532
f 574 533 577
f 535 533 574
f 535 576 533
f 535 534 576
f 565 534 535
f 555 533 576
f 556 533 555
f 556 577 533
f 554 577 556
f 554 532 577
f 553 532 554
f 553 578 532
f 553 531 578
f 557 531 553
f 557 520 531
f 552 520 557
f 552 521 520
f 552 519 521
f 558 519 552
f 558 518 519
f 551 518 558
f 551 522 518
f 551 517 522
f 559 517 551
f 559 523 517
f 559 516 523
f 550 516 559
f 550 575 516
f 560 575 550
f 560 524 575
f 560 515 524
f 549 515 560
f 549 525 515
f 561 525 549
f 561 514 525
f 548 514 561
f 548 526 514
f 548 513 526
f 562 513 548
f 562 527 513
f 547 527 562
f 547 512 527
f 547 528 512
f 563 528 547
f 563 511 528
f 546 511 563
f 546 529 511
f 564 529 546
f 564 510 529
f 564 530 510
f 564 509 530
f 545 509 564
f 545 534 509
f 555 534 545
f 555 576 534
g Body5

v 7.500000 9.422169 -30.549511
v 7.500000 7.759972 -27.806513
v 7.500000 4.533897 -27.166725
v 7.500000 1.800906 -29.476282
v 7.500000 2.035910 -33.009281
v 7.500000 4.072686 -34.747398
v 7.500000 6.829483 -34.750351
v 7.500000 9.315194 -32.002838
v 6.500000 8.707701 -33.269138
v 6.500000 5.509945 -35.008247
v 6.500000 2.446545 -33.608765
v 6.500000 1.552451 -30.357977
v 6.500000 2.859422 -28.036659
v 6.500000 5.345548 -27.052114
v 6.500000 7.780910 -27.794399
v 6.500000 9.299935 -29.960861
v 6.500000 8.774539 -28.790823
v 6.500000 6.701690 -27.224344
v 6.500000 4.202378 -27.236135
v 6.500000 1.990386 -29.074896
v 6.500000 1.676168 -32.159218
v 6.500000 3.825167 -34.614681
v 6.500000 7.033514 -34.664593
v 6.500000 9.428270 -31.455950
v 7.500000 8.394182 -33.674446
v 7.500000 5.457001 -35.006927
v 7.500000 2.848426 -34.028347
v 7.500000 1.526368 -31.155046
v 7.500000 2.890676 -28.031813
v 7.500000 6.071497 -27.089569
v 7.500000 8.989064 -29.178850
usemtl Paint_-_Metal_Flake_(Gold)
f 607 608 581
f 607 580 608
f 582 580 607
f 582 609 580
f 606 609 582
f 606 579 609
f 585 584 604
f 603 584 585
f 603 605 584
f 586 605 603
f 586 583 605
f 579 583 586
f 579 606 583
f 600 601 588
f 600 587 601
f 589 587 600
f 589 602 587
f 599 602 589
f 599 594 602
f 592 591 597
f 596 591 592
f 593 591 596
f 593 598 591
f 595 598 593
f 595 590 598
f 594 590 595
f 594 599 590
f 594 609 579
f 595 609 594
f 595 580 609
f 593 580 595
f 596 580 593
f 596 608 580
f 592 608 596
f 592 581 608
f 597 581 592
f 597 607 581
f 591 607 597
f 598 607 591
f 598 582 607
f 590 582 598
f 590 606 582
f 599 606 590
f 599 583 606
f 589 583 599
f 589 605 583
f 600 605 589
f 600 584 605
f 600 604 584
f 588 604 600
f 588 585 604
f 601 585 588
f 601 603 585
f 587 603 601
f 587 586 603
f 602 586 587
f 602 579 586
f 594 579 602
g Body4

v -6.500000 4.734472 -32.115189
v -7.500000 7.693556 -33.386765
v -7.500000 4.095763 -29.912149
v -6.500000 8.811365 -30.638649
f 612 613 611
f 612 610 613
f 611 610 612
f 611 613 610
g Body7

v -7.185393 9.822721 -16.354912
v -7.500000 9.091711 -16.451370
v -6.500000 0.851309 -3.897377
v -6.500000 -0.784238 -3.919859
v -6.500000 -1.412110 -3.735819
v -6.500000 -2.369581 -3.206555
v -7.427616 9.462102 -16.402496
v 6.500000 10.115012 -16.316341
v 7.222773 9.786932 -16.359634
v 7.500000 9.091711 -16.451370
v 7.280946 -6.492702 -18.507801
v 6.500000 -6.881598 -18.559118
v -6.960996 -6.756100 -18.542557
v -7.500000 -5.889260 -18.428175
v 7.422328 -8.967807 -3.104406
v 6.927421 -9.486479 -3.195862
v 6.640035 -8.525249 -9.169170
v 7.188873 -7.864368 -11.366518
v 7.475526 -7.453416 -10.674267
v 7.500000 2.843248 -2.795524
v 7.500000 0.881902 -3.882720
v 7.500000 -0.939061 -3.883700
v 7.500000 -2.302323 -3.265620
v 7.500000 -3.391293 -2.121116
v 6.889005 3.874647 -0.990836
v 7.375027 3.651604 -1.626783
v 7.379865 5.705963 -6.748865
v 6.961433 7.290728 -9.592546
v -6.500000 3.909187 -0.847499
v 6.500000 3.904072 -0.834747
v 6.500000 -3.391293 -2.121116
v -7.500000 -3.391293 -2.121116
v -7.194487 -9.286544 -3.160608
v -7.489077 -7.052116 -12.655697
v -7.355801 -7.743123 -10.876854
v -6.944490 -7.723628 -13.159749
v -7.500000 3.361491 -2.168036
v -7.136395 3.805338 -1.226899
v -6.621024 7.644458 -10.180201
v -7.067806 7.352700 -9.918436
v -7.353455 6.689022 -9.076316
v -7.500000 -2.966844 -2.663991
v -7.500000 -1.629204 -3.644120
v -7.500000 -0.132203 -3.991733
v -7.500000 1.207816 -3.808693
v -7.500000 2.843248 -2.795524
v 6.500000 3.295389 -2.252322
v 6.500000 2.293348 -3.269702
v 6.500000 0.664384 -3.931349
v 6.500000 -1.392980 -3.744842
v 6.500000 -2.557348 -3.069887
v -6.500000 3.760391 -1.331815
v -6.500000 2.410142 -3.179193
v -6.500000 -3.075556 -2.544306
v -6.500000 -0.091604 -3.992744
v -6.500000 1.709906 -3.609241
v -6.500000 3.165664 -2.418791
v 6.500000 -3.075556 -2.544306
v 6.500000 -2.003788 -3.456743
v 6.500000 -0.511849 -3.954102
v 6.500000 1.575799 -3.671661
v 6.500000 2.827428 -2.823099
v 6.500000 3.746270 -1.371682
v -7.500000 1.896831 -3.509708
v -7.500000 0.555989 -3.956746
v -7.500000 -0.939061 -3.883700
v -7.500000 -2.302323 -3.265620
v -7.469483 6.600046 -9.631124
v -7.254176 6.019474 -7.043992
v -6.825570 6.620427 -7.756947
v -6.866729 3.879967 -0.971145
v -7.367194 3.662869 -1.603540
v -6.688034 -8.614152 -8.592603
v -7.178802 -7.948619 -10.940634
v -7.430110 -7.636963 -10.582672
v -6.784119 -9.542448 -3.205731
v -7.500000 -8.602608 -3.040012
v -6.500000 -3.391293 -2.121116
v -6.500000 -9.587416 -3.213660
v -6.500000 3.904072 -0.834747
v 6.688169 6.468805 -7.284632
v 7.219559 6.732808 -8.722027
v 7.468328 6.248337 -8.748027
v 7.167655 3.794508 -1.262168
v 6.500000 3.909187 -0.847499
v 7.500000 -2.966844 -2.663991
v 7.500000 -1.629204 -3.644120
v 7.500000 -0.132203 -3.991733
v 7.500000 1.896831 -3.509708
v 7.500000 3.361491 -2.168036
v 7.375499 -7.961663 -9.386576
v 6.903172 -8.282916 -10.090555
v 6.500000 -9.587416 -3.213660
v 7.204090 -9.296001 -3.162276
v 7.500000 -8.602608 -3.040012
v -7.363708 -6.364741 -18.490917
v -6.500000 -6.881598 -18.559118
v 6.946444 -6.759868 -18.543056
v 7.500000 -5.889260 -18.428175
v 7.414786 9.490946 -16.398689
v 6.870832 10.035530 -16.326830
v -6.500000 10.115012 -16.316341
usemtl Paint_-_Metal_Flake_(Black)
f 691 655 645
f 667 655 691
f 619 655 667
f 619 680 655
f 619 656 680
f 618 656 619
f 618 679 656
f 617 679 618
f 617 657 679
f 668 657 617
f 668 678 657
f 616 678 668
f 616 658 678
f 669 658 616
f 669 677 658
f 666 677 669
f 666 659 677
f 670 659 666
f 670 650 659
f 665 650 670
f 665 685 650
f 665 651 685
f 684 651 665
f 665 642 684
f 693 667 691
f 693 619 667
f 616 666 669
f 668 666 616
f 668 670 666
f 617 670 668
f 618 670 617
f 618 665 670
f 619 665 618
f 693 665 619
f 642 665 693
f 661 662 674
f 661 673 662
f 675 673 661
f 660 673 675
f 660 663 673
f 676 663 660
f 676 672 663
f 643 671 664
f 644 671 643
f 676 664 672
f 676 643 664
f 698 643 676
f 676 638 698
f 676 697 638
f 639 697 676
f 660 639 676
f 703 639 660
f 699 644 637
f 699 671 644
f 699 664 671
f 636 664 699
f 636 672 664
f 700 672 636
f 700 663 672
f 635 663 700
f 635 673 663
f 701 673 635
f 701 662 673
f 634 662 701
f 634 674 662
f 702 674 634
f 702 661 674
f 633 661 702
f 633 675 661
f 633 660 675
f 703 660 633
f 659 650 615
f 615 677 659
f 615 658 677
f 615 678 658
f 657 678 627
f 627 679 657
f 656 679 627
f 690 655 680
f 645 655 690
f 627 680 656
f 690 680 627
f 627 678 615
f 642 715 652
f 683 642 652
f 683 684 642
f 653 684 683
f 653 651 684
f 620 615 681
f 681 615 650
f 654 620 681
f 614 620 654
f 715 683 652
f 715 653 683
f 614 653 715
f 614 682 653
f 614 654 682
f 685 681 650
f 685 654 681
f 685 682 654
f 651 682 685
f 653 682 651
f 688 690 647
f 647 690 627
f 646 690 688
f 648 646 688
f 626 710 686
f 649 626 686
f 686 710 692
f 709 647 627
f 709 688 647
f 709 648 688
f 709 687 648
f 626 687 709
f 626 649 687
f 689 686 692
f 689 649 686
f 646 649 689
f 646 687 649
f 646 648 687
f 692 646 689
f 692 690 646
f 643 693 691
f 690 691 645
f 692 691 690
f 692 643 691
f 644 643 692
f 708 644 706
f 637 644 708
f 628 708 706
f 706 707 628
f 629 707 706
f 692 706 644
f 710 706 692
f 625 706 710
f 698 693 643
f 698 642 693
f 621 642 698
f 715 642 621
f 703 623 696
f 696 639 703
f 640 639 696
f 714 621 694
f 641 714 694
f 694 621 698
f 622 714 641
f 713 696 623
f 713 640 696
f 622 640 713
f 622 695 640
f 641 695 622
f 638 694 698
f 638 641 694
f 697 641 638
f 697 695 641
f 639 695 697
f 640 695 639
f 708 699 637
f 708 636 699
f 712 636 708
f 700 636 712
f 712 635 700
f 701 635 712
f 623 702 634
f 623 633 702
f 623 703 633
f 712 634 701
f 623 634 712
f 629 706 630
f 630 706 625
f 705 629 630
f 632 712 708
f 624 712 632
f 704 624 632
f 711 630 625
f 711 705 630
f 711 631 705
f 624 631 711
f 624 704 631
f 628 632 708
f 628 704 632
f 707 704 628
f 707 631 704
f 707 705 631
f 629 705 707
f 623 622 713
f 623 714 622
f 621 714 623
f 615 621 623
f 615 715 621
f 615 614 715
f 615 620 614
f 710 711 625
f 626 711 710
f 626 624 711
f 709 624 626
f 709 712 624
f 627 712 709
f 627 623 712
f 615 623 627
# 715 vertices
# 0 texture params
# 0 normals
# 1410 facets

# 5 groups
