# WaveFront *.obj file (generated by Autodesk ATF)

mtllib calf_sinister_collision.mtl

g Body2

v 7.500000 -4.478464 -26.429195
v 6.500000 1.529820 -31.711103
v -4.000000 12.033047 -25.021444
v 4.000000 12.033047 -25.021444
v -4.000000 12.033047 -28.959892
v 4.000000 12.033047 -28.959892
v 4.446070 9.409148 -30.326851
v 4.000000 2.042090 -28.959892
v -4.000000 -4.466953 -28.959892
v 4.446838 1.529820 -31.711103
v 6.500000 3.909187 -0.847499
v 7.500000 9.381942 -29.316223
v 7.500000 9.110414 -29.364100
v -6.500000 -3.391293 -2.121116
v 6.500000 3.904072 -0.834747
v 7.500000 -3.391293 -2.121116
v 6.500000 -9.587416 -3.213660
v -0.852041 -5.463272 -26.602844
v -4.446070 9.409148 -30.326851
v 0.229650 12.943884 -27.624235
v 6.500000 9.555590 -30.301029
v -7.500000 -8.602608 -3.040012
v -7.500000 -4.478464 -26.429195
v -6.500000 1.529820 -31.711103
v -7.500000 12.211128 -24.226933
v -6.500000 3.909187 -0.847499
v -6.500000 9.555590 -30.301029
v -7.500000 9.110414 -29.364100
v 6.500000 -5.463272 -26.602844
v 7.500000 1.482242 -30.707693
v -6.500000 9.409148 -30.326851
v -7.500000 9.381942 -29.316223
v -7.500000 3.361491 -2.168036
v -6.500000 13.139226 -23.854595
v -7.500000 1.482242 -30.707693
v -6.500000 -5.463272 -26.602844
v -6.500000 -9.587416 -3.213660
v 6.500000 13.139226 -23.854595
v 4.441959 9.555590 -30.301029
v -4.441959 9.555590 -30.301029
v -4.446838 1.529820 -31.711103
v 0.852041 -5.463272 -26.602844
v 7.500000 -8.602608 -3.040012
v 6.500000 -3.391293 -2.121116
v -6.500000 3.904072 -0.834747
v -7.500000 -3.391293 -2.121116
v 6.500000 9.409148 -30.326851
v 7.500000 12.211128 -24.226933
v 7.500000 3.361491 -2.168036
v -4.000000 2.042090 -28.959892
v 4.000000 -4.466953 -28.959892
v 4.000000 8.897745 -28.959892
v -4.000000 8.897745 -28.959892
v -0.133335 12.033047 -26.579727
v 4.000000 -4.466953 -25.021444
v -4.000000 -4.466953 -25.021444
usemtl Paint_-_Metal_Flake_(Black)
f 49 44 16
f 49 11 44
f 11 15 44
f 45 26 14
f 14 33 46
f 26 33 14
f 11 45 15
f 11 26 45
f 38 26 11
f 34 26 38
f 54 6 4
f 3 54 4
f 3 5 54
f 3 53 5
f 50 53 3
f 56 50 3
f 9 50 56
f 3 55 56
f 4 55 3
f 55 9 56
f 55 51 9
f 55 8 51
f 4 8 55
f 52 8 4
f 6 52 4
f 52 39 7
f 6 39 52
f 6 20 39
f 54 20 6
f 5 20 54
f 40 20 5
f 40 53 19
f 5 53 40
f 21 7 39
f 47 7 21
f 53 31 19
f 53 28 31
f 50 28 53
f 50 35 28
f 41 35 50
f 41 24 35
f 13 7 47
f 13 52 7
f 13 8 52
f 30 8 13
f 30 10 8
f 2 10 30
f 51 8 10
f 50 9 41
f 9 18 41
f 42 51 10
f 42 9 51
f 18 9 42
f 46 33 23
f 23 22 46
f 35 23 33
f 33 28 35
f 25 28 33
f 32 28 25
f 10 29 42
f 10 2 29
f 1 16 43
f 48 13 12
f 49 13 48
f 16 13 49
f 1 13 16
f 1 30 13
f 48 38 11
f 48 11 49
f 38 48 12
f 21 38 12
f 21 13 47
f 12 13 21
f 43 17 1
f 1 17 29
f 14 15 45
f 44 15 14
f 43 16 44
f 44 17 43
f 44 37 17
f 14 37 44
f 22 14 46
f 22 37 14
f 42 29 17
f 18 42 17
f 37 18 17
f 36 18 37
f 41 36 24
f 18 36 41
f 19 27 40
f 31 27 19
f 20 21 39
f 21 20 38
f 38 20 34
f 40 34 20
f 40 27 34
f 23 36 37
f 22 23 37
f 36 35 24
f 36 23 35
f 34 32 25
f 27 32 34
f 34 25 33
f 34 33 26
f 32 31 28
f 27 31 32
f 30 1 29
f 29 2 30
g Body5

v -6.500000 8.735600 -33.245209
v -6.500000 9.080950 -29.438162
v -6.500000 9.414812 -31.447765
v -6.500000 7.573805 -34.410110
v -6.500000 5.732246 -34.947212
v -6.500000 3.515325 -34.451351
v -6.500000 2.095631 -33.115990
v -6.500000 1.540734 -31.204842
v -6.500000 1.878642 -29.295744
v -6.500000 2.652592 -28.204002
v -6.500000 3.927470 -27.357742
v -6.500000 5.732777 -27.090033
v -6.500000 7.781857 -27.818260
v -7.500000 8.567163 -28.573627
v -7.500000 6.934786 -27.335266
v -7.500000 5.089526 -27.071856
v -7.500000 3.848390 -27.379063
v -7.500000 2.639774 -28.240395
v -7.500000 1.671284 -29.967819
v -7.500000 1.598127 -31.927372
v -7.500000 2.316553 -33.396530
v -7.500000 3.722023 -34.605202
v -7.500000 5.101331 -34.969719
v -7.500000 6.710594 -34.802715
v -7.500000 8.064970 -34.024666
v -7.500000 9.047762 -32.753754
v -7.500000 9.439939 -31.392078
v -7.500000 9.329068 -30.059250
usemtl Paint_-_Metal_Flake_(Gold)
f 70 72 71
f 70 73 72
f 70 74 73
f 70 75 74
f 79 81 80
f 78 81 79
f 78 82 81
f 77 82 78
f 77 83 82
f 76 83 77
f 76 84 83
f 84 75 70
f 84 76 75
f 68 58 69
f 67 58 68
f 66 58 67
f 65 58 66
f 64 58 65
f 60 62 61
f 57 62 60
f 57 63 62
f 59 63 57
f 59 64 63
f 58 64 59
f 59 84 58
f 59 83 84
f 59 82 83
f 57 82 59
f 57 81 82
f 60 81 57
f 60 80 81
f 61 80 60
f 61 79 80
f 62 79 61
f 62 78 79
f 62 77 78
f 63 77 62
f 63 76 77
f 64 76 63
f 64 75 76
f 65 75 64
f 65 74 75
f 66 74 65
f 67 74 66
f 67 73 74
f 67 72 73
f 68 72 67
f 68 71 72
f 69 71 68
f 69 70 71
f 58 70 69
f 58 84 70
g Body3

v 0.609375 0.388630 1.698084
v 0.000000 0.895842 1.500225
v -0.121875 1.237144 1.226375
v -0.975000 1.531378 0.842612
v 0.609375 1.693242 0.411163
v -0.243750 1.746731 -0.046265
v 0.243750 1.683774 -0.456479
v 0.000000 1.515802 -0.869226
v 0.000000 1.299210 -1.168445
v 0.243750 0.350879 -1.705086
v 0.000000 0.944702 -1.462180
v -0.487500 -0.472063 -1.682369
v 0.731250 -1.109754 -1.349247
v 0.243750 -1.683774 -0.456479
v 0.487500 -1.721230 0.291329
v -0.365625 -1.243019 1.221366
v 0.975000 -0.516314 1.668964
v 0.000000 -0.138643 -1.741835
v 6.500000 -1.274750 1.187912
v 6.500000 -1.744282 -0.030789
v 6.500000 -1.307386 -1.155079
v 6.500000 -0.425054 -1.684136
v 6.500000 0.877109 -1.499221
v 6.500000 1.688250 -0.394299
v 6.500000 1.301838 1.149870
v 6.500000 0.137723 1.728827
v -6.500000 1.301838 1.149870
v -6.500000 1.688250 -0.394299
v -6.500000 1.093314 -1.353259
v -6.500000 -0.425054 -1.684136
v -6.500000 -1.595700 -0.686095
v -6.500000 -1.647380 0.574113
v -6.500000 -1.379706 1.055176
v -6.500000 -0.182562 1.717517
v -6.500000 -0.881150 1.505670
v -6.500000 -1.739659 0.015274
v -6.500000 -1.120562 -1.314357
v -6.500000 0.409206 -1.685337
v -6.500000 1.456926 -0.959600
v -6.500000 1.667018 0.451936
v -6.500000 0.600252 1.629933
v 6.500000 0.772747 1.564075
v 6.500000 1.667018 0.451936
v 6.500000 1.393170 -1.046519
v 6.500000 0.260333 -1.722890
v 6.500000 -0.933738 -1.473635
v 6.500000 -1.595700 -0.686095
v 6.500000 -1.630097 0.600588
v 6.500000 -0.669121 1.595908
v -0.487500 -0.123059 1.739119
v -0.487500 -0.841539 1.529482
v 0.000000 -1.580766 0.738042
v -0.243750 -1.745914 -0.061683
v -0.121875 -1.444350 -0.969794
v 0.243750 -0.780374 -1.562128
usemtl Paint_-_Metal_Flake_(Aqua)
f 131 132 104
f 131 103 132
f 105 103 131
f 130 103 105
f 130 133 103
f 106 133 130
f 106 110 133
f 128 129 107
f 108 129 128
f 127 129 108
f 109 129 127
f 126 129 109
f 110 129 126
f 110 106 129
f 122 123 113
f 112 123 122
f 124 112 122
f 122 111 124
f 122 125 111
f 122 118 125
f 116 115 120
f 117 115 116
f 117 121 115
f 119 121 117
f 119 114 121
f 118 114 119
f 118 122 114
f 110 85 134
f 126 85 110
f 126 86 85
f 109 86 126
f 109 87 86
f 109 88 87
f 127 88 109
f 127 89 88
f 127 90 89
f 108 90 127
f 108 91 90
f 108 92 91
f 128 92 108
f 128 93 92
f 107 93 128
f 107 95 93
f 107 94 95
f 129 94 107
f 129 102 94
f 106 102 129
f 106 96 102
f 106 139 96
f 130 139 106
f 130 97 139
f 105 97 130
f 105 138 97
f 131 138 105
f 131 98 138
f 104 98 131
f 104 137 98
f 104 99 137
f 132 99 104
f 132 136 99
f 103 136 132
f 103 100 136
f 133 100 103
f 133 135 100
f 133 101 135
f 133 134 101
f 110 134 133
f 118 101 134
f 118 135 101
f 119 135 118
f 119 100 135
f 117 100 119
f 117 136 100
f 116 136 117
f 116 99 136
f 120 99 116
f 120 137 99
f 120 98 137
f 115 98 120
f 115 138 98
f 121 138 115
f 121 97 138
f 121 139 97
f 114 139 121
f 114 96 139
f 114 102 96
f 122 102 114
f 122 94 102
f 122 95 94
f 113 95 122
f 113 93 95
f 123 93 113
f 123 92 93
f 112 92 123
f 112 91 92
f 112 90 91
f 124 90 112
f 124 89 90
f 124 88 89
f 111 88 124
f 111 87 88
f 111 86 87
f 125 86 111
f 125 85 86
f 118 85 125
f 118 134 85
g Body4

v 7.500000 9.085751 -32.682022
v 7.500000 9.349898 -30.185163
v 7.500000 9.430244 -31.484322
v 7.500000 7.997584 -34.060112
v 7.500000 6.365470 -34.899994
v 7.500000 4.549693 -34.857639
v 7.500000 2.749466 -33.921551
v 7.500000 1.817494 -32.516380
v 7.500000 1.513600 -30.582449
v 7.500000 1.878642 -29.295744
v 7.500000 3.113862 -27.855612
v 7.500000 5.033393 -27.083822
v 7.500000 6.912747 -27.327820
v 7.500000 8.530897 -28.514059
v 6.500000 8.567163 -28.573627
v 6.500000 6.934786 -27.335266
v 6.500000 4.912308 -27.127167
v 6.500000 3.035129 -27.867540
v 6.500000 2.074742 -28.980907
v 6.500000 1.518467 -30.675323
v 6.500000 1.801857 -32.528255
v 6.500000 3.188576 -34.220634
v 6.500000 5.101331 -34.969719
v 6.500000 6.710594 -34.802715
v 6.500000 8.064970 -34.024666
v 6.500000 9.047762 -32.753754
v 6.500000 9.439939 -31.392078
v 6.500000 9.329068 -30.059250
usemtl Paint_-_Metal_Flake_(Gold)
f 154 156 155
f 157 156 154
f 154 158 157
f 162 164 163
f 161 164 162
f 161 165 164
f 160 165 161
f 160 166 165
f 160 167 166
f 154 159 158
f 167 159 154
f 167 160 159
f 151 153 152
f 150 153 151
f 149 153 150
f 148 153 149
f 148 141 153
f 147 141 148
f 143 145 144
f 143 146 145
f 140 146 143
f 140 147 146
f 142 147 140
f 141 147 142
f 141 166 167
f 142 166 141
f 142 165 166
f 140 165 142
f 143 165 140
f 143 164 165
f 143 163 164
f 144 163 143
f 144 162 163
f 145 162 144
f 145 161 162
f 146 161 145
f 147 161 146
f 147 160 161
f 147 159 160
f 148 159 147
f 149 159 148
f 149 158 159
f 150 158 149
f 150 157 158
f 150 156 157
f 151 156 150
f 152 156 151
f 152 155 156
f 153 155 152
f 153 154 155
f 141 154 153
f 141 167 154
# 167 vertices
# 0 texture params
# 0 normals
# 318 facets

# 4 groups
