# WaveFront *.obj file (generated by Autodesk ATF)

mtllib coat_tail_collision.mtl

g Body1

v 6.151293 20.806990 51.313700
v 5.663759 20.950268 51.740002
v 5.172904 21.084598 52.169208
v 4.678943 21.209920 52.601130
v 4.182092 21.326181 53.035578
v 3.682569 21.433330 53.472364
v 3.180592 21.531318 53.911295
v 2.676381 21.620105 54.352179
v 2.170156 21.699650 54.794825
v 1.662139 21.769918 55.239037
v 1.152553 21.830880 55.684622
v 0.641620 21.882509 56.131384
v 0.129563 21.924781 56.579129
v -0.383393 21.957678 57.027660
v -0.897023 21.981187 57.476780
v -1.411104 21.995296 57.926295
v -1.925409 22.000000 58.376006
v -4.070868 22.000000 74.313700
v -3.483947 21.992130 74.313700
v -2.897456 21.968526 74.313700
v -2.311824 21.929205 74.313700
v -1.727480 21.874196 74.313700
v -1.144851 21.803540 74.313700
v -0.564365 21.717287 74.313700
v 0.013555 21.615502 74.313700
v 0.588484 21.498258 74.313700
v 1.160003 21.365642 74.313700
v 1.727692 21.217750 74.313700
v 2.291136 21.054691 74.313700
v 2.849922 20.876584 74.313700
v 3.403642 20.683560 74.313700
v 3.951889 20.475760 74.313700
v 4.494264 20.253335 74.313700
v 5.030368 20.016450 74.313700
v 5.559809 19.765277 74.313700
v 6.082199 19.500000 74.313700
v 9.124475 19.500000 51.713936
v 9.141468 19.502254 51.555854
v 9.150136 19.509058 51.395065
v 9.150178 19.520476 51.232516
v 9.141301 19.536565 51.069153
v 9.123401 19.557262 50.905898
v 9.096595 19.582365 50.743644
v 9.061016 19.611663 50.583286
v 9.016816 19.644934 50.425646
v 8.964359 19.681844 50.271406
v 8.904127 19.721995 50.121315
v 8.836601 19.764992 49.976125
v 8.762368 19.810390 49.836525
v 8.682229 19.857682 49.703077
v 8.597008 19.906354 49.576333
v 8.506805 19.956299 49.455864
v 8.409690 20.008500 49.338948
v 7.853751 20.226413 49.825064
v 7.291808 20.432216 50.316429
v 6.724206 20.625781 50.812743
v 4.445366 20.683560 66.575174
v 5.620128 20.683560 57.848372
v 5.076264 20.876584 57.775160
v 3.901502 20.876584 66.501961
v 4.527423 21.054691 57.701277
v 3.352661 21.054691 66.428079
v 3.974008 21.217750 57.626779
v 2.799246 21.217750 66.353581
v 3.416423 21.365642 57.551720
v 2.241661 21.365642 66.278521
v 2.855077 21.498258 57.476154
v 1.680315 21.498258 66.202955
v 2.290381 21.615502 57.400137
v 1.115619 21.615502 66.126939
v 1.722747 21.717287 57.323725
v 0.547986 21.717287 66.050526
v 1.152593 21.803540 57.246973
v -0.022169 21.803540 65.973775
v 0.580334 21.874196 57.169939
v -0.594428 21.874196 65.896740
v 0.006390 21.929205 57.092677
v -1.168371 21.929205 65.819478
v -1.743580 21.968526 65.742046
v -2.319632 21.992130 65.664501
v 4.983856 20.475760 66.647663
v 6.158618 20.475760 57.920861
v 5.516577 20.253335 66.719375
v 6.691338 20.253335 57.992574
v 6.043139 20.016450 66.790259
v 7.217900 20.016450 58.063457
v 6.563331 19.765190 66.860284
v 7.738297 19.765088 58.133511
v -9.764733 22.000000 74.313700
v -10.351654 21.992130 74.313700
v -10.938145 21.968526 74.313700
v -11.523777 21.929205 74.313700
v -12.108121 21.874196 74.313700
v -12.690750 21.803540 74.313700
v -13.271236 21.717287 74.313700
v -13.849156 21.615502 74.313700
v -14.424085 21.498258 74.313700
v -14.995604 21.365642 74.313700
v -15.563293 21.217750 74.313700
v -16.126737 21.054691 74.313700
v -16.685523 20.876584 74.313700
v -17.239243 20.683560 74.313700
v -17.787490 20.475760 74.313700
v -18.329865 20.253335 74.313700
v -18.865969 20.016450 74.313700
v -19.395410 19.765277 74.313700
v -19.917801 19.500000 74.313700
v -11.910192 22.000000 58.376006
v 6.151293 20.621140 50.800406
v 6.151293 20.422319 50.291996
v 6.151293 20.210654 49.788798
v 6.151293 19.986281 49.291136
v 6.151293 19.749345 48.799331
v 6.151293 19.500000 48.313700
v -19.986894 19.500000 48.313700
v -19.986894 19.749345 48.799331
v -19.986894 19.986281 49.291136
v -19.986894 20.210654 49.788798
v -19.986894 20.422319 50.291996
v -19.986894 20.621140 50.800406
v -19.986894 20.806990 51.313700
v -19.499360 20.950268 51.740002
v -19.008505 21.084598 52.169208
v -18.514544 21.209920 52.601130
v -18.017693 21.326181 53.035578
v -17.518170 21.433330 53.472364
v -17.016193 21.531318 53.911295
v -16.511982 21.620105 54.352179
v -16.005757 21.699650 54.794825
v -15.497740 21.769918 55.239037
v -14.988154 21.830880 55.684622
v -14.477221 21.882509 56.131384
v -13.965164 21.924781 56.579129
v -13.452208 21.957678 57.027660
v -12.938578 21.981187 57.476780
v -12.424497 21.995296 57.926295
v -6.917801 21.968526 57.213084
v -6.917801 21.929205 56.632687
v -6.917801 21.874196 56.053566
v -6.917801 21.803540 55.476146
v -6.917801 21.717287 54.900848
v -6.917801 21.615502 54.328095
v -6.917801 21.498258 53.758305
v -6.917801 21.365642 53.191896
v -6.917801 21.217750 52.629281
v -6.917801 21.054691 52.070874
v -6.917801 20.876584 51.517083
v -6.917801 20.683560 50.968313
v -6.917801 20.475760 50.424967
v -6.917801 20.253335 49.887441
v -6.917801 20.016450 49.356129
v -6.917801 19.765277 48.831421
v -6.917801 21.992130 57.794332
v -20.559807 20.625781 50.812743
v -21.127409 20.432216 50.316429
v -21.689352 20.226413 49.825064
v -22.245291 20.008500 49.338948
v -22.342406 19.956299 49.455864
v -22.432609 19.906354 49.576333
v -22.517830 19.857682 49.703077
v -22.597969 19.810390 49.836525
v -22.672202 19.764992 49.976125
v -22.739728 19.721995 50.121315
v -22.799960 19.681844 50.271406
v -22.852417 19.644934 50.425646
v -22.896617 19.611663 50.583286
v -22.932196 19.582365 50.743644
v -22.959002 19.557262 50.905898
v -22.976902 19.536565 51.069153
v -22.985779 19.520476 51.232516
v -22.985737 19.509058 51.395065
v -22.977069 19.502254 51.555854
v -22.960076 19.500000 51.713936
v -20.398932 19.765190 66.860284
v -21.573898 19.765088 58.133511
v -19.878740 20.016450 66.790259
v -21.053501 20.016450 58.063457
v -19.352178 20.253335 66.719375
v -20.526939 20.253335 57.992574
v -18.819457 20.475760 66.647663
v -19.994219 20.475760 57.920861
v -18.280967 20.683560 66.575174
v -19.455729 20.683560 57.848372
v -17.737103 20.876584 66.501961
v -18.911865 20.876584 57.775160
v -17.188262 21.054691 66.428079
v -18.363024 21.054691 57.701277
v -16.634847 21.217750 66.353581
v -17.809609 21.217750 57.626779
v -16.077262 21.365642 66.278521
v -17.252024 21.365642 57.551720
v -15.515916 21.498258 66.202955
v -16.690678 21.498258 57.476154
v -14.951220 21.615502 66.126939
v -16.125982 21.615502 57.400137
v -14.383587 21.717287 66.050526
v -15.558348 21.717287 57.323725
v -13.813432 21.803540 65.973775
v -14.988194 21.803540 57.246973
v -13.241173 21.874196 65.896740
v -14.415935 21.874196 57.169939
v -12.667230 21.929205 65.819478
v -13.841991 21.929205 57.092677
v -12.092021 21.968526 65.742046
v -11.515969 21.992130 65.664501
v -22.142376 19.956299 49.227103
v -22.035018 19.906354 49.121634
v -21.920777 19.857682 49.020266
v -21.799214 19.810390 48.923039
v -21.670764 19.764992 48.830846
v -21.535881 19.721995 48.744554
v -21.395168 19.681844 48.664836
v -21.249305 19.644934 48.592271
v -21.098971 19.611663 48.527434
v -20.944793 19.582365 48.470780
v -20.787566 19.557262 48.422567
v -20.628158 19.536565 48.383046
v -20.467440 19.520476 48.352454
v -20.306338 19.509058 48.330810
v -20.145831 19.502254 48.317949
v -20.209031 19.500000 48.321935
v -20.429948 19.500000 48.346596
v -20.648433 19.500000 48.387548
v -20.863285 19.500000 48.444564
v -21.073326 19.500000 48.517333
v -21.277402 19.500000 48.605455
v -21.474393 19.500000 48.708446
v -21.663217 19.500000 48.825740
v -21.842837 19.500000 48.956694
v -22.012268 19.500000 49.100589
v -22.170579 19.500000 49.256634
v -22.316901 19.500000 49.423973
v -22.450431 19.500000 49.601687
v -22.570435 19.500000 49.788801
v -22.676255 19.500000 49.984287
v -22.767309 19.500000 50.187071
v -22.843099 19.500000 50.396041
v -22.903206 19.500000 50.610049
v -22.947303 19.500000 50.827921
v -22.975146 19.500000 51.048459
v -22.986583 19.500000 51.270454
v -22.981550 19.500000 51.492686
v 8.306775 19.956299 49.227103
v 8.199417 19.906354 49.121634
v 8.085176 19.857682 49.020266
v 7.963613 19.810390 48.923039
v 7.835163 19.764992 48.830846
v 7.700280 19.721995 48.744554
v 7.559567 19.681844 48.664836
v 7.413704 19.644934 48.592271
v 7.263370 19.611663 48.527434
v 7.109192 19.582365 48.470780
v 6.951965 19.557262 48.422567
v 6.792557 19.536565 48.383046
v 6.631839 19.520476 48.352454
v 6.470737 19.509058 48.330810
v 6.310230 19.502254 48.317949
v 9.145949 19.500000 51.492686
v 9.150982 19.500000 51.270454
v 9.139545 19.500000 51.048459
v 9.111702 19.500000 50.827921
v 9.067605 19.500000 50.610049
v 9.007498 19.500000 50.396041
v 8.931708 19.500000 50.187071
v 8.840654 19.500000 49.984287
v 8.734834 19.500000 49.788801
v 8.614830 19.500000 49.601687
v 8.481300 19.500000 49.423973
v 8.334978 19.500000 49.256634
v 8.176667 19.500000 49.100589
v 8.007236 19.500000 48.956694
v 7.827616 19.500000 48.825740
v 7.638792 19.500000 48.708446
v 7.441801 19.500000 48.605455
v 7.237725 19.500000 48.517333
v 7.027684 19.500000 48.444564
v 6.812832 19.500000 48.387548
v 6.594347 19.500000 48.346596
v 6.373430 19.500000 48.321935
vt 10.188216 3.725253 0.000000
vt 4.128630 3.490470 0.000000
vt 10.675750 3.275509 0.000000
vt 4.128630 2.908725 0.000000
vt 11.248663 2.742771 0.000000
vt 4.128630 2.326980 0.000000
vt 11.816264 2.210034 0.000000
vt 4.128630 1.745235 0.000000
vt 12.378207 1.677296 0.000000
vt 4.128630 1.163490 0.000000
vt 12.934147 1.144559 0.000000
vt 12.831232 1.021131 0.000000
vt 12.723874 0.904434 0.000000
vt 4.128630 0.581318 0.000000
vt 12.609633 0.791987 0.000000
vt 12.488070 0.683868 0.000000
vt 12.359620 0.581103 0.000000
vt 12.224737 0.484693 0.000000
vt 12.084024 0.395434 0.000000
vt 11.938161 0.314021 0.000000
vt 10.675750 -0.000000 0.000000
vt 11.787827 0.241146 0.000000
vt 11.633649 0.177365 0.000000
vt 11.476422 0.123008 0.000000
vt 11.317014 0.078396 0.000000
vt 11.156295 0.043831 0.000000
vt 10.995194 0.019360 0.000000
vt 10.834687 0.004810 0.000000
vt 4.128630 4.072215 0.000000
vt 9.697361 4.174997 0.000000
vt 9.203400 4.624741 0.000000
vt 4.128630 4.653961 0.000000
vt 8.706549 5.074484 0.000000
vt 4.128630 5.235706 0.000000
vt 8.207026 5.524228 0.000000
vt 4.128630 5.817451 0.000000
vt 7.705049 5.973972 0.000000
vt 4.128630 6.399196 0.000000
vt 7.200838 6.423716 0.000000
vt 6.694613 6.873460 0.000000
vt 4.128630 6.980941 0.000000
vt 6.186596 7.323204 0.000000
vt 4.128630 7.562686 0.000000
vt 5.677010 7.772948 0.000000
vt -4.676887 8.144431 0.000000
vt 4.128630 8.144431 0.000000
vt -4.676887 8.726176 0.000000
vt 4.654020 8.672436 0.000000
vt 4.128630 8.726176 0.000000
vt 4.141064 9.122179 0.000000
vt -4.676887 9.307921 0.000000
vt -13.247726 8.726176 0.000000
vt -13.325857 9.307921 0.000000
vt -4.676887 9.889666 0.000000
vt -13.404102 9.889666 0.000000
vt -13.482404 10.471411 0.000000
vt 3.113353 10.021667 0.000000
vt 2.599048 10.471411 0.000000
vt 5.166076 8.222692 0.000000
vt 3.627434 9.571923 0.000000
vt -13.169768 8.144431 0.000000
vt -13.092038 7.562686 0.000000
vt -4.676887 7.562686 0.000000
vt -13.014594 6.980941 0.000000
vt -4.676887 6.980941 0.000000
vt -12.937493 6.399196 0.000000
vt -4.676887 6.399196 0.000000
vt -12.860790 5.817451 0.000000
vt -4.676887 5.817451 0.000000
vt -12.784543 5.235706 0.000000
vt -4.676887 5.235706 0.000000
vt -12.708806 4.653961 0.000000
vt -4.676887 4.653961 0.000000
vt -12.633636 4.072215 0.000000
vt -4.676887 4.072215 0.000000
vt -12.559087 3.490470 0.000000
vt -4.676887 3.490470 0.000000
vt -12.485215 2.908725 0.000000
vt -4.676887 2.908725 0.000000
vt -12.412072 2.326980 0.000000
vt -4.676887 2.326980 0.000000
vt -12.339713 1.745235 0.000000
vt -4.676887 1.745235 0.000000
vt -12.268190 1.163490 0.000000
vt -4.676887 1.163490 0.000000
vt -4.676887 0.581549 0.000000
vt -12.197556 0.581745 0.000000
vt -12.127863 -0.000000 0.000000
vt -2.250000 12.917800 0.000000
vt -2.250000 -13.082200 0.000000
vt -1.984723 12.395410 0.000000
vt -1.984723 -12.559809 0.000000
vt -1.733550 -12.030368 0.000000
vt -1.733550 11.865969 0.000000
vt -1.496665 -11.494264 0.000000
vt -1.496665 11.329865 0.000000
vt -1.274240 -10.951889 0.000000
vt -1.274240 10.787490 0.000000
vt -1.066440 -10.403642 0.000000
vt -1.066440 10.239243 0.000000
vt -0.873416 -9.849922 0.000000
vt -0.873416 9.685523 0.000000
vt -0.695309 -9.291136 0.000000
vt -0.695309 9.126736 0.000000
vt -0.532250 -8.727692 0.000000
vt -0.532250 8.563293 0.000000
vt -0.384358 -8.160003 0.000000
vt -0.384358 7.995604 0.000000
vt -0.251742 -7.588484 0.000000
vt -0.251742 7.424085 0.000000
vt -0.134498 -7.013555 0.000000
vt -0.134498 6.849156 0.000000
vt -0.032713 -6.435635 0.000000
vt -0.032713 6.271236 0.000000
vt 0.250000 -2.929132 0.000000
vt 0.250000 2.764733 0.000000
vt 0.053540 -5.855149 0.000000
vt 0.124196 -5.272520 0.000000
vt 0.179205 -4.688176 0.000000
vt 0.218526 -4.102544 0.000000
vt 0.242130 -3.516053 0.000000
vt 0.242130 3.351654 0.000000
vt 0.218526 3.938145 0.000000
vt 0.179205 4.523777 0.000000
vt 0.124196 5.108121 0.000000
vt 0.053540 5.690750 0.000000
vt -13.000000 -2.929132 0.000000
vt 2.937694 -5.074591 0.000000
vt -13.000000 2.764733 0.000000
vt 2.937694 4.910192 0.000000
vt -5.588896 10.021667 0.000000
vt -0.082200 9.889666 0.000000
vt -5.074591 10.471411 0.000000
vt 5.424497 10.021667 0.000000
vt 4.910192 10.471411 0.000000
vt -6.102977 9.571923 0.000000
vt 5.938578 9.571923 0.000000
vt -0.082200 9.307921 0.000000
vt -6.616607 9.122179 0.000000
vt -0.082200 8.726176 0.000000
vt -7.129563 8.672436 0.000000
vt -0.082200 8.144431 0.000000
vt -7.641620 8.222692 0.000000
vt -8.152553 7.772948 0.000000
vt -0.082200 7.562686 0.000000
vt -8.662140 7.323204 0.000000
vt -0.082200 6.980941 0.000000
vt -9.170156 6.873460 0.000000
vt -0.082200 6.399196 0.000000
vt -9.676381 6.423716 0.000000
vt -10.180592 5.973972 0.000000
vt -0.082200 5.817451 0.000000
vt -10.682569 5.524228 0.000000
vt -0.082200 5.235706 0.000000
vt -11.182092 5.074484 0.000000
vt -0.082200 4.653961 0.000000
vt -11.678943 4.624741 0.000000
vt -12.172904 4.174997 0.000000
vt -0.082200 4.072215 0.000000
vt -12.663759 3.725253 0.000000
vt -0.082200 3.490470 0.000000
vt -13.151294 3.275509 0.000000
vt -0.082200 2.908725 0.000000
vt -13.151294 2.729591 0.000000
vt -0.082200 2.326980 0.000000
vt -13.151294 2.183673 0.000000
vt -0.082200 1.745235 0.000000
vt -13.151294 1.637754 0.000000
vt -0.082200 1.163490 0.000000
vt -13.151294 1.091836 0.000000
vt -0.082200 0.581745 0.000000
vt -13.151294 0.545918 0.000000
vt 12.986894 -0.000000 0.000000
vt -13.151294 0.000000 0.000000
vt 12.986894 0.545918 0.000000
vt 12.986894 1.091836 0.000000
vt 12.986894 1.637754 0.000000
vt 12.986894 2.183673 0.000000
vt 12.986894 2.729591 0.000000
vt 12.986894 3.275509 0.000000
vt 12.499360 3.725253 0.000000
vt 12.008505 4.174997 0.000000
vt 11.514544 4.624741 0.000000
vt 11.017693 5.074484 0.000000
vt 10.518170 5.524228 0.000000
vt 10.016193 5.973972 0.000000
vt 9.511982 6.423716 0.000000
vt 9.005757 6.873460 0.000000
vt 8.497740 7.323204 0.000000
vt 7.988154 7.772948 0.000000
vt 7.477220 8.222692 0.000000
vt 6.965164 8.672436 0.000000
vt 6.452208 9.122179 0.000000
vt 12.208522 0.581745 0.000000
vt 4.687854 0.581549 0.000000
vt 12.138829 -0.000000 0.000000
vt -4.117663 0.581318 0.000000
vt -11.927194 0.314021 0.000000
vt -12.073057 0.395434 0.000000
vt -12.213771 0.484693 0.000000
vt -12.348654 0.581103 0.000000
vt -12.477103 0.683868 0.000000
vt -12.598666 0.791987 0.000000
vt -12.712908 0.904434 0.000000
vt -4.117663 1.163490 0.000000
vt -12.820266 1.021131 0.000000
vt -12.923180 1.144559 0.000000
vt -12.367241 1.677296 0.000000
vt -4.117663 1.745235 0.000000
vt -11.805298 2.210034 0.000000
vt -4.117663 2.326980 0.000000
vt -11.237696 2.742771 0.000000
vt -4.117663 2.908725 0.000000
vt -10.664784 3.275509 0.000000
vt -4.117663 3.490470 0.000000
vt -10.177250 3.725253 0.000000
vt -4.117663 4.072215 0.000000
vt -9.686395 4.174997 0.000000
vt -9.192434 4.624741 0.000000
vt -4.117663 4.653961 0.000000
vt -8.695583 5.074484 0.000000
vt -4.117663 5.235706 0.000000
vt -8.196060 5.524228 0.000000
vt -4.117663 5.817451 0.000000
vt -7.694083 5.973972 0.000000
vt -4.117663 6.399196 0.000000
vt -7.189872 6.423716 0.000000
vt -6.683647 6.873460 0.000000
vt -4.117663 6.980941 0.000000
vt -6.175630 7.323204 0.000000
vt 4.687854 6.980941 0.000000
vt -4.117663 7.562686 0.000000
vt 4.687854 7.562686 0.000000
vt -5.666043 7.772948 0.000000
vt -4.117663 8.144431 0.000000
vt -5.155110 8.222692 0.000000
vt -4.643053 8.672436 0.000000
vt 4.687854 8.144431 0.000000
vt 4.687854 8.726176 0.000000
vt 13.180734 8.144431 0.000000
vt 13.258693 8.726176 0.000000
vt 4.687854 1.163490 0.000000
vt 12.279156 1.163490 0.000000
vt 4.687854 1.745235 0.000000
vt 12.350679 1.745235 0.000000
vt 4.687854 2.326980 0.000000
vt 12.423038 2.326980 0.000000
vt 4.687854 2.908725 0.000000
vt 12.496181 2.908725 0.000000
vt 4.687854 3.490470 0.000000
vt 12.570054 3.490470 0.000000
vt 4.687854 4.072215 0.000000
vt 12.644603 4.072215 0.000000
vt 4.687854 4.653961 0.000000
vt 12.719773 4.653961 0.000000
vt 4.687854 5.235706 0.000000
vt 12.795509 5.235706 0.000000
vt 4.687854 5.817451 0.000000
vt 12.871757 5.817451 0.000000
vt 4.687854 6.399196 0.000000
vt 12.948459 6.399196 0.000000
vt 13.025561 6.980941 0.000000
vt 13.103005 7.562686 0.000000
vt 4.687854 9.307921 0.000000
vt 13.336823 9.307921 0.000000
vt 4.687854 9.889666 0.000000
vt 13.415068 9.889666 0.000000
vt 13.493370 10.471411 0.000000
vt -2.588081 10.471411 0.000000
vt -3.102387 10.021667 0.000000
vt -3.616467 9.571923 0.000000
vt -4.130098 9.122179 0.000000
vt -4.117663 8.726176 0.000000
vt -11.776860 0.241146 0.000000
vt -11.622683 0.177365 0.000000
vt -11.465456 0.123008 0.000000
vt -11.306048 0.078396 0.000000
vt -11.145329 0.043831 0.000000
vt -10.984228 0.019360 0.000000
vt -10.823720 0.004810 0.000000
vt -10.664784 -0.000000 0.000000
vt -2.250000 -2.556911 0.000000
vt -2.247746 -2.397898 0.000000
vt -2.250000 -2.334571 0.000000
vt -2.240942 -2.236855 0.000000
vt -2.250000 -2.112231 0.000000
vt -2.229524 -2.074284 0.000000
vt -2.250000 -1.889891 0.000000
vt -2.213435 -1.910659 0.000000
vt -2.192738 -1.746403 0.000000
vt -2.250000 -1.667551 0.000000
vt -2.167635 -1.581927 0.000000
vt -2.250000 -1.445211 0.000000
vt -2.138337 -1.417648 0.000000
vt -2.105066 -1.253908 0.000000
vt -2.250000 -1.222870 0.000000
vt -2.068156 -1.090969 0.000000
vt -2.250000 -1.000530 0.000000
vt -2.028005 -0.929222 0.000000
vt -2.250000 -0.778190 0.000000
vt -1.985008 -0.769078 0.000000
vt -1.939610 -0.610948 0.000000
vt -2.250000 -0.555850 0.000000
vt -1.892318 -0.455267 0.000000
vt -2.250000 -0.333510 0.000000
vt -1.843646 -0.302519 0.000000
vt -1.793701 -0.152006 0.000000
vt -2.250000 -0.111170 0.000000
vt -1.741500 -0.000000 0.000000
vt -2.250000 0.111170 0.000000
vt -1.793701 0.152006 0.000000
vt -1.843646 0.302519 0.000000
vt -2.250000 0.333510 0.000000
vt -1.892318 0.455267 0.000000
vt -2.250000 0.555850 0.000000
vt -1.939610 0.610948 0.000000
vt -2.250000 0.778190 0.000000
vt -1.985008 0.769078 0.000000
vt -2.028005 0.929222 0.000000
vt -2.250000 1.000530 0.000000
vt -2.068156 1.090969 0.000000
vt -2.250000 1.222870 0.000000
vt -2.105066 1.253908 0.000000
vt -2.138337 1.417648 0.000000
vt -2.250000 1.445211 0.000000
vt -2.167635 1.581927 0.000000
vt -2.250000 1.667551 0.000000
vt -2.192738 1.746403 0.000000
vt -2.250000 1.889891 0.000000
vt -2.213435 1.910659 0.000000
vt -2.229524 2.074284 0.000000
vt -2.250000 2.112231 0.000000
vt -2.240942 2.236855 0.000000
vt -2.250000 2.334571 0.000000
vt -2.247746 2.397898 0.000000
vt -2.250000 2.556911 0.000000
vt 14.689352 1.677296 0.000000
vt 12.986894 1.637754 0.000000
vt 15.245291 1.144559 0.000000
vt 12.986894 1.091836 0.000000
vt 15.142376 1.021131 0.000000
vt 15.035018 0.904434 0.000000
vt 14.920777 0.791987 0.000000
vt 12.986894 0.545918 0.000000
vt 14.799214 0.683868 0.000000
vt 14.670764 0.581103 0.000000
vt 14.535881 0.484693 0.000000
vt 14.395168 0.395434 0.000000
vt 14.249305 0.314021 0.000000
vt 14.098971 0.241146 0.000000
vt 12.986894 -0.000000 0.000000
vt 13.944793 0.177365 0.000000
vt 13.787566 0.123008 0.000000
vt 13.628158 0.078396 0.000000
vt 13.467439 0.043831 0.000000
vt 13.306338 0.019360 0.000000
vt 13.145831 0.004810 0.000000
vt 12.986894 2.183673 0.000000
vt 14.127408 2.210034 0.000000
vt 12.986894 2.729591 0.000000
vt 13.559807 2.742771 0.000000
vt 12.986894 3.275509 0.000000
vt -13.151294 3.275509 0.000000
vt -13.724206 2.742771 0.000000
vt -13.151294 2.729591 0.000000
vt -14.291808 2.210034 0.000000
vt -13.151294 2.183673 0.000000
vt -14.853751 1.677296 0.000000
vt -13.151294 1.637754 0.000000
vt -15.409690 1.144559 0.000000
vt -13.151294 1.091836 0.000000
vt -15.306775 1.021131 0.000000
vt -15.199417 0.904434 0.000000
vt -15.085176 0.791987 0.000000
vt -13.151294 0.545918 0.000000
vt -14.963613 0.683868 0.000000
vt -14.835163 0.581103 0.000000
vt -14.700280 0.484693 0.000000
vt -14.559567 0.395434 0.000000
vt -14.413704 0.314021 0.000000
vt -14.263370 0.241146 0.000000
vt -13.151294 0.000000 0.000000
vt -14.109192 0.177365 0.000000
vt -13.951965 0.123008 0.000000
vt -13.792557 0.078396 0.000000
vt -13.631839 0.043831 0.000000
vt -13.470737 0.019360 0.000000
vt -13.310230 0.004810 0.000000
vt -1.793701 0.152006 0.000000
vt -2.250000 0.111170 0.000000
vt -1.741500 0.000000 0.000000
vt -2.250000 -0.111170 0.000000
vt -1.793701 -0.152006 0.000000
vt -2.250000 -0.333510 0.000000
vt -1.843646 -0.302519 0.000000
vt -1.892318 -0.455267 0.000000
vt -2.250000 -0.555850 0.000000
vt -1.939610 -0.610948 0.000000
vt -2.250000 -0.778190 0.000000
vt -1.985008 -0.769078 0.000000
vt -2.028005 -0.929222 0.000000
vt -2.250000 -1.000530 0.000000
vt -2.068156 -1.090969 0.000000
vt -2.250000 -1.222870 0.000000
vt -2.105066 -1.253908 0.000000
vt -2.250000 -1.445211 0.000000
vt -2.138337 -1.417648 0.000000
vt -2.167635 -1.581927 0.000000
vt -2.250000 -1.667551 0.000000
vt -2.192738 -1.746403 0.000000
vt -2.250000 -1.889891 0.000000
vt -2.213435 -1.910659 0.000000
vt -2.229524 -2.074284 0.000000
vt -2.250000 -2.112231 0.000000
vt -2.240942 -2.236855 0.000000
vt -2.250000 -2.334571 0.000000
vt -2.247746 -2.397898 0.000000
vt -2.250000 -2.556911 0.000000
vt -1.843646 0.302519 0.000000
vt -2.250000 0.333510 0.000000
vt -1.892318 0.455267 0.000000
vt -2.250000 0.555850 0.000000
vt -1.939610 0.610948 0.000000
vt -2.250000 0.778190 0.000000
vt -1.985008 0.769078 0.000000
vt -2.028005 0.929222 0.000000
vt -2.250000 1.000530 0.000000
vt -2.068156 1.090969 0.000000
vt -2.250000 1.222870 0.000000
vt -2.105066 1.253908 0.000000
vt -2.138337 1.417648 0.000000
vt -2.250000 1.445211 0.000000
vt -2.167635 1.581927 0.000000
vt -2.250000 1.667551 0.000000
vt -2.192738 1.746403 0.000000
vt -2.250000 1.889891 0.000000
vt -2.213435 1.910659 0.000000
vt -2.229524 2.074284 0.000000
vt -2.250000 2.112231 0.000000
vt -2.240942 2.236855 0.000000
vt -2.250000 2.334571 0.000000
vt -2.247746 2.397898 0.000000
vt -2.250000 2.556911 0.000000
vt -12.991765 -13.373430 0.000000
vt -11.329413 -15.840654 0.000000
vt -13.000000 -13.151294 0.000000
vt -11.126629 -15.931708 0.000000
vt -10.917659 -16.007498 0.000000
vt -12.967104 -13.594347 0.000000
vt -12.926152 -13.812832 0.000000
vt -12.869136 -14.027684 0.000000
vt -12.796367 -14.237725 0.000000
vt -12.708245 -14.441801 0.000000
vt -12.605254 -14.638792 0.000000
vt -12.487960 -14.827616 0.000000
vt -12.357006 -15.007236 0.000000
vt -12.213111 -15.176667 0.000000
vt -12.057066 -15.334978 0.000000
vt -11.889727 -15.481300 0.000000
vt -11.712013 -15.614830 0.000000
vt -11.524899 -15.734834 0.000000
vt -10.703651 -16.067606 0.000000
vt -10.485779 -16.111702 0.000000
vt -10.265241 -16.139545 0.000000
vt -10.043246 -16.150982 0.000000
vt -9.821014 -16.145949 0.000000
vt -9.599764 -16.124475 0.000000
vt 13.000000 -13.082200 0.000000
vt 13.000000 12.917800 0.000000
vt -9.599764 15.960076 0.000000
vt -13.000000 12.986894 0.000000
vt -12.991765 13.209031 0.000000
vt -12.967104 13.429948 0.000000
vt -12.926152 13.648432 0.000000
vt -12.869136 13.863285 0.000000
vt -12.796367 14.073326 0.000000
vt -12.708245 14.277402 0.000000
vt -12.605254 14.474393 0.000000
vt -12.487960 14.663217 0.000000
vt -12.357006 14.842837 0.000000
vt -12.213111 15.012268 0.000000
vt -12.057066 15.170579 0.000000
vt -11.889727 15.316901 0.000000
vt -11.712013 15.450431 0.000000
vt -11.524899 15.570435 0.000000
vt -11.329413 15.676255 0.000000
vt -11.126629 15.767309 0.000000
vt -10.917659 15.843099 0.000000
vt -10.703651 15.903206 0.000000
vt -10.485779 15.947303 0.000000
vt -10.265241 15.975146 0.000000
vt -10.043246 15.986583 0.000000
vt -9.821014 15.981550 0.000000
vn 0.305892 0.951175 0.041178
vn 0.316168 0.947748 0.042561
vn 0.325543 0.944511 0.043823
vn 0.341464 0.938770 0.045966
vn 0.348635 0.936083 0.046932
vn 0.366510 0.929105 0.049338
vn 0.371513 0.927080 0.050011
vn 0.391288 0.918760 0.052673
vn 0.394163 0.917508 0.053060
vn 0.415779 0.907742 0.055970
vn 0.416571 0.907372 0.056077
vn 0.421726 0.904944 0.056771
vn 0.426588 0.902621 0.057425
vn 0.439983 0.896051 0.059229
vn 0.431261 0.900358 0.058054
vn 0.435743 0.898158 0.058658
vn 0.439992 0.896046 0.059230
vn 0.443970 0.894046 0.059765
vn 0.447645 0.892179 0.060260
vn 0.450990 0.890462 0.060710
vn 0.463830 0.883721 0.062439
vn 0.453978 0.888915 0.061112
vn 0.456590 0.887552 0.061464
vn 0.458812 0.886384 0.061763
vn 0.460634 0.885422 0.062008
vn 0.462044 0.884673 0.062198
vn 0.463042 0.884142 0.062333
vn 0.463635 0.883826 0.062412
vn 0.290640 0.956032 0.039125
vn 0.286108 0.957423 0.038514
vn 0.266198 0.963252 0.035834
vn 0.264900 0.963616 0.035660
vn 0.246172 0.968660 0.033138
vn 0.238966 0.970495 0.032168
vn 0.226038 0.973643 0.030428
vn 0.212857 0.976663 0.028654
vn 0.205805 0.978201 0.027704
vn 0.186592 0.982116 0.025118
vn 0.185482 0.982330 0.024969
vn 0.165078 0.986030 0.022222
vn 0.160190 0.986851 0.021564
vn 0.144601 0.989299 0.019466
vn 0.133672 0.990862 0.017994
vn 0.124062 0.992134 0.016701
vn 0.107055 0.994149 0.014411
vn 0.107055 0.994149 0.014411
vn 0.080360 0.996707 0.010818
vn 0.082829 0.996501 0.011150
vn 0.080360 0.996707 0.010818
vn 0.062153 0.998032 0.008367
vn 0.053606 0.998536 0.007216
vn 0.080360 0.996707 0.010818
vn 0.053606 0.998536 0.007216
vn 0.026813 0.999634 0.003609
vn 0.026813 0.999634 0.003609
vn 0.000000 1.000000 0.000000
vn 0.020730 0.999781 0.002791
vn 0.000000 1.000000 0.000000
vn 0.103468 0.994535 0.013928
vn 0.041451 0.999125 0.005580
vn 0.107055 0.994149 0.014411
vn 0.133672 0.990862 0.017994
vn 0.133672 0.990862 0.017994
vn 0.160190 0.986851 0.021564
vn 0.160190 0.986851 0.021564
vn 0.186592 0.982116 0.025118
vn 0.186592 0.982116 0.025118
vn 0.212857 0.976663 0.028654
vn 0.212857 0.976663 0.028654
vn 0.238966 0.970495 0.032168
vn 0.238966 0.970495 0.032168
vn 0.264900 0.963616 0.035660
vn 0.264900 0.963616 0.035660
vn 0.290640 0.956032 0.039125
vn 0.290640 0.956032 0.039125
vn 0.316168 0.947748 0.042561
vn 0.316168 0.947748 0.042561
vn 0.341464 0.938770 0.045966
vn 0.341464 0.938770 0.045966
vn 0.366510 0.929105 0.049338
vn 0.366510 0.929105 0.049338
vn 0.391288 0.918760 0.052673
vn 0.391288 0.918760 0.052673
vn 0.415779 0.907742 0.055970
vn 0.415779 0.907742 0.055970
vn 0.439974 0.896055 0.059227
vn 0.439966 0.896059 0.059226
vn 0.463830 0.883721 0.062439
vn 0.000000 0.000000 1.000000
vn 0.000000 0.000000 1.000000
vn 0.000000 0.000000 1.000000
vn 0.000000 0.000000 1.000000
vn 0.000000 0.000000 1.000000
vn 0.000000 0.000000 1.000000
vn 0.000000 0.000000 1.000000
vn 0.000000 0.000000 1.000000
vn 0.000000 0.000000 1.000000
vn 0.000000 0.000000 1.000000
vn 0.000000 0.000000 1.000000
vn 0.000000 0.000000 1.000000
vn 0.000000 0.000000 1.000000
vn 0.000000 0.000000 1.000000
vn 0.000000 0.000000 1.000000
vn 0.000000 0.000000 1.000000
vn 0.000000 0.000000 1.000000
vn 0.000000 0.000000 1.000000
vn 0.000000 0.000000 1.000000
vn 0.000000 0.000000 1.000000
vn 0.000000 0.000000 1.000000
vn 0.000000 0.000000 1.000000
vn 0.000000 0.000000 1.000000
vn 0.000000 0.000000 1.000000
vn 0.000000 0.000000 1.000000
vn 0.000000 0.000000 1.000000
vn 0.000000 0.000000 1.000000
vn 0.000000 0.000000 1.000000
vn 0.000000 0.000000 1.000000
vn 0.000000 0.000000 1.000000
vn 0.000000 0.000000 1.000000
vn 0.000000 0.000000 1.000000
vn 0.000000 0.000000 1.000000
vn 0.000000 0.000000 1.000000
vn 0.000000 0.000000 1.000000
vn 0.000000 0.000000 1.000000
vn 0.000000 0.000000 1.000000
vn 0.000000 0.000000 1.000000
vn -0.000000 1.000000 -0.000000
vn -0.000000 1.000000 -0.000000
vn -0.000000 0.999781 -0.020917
vn -0.000000 0.999634 -0.027055
vn -0.000000 0.999781 -0.020917
vn -0.000000 0.999125 -0.041824
vn -0.000000 0.999125 -0.041824
vn -0.000000 0.998536 -0.054089
vn -0.000000 0.998032 -0.062714
vn -0.000000 0.996707 -0.081085
vn -0.000000 0.996501 -0.083576
vn -0.000000 0.994149 -0.108020
vn -0.000000 0.994535 -0.104401
vn -0.000000 0.992134 -0.125181
vn -0.000000 0.990862 -0.134877
vn -0.000000 0.989299 -0.145906
vn -0.000000 0.986851 -0.161635
vn -0.000000 0.986030 -0.166567
vn -0.000000 0.982116 -0.188275
vn -0.000000 0.982330 -0.187155
vn -0.000000 0.978201 -0.207661
vn -0.000000 0.976663 -0.214777
vn -0.000000 0.973643 -0.228076
vn -0.000000 0.970495 -0.241121
vn -0.000000 0.968660 -0.248392
vn -0.000000 0.963616 -0.267290
vn -0.000000 0.963252 -0.268599
vn -0.000000 0.957423 -0.288688
vn -0.000000 0.956032 -0.293262
vn -0.000000 0.951175 -0.308651
vn -0.000000 0.947748 -0.319020
vn -0.000000 0.944511 -0.328479
vn -0.000000 0.938770 -0.344544
vn -0.000000 0.935867 -0.352353
vn -0.000000 0.929105 -0.369816
vn -0.000000 0.926619 -0.376000
vn -0.000000 0.918760 -0.394817
vn -0.000000 0.916775 -0.399405
vn -0.000000 0.907742 -0.419529
vn -0.000000 0.906339 -0.422552
vn -0.000000 0.896059 -0.443934
vn -0.000000 0.895318 -0.445427
vn -0.000000 0.883721 -0.468014
vn -0.000000 0.883721 -0.468014
vn -0.000000 0.895318 -0.445427
vn -0.000000 0.906339 -0.422552
vn -0.000000 0.916775 -0.399405
vn -0.000000 0.926619 -0.376000
vn -0.000000 0.935867 -0.352353
vn -0.000000 0.944511 -0.328479
vn -0.000000 0.951175 -0.308651
vn -0.000000 0.957423 -0.288688
vn -0.000000 0.963252 -0.268599
vn -0.000000 0.968660 -0.248392
vn -0.000000 0.973643 -0.228076
vn -0.000000 0.978201 -0.207661
vn -0.000000 0.982330 -0.187155
vn -0.000000 0.986030 -0.166567
vn -0.000000 0.989299 -0.145906
vn -0.000000 0.992134 -0.125181
vn -0.000000 0.994535 -0.104401
vn -0.000000 0.996501 -0.083576
vn -0.000000 0.998032 -0.062714
vn -0.439966 0.896059 0.059226
vn -0.439974 0.896055 0.059227
vn -0.463830 0.883721 0.062439
vn -0.439983 0.896051 0.059229
vn -0.450990 0.890462 0.060710
vn -0.447645 0.892179 0.060260
vn -0.443970 0.894046 0.059765
vn -0.439992 0.896046 0.059230
vn -0.435743 0.898158 0.058658
vn -0.431261 0.900358 0.058054
vn -0.426588 0.902621 0.057425
vn -0.415779 0.907742 0.055970
vn -0.421726 0.904944 0.056771
vn -0.416571 0.907372 0.056077
vn -0.394163 0.917508 0.053060
vn -0.391288 0.918760 0.052673
vn -0.371513 0.927080 0.050011
vn -0.366510 0.929105 0.049338
vn -0.348635 0.936083 0.046932
vn -0.341464 0.938770 0.045966
vn -0.325543 0.944511 0.043823
vn -0.316168 0.947748 0.042561
vn -0.305892 0.951175 0.041178
vn -0.290640 0.956032 0.039125
vn -0.286108 0.957423 0.038514
vn -0.266198 0.963252 0.035834
vn -0.264900 0.963616 0.035660
vn -0.246172 0.968660 0.033138
vn -0.238966 0.970495 0.032168
vn -0.226038 0.973643 0.030428
vn -0.212857 0.976663 0.028654
vn -0.205805 0.978201 0.027704
vn -0.186592 0.982116 0.025118
vn -0.185482 0.982330 0.024969
vn -0.165078 0.986030 0.022222
vn -0.160190 0.986851 0.021564
vn -0.144601 0.989299 0.019466
vn -0.160190 0.986851 0.021564
vn -0.133672 0.990862 0.017994
vn -0.133672 0.990862 0.017994
vn -0.124062 0.992134 0.016701
vn -0.107055 0.994149 0.014411
vn -0.103468 0.994535 0.013928
vn -0.082829 0.996501 0.011150
vn -0.107055 0.994149 0.014411
vn -0.080360 0.996707 0.010818
vn -0.107055 0.994149 0.014411
vn -0.080360 0.996707 0.010818
vn -0.415779 0.907742 0.055970
vn -0.415779 0.907742 0.055970
vn -0.391288 0.918760 0.052673
vn -0.391288 0.918760 0.052673
vn -0.366510 0.929105 0.049338
vn -0.366510 0.929105 0.049338
vn -0.341464 0.938770 0.045966
vn -0.341464 0.938770 0.045966
vn -0.316168 0.947748 0.042561
vn -0.316168 0.947748 0.042561
vn -0.290640 0.956032 0.039125
vn -0.290640 0.956032 0.039125
vn -0.264900 0.963616 0.035660
vn -0.264900 0.963616 0.035660
vn -0.238966 0.970495 0.032168
vn -0.238966 0.970495 0.032168
vn -0.212857 0.976663 0.028654
vn -0.212857 0.976663 0.028654
vn -0.186592 0.982116 0.025118
vn -0.186592 0.982116 0.025118
vn -0.160190 0.986851 0.021564
vn -0.133672 0.990862 0.017994
vn -0.053606 0.998536 0.007216
vn -0.053606 0.998536 0.007216
vn -0.026813 0.999634 0.003609
vn -0.026813 0.999634 0.003609
vn -0.020730 0.999781 0.002791
vn -0.041451 0.999125 0.005580
vn -0.062153 0.998032 0.008367
vn -0.080360 0.996707 0.010818
vn -0.453978 0.888915 0.061112
vn -0.456590 0.887552 0.061464
vn -0.458812 0.886384 0.061763
vn -0.460634 0.885422 0.062008
vn -0.462044 0.884673 0.062198
vn -0.463042 0.884142 0.062333
vn -0.463635 0.883826 0.062412
vn -0.463830 0.883721 0.062439
vn -0.991061 -0.000000 0.133412
vn -0.996737 -0.000000 0.080719
vn -0.998219 -0.000000 0.059662
vn -0.999632 -0.000000 0.027122
vn -0.999896 -0.000000 -0.014415
vn -0.999634 -0.000000 -0.027061
vn -0.996084 -0.000000 -0.088414
vn -0.996672 -0.000000 -0.081516
vn -0.990718 -0.000000 -0.135936
vn -0.986803 -0.000000 -0.161926
vn -0.981780 -0.000000 -0.190021
vn -0.972104 -0.000000 -0.234550
vn -0.969908 -0.000000 -0.243471
vn -0.955182 -0.000000 -0.296020
vn -0.952068 -0.000000 -0.305886
vn -0.937703 -0.000000 -0.347437
vn -0.926805 -0.000000 -0.375543
vn -0.917618 -0.000000 -0.397464
vn -0.896453 -0.000000 -0.443138
vn -0.895103 -0.000000 -0.445859
vn -0.870370 -0.000000 -0.492398
vn -0.861180 -0.000000 -0.508300
vn -0.843657 -0.000000 -0.536882
vn -0.821179 -0.000000 -0.570671
vn -0.815240 -0.000000 -0.579123
vn -0.785171 -0.000000 -0.619279
vn -0.776669 -0.000000 -0.629909
vn -0.752799 -0.000000 -0.658251
vn -0.727895 -0.000000 -0.685689
vn -0.718494 -0.000000 -0.695533
vn -0.682709 -0.000000 -0.730690
vn -0.675125 -0.000000 -0.737704
vn -0.644637 -0.000000 -0.764489
vn -0.618648 -0.000000 -0.785669
vn -0.604114 -0.000000 -0.796898
vn -0.558774 -0.000000 -0.829320
vn -0.561290 -0.000000 -0.827619
vn -0.516333 -0.000000 -0.856388
vn -0.495833 -0.000000 -0.868418
vn -0.469432 -0.000000 -0.882969
vn -0.430169 -0.000000 -0.902748
vn -0.420807 -0.000000 -0.907150
vn -0.370692 -0.000000 -0.928756
vn -0.362144 -0.000000 -0.932122
vn -0.319304 -0.000000 -0.947652
vn -0.292130 -0.000000 -0.956379
vn -0.266895 -0.000000 -0.963726
vn -0.220513 -0.000000 -0.975384
vn -0.213755 -0.000000 -0.976887
vn -0.160183 -0.000000 -0.987087
vn -0.147685 -0.000000 -0.989035
vn -0.106483 -0.000000 -0.994315
vn -0.074046 -0.000000 -0.997255
vn -0.052979 -0.000000 -0.998596
vn 0.000000 -0.000000 -1.000000
vn -0.000000 0.917508 -0.397718
vn -0.000000 0.907372 -0.420328
vn -0.000000 0.904944 -0.425530
vn -0.000000 0.902621 -0.430436
vn -0.000000 0.900358 -0.435151
vn -0.000000 0.898158 -0.439673
vn -0.000000 0.896046 -0.443961
vn -0.000000 0.894046 -0.447975
vn -0.000000 0.892179 -0.451682
vn -0.000000 0.890462 -0.455057
vn -0.000000 0.888915 -0.458073
vn -0.000000 0.887552 -0.460708
vn -0.000000 0.886384 -0.462951
vn -0.000000 0.885422 -0.464789
vn -0.000000 0.884673 -0.466212
vn -0.000000 0.884142 -0.467218
vn -0.000000 0.883826 -0.467817
vn -0.000000 0.927080 -0.374864
vn -0.000000 0.936083 -0.351780
vn -0.000000 0.936083 -0.351780
vn -0.000000 0.927080 -0.374864
vn -0.000000 0.917508 -0.397718
vn -0.000000 0.907372 -0.420328
vn -0.000000 0.904944 -0.425530
vn -0.000000 0.902621 -0.430436
vn -0.000000 0.900358 -0.435151
vn -0.000000 0.898158 -0.439673
vn -0.000000 0.896046 -0.443961
vn -0.000000 0.894046 -0.447975
vn -0.000000 0.892179 -0.451682
vn -0.000000 0.890462 -0.455057
vn -0.000000 0.888915 -0.458073
vn -0.000000 0.887552 -0.460708
vn -0.000000 0.886384 -0.462951
vn -0.000000 0.885422 -0.464789
vn -0.000000 0.884673 -0.466212
vn -0.000000 0.884142 -0.467218
vn -0.000000 0.883826 -0.467817
vn 0.785171 0.000000 -0.619279
vn 0.776669 0.000000 -0.629909
vn 0.752799 0.000000 -0.658251
vn 0.727895 0.000000 -0.685689
vn 0.718494 0.000000 -0.695533
vn 0.675125 0.000000 -0.737704
vn 0.682709 0.000000 -0.730690
vn 0.644637 0.000000 -0.764489
vn 0.618648 0.000000 -0.785669
vn 0.604114 0.000000 -0.796898
vn 0.558774 0.000000 -0.829320
vn 0.561290 0.000000 -0.827619
vn 0.516333 0.000000 -0.856388
vn 0.495833 0.000000 -0.868418
vn 0.469432 0.000000 -0.882969
vn 0.430169 0.000000 -0.902748
vn 0.420807 0.000000 -0.907150
vn 0.362144 0.000000 -0.932122
vn 0.370692 0.000000 -0.928756
vn 0.319304 0.000000 -0.947652
vn 0.292130 0.000000 -0.956379
vn 0.266895 0.000000 -0.963726
vn 0.220513 0.000000 -0.975384
vn 0.213755 0.000000 -0.976887
vn 0.160183 0.000000 -0.987087
vn 0.147685 0.000000 -0.989035
vn 0.106483 0.000000 -0.994315
vn 0.074046 0.000000 -0.997255
vn 0.052979 0.000000 -0.998596
vn -0.000000 -0.000000 -1.000000
vn 0.815240 0.000000 -0.579123
vn 0.821179 0.000000 -0.570671
vn 0.843657 0.000000 -0.536882
vn 0.861180 0.000000 -0.508300
vn 0.870370 0.000000 -0.492398
vn 0.896453 0.000000 -0.443138
vn 0.895103 0.000000 -0.445859
vn 0.917618 0.000000 -0.397464
vn 0.926805 0.000000 -0.375543
vn 0.937703 0.000000 -0.347437
vn 0.952068 0.000000 -0.305886
vn 0.955182 0.000000 -0.296020
vn 0.969908 0.000000 -0.243471
vn 0.972104 0.000000 -0.234550
vn 0.981780 0.000000 -0.190021
vn 0.986803 0.000000 -0.161926
vn 0.990718 0.000000 -0.135936
vn 0.996084 0.000000 -0.088414
vn 0.996672 0.000000 -0.081516
vn 0.999634 0.000000 -0.027061
vn 0.999896 0.000000 -0.014415
vn 0.999632 0.000000 0.027122
vn 0.998219 0.000000 0.059662
vn 0.996737 0.000000 0.080719
vn 0.991061 0.000000 0.133412
vn 0.000000 -1.000000 0.000000
vn 0.000000 -1.000000 0.000000
vn 0.000000 -1.000000 0.000000
vn 0.000000 -1.000000 0.000000
vn 0.000000 -1.000000 0.000000
vn 0.000000 -1.000000 0.000000
vn 0.000000 -1.000000 0.000000
vn 0.000000 -1.000000 0.000000
vn 0.000000 -1.000000 0.000000
vn 0.000000 -1.000000 0.000000
vn 0.000000 -1.000000 0.000000
vn 0.000000 -1.000000 0.000000
vn 0.000000 -1.000000 0.000000
vn 0.000000 -1.000000 0.000000
vn 0.000000 -1.000000 0.000000
vn 0.000000 -1.000000 0.000000
vn 0.000000 -1.000000 0.000000
vn 0.000000 -1.000000 0.000000
vn 0.000000 -1.000000 0.000000
vn 0.000000 -1.000000 0.000000
vn 0.000000 -1.000000 0.000000
vn 0.000000 -1.000000 0.000000
vn 0.000000 -1.000000 0.000000
vn 0.000000 -1.000000 0.000000
vn 0.000000 -1.000000 0.000000
vn 0.000000 -1.000000 0.000000
vn 0.000000 -1.000000 0.000000
vn 0.000000 -1.000000 0.000000
vn 0.000000 -1.000000 0.000000
vn 0.000000 -1.000000 0.000000
vn 0.000000 -1.000000 0.000000
vn 0.000000 -1.000000 0.000000
vn 0.000000 -1.000000 0.000000
vn 0.000000 -1.000000 0.000000
vn 0.000000 -1.000000 0.000000
vn 0.000000 -1.000000 0.000000
vn 0.000000 -1.000000 0.000000
vn 0.000000 -1.000000 0.000000
vn 0.000000 -1.000000 0.000000
vn 0.000000 -1.000000 0.000000
vn 0.000000 -1.000000 0.000000
vn 0.000000 -1.000000 0.000000
vn 0.000000 -1.000000 0.000000
vn 0.000000 -1.000000 0.000000
vn 0.000000 -1.000000 0.000000
vn 0.000000 -1.000000 0.000000
vn 0.000000 -1.000000 0.000000
vn 0.000000 -1.000000 0.000000
vn 0.000000 -1.000000 0.000000
vn 0.000000 -1.000000 0.000000
usemtl Paint_-_Metal_Flake_(Black)
f 2/1/1 59/2/2 1/3/3
f 1/3/3 59/2/2 58/4/4
f 1/3/3 58/4/4 56/5/5
f 56/5/5 58/4/4 82/6/6
f 56/5/5 82/6/6 55/7/7
f 55/7/7 82/6/6 84/8/8
f 55/7/7 84/8/8 54/9/9
f 54/9/9 84/8/8 86/10/10
f 54/9/9 86/10/10 53/11/11
f 53/11/11 86/10/10 52/12/12
f 52/12/12 86/10/10 51/13/13
f 51/13/13 86/10/10 88/14/14
f 51/13/13 88/14/14 50/15/15
f 50/15/15 88/14/14 49/16/16
f 49/16/16 88/14/14 48/17/17
f 48/17/17 88/14/14 47/18/18
f 47/18/18 88/14/14 46/19/19
f 46/19/19 88/14/14 45/20/20
f 45/20/20 88/14/14 37/21/21
f 45/20/20 37/21/21 44/22/22
f 44/22/22 37/21/21 43/23/23
f 43/23/23 37/21/21 42/24/24
f 42/24/24 37/21/21 41/25/25
f 41/25/25 37/21/21 40/26/26
f 40/26/26 37/21/21 39/27/27
f 39/27/27 37/21/21 38/28/28
f 59/2/2 2/1/1 61/29/29
f 61/29/29 2/1/1 3/30/30
f 61/29/29 3/30/30 4/31/31
f 61/29/29 4/31/31 63/32/32
f 63/32/32 4/31/31 5/33/33
f 63/32/32 5/33/33 65/34/34
f 65/34/34 5/33/33 6/35/35
f 65/34/34 6/35/35 67/36/36
f 67/36/36 6/35/35 7/37/37
f 67/36/36 7/37/37 69/38/38
f 69/38/38 7/37/37 8/39/39
f 69/38/38 8/39/39 9/40/40
f 69/38/38 9/40/40 71/41/41
f 71/41/41 9/40/40 10/42/42
f 71/41/41 10/42/42 73/43/43
f 73/43/43 10/42/42 11/44/44
f 73/43/43 11/44/44 76/45/45
f 76/45/45 11/44/44 75/46/46
f 76/45/45 75/46/46 78/47/47
f 78/47/47 75/46/46 13/48/48
f 78/47/47 13/48/48 77/49/49
f 77/49/49 13/48/48 14/50/50
f 77/49/49 14/50/50 78/47/47
f 78/47/47 14/50/50 79/51/51
f 78/47/47 79/51/51 21/52/52
f 21/52/52 79/51/51 20/53/53
f 20/53/53 79/51/51 80/54/54
f 20/53/53 80/54/54 19/55/55
f 19/55/55 80/54/54 18/56/56
f 18/56/56 80/54/54 16/57/57
f 18/56/56 16/57/57 17/58/58
f 11/44/44 12/59/59 75/46/46
f 75/46/46 12/59/59 13/48/48
f 14/50/50 15/60/60 79/51/51
f 79/51/51 15/60/60 80/54/54
f 15/60/60 16/57/57 80/54/54
f 21/52/52 22/61/61 78/47/47
f 78/47/47 22/61/61 76/45/45
f 22/61/61 23/62/62 76/45/45
f 76/45/45 23/62/62 74/63/63
f 76/45/45 74/63/63 73/43/43
f 73/43/43 74/63/63 71/41/41
f 23/62/62 24/64/64 74/63/63
f 74/63/63 24/64/64 72/65/65
f 74/63/63 72/65/65 71/41/41
f 71/41/41 72/65/65 69/38/38
f 24/64/64 25/66/66 72/65/65
f 72/65/65 25/66/66 70/67/67
f 72/65/65 70/67/67 69/38/38
f 69/38/38 70/67/67 67/36/36
f 25/66/66 26/68/68 70/67/67
f 70/67/67 26/68/68 68/69/69
f 70/67/67 68/69/69 67/36/36
f 67/36/36 68/69/69 65/34/34
f 26/68/68 27/70/70 68/69/69
f 68/69/69 27/70/70 66/71/71
f 68/69/69 66/71/71 65/34/34
f 65/34/34 66/71/71 63/32/32
f 27/70/70 28/72/72 66/71/71
f 66/71/71 28/72/72 64/73/73
f 66/71/71 64/73/73 63/32/32
f 63/32/32 64/73/73 61/29/29
f 28/72/72 29/74/74 64/73/73
f 64/73/73 29/74/74 62/75/75
f 64/73/73 62/75/75 61/29/29
f 61/29/29 62/75/75 59/2/2
f 29/74/74 30/76/76 62/75/75
f 62/75/75 30/76/76 60/77/77
f 62/75/75 60/77/77 59/2/2
f 59/2/2 60/77/77 58/4/4
f 30/76/76 31/78/78 60/77/77
f 60/77/77 31/78/78 57/79/79
f 60/77/77 57/79/79 58/4/4
f 58/4/4 57/79/79 82/6/6
f 31/78/78 32/80/80 57/79/79
f 57/79/79 32/80/80 81/81/81
f 57/79/79 81/81/81 82/6/6
f 82/6/6 81/81/81 84/8/8
f 32/80/80 33/82/82 81/81/81
f 81/81/81 33/82/82 83/83/83
f 81/81/81 83/83/83 84/8/8
f 84/8/8 83/83/83 86/10/10
f 33/82/82 34/84/84 83/83/83
f 83/83/83 34/84/84 85/85/85
f 83/83/83 85/85/85 86/10/10
f 86/10/10 85/85/85 87/86/86
f 86/10/10 87/86/86 88/14/14
f 88/14/14 87/86/86 37/21/21
f 34/84/84 35/87/87 85/85/85
f 85/85/85 35/87/87 87/86/86
f 35/87/87 36/88/88 87/86/86
f 87/86/86 36/88/88 37/21/21
f 107/89/89 36/90/90 106/91/91
f 106/91/91 36/90/90 35/92/92
f 106/91/91 35/92/92 34/93/93
f 106/91/91 34/93/93 105/94/94
f 105/94/94 34/93/93 33/95/95
f 105/94/94 33/95/95 104/96/96
f 104/96/96 33/95/95 32/97/97
f 104/96/96 32/97/97 103/98/98
f 103/98/98 32/97/97 31/99/99
f 103/98/98 31/99/99 102/100/100
f 102/100/100 31/99/99 30/101/101
f 102/100/100 30/101/101 101/102/102
f 101/102/102 30/101/101 29/103/103
f 101/102/102 29/103/103 100/104/104
f 100/104/104 29/103/103 28/105/105
f 100/104/104 28/105/105 99/106/106
f 99/106/106 28/105/105 27/107/107
f 99/106/106 27/107/107 98/108/108
f 98/108/108 27/107/107 26/109/109
f 98/108/108 26/109/109 97/110/110
f 97/110/110 26/109/109 25/111/111
f 97/110/110 25/111/111 96/112/112
f 96/112/112 25/111/111 24/113/113
f 96/112/112 24/113/113 95/114/114
f 95/114/114 24/113/113 18/115/115
f 95/114/114 18/115/115 89/116/116
f 24/113/113 23/117/117 18/115/115
f 18/115/115 23/117/117 22/118/118
f 18/115/115 22/118/118 21/119/119
f 21/119/119 20/120/120 18/115/115
f 18/115/115 20/120/120 19/121/121
f 90/122/122 91/123/123 89/116/116
f 89/116/116 91/123/123 92/124/124
f 89/116/116 92/124/124 93/125/125
f 93/125/125 94/126/126 89/116/116
f 89/116/116 94/126/126 95/114/114
f 18/127/56 17/128/58 89/129/127
f 89/129/127 17/128/58 108/130/128
f 16/131/129 153/132/130 17/133/58
f 17/133/58 153/132/130 136/134/131
f 17/133/58 136/134/131 108/135/128
f 16/131/129 15/136/132 153/132/130
f 153/132/130 15/136/132 135/137/133
f 153/132/130 135/137/133 136/134/131
f 135/137/133 15/136/132 137/138/134
f 137/138/134 15/136/132 14/139/135
f 137/138/134 14/139/135 138/140/136
f 138/140/136 14/139/135 13/141/137
f 138/140/136 13/141/137 139/142/138
f 139/142/138 13/141/137 12/143/139
f 139/142/138 12/143/139 11/144/140
f 139/142/138 11/144/140 140/145/141
f 140/145/141 11/144/140 10/146/142
f 140/145/141 10/146/142 141/147/143
f 141/147/143 10/146/142 9/148/144
f 141/147/143 9/148/144 142/149/145
f 142/149/145 9/148/144 8/150/146
f 142/149/145 8/150/146 7/151/147
f 142/149/145 7/151/147 143/152/148
f 143/152/148 7/151/147 6/153/149
f 143/152/148 6/153/149 144/154/150
f 144/154/150 6/153/149 5/155/151
f 144/154/150 5/155/151 145/156/152
f 145/156/152 5/155/151 4/157/153
f 145/156/152 4/157/153 3/158/154
f 145/156/152 3/158/154 146/159/155
f 146/159/155 3/158/154 2/160/156
f 146/159/155 2/160/156 147/161/157
f 147/161/157 2/160/156 1/162/158
f 147/161/157 1/162/158 148/163/159
f 148/163/159 1/162/158 109/164/160
f 148/163/159 109/164/160 149/165/161
f 149/165/161 109/164/160 110/166/162
f 149/165/161 110/166/162 150/167/163
f 150/167/163 110/166/162 111/168/164
f 150/167/163 111/168/164 151/169/165
f 151/169/165 111/168/164 112/170/166
f 151/169/165 112/170/166 152/171/167
f 152/171/167 112/170/166 113/172/168
f 152/171/167 113/172/168 115/173/169
f 115/173/169 113/172/168 114/174/170
f 115/173/169 116/175/171 152/171/167
f 152/171/167 116/175/171 117/176/172
f 152/171/167 117/176/172 151/169/165
f 151/169/165 117/176/172 118/177/173
f 151/169/165 118/177/173 150/167/163
f 150/167/163 118/177/173 119/178/174
f 150/167/163 119/178/174 149/165/161
f 149/165/161 119/178/174 120/179/175
f 149/165/161 120/179/175 148/163/159
f 148/163/159 120/179/175 121/180/176
f 148/163/159 121/180/176 147/161/157
f 147/161/157 121/180/176 122/181/177
f 147/161/157 122/181/177 146/159/155
f 146/159/155 122/181/177 123/182/178
f 146/159/155 123/182/178 145/156/152
f 145/156/152 123/182/178 124/183/179
f 145/156/152 124/183/179 125/184/180
f 145/156/152 125/184/180 144/154/150
f 144/154/150 125/184/180 126/185/181
f 144/154/150 126/185/181 143/152/148
f 143/152/148 126/185/181 127/186/182
f 143/152/148 127/186/182 142/149/145
f 142/149/145 127/186/182 128/187/183
f 142/149/145 128/187/183 129/188/184
f 142/149/145 129/188/184 141/147/143
f 141/147/143 129/188/184 130/189/185
f 141/147/143 130/189/185 140/145/141
f 140/145/141 130/189/185 131/190/186
f 140/145/141 131/190/186 139/142/138
f 139/142/138 131/190/186 132/191/187
f 139/142/138 132/191/187 133/192/188
f 139/142/138 133/192/188 138/140/136
f 138/140/136 133/192/188 134/193/189
f 138/140/136 134/193/189 137/138/134
f 137/138/134 134/193/189 135/137/133
f 106/194/190 174/195/191 107/196/192
f 107/196/192 174/195/191 175/197/193
f 107/196/192 175/197/193 165/198/194
f 165/198/194 175/197/193 164/199/195
f 164/199/195 175/197/193 163/200/196
f 163/200/196 175/197/193 162/201/197
f 162/201/197 175/197/193 161/202/198
f 161/202/198 175/197/193 160/203/199
f 160/203/199 175/197/193 159/204/200
f 159/204/200 175/197/193 177/205/201
f 159/204/200 177/205/201 158/206/202
f 158/206/202 177/205/201 157/207/203
f 157/207/203 177/205/201 156/208/204
f 156/208/204 177/205/201 179/209/205
f 156/208/204 179/209/205 155/210/206
f 155/210/206 179/209/205 181/211/207
f 155/210/206 181/211/207 154/212/208
f 154/212/208 181/211/207 183/213/209
f 154/212/208 183/213/209 121/214/210
f 121/214/210 183/213/209 185/215/211
f 121/214/210 185/215/211 122/216/212
f 122/216/212 185/215/211 187/217/213
f 122/216/212 187/217/213 123/218/214
f 123/218/214 187/217/213 124/219/215
f 124/219/215 187/217/213 189/220/216
f 124/219/215 189/220/216 125/221/217
f 125/221/217 189/220/216 191/222/218
f 125/221/217 191/222/218 126/223/219
f 126/223/219 191/222/218 193/224/220
f 126/223/219 193/224/220 127/225/221
f 127/225/221 193/224/220 195/226/222
f 127/225/221 195/226/222 128/227/223
f 128/227/223 195/226/222 129/228/224
f 129/228/224 195/226/222 197/229/225
f 129/228/224 197/229/225 130/230/226
f 130/230/226 197/229/225 196/231/227
f 130/230/226 196/231/227 199/232/228
f 199/232/228 196/231/227 198/233/229
f 199/232/228 198/233/229 131/234/230
f 131/234/230 198/233/229 201/235/231
f 131/234/230 201/235/231 132/236/232
f 132/236/232 201/235/231 133/237/233
f 133/237/233 201/235/231 200/238/234
f 133/237/233 200/238/234 202/239/235
f 202/239/235 200/238/234 93/240/236
f 202/239/235 93/240/236 92/241/237
f 174/195/191 106/194/190 176/242/238
f 176/242/238 106/194/190 105/243/239
f 176/242/238 105/243/239 178/244/240
f 178/244/240 105/243/239 104/245/241
f 178/244/240 104/245/241 180/246/242
f 180/246/242 104/245/241 103/247/243
f 180/246/242 103/247/243 182/248/244
f 182/248/244 103/247/243 102/249/245
f 182/248/244 102/249/245 184/250/246
f 184/250/246 102/249/245 101/251/247
f 184/250/246 101/251/247 186/252/248
f 186/252/248 101/251/247 100/253/249
f 186/252/248 100/253/249 188/254/250
f 188/254/250 100/253/249 99/255/251
f 188/254/250 99/255/251 190/256/252
f 190/256/252 99/255/251 98/257/253
f 190/256/252 98/257/253 192/258/254
f 192/258/254 98/257/253 97/259/255
f 192/258/254 97/259/255 194/260/256
f 194/260/256 97/259/255 96/261/257
f 194/260/256 96/261/257 196/231/227
f 196/231/227 96/261/257 95/262/258
f 196/231/227 95/262/258 198/233/229
f 198/233/229 95/262/258 94/263/259
f 198/233/229 94/263/259 200/238/234
f 200/238/234 94/263/259 93/240/236
f 202/239/235 92/241/237 204/264/260
f 204/264/260 92/241/237 91/265/261
f 204/264/260 91/265/261 205/266/262
f 205/266/262 91/265/261 90/267/263
f 205/266/262 90/267/263 89/268/127
f 89/268/127 108/269/128 205/266/262
f 205/266/262 108/269/128 136/270/264
f 205/266/262 136/270/264 135/271/265
f 205/266/262 135/271/265 204/264/260
f 204/264/260 135/271/265 134/272/266
f 204/264/260 134/272/266 202/239/235
f 202/239/235 134/272/266 203/273/267
f 202/239/235 203/273/267 133/237/233
f 133/237/233 203/273/267 134/272/266
f 131/234/230 130/230/226 199/232/228
f 165/198/194 166/274/268 107/196/192
f 107/196/192 166/274/268 167/275/269
f 107/196/192 167/275/269 168/276/270
f 168/276/270 169/277/271 107/196/192
f 107/196/192 169/277/271 170/278/272
f 107/196/192 170/278/272 171/279/273
f 171/279/273 172/280/274 107/196/192
f 107/196/192 172/280/274 173/281/275
f 177/205/201 175/197/193 174/195/191
f 177/205/201 174/195/191 176/242/238
f 179/209/205 177/205/201 176/242/238
f 179/209/205 176/242/238 178/244/240
f 181/211/207 179/209/205 178/244/240
f 181/211/207 178/244/240 180/246/242
f 183/213/209 181/211/207 180/246/242
f 183/213/209 180/246/242 182/248/244
f 185/215/211 183/213/209 182/248/244
f 185/215/211 182/248/244 184/250/246
f 187/217/213 185/215/211 184/250/246
f 187/217/213 184/250/246 186/252/248
f 189/220/216 187/217/213 186/252/248
f 189/220/216 186/252/248 188/254/250
f 191/222/218 189/220/216 188/254/250
f 191/222/218 188/254/250 190/256/252
f 193/224/220 191/222/218 190/256/252
f 193/224/220 190/256/252 192/258/254
f 195/226/222 193/224/220 192/258/254
f 195/226/222 192/258/254 194/260/256
f 197/229/225 195/226/222 194/260/256
f 197/229/225 194/260/256 196/231/227
f 201/235/231 198/233/229 200/238/234
f 173/282/276 172/283/277 242/284/278
f 242/284/278 172/283/277 171/285/279
f 242/284/278 171/285/279 241/286/280
f 241/286/280 171/285/279 170/287/281
f 241/286/280 170/287/281 240/288/282
f 240/288/282 170/287/281 169/289/283
f 240/288/282 169/289/283 168/290/284
f 240/288/282 168/290/284 239/291/285
f 239/291/285 168/290/284 167/292/286
f 239/291/285 167/292/286 238/293/287
f 238/293/287 167/292/286 166/294/288
f 238/293/287 166/294/288 165/295/289
f 238/293/287 165/295/289 237/296/290
f 237/296/290 165/295/289 164/297/291
f 237/296/290 164/297/291 236/298/292
f 236/298/292 164/297/291 163/299/293
f 236/298/292 163/299/293 235/300/294
f 235/300/294 163/299/293 162/301/295
f 235/300/294 162/301/295 161/302/296
f 235/300/294 161/302/296 234/303/297
f 234/303/297 161/302/296 160/304/298
f 234/303/297 160/304/298 233/305/299
f 233/305/299 160/304/298 159/306/300
f 233/305/299 159/306/300 158/307/301
f 233/305/299 158/307/301 232/308/302
f 232/308/302 158/307/301 157/309/303
f 232/308/302 157/309/303 231/310/304
f 231/310/304 157/309/303 206/311/305
f 231/310/304 206/311/305 207/312/306
f 231/310/304 207/312/306 230/313/307
f 230/313/307 207/312/306 208/314/308
f 230/313/307 208/314/308 229/315/309
f 229/315/309 208/314/308 209/316/310
f 229/315/309 209/316/310 228/317/311
f 228/317/311 209/316/310 210/318/312
f 228/317/311 210/318/312 211/319/313
f 228/317/311 211/319/313 227/320/314
f 227/320/314 211/319/313 212/321/315
f 227/320/314 212/321/315 226/322/316
f 226/322/316 212/321/315 213/323/317
f 226/322/316 213/323/317 214/324/318
f 226/322/316 214/324/318 225/325/319
f 225/325/319 214/324/318 215/326/320
f 225/325/319 215/326/320 224/327/321
f 224/327/321 215/326/320 216/328/322
f 224/327/321 216/328/322 223/329/323
f 223/329/323 216/328/322 217/330/324
f 223/329/323 217/330/324 218/331/325
f 223/329/323 218/331/325 222/332/326
f 222/332/326 218/331/325 219/333/327
f 222/332/326 219/333/327 221/334/328
f 221/334/328 219/333/327 220/335/329
f 221/334/328 220/335/329 115/336/330
f 156/337/331 118/338/173 157/339/332
f 157/339/332 118/338/173 117/340/172
f 157/339/332 117/340/172 206/341/333
f 206/341/333 117/340/172 207/342/334
f 207/342/334 117/340/172 208/343/335
f 208/343/335 117/340/172 116/344/171
f 208/343/335 116/344/171 209/345/336
f 209/345/336 116/344/171 210/346/337
f 210/346/337 116/344/171 211/347/338
f 211/347/338 116/344/171 212/348/339
f 212/348/339 116/344/171 213/349/340
f 213/349/340 116/344/171 214/350/341
f 214/350/341 116/344/171 115/351/169
f 214/350/341 115/351/169 215/352/342
f 215/352/342 115/351/169 216/353/343
f 216/353/343 115/351/169 217/354/344
f 217/354/344 115/351/169 218/355/345
f 218/355/345 115/351/169 219/356/346
f 219/356/346 115/351/169 220/357/347
f 118/338/173 156/337/331 119/358/174
f 119/358/174 156/337/331 155/359/348
f 119/358/174 155/359/348 120/360/175
f 120/360/175 155/359/348 154/361/349
f 120/360/175 154/361/349 121/362/176
f 1/363/158 56/364/350 109/365/160
f 109/365/160 56/364/350 55/366/351
f 109/365/160 55/366/351 110/367/162
f 110/367/162 55/366/351 54/368/352
f 110/367/162 54/368/352 111/369/164
f 111/369/164 54/368/352 53/370/353
f 111/369/164 53/370/353 112/371/166
f 112/371/166 53/370/353 243/372/354
f 112/371/166 243/372/354 244/373/355
f 244/373/355 245/374/356 112/371/166
f 112/371/166 245/374/356 113/375/168
f 113/375/168 245/374/356 246/376/357
f 113/375/168 246/376/357 247/377/358
f 247/377/358 248/378/359 113/375/168
f 113/375/168 248/378/359 249/379/360
f 113/375/168 249/379/360 250/380/361
f 250/380/361 251/381/362 113/375/168
f 113/375/168 251/381/362 114/382/170
f 114/382/170 251/381/362 252/383/363
f 114/382/170 252/383/363 253/384/364
f 253/384/364 254/385/365 114/382/170
f 114/382/170 254/385/365 255/386/366
f 114/382/170 255/386/366 256/387/367
f 256/387/367 257/388/368 114/382/170
f 52/389/369 268/390/370 53/391/371
f 53/391/371 268/390/370 269/392/372
f 53/391/371 269/392/372 243/393/373
f 243/393/373 269/392/372 270/394/374
f 243/393/373 270/394/374 244/395/375
f 244/395/375 270/394/374 245/396/376
f 245/396/376 270/394/374 271/397/377
f 245/396/376 271/397/377 246/398/378
f 246/398/378 271/397/377 272/399/379
f 246/398/378 272/399/379 247/400/380
f 247/400/380 272/399/379 248/401/381
f 248/401/381 272/399/379 273/402/382
f 248/401/381 273/402/382 249/403/383
f 249/403/383 273/402/382 274/404/384
f 249/403/383 274/404/384 250/405/385
f 250/405/385 274/404/384 275/406/386
f 250/405/385 275/406/386 251/407/387
f 251/407/387 275/406/386 252/408/388
f 252/408/388 275/406/386 276/409/389
f 252/408/388 276/409/389 253/410/390
f 253/410/390 276/409/389 277/411/391
f 253/410/390 277/411/391 254/412/392
f 254/412/392 277/411/391 255/413/393
f 255/413/393 277/411/391 278/414/394
f 255/413/393 278/414/394 256/415/395
f 256/415/395 278/414/394 279/416/396
f 256/415/395 279/416/396 257/417/397
f 257/417/397 279/416/396 114/418/398
f 52/389/369 51/419/399 268/390/370
f 268/390/370 51/419/399 267/420/400
f 267/420/400 51/419/399 50/421/401
f 267/420/400 50/421/401 266/422/402
f 266/422/402 50/421/401 49/423/403
f 266/422/402 49/423/403 265/424/404
f 265/424/404 49/423/403 48/425/405
f 265/424/404 48/425/405 47/426/406
f 265/424/404 47/426/406 264/427/407
f 264/427/407 47/426/406 46/428/408
f 264/427/407 46/428/408 263/429/409
f 263/429/409 46/428/408 45/430/410
f 263/429/409 45/430/410 44/431/411
f 263/429/409 44/431/411 262/432/412
f 262/432/412 44/431/411 43/433/413
f 262/432/412 43/433/413 261/434/414
f 261/434/414 43/433/413 42/435/415
f 261/434/414 42/435/415 260/436/416
f 260/436/416 42/435/415 41/437/417
f 260/436/416 41/437/417 40/438/418
f 260/436/416 40/438/418 259/439/419
f 259/439/419 40/438/418 39/440/420
f 259/439/419 39/440/420 258/441/421
f 258/441/421 39/440/420 38/442/422
f 258/441/421 38/442/422 37/443/423
f 279/444/424 265/445/425 114/446/426
f 114/446/426 265/445/425 264/447/427
f 114/446/426 264/447/427 263/448/428
f 279/444/424 278/449/429 265/445/425
f 265/445/425 278/449/429 277/450/430
f 265/445/425 277/450/430 276/451/431
f 276/451/431 275/452/432 265/445/425
f 265/445/425 275/452/432 274/453/433
f 265/445/425 274/453/433 273/454/434
f 273/454/434 272/455/435 265/445/425
f 265/445/425 272/455/435 271/456/436
f 265/445/425 271/456/436 270/457/437
f 270/457/437 269/458/438 265/445/425
f 265/445/425 269/458/438 268/459/439
f 265/445/425 268/459/439 267/460/440
f 267/460/440 266/461/441 265/445/425
f 263/448/428 262/462/442 114/446/426
f 114/446/426 262/462/442 261/463/443
f 114/446/426 261/463/443 260/464/444
f 260/464/444 259/465/445 114/446/426
f 114/446/426 259/465/445 258/466/446
f 114/446/426 258/466/446 37/467/447
f 36/468/448 107/469/449 37/467/447
f 37/467/447 107/469/449 173/470/450
f 37/467/447 173/470/450 114/446/426
f 114/446/426 173/470/450 115/471/451
f 115/471/451 173/470/450 221/472/452
f 221/472/452 173/470/450 222/473/453
f 222/473/453 173/470/450 223/474/454
f 223/474/454 173/470/450 224/475/455
f 224/475/455 173/470/450 225/476/456
f 225/476/456 173/470/450 226/477/457
f 226/477/457 173/470/450 227/478/458
f 227/478/458 173/470/450 228/479/459
f 228/479/459 173/470/450 229/480/460
f 229/480/460 173/470/450 230/481/461
f 230/481/461 173/470/450 231/482/462
f 231/482/462 173/470/450 232/483/463
f 232/483/463 173/470/450 233/484/464
f 233/484/464 173/470/450 234/485/465
f 234/485/465 173/470/450 235/486/466
f 235/486/466 173/470/450 236/487/467
f 236/487/467 173/470/450 237/488/468
f 237/488/468 173/470/450 238/489/469
f 238/489/469 173/470/450 239/490/470
f 239/490/470 173/470/450 240/491/471
f 240/491/471 173/470/450 241/492/472
f 241/492/472 173/470/450 242/493/473
# 279 vertices
# 493 texture params
# 473 normals
# 554 facets

# 1 groups
