# WaveFront *.obj file (generated by Autodesk ATF)

mtllib foot_sinister_collision.mtl

g Body1

v 3.400000 -7.500000 -2.000000
v 3.400000 -6.500000 -2.000000
v -3.400000 -7.500000 -6.000000
v 3.400000 -6.500000 -6.000000
v -3.400000 -7.500000 -2.000000
v -3.400000 -6.500000 -2.000000
v 3.400000 -7.500000 -6.000000
v -3.400000 -6.500000 -6.000000
usemtl Paint_-_Metal_Flake_(Gold)
f 7 2 1
f 4 2 7
f 3 1 5
f 7 1 3
f 8 5 6
f 3 5 8
f 4 6 2
f 8 6 4
f 4 3 8
f 7 3 4
f 1 6 5
f 2 6 1
g Body4

v -3.950874 7.499999 0.049955
v -2.783012 7.499999 2.825557
v -0.252940 7.499999 3.958102
v 2.391244 7.499999 3.194349
v 3.802508 7.499999 1.222617
v 3.440468 7.499999 -1.936050
v -0.201872 7.499999 -3.946135
v -2.988795 7.499999 -2.643675
v -3.889035 6.499999 -0.877081
v -2.153126 6.499999 -3.350329
v 0.202377 6.499999 -3.970968
v 2.688262 6.499999 -2.932324
v 3.969285 6.499999 0.304372
v 2.731726 6.499999 2.875239
v -0.506548 6.499999 3.916068
v -2.287989 6.499999 3.259718
v -3.961221 6.499999 0.395334
v -3.409024 6.499999 2.010876
v 1.331501 6.499999 3.743736
v 3.652506 6.499999 1.601030
v 3.695389 6.499999 -1.410485
v 1.675202 6.499999 -3.619088
v -1.025565 6.499999 -3.853871
v -3.308753 6.499999 -2.186007
v -3.637269 7.499999 -1.616403
v -1.957379 7.499999 -3.457907
v 1.811024 7.499999 -3.528388
v 3.965752 7.499999 -0.131970
v 3.247913 7.499999 2.292162
v 1.360744 7.499999 3.735147
v -1.488428 7.499999 3.699822
v -3.584164 7.499999 1.748678
f 38 39 11
f 38 10 39
f 12 10 38
f 37 10 12
f 37 40 10
f 13 40 37
f 13 9 40
f 36 9 13
f 34 35 15
f 34 14 35
f 16 14 34
f 33 14 16
f 33 36 14
f 9 36 33
f 30 31 19
f 30 18 31
f 20 18 30
f 20 32 18
f 29 32 20
f 29 17 32
f 29 25 17
f 21 25 29
f 24 27 23
f 24 22 27
f 26 22 24
f 26 28 22
f 26 21 28
f 25 21 26
f 26 9 25
f 26 40 9
f 26 10 40
f 24 10 26
f 24 39 10
f 23 39 24
f 23 11 39
f 27 11 23
f 27 38 11
f 27 12 38
f 22 12 27
f 22 37 12
f 28 37 22
f 28 13 37
f 21 13 28
f 21 36 13
f 29 36 21
f 29 14 36
f 20 14 29
f 20 35 14
f 30 35 20
f 19 35 30
f 19 15 35
f 31 15 19
f 31 34 15
f 18 34 31
f 18 16 34
f 32 16 18
f 32 33 16
f 17 33 32
f 17 9 33
f 25 9 17
g Body2

v 3.400000 6.499999 -2.000000
v 3.400000 7.499999 -2.000000
v -3.400000 6.499999 -6.000000
v 3.400000 7.499999 -6.000000
v -3.400000 6.499999 -2.000000
v -3.400000 7.499999 -2.000000
v 3.400000 6.499999 -6.000000
v -3.400000 7.499999 -6.000000
f 47 42 41
f 44 42 47
f 43 41 45
f 47 41 43
f 48 45 46
f 43 45 48
f 44 46 42
f 48 46 44
f 44 43 48
f 47 43 44
f 41 46 45
f 42 46 41
g Body3

v -3.951094 -7.500000 0.039859
v -2.717451 -7.500000 -2.918830
v -0.354392 -7.500000 -3.962282
v 2.459061 -7.500000 -3.084134
v 3.946159 -7.500000 -0.465058
v 3.275021 -7.500000 2.236957
v 0.533138 -7.500000 3.921945
v -2.513224 -7.500000 3.070821
v -3.252420 -6.500000 2.307784
v -0.702751 -6.500000 3.894838
v 2.328184 -6.500000 3.210746
v 3.942867 -6.500000 -0.342661
v 2.530619 -6.500000 -3.045061
v 0.081492 -6.500000 -3.989188
v -2.317118 -6.500000 -3.231178
v -3.319070 -6.500000 -2.205603
v -3.878072 -6.500000 0.802182
v -3.859856 -6.500000 -0.943382
v -1.032886 -6.500000 -3.842631
v 1.149753 -6.500000 -3.808325
v 3.556596 -6.500000 -1.803047
v 3.569863 -6.500000 1.674353
v 0.907284 -6.500000 3.883419
v -2.383055 -6.500000 3.182859
v -3.491269 -7.500000 1.918137
v -1.131202 -7.500000 3.816797
v 2.153126 -7.500000 3.350329
v 3.859921 -7.500000 0.974756
v 3.601860 -7.500000 -1.711929
v 0.965216 -7.500000 -3.863808
v -1.727961 -7.500000 -3.588148
v -3.589590 -7.500000 -1.705850
f 78 79 51
f 52 79 78
f 52 50 79
f 52 80 50
f 77 80 52
f 53 80 77
f 53 49 80
f 74 75 55
f 56 75 74
f 56 54 75
f 73 54 56
f 73 76 54
f 49 76 73
f 49 53 76
f 59 58 71
f 59 72 58
f 59 57 72
f 70 57 59
f 70 65 57
f 60 65 70
f 67 68 62
f 63 68 67
f 63 61 68
f 64 61 63
f 64 69 61
f 66 69 64
f 66 60 69
f 65 60 66
f 66 80 49
f 64 80 66
f 64 50 80
f 63 50 64
f 63 79 50
f 67 79 63
f 67 51 79
f 62 51 67
f 62 78 51
f 68 78 62
f 68 52 78
f 61 52 68
f 61 77 52
f 69 77 61
f 60 77 69
f 60 53 77
f 60 76 53
f 70 76 60
f 70 54 76
f 59 54 70
f 59 75 54
f 59 55 75
f 71 55 59
f 58 55 71
f 58 74 55
f 72 74 58
f 72 56 74
f 57 56 72
f 57 73 56
f 65 73 57
f 65 49 73
f 66 49 65
g Body1:1

v 5.000000 10.148700 -6.500000
v -5.000000 10.122287 -6.153086
v 5.471210 -2.426597 -5.642075
v -0.468750 8.404117 -4.118743
v 7.270952 5.047404 -5.898900
v 7.392529 5.231093 -6.168166
v 5.000000 5.924354 -4.042905
v 5.000000 5.225171 -4.202165
v 5.000000 4.567317 -4.488243
v 6.860455 5.021857 -5.195325
v 6.240154 4.857081 -4.715414
v 5.641451 4.677907 -4.527365
v 7.270952 5.594318 -5.620981
v 5.808335 5.051635 -4.413203
v 7.128283 5.363637 -5.427068
v 5.564939 5.024724 -4.345659
v 6.749578 5.367274 -4.914832
v 7.136314 5.725852 -5.312373
v 7.214470 6.113517 -5.371926
v 5.378326 5.752435 -4.099357
v 6.157120 5.672553 -4.377570
v 5.807298 5.791015 -4.201045
v 5.985257 6.084109 -4.225572
v 6.698921 6.115214 -4.688731
v 5.378570 -4.242816 -4.719468
v 5.868263 -4.314269 -4.824208
v 6.479218 -4.500213 -5.096780
v 6.955660 -4.759780 -5.477275
v 7.244511 -5.014975 -5.851360
v 7.452839 -5.369573 -6.371160
v 7.500000 -3.527571 -7.809527
v 7.500000 2.027952 -8.217815
v 5.000000 3.571965 -5.093866
v 5.000000 2.779121 -5.465234
v 5.000000 1.360910 -5.873259
v 5.000000 0.218970 -5.996003
v 5.000000 -0.710545 -5.964057
v 5.000000 -2.366788 -5.612550
v 5.000000 -3.571965 -5.093866
v 7.296535 -4.516445 -6.307244
v 6.355036 -3.930497 -5.349613
v 5.777752 -3.660969 -5.187382
v 5.482585 -3.080945 -5.394218
v 6.450140 -3.248536 -5.772439
v 6.983383 -3.329728 -6.299122
v 7.469761 -2.628814 -7.740992
v 6.604855 -2.636971 -6.138560
v -5.000000 10.051471 -5.812481
v -5.000000 9.916740 -5.457902
v -5.000000 9.680549 -5.047222
v -5.000000 9.437129 -4.756297
v -5.000000 9.152461 -4.505587
v -5.000000 8.916534 -4.346261
v -5.000000 8.604550 -4.192333
v -5.000000 8.305373 -4.090072
v -5.000000 7.964446 -4.020828
v -5.000000 7.648700 -4.000000
v 5.000000 7.648700 -4.000000
v 5.000000 7.964042 -4.024010
v 5.000000 8.366183 -4.107472
v 5.000000 8.692138 -4.229047
v 5.000000 9.022225 -4.415919
v 5.000000 9.277131 -4.603105
v 5.000000 9.480748 -4.802185
v 5.000000 9.680549 -5.047222
v 5.000000 9.863891 -5.342880
v 5.000000 10.001819 -5.662258
v 5.000000 10.068893 -5.873369
v 5.000000 10.122287 -6.153086
v -5.000000 10.148700 -6.500000
v 2.089844 10.078143 -5.926086
v -0.312500 10.001819 -5.662258
v -0.625000 9.828797 -5.280896
v 0.625000 9.589830 -4.932479
v 0.625000 9.305719 -4.630553
v 0.625000 9.003083 -4.401862
v -0.312500 8.706525 -4.235658
v 0.312500 7.964042 -4.024010
v 5.717484 -10.166020 -4.107472
v 7.102825 4.875770 -5.647303
v 6.638597 -0.011077 -6.612447
v 5.732384 0.769860 -6.069029
v 5.632336 2.050412 -5.798668
v 6.517994 1.619392 -6.351418
v 5.331248 1.816802 -5.799367
v 5.829306 2.254892 -5.801412
v 6.637315 2.414229 -6.247106
v 7.385448 3.286170 -7.153615
v 7.111492 3.480926 -6.434583
v 5.591285 3.117560 -5.398776
v 7.340691 3.709025 -6.833765
v 6.073708 3.650474 -5.332182
v 6.881634 3.774309 -5.958248
v 5.686638 -6.480740 -4.100313
v 6.375290 -6.480740 -4.413240
v 6.994413 -6.480740 -4.996241
v 7.215189 -6.480740 -5.342880
v 7.420193 -6.480740 -5.873369
v 7.500000 -6.480740 -6.500000
v 7.500000 -5.875840 -6.629869
v 5.000000 -4.964032 -4.301070
v 5.000000 -5.766337 -4.065123
v 6.579348 -6.155502 -4.581221
v 7.199827 -5.861265 -5.392780
v 5.564939 -5.778594 -4.132630
v 6.732508 -5.939741 -4.746647
v 7.337009 -6.000941 -5.669344
v 7.069334 -5.583655 -5.244323
v 5.808335 -5.639323 -4.228628
v 7.337753 -5.645390 -5.771067
v 6.529283 -5.358454 -4.713258
v 5.502924 -5.260804 -4.248009
v 6.287060 -5.169333 -4.607738
v 7.184288 -5.480430 -5.482874
v 5.702742 -4.824514 -4.472612
v 6.952074 -5.182110 -5.235613
v 6.374407 -4.765939 -4.852052
v 5.315745 -13.851300 -4.020828
v 5.808335 -13.851300 -4.135136
v 6.479218 -13.851300 -4.485576
v 7.001225 -13.851300 -5.010933
v 7.364864 -13.851300 -5.691665
v 7.500000 -13.851300 -6.500000
v 7.500000 7.648700 -6.500000
v 7.448824 7.648700 -5.996754
v 7.392529 7.648700 -5.782517
v 7.228409 7.648700 -5.371654
v 7.086760 7.648700 -5.124710
v 6.936917 7.648700 -4.920652
v 6.767200 7.648700 -4.732800
v 6.553824 7.648700 -4.544340
v 6.155635 7.648700 -4.287654
v 5.717484 7.648700 -4.107472
v 5.440908 7.648700 -4.040002
v 5.000000 6.480741 -4.000000
v 5.440908 6.480741 -4.040002
v 5.807298 6.480741 -4.138171
v 6.157120 6.480741 -4.284811
v 6.477319 6.480741 -4.488162
v 6.788427 6.480741 -4.756297
v 6.976939 6.480741 -4.969735
v 7.150974 6.480741 -5.233795
v 7.297394 6.480741 -5.514110
v 7.392529 6.480741 -5.782517
v 7.473585 6.480741 -6.153086
v 7.500000 6.480741 -6.500000
v 5.000000 4.226570 -4.695652
v 5.564939 4.263476 -4.749754
v 5.748407 4.291182 -4.790365
v 6.042098 4.357291 -4.887273
v 6.400814 4.470012 -5.052507
v 6.675425 4.590371 -5.228942
v 6.915689 4.732154 -5.436781
v 0.625000 10.140681 -6.310228
v 7.130114 0.101261 -7.191259
v 6.867338 0.893148 -6.786264
v 6.285356 -0.191232 -6.352358
v 6.517944 0.788679 -6.477093
v 6.102710 0.657251 -6.230652
v 7.289497 1.724729 -7.332915
v 7.070221 1.310328 -6.998656
v 5.610806 0.381115 -6.066127
v 7.439003 1.872619 -7.754835
v 6.156572 1.430204 -6.148750
v 7.394140 -2.835633 -7.334053
v 7.353050 -2.295379 -7.363076
v 7.445015 -1.440800 -7.864441
v 6.546225 -1.326220 -6.426339
v 6.376160 -1.639237 -6.242582
v 7.129032 -1.971068 -6.962027
v 5.498281 -1.740017 -5.846648
v 7.364546 -1.373227 -7.593640
v 6.874754 -1.787868 -6.652949
v 6.141460 -1.939281 -6.031575
v 7.249590 -0.916539 -7.358443
v 6.984383 -0.864667 -6.936379
v 5.895348 -0.438276 -6.152774
v 5.672096 -1.196748 -5.995471
v 5.424919 -0.747044 -5.999786
v 7.458084 -0.253755 -8.040297
v 6.770027 -0.575736 -6.711741
v 5.933377 -1.091903 -6.099942
v 6.903943 -0.037049 -6.877417
v 6.605392 -1.006365 -6.518686
v 7.320187 0.326685 -7.569956
v 5.992767 0.077572 -6.203713
v 5.409334 -0.065367 -6.034286
v 5.837742 1.356335 -6.023700
v 5.830290 -2.452374 -5.738355
v -5.652298 9.904840 -5.651641
v 6.673273 -10.166020 -4.647941
v 7.175751 -10.166020 -5.274304
v 7.440094 -10.780234 -5.966230
v 2.500000 -16.667045 -4.020828
v 2.500000 -17.189042 -4.146882
v 2.500000 -17.828619 -4.488162
v 2.500000 -18.328239 -4.969735
v 2.500000 -18.622253 -5.456563
v 2.500000 -18.815298 -6.090504
v 3.228005 -18.798016 -6.500000
v 4.156801 -18.566390 -6.500000
v 4.866651 -18.254779 -6.500000
v 5.518206 -17.834704 -6.500000
v 6.281025 -17.116599 -6.500000
v 6.835722 -16.336976 -6.500000
v 7.256924 -15.377730 -6.500000
v 3.890814 -15.877632 -4.000000
v 3.011581 -18.708981 -5.767294
v 3.085260 -18.246501 -4.920652
v 3.337347 -18.384622 -5.165218
v 3.277037 -18.008458 -4.700376
v 3.808213 -18.588465 -5.866260
v 3.696227 -18.109701 -4.908381
v 3.480143 -17.596585 -4.413240
v 3.197763 -17.047911 -4.124894
v 4.275694 -18.494032 -6.137258
v 4.190101 -18.209605 -5.273879
v 3.752771 -17.312919 -4.300875
v 3.334895 -16.656853 -4.040002
v 4.274471 -17.823803 -4.824576
v 3.606106 -16.800661 -4.088518
v 4.218315 -17.651464 -4.645561
v 4.784292 -18.101230 -5.595257
v 4.456788 -17.356231 -4.514324
v 5.066279 -18.100210 -6.098236
v 4.732920 -17.627725 -4.867001
v 5.273149 -17.881000 -5.782517
v 5.142003 -17.543009 -5.059984
v 5.298729 -17.689681 -5.421125
v 4.560572 -16.729647 -4.229047
v 5.596600 -17.606803 -5.715156
v 6.491833 9.273419 -5.331181
v 7.103758 8.937114 -6.126996
v 6.795532 8.388555 -4.935409
v 7.213955 8.624286 -5.892285
v 6.625761 8.265040 -4.708898
v 7.298389 8.537391 -6.115499
v 7.125904 8.142682 -5.289828
v 7.331501 8.219083 -5.813928
v 7.412115 8.213927 -6.202046
v 0.000000 -5.000488 -4.284831
v 0.000000 -5.944272 -4.041711
v 0.000000 2.739698 -5.477183
v 0.000000 1.006637 -5.927901
v 0.000000 -0.336450 -5.988246
v 0.000000 -2.129364 -5.685294
v 0.000000 -3.895179 -4.906476
v 0.000000 5.609902 -4.096762
v -0.416666 4.658595 -4.447572
v 7.500000 -13.851300 -8.500000
v 7.317909 8.574586 -8.500000
v 6.994413 9.152461 -8.500000
v 6.267832 9.802440 -8.500000
v 5.748407 10.034049 -8.500000
v 5.000000 10.148700 -8.500000
v -7.500000 7.648700 -8.500000
v -5.626631 10.068893 -8.500000
v -6.157120 9.863891 -8.500000
v -6.628431 9.545596 -8.500000
v -6.994413 9.152461 -8.500000
v -7.270953 8.692138 -8.500000
v -7.459998 8.089608 -8.500000
v -5.000000 10.055839 -8.788880
v -5.000000 9.839740 -8.961213
v -5.457485 9.590474 -9.000000
v -6.469990 8.981666 -9.000000
v -7.189839 7.648700 -8.958313
v -7.458313 7.648700 -8.689839
v -5.510212 9.850833 -8.921433
v -5.832234 9.960677 -8.688821
v -5.989301 9.649905 -8.936698
v -6.300377 9.621928 -8.837352
v -6.425724 9.616071 -8.750262
v -5.293613 9.763986 -5.207273
v -5.984188 9.642470 -5.363841
v -6.361455 9.417987 -5.385607
v -6.751441 9.186446 -5.607923
v -7.308057 8.522401 -6.119983
v -5.683933 9.772164 -5.381893
v -7.175098 8.660976 -5.816709
v -6.202864 9.655614 -5.630676
v -6.561421 9.448781 -5.751875
v -7.017237 9.054299 -6.079633
v -6.801782 9.243398 -5.831236
v -5.945082 9.788732 -5.626122
v -5.349925 9.909103 -5.502091
v -6.245930 9.527017 -8.926784
v -6.276568 -16.245925 -9.000000
v 7.245960 -3.051143 -8.933984
v -4.530535 -18.396932 -8.630856
v 2.500000 -18.780112 -8.752911
v 5.490145 -17.835199 -8.624555
v 6.749010 -2.468200 -6.327902
v 6.553784 9.360553 -5.556951
v 6.083938 9.062707 -4.752265
v 5.555583 8.211190 -4.131849
v 6.690172 8.793929 -5.065836
v 6.050764 7.874168 -4.246225
v 6.843958 8.927848 -5.414165
v 6.508577 8.619002 -4.761867
v 5.676747 7.940995 -4.113878
v 6.286903 8.508109 -4.541600
v 5.910644 8.158162 -4.232742
v 6.894957 9.236451 -6.159337
v 6.848995 9.113174 -5.687207
v 6.432990 8.992528 -4.959572
v 6.071505 -10.166020 -4.243708
v 5.315340 -10.166020 -4.024010
v 7.442095 -13.851300 -5.981937
v 7.256290 -13.851300 -5.428495
v 6.675425 -13.851300 -4.645561
v 6.155635 -13.851300 -4.287654
v 5.564939 -13.851300 -4.065491
v 5.000000 -13.851300 -4.000000
v 5.807298 -4.616392 -4.618822
v 6.645269 -4.962659 -4.983687
v 5.393911 -4.813473 -4.402724
v 6.750406 -5.280307 -4.944636
v 6.035751 -4.921474 -4.567279
v 5.747927 -5.188638 -4.339058
v 6.926304 -5.459258 -5.085514
v 6.035574 -5.468289 -4.368399
v 6.741987 -5.676290 -4.814296
v 7.425238 -5.840157 -6.015574
v 6.966299 -5.939077 -5.009655
v 6.141991 -5.953731 -4.317875
v 6.373525 -5.700437 -4.503354
v 5.808335 -5.981090 -4.169703
v 5.000000 -6.082370 -4.020687
v 5.000000 -5.416720 -4.146385
v 5.000000 -4.533063 -4.508720
v 7.500000 -6.159451 -6.537148
v 7.463997 -6.480740 -6.090504
v 7.331129 -6.480740 -5.602887
v 7.121611 -6.480740 -5.177590
v 6.731432 -6.480740 -4.701567
v 6.128346 -6.480740 -4.271590
v 5.000000 -6.480740 -4.000000
v 6.373966 3.512633 -5.590733
v 7.437782 4.411153 -6.853649
v 6.569496 3.234617 -5.874984
v 5.725446 3.343291 -5.331025
v 6.128134 2.724888 -5.775170
v 6.776760 2.979943 -6.187073
v 7.214828 2.679685 -6.924853
v 7.027164 2.336876 -6.711154
v 6.337309 2.086099 -6.108019
v 5.451981 1.221467 -5.942136
v 6.891698 1.844728 -6.659279
v 6.577321 9.583131 -8.500000
v 5.407816 -17.688590 -8.885017
v 2.500000 -18.831003 -8.638200
v -4.307757 -18.300212 -8.893128
v 7.368364 -2.266123 -8.833999
v -6.841519 -14.977469 -9.000000
v -6.674498 9.260753 -8.876290
v 6.337673 8.239059 -4.476303
v 5.422997 -17.782745 -8.794597
v 2.500000 -18.851300 -8.500000
v -4.347440 -18.103701 -8.975782
v 7.426815 -8.317663 -8.757080
v -7.000000 -13.851300 -9.000000
v -6.631811 9.409904 -8.794597
v 6.256634 7.965394 -4.368344
v 5.359342 -17.555099 -8.963638
v 0.000000 -18.448741 -8.989812
v -4.766582 -18.259615 -8.697516
v 7.455849 3.244186 -8.703991
v 7.465094 7.648700 -8.677571
v -6.709792 9.402862 -8.709785
v 7.079659 8.827960 -5.784379
v 5.167452 -18.027061 -8.696916
v 0.187500 -18.683949 -8.872234
v -4.691756 -18.236406 -8.788880
v 7.465944 -8.527624 -8.673554
v 7.397799 7.648700 -8.799333
v -6.653538 9.014981 -8.974966
v 6.533279 8.039596 -4.569187
v 4.950920 -18.126825 -8.752911
v 0.171875 -18.780782 -8.751292
v -4.742659 -18.116863 -8.881575
v -7.228528 -13.851300 -8.942288
v 7.288879 7.648700 -8.907139
v -6.903660 8.959392 -8.885035
v 6.989556 8.500642 -5.261272
v 5.028927 -17.953704 -8.880346
v 0.500000 -18.842286 -8.590531
v -5.238238 -17.989733 -8.677230
v -7.332649 -13.851300 -8.872234
v 7.216942 7.648700 -8.950484
v -6.951451 9.052871 -8.785114
v 6.822151 8.034341 -4.840657
v 4.806654 -17.907727 -8.967102
v 7.478333 -14.307216 -8.500000
v -5.210779 -17.907910 -8.821707
v -7.407139 -13.851300 -8.788880
v 7.138201 7.648700 -8.979703
v -6.948754 9.156978 -8.677831
v 7.184853 8.375400 -5.539079
v 4.593048 -18.290717 -8.782256
v 7.422661 -14.714137 -8.500000
v -4.817467 -17.959601 -8.946032
v -7.461213 -13.851300 -8.691041
v 7.326405 8.049760 -8.840489
v -7.300832 8.567924 -8.631465
v 7.315281 7.958030 -5.615581
v 4.598680 -18.355377 -8.654518
v 7.298759 -15.247358 -8.500000
v -5.600074 -17.647028 -8.789677
v -7.500000 -13.851300 -8.500000
v 7.398525 8.094344 -8.728660
v -7.168521 8.781791 -8.716260
v 0.000000 -4.568841 -4.491039
v 4.598701 -18.147504 -8.910181
v 7.135906 -15.722139 -8.500000
v -5.278865 -17.753829 -8.903083
v -7.492160 -4.724998 -8.583621
v 7.219900 8.163634 -8.913223
v -7.121543 8.640508 -8.859725
v 0.000000 -5.340013 -4.168391
v 4.248984 -18.425087 -8.799823
v 6.923611 -16.176968 -8.500000
v -5.099323 -17.627593 -8.990986
v -7.461213 -3.605206 -8.691041
v 7.229567 8.473304 -8.818552
v -6.940235 8.702466 -8.951750
v 0.000000 3.625526 -5.056427
v 4.232526 -18.200401 -8.963895
v 6.693092 -16.570684 -8.500000
v -5.718736 -17.647935 -8.638200
v -7.407139 -4.286413 -8.788880
v 7.045330 8.362731 -8.968746
v -6.999505 8.330001 -8.982817
v 0.000000 1.886674 -5.754480
v 4.144262 -18.530732 -8.687674
v 6.400359 -16.978416 -8.500000
v -6.020594 -17.371894 -8.638200
v -7.313378 -8.224347 -8.887352
v 7.033352 8.569884 -8.937932
v -7.273118 8.490169 -8.759046
v 0.000000 0.336600 -5.991602
v 4.008821 -18.444604 -8.867564
v 6.129402 -17.287069 -8.500000
v -5.895747 -17.405978 -8.770896
v -7.261764 0.178757 -8.924816
v 7.201754 8.642692 -8.768247
v -7.145180 8.357989 -8.922878
v 0.000000 -1.228494 -5.894446
v 3.742384 -18.604561 -8.777030
v 5.731855 -17.663410 -8.500000
v -5.876389 -17.273832 -8.889687
v -7.124380 -4.799651 -8.982051
v 6.783199 8.763522 -8.984713
v -7.307125 8.184077 -8.832649
v 0.000000 -3.152242 -5.300764
v 3.771130 -18.414300 -8.936923
v 5.334066 -17.969519 -8.500000
v -5.591991 -17.374507 -8.957823
v -2.500000 -18.502450 -8.974339
v 7.212015 8.742333 -8.661642
v -7.394853 8.077931 -8.741479
v 0.000000 6.082687 -4.023856
v 3.559748 -18.713630 -8.638070
v 4.803980 -18.282782 -8.500000
v -6.181179 -17.090086 -8.787064
v -2.500000 -18.650633 -8.897799
v 7.053284 8.746892 -8.872232
v -7.437469 8.085586 -8.634745
v 0.416667 5.188317 -4.217704
v 3.309543 -18.732872 -8.716260
v 4.327901 -18.502735 -8.500000
v -6.334882 -17.013310 -8.657886
v -2.500000 -18.780112 -8.752911
v 6.643492 9.114402 -8.954154
v -7.233997 8.005275 -8.921366
v 7.500000 7.648700 -8.500000
v 3.350579 -18.642904 -8.831603
v 3.852581 -18.664010 -8.500000
v -6.202830 -16.875661 -8.911195
v -2.500000 -18.831003 -8.638200
v 6.823497 9.108169 -8.866950
v 5.000000 10.109914 -8.691041
v 7.434509 8.213637 -8.500000
v 3.220253 -18.591599 -8.901055
v 3.317549 -18.779782 -8.500000
v -6.170059 -16.726619 -8.968375
v -2.500000 -18.851300 -8.500000
v 6.878635 9.131526 -8.799823
v 5.000000 10.046498 -8.799333
v 7.153740 8.916534 -8.500000
v 3.408751 -18.426064 -8.967776
v 7.351320 -14.633230 -8.769817
v -6.474312 -16.721874 -8.787064
v -3.318095 -18.783072 -8.500000
v 7.033550 9.007701 -8.719327
v 5.000000 9.937579 -8.907139
v 6.811982 9.371118 -8.500000
v 7.181559 -14.600760 -8.932849
v -6.699047 -16.520401 -8.638200
v -3.851679 -18.660800 -8.500000
v 6.824192 9.295775 -8.683705
v 5.000000 9.839740 -8.961213
v 7.204306 -14.967504 -8.866118
v -6.700072 -16.414422 -8.765180
v -4.412529 -18.468583 -8.500000
v 6.623714 9.271155 -8.896826
v 5.000000 9.648700 -9.000000
v 6.014030 9.931399 -8.500000
v 7.270012 -15.215550 -8.679494
v -6.604955 -16.318299 -8.902469
v -4.906054 -18.231708 -8.500000
v 6.334372 9.334340 -8.974595
v 0.694445 9.739232 -8.990986
v 5.533770 10.088796 -8.500000
v 7.128807 -15.383089 -8.826933
v -6.987308 -16.005079 -8.638200
v -5.444968 -17.889151 -8.500000
v 6.511871 9.478561 -8.825887
v -0.347221 9.877227 -8.942288
v -5.000000 10.148700 -8.500000
v 7.011433 -15.378790 -8.922031
v -6.869403 -15.997789 -8.832649
v -5.901212 -17.510546 -8.500000
v 6.523312 9.591292 -8.654648
v 0.651041 9.980487 -8.869980
v -5.346914 10.122287 -8.500000
v 6.972683 -15.042818 -8.979026
v -6.607309 -16.071169 -8.966506
v -6.397757 -16.976330 -8.500000
v 6.155280 9.542893 -8.943852
v 3.263889 10.091380 -8.730659
v -5.837742 10.001819 -8.500000
v 7.063025 -15.760074 -8.712681
v -6.995484 -15.883985 -8.741479
v -6.811228 -16.375510 -8.500000
v 6.292942 9.608924 -8.852256
v -0.937500 10.069707 -8.766628
v -6.400814 9.716716 -8.500000
v 6.954887 -15.780617 -8.846938
v -7.180018 -15.483781 -8.689839
v -7.117283 -15.763829 -8.500000
v 5.667407 9.723695 -8.961341
v -0.069445 10.142188 -8.574055
v -6.767200 9.415900 -8.500000
v 6.653205 -15.975024 -8.968632
v -6.932128 -15.605442 -8.917975
v -7.260101 -15.378749 -8.500000
v 5.908430 9.765594 -8.893743
v 5.577873 9.553750 -9.000000
v -7.153739 8.916534 -8.500000
v 6.764463 -16.038518 -8.898908
v -7.103662 -15.375441 -8.852442
v -7.387864 -14.893346 -8.500000
v 6.048290 9.785785 -8.821217
v 6.176960 9.247861 -9.000000
v -7.373575 8.426591 -8.500000
v 6.763346 -16.373974 -8.694955
v -6.836937 -15.407438 -8.984815
v -7.472511 -14.352504 -8.500000
v 6.171205 9.792527 -8.716499
v 6.745661 8.589494 -9.000000
v -5.000000 10.113795 -8.677571
v 6.552961 -16.478291 -8.867281
v -7.325809 -14.996327 -8.680468
v -3.044442 -18.800661 -8.631291
v 5.887210 9.889794 -8.776897
v 7.000000 7.648700 -9.000000
v -5.000000 9.969916 -8.880346
v 6.337175 -16.491868 -8.971728
v -7.233869 -15.135206 -8.788880
v -3.135859 -18.624370 -8.885017
v 5.689002 10.001132 -8.706117
v 7.000000 -13.851300 -9.000000
v -5.000000 9.648700 -9.000000
v 6.388966 -16.854184 -8.771105
v -7.079031 -15.025926 -8.943704
v -3.159994 -18.723303 -8.767829
v 5.579214 9.902593 -8.873677
v 6.664613 -15.529687 -9.000000
v -5.895362 9.427981 -9.000000
v 6.254190 -16.889367 -8.872234
v -7.363287 -14.510267 -8.781838
v -3.586329 -18.573467 -8.857112
v 5.315981 10.007615 -8.818849
v 6.191464 -16.406248 -9.000000
v -7.000000 7.648700 -9.000000
v 6.107986 -16.887596 -8.947373
v -7.228692 -14.703149 -8.889687
v -3.370170 -18.385130 -8.984171
v 5.426373 10.052146 -8.724724
v 4.922527 -17.621203 -9.000000
v -7.361783 7.648700 -8.841990
v 6.111143 -17.269998 -8.644546
v -7.086212 -14.595152 -8.974339
v -3.664969 -18.664505 -8.699682
v 7.461212 -13.851300 -8.691041
v 3.731847 -18.171904 -9.000000
v -5.396605 10.037227 -8.761942
v 5.958117 -17.324930 -8.790586
v -7.431893 -14.531126 -8.631465
v -3.886490 -18.458408 -8.887659
v 7.407139 -13.851300 -8.788880
v 2.500000 -18.351300 -9.000000
v -5.696044 9.869399 -8.873121
v 5.852852 -16.975180 -8.990839
v 2.500000 -18.489500 -8.979703
v -3.652503 -18.433082 -8.943350
v 7.332649 -13.851300 -8.872234
v -2.500000 -18.351300 -9.000000
v -5.926051 9.865325 -8.789279
v 5.763600 -17.310807 -8.923034
v 2.500000 -18.627911 -8.913920
v -4.168217 -18.530952 -8.664361
v 7.228527 -13.851300 -8.942288
v -4.414905 -17.912599 -9.000000
v -6.223368 9.788009 -8.678090
v 5.683987 -17.641966 -8.710126
v 2.500000 -18.704853 -8.853553
v -4.083890 -18.494062 -8.788880
v 7.097092 -4.351734 -8.988279
v -5.389962 -17.288007 -9.000000
v -6.426203 9.296268 -8.960856
v 4.957520 -16.989901 -4.494947
v 4.951253 -15.145574 -4.016827
v -5.315745 -13.851300 -4.020828
v -6.155752 -14.727876 -4.346261
v -5.753869 -17.619087 -6.184255
v -3.524898 -17.145834 -4.190859
v -6.184409 -4.396126 -4.944201
v -5.189772 4.231088 -4.702275
v -7.404566 3.366223 -7.178989
v -6.427254 -1.791853 -6.241882
v -7.500000 7.648700 -6.500000
v -7.459998 8.089608 -6.500000
v -7.024686 8.945281 -5.830456
v 7.473585 5.439925 -6.474288
v 6.182325 9.331508 -5.089735
v 5.699467 9.208503 -4.682255
v 6.620755 9.500346 -6.087079
v 5.329610 8.111711 -4.068578
v 6.056461 9.236926 -4.890154
v 5.822282 9.483218 -5.019581
v 6.200592 9.790221 -6.038771
v 6.026704 8.675405 -4.468456
v 5.461901 8.567916 -4.226832
v 5.863613 9.771911 -5.510972
v 5.409496 10.112699 -6.500000
v 5.997673 9.784164 -5.674861
v 5.214235 7.878451 -4.022063
v 5.348738 8.959563 -4.404921
v 5.687519 10.051471 -6.500000
v 5.380746 10.079539 -6.085914
v 5.895472 8.962932 -4.574708
v 5.487861 9.346482 -4.737557
v 6.267832 9.802440 -6.500000
v 5.955851 9.956367 -6.500000
v 5.684790 8.791354 -4.391829
v 5.918741 9.934688 -6.111361
v 6.743704 9.437129 -6.500000
v 6.479218 9.663123 -6.500000
v 6.580574 9.462291 -5.850127
v 5.774445 9.953834 -5.933965
v 7.150974 8.914905 -6.500000
v 6.936917 9.228049 -6.500000
v 6.286962 9.485885 -5.404038
v 5.584489 9.744950 -5.278786
v 7.402771 8.336219 -6.500000
v 7.320887 8.575776 -6.500000
v 5.586184 9.005447 -4.486911
v 5.506176 9.909881 -5.572981
v -5.316113 10.111564 -6.256165
v 7.468403 8.010915 -6.500000
v 6.223055 9.653524 -5.655645
v 5.432178 9.639497 -5.059038
v -5.937947 9.939134 -6.173844
v -6.142027 9.843217 -6.152665
v 6.030300 9.621451 -5.368609
v 5.288879 9.537711 -4.893302
v -6.774290 9.372605 -6.165818
v -5.495612 10.036969 -5.967236
v 6.283552 8.778932 -4.680192
v 5.499056 10.017745 -5.891590
v -6.053962 9.820445 -5.861982
v -6.608260 9.493991 -6.011220
v 5.764400 8.396218 -4.245247
v 6.068750 8.351686 -4.356671
v -6.354284 9.663924 -5.917093
v -5.717751 9.977550 -5.966295
v 5.796530 -1.880834 -5.895511
v 7.014986 -2.488019 -6.648848
v 6.190153 -2.779078 -5.790653
v 6.002906 -3.301958 -5.466768
v 6.766066 -3.271767 -6.054370
v 7.202810 -3.400495 -6.631226
v 5.448539 -3.751553 -5.038107
v 6.775881 -4.045865 -5.681318
v 7.413446 -4.196118 -6.849207
v 5.000000 -3.030900 -5.357891
v 5.000000 -1.521706 -5.839923
v 5.000000 -0.218970 -5.996003
v 5.000000 0.710546 -5.964057
v 5.000000 2.158099 -5.678626
v 5.000000 3.180967 -5.291131
v 5.000000 3.857701 -4.931807
v 7.500000 0.000000 -8.500000
v 7.500000 -5.635427 -6.760870
v 7.353117 -5.163323 -6.068822
v 7.153740 -4.920949 -5.713530
v 6.697815 -4.602990 -5.247439
v 6.155635 -4.388676 -4.933280
v 5.595383 -4.268386 -4.756950
v 5.000000 -4.226570 -4.695652
v 5.595383 6.089759 -4.094506
v 6.413151 6.048232 -4.470007
v 6.458913 5.671439 -4.569509
v 5.852724 5.530784 -4.271699
v 6.793182 5.862359 -4.824405
v 5.564939 5.434142 -4.209480
v 7.361538 5.752071 -5.805400
v 6.387169 5.325645 -4.617709
v 6.946922 5.607137 -5.065196
v 5.331451 4.864043 -4.370579
v 6.036068 5.147176 -4.474996
v 7.425797 5.713031 -6.052923
v 5.941463 4.656043 -4.651359
v 6.538240 4.915504 -4.911047
v 7.289310 5.327392 -5.783986
v 5.000000 4.890502 -4.332081
v 5.000000 5.454854 -4.134617
v 7.500000 5.635427 -6.760870
v 3.427121 -18.565909 -5.543833
v -5.377180 9.433742 -4.795934
v -5.000000 4.890502 -4.332081
v -5.385775 -1.938043 -5.774110
v -6.849132 2.955772 -6.272813
v -5.564214 4.265238 -4.752335
v -6.577321 -4.545292 -5.162861
v -3.664785 -18.618082 -5.843126
v -5.761216 -17.394308 -5.573519
v -7.178433 -15.543366 -6.184255
v -5.564939 -13.851300 -4.065491
v 7.189358 -15.475251 -6.098458
v 3.892952 -16.213722 -4.014423
v 6.375290 -10.166020 -4.413240
v -5.639718 9.508632 -4.968125
v -5.000000 5.340013 -4.168391
v -7.378696 -2.542882 -7.373524
v -6.090750 2.372287 -5.878287
v -5.927076 4.327508 -4.843615
v -6.854439 -4.691254 -5.376823
v -3.487248 -17.482752 -4.349026
v -5.511229 -17.503906 -5.385687
v -7.096178 -15.585000 -5.858549
v -5.808336 -13.851300 -4.135136
v 5.523370 -15.178389 -4.135136
v 5.647486 -17.331645 -5.309122
v 6.936917 -10.166020 -4.920652
v -6.489015 8.979360 -5.001838
v -5.000000 5.924354 -4.042905
v -7.097809 -2.062766 -6.888683
v -7.388173 2.158330 -7.505090
v -6.184409 4.396125 -4.944201
v -7.031850 -4.816725 -5.560749
v -3.205917 -16.957262 -4.097230
v -5.449214 -17.186821 -4.946698
v -6.934429 -15.640832 -5.485969
v -6.128346 -13.851300 -4.271590
v 7.004601 -15.353467 -5.417705
v 4.939497 -16.701636 -4.338229
v 7.335484 -10.012467 -5.618110
v -6.763087 8.828666 -5.188350
v -6.615115 6.099000 -4.617905
v -6.042768 -1.925506 -5.984361
v -6.698092 1.862913 -6.445442
v -6.479218 4.500213 -5.096780
v -7.215189 -4.983340 -5.804988
v -3.381998 -18.751707 -6.199961
v -5.282913 -16.958501 -4.645561
v -6.726074 -15.369672 -4.995750
v -6.400814 -13.851300 -4.431983
v 6.905975 -15.089393 -5.111948
v 4.540714 -16.409988 -4.126425
v 2.500000 -16.351300 -4.000000
v -6.921434 8.876792 -5.487216
v -7.409928 6.069800 -5.887299
v -5.463779 -1.285195 -5.933938
v -6.452778 2.294164 -6.128608
v -6.697815 4.602988 -5.247439
v -7.331129 -5.129866 -6.019777
v -3.288789 -18.606404 -5.572924
v -5.536099 -17.746431 -5.973861
v -6.321117 -15.233753 -4.554954
v -6.764932 -13.851300 -4.735069
v 6.499428 -15.133447 -4.673564
v 5.960821 -17.375664 -5.966230
v 2.500000 -16.916239 -4.065491
v -7.390494 8.190579 -6.030211
v -7.215189 5.957118 -5.402532
v -6.857656 -2.778217 -6.347065
v -5.595212 2.083357 -5.777311
v -6.936917 4.745397 -5.456191
v -7.434509 -5.317059 -6.294181
v -3.306794 -18.456231 -5.273879
v -5.301652 -17.480082 -5.124710
v -6.804703 -15.611537 -5.232168
v -7.084081 -13.851300 -5.126475
v 5.957272 -15.139518 -4.306198
v 5.490012 -17.144638 -4.940808
v 2.500000 -17.508420 -4.284811
v -7.230545 8.303784 -5.589959
v -7.086760 6.080798 -5.155551
v -6.235090 -2.468661 -5.928522
v -7.473586 0.891505 -8.090449
v -7.136313 4.906049 -5.691688
v -7.479172 -5.457491 -6.500037
v -3.375408 -18.057968 -4.767492
v -5.326895 -17.802254 -5.676683
v -5.802725 -15.037072 -4.215826
v -7.317909 -13.851300 -5.574113
v 7.297981 -15.012414 -5.950646
v 5.319662 -16.928331 -4.649405
v 2.500000 -18.139728 -4.756297
v -7.046169 8.548942 -5.390481
v -5.610806 6.022588 -4.106783
v -5.425040 -2.545957 -5.592228
v -7.276826 1.495728 -7.339930
v -7.270953 5.047404 -5.898900
v -7.500000 -5.635427 -6.760870
v -3.519146 -16.605996 -4.042795
v -5.000083 -17.278850 -4.711572
v -5.109285 -14.801111 -4.018423
v -7.440095 -13.851300 -5.966230
v 7.170300 -15.221544 -5.710632
v 5.960514 -17.264177 -5.688378
v 2.500000 -18.454123 -5.151999
v -6.221399 9.049243 -4.832976
v -6.915689 5.797942 -4.975393
v -5.747928 -2.287373 -5.762600
v -7.172086 2.681895 -6.836412
v -7.392529 5.231093 -6.168166
v -5.000000 -6.042850 -4.026244
v -3.191241 -17.915556 -4.604322
v -4.799708 -16.831151 -4.346261
v -6.964170 -15.981485 -6.013145
v -7.500000 -13.851300 -6.500000
v 7.333702 -15.067915 -6.262948
v 5.737237 -17.000780 -5.027163
v 2.500000 -18.724875 -5.722109
v -5.817075 9.171077 -4.698732
v -6.650883 5.762347 -4.704228
v -6.541553 -2.588209 -6.104483
v -6.971302 2.278164 -6.646332
v -7.459998 5.386956 -6.396641
v -5.000000 -5.455671 -4.137695
v -3.140273 -17.722691 -4.449408
v -4.601334 -16.664541 -4.217301
v -6.509511 -15.643952 -4.872614
v -7.472511 -14.352504 -6.500000
v 7.037598 -14.830282 -5.219761
v 4.478418 -15.950354 -4.033208
v 2.500000 -18.851300 -6.500000
v -5.544510 9.238154 -4.653378
v -6.374866 5.631682 -4.521013
v -7.015854 -3.319151 -6.346289
v -5.347036 1.568559 -5.855530
v -7.500000 5.635427 -6.760870
v -5.000000 -4.854725 -4.349762
v -2.952269 -18.789804 -6.059092
v -5.130206 -17.787167 -5.385687
v -5.545898 -15.129256 -4.135136
v -7.398604 -14.848967 -6.500000
v 6.795241 -14.910876 -4.908381
v 6.201569 -17.168212 -6.153086
v 3.631166 -18.719311 -6.500000
v -7.393601 7.988978 -5.881591
v -5.837502 5.716947 -4.225685
v -7.229130 -3.223352 -6.758184
v -7.242351 2.255937 -7.105499
v -7.500000 2.588323 -8.155197
v -6.516521 -4.775934 -4.962882
v -3.091359 -18.714317 -5.812682
v -4.969191 -17.603887 -4.996699
v -5.946786 -15.429396 -4.364388
v -7.272455 -15.334792 -6.500000
v 6.279549 -14.803848 -4.431983
v 6.061543 -17.042132 -5.485653
v 4.538904 -18.415786 -6.500000
v -6.059460 8.889512 -4.613124
v -5.347036 5.771707 -4.093803
v -6.527320 -3.189051 -5.862700
v -6.100279 1.792096 -6.045788
v -7.500000 0.000000 -8.500000
v -6.141991 -4.726115 -4.721769
v -2.934337 -18.592819 -5.443199
v -4.272491 -16.189611 -4.040002
v -6.749941 -16.211370 -5.691665
v -7.081573 -15.847861 -6.500000
v 7.246201 -14.716267 -5.592097
v 5.981020 -16.941978 -5.238990
v 5.181770 -18.070277 -6.500000
v -6.587449 8.732175 -4.905842
v -6.266205 6.007674 -4.381076
v -5.889445 -2.862881 -5.609657
v -6.328171 0.966882 -6.319640
v -7.500000 -2.496091 -8.171874
v -5.747928 -4.727076 -4.537889
v -3.078441 -18.361153 -5.072746
v -5.081634 -18.081272 -6.043508
v -6.698955 -16.108029 -5.456563
v -6.903479 -16.217950 -6.500000
v 6.683886 -14.683326 -4.732800
v 5.061348 -16.303768 -4.232352
v 5.903482 -17.512989 -6.500000
v -7.268507 8.005729 -5.518798
v -7.104185 5.669566 -5.272464
v -5.502358 -3.302587 -5.292323
v -6.399931 1.625424 -6.261862
v -7.500000 -4.344664 -7.481213
v -5.315745 -4.577280 -4.506528
v -2.918405 -18.204283 -4.849117
v -5.051419 -17.988482 -5.692702
v -6.563579 -16.060434 -5.192083
v -6.718977 -16.533070 -6.500000
v 5.822708 -14.743522 -4.187922
v 6.102497 -16.685134 -5.126475
v 6.618219 -16.685367 -6.500000
v -6.808607 8.521138 -5.018414
v -5.686637 5.406467 -4.252817
v -6.095456 -3.380391 -5.479027
v -7.074620 1.333993 -7.003120
v -5.000000 -3.762978 -4.986756
v -6.579348 -5.146421 -4.834153
v -2.964667 -17.532095 -4.315536
v -4.694351 -17.560204 -4.778688
v -6.236553 -15.948818 -4.756878
v -6.397757 -16.976330 -6.500000
v 5.632758 -14.571648 -4.107472
v 5.806515 -16.680304 -4.824576
v 7.064486 -15.890203 -6.500000
v -6.446259 8.589435 -4.697268
v -6.100279 5.538982 -4.378832
v -7.069390 -3.867956 -6.182142
v -7.339869 0.527135 -7.610010
v -5.000000 -3.328322 -5.218579
v -6.375290 -5.154470 -4.671298
v -5.000000 -6.480740 -4.000000
v -4.869353 -17.022499 -4.476205
v -6.087062 -15.704576 -4.533701
v -5.901212 -17.510546 -6.500000
v 5.345098 -14.765686 -4.052747
v 5.365931 -16.432024 -4.406213
v 7.438040 -14.601039 -6.500000
v -5.713703 8.930019 -4.479607
v -7.320887 5.706336 -5.708227
v -7.276096 -3.971093 -6.536950
v -7.089437 0.479123 -7.112667
v -5.000000 -2.573460 -5.540409
v -5.927076 -5.067897 -4.454015
v -5.564214 -6.480740 -4.068616
v -4.712814 -17.924642 -5.205727
v -5.338566 -15.066170 -4.072649
v -5.482582 -17.863265 -6.500000
v 7.399372 -14.617841 -6.075101
v 5.700873 -16.491157 -4.624942
v 3.042128 -18.778329 -6.059375
v -5.356092 9.083428 -4.487799
v -6.799623 5.482513 -4.926449
v -6.726372 -3.911891 -5.695320
v -6.010750 1.056470 -6.139075
v -5.000000 -1.788992 -5.781245
v -5.362620 -4.892705 -4.361759
v -6.014031 -6.480740 -4.217301
v -4.604679 -17.371398 -4.583094
v -6.660938 -16.496178 -5.935061
v -5.024210 -18.162528 -6.500000
v 6.515690 -14.508233 -4.559019
v 4.994105 -15.993466 -4.132298
v 2.972654 -18.540566 -5.342880
v -7.090651 8.215900 -5.257881
v -6.529283 5.323817 -4.726198
v -5.823039 -3.830318 -5.108353
v -5.678806 1.290071 -5.983247
v -5.000000 -1.253124 -5.892341
v -6.767200 -5.152611 -5.018486
v -6.373525 -6.480740 -4.415919
v -4.332412 -16.463390 -4.102351
v -6.336499 -16.291514 -5.072746
v -4.496561 -18.432873 -6.500000
v 6.135728 -14.431883 -4.300174
v 6.521133 -16.756043 -6.082590
v 3.481915 -18.672954 -5.889395
v -6.926654 8.237359 -5.024517
v -5.268546 5.147025 -4.250096
v -7.406985 -4.410968 -6.717062
v -6.738659 0.092650 -6.700860
v -5.000000 -0.656165 -5.970439
v -6.955660 -5.327267 -5.176370
v -6.675424 -6.480740 -4.645561
v -4.743646 -18.289447 -6.168873
v -5.668340 -15.885905 -4.346261
v -3.983491 -18.623754 -6.500000
v 7.403694 -14.300104 -5.904779
v 6.395633 -16.761501 -5.699516
v 3.065550 -17.823447 -4.514958
v -6.736944 8.242564 -4.807970
v -6.715162 5.126124 -4.977450
v -7.500000 6.480741 -6.500000
v -6.855750 1.331226 -6.714868
v -5.000000 -0.164216 -5.996003
v -7.176432 -5.434635 -5.485512
v -6.915689 -6.480740 -4.897155
v -4.683440 -18.098117 -5.471266
v -5.426709 -15.626256 -4.182091
v -3.452623 -18.757376 -6.500000
v 7.124876 -14.327629 -5.233795
v 6.366135 -16.630581 -5.442529
v -6.196483 8.490645 -4.478903
v -5.610806 5.084521 -4.336746
v -7.479172 6.480741 -6.184255
v -5.716922 0.159801 -6.102762
v -5.000000 0.437755 -5.986413
v -7.320887 -5.528574 -5.771943
v -7.086760 -6.480740 -5.124710
v -4.491103 -17.858068 -4.970717
v -6.453924 -16.653161 -5.647276
v -2.955916 -18.829633 -6.500000
v 6.878355 -14.423973 -4.899570
v 6.234395 -16.321541 -4.977589
v 3.615373 -18.701808 -6.207814
v -5.553133 8.750915 -4.329718
v -5.977905 5.023305 -4.494648
v -7.425798 6.480741 -5.904617
v -7.346785 -0.622315 -7.617547
v -5.000000 1.009189 -5.926599
v -6.673274 -5.508819 -4.793995
v -7.215189 -6.480740 -5.342880
v -4.341331 -17.134236 -4.346261
v -6.137579 -16.455056 -4.970717
v -4.051621 -15.748340 -4.000000
v 7.291349 -14.312104 -5.558220
v 5.504128 -15.918220 -4.282217
v 3.695587 -18.344012 -5.233795
v -7.116342 7.932742 -5.205988
v -6.219299 5.222327 -4.542738
v -7.320887 6.480741 -5.572924
v -6.566586 0.653871 -6.522444
v -5.000000 1.736117 -5.795471
v -5.626229 -5.158806 -4.312673
v -7.361829 -6.480740 -5.692702
v -4.162887 -16.943709 -4.215826
v -5.796016 -16.187346 -4.534335
v -7.454094 -14.282305 -6.153086
v -2.500000 -16.351300 -4.000000
v 6.716202 -16.345906 -5.813363
v 3.747484 -17.832044 -4.647941
v -5.839839 8.605838 -4.350403
v -7.031215 5.298728 -5.298606
v -7.199125 6.480741 -5.315591
v -6.210743 0.291627 -6.310437
v -5.000000 2.315362 -5.631348
v -6.157120 -5.210229 -4.510972
v -7.459998 -6.480740 -6.059092
v -4.664246 -18.230180 -5.767294
v -6.438981 -16.892974 -6.184255
v -7.084829 -14.249694 -5.151999
v -2.500000 -16.792208 -4.040002
v 6.596912 -16.300733 -5.463933
v 3.339202 -17.320095 -4.243708
v -6.500334 8.248012 -4.596094
v -7.215189 5.406993 -5.572968
v -7.014424 6.480741 -5.020782
v -5.617815 0.654213 -6.051362
v -5.000000 2.930460 -5.401408
v -7.402771 -6.063425 -5.858058
v -7.487173 -6.480740 -6.247079
v -4.305655 -17.612376 -4.647941
v -5.923168 -16.446173 -4.767492
v -7.268088 -14.387265 -5.530041
v -2.500000 -17.038819 -4.097230
v 6.061769 -16.173075 -4.721605
v 4.170932 -18.471919 -5.858549
v -5.397856 8.550693 -4.206153
v -7.409928 5.662604 -6.007944
v -6.854439 6.480741 -4.824576
v -7.191794 -0.410572 -7.285610
v -5.000000 3.523080 -5.118530
v -7.215189 -5.812741 -5.430357
v -7.500000 -6.480740 -6.500000
v -4.309536 -18.109492 -5.192083
v -6.319818 -16.971561 -5.935061
v -7.384645 -14.423329 -5.889194
v -2.500000 -17.365331 -4.217301
v 5.332038 -15.613762 -4.146882
v 4.179718 -18.364426 -5.573519
v -6.925757 7.967481 -4.941500
v -6.466456 4.880992 -4.862715
v -6.577321 6.480741 -4.565569
v -6.922407 -0.247453 -6.899565
v -5.863344 3.833641 -5.125768
v -5.315745 -5.461008 -4.157806
v -5.315340 -10.166020 -4.024010
v -4.286494 -18.458739 -5.981654
v -6.173240 -16.966139 -5.574113
v -6.732062 -14.375523 -4.732800
v -2.500000 -17.724825 -4.415919
v 6.436592 -16.266840 -5.184836
v 4.073385 -18.080460 -5.020782
v -5.782880 8.389106 -4.249424
v -5.852724 4.683112 -4.599535
v -6.239765 6.480741 -4.331600
v -6.380789 -0.574442 -6.394165
v -7.349416 3.619789 -6.891832
v -6.709041 -5.959651 -4.725461
v -5.687520 -10.166020 -4.097230
v -4.040995 -17.430536 -4.430666
v -6.204708 -16.697609 -5.273490
v -6.518699 -14.367931 -4.544340
v -2.500000 -18.026724 -4.645561
v 6.378550 -15.959019 -4.897155
v 3.789961 -17.022962 -4.179113
v -6.623274 7.951100 -4.628910
v -5.362620 4.668696 -4.467161
v -5.837742 6.480741 -4.146882
v -7.428979 -1.337546 -7.810241
v -6.554070 3.947370 -5.506408
v -5.564939 -5.624843 -4.163726
v -6.014031 -10.166020 -4.217301
v -3.867464 -17.239850 -4.284811
v -5.308969 -16.053078 -4.243708
v -7.220205 -14.812634 -5.574113
v -2.500000 -18.266989 -4.897155
v 6.032629 -15.898203 -4.568085
v 4.518093 -17.958951 -5.111948
v -6.327739 8.084931 -4.429963
v -5.580161 4.636750 -4.533511
v -5.440342 6.480741 -4.043160
v -6.963447 -0.952253 -6.902693
v -7.246083 3.922481 -6.497340
v -5.882131 -5.599062 -4.269656
v -6.348001 -10.166020 -4.397176
v -4.184733 -18.350223 -5.544428
v -5.866687 -16.896193 -5.059984
v -7.084483 -14.633162 -5.232168
v -2.500000 -18.487613 -5.205727
v 5.801125 -15.941816 -4.440366
v 4.049550 -17.456797 -4.449408
v -6.125373 8.214904 -4.344947
v -6.233138 4.788959 -4.742552
v -5.000000 6.480741 -4.000000
v -6.614870 -1.147390 -6.506478
v -5.690824 3.327783 -5.330602
v -6.157120 -5.672553 -4.377570
v -6.579348 -10.166020 -4.563083
v -3.954765 -18.180910 -5.098270
v -6.061888 -17.316774 -6.137379
v -6.914104 -14.429754 -4.945684
v -2.500000 -18.633999 -5.485969
v 5.011633 -15.486963 -4.052747
v 4.681294 -18.291108 -6.012500
v -5.751921 8.136287 -4.171552
v -5.409496 10.112699 -6.500000
v -5.471754 7.648700 -4.047160
v -5.925887 -0.969275 -6.119158
v -7.068752 4.109938 -6.049759
v -6.348850 -5.609097 -4.504608
v -6.832047 -10.166020 -4.802185
v -4.007792 -18.020230 -4.920652
v -5.620803 -16.754580 -4.735069
v -7.374944 -14.844149 -6.184255
v -2.500000 -18.761228 -5.843327
v 6.893120 -16.084497 -5.919839
v 4.821213 -18.170067 -5.827703
v -5.383834 8.219480 -4.100280
v -5.777891 10.022277 -6.500000
v -5.837742 7.648700 -4.146882
v -6.002976 -0.227746 -6.206551
v -6.360322 3.163791 -5.742443
v -6.916298 -5.927898 -4.952228
v -7.068017 -10.166020 -5.099186
v -3.950118 -17.860763 -4.732800
v -4.883571 -15.491453 -4.034416
v -6.748676 -14.798527 -4.824576
v -2.500000 -18.851300 -6.500000
v 5.714570 -15.468241 -4.256929
v 4.751819 -17.994681 -5.349896
v -6.060516 7.917813 -4.254970
v -6.155635 9.861047 -6.500000
v -6.184409 7.648700 -4.300875
v -6.219299 -1.221170 -6.220930
v -7.473586 4.380231 -7.085758
v -7.078047 -5.931506 -5.171591
v -7.256292 -10.166020 -5.428495
v -3.833123 -17.703483 -4.563083
v -5.907260 -17.353495 -5.767294
v -5.978127 -14.511528 -4.229047
v 0.000000 -17.231760 -4.168259
v 6.283453 -15.667962 -4.666790
v 4.156497 -17.059741 -4.264260
v -5.633968 7.945289 -4.101599
v -6.503759 9.643113 -6.500000
v -6.479218 7.648700 -4.485576
v -5.679065 -0.627141 -6.068453
v -7.047755 2.945377 -6.543765
v -7.320887 -6.041783 -5.616857
v -7.399687 -10.166020 -5.813363
v -3.769416 -16.835589 -4.116183
v -5.724432 -17.225701 -5.260235
v -7.268250 -15.097884 -5.919839
v 0.000000 -17.814975 -4.480130
v 7.069675 -15.695467 -5.920202
v 4.910778 -17.800335 -5.192083
v -5.954899 9.311172 -4.901856
v -6.852058 9.321975 -6.500000
v -6.764932 7.648700 -4.735069
v -7.301793 -2.113293 -7.269394
v -6.768839 3.551906 -5.928954
v -5.362620 -6.026134 -4.056460
v -7.481576 -10.166020 -6.215829
v -3.910077 -18.616616 -6.137379
v -5.394461 -16.507080 -4.454423
v -6.364344 -14.786515 -4.485576
v 0.000000 -18.183348 -4.802185
v 6.910403 -15.797343 -5.580275
v 4.099548 -16.604688 -4.100313
v -6.003123 9.458795 -5.104684
v -7.086760 9.023990 -6.500000
v -7.084081 7.648700 -5.126475
v -7.184464 -1.472971 -7.160619
v -6.159051 3.358700 -5.521430
v -5.762909 -5.980139 -4.156659
v -5.000000 -4.226570 -4.695652
v -3.711374 -16.217782 -4.008018
v -5.052936 -16.465202 -4.287654
v -5.712829 -14.628841 -4.135136
v 0.000000 -18.442712 -5.140508
v 6.802620 -15.773531 -5.343074
v 4.802381 -17.332907 -4.645561
v -6.276870 9.272063 -5.099442
v -7.185867 8.861955 -6.500000
v -7.270953 7.648700 -5.456563
v -6.743122 -1.792046 -6.509481
v -7.453626 2.438533 -7.690936
v -6.427254 -5.986668 -4.486094
v -5.440908 -4.249113 -4.728697
v -3.648374 -18.505354 -5.515060
v -4.953592 -16.082845 -4.140257
v -7.118714 -15.263959 -5.602609
v 0.000000 -18.716708 -5.708125
v 6.709555 -15.640197 -5.111719
v 4.607197 -17.000721 -4.363006
v -7.294390 8.382686 -5.843990
v -7.282699 8.662730 -6.500000
v -7.392529 7.648700 -5.782517
v -5.785104 -1.589545 -5.958215
v -6.574891 2.879632 -6.025652
v -6.184409 -6.130311 -4.318207
v -5.687520 -4.281363 -4.775972
v -3.808596 -18.345399 -5.287524
v -4.860917 -15.792834 -4.065491
v -6.974453 -15.110495 -5.233795
v 0.000000 -18.839281 -6.278816
v 6.601131 -15.451421 -4.884623
v 5.125061 -17.315252 -4.819516
v -6.631556 9.151334 -5.352660
v -7.402771 8.336219 -6.500000
v -7.459998 7.648700 -6.059092
v -7.460419 -2.955884 -7.591471
v -5.677374 2.781276 -5.567758
v -5.000000 4.226570 -4.695652
v -5.927076 -4.327508 -4.843615
v -3.547890 -18.181220 -4.946175
v -4.629183 -15.474477 -4.008018
v -6.579020 -14.969177 -4.700376
v -5.000000 -13.851300 -4.000000
v 6.153156 -15.404255 -4.480890
v 5.619724 -17.706212 -6.074737
usemtl Paint_-_Metal_Flake_(Black)
f 1026 394 418
f 1026 287 394
f 1026 863 287
f 1026 1133 863
f 1119 1133 1026
f 1354 1119 1026
f 565 941 439
f 565 280 941
f 565 954 280
f 558 954 565
f 558 281 954
f 551 281 558
f 551 967 281
f 544 967 551
f 544 282 967
f 544 980 282
f 537 980 544
f 537 283 980
f 530 283 537
f 530 993 283
f 523 993 530
f 523 284 993
f 516 284 523
f 516 1006 284
f 509 1006 516
f 509 285 1006
f 502 285 509
f 502 1019 285
f 495 1019 502
f 495 286 1019
f 488 286 495
f 488 1032 286
f 481 1032 488
f 474 1032 481
f 474 203 1032
f 330 203 474
f 490 985 972
f 490 998 985
f 925 998 490
f 925 908 998
f 1168 908 925
f 490 938 925
f 639 938 490
f 639 951 938
f 633 951 639
f 633 964 951
f 627 964 633
f 627 977 964
f 621 977 627
f 621 990 977
f 615 990 621
f 615 1003 990
f 615 1016 1003
f 609 1016 615
f 609 1029 1016
f 603 1029 609
f 603 1042 1029
f 597 1042 603
f 597 1055 1042
f 591 1055 597
f 591 1068 1055
f 585 1068 591
f 585 1081 1068
f 580 1081 585
f 580 1094 1081
f 574 1094 580
f 574 1106 1094
f 567 1106 574
f 567 1263 1106
f 941 567 439
f 1263 567 941
f 671 665 685
f 607 659 653
f 625 665 659
f 649 665 625
f 649 685 665
f 445 671 685
f 445 473 671
f 473 677 671
f 571 683 677
f 578 653 694
f 578 607 653
f 625 659 607
f 667 685 649
f 691 685 667
f 691 445 685
f 508 677 473
f 508 571 677
f 686 683 571
f 601 607 578
f 601 625 607
f 631 625 601
f 536 571 508
f 688 578 694
f 631 649 625
f 643 649 631
f 643 667 649
f 431 445 691
f 466 445 431
f 466 473 445
f 494 508 473
f 494 536 508
f 564 571 536
f 564 686 571
f 692 686 564
f 583 601 578
f 619 631 601
f 661 667 643
f 661 691 667
f 494 473 466
f 522 536 494
f 557 536 522
f 564 536 557
f 682 578 688
f 572 578 682
f 572 583 578
f 595 601 583
f 595 619 601
f 679 691 661
f 431 691 679
f 480 494 466
f 501 494 480
f 501 522 494
f 557 692 564
f 698 692 557
f 655 661 643
f 679 661 655
f 438 431 679
f 438 466 431
f 459 466 438
f 459 480 466
f 529 522 501
f 529 557 522
f 589 583 572
f 589 595 583
f 613 619 595
f 613 631 619
f 637 631 613
f 637 643 631
f 655 643 637
f 697 438 679
f 452 459 438
f 550 557 529
f 371 698 557
f 676 572 682
f 589 613 595
f 673 679 655
f 673 697 679
f 452 438 697
f 487 480 459
f 515 501 480
f 515 529 501
f 543 529 515
f 550 371 557
f 474 572 676
f 481 589 572
f 516 655 637
f 516 673 655
f 372 452 697
f 452 487 459
f 487 515 480
f 543 550 529
f 432 371 550
f 481 572 474
f 495 589 488
f 495 613 589
f 495 637 613
f 502 637 495
f 509 637 502
f 530 697 673
f 372 697 530
f 537 452 372
f 558 543 515
f 543 432 550
f 330 474 676
f 481 488 589
f 509 516 637
f 523 673 516
f 523 530 673
f 544 452 537
f 544 487 452
f 551 487 544
f 551 515 487
f 551 558 515
f 565 543 558
f 565 432 543
f 432 565 439
f 372 530 537
f 446 539 689
f 432 439 467
f 467 439 567
f 686 446 683
f 686 539 446
f 686 692 539
f 698 453 692
f 698 460 453
f 371 460 698
f 432 460 371
f 467 460 432
f 560 467 567
f 560 460 467
f 553 460 560
f 553 453 460
f 546 453 553
f 546 692 453
f 539 692 546
f 683 446 689
f 440 695 689
f 701 695 503
f 638 435 368
f 539 669 689
f 440 689 669
f 440 503 695
f 566 368 701
f 608 368 566
f 608 638 368
f 674 435 638
f 674 442 435
f 687 440 669
f 482 503 440
f 538 503 482
f 538 701 503
f 538 566 701
f 462 442 674
f 687 669 539
f 626 638 608
f 656 638 626
f 656 674 638
f 651 539 546
f 651 687 539
f 433 687 681
f 433 440 687
f 433 482 440
f 496 538 482
f 531 566 538
f 559 566 531
f 590 566 559
f 590 608 566
f 626 608 590
f 668 674 656
f 668 462 674
f 663 687 651
f 663 681 687
f 461 482 433
f 461 496 482
f 496 531 538
f 632 656 626
f 668 656 632
f 469 462 668
f 475 496 461
f 489 496 475
f 489 531 496
f 545 559 531
f 573 559 545
f 573 590 559
f 602 626 590
f 632 626 602
f 662 469 668
f 657 651 546
f 657 663 651
f 699 681 663
f 699 433 681
f 454 433 699
f 454 461 433
f 454 475 461
f 524 531 489
f 524 545 531
f 584 590 573
f 584 602 590
f 650 668 632
f 662 668 650
f 476 469 662
f 657 546 553
f 675 663 657
f 675 699 663
f 468 475 454
f 614 602 584
f 614 632 602
f 620 632 614
f 620 650 632
f 644 662 650
f 693 699 675
f 693 454 699
f 370 454 693
f 447 454 370
f 447 468 454
f 468 489 475
f 552 573 545
f 644 650 620
f 483 476 662
f 560 657 553
f 645 657 560
f 645 675 657
f 574 675 645
f 510 489 468
f 510 524 489
f 517 524 510
f 517 545 524
f 552 545 517
f 579 573 552
f 579 584 573
f 579 614 584
f 596 614 579
f 620 614 596
f 680 662 644
f 680 483 662
f 591 447 370
f 591 468 447
f 490 483 680
f 567 645 560
f 580 675 574
f 580 693 675
f 585 693 580
f 585 370 693
f 597 468 591
f 597 510 468
f 603 510 597
f 603 517 510
f 603 552 517
f 609 552 603
f 609 579 552
f 615 579 609
f 615 596 579
f 621 596 615
f 621 620 596
f 627 620 621
f 627 644 620
f 633 644 627
f 633 680 644
f 639 680 633
f 639 490 680
f 370 585 591
f 645 567 574
f 336 497 972
f 972 497 490
f 442 532 666
f 532 347 666
f 525 347 532
f 525 672 347
f 518 672 525
f 511 672 518
f 511 348 672
f 504 348 511
f 497 348 504
f 497 336 348
f 462 532 442
f 462 525 532
f 462 518 525
f 469 518 462
f 469 511 518
f 476 511 469
f 476 504 511
f 483 504 476
f 483 497 504
f 490 497 483
f 434 369 463
f 647 700 653
f 448 441 434
f 448 455 441
f 785 455 556
f 455 449 556
f 448 449 455
f 448 456 449
f 434 456 448
f 463 456 434
f 369 470 463
f 369 477 470
f 700 477 369
f 700 647 477
f 676 455 330
f 676 441 455
f 682 441 676
f 682 434 441
f 688 434 682
f 694 700 369
f 653 700 694
f 369 688 694
f 434 688 369
f 455 785 330
f 594 670 335
f 594 652 670
f 594 334 652
f 588 333 640
f 335 670 562
f 588 646 334
f 588 640 646
f 562 670 569
f 334 646 652
f 670 664 569
f 640 634 646
f 670 658 664
f 652 658 670
f 652 646 658
f 646 634 628
f 640 616 634
f 664 658 576
f 646 628 658
f 634 616 628
f 658 622 576
f 576 622 582
f 628 622 658
f 628 610 622
f 616 610 628
f 582 622 629
f 610 635 622
f 582 629 587
f 622 635 629
f 641 635 533
f 592 533 635
f 512 641 533
f 512 647 641
f 592 635 610
f 554 533 592
f 512 533 519
f 470 647 512
f 470 477 647
f 554 592 586
f 519 533 554
f 610 586 592
f 561 519 554
f 519 470 512
f 498 470 519
f 463 470 498
f 598 610 616
f 598 586 610
f 561 554 586
f 547 519 561
f 505 519 547
f 505 498 519
f 568 547 561
f 484 498 505
f 484 463 498
f 456 463 484
f 568 586 598
f 568 561 586
f 526 505 547
f 491 484 505
f 581 568 598
f 575 547 568
f 575 526 547
f 491 456 484
f 604 616 640
f 604 598 616
f 581 598 604
f 581 575 568
f 540 526 575
f 331 526 540
f 331 505 526
f 563 505 331
f 563 491 505
f 449 456 491
f 333 604 640
f 430 581 604
f 577 581 430
f 332 575 581
f 332 540 575
f 570 540 332
f 563 449 491
f 430 604 333
f 332 581 577
f 331 540 570
f 556 449 563
f 569 664 576
f 368 695 701
f 368 689 695
f 647 635 641
f 647 629 635
f 647 587 629
f 665 653 659
f 671 653 665
f 677 653 671
f 683 653 677
f 587 653 683
f 587 647 653
f 654 689 368
f 654 683 689
f 587 683 654
f 345 346 660
f 654 346 345
f 368 346 654
f 435 346 368
f 435 666 346
f 442 666 435
f 611 605 617
f 611 617 623
f 599 648 605
f 599 344 648
f 599 593 344
f 599 587 593
f 599 582 587
f 576 582 599
f 593 587 654
f 605 576 599
f 569 576 605
f 617 642 600
f 623 600 335
f 617 600 623
f 343 642 617
f 605 343 617
f 648 343 605
f 654 344 593
f 562 623 335
f 562 611 623
f 569 611 562
f 569 605 611
f 336 548 348
f 342 548 336
f 636 485 548
f 341 485 636
f 341 630 485
f 630 492 485
f 548 541 348
f 548 520 541
f 485 520 548
f 485 492 520
f 541 672 348
f 541 534 672
f 520 534 541
f 492 499 520
f 471 499 492
f 520 499 534
f 534 555 672
f 534 527 555
f 534 499 527
f 672 555 347
f 499 506 527
f 555 513 347
f 527 513 555
f 527 506 513
f 513 666 347
f 702 660 346
f 457 702 346
f 351 660 702
f 351 345 660
f 344 654 345
f 702 457 464
f 367 351 702
f 349 345 351
f 349 344 345
f 464 457 506
f 436 702 464
f 684 349 351
f 436 367 702
f 352 351 367
f 648 344 349
f 471 436 464
f 352 367 436
f 690 351 352
f 690 684 351
f 443 436 471
f 443 352 436
f 678 349 684
f 678 648 349
f 450 443 471
f 353 352 443
f 350 684 690
f 350 678 684
f 678 343 648
f 478 450 471
f 450 353 443
f 696 352 353
f 696 690 352
f 642 343 678
f 478 471 492
f 618 353 450
f 696 353 618
f 350 690 696
f 337 678 350
f 630 478 492
f 624 450 478
f 339 450 624
f 339 618 450
f 338 696 618
f 338 350 696
f 337 350 612
f 337 642 678
f 340 478 630
f 340 624 478
f 612 350 338
f 606 642 337
f 600 642 606
f 464 499 471
f 506 499 464
f 457 513 506
f 346 513 457
f 666 513 346
f 342 636 548
f 600 1241 150
f 606 1241 600
f 606 1254 1241
f 337 1254 606
f 612 1254 337
f 612 1267 1254
f 338 1267 612
f 618 1267 338
f 618 1280 1267
f 339 1280 618
f 339 1293 1280
f 624 1293 339
f 340 1293 624
f 340 1306 1293
f 630 1306 340
f 630 1319 1306
f 630 1332 1319
f 341 1332 630
f 636 1332 341
f 636 1345 1332
f 636 714 1345
f 342 714 636
f 342 713 714
f 336 713 342
f 713 946 1087
f 336 946 713
f 959 946 336
f 336 972 959
f 150 335 600
f 81 335 150
f 556 752 204
f 563 752 556
f 563 747 752
f 331 747 563
f 331 748 747
f 331 743 748
f 570 743 331
f 332 743 570
f 332 744 743
f 332 739 744
f 577 739 332
f 430 739 577
f 430 740 739
f 430 735 740
f 333 735 430
f 333 736 735
f 588 736 333
f 588 731 736
f 334 731 588
f 594 731 334
f 594 727 731
f 335 727 594
f 335 81 727
f 179 180 412
f 111 786 203
f 785 111 330
f 330 111 203
f 179 786 180
f 203 786 179
f 810 204 226
f 556 112 785
f 556 810 112
f 204 810 556
f 138 1229 215
f 137 1229 138
f 839 542 1229
f 839 328 542
f 826 328 839
f 826 549 328
f 813 549 826
f 813 329 549
f 1349 329 813
f 227 329 1349
f 89 329 227
f 808 329 89
f 808 549 329
f 88 549 808
f 809 549 88
f 809 328 549
f 87 328 809
f 87 542 328
f 215 542 87
f 1229 542 215
f 784 227 507
f 1011 1311 327
f 1024 1011 327
f 535 1024 327
f 1037 1024 535
f 326 1037 535
f 1050 1037 326
f 528 1050 326
f 1063 1050 528
f 1076 1063 528
f 325 1076 528
f 1089 1076 325
f 521 1089 325
f 1101 1089 521
f 324 1101 521
f 1114 1101 324
f 514 1114 324
f 1127 1114 514
f 1140 1127 514
f 323 1140 514
f 1153 1140 323
f 507 1153 323
f 1166 1153 507
f 1349 1166 507
f 792 327 1311
f 119 327 792
f 119 535 327
f 778 535 119
f 118 535 778
f 118 326 535
f 779 326 118
f 779 528 326
f 117 528 779
f 117 325 528
f 780 325 117
f 116 325 780
f 116 521 325
f 781 521 116
f 781 324 521
f 115 324 781
f 115 514 324
f 782 514 115
f 782 323 514
f 114 323 782
f 783 323 114
f 783 507 323
f 113 507 783
f 784 507 113
f 1349 507 227
f 947 493 1311
f 947 321 493
f 947 500 321
f 934 500 947
f 934 322 500
f 921 322 934
f 1026 322 921
f 418 322 1026
f 409 322 418
f 182 322 409
f 182 500 322
f 410 500 182
f 410 321 500
f 181 321 410
f 181 493 321
f 411 493 181
f 792 493 411
f 1311 493 792
f 207 206 486
f 318 486 479
f 318 207 486
f 208 207 318
f 748 317 320
f 465 318 479
f 472 208 318
f 472 209 208
f 314 318 465
f 314 472 318
f 317 313 315
f 316 472 314
f 465 479 379
f 213 212 378
f 377 314 465
f 437 458 316
f 378 381 213
f 377 465 379
f 380 314 377
f 380 316 314
f 382 316 380
f 382 437 316
f 766 437 382
f 381 214 213
f 386 380 377
f 761 380 386
f 761 382 380
f 444 212 211
f 378 212 444
f 384 739 741
f 312 377 379
f 386 377 312
f 724 382 761
f 724 766 382
f 765 383 766
f 739 719 741
f 375 761 386
f 733 761 375
f 724 761 733
f 765 766 724
f 717 386 312
f 721 386 717
f 721 375 386
f 737 724 733
f 765 724 737
f 725 376 765
f 472 210 209
f 458 210 472
f 458 211 210
f 458 444 211
f 383 378 444
f 739 740 719
f 717 312 745
f 725 765 737
f 140 376 725
f 720 376 140
f 749 737 733
f 139 720 140
f 740 723 719
f 740 735 723
f 717 757 722
f 718 730 749
f 718 734 730
f 141 140 725
f 735 738 723
f 735 736 738
f 757 746 722
f 730 734 143
f 734 144 143
f 749 730 737
f 143 142 730
f 737 730 725
f 313 451 315
f 384 385 313
f 384 741 385
f 726 750 746
f 752 205 204
f 320 205 752
f 317 319 320
f 317 315 319
f 313 385 451
f 741 374 385
f 719 753 741
f 723 753 719
f 723 728 753
f 738 728 723
f 742 728 738
f 738 762 742
f 738 732 762
f 731 732 738
f 145 144 758
f 320 319 205
f 741 753 374
f 732 148 762
f 746 754 722
f 746 146 754
f 750 147 146
f 750 148 147
f 745 757 717
f 726 746 757
f 750 146 746
f 762 148 750
f 731 727 732
f 744 739 384
f 313 743 744
f 738 736 731
f 313 744 384
f 317 743 313
f 317 748 743
f 320 747 748
f 320 752 747
f 81 732 727
f 149 732 81
f 750 742 762
f 750 728 742
f 726 728 750
f 745 374 753
f 379 451 385
f 479 315 451
f 479 319 315
f 729 720 139
f 381 376 720
f 383 376 381
f 444 458 437
f 214 720 729
f 214 381 720
f 378 383 381
f 729 138 214
f 729 139 138
f 730 141 725
f 730 142 141
f 758 144 734
f 721 734 718
f 722 734 721
f 754 734 722
f 754 758 734
f 754 145 758
f 146 145 754
f 721 717 722
f 718 375 721
f 718 733 375
f 749 733 718
f 383 765 376
f 444 766 383
f 444 437 766
f 472 316 458
f 205 486 206
f 319 486 205
f 319 479 486
f 451 379 479
f 385 312 379
f 374 312 385
f 374 745 312
f 753 757 745
f 753 726 757
f 728 726 753
f 149 148 732
f 129 128 366
f 1280 756 1267
f 1280 767 756
f 764 767 1280
f 764 362 767
f 759 764 1280
f 1319 363 1306
f 764 364 362
f 1319 360 363
f 364 357 362
f 362 357 356
f 356 357 1344
f 1332 358 1319
f 360 715 363
f 1306 363 1293
f 363 759 1293
f 357 864 1344
f 1267 756 755
f 362 361 767
f 362 356 361
f 1344 1318 356
f 767 763 756
f 767 361 763
f 755 768 1254
f 756 763 755
f 356 355 361
f 1254 768 751
f 755 763 768
f 361 365 763
f 361 355 365
f 356 1305 355
f 768 760 751
f 763 365 768
f 365 270 768
f 365 359 270
f 355 359 365
f 355 1305 359
f 768 270 760
f 1305 825 359
f 270 359 366
f 359 354 366
f 825 354 359
f 825 130 354
f 354 129 366
f 354 130 129
f 1201 1175 1294
f 1201 1085 1175
f 1085 1072 1175
f 1307 1123 1320
f 1175 1072 1059
f 1123 994 1320
f 1266 1268 1255
f 1266 1281 1268
f 1214 1281 1266
f 1201 1281 1214
f 1320 994 1333
f 1149 1201 1214
f 1149 1085 1201
f 903 890 1059
f 1059 890 994
f 1279 1255 1242
f 1240 1255 1279
f 1240 1266 1255
f 1227 1214 1266
f 1007 1059 1072
f 903 1059 1007
f 1346 714 713
f 1331 877 955
f 890 1331 955
f 864 360 903
f 851 903 1007
f 851 864 903
f 1344 864 851
f 981 851 1007
f 838 1344 851
f 1020 1085 1149
f 1020 1007 1085
f 981 1007 1020
f 1318 1344 838
f 838 851 981
f 1097 1149 1227
f 1097 1020 1149
f 838 981 1020
f 916 838 1020
f 1318 838 916
f 968 1020 1097
f 968 916 1020
f 1292 1305 1318
f 1188 1227 1240
f 1188 1097 1227
f 1292 1318 916
f 1136 1097 1188
f 1136 968 1097
f 968 1292 916
f 1033 968 1136
f 929 968 1033
f 929 1292 968
f 1253 1279 1242
f 1253 1240 1279
f 1110 1136 1188
f 1110 1033 1136
f 825 1292 929
f 136 1242 137
f 136 1253 1242
f 1253 1188 1240
f 1162 1188 1253
f 1162 1110 1188
f 942 929 1033
f 942 825 929
f 1046 1033 1110
f 1046 942 1033
f 812 825 942
f 135 1253 136
f 135 1162 1253
f 133 1110 1162
f 133 1046 1110
f 1241 751 150
f 1332 1345 358
f 360 1319 358
f 357 715 864
f 364 715 357
f 364 363 715
f 364 759 363
f 764 759 364
f 1280 1293 759
f 755 1254 1267
f 150 751 82
f 128 82 751
f 760 128 751
f 1254 751 1241
f 270 128 760
f 366 128 270
f 132 131 812
f 1046 132 812
f 133 132 1046
f 942 1046 812
f 1162 134 133
f 1162 135 134
f 890 360 1331
f 890 903 360
f 1085 1007 1072
f 1214 1227 1149
f 1266 1240 1227
f 877 1345 714
f 994 890 955
f 1123 1059 994
f 1123 1175 1059
f 1281 1201 1294
f 1346 877 714
f 955 877 1346
f 1333 994 955
f 1307 1175 1123
f 1294 1175 1307
f 1333 955 1346
f 130 812 131
f 825 812 130
f 1305 1292 825
f 356 1318 1305
f 715 360 864
f 358 1331 360
f 358 877 1331
f 1345 877 358
f 1349 1202 710
f 1202 1215 710
f 816 1215 829
f 1215 1189 829
f 829 1189 842
f 1189 1228 842
f 842 1176 855
f 1228 1176 842
f 1176 868 855
f 1099 1087 946
f 1099 946 933
f 1163 1099 933
f 865 1099 1163
f 1112 1099 865
f 920 1163 933
f 1034 865 1163
f 1125 865 1034
f 1125 1112 865
f 1150 1034 907
f 878 1034 1150
f 878 1125 1034
f 1138 1125 878
f 995 1150 1137
f 995 878 1150
f 891 878 995
f 891 1138 878
f 1151 1138 891
f 917 995 1137
f 917 891 995
f 1151 891 917
f 1047 917 1137
f 1164 1151 917
f 1086 1137 881
f 1086 1047 1137
f 930 917 1047
f 930 1164 917
f 852 1164 930
f 1177 1164 852
f 1060 1047 1086
f 1060 930 1047
f 1060 1086 1176
f 943 930 1060
f 943 852 930
f 982 852 943
f 982 1177 852
f 1228 1060 1176
f 1124 1060 1228
f 1124 943 1060
f 1190 1177 982
f 1021 943 1124
f 1111 1124 1228
f 1021 982 943
f 1189 1111 1228
f 1111 1021 1124
f 956 982 1021
f 1203 982 956
f 1203 1190 982
f 1008 1021 1111
f 956 1021 1008
f 1098 1111 1189
f 1098 1008 1111
f 904 1203 956
f 1215 1098 1189
f 1216 1203 904
f 969 956 1008
f 969 904 956
f 1202 1098 1215
f 1073 1098 1202
f 1073 1008 1098
f 969 1008 1073
f 1216 904 969
f 813 1073 1202
f 826 1073 813
f 826 969 1073
f 839 969 826
f 839 1216 969
f 1229 1216 839
f 1202 1349 813
f 1086 868 1176
f 1086 881 868
f 1137 894 881
f 1150 894 1137
f 1150 907 894
f 1034 920 907
f 1163 920 1034
f 816 710 1215
f 137 1216 1229
f 1242 1216 137
f 1242 1203 1216
f 1255 1203 1242
f 1255 1190 1203
f 1268 1190 1255
f 1268 1177 1190
f 1281 1177 1268
f 1294 1177 1281
f 1294 1164 1177
f 1294 1151 1164
f 1307 1151 1294
f 1307 1138 1151
f 1320 1138 1307
f 1320 1125 1138
f 1333 1125 1320
f 1333 1112 1125
f 1346 1112 1333
f 1346 1099 1112
f 713 1099 1346
f 713 1087 1099
f 957 1035 1022
f 827 1347 1035
f 827 1035 957
f 1204 1347 827
f 957 1022 944
f 1295 827 957
f 985 1347 1204
f 879 1048 970
f 879 944 1048
f 944 1295 957
f 970 1048 709
f 840 944 879
f 840 1295 944
f 1204 827 1295
f 1009 970 709
f 1308 1295 840
f 814 905 1037
f 814 918 905
f 1334 918 814
f 1334 1269 853
f 1075 1230 1191
f 1113 1295 1308
f 1113 1204 1295
f 945 1101 1114
f 945 1062 1101
f 945 880 1062
f 880 828 1062
f 1062 828 971
f 854 1088 1126
f 1283 919 932
f 1075 1036 1178
f 1010 906 1036
f 880 1127 1140
f 1335 867 828
f 1243 1269 1334
f 1191 1269 1243
f 1010 1036 1075
f 1348 880 1140
f 1257 828 1309
f 1050 814 1037
f 1243 1334 814
f 1126 1075 1191
f 711 1322 841
f 1335 828 1257
f 866 814 1050
f 866 1243 814
f 1256 1191 1243
f 1126 1191 1139
f 1088 1010 1075
f 958 906 1010
f 958 841 906
f 1270 959 1322
f 1231 1140 1153
f 1231 1348 1140
f 1100 1282 1063
f 1100 1256 1282
f 1100 1139 1256
f 997 1126 984
f 997 854 1126
f 932 1088 854
f 1309 1348 1231
f 1296 1335 1257
f 1076 1100 1063
f 1218 1192 919
f 1179 1309 1231
f 1192 1270 711
f 1192 933 1270
f 1179 1231 1153
f 1049 1139 1100
f 1049 984 1139
f 855 1309 1179
f 1205 1309 855
f 881 1296 868
f 881 1244 1296
f 1152 1100 1076
f 1152 1049 1100
f 815 932 854
f 1283 932 815
f 1218 919 1283
f 842 855 1179
f 868 1205 855
f 894 1244 881
f 907 1244 894
f 933 946 1270
f 1166 1349 710
f 1179 710 816
f 1153 1166 710
f 1153 710 1179
f 945 1127 880
f 1257 1309 1205
f 1296 1205 868
f 1257 1205 1296
f 828 1348 1309
f 880 1348 828
f 1114 1127 945
f 815 1296 1244
f 971 828 867
f 1152 1101 1062
f 1218 907 920
f 1218 1244 907
f 1335 1296 815
f 997 971 867
f 1049 1062 971
f 1152 1062 1049
f 1089 1101 1152
f 1283 815 1244
f 854 867 1335
f 1049 971 997
f 1283 1244 1218
f 854 1335 815
f 1192 920 933
f 1192 1218 920
f 997 867 854
f 984 1049 997
f 1076 1089 1152
f 958 919 1192
f 1088 932 919
f 1139 984 1126
f 959 1270 946
f 958 1192 711
f 1010 919 958
f 1010 1088 919
f 866 1063 1282
f 1050 1063 866
f 841 958 711
f 1322 711 1270
f 1075 1126 1088
f 1191 1256 1139
f 1243 1282 1256
f 1243 866 1282
f 1324 1311 1011
f 1061 1337 1324
f 1350 1337 1061
f 1350 1061 1009
f 817 709 1048
f 830 817 1048
f 830 1048 1022
f 843 830 1022
f 856 843 1035
f 869 856 1035
f 882 869 1074
f 895 882 1074
f 908 895 998
f 1347 998 1074
f 1347 985 998
f 1035 1347 1074
f 931 879 970
f 840 879 1321
f 893 985 1204
f 893 972 985
f 892 970 1009
f 931 970 892
f 1113 893 1204
f 996 1009 1061
f 983 1009 996
f 892 1009 983
f 1321 879 931
f 1165 1113 1308
f 712 931 892
f 712 1321 931
f 1217 840 1321
f 1217 1308 840
f 1217 1165 1308
f 1023 1113 1165
f 1230 1321 712
f 1023 893 1113
f 959 972 893
f 905 983 996
f 918 983 905
f 918 892 983
f 853 892 918
f 712 892 853
f 1230 1217 1321
f 1178 1165 1217
f 905 996 1024
f 1178 1217 1230
f 1036 1165 1178
f 1322 893 1023
f 1037 905 1024
f 1269 712 853
f 1230 712 1269
f 1036 1023 1165
f 1075 1178 1230
f 841 1023 906
f 841 1322 1023
f 959 893 1322
f 1074 998 895
f 869 1035 1074
f 843 1022 1035
f 1048 944 1022
f 1350 1009 709
f 1324 996 1061
f 1011 996 1324
f 1011 1024 996
f 1334 853 918
f 1191 1230 1269
f 906 1023 1036
f 1179 829 842
f 1179 816 829
f 921 1297 1026
f 1026 1297 1039
f 1297 1310 1039
f 1310 1052 1039
f 1052 1336 1065
f 1336 1323 1065
f 1323 1078 1065
f 1078 1193 1091
f 1193 1258 1091
f 1091 1271 1103
f 1284 1154 1129
f 1154 1142 1129
f 1155 908 1168
f 895 908 1155
f 895 1155 1142
f 882 1142 1154
f 882 895 1142
f 1102 1154 1284
f 1102 882 1154
f 1102 869 882
f 1167 1284 1116
f 1167 1102 1284
f 1090 1102 1167
f 856 1102 1090
f 856 869 1102
f 1271 1167 1116
f 1271 1090 1167
f 843 856 1090
f 1077 1090 1271
f 843 1090 1077
f 1258 1077 1271
f 830 843 1077
f 1115 1077 1258
f 1064 1077 1115
f 1064 830 1077
f 1193 1115 1258
f 817 830 1064
f 1012 1064 1115
f 960 1064 1012
f 960 817 1064
f 1323 1193 1078
f 1323 1115 1193
f 1245 1115 1323
f 1025 1115 1245
f 1025 1012 1115
f 1025 960 1012
f 973 960 1025
f 709 960 973
f 709 817 960
f 1232 1323 1336
f 1232 1245 1323
f 1232 1025 1245
f 1141 1025 1232
f 973 1025 1141
f 1052 1232 1336
f 1219 1232 1052
f 1219 1141 1232
f 1038 1141 1219
f 1038 973 1141
f 1350 709 973
f 1310 1219 1052
f 986 973 1038
f 986 1350 973
f 1128 1038 1219
f 986 1038 1128
f 1337 1350 986
f 1206 1219 1310
f 1206 1128 1219
f 1297 1206 1310
f 1051 986 1128
f 1337 986 1051
f 1180 1206 1297
f 1180 1128 1206
f 1051 1128 1180
f 999 1337 1051
f 999 1324 1337
f 1311 1324 999
f 921 1180 1297
f 934 1180 921
f 934 1051 1180
f 947 1051 934
f 947 999 1051
f 1311 999 947
f 1271 1091 1258
f 1116 1103 1271
f 1284 1129 1116
f 1039 1181 1026
f 1039 1194 1181
f 1039 1207 1194
f 1052 1207 1039
f 1052 1220 1207
f 1065 1220 1052
f 1065 1233 1220
f 1078 1233 1065
f 1078 1246 1233
f 1091 1246 1078
f 1091 1259 1246
f 1103 1259 1091
f 1103 1272 1259
f 1116 1272 1103
f 1129 1272 1116
f 1129 1285 1272
f 1142 1285 1129
f 1142 1298 1285
f 1155 1298 1142
f 1168 1298 1155
f 925 1298 1168
f 912 1298 925
f 912 1285 1298
f 899 1285 912
f 899 1272 1285
f 886 1272 899
f 886 1259 1272
f 886 1246 1259
f 873 1246 886
f 873 1233 1246
f 860 1233 873
f 860 1220 1233
f 847 1220 860
f 847 1207 1220
f 834 1207 847
f 834 1194 1207
f 821 1194 834
f 821 1181 1194
f 705 1181 821
f 1354 1181 705
f 1026 1181 1354
f 911 1119 1354
f 1352 1119 911
f 1312 1119 1352
f 1312 1133 1119
f 911 1354 705
f 1261 1352 911
f 1261 1312 1352
f 975 1312 1261
f 909 1312 975
f 909 1133 1312
f 1146 1133 909
f 821 911 705
f 1041 911 821
f 1261 911 1041
f 1339 975 1261
f 1339 1261 1041
f 1066 975 1339
f 1066 909 975
f 1286 909 1066
f 844 909 1286
f 1159 909 844
f 1159 1146 909
f 1314 821 834
f 1314 1041 821
f 950 1041 1314
f 1093 1041 950
f 1093 1339 1041
f 1326 1339 1093
f 1066 1339 1326
f 936 1066 1326
f 708 844 1286
f 1172 844 708
f 1172 1159 844
f 1275 834 847
f 1275 1314 834
f 898 1314 1275
f 898 950 1314
f 1093 950 898
f 1209 1326 1093
f 1313 1326 1209
f 1313 936 1326
f 1130 1066 936
f 1130 1286 1066
f 708 1286 1130
f 963 1093 898
f 1208 708 1130
f 831 708 1208
f 831 1172 708
f 1013 1172 831
f 706 1275 847
f 706 898 1275
f 963 898 706
f 1080 1093 963
f 1080 1209 1093
f 923 936 1313
f 1117 936 923
f 1117 1130 936
f 1117 1208 1130
f 1185 1172 1013
f 860 706 847
f 1300 1209 1080
f 1300 1313 1209
f 1195 1208 1117
f 831 1208 1195
f 935 1013 831
f 1197 706 860
f 1301 706 1197
f 872 706 1301
f 872 963 706
f 1028 1080 963
f 1131 1080 1028
f 1131 1300 1080
f 1027 1313 1300
f 1027 923 1313
f 1027 1117 923
f 1195 1117 1027
f 935 1185 1013
f 1028 963 872
f 1053 1195 1027
f 1156 1195 1053
f 1273 1195 1156
f 1273 831 1195
f 922 831 1273
f 922 935 831
f 1197 860 873
f 1353 1301 1197
f 872 1301 1353
f 1015 1131 1028
f 1248 1300 1131
f 858 1300 1248
f 858 1027 1300
f 910 1027 858
f 1053 1027 910
f 922 1185 935
f 1198 1185 922
f 1184 1197 873
f 1184 1353 1197
f 1015 1028 872
f 1157 1131 1015
f 1157 1248 1131
f 1014 1053 910
f 1156 1053 1014
f 1260 1273 1156
f 1260 922 1273
f 896 922 1260
f 1262 1353 1184
f 937 872 1353
f 937 1015 872
f 845 858 1248
f 910 858 845
f 1000 922 896
f 1000 1198 922
f 1211 1198 1000
f 1236 1184 873
f 1236 1262 1184
f 859 1353 1262
f 859 937 1353
f 1118 1157 1015
f 962 910 845
f 962 1014 910
f 1104 1156 1014
f 1104 1260 1156
f 1247 1260 1104
f 1247 896 1260
f 1351 896 1247
f 886 1236 873
f 859 1262 1236
f 1067 1015 937
f 1067 1118 1015
f 1222 1157 1118
f 1222 1248 1157
f 845 1248 1222
f 1104 1014 962
f 987 896 1351
f 987 1000 896
f 1145 1236 886
f 1340 859 1236
f 1002 937 859
f 1002 1067 937
f 884 962 845
f 1040 1104 962
f 1169 1247 1104
f 1234 1247 1169
f 1234 1351 1247
f 987 1211 1000
f 1223 1236 1145
f 1223 1340 1236
f 885 859 1340
f 885 1002 859
f 1196 1118 1067
f 1196 1222 1118
f 1287 845 1222
f 1287 884 845
f 1169 1104 1040
f 1338 1351 1234
f 883 1351 1338
f 883 987 1351
f 1224 1211 987
f 1196 1067 1002
f 1287 1222 1196
f 832 884 1287
f 949 884 832
f 949 962 884
f 949 1040 962
f 1338 1234 1169
f 974 987 883
f 974 1224 987
f 899 1145 886
f 1158 1145 899
f 1158 1223 1145
f 1210 1223 1158
f 1210 1340 1223
f 846 885 1340
f 989 885 846
f 989 1002 885
f 989 1196 1002
f 1183 1287 1196
f 819 1287 1183
f 1092 1040 949
f 1092 1169 1040
f 1221 1169 1092
f 1221 1338 1169
f 1325 883 1338
f 1237 1224 974
f 1327 1340 1210
f 1327 846 1340
f 1105 1196 989
f 1105 1183 1196
f 819 832 1287
f 1001 1092 949
f 1221 1325 1338
f 870 883 1325
f 870 974 883
f 976 989 846
f 976 1105 989
f 1274 819 1183
f 897 832 819
f 897 949 832
f 897 1001 949
f 1143 1221 1092
f 1171 1158 899
f 1288 1327 1210
f 833 846 1327
f 833 976 846
f 924 976 833
f 1143 1092 1001
f 818 1325 1221
f 818 870 1325
f 961 870 818
f 961 974 870
f 961 1237 974
f 1250 1237 961
f 912 1171 899
f 1171 1210 1158
f 1288 1210 1171
f 1288 833 1327
f 1054 976 924
f 1054 1105 976
f 1170 1105 1054
f 1170 1183 1105
f 1170 1274 1183
f 871 819 1274
f 871 897 819
f 871 1001 897
f 1182 1221 1143
f 1182 818 1221
f 1132 1171 912
f 1235 1274 1170
f 871 1274 1235
f 988 1001 871
f 988 1143 1001
f 1079 1143 988
f 1079 1182 1143
f 1299 818 1182
f 948 1250 961
f 1249 1171 1132
f 1249 1288 1171
f 820 1288 1249
f 820 833 1288
f 820 924 833
f 1003 1054 924
f 1144 1054 1003
f 1144 1170 1054
f 1235 1170 1144
f 707 871 1235
f 857 818 1299
f 857 961 818
f 857 948 961
f 1263 1250 948
f 925 1132 912
f 990 1003 924
f 1042 871 707
f 1042 988 871
f 1055 988 1042
f 1055 1079 988
f 1068 1182 1079
f 1068 1299 1182
f 1106 948 857
f 1106 1263 948
f 938 1132 925
f 938 1249 1132
f 951 1249 938
f 964 1249 951
f 964 820 1249
f 977 820 964
f 977 924 820
f 977 990 924
f 1016 1144 1003
f 1016 1235 1144
f 1029 1235 1016
f 1029 707 1235
f 1029 1042 707
f 1081 1299 1068
f 1081 857 1299
f 1094 857 1081
f 1094 1106 857
f 1079 1055 1068
f 1276 876 274
f 1276 275 876
f 1276 889 275
f 1289 889 1276
f 1289 276 889
f 1289 902 276
f 1302 902 1289
f 1302 277 902
f 1315 277 1302
f 1315 915 277
f 1315 278 915
f 1328 278 1315
f 1328 928 278
f 1328 279 928
f 1341 279 1328
f 1341 941 279
f 1263 941 1341
f 1341 1250 1263
f 1328 1250 1341
f 1328 1237 1250
f 1315 1237 1328
f 1315 1224 1237
f 1315 1211 1224
f 1302 1211 1315
f 1302 1198 1211
f 1289 1198 1302
f 1289 1185 1198
f 1289 1172 1185
f 1276 1172 1289
f 1276 1159 1172
f 1276 1146 1159
f 274 1146 1276
f 274 1133 1146
f 863 1133 274
f 823 287 863
f 940 287 823
f 704 287 940
f 704 394 287
f 198 394 704
f 299 863 274
f 299 823 863
f 1238 704 940
f 1030 198 704
f 876 299 274
f 1304 823 299
f 1304 940 823
f 1030 704 1238
f 393 198 1030
f 301 299 876
f 301 1304 299
f 862 940 1304
f 1057 940 862
f 1057 1238 940
f 1017 393 1030
f 295 876 275
f 295 301 876
f 1173 1238 1057
f 1173 1030 1238
f 835 1030 1173
f 835 1017 1030
f 199 393 1017
f 1200 301 295
f 1200 1304 301
f 1004 1017 835
f 199 1017 1004
f 1148 295 275
f 1148 1200 295
f 1278 1304 1200
f 310 1304 1278
f 310 862 1304
f 992 862 310
f 992 1057 862
f 1121 1173 1057
f 1264 835 1173
f 1004 835 1264
f 392 199 1004
f 889 1148 275
f 298 1200 1148
f 1278 1200 298
f 1121 1057 992
f 1264 1173 1121
f 887 1004 1264
f 1069 1004 887
f 1069 392 1004
f 1330 310 1278
f 849 310 1330
f 849 992 310
f 1031 992 849
f 1031 1121 992
f 294 1148 889
f 294 298 1148
f 1226 1278 298
f 1226 1330 1278
f 1225 1121 1031
f 1225 1264 1121
f 887 1264 1225
f 965 1069 887
f 200 392 1069
f 1084 889 276
f 1084 294 889
f 1226 298 294
f 304 1330 1226
f 703 1330 304
f 703 849 1330
f 703 1031 849
f 1355 887 1225
f 1355 965 887
f 1056 1069 965
f 1056 200 1069
f 1135 294 1084
f 1135 1226 294
f 901 1031 703
f 1225 1031 1044
f 1212 1355 1225
f 874 965 1355
f 291 1135 1084
f 302 1226 1135
f 302 304 1226
f 1317 703 304
f 901 703 1317
f 1044 1031 901
f 1044 1212 1225
f 1277 1355 1212
f 874 1355 1277
f 874 1056 965
f 391 200 1056
f 902 1084 276
f 291 1084 902
f 1317 304 302
f 1343 901 1317
f 1160 1212 1044
f 1277 1212 1160
f 991 1056 874
f 300 302 1135
f 306 302 300
f 306 1317 302
f 306 1343 1317
f 1018 901 888
f 1018 1044 901
f 1018 1160 1044
f 1199 1277 1160
f 1342 1277 1199
f 1342 874 1277
f 991 391 1056
f 1107 391 991
f 277 291 902
f 289 291 277
f 293 291 289
f 293 1135 291
f 293 300 1135
f 888 901 1343
f 1108 1160 1018
f 1108 1199 1160
f 952 874 1342
f 952 991 874
f 1107 991 952
f 201 391 1107
f 1187 300 293
f 1213 300 1187
f 306 300 1213
f 308 1343 306
f 927 1018 888
f 1005 1018 927
f 1005 1108 1018
f 861 952 1342
f 915 289 277
f 290 289 915
f 290 293 289
f 1122 293 290
f 1122 1187 293
f 1291 306 1213
f 1291 308 306
f 308 888 1343
f 1186 1199 1108
f 1186 1342 1199
f 1329 1342 1186
f 1329 861 1342
f 939 952 861
f 939 1107 952
f 1095 1107 939
f 1095 201 1107
f 297 1187 1122
f 297 1213 1187
f 836 888 308
f 836 927 888
f 979 927 836
f 979 1005 927
f 1186 1108 1005
f 1058 290 915
f 1265 1213 297
f 1265 1291 1213
f 309 308 1291
f 309 836 308
f 1096 1186 1005
f 1316 1186 1147
f 1316 1329 1186
f 848 1329 1316
f 848 861 1329
f 939 861 848
f 390 201 1095
f 278 1058 915
f 811 290 1058
f 811 1122 290
f 1174 297 1122
f 309 1291 1265
f 966 979 836
f 1096 979 966
f 1096 1005 979
f 1147 1186 1096
f 978 1095 939
f 811 1058 278
f 1174 1122 811
f 1174 1265 297
f 303 1265 1174
f 303 309 1265
f 311 836 309
f 914 966 836
f 1303 1316 1147
f 1303 848 1316
f 978 939 848
f 1120 1095 978
f 1120 390 1095
f 288 811 278
f 307 309 303
f 307 311 309
f 311 914 836
f 1083 1096 966
f 1083 1147 1096
f 1134 1147 1083
f 1134 1303 1147
f 913 848 1303
f 913 978 848
f 202 390 1120
f 288 278 928
f 1071 811 288
f 292 811 1071
f 292 1174 811
f 1161 1174 292
f 1252 303 1174
f 1252 307 303
f 914 1083 966
f 1251 1303 1134
f 1290 1303 1251
f 1290 913 1303
f 1082 1120 978
f 202 1120 1082
f 1239 1174 1161
f 1239 1252 1174
f 875 914 311
f 822 913 1290
f 900 978 913
f 1043 978 900
f 1043 1082 978
f 1045 288 279
f 1045 1071 288
f 296 1239 1161
f 305 1252 1239
f 305 307 1252
f 1356 307 305
f 1356 311 307
f 1356 875 311
f 953 914 875
f 953 1083 914
f 1070 1083 953
f 1070 1134 1083
f 822 900 913
f 389 202 1082
f 1109 1071 1045
f 1109 292 1071
f 1109 1161 292
f 296 1161 1109
f 285 1134 1070
f 285 1251 1134
f 1019 1251 285
f 1019 1290 1251
f 926 900 822
f 941 1045 279
f 281 296 1109
f 967 1239 296
f 282 1239 967
f 282 305 1239
f 980 1356 305
f 283 1356 980
f 953 875 1356
f 1006 285 1070
f 1019 822 1290
f 926 1043 900
f 203 1082 1043
f 203 389 1082
f 280 1045 941
f 280 1109 1045
f 954 1109 280
f 281 1109 954
f 281 967 296
f 980 305 282
f 993 1356 283
f 993 953 1356
f 284 953 993
f 284 1070 953
f 284 1006 1070
f 286 822 1019
f 286 926 822
f 1032 1043 926
f 203 1043 1032
f 926 286 1032
f 288 928 279
f 198 388 394
f 393 388 198
f 393 159 388
f 199 159 393
f 199 387 159
f 392 387 199
f 392 824 387
f 200 824 392
f 200 271 824
f 391 271 200
f 201 271 391
f 201 837 271
f 201 272 837
f 390 272 201
f 390 850 272
f 202 850 390
f 202 273 850
f 389 273 202
f 389 179 273
f 203 179 389
f 413 273 179
f 413 850 273
f 178 850 413
f 414 850 178
f 414 272 850
f 177 272 414
f 415 272 177
f 176 272 415
f 176 837 272
f 176 271 837
f 416 271 176
f 416 824 271
f 175 824 416
f 175 387 824
f 417 387 175
f 417 159 387
f 174 159 417
f 174 388 159
f 418 388 174
f 394 388 418
f 411 105 792
f 105 395 791
f 791 395 106
f 395 790 106
f 790 197 107
f 197 396 107
f 413 179 412
f 404 412 180
f 404 180 110
f 178 412 404
f 178 413 412
f 190 404 110
f 187 178 404
f 414 178 187
f 787 190 110
f 190 187 404
f 109 190 787
f 177 414 187
f 194 190 109
f 184 190 194
f 184 187 190
f 184 177 187
f 188 184 194
f 415 177 184
f 188 194 196
f 405 184 188
f 405 415 184
f 401 188 196
f 405 188 401
f 176 415 405
f 403 405 401
f 403 401 398
f 186 405 403
f 186 176 405
f 416 176 186
f 396 401 196
f 398 401 396
f 191 398 396
f 191 403 398
f 183 416 186
f 407 403 191
f 407 186 403
f 183 186 407
f 193 396 197
f 193 191 396
f 175 183 407
f 175 416 183
f 407 191 193
f 406 175 407
f 399 193 197
f 402 407 193
f 417 175 406
f 402 406 407
f 399 402 193
f 400 402 399
f 189 406 402
f 408 406 189
f 408 417 406
f 174 417 408
f 195 399 395
f 195 400 399
f 400 189 402
f 192 189 400
f 185 189 192
f 185 408 189
f 174 408 185
f 397 195 395
f 397 400 195
f 192 400 397
f 410 185 192
f 182 185 410
f 409 185 182
f 409 174 185
f 418 174 409
f 181 192 397
f 181 410 192
f 181 397 411
f 397 105 411
f 395 105 397
f 399 790 395
f 197 790 399
f 196 789 396
f 196 108 789
f 196 788 108
f 194 788 196
f 109 788 194
f 180 786 110
f 107 396 789
f 169 171 85
f 243 112 168
f 168 171 169
f 425 168 169
f 426 425 169
f 421 231 419
f 169 173 424
f 424 173 421
f 240 168 425
f 240 243 168
f 424 426 169
f 240 425 426
f 785 112 243
f 241 240 426
f 260 785 243
f 263 256 235
f 251 259 117
f 251 258 259
f 251 769 258
f 252 246 247
f 251 117 779
f 247 245 126
f 246 245 247
f 258 769 254
f 251 269 769
f 769 771 254
f 269 771 769
f 781 428 115
f 248 264 237
f 127 254 771
f 165 114 782
f 165 163 114
f 268 244 163
f 239 238 244
f 261 263 161
f 250 774 246
f 428 163 165
f 428 268 163
f 239 244 268
f 261 256 263
f 250 255 256
f 252 255 250
f 124 127 771
f 774 245 246
f 162 268 428
f 239 268 162
f 237 238 239
f 237 161 238
f 250 246 252
f 123 118 778
f 123 83 118
f 773 127 124
f 116 428 781
f 116 242 428
f 257 266 242
f 257 237 266
f 248 253 264
f 774 250 770
f 772 83 123
f 122 123 775
f 776 773 124
f 788 773 776
f 257 248 237
f 120 245 774
f 120 777 245
f 122 772 123
f 777 126 245
f 777 111 126
f 267 242 116
f 267 257 242
f 249 248 257
f 373 253 248
f 373 770 253
f 125 774 770
f 106 772 122
f 121 772 106
f 119 792 775
f 790 121 106
f 262 257 267
f 249 373 248
f 107 789 121
f 108 788 776
f 778 119 775
f 122 791 106
f 775 791 122
f 123 778 775
f 124 772 121
f 269 83 772
f 779 118 83
f 776 121 789
f 771 772 124
f 124 121 776
f 771 269 772
f 251 83 269
f 251 779 83
f 125 773 788
f 780 117 259
f 373 773 125
f 373 127 773
f 262 258 254
f 120 787 110
f 774 788 120
f 774 125 788
f 249 254 127
f 249 262 254
f 267 780 259
f 116 780 267
f 777 120 110
f 770 373 125
f 249 127 373
f 262 259 258
f 777 110 111
f 257 262 249
f 267 259 262
f 250 253 770
f 162 242 266
f 162 428 242
f 256 264 253
f 165 115 428
f 256 253 250
f 161 264 261
f 237 264 161
f 239 266 237
f 239 162 266
f 782 115 165
f 261 264 256
f 227 784 422
f 228 227 422
f 229 228 422
f 172 229 422
f 172 230 229
f 231 230 172
f 232 231 173
f 233 232 173
f 160 233 173
f 420 86 85
f 716 86 420
f 810 716 420
f 168 810 420
f 168 420 85
f 171 168 85
f 112 810 168
f 429 424 167
f 429 426 424
f 260 243 240
f 167 424 421
f 429 241 426
f 265 240 241
f 423 419 172
f 423 421 419
f 167 421 423
f 265 260 240
f 422 423 172
f 164 429 167
f 427 167 423
f 164 167 427
f 236 429 164
f 235 265 241
f 247 785 260
f 166 422 170
f 423 422 166
f 236 241 429
f 252 265 255
f 252 260 265
f 247 260 252
f 113 170 784
f 255 265 235
f 783 170 113
f 166 170 783
f 166 427 423
f 238 236 164
f 236 235 241
f 126 785 247
f 244 427 166
f 244 164 427
f 111 785 126
f 163 166 783
f 238 164 244
f 263 236 238
f 235 236 263
f 160 169 85
f 173 169 160
f 173 231 421
f 172 419 231
f 784 170 422
f 163 783 114
f 163 244 166
f 161 263 238
f 256 255 235
f 111 110 786
f 120 109 787
f 120 788 109
f 789 108 776
f 121 790 107
f 775 105 791
f 792 105 775
f 87 216 215
f 216 793 217
f 793 103 217
f 103 218 217
f 218 794 219
f 219 104 220
f 716 226 225
f 716 810 226
f 804 716 225
f 224 804 225
f 799 804 224
f 86 716 804
f 223 799 224
f 799 86 804
f 99 799 223
f 93 799 99
f 93 86 799
f 93 807 86
f 85 86 807
f 98 93 99
f 95 93 98
f 95 807 93
f 160 807 95
f 160 85 807
f 221 99 222
f 98 99 221
f 801 98 221
f 801 95 98
f 90 95 801
f 90 160 95
f 797 801 221
f 233 160 90
f 97 801 797
f 97 90 801
f 232 233 90
f 795 97 797
f 806 90 97
f 806 232 90
f 794 797 104
f 795 797 794
f 800 97 795
f 800 806 97
f 231 232 806
f 91 806 800
f 91 231 806
f 101 795 794
f 101 800 795
f 803 91 800
f 230 231 91
f 103 101 794
f 803 800 101
f 805 91 803
f 102 101 103
f 796 101 102
f 803 101 796
f 805 230 91
f 229 230 805
f 94 803 796
f 94 805 803
f 793 102 103
f 92 805 94
f 92 229 805
f 798 796 102
f 798 94 796
f 96 94 798
f 92 94 96
f 228 229 92
f 100 102 793
f 100 798 102
f 216 100 793
f 88 798 100
f 88 96 798
f 802 96 88
f 802 92 96
f 802 228 92
f 809 88 100
f 89 228 802
f 87 100 216
f 87 809 100
f 808 802 88
f 89 802 808
f 227 228 89
f 794 218 103
f 104 219 794
f 797 220 104
f 221 220 797
f 223 222 99
f 215 214 138
f 216 214 215
f 216 213 214
f 217 213 216
f 217 212 213
f 218 212 217
f 219 212 218
f 219 211 212
f 219 210 211
f 220 210 219
f 220 209 210
f 221 209 220
f 221 208 209
f 222 208 221
f 222 207 208
f 223 207 222
f 223 206 207
f 224 206 223
f 224 205 206
f 225 205 224
f 225 204 205
f 226 204 225
f 82 234 150
f 82 151 234
f 128 151 82
f 128 152 151
f 129 152 128
f 129 153 152
f 130 153 129
f 130 154 153
f 131 154 130
f 131 155 154
f 132 155 131
f 132 156 155
f 133 156 132
f 133 157 156
f 134 157 133
f 134 84 157
f 135 84 134
f 135 158 84
f 136 158 135
f 137 158 136
f 138 158 137
f 139 158 138
f 139 84 158
f 140 84 139
f 140 157 84
f 141 157 140
f 141 156 157
f 142 156 141
f 142 155 156
f 143 155 142
f 144 155 143
f 144 154 155
f 145 154 144
f 145 153 154
f 146 153 145
f 146 152 153
f 147 152 146
f 147 151 152
f 148 151 147
f 149 151 148
f 149 234 151
f 81 234 149
f 150 234 81
# 1356 vertices
# 0 texture params
# 0 normals
# 2692 facets

# 5 groups
