# WaveFront *.obj file (generated by Autodesk ATF)

mtllib foot_dexter_collision.mtl

g Body3

v 3.973842 -7.500000 -0.101039
v 2.713350 -7.500000 2.884556
v -0.131016 -7.500000 3.963496
v -3.296488 -7.500000 2.239214
v -3.973417 -7.500000 0.000169
v -2.586750 -7.500000 -3.016153
v 0.181075 -7.500000 -3.955669
v 3.541183 -7.500000 -1.772031
v 3.017231 -6.500000 -2.588038
v 0.457508 -6.500000 -3.932295
v -2.777246 -6.500000 -2.819057
v -3.965136 -6.500000 -0.446776
v -3.487349 -6.500000 1.950674
v -1.580168 -6.500000 3.655643
v 1.429744 -6.500000 3.717053
v 2.713203 -6.500000 2.884695
v 3.960389 -6.500000 -0.374957
v 3.781003 -6.500000 1.183273
v -0.090870 -6.500000 3.961409
v -2.707957 -6.500000 2.908959
v -3.901748 -6.500000 0.765444
v -3.705996 -6.500000 -1.457922
v -1.207261 -6.500000 -3.787542
v 2.069784 -6.500000 -3.408827
v 3.724068 -6.500000 -1.432333
v 2.282314 -7.500000 -3.232835
v -1.276941 -7.500000 -3.772277
v -3.611869 -7.500000 -1.638087
v -3.783931 -7.500000 1.259355
v -1.935970 -7.500000 3.442147
v 1.276940 -7.500000 3.772278
v 3.707268 -7.500000 1.415345
usemtl Paint_-_Metal_Flake_(Gold)
f 30 31 3
f 30 2 31
f 4 2 30
f 4 32 2
f 29 32 4
f 5 32 29
f 5 1 32
f 26 27 7
f 26 6 27
f 8 6 26
f 8 28 6
f 8 5 28
f 1 5 8
f 23 24 10
f 11 24 23
f 11 9 24
f 22 9 11
f 22 25 9
f 22 17 25
f 12 17 22
f 15 14 19
f 16 14 15
f 16 20 14
f 16 13 20
f 18 13 16
f 18 21 13
f 17 21 18
f 17 12 21
f 18 1 17
f 18 32 1
f 16 32 18
f 16 2 32
f 15 2 16
f 15 31 2
f 19 31 15
f 19 3 31
f 14 3 19
f 14 30 3
f 20 30 14
f 20 4 30
f 13 4 20
f 13 29 4
f 21 29 13
f 21 5 29
f 12 5 21
f 12 28 5
f 22 28 12
f 11 28 22
f 11 6 28
f 11 27 6
f 23 27 11
f 23 7 27
f 10 7 23
f 10 26 7
f 24 26 10
f 9 26 24
f 9 8 26
f 25 8 9
f 17 8 25
f 17 1 8
g Body4

v 3.978808 7.499999 0.101700
v 3.055470 7.499999 -2.540108
v 0.674656 7.499999 -3.907852
v -2.443628 7.499999 -3.145933
v -3.972818 7.499999 -0.253523
v -2.787213 7.499999 2.844661
v 0.232046 7.499999 3.951104
v 3.603255 7.499999 1.656950
v 1.961004 6.499999 3.434924
v -0.806813 6.499999 3.899962
v -3.155582 6.499999 2.438525
v -3.990019 6.499999 0.040687
v -2.960118 6.499999 -2.645717
v -0.695857 6.499999 -3.914866
v 1.993685 6.499999 -3.439018
v 3.200436 6.499999 -2.338390
v 3.977152 6.499999 0.060793
v 3.832149 6.499999 -1.103965
v 0.647068 6.499999 -3.929626
v -1.891917 6.499999 -3.507358
v -3.826374 6.499999 -1.080926
v -3.756381 6.499999 1.303839
v -2.046036 6.499999 3.409293
v 0.486246 6.499999 3.952748
v 3.503401 6.499999 1.832856
v 2.286130 7.499999 3.205426
v -1.500489 7.499999 3.676528
v -3.698702 7.499999 1.390362
v -3.503929 7.499999 -1.855595
v -1.026329 7.499999 -3.838298
v 1.929020 7.499999 -3.490413
v 3.755056 7.499999 -1.324581
f 62 63 35
f 36 63 62
f 36 34 63
f 61 34 36
f 61 64 34
f 37 64 61
f 37 33 64
f 58 59 39
f 58 38 59
f 58 60 38
f 40 60 58
f 33 60 40
f 33 37 60
f 42 41 56
f 55 41 42
f 43 41 55
f 43 57 41
f 54 57 43
f 54 49 57
f 44 49 54
f 47 46 51
f 47 52 46
f 47 45 52
f 48 45 47
f 48 53 45
f 50 53 48
f 49 53 50
f 49 44 53
f 50 33 49
f 50 64 33
f 48 64 50
f 48 34 64
f 47 34 48
f 47 63 34
f 47 35 63
f 51 35 47
f 46 35 51
f 46 62 35
f 52 62 46
f 52 36 62
f 45 36 52
f 45 61 36
f 53 61 45
f 53 37 61
f 44 37 53
f 44 60 37
f 54 60 44
f 43 60 54
f 43 38 60
f 55 38 43
f 55 59 38
f 42 59 55
f 42 39 59
f 56 39 42
f 41 39 56
f 41 58 39
f 57 58 41
f 57 40 58
f 49 40 57
f 49 33 40
g Body2

v 3.400000 7.499999 -2.000000
v 3.400000 6.499999 -2.000000
v -3.400000 7.499999 -6.000000
v 3.400000 6.499999 -6.000000
v -3.400000 7.499999 -2.000000
v -3.400000 6.499999 -2.000000
v 3.400000 7.499999 -6.000000
v -3.400000 6.499999 -6.000000
f 70 67 72
f 69 67 70
f 66 72 68
f 70 72 66
f 65 68 71
f 66 68 65
f 69 71 67
f 65 71 69
f 72 71 68
f 67 71 72
f 69 66 65
f 70 66 69
g Body1

v 3.400000 -6.500000 -2.000000
v 3.400000 -7.500000 -2.000000
v -3.400000 -6.500000 -6.000000
v 3.400000 -7.500000 -6.000000
v -3.400000 -6.500000 -2.000000
v -3.400000 -7.500000 -2.000000
v 3.400000 -6.500000 -6.000000
v -3.400000 -7.500000 -6.000000
f 78 75 80
f 77 75 78
f 74 80 76
f 78 80 74
f 73 76 79
f 74 76 73
f 77 79 75
f 73 79 77
f 80 79 76
f 75 79 80
f 77 74 73
f 78 74 77
g Body1:1

v -5.000000 8.089608 -4.040002
v -6.854439 4.691253 -5.376823
v -5.000000 8.426591 -4.126425
v -5.984941 -1.486546 -6.057980
v -0.625000 9.969588 -5.572924
v -0.625000 9.817100 -5.260235
v -0.625000 9.633742 -4.983479
v -0.703125 9.356071 -4.680904
v -0.625000 8.996703 -4.397176
v -0.156250 8.720912 -4.242268
v -0.000000 8.396627 -4.116183
v -0.625000 7.964042 -4.024010
v 5.000000 8.335336 -4.100313
v 5.000000 7.648700 -4.000000
v 5.000000 7.964446 -4.020828
v 5.000000 8.692138 -4.229047
v 5.000000 8.916534 -4.346261
v 5.000000 9.152461 -4.505587
v 5.000000 9.371118 -4.688018
v 5.000000 9.564389 -4.897155
v 5.000000 9.735459 -5.124710
v 5.000000 9.863891 -5.342880
v 5.000000 9.969588 -5.572924
v 5.000000 10.051471 -5.812481
v 5.000000 10.122287 -6.153086
v 5.000000 10.148700 -6.500000
v -5.000000 10.148700 -6.500000
v -5.000000 10.108699 -6.059092
v -5.000000 10.041228 -5.782517
v -5.000000 9.861047 -5.344365
v -5.000000 9.663123 -5.020782
v -5.000000 9.437129 -4.756297
v -5.000000 9.202525 -4.544340
v -5.000000 8.916534 -4.346261
v -5.000000 8.692138 -4.229047
v -6.675425 4.590371 -5.228942
v -6.043438 4.355647 -4.884865
v -5.440342 4.250892 -4.731306
v -5.000000 4.673919 -4.433787
v -5.000000 5.532001 -4.114142
v -5.378205 4.565421 -4.525703
v -7.036865 5.096788 -5.399766
v -5.564939 4.952834 -4.376828
v -6.260197 4.960662 -4.677584
v -5.315745 5.009368 -4.307119
v -7.090775 5.449588 -5.325342
v -6.013678 5.285878 -4.413903
v -7.009422 5.651029 -5.134269
v -6.259595 5.543368 -4.469140
v -7.468792 5.806083 -6.253109
v -6.609241 5.692359 -4.686616
v -6.964740 6.079127 -4.988190
v -5.284333 6.024861 -4.044948
v -6.135716 5.980571 -4.311205
v -7.500000 -5.635427 -6.760870
v -7.434509 -5.317059 -6.294181
v -7.215189 -4.983340 -5.804988
v -6.854439 -4.691254 -5.376823
v -6.373525 -4.460958 -5.039237
v -5.656673 -4.277329 -4.770059
v -5.000000 -4.226570 -4.695652
v -5.000000 -2.829363 -5.443467
v -5.000000 -1.360909 -5.873259
v -5.000000 -0.082108 -5.994404
v -5.000000 1.735377 -5.792361
v -5.000000 2.980044 -5.378182
v -7.500000 2.899494 -8.029615
v -7.500000 -3.440359 -7.856926
v -6.762562 -3.992030 -5.696294
v -6.367674 -3.943193 -5.352204
v -6.931099 -3.344874 -6.220174
v -7.256569 -3.442101 -6.730558
v -7.417212 -3.842156 -7.036921
v -5.393911 -2.272695 -5.679923
v -5.985691 -2.679454 -5.721991
v -7.475086 -3.456590 -7.529348
v -7.459770 -1.686278 -7.904643
v -5.785502 1.531755 -5.970174
v -1.640625 10.082807 -5.945300
v -7.035572 -1.298615 -6.951762
v -7.014423 4.801826 -5.538907
v -7.168400 4.936767 -5.736716
v -7.353117 5.163322 -6.068822
v -7.440094 5.334624 -6.319929
v -7.500000 5.635427 -6.760870
v -5.000000 6.480741 -4.000000
v -5.346914 6.480741 -4.026414
v -5.717484 6.480741 -4.107472
v -6.043438 6.480741 -4.229047
v -6.267832 6.480741 -4.346261
v -6.503759 6.480741 -4.505587
v -6.767200 6.480741 -4.732800
v -6.936917 6.480741 -4.920652
v -7.150974 6.480741 -5.233795
v -7.320887 6.480741 -5.572924
v -7.409927 6.480741 -5.843327
v -7.479172 6.480741 -6.184255
v -7.500000 6.480741 -6.500000
v -7.500000 7.648700 -6.500000
v -7.463997 7.648700 -6.090504
v -7.392529 7.648700 -5.782517
v -7.297394 7.648700 -5.514110
v -7.215189 7.648700 -5.342880
v -7.086760 7.648700 -5.124710
v -6.852058 7.648700 -4.826726
v -6.553824 7.648700 -4.544340
v -6.184408 7.648700 -4.300875
v -5.927076 7.648700 -4.179113
v -5.564214 7.648700 -4.068616
v -5.189772 7.648700 -4.008018
v 0.468750 10.132686 -6.247444
v -5.511413 2.301210 -5.693978
v -6.457867 2.513298 -6.063551
v -6.952232 2.577426 -6.536806
v -6.785774 3.082173 -6.152760
v -7.402771 3.453303 -7.147861
v -7.024986 3.398357 -6.330681
v -5.440705 2.911035 -5.452653
v -6.699816 4.137734 -5.541155
v -6.835113 3.805852 -5.883518
v -7.327995 4.749728 -6.257506
v -7.473585 -6.480740 -6.153086
v -7.320887 -6.480740 -5.572924
v -6.994413 -6.480740 -4.996241
v -6.479218 -6.480740 -4.485576
v -5.807298 -6.480740 -4.138171
v -5.000000 -6.480740 -4.000000
v -5.000000 -5.150964 -4.231730
v -5.549355 -6.010626 -4.092442
v -5.315745 -5.966454 -4.057997
v -6.478726 -5.906082 -4.535249
v -5.762909 -5.693069 -4.204044
v -6.747055 -5.935347 -4.762079
v -7.093452 -5.995504 -5.184064
v -5.687519 -5.330106 -4.271516
v -5.992451 -5.327166 -4.389253
v -6.623428 -5.464159 -4.761009
v -7.161070 -5.501000 -5.429281
v -7.451050 -5.953571 -6.094516
v -6.859746 -5.352956 -5.041558
v -5.970554 -4.864959 -4.560321
v -6.198442 -4.853811 -4.690905
v -6.704518 -5.068052 -4.990058
v -7.500000 -13.851300 -6.500000
v -7.434509 -13.851300 -5.935061
v -7.150974 -13.851300 -5.233795
v -6.577321 -13.851300 -4.565569
v -6.043438 -13.851300 -4.229047
v -5.346914 -13.851300 -4.026414
v -7.489983 -10.166020 -6.294522
v -7.260668 -10.396350 -5.435140
v -6.893245 -10.319574 -4.874703
v -6.163200 -10.626680 -4.290249
v -6.765617 -2.500060 -6.339207
v -5.000000 7.648700 -4.000000
v -5.770400 -0.864241 -6.071297
v -7.214664 -1.967700 -7.117723
v -7.289463 -2.566536 -7.127038
v -6.443609 -2.229669 -6.140008
v -6.350971 -1.321219 -6.285358
v -6.696726 -1.594029 -6.508240
v -6.096497 -0.757504 -6.215071
v -6.777813 -0.888204 -6.691696
v -6.203925 1.390678 -6.184561
v -6.534184 -0.703694 -6.497565
v -7.344036 -1.420285 -7.521821
v -7.001253 1.813452 -6.806338
v -5.652688 -0.130660 -6.083906
v -6.964003 -0.295546 -6.951436
v -6.159886 0.173719 -6.279473
v -7.177038 0.535292 -7.245475
v -7.236862 -0.920017 -7.335643
v -6.512088 0.176300 -6.503409
v -7.298311 -0.125691 -7.512836
v -5.867706 0.506054 -6.137872
v -6.738449 0.620105 -6.683704
v -7.114882 1.133130 -7.085933
v -7.409645 -0.283910 -7.830070
v -5.533709 0.873519 -6.006833
v -7.386917 1.251263 -7.676324
v -5.955572 1.026139 -6.122225
v -6.671543 1.414216 -6.517083
v -7.474447 0.066245 -8.166355
v -6.915664 1.196603 -6.804874
v -7.324928 2.208124 -7.306729
v -7.455173 2.401883 -7.734159
v -5.479344 1.669744 -5.858494
v -6.458667 1.763666 -6.272523
v -6.479218 4.500213 -5.096780
v -6.983982 -16.054077 -8.500000
v -7.244572 -15.421687 -8.500000
v -7.190155 -14.485672 -8.936188
v -7.399025 -14.641294 -8.677401
v -7.100927 -14.864973 -8.950409
v -7.336555 -15.021852 -8.644675
v -6.898298 -15.487567 -8.957945
v -6.838254 -15.958088 -8.878625
v -6.612457 -16.060865 -8.967051
v -6.616235 -16.350288 -8.881456
v -6.327602 -16.603083 -8.949068
v -6.428085 -16.884254 -8.677230
v -6.078952 -17.224207 -8.764555
v -5.846016 -17.322260 -8.877733
v -5.590815 -17.634962 -8.813133
v -5.191171 -18.000656 -8.713022
v -5.102614 -17.904732 -8.882681
v -4.601297 -18.126639 -8.919696
v -4.563751 -18.360401 -8.691041
v -4.302608 -18.121324 -8.979703
v -3.969233 -18.359352 -8.935228
v -5.438804 9.998271 -5.781222
v 6.284193 9.252872 -5.085032
v 7.124193 8.570905 -5.572128
v 5.967892 9.343787 -4.945784
v 6.922899 8.689258 -5.297806
v 7.304826 8.275342 -5.779732
v 6.268068 9.028165 -4.854037
v 6.613054 8.921517 -5.082660
v 7.408007 7.970494 -5.927377
v 5.760684 9.248000 -4.741430
v 5.371079 9.222232 -4.597506
v 5.967588 8.981704 -4.622428
v 6.537227 8.646215 -4.804639
v 7.136742 8.295896 -5.385407
v 5.417981 8.881633 -4.372751
v 6.341087 8.712810 -4.682266
v 6.829400 8.506000 -5.036883
v 7.282407 7.998778 -5.549115
v 5.665779 9.031568 -4.529397
v 5.815840 8.794784 -4.437527
v 6.732632 8.348922 -4.846234
v 5.177847 -17.980968 -5.904617
v 5.214057 -17.833745 -5.572924
v 4.146460 -17.143520 -4.299472
v 4.860070 -18.101241 -5.691665
v 3.730565 -16.784830 -4.097230
v 4.671712 -18.297342 -6.029013
v 4.600122 -17.802017 -4.970717
v 4.094800 -17.378304 -4.413240
v 3.586481 -17.127108 -4.192333
v 4.065436 -17.999382 -4.920652
v 4.219291 -18.472521 -5.935424
v 3.554856 -17.813437 -4.583094
v 3.909333 -18.247310 -5.178439
v 3.567645 -18.014460 -4.767492
v 3.826920 -18.572359 -5.828345
v 3.490484 -18.714632 -6.090504
v 3.057870 -17.227455 -4.179113
v 3.182907 -17.496205 -4.315536
v 3.093421 -18.084657 -4.743996
v 3.372105 -18.451932 -5.287524
v 3.134063 -18.783466 -6.153086
v 2.928381 -18.304969 -4.970717
v 7.500000 -6.480740 -6.500000
v 7.500000 -5.635427 -6.760870
v 7.153739 -5.268084 -5.514356
v 5.347157 -6.025896 -4.052877
v 5.000000 2.573460 -5.540409
v 5.821234 3.639196 -5.219898
v 6.491014 1.258634 -6.392144
v 6.071188 -1.440373 -6.102309
v 5.494425 -3.395348 -5.245280
v 7.434509 7.648700 -5.935061
v 5.808095 5.753360 -4.207130
v 7.320887 8.575776 -6.500000
v 7.144081 7.983680 -5.269511
v -5.393911 0.157111 -6.028158
v -7.190159 2.619320 -6.903283
v -5.653589 9.545327 -5.014760
v -5.317299 9.650523 -5.043495
v -5.451845 9.847257 -5.405210
v -6.314760 8.618209 -4.612619
v -7.014624 8.890424 -5.706769
v -6.754694 8.737531 -5.100538
v -6.883552 8.783870 -5.322345
v -5.489931 8.015319 -4.081328
v -5.897707 8.218139 -4.243232
v -6.114569 8.563399 -4.462135
v -6.323217 8.883334 -4.779851
v -6.577248 8.991736 -5.110519
v -6.839792 9.008536 -5.509296
v -5.717484 -10.166020 -4.107472
v -6.553824 -10.166020 -4.544340
v -7.157415 -10.780234 -5.239202
v -7.414511 -10.166020 -5.866623
v -5.000000 -13.851300 -4.000000
v -5.717484 -13.851300 -4.107472
v -6.267832 -13.851300 -4.346261
v -6.874450 -13.851300 -4.849117
v -7.353117 -13.851300 -5.662258
v -7.481575 -13.851300 -6.215829
v -7.018452 -5.151418 -5.344397
v -6.420644 -4.954172 -4.793762
v -5.346914 -4.739710 -4.432484
v -7.396942 -5.759099 -5.922118
v -5.694570 -4.966143 -4.410091
v -7.305466 -5.787455 -5.642011
v -7.014423 -5.609797 -5.154916
v -6.307917 -5.462644 -4.520822
v -5.378205 -5.179020 -4.252373
v -5.378326 -5.520256 -4.150352
v -6.900681 -5.971518 -4.923368
v -6.043438 -5.659768 -4.320268
v -7.247635 -6.224448 -5.425037
v -6.281476 -5.982305 -4.392543
v -5.962766 -6.045670 -4.223203
v -5.000000 -4.708962 -4.414692
v -5.000000 -5.766906 -4.068257
v -5.409496 -6.480740 -4.036002
v -6.184408 -6.480740 -4.300875
v -6.697815 -6.480740 -4.667952
v -7.168400 -6.480740 -5.260235
v -7.402771 -6.480740 -5.812481
v -7.500000 -6.480740 -6.500000
v -6.341162 3.608830 -5.515747
v -7.259596 4.269504 -6.347724
v -6.075683 3.698766 -5.304173
v -6.475412 3.347478 -5.745744
v -7.175491 3.375108 -6.583885
v -5.866722 3.121593 -5.489127
v -6.229531 2.807393 -5.802869
v -6.749578 2.353886 -6.366550
v -5.984240 2.197719 -5.883544
v -7.387863 -14.893346 -8.500000
v -3.839203 -18.495088 -8.868315
v -4.171982 -18.490945 -8.739961
v -4.364805 -18.296206 -8.881575
v -4.721107 -18.219518 -8.794107
v -4.964539 -17.828321 -8.963153
v -5.123825 -17.978087 -8.805539
v -5.660565 -17.684862 -8.664620
v -5.439334 -17.621765 -8.910529
v -5.459024 -17.413057 -8.978195
v -6.035602 -16.989538 -8.939594
v -6.361974 -16.805665 -8.839655
v -6.639940 -16.562871 -8.709785
v -6.883517 -16.066758 -8.775183
v -7.006706 -15.963880 -8.637982
v -7.093143 -15.595785 -8.771312
v -7.098799 -15.264047 -8.887044
v -7.255936 -15.060034 -8.784280
v -3.083941 -18.745340 -8.750681
v -7.233847 -14.793059 -8.874262
v -3.274785 -18.657577 -8.835262
v -7.335594 -14.608026 -8.802926
v -3.229040 -18.578223 -8.907139
v -7.458361 -14.488731 -8.500000
v -3.684704 -18.649543 -8.721505
v -3.394361 -18.434702 -8.965165
v -6.483404 -16.869505 -8.500000
v 7.388035 -14.411475 -8.765180
v 6.122290 -16.721802 -8.980143
v 3.782843 -18.581219 -8.788880
v 2.500000 -18.579828 -8.942288
v -7.450485 -13.851300 -8.716942
v -6.912416 9.168603 -8.722014
v -6.800924 -15.167213 -9.000000
v -5.000000 9.839740 -8.961213
v 6.115289 9.597787 -8.930646
v 5.000000 9.888660 -8.934176
v -5.409496 10.112699 -8.500000
v -5.717484 10.041228 -8.500000
v -6.577321 9.583131 -8.500000
v -6.155635 9.861047 -8.500000
v 5.000000 10.029046 -8.821217
v 6.368309 9.696605 -8.681068
v -5.000000 9.937579 -8.907139
v -7.000000 -13.851300 -9.000000
v -6.684383 8.969127 -8.977021
v -7.467775 3.841408 -8.671096
v 7.431773 -14.669395 -8.500000
v 3.779026 -18.654291 -8.657886
v 6.298475 -16.868345 -8.852442
v 7.444707 -14.395203 -8.644675
v -6.718977 -16.533070 -8.500000
v -6.161690 -17.254783 -8.500000
v 7.277296 -14.812863 -8.825887
v 6.065711 -16.989150 -8.928457
v 3.503898 -18.560880 -8.885017
v 2.500000 -18.663045 -8.890916
v -7.369894 -13.851300 -8.830557
v -6.887838 8.957992 -8.895713
v -6.566519 -15.768666 -9.000000
v -5.000000 9.648700 -9.000000
v 6.240605 9.726989 -8.761562
v 5.000000 9.648700 -9.000000
v -7.500000 -13.851300 -8.500000
v -5.000000 10.148700 -8.500000
v -5.970371 -17.450817 -8.500000
v 7.213776 -14.534352 -8.922031
v 6.036660 -17.199274 -8.832649
v 3.563485 -18.426979 -8.956836
v 2.500000 -18.749098 -8.799333
v -7.241478 -13.851300 -8.936923
v -6.975286 8.481311 -8.975102
v -6.003211 -16.656739 -9.000000
v 6.979012 8.236272 -8.993921
v 6.080417 9.750163 -8.839655
v 5.595383 10.074498 -8.500000
v -0.000000 6.082687 -4.023856
v -7.500000 7.648700 -8.500000
v -5.731855 -17.663410 -8.500000
v 7.071737 -14.610419 -8.979703
v 6.110730 -17.207164 -8.747613
v 3.356505 -18.737050 -8.683705
v 2.500000 -18.812513 -8.691041
v -7.124382 -13.851300 -8.982051
v -7.093121 8.880471 -8.749332
v -5.343105 -17.332530 -9.000000
v 7.432786 7.989537 -8.689839
v 5.927389 9.887496 -8.759046
v 5.927076 9.969588 -8.500000
v 0.416666 4.872615 -4.340921
v 0.416666 5.465205 -4.134753
v -5.334066 -17.969519 -8.500000
v 7.315935 -15.039918 -8.680939
v 6.083611 -17.306532 -8.638200
v 3.577061 -18.301485 -8.991573
v 2.500000 -18.851300 -8.500000
v -5.507709 10.040044 -8.715330
v -7.110149 8.700358 -8.843432
v -4.484909 -17.884608 -9.000000
v 7.312100 8.123096 -8.841990
v 5.917182 9.945001 -8.651410
v 6.239765 9.817100 -8.500000
v -0.000000 3.895179 -4.906476
v -0.416667 4.498019 -4.527814
v -5.025896 -18.165406 -8.500000
v 7.174074 -15.280503 -8.810765
v 5.816943 -17.553481 -8.657886
v 2.952257 -18.790062 -8.683105
v 7.461213 -3.045311 -8.691041
v -5.657835 9.921367 -8.832771
v -7.234459 8.675222 -8.690440
v -3.750576 -18.158632 -9.000000
v 7.393656 8.252053 -8.664620
v 5.731048 9.741942 -8.947373
v 6.479218 9.663123 -8.500000
v -0.000000 2.317338 -5.628602
v -0.000000 3.152242 -5.300764
v -4.704248 -18.338276 -8.500000
v 7.049403 -15.242943 -8.921699
v 5.581467 -17.386436 -8.959872
v 3.097571 -18.674631 -8.841990
v 7.407139 -4.780988 -8.788880
v -5.777344 9.765182 -8.925067
v -7.160366 8.448222 -8.893743
v -2.500000 -18.351300 -9.000000
v 7.032120 8.401490 -8.968147
v 5.664964 9.906144 -8.848967
v 6.697815 9.480748 -8.500000
v -0.000000 0.392566 -5.987406
v -0.000000 1.365954 -5.866502
v -4.370839 -18.487205 -8.500000
v 6.944232 -15.249094 -8.970458
v 5.598977 -17.644976 -8.793199
v 3.079154 -18.512748 -8.953830
v 7.323851 -3.371917 -8.879440
v -5.877501 9.928374 -8.720154
v -7.278027 8.427028 -8.783164
v 2.500000 -18.351300 -9.000000
v 7.088075 8.489366 -8.925754
v 5.648405 9.997222 -8.738412
v 6.994413 9.152461 -8.500000
v -0.000000 -1.034168 -5.922475
v -0.000000 -0.280483 -5.992442
v -3.896057 -18.650060 -8.500000
v 7.128576 -15.597621 -8.716260
v 5.613288 -17.490307 -8.903083
v 3.137431 -18.809661 -8.500000
v 7.231702 -3.390580 -8.942327
v -5.931323 9.577991 -8.977021
v -7.344141 8.449750 -8.634093
v 3.994582 -18.075796 -9.000000
v 7.273318 8.385400 -8.807907
v 5.408360 9.806296 -8.955887
v 7.121611 8.971110 -8.500000
v -0.000000 -2.792529 -5.458242
v -0.000000 -2.102949 -5.694764
v -3.497667 -18.749904 -8.500000
v 6.958306 -15.843261 -8.811914
v 5.235518 -17.965649 -8.728870
v 3.675124 -18.706957 -8.500000
v 7.105860 -3.087303 -8.987387
v -6.122451 9.762742 -8.799578
v -7.186024 8.134042 -8.935228
v 5.162479 -17.468403 -9.000000
v 7.246302 8.655101 -8.681068
v 5.389544 10.086778 -8.659504
v 7.215189 8.805820 -8.500000
v -0.000000 -4.533063 -4.508720
v -0.000000 -3.625526 -5.056427
v -3.137430 -18.809661 -8.500000
v 6.947233 -16.086656 -8.638200
v 5.141858 -17.925405 -8.847216
v 4.200278 -18.552440 -8.500000
v 7.191041 -13.851300 -8.961213
v -6.136805 9.824706 -8.703991
v -7.290268 8.119483 -8.864395
v 6.028434 -16.628914 -9.000000
v 7.049741 8.752553 -8.871957
v 5.367929 9.952975 -8.867514
v 7.331129 8.545812 -8.500000
v -0.000000 -5.455671 -4.137695
v -0.000000 -4.964032 -4.301070
v 0.375000 -18.509705 -8.973882
v 6.716970 -16.019394 -8.933533
v 5.144032 -17.749607 -8.950409
v 4.579885 -18.395654 -8.500000
v 7.299333 -13.851300 -8.897799
v -6.161945 9.566527 -8.934895
v -7.403353 8.190394 -8.677230
v 6.756531 -15.221546 -9.000000
v 7.133716 8.763377 -8.783164
v 5.738563 9.505008 -9.000000
v 7.456840 8.089042 -8.500000
v -7.460190 7.945388 -6.204676
v -0.000000 -6.082687 -4.023856
v -1.000000 -18.662065 -8.889687
v 6.637401 -15.914272 -8.981317
v 4.825825 -18.155412 -8.804559
v 5.142367 -18.093347 -8.500000
v 7.407139 -13.851300 -8.788880
v -6.216051 9.654565 -8.857668
v -7.474339 7.648700 -8.651151
v 7.000000 -13.851300 -9.000000
v 6.846764 8.833392 -8.956727
v 6.050275 9.346633 -9.000000
v 7.500000 7.648700 -8.500000
v -6.633520 7.951953 -4.637029
v -7.397631 8.004560 -5.902242
v -0.000000 -18.758439 -8.788880
v 6.745512 -16.184065 -8.857112
v 4.810840 -18.246319 -8.671096
v 5.482582 -17.863265 -8.500000
v 7.474339 -13.851300 -8.651151
v -6.322001 9.335860 -8.976122
v -7.423363 7.648700 -8.766016
v -0.590278 9.730594 -8.992454
v 6.979173 9.122012 -8.664620
v 6.691353 8.666263 -9.000000
v 5.000000 10.148700 -8.500000
v -6.852907 8.047931 -4.875238
v -7.296879 8.208331 -5.699838
v 0.515625 -18.825178 -8.649206
v 6.701850 -16.522183 -8.638200
v 4.710339 -18.079809 -8.914585
v 5.901212 -17.510546 -8.500000
v 7.500000 -13.851300 -8.500000
v -6.404616 9.667392 -8.681786
v -7.304003 7.648700 -8.892572
v -1.736111 9.849113 -8.956482
v 6.594561 9.024995 -8.985931
v 7.000000 7.648700 -9.000000
v -7.473585 7.995616 -8.500000
v -7.281723 8.523944 -6.011998
v -7.161724 8.201034 -5.378226
v -2.500000 -18.475680 -8.982051
v 6.783215 -16.306954 -8.735345
v 4.624485 -18.008054 -8.967776
v 6.283548 -17.118779 -8.500000
v -7.100502 -5.228904 -8.987501
v -6.434225 9.454257 -8.891715
v -7.151150 7.648700 -8.974339
v 1.254340 9.985667 -8.867127
v 6.802730 9.127830 -8.867284
v 7.191041 7.648700 -8.961213
v -7.420193 8.275331 -8.500000
v -6.995819 8.232593 -5.116155
v -6.763588 8.354453 -4.881949
v -2.500000 -18.627911 -8.913920
v 6.549120 -16.504267 -8.861783
v 4.410647 -18.347048 -8.813378
v 6.615471 -16.683475 -8.500000
v -7.260454 -2.793357 -8.922772
v -6.599099 9.440692 -8.791530
v -5.750542 9.497069 -9.000000
v 2.239583 10.078820 -8.749033
v 6.851221 9.197036 -8.773963
v 7.288880 7.648700 -8.907139
v -7.317909 8.574586 -8.500000
v -7.005856 8.472938 -5.262188
v -7.133354 8.503490 -5.529168
v -2.500000 -18.755879 -8.787064
v 6.481327 -16.755273 -8.753748
v 4.294564 -18.479631 -8.674163
v 6.923612 -16.176968 -8.500000
v -7.353962 -7.550139 -8.851431
v -6.721972 9.415221 -8.667858
v -6.198381 9.241069 -9.000000
v 0.979818 10.129592 -8.624662
v 6.536725 9.238059 -8.947989
v 7.372235 7.648700 -8.832649
v -7.153740 8.916534 -8.500000
v -6.116789 7.956679 -4.287881
v -6.559758 8.327485 -4.672840
v -2.500000 -18.831003 -8.638200
v 6.364273 -16.642841 -8.920336
v 4.132636 -18.210689 -8.972398
v 7.151435 -15.679201 -8.500000
v -7.457809 -4.752993 -8.695032
v -6.607019 9.226569 -8.927116
v -6.774865 8.545375 -9.000000
v -5.000000 10.092929 -8.721793
v 6.589440 9.487720 -8.743198
v 7.458313 7.648700 -8.689839
v -7.014423 9.127917 -8.500000
v -6.563257 8.617213 -4.812141
v -6.374582 8.083558 -4.463795
v -2.500000 -18.851300 -8.500000
v 6.449930 -16.872783 -8.651410
v 4.010172 -18.415458 -8.889380
v 7.323451 -15.159502 -8.500000
v -7.487034 -3.194616 -8.604433
v -6.694167 9.249896 -8.869758
v -7.000000 7.648700 -9.000000
v -5.000000 10.020934 -8.832649
v 6.454027 9.449485 -8.883603
v 5.000000 10.123038 -8.651151
v -6.854439 9.324124 -8.500000
v -7.098043 8.931136 -6.076162
v -6.224966 8.239963 -4.405894
v -7.008156 -2.026406 -6.764918
v 7.221372 8.742843 -6.183488
v 5.465928 9.685010 -5.133652
v 5.852381 9.675716 -5.319783
v 6.266934 9.526387 -5.450709
v 6.582782 9.222804 -5.386337
v 6.915464 9.045590 -5.723655
v 7.234207 8.594148 -5.907500
v 6.045772 9.546743 -5.258987
v 6.821520 8.956969 -5.409262
v 7.354766 8.382129 -6.110701
v 7.429353 8.159656 -6.222475
v 5.438878 9.436503 -4.814017
v 5.664683 9.505691 -4.969111
v -5.919777 9.767503 -5.551879
v -6.063899 9.378989 -5.047687
v -5.750774 9.931672 -5.827368
v -5.742059 9.857146 -5.605115
v -5.737419 9.662274 -5.224338
v -5.459532 8.544437 -4.214841
v -5.817480 8.779063 -4.429613
v -5.905841 9.946696 -6.142633
v -5.509029 9.331168 -4.729900
v -5.244939 8.305974 -4.103212
v -7.282700 8.662730 -6.500000
v -5.719254 8.508401 -4.271165
v -6.070839 9.803121 -5.852125
v -6.567716 9.528716 -6.029037
v -7.185867 8.861955 -6.500000
v -7.402771 8.336219 -6.500000
v -5.821453 9.302287 -4.821256
v -6.359754 9.209601 -5.100751
v -6.936917 9.228049 -6.500000
v -7.086760 9.023990 -6.500000
v -5.501438 9.072688 -4.514677
v -6.234558 9.127883 -4.913654
v -6.452778 9.680549 -6.500000
v -6.743704 9.437129 -6.500000
v -5.469843 8.826242 -4.349418
v -6.076674 9.010844 -4.705511
v -5.564214 10.080085 -6.500000
v -5.969884 9.949039 -6.500000
v -5.838403 9.024398 -4.591187
v -5.501743 8.202361 -4.117238
v 6.028780 9.885039 -6.092441
v 5.428224 10.065490 -6.038429
v -6.286924 9.726640 -6.008655
v -6.507282 9.289050 -5.373235
v 5.395592 9.857478 -5.410885
v 6.323001 9.713389 -6.029123
v -6.329962 9.571067 -5.624614
v -6.637971 9.329478 -5.647918
v 6.674854 9.456918 -6.108288
v 5.740932 9.977096 -5.995713
v -6.108835 9.554317 -5.333877
v -6.768772 9.280446 -5.828998
v 6.063689 9.760284 -5.705974
v 5.617758 9.913211 -5.654688
v -6.889763 9.215554 -6.060314
v -7.463997 8.058196 -6.500000
v 6.601192 9.430526 -5.808167
v 6.898000 9.207526 -6.051991
v -5.590148 10.033187 -6.055404
v -5.165322 9.947620 -5.541726
v 7.086787 8.902169 -5.951878
v 6.404186 9.551936 -5.705317
v -5.378124 -1.532454 -5.869415
v -5.728458 -1.713668 -5.910308
v -5.865806 -2.234393 -5.822801
v -6.291059 -2.972012 -5.776653
v -7.013245 -2.903108 -6.512470
v -5.614442 -3.190052 -5.371874
v -7.131308 -4.023525 -6.205759
v -5.940501 -3.650546 -5.259371
v -6.606720 -3.427958 -5.820043
v -5.444127 -3.659376 -5.094554
v -7.500000 0.000000 -8.500000
v -5.000000 3.571965 -5.093866
v -5.000000 2.367798 -5.615584
v -5.000000 0.873643 -5.944918
v -5.000000 -0.819471 -5.952885
v -5.000000 -2.158099 -5.678626
v -5.000000 -3.570441 -5.091055
v -5.284170 -4.236953 -4.710872
v -5.955851 -4.334958 -4.854536
v -6.675425 -4.590371 -5.228942
v -7.031849 -4.816725 -5.560749
v -7.353117 -5.163323 -6.068822
v -7.487982 -5.510780 -6.578152
v -6.420644 6.108890 -4.465937
v -5.694349 6.006297 -4.133226
v -7.355833 5.850684 -5.765898
v -7.158890 5.804584 -5.330444
v -5.409617 5.617976 -4.134266
v -6.805511 5.598159 -4.898656
v -5.852205 5.643624 -4.246502
v -5.626229 5.344329 -4.251339
v -7.250401 5.494538 -5.612307
v -6.528791 5.172446 -4.783537
v -6.852058 5.227069 -5.086997
v -5.874918 4.972285 -4.471191
v -7.411289 5.405257 -6.133070
v -5.836983 4.646989 -4.614669
v -5.000000 5.924354 -4.042905
v -5.000000 5.150964 -4.231730
v -5.000000 4.226570 -4.695652
v -5.808335 4.302725 -4.807286
v -6.267832 4.421702 -4.981694
v 4.867355 -17.464497 -4.790436
v 2.976902 -18.581355 -5.428142
v 5.315340 -10.166020 -4.024010
v 6.721312 -4.911803 -5.085982
v 7.418640 -6.023395 -5.930216
v 5.000000 3.376466 -5.192499
v 6.652056 4.014917 -5.564329
v 5.495131 0.942054 -5.988335
v 5.331330 -0.799489 -5.978798
v 7.030264 -3.741288 -6.177640
v 7.481576 7.648700 -6.215829
v 5.502923 5.718204 -4.129052
v 7.409928 8.305373 -6.500000
v 6.116535 8.726436 -4.546480
v 3.123730 -18.703084 -5.782517
v 5.687520 -10.166020 -4.097230
v 6.427254 -4.813751 -4.868054
v 7.268038 -5.999019 -5.507128
v 5.000000 4.226570 -4.695652
v 7.322335 4.399165 -6.435564
v 7.473586 1.431321 -8.032286
v 7.350863 -0.853732 -7.612500
v 7.407307 -4.034037 -6.906419
v 7.500000 7.648700 -6.500000
v 7.153739 6.028142 -5.270794
v 7.471171 8.027270 -6.500000
v 6.981923 8.073047 -5.043747
v 3.318668 -18.277847 -5.009461
v 6.014031 -10.166020 -4.217301
v 5.595383 -4.741830 -4.481202
v 5.564939 -5.778594 -4.132630
v 5.346914 4.241455 -4.717473
v 7.288581 3.534696 -6.771353
v 6.561385 2.240030 -6.227703
v 7.456840 -1.613067 -7.905421
v 6.267833 -2.908820 -5.784352
v 7.500000 6.480741 -6.500000
v 6.994413 6.048223 -5.028701
v 6.516521 4.768487 -4.965740
v 6.196685 8.368846 -4.433935
v 2.899834 -17.806640 -4.488162
v 6.348001 -10.166020 -4.397176
v 5.852724 -4.572982 -4.659976
v 7.469585 -5.867450 -6.231840
v 5.687520 4.281364 -4.775972
v 7.063926 3.650243 -6.272883
v 5.746708 1.172518 -6.026029
v 6.730284 -0.741702 -6.665819
v 7.263311 -2.764140 -6.996261
v 7.479172 6.480741 -6.184255
v 6.743703 5.893424 -4.765110
v 5.401542 4.601701 -4.510701
v 6.739069 8.069861 -4.762297
v 3.049812 -16.986579 -4.097230
v 6.650883 -10.166020 -4.625550
v 5.315745 -4.560276 -4.516693
v 6.321137 -5.772464 -4.452415
v 5.927076 4.327508 -4.843615
v 6.854148 3.900588 -5.849732
v 6.787875 2.418981 -6.388477
v 6.267019 -0.867597 -6.297124
v 7.176081 -2.982265 -6.747221
v 7.434509 6.480741 -5.935061
v 6.400389 5.978013 -4.471858
v 7.067337 5.261237 -5.372278
v 5.758134 8.473395 -4.269261
v 3.275571 -17.751550 -4.485576
v 6.854439 -10.166020 -4.824576
v 5.000000 -6.042850 -4.026244
v 7.153739 -5.671969 -5.356403
v 6.100985 4.370549 -4.906708
v 6.267443 3.766773 -5.382140
v 7.326008 1.538941 -7.445870
v 5.618518 -0.348973 -6.068265
v 5.925887 -2.475654 -5.767548
v 7.364864 6.480741 -5.691665
v 6.100279 5.978263 -4.292266
v 6.759334 5.119601 -5.028501
v 6.460988 8.205897 -4.555486
v 3.470098 -18.614534 -5.692702
v 7.068017 -10.166020 -5.099186
v 5.000000 -5.609902 -4.096762
v 6.579348 -5.666430 -4.663056
v 6.267833 4.421702 -4.981694
v 7.500000 1.273527 -8.407257
v 5.803891 1.654964 -5.949267
v 7.262525 0.076911 -7.436219
v 5.579678 -2.567242 -5.618297
v 7.270953 6.480741 -5.456563
v 5.837742 6.115848 -4.164923
v 6.170022 4.839187 -4.678508
v 5.285868 8.372972 -4.127527
v 3.656739 -18.193730 -4.995258
v 7.256292 -10.166020 -5.428495
v 5.000000 -5.188038 -4.216958
v 6.043437 -5.659768 -4.320268
v 6.638121 4.573814 -5.204670
v 7.500000 0.000000 -8.500000
v 6.229311 2.445610 -5.929406
v 7.397650 0.641879 -7.765399
v 6.005731 -2.105603 -5.920821
v 7.136313 6.480741 -5.205727
v 5.440342 6.086669 -4.063623
v 5.717282 4.863608 -4.463331
v 5.511856 8.410167 -4.181234
v 3.649944 -17.465146 -4.363687
v 7.399687 -10.166020 -5.813363
v 5.000000 -4.710373 -4.417548
v 7.004418 -5.514810 -5.173565
v 6.874450 4.705085 -5.397097
v 7.500000 -1.427644 -8.385982
v 6.069019 1.823777 -6.019321
v 7.102165 -0.591105 -7.124708
v 6.507507 -2.816770 -5.993006
v 6.936917 6.480741 -4.920652
v 5.000000 4.567317 -4.488243
v 7.383817 5.812003 -5.861301
v 5.921185 8.209910 -4.248190
v 3.860588 -18.448139 -5.514743
v 7.481576 -10.166020 -6.215829
v 5.000000 -4.226570 -4.695652
v 6.799623 -5.604793 -4.890074
v 7.051909 4.830592 -5.581076
v 7.500000 -3.635134 -7.799838
v 7.223106 2.780584 -6.908583
v 5.919130 -0.287680 -6.167471
v 6.960054 -2.772626 -6.479552
v 6.767200 6.480741 -4.732800
v 5.000000 4.964032 -4.301070
v 6.440016 5.105836 -4.738119
v 6.243459 7.961820 -4.359042
v 4.258885 -18.514142 -6.247242
v 5.000000 -6.480740 -4.000000
v 5.440908 -4.249113 -4.728697
v 5.837502 -5.354985 -4.318603
v 7.199125 4.967961 -5.782445
v 5.000000 -3.523080 -5.118530
v 5.818585 2.436392 -5.741508
v 6.916298 -0.048167 -6.892462
v 6.686097 -2.504977 -6.260105
v 6.579348 6.480741 -4.563083
v 5.000000 5.301440 -4.178629
v 5.927076 5.067330 -4.452594
v 5.793622 8.022222 -4.163971
v 4.223780 -18.237780 -5.342880
v 5.533770 -6.480740 -4.059905
v 5.687520 -4.281363 -4.775972
v 5.346914 -5.385689 -4.181928
v 7.320887 5.112979 -5.995024
v 5.000000 -2.930460 -5.401408
v 5.712466 3.180550 -5.407677
v 6.474849 -0.138289 -6.479956
v 7.365524 -2.457084 -7.359120
v 6.375290 6.480741 -4.413240
v 5.000000 5.609902 -4.096762
v 7.153739 5.646407 -5.365139
v 5.349380 8.079776 -4.065391
v 3.954352 -17.761663 -4.647941
v 5.925887 -6.480740 -4.182091
v 5.927076 -4.327508 -4.843615
v 7.270953 -5.558186 -5.635099
v 7.402771 5.247979 -6.192919
v 5.000000 -2.367798 -5.615584
v 6.971438 2.589777 -6.557211
v 7.080735 0.613264 -7.094452
v 7.460419 -2.737237 -7.651096
v 6.042098 6.480741 -4.231962
v 5.000000 5.923911 -4.039751
v 6.171154 5.160770 -4.536975
v 5.440908 10.108699 -6.500000
v 4.327653 -18.321698 -5.602887
v 6.373525 -6.480740 -4.415919
v 6.157120 -4.387073 -4.930931
v 6.266205 -5.404342 -4.512068
v 7.459998 5.386956 -6.396641
v 5.000000 -1.788992 -5.781245
v 7.431384 3.215999 -7.353153
v 5.641451 0.327157 -6.077180
v 5.471632 -1.605571 -5.869654
v 5.656673 6.480741 -4.090072
v 5.440908 7.648700 -4.040002
v 5.362620 5.047744 -4.296584
v 5.687520 10.051471 -6.500000
v 4.382191 -17.682915 -4.738674
v 6.675424 -6.480740 -4.645561
v 6.452778 -4.490393 -5.082385
v 7.364864 -5.584234 -5.876608
v 7.487173 5.492894 -6.551935
v 5.000000 -1.307296 -5.884374
v 7.393294 2.489878 -7.429831
v 6.813037 0.744481 -6.746531
v 7.466792 -0.568950 -8.069554
v 5.315745 6.480741 -4.020828
v 5.777891 7.648700 -4.126425
v 7.289310 5.827218 -5.590386
v 6.014031 9.931399 -6.500000
v 4.681183 -18.092673 -5.456563
v 6.874450 -6.480740 -4.849117
v 6.675424 -4.590371 -5.228942
v 6.579348 -5.225721 -4.803302
v 7.500000 5.635427 -6.760870
v 5.000000 -0.655885 -5.967254
v 5.525595 2.589912 -5.600141
v 7.173222 1.669074 -7.096772
v 7.250401 -1.481315 -7.285463
v 5.000000 6.480741 -4.000000
v 6.043437 7.648700 -4.229047
v 6.975671 5.684405 -5.081872
v 6.294273 9.785014 -6.500000
v 4.457297 -18.025152 -5.165218
v 7.086760 -6.480740 -5.124710
v 6.915689 -4.732155 -5.436781
v 6.821433 -5.206598 -5.056778
v 6.936917 -5.992775 -4.963285
v 5.000000 0.000000 -5.999200
v 6.121506 3.147372 -5.598568
v 6.607951 0.333741 -6.575566
v 7.075369 -1.445020 -6.988934
v 6.170022 -3.917516 -5.236466
v 6.348001 7.648700 -4.397176
v 6.783412 5.539069 -4.892235
v 6.530265 9.625640 -6.500000
v 3.479778 -16.614234 -4.040002
v 7.215189 -6.480740 -5.342880
v 7.086760 -4.860392 -5.624760
v 6.307917 -5.062920 -4.662355
v 6.767200 -5.978553 -4.774556
v 5.000000 0.437755 -5.986413
v 7.463213 4.315297 -7.056957
v 6.005554 0.308321 -6.203739
v 6.724410 -1.706302 -6.510842
v 6.490310 -3.599773 -5.639255
v 6.579348 7.648700 -4.563083
v 6.560451 5.479915 -4.699827
v 6.743703 9.437129 -6.500000
v 4.364181 -17.475197 -4.563083
v 7.320887 -6.480740 -5.572924
v 7.256292 -5.031588 -5.875713
v 6.043437 -5.050882 -4.512877
v 6.477319 -6.062910 -4.514514
v 5.000000 1.036739 -5.925779
v 6.717009 3.252212 -6.011606
v 6.245756 0.724753 -6.298266
v 6.452287 -1.733504 -6.270658
v 5.983755 -3.324899 -5.450047
v 6.852058 7.648700 -4.826726
v 6.321561 5.579452 -4.496619
v 6.936917 9.228049 -6.500000
v 4.149955 -16.917303 -4.204080
v 7.409928 -6.480740 -5.843327
v 7.392529 -5.231094 -6.168166
v 5.777891 -4.976604 -4.432058
v 6.085892 -6.051325 -4.276824
v 5.000000 1.522356 -5.843054
v 6.430215 3.127965 -5.809051
v 6.971656 1.676550 -6.799671
v 5.701921 -1.274332 -5.992448
v 7.213767 -4.147982 -6.303738
v 7.150974 7.648700 -5.233795
v 5.999644 5.526931 -4.335773
v 7.086760 9.023990 -6.500000
v 7.479172 -6.480740 -6.184255
v 7.473586 -5.439926 -6.474288
v 5.378326 -4.957000 -4.336597
v 5.808336 -5.943150 -4.176591
v 5.000000 1.948400 -5.741667
v 5.389965 3.002991 -5.406542
v 6.721035 1.358958 -6.572234
v 6.929124 -1.609591 -6.753568
v 6.852058 -3.924275 -5.837515
v 7.353118 7.648700 -5.662258
v 5.564214 5.369113 -4.230771
v 7.215189 8.805820 -6.500000
v 4.916638 -17.852691 -5.273879
v 6.141797 -17.114829 -5.782718
v 6.139234 -16.071335 -4.732800
v 5.872134 -14.915556 -4.229047
v 6.811228 -16.375510 -6.500000
v 7.500000 -13.851300 -6.500000
v -7.075291 -14.144176 -5.124710
v -6.971970 -15.799944 -5.737091
v -6.004316 -16.238038 -4.713259
v -5.275673 -16.920250 -4.614327
v -4.835758 -17.901097 -5.280701
v -3.313992 -18.758201 -6.168873
v -3.413666 -18.675017 -5.842925
v -3.348763 -18.119310 -4.824576
v -3.444755 -18.379035 -5.192083
v -4.652535 -18.233404 -5.752313
v -5.525782 -17.228752 -5.053374
v -6.470451 -16.774734 -5.935786
v -6.044995 -15.005140 -4.328616
v 2.500000 -18.851300 -6.500000
v 7.399687 -13.851300 -5.813363
v 7.117283 -15.763829 -6.500000
v 7.084601 -15.083162 -5.414108
v 6.555100 -16.125788 -5.233795
v 6.323542 -17.004186 -6.067511
v 5.226445 -18.013269 -6.184255
v 5.057128 -17.567097 -5.020782
v 6.026240 -17.099622 -5.514743
v 6.682141 -15.811456 -5.178439
v 6.588021 -14.683881 -4.645561
v 6.397757 -16.976330 -6.500000
v -0.000000 -16.698214 -4.026414
v -7.381525 -14.298350 -5.812481
v -5.716837 -15.023185 -4.179113
v -4.960569 -14.953908 -4.010422
v -4.903231 -16.156867 -4.145378
v -4.643964 -17.820310 -5.020782
v -3.363914 -17.039833 -4.135136
v -3.647463 -18.163167 -4.958201
v 4.656067 -17.002724 -4.379751
v 5.900359 -16.814607 -5.022681
v 6.838381 -15.958026 -5.587905
v 6.951670 -14.780488 -5.072746
v 6.034944 -17.386244 -6.500000
v -0.000000 -17.508420 -4.284811
v -7.427402 -14.484839 -6.121795
v -5.182177 -15.049086 -4.040002
v -6.353127 -16.743341 -5.572924
v -5.598352 -17.734031 -6.137319
v -4.345187 -17.194535 -4.379751
v -3.098976 -17.568722 -4.346261
v -3.241827 -18.595049 -5.537235
v 5.297471 -17.614941 -5.301557
v 5.485468 -16.626245 -4.563083
v 6.975726 -15.850555 -5.812481
v 7.272378 -14.665361 -5.632294
v 5.625031 -17.749057 -6.500000
v -0.000000 -17.828619 -4.488162
v -7.294817 -14.736676 -5.737211
v -6.510597 -15.798675 -4.951820
v -6.249437 -16.666586 -5.301557
v -5.305014 -17.661028 -5.378847
v -4.164820 -17.040105 -4.256929
v -3.012419 -18.513456 -5.301557
v -2.929268 -18.787736 -6.051805
v 4.819256 -17.142407 -4.524329
v 5.324402 -16.456690 -4.397176
v 7.004962 -15.937994 -6.106089
v 7.356320 -14.840356 -6.059658
v 5.024210 -18.162528 -6.500000
v -0.000000 -18.183348 -4.802185
v -7.233944 -14.350796 -5.443199
v -6.612281 -15.953020 -5.178863
v -6.109321 -16.626436 -5.079356
v -5.246151 -17.278899 -4.872614
v -4.293451 -17.843769 -4.854730
v -2.994810 -17.848098 -4.524329
v -2.985835 -18.260049 -4.920652
v 4.612308 -16.692633 -4.229047
v 6.216367 -16.747639 -5.342880
v 6.404967 -15.950025 -4.920652
v 6.775638 -14.865411 -4.872614
v 4.496561 -18.432873 -6.500000
v -0.000000 -18.435381 -5.126475
v -6.497018 -14.345690 -4.524964
v -6.801495 -15.867769 -5.428142
v -5.368423 -16.023400 -4.256929
v -4.373346 -16.149985 -4.047160
v -3.907809 -16.907470 -4.157124
v -4.318551 -15.800560 -4.008018
v -2.963776 -17.331957 -4.217301
v 4.078448 -16.326057 -4.040002
v 5.073403 -15.914528 -4.135136
v 6.090268 -15.780889 -4.563083
v 6.159060 -14.736834 -4.346261
v 3.896058 -18.650060 -6.500000
v -0.000000 -18.673564 -5.589336
v -6.176624 -14.478739 -4.328275
v -6.883770 -16.207274 -6.184458
v -4.875680 -15.570661 -4.040002
v -4.966906 -17.264832 -4.683874
v -3.863638 -17.571115 -4.476205
v -3.719866 -18.697845 -6.500000
v -3.182475 -18.802189 -6.500000
v 4.350021 -16.358738 -4.081360
v 5.427594 -15.938000 -4.256929
v 5.659265 -15.511642 -4.243708
v 5.103772 -14.797609 -4.016827
v 3.317549 -18.779782 -6.500000
v -0.000000 -18.831695 -6.231941
v -7.141602 -14.664989 -5.343622
v -6.982426 -15.952318 -6.028367
v -5.083540 -15.758210 -4.107472
v -5.088860 -17.612904 -5.098728
v -4.030003 -18.175706 -5.131744
v -4.744467 -18.316660 -6.500000
v -4.242620 -18.535352 -6.500000
v 4.534589 -16.488813 -4.145378
v 5.689729 -16.046400 -4.413240
v 6.859650 -15.680707 -5.370947
v 7.119000 -14.617511 -5.287524
v 3.807178 -15.949430 -4.000000
v 2.500000 -16.351300 -4.000000
v -6.680210 -14.476007 -4.700086
v -6.404227 -15.502200 -4.711558
v -5.630825 -16.696741 -4.700376
v -5.471162 -17.772751 -5.888993
v -4.064539 -18.304829 -5.356914
v -5.518206 -17.834704 -6.500000
v -5.181770 -18.070277 -6.500000
v 5.603068 -17.511803 -5.529446
v 6.513337 -16.402356 -5.428495
v 5.271946 -15.149471 -4.065491
v 5.407738 -14.568544 -4.052747
v 4.635267 -15.108717 -4.000000
v 2.500000 -16.541072 -4.008018
v -6.890533 -14.724052 -4.977818
v -6.103975 -15.391128 -4.448699
v -5.734541 -16.938453 -4.972680
v -4.891121 -16.791097 -4.363006
v -4.141222 -18.390216 -5.595257
v -6.400359 -16.978416 -6.500000
v -6.032586 -17.383886 -6.500000
v 5.701803 -17.558798 -5.812481
v 6.561575 -16.701334 -6.090666
v 5.531999 -15.146861 -4.135136
v 7.441853 -14.440795 -6.184255
v 5.000000 -13.851300 -4.000000
v 2.500000 -16.792208 -4.040002
v -7.174038 -15.073254 -5.602887
v -6.159784 -15.927844 -4.678567
v -6.120246 -17.094050 -5.692702
v -4.701342 -16.622764 -4.229047
v -4.235107 -18.451600 -5.873771
v -7.064486 -15.890203 -6.500000
v -6.798285 -16.394318 -6.500000
v 5.695375 -17.655543 -6.129587
v 6.428437 -16.688785 -5.647276
v 6.439809 -15.472178 -4.732800
v 7.393088 -14.367255 -5.889194
v 5.315745 -13.851300 -4.020828
v 2.500000 -17.158598 -4.138171
v -7.325602 -14.972512 -6.043669
v -5.377079 -15.205049 -4.097230
v -5.861506 -16.649271 -4.848595
v -5.090453 -18.096480 -6.168873
v -3.743683 -16.371211 -4.020828
v -7.358898 -15.027209 -6.500000
v -7.215092 -15.508101 -6.500000
v 5.253463 -17.222084 -4.824576
v 6.204130 -16.552872 -5.124710
v 6.668931 -15.359092 -4.920652
v 7.299997 -14.290884 -5.572924
v 5.564939 -13.851300 -4.065491
v 2.500000 -17.535708 -4.300875
v -6.408487 -14.846025 -4.529649
v -5.486443 -15.610909 -4.197469
v -5.584171 -16.290026 -4.454423
v -5.166159 -17.880227 -5.610100
v -3.830574 -17.841647 -4.678567
v -4.327104 -15.380025 -4.000000
v -7.450890 -14.533775 -6.500000
v 5.115623 -17.055899 -4.614936
v 6.006132 -16.442934 -4.837922
v 6.832398 -15.373193 -5.138354
v 7.028222 -14.286852 -5.072746
v 5.837742 -13.851300 -4.146882
v 2.500000 -17.928621 -4.565569
v -5.766813 -14.516631 -4.146882
v -5.920858 -15.886280 -4.490262
v -6.121157 -17.232158 -6.055762
v -4.815598 -17.531071 -4.818702
v -3.756498 -18.657471 -6.129587
v -2.500000 -16.667045 -4.020828
v -2.500000 -16.351300 -4.000000
v 6.006663 -17.357963 -6.059092
v 5.794360 -16.254009 -4.563083
v 7.060166 -15.477086 -5.632294
v 6.822971 -14.346350 -4.824576
v 6.157120 -13.851300 -4.284811
v 2.500000 -18.205738 -4.824576
v -6.602012 -15.199415 -4.790160
v -6.706165 -16.524857 -6.247323
v -5.886192 -17.085505 -5.287524
v -4.766522 -17.144813 -4.504318
v -3.732794 -18.564697 -5.722109
v -2.500000 -17.159635 -4.135136
v -2.500000 -16.916239 -4.065491
v 5.796192 -17.177730 -5.287524
v 4.963922 -15.710668 -4.072649
v 5.992931 -15.385331 -4.379751
v 6.403159 -14.517413 -4.476205
v 6.452778 -13.851300 -4.468150
v 2.500000 -18.383150 -5.047222
v -7.055843 -15.452145 -5.602887
v -6.703738 -16.417144 -5.904416
v -5.344675 -16.594559 -4.467492
v -4.290586 -16.555848 -4.116183
v -3.708235 -18.471909 -5.470949
v -2.500000 -17.828619 -4.488162
v -2.500000 -17.479646 -4.271590
v 5.562142 -17.176226 -5.034002
v 4.726119 -15.706280 -4.034416
v 7.237110 -15.371371 -6.184255
v 6.011584 -14.302738 -4.229047
v 6.675424 -13.851300 -4.645561
v 2.500000 -18.566489 -5.342880
v -7.187729 -15.402872 -5.966230
v -6.671967 -16.294206 -5.617591
v -5.167111 -16.328232 -4.279622
v -4.932699 -18.141080 -5.943397
v -3.625347 -17.469246 -4.362325
v -2.500000 -18.365724 -5.020782
v -2.500000 -18.139728 -4.756297
v 5.063039 -16.608786 -4.346261
v 4.420383 -15.743588 -4.010422
v 7.174035 -15.421882 -5.935061
v 5.777959 -14.447623 -4.145378
v 6.854439 -13.851300 -4.824576
v 2.500000 -18.672187 -5.572924
v -6.974895 -15.120441 -5.236065
v -6.511826 -16.274777 -5.294540
v -5.879253 -17.388672 -5.782036
v -4.352774 -17.556491 -4.619939
v -3.638363 -17.245876 -4.250319
v -2.500000 -18.633999 -5.485969
v -2.500000 -18.505038 -5.232168
v 5.536638 -16.860387 -4.744549
v 6.819440 -16.327536 -6.199961
v 6.314737 -15.192992 -4.539338
v 7.455053 -14.488305 -6.500000
v 7.084081 -13.851300 -5.126475
v 2.500000 -18.754070 -5.812481
v -5.396074 -14.495968 -4.047160
v -6.339365 -16.242720 -5.033544
v -5.552552 -17.588470 -5.587905
v -4.532462 -18.134705 -5.399721
v -3.593494 -16.697229 -4.065491
v -2.500000 -18.851300 -6.500000
v -2.500000 -18.754070 -5.812481
v 4.969750 -16.388549 -4.229047
v 6.738072 -16.332678 -5.858789
v 7.229472 -15.064693 -5.752072
v 7.309500 -15.202979 -6.500000
v 7.270953 -13.851300 -5.456563
v 2.500000 -18.824885 -6.153086
v -6.753777 -15.457426 -5.072975
v -5.713091 -15.676037 -4.308206
v -5.679165 -17.398194 -5.450708
v -4.529552 -18.395201 -6.192452
v -3.356893 -17.835046 -4.565569
v -5.315340 -10.166020 -4.024010
v -2.500000 -18.815298 -6.090504
usemtl Paint_-_Metal_Flake_(Black)
f 943 207 366
f 1264 943 366
f 1278 943 1264
f 1206 943 1278
f 1205 943 1206
f 1218 943 1205
f 1231 943 1218
f 467 1265 224
f 427 1265 467
f 404 1265 427
f 404 1251 1265
f 404 1252 1251
f 271 1252 404
f 271 1238 1252
f 270 1238 271
f 270 1239 1238
f 455 1239 270
f 430 1239 455
f 430 1225 1239
f 430 1226 1225
f 456 1226 430
f 469 1226 456
f 482 1226 469
f 482 1212 1226
f 495 1212 482
f 495 1213 1212
f 508 1213 495
f 508 1199 1213
f 521 1199 508
f 521 1200 1199
f 534 1200 521
f 547 1200 534
f 547 1186 1200
f 560 1186 547
f 560 1187 1186
f 573 1187 560
f 573 1342 1187
f 690 1342 573
f 934 335 629
f 629 921 934
f 629 908 921
f 629 335 1089
f 1089 335 334
f 499 1192 1103
f 550 1192 499
f 563 1192 550
f 563 1179 1192
f 576 1179 563
f 576 1166 1179
f 589 1166 576
f 589 1153 1166
f 602 1153 589
f 602 1140 1153
f 615 1140 602
f 628 1140 615
f 628 1127 1140
f 628 1114 1127
f 641 1114 628
f 654 1114 641
f 654 1088 1114
f 667 1088 654
f 667 1105 1088
f 680 1105 667
f 680 1347 1105
f 693 1347 680
f 693 1334 1347
f 451 1334 693
f 629 1334 451
f 629 1089 1334
f 1103 690 499
f 1342 690 1103
f 690 573 677
f 547 428 560
f 482 411 495
f 560 428 573
f 547 406 428
f 534 406 547
f 534 288 406
f 521 288 534
f 508 288 521
f 508 285 288
f 495 285 508
f 495 411 285
f 482 469 411
f 573 422 677
f 573 428 422
f 469 282 411
f 677 422 664
f 288 408 406
f 285 408 288
f 285 284 410
f 411 284 285
f 411 282 284
f 422 424 664
f 422 428 424
f 406 405 428
f 285 410 408
f 282 283 284
f 428 405 424
f 406 407 405
f 406 408 407
f 408 410 287
f 410 284 286
f 664 426 651
f 424 426 664
f 405 426 424
f 408 287 407
f 410 286 287
f 284 412 286
f 284 283 412
f 405 290 426
f 407 290 405
f 407 287 290
f 426 429 651
f 426 290 429
f 286 409 287
f 412 409 286
f 283 413 412
f 283 414 413
f 651 429 638
f 290 289 429
f 287 289 290
f 287 409 289
f 412 413 409
f 289 515 429
f 409 502 289
f 429 515 638
f 289 502 515
f 409 489 502
f 409 413 489
f 413 476 489
f 278 463 476
f 414 476 413
f 280 476 414
f 280 278 476
f 276 463 278
f 276 437 463
f 274 437 276
f 272 437 274
f 272 448 437
f 272 487 448
f 474 487 272
f 279 278 280
f 277 276 278
f 420 274 276
f 423 272 274
f 415 280 414
f 415 279 280
f 277 278 279
f 420 276 277
f 423 274 420
f 461 474 272
f 282 414 283
f 415 414 282
f 419 420 277
f 425 272 423
f 425 461 272
f 417 277 279
f 419 277 417
f 421 420 419
f 421 423 420
f 425 423 421
f 281 415 282
f 416 415 281
f 416 279 415
f 416 417 279
f 273 425 421
f 435 461 425
f 418 417 416
f 275 273 421
f 273 435 425
f 418 419 417
f 271 419 418
f 271 421 419
f 275 421 271
f 427 435 273
f 456 282 469
f 456 281 282
f 455 416 281
f 270 416 455
f 270 418 416
f 467 435 427
f 430 281 456
f 430 455 281
f 404 275 271
f 404 273 275
f 404 427 273
f 528 638 515
f 270 271 418
f 460 599 434
f 460 612 599
f 434 651 586
f 434 599 651
f 625 499 690
f 486 499 625
f 541 638 528
f 586 638 541
f 677 625 690
f 664 625 677
f 664 612 625
f 664 599 612
f 651 599 664
f 638 586 651
f 434 586 541
f 473 612 460
f 473 625 612
f 486 625 473
f 629 454 616
f 451 454 629
f 451 496 454
f 693 496 451
f 667 574 680
f 667 626 574
f 654 626 667
f 654 691 626
f 641 691 654
f 628 497 641
f 693 680 496
f 680 574 548
f 641 497 691
f 454 431 616
f 680 548 496
f 574 561 548
f 574 639 561
f 626 639 574
f 626 691 639
f 691 484 665
f 497 484 691
f 616 431 603
f 454 457 431
f 496 457 454
f 496 509 457
f 496 548 509
f 691 665 639
f 548 561 509
f 639 613 561
f 639 652 613
f 665 652 639
f 665 453 652
f 484 453 665
f 484 471 453
f 431 590 603
f 431 457 590
f 457 470 590
f 509 522 457
f 561 522 509
f 453 678 652
f 471 458 453
f 457 522 470
f 561 587 522
f 613 587 561
f 652 587 613
f 652 678 587
f 453 458 678
f 590 470 577
f 470 483 577
f 522 483 470
f 522 535 483
f 587 535 522
f 587 600 535
f 587 432 600
f 678 432 587
f 678 458 432
f 577 483 606
f 483 593 606
f 535 593 483
f 600 593 535
f 432 580 600
f 498 541 554
f 640 554 567
f 679 554 640
f 679 498 554
f 537 541 498
f 588 567 523
f 588 640 567
f 472 498 679
f 537 498 472
f 434 541 537
f 627 640 588
f 588 523 549
f 627 679 640
f 692 679 627
f 692 472 679
f 537 472 459
f 460 434 537
f 575 588 549
f 575 627 588
f 692 459 472
f 524 537 459
f 524 460 537
f 536 549 471
f 575 549 536
f 601 627 575
f 653 627 601
f 653 692 627
f 473 460 524
f 433 692 653
f 433 459 692
f 433 524 459
f 484 536 471
f 562 575 536
f 562 601 575
f 666 433 653
f 485 524 433
f 511 524 485
f 511 473 524
f 510 536 484
f 614 601 562
f 614 653 601
f 666 653 614
f 452 433 666
f 485 433 452
f 486 473 511
f 615 536 510
f 615 562 536
f 602 562 615
f 602 614 562
f 589 666 614
f 576 452 666
f 550 511 485
f 499 486 511
f 628 510 497
f 628 615 510
f 602 589 614
f 576 666 589
f 563 452 576
f 563 485 452
f 563 550 485
f 499 511 550
f 510 484 497
f 549 458 471
f 523 458 549
f 523 432 458
f 567 432 523
f 567 580 432
f 593 600 580
f 634 564 606
f 908 686 609
f 512 686 908
f 525 686 512
f 525 673 686
f 538 673 525
f 538 660 673
f 551 660 538
f 551 647 660
f 564 647 551
f 564 634 647
f 616 908 629
f 616 512 908
f 616 525 512
f 603 525 616
f 603 538 525
f 590 538 603
f 577 551 590
f 577 564 551
f 606 564 577
f 551 538 590
f 655 644 642
f 681 694 450
f 450 668 681
f 779 605 450
f 655 642 487
f 779 694 467
f 448 642 696
f 642 644 696
f 655 631 644
f 668 631 655
f 668 618 631
f 668 605 618
f 450 605 668
f 487 642 448
f 474 655 487
f 474 668 655
f 461 668 474
f 461 681 668
f 435 681 461
f 467 681 435
f 467 694 681
f 694 779 450
f 481 605 779
f 475 696 644
f 475 683 696
f 449 683 475
f 449 670 683
f 617 670 449
f 552 657 670
f 617 552 670
f 526 657 552
f 438 657 526
f 438 464 657
f 566 475 644
f 462 449 475
f 682 617 449
f 591 552 617
f 631 566 644
f 527 475 566
f 501 475 527
f 462 475 501
f 462 682 449
f 695 682 462
f 643 617 682
f 643 591 617
f 526 552 591
f 447 438 526
f 579 566 631
f 527 566 579
f 604 526 591
f 513 447 526
f 695 643 682
f 604 591 643
f 565 526 604
f 513 526 565
f 697 447 513
f 618 579 631
f 540 527 579
f 540 501 527
f 488 462 501
f 436 695 462
f 656 643 695
f 656 604 643
f 500 697 513
f 592 579 618
f 540 579 592
f 514 501 540
f 488 501 514
f 436 462 488
f 656 695 436
f 630 604 656
f 630 565 604
f 539 513 565
f 684 697 500
f 553 540 592
f 514 540 553
f 669 656 436
f 669 630 656
f 578 565 630
f 578 539 565
f 539 500 513
f 687 436 488
f 635 618 605
f 635 592 618
f 648 553 592
f 674 488 514
f 674 687 488
f 700 436 687
f 700 669 436
f 444 578 630
f 444 539 578
f 441 500 539
f 441 684 500
f 635 605 481
f 635 648 592
f 661 514 553
f 661 674 514
f 443 669 700
f 443 630 669
f 444 630 443
f 442 539 444
f 442 441 539
f 468 684 441
f 553 648 661
f 696 657 464
f 670 657 696
f 683 670 696
f 448 463 437
f 476 463 448
f 448 489 476
f 502 489 448
f 448 515 502
f 528 515 448
f 464 448 696
f 464 528 448
f 466 528 464
f 541 528 466
f 593 634 606
f 593 621 634
f 621 595 608
f 621 466 595
f 567 593 580
f 554 593 567
f 541 593 554
f 466 593 541
f 466 621 593
f 447 645 632
f 658 645 447
f 684 468 671
f 671 468 622
f 658 697 684
f 440 466 619
f 619 466 464
f 632 440 619
f 645 440 632
f 445 440 645
f 699 671 622
f 699 658 671
f 445 658 699
f 445 645 658
f 464 632 619
f 438 632 464
f 438 447 632
f 658 447 697
f 671 658 684
f 633 621 608
f 477 634 621
f 556 595 466
f 672 633 608
f 607 621 633
f 529 477 621
f 634 477 647
f 556 466 440
f 517 595 556
f 439 608 595
f 607 529 621
f 529 647 477
f 439 595 517
f 439 672 608
f 607 633 672
f 542 529 607
f 542 647 529
f 698 672 439
f 646 607 672
f 660 647 542
f 582 556 440
f 530 556 582
f 530 517 556
f 530 439 517
f 478 439 530
f 646 672 698
f 581 607 646
f 581 542 607
f 503 660 542
f 445 582 440
f 478 698 439
f 555 542 581
f 555 503 542
f 491 478 530
f 465 698 478
f 685 698 465
f 685 646 698
f 659 646 685
f 594 581 646
f 594 555 581
f 503 673 660
f 543 530 582
f 543 491 530
f 491 465 478
f 659 594 646
f 490 503 555
f 490 673 503
f 686 673 490
f 569 445 699
f 569 582 445
f 569 543 582
f 446 685 465
f 620 594 659
f 568 594 620
f 568 555 594
f 516 555 568
f 516 490 555
f 504 543 569
f 504 491 543
f 504 465 491
f 620 659 685
f 557 568 620
f 505 465 504
f 505 446 465
f 518 685 446
f 531 685 518
f 531 620 685
f 583 516 568
f 622 569 699
f 479 569 622
f 479 504 569
f 492 504 479
f 492 505 504
f 505 518 446
f 544 620 531
f 544 557 620
f 570 568 557
f 583 568 570
f 596 516 583
f 596 490 516
f 596 686 490
f 609 686 596
f 596 834 609
f 596 836 834
f 596 823 836
f 583 823 596
f 583 345 823
f 583 1083 345
f 570 1083 583
f 570 1071 1083
f 557 1071 570
f 544 1071 557
f 544 1058 1071
f 544 1045 1058
f 531 1045 544
f 531 1032 1045
f 518 1032 531
f 518 1019 1032
f 505 1019 518
f 505 1006 1019
f 492 1006 505
f 492 993 1006
f 479 993 492
f 479 980 993
f 622 980 479
f 622 106 980
f 1011 834 847
f 895 908 609
f 609 1011 895
f 834 1011 609
f 107 622 468
f 106 622 107
f 441 107 468
f 441 743 107
f 442 743 441
f 442 744 743
f 444 744 442
f 444 739 744
f 443 739 444
f 443 740 739
f 700 740 443
f 700 735 740
f 687 735 700
f 687 736 735
f 674 736 687
f 674 731 736
f 674 727 731
f 661 727 674
f 661 732 727
f 648 732 661
f 648 762 732
f 635 762 648
f 635 179 762
f 481 179 635
f 467 148 779
f 224 148 467
f 224 135 148
f 394 135 224
f 179 165 178
f 481 165 179
f 481 147 165
f 481 779 147
f 166 94 235
f 1016 94 166
f 926 507 829
f 926 493 507
f 939 493 926
f 939 494 493
f 952 494 939
f 965 494 952
f 965 480 494
f 978 480 965
f 1016 480 978
f 166 480 1016
f 806 480 166
f 806 494 480
f 120 494 806
f 807 494 120
f 807 493 494
f 119 493 807
f 119 507 493
f 808 507 119
f 829 507 808
f 785 141 572
f 816 829 506
f 520 816 506
f 338 816 520
f 519 338 520
f 1076 338 519
f 533 1076 519
f 1064 1076 533
f 1051 1064 533
f 532 1051 533
f 1038 1051 532
f 1025 1038 532
f 546 1025 532
f 1012 1025 546
f 545 1012 546
f 999 1012 545
f 986 999 545
f 559 986 545
f 973 986 559
f 558 973 559
f 960 973 558
f 572 960 558
f 947 960 572
f 931 947 572
f 808 506 829
f 780 506 808
f 780 520 506
f 146 520 780
f 146 519 520
f 781 519 146
f 145 519 781
f 145 533 519
f 782 533 145
f 782 532 533
f 144 532 782
f 144 546 532
f 783 546 144
f 783 545 546
f 143 545 783
f 143 559 545
f 784 559 143
f 784 558 559
f 142 558 784
f 142 572 558
f 785 572 142
f 931 572 141
f 879 598 943
f 879 584 598
f 892 584 879
f 905 584 892
f 905 585 584
f 918 585 905
f 918 571 585
f 931 571 918
f 141 571 931
f 387 571 141
f 387 585 571
f 208 585 387
f 208 584 585
f 388 584 208
f 388 598 584
f 207 598 388
f 943 598 207
f 731 727 732
f 623 649 184
f 650 649 623
f 185 623 184
f 187 689 186
f 675 689 187
f 675 702 689
f 650 676 688
f 650 688 354
f 675 357 702
f 354 688 360
f 188 675 187
f 188 357 675
f 188 356 357
f 689 610 186
f 702 352 689
f 358 352 702
f 184 637 183
f 649 637 184
f 650 662 649
f 650 354 662
f 183 637 182
f 649 662 637
f 181 611 180
f 182 611 181
f 182 624 611
f 637 624 182
f 662 663 637
f 354 355 662
f 637 663 624
f 662 355 663
f 355 353 663
f 361 353 355
f 663 636 624
f 624 636 611
f 663 353 636
f 361 758 353
f 353 701 636
f 353 761 701
f 758 761 353
f 701 731 636
f 701 735 731
f 761 735 701
f 735 736 731
f 350 725 112
f 112 725 113
f 725 737 113
f 113 737 114
f 737 741 114
f 350 110 351
f 741 722 115
f 115 726 83
f 351 110 766
f 725 350 349
f 723 741 737
f 723 728 741
f 728 722 741
f 722 746 726
f 726 356 81
f 349 350 351
f 733 725 349
f 745 723 737
f 81 190 235
f 190 81 356
f 746 357 356
f 728 357 746
f 728 746 722
f 723 358 357
f 358 723 745
f 742 358 745
f 352 358 742
f 742 745 733
f 359 352 742
f 738 742 733
f 738 359 742
f 718 733 349
f 718 738 733
f 360 359 738
f 721 718 349
f 734 738 718
f 734 360 738
f 757 718 721
f 757 734 718
f 361 360 750
f 720 721 351
f 717 721 720
f 757 721 717
f 750 734 757
f 750 360 734
f 291 351 766
f 291 720 351
f 753 750 757
f 754 361 750
f 719 720 291
f 754 750 753
f 758 361 754
f 729 717 720
f 729 757 717
f 753 757 729
f 765 291 108
f 765 719 291
f 729 720 719
f 724 719 765
f 729 719 724
f 749 753 729
f 749 754 753
f 730 754 749
f 730 758 754
f 765 108 107
f 749 729 724
f 761 758 730
f 743 765 107
f 743 724 765
f 735 761 740
f 188 189 356
f 610 185 186
f 676 689 352
f 676 610 689
f 688 676 352
f 650 610 676
f 623 610 650
f 623 185 610
f 179 597 762
f 597 179 180
f 732 762 597
f 611 732 597
f 636 732 611
f 636 731 732
f 611 597 180
f 739 740 730
f 730 740 761
f 749 739 730
f 749 744 739
f 724 744 749
f 743 744 724
f 728 723 357
f 737 733 745
f 725 733 737
f 351 721 349
f 109 291 766
f 109 108 291
f 766 110 109
f 356 189 190
f 111 350 112
f 111 110 350
f 726 746 356
f 115 722 726
f 114 741 115
f 726 81 83
f 355 360 361
f 354 360 355
f 688 359 360
f 688 352 359
f 357 358 702
f 1006 993 747
f 993 756 747
f 752 1006 747
f 752 1019 1006
f 1032 1019 752
f 752 747 759
f 763 1032 752
f 755 1032 763
f 768 752 759
f 763 752 768
f 707 768 759
f 764 755 763
f 102 705 751
f 707 759 711
f 709 764 763
f 767 764 709
f 708 768 707
f 708 763 768
f 709 763 708
f 292 707 711
f 708 707 292
f 712 709 708
f 823 714 836
f 293 709 712
f 293 767 709
f 293 710 767
f 704 1083 1071
f 713 823 345
f 714 823 713
f 298 708 292
f 712 708 298
f 293 712 295
f 296 710 293
f 297 292 294
f 298 292 297
f 99 98 301
f 295 712 298
f 764 1071 1058
f 767 1071 764
f 704 1071 767
f 299 821 714
f 303 298 297
f 307 298 303
f 307 295 298
f 304 293 295
f 304 296 293
f 824 297 302
f 306 297 824
f 303 297 306
f 304 295 307
f 308 296 304
f 299 296 308
f 308 346 1081
f 837 863 1056
f 96 915 305
f 915 96 902
f 837 1069 346
f 1056 1069 837
f 105 748 106
f 104 748 105
f 104 760 748
f 751 760 104
f 715 716 705
f 715 300 716
f 301 300 715
f 301 309 300
f 305 309 301
f 106 748 980
f 305 310 309
f 305 876 310
f 915 876 305
f 902 967 915
f 93 967 902
f 748 993 980
f 748 756 993
f 760 756 748
f 751 706 760
f 705 706 751
f 716 706 705
f 716 294 706
f 716 300 294
f 309 302 300
f 309 310 302
f 306 889 303
f 850 889 306
f 941 889 850
f 954 1017 941
f 1004 1017 954
f 303 889 311
f 824 850 306
f 928 941 850
f 928 954 941
f 991 1004 954
f 967 93 95
f 902 96 93
f 305 97 96
f 305 98 97
f 305 301 98
f 715 99 301
f 715 100 99
f 705 100 715
f 705 101 100
f 705 102 101
f 751 103 102
f 104 103 751
f 991 967 95
f 954 915 967
f 928 915 954
f 928 876 915
f 824 310 876
f 294 300 302
f 711 706 294
f 759 760 706
f 759 756 760
f 714 713 299
f 704 710 713
f 704 767 710
f 1058 755 764
f 1045 755 1058
f 1032 755 1045
f 836 714 821
f 345 704 713
f 345 1083 704
f 821 834 836
f 346 1069 1081
f 311 837 307
f 311 863 837
f 1043 1056 863
f 889 863 311
f 889 1043 863
f 941 1043 889
f 941 1030 1043
f 1017 1030 941
f 311 307 303
f 837 304 307
f 346 304 837
f 308 304 346
f 1081 299 308
f 343 299 1081
f 299 343 821
f 713 296 299
f 713 710 296
f 756 759 747
f 706 711 759
f 294 292 711
f 302 297 294
f 310 824 302
f 876 850 824
f 876 928 850
f 967 991 954
f 95 94 991
f 998 1011 847
f 860 998 847
f 985 998 860
f 927 860 873
f 927 985 860
f 886 927 873
f 972 985 927
f 1005 927 886
f 959 972 927
f 899 1005 886
f 959 927 1005
f 835 899 912
f 835 1005 899
f 966 1005 835
f 966 959 1005
f 875 959 966
f 875 946 959
f 933 946 875
f 848 835 912
f 848 966 835
f 1018 966 848
f 875 966 1018
f 925 848 912
f 888 1018 1031
f 888 875 1018
f 920 875 888
f 920 933 875
f 938 848 925
f 861 848 938
f 861 1018 848
f 1031 1018 861
f 907 920 888
f 951 861 938
f 1044 1031 861
f 1044 888 1031
f 849 907 888
f 874 861 951
f 874 1044 861
f 940 888 1044
f 849 888 940
f 874 951 964
f 1057 1044 874
f 894 907 849
f 1057 940 1044
f 901 849 940
f 894 849 901
f 977 874 964
f 887 1057 874
f 979 940 1057
f 979 901 940
f 881 894 901
f 887 874 977
f 1070 1057 887
f 1070 979 1057
f 900 887 977
f 953 979 1070
f 953 901 979
f 344 887 900
f 344 1070 887
f 914 901 953
f 914 881 901
f 868 881 914
f 990 900 977
f 1082 1070 344
f 1082 953 1070
f 914 953 1082
f 913 900 990
f 913 344 900
f 822 1082 344
f 862 868 914
f 855 868 862
f 822 344 913
f 992 914 1082
f 1003 913 990
f 952 992 1082
f 992 862 914
f 842 855 862
f 978 822 913
f 965 822 978
f 965 1082 822
f 952 1082 965
f 926 862 992
f 1016 913 1003
f 978 913 1016
f 939 992 952
f 926 992 939
f 926 842 862
f 829 842 926
f 821 847 834
f 821 860 847
f 821 873 860
f 343 873 821
f 343 886 873
f 1081 886 343
f 1081 899 886
f 1069 899 1081
f 1069 912 899
f 1069 925 912
f 1056 925 1069
f 1056 938 925
f 1056 951 938
f 1043 951 1056
f 1043 964 951
f 1030 964 1043
f 1030 977 964
f 1017 977 1030
f 1004 977 1017
f 1004 990 977
f 991 990 1004
f 991 1003 990
f 94 1003 991
f 94 1016 1003
f 335 934 1073
f 934 833 1073
f 976 833 934
f 976 963 833
f 833 963 859
f 833 1068 1061
f 1061 1068 1048
f 833 872 1068
f 859 872 833
f 1048 820 1035
f 1068 820 1048
f 872 820 1068
f 872 937 820
f 1035 1080 1022
f 820 1080 1035
f 1080 1009 1022
f 820 924 1080
f 937 924 820
f 937 950 924
f 1009 1042 996
f 1080 1042 1009
f 1080 924 1042
f 1042 1029 996
f 924 846 1042
f 996 1029 983
f 1042 1055 1029
f 1042 846 1055
f 924 911 846
f 846 885 1055
f 846 911 885
f 1029 970 983
f 1029 1055 970
f 885 898 1055
f 1055 342 970
f 1055 898 342
f 898 973 342
f 898 986 973
f 973 960 342
f 911 989 885
f 1067 989 911
f 819 999 989
f 1012 999 819
f 819 989 1067
f 1041 1054 950
f 871 341 1054
f 936 341 871
f 341 911 924
f 1067 911 341
f 988 1038 884
f 988 884 936
f 1051 1038 988
f 921 895 831
f 1079 1041 937
f 871 1054 1041
f 1040 936 871
f 921 831 1002
f 1015 1028 859
f 923 858 1028
f 859 937 872
f 1079 937 859
f 858 1041 1079
f 858 871 1041
f 818 1051 988
f 831 1000 910
f 987 1000 831
f 1015 859 963
f 923 1028 1015
f 1027 962 858
f 338 1076 857
f 910 1000 883
f 949 858 923
f 1027 858 949
f 1027 1053 962
f 896 857 1053
f 896 338 857
f 895 987 831
f 832 1015 963
f 843 1000 987
f 845 976 934
f 832 963 976
f 1001 1027 949
f 922 896 1053
f 1013 338 896
f 1000 935 883
f 843 935 1000
f 883 935 1014
f 830 843 987
f 830 856 843
f 1014 974 1066
f 1014 935 974
f 843 856 935
f 856 974 935
f 856 869 1052
f 856 1052 974
f 974 1052 870
f 869 817 1052
f 1052 1065 870
f 1052 817 1065
f 817 882 1065
f 933 856 830
f 920 856 933
f 869 856 920
f 894 817 907
f 894 882 817
f 868 339 882
f 817 869 920
f 881 882 894
f 868 882 881
f 855 339 868
f 1039 998 985
f 1039 1011 998
f 1039 985 972
f 1039 972 830
f 987 1039 830
f 987 1011 1039
f 933 830 946
f 895 1011 987
f 921 908 895
f 1026 882 339
f 1026 1065 882
f 1002 831 910
f 339 855 842
f 844 870 1065
f 1066 974 870
f 816 339 842
f 844 1065 1026
f 961 339 816
f 909 844 1026
f 1066 870 844
f 897 883 1014
f 897 910 883
f 961 1026 339
f 975 897 1014
f 832 1002 910
f 816 842 829
f 909 1026 961
f 832 910 897
f 1013 961 1077
f 948 961 1013
f 948 909 961
f 1078 1066 844
f 975 1014 1066
f 845 1002 832
f 1077 961 816
f 1001 1066 1078
f 1001 975 1066
f 1061 1073 833
f 931 944 947
f 342 947 944
f 342 944 957
f 960 947 342
f 342 957 970
f 989 986 898
f 999 986 989
f 989 898 885
f 341 924 1054
f 1054 924 950
f 1025 1012 819
f 884 819 1067
f 1025 819 884
f 884 1067 341
f 936 884 341
f 1038 1025 884
f 962 871 858
f 962 1040 871
f 1040 988 936
f 1064 1051 818
f 1040 818 988
f 1028 1079 859
f 857 818 1040
f 1076 1064 818
f 858 1079 1028
f 1053 1040 962
f 857 1040 1053
f 1076 818 857
f 832 923 1015
f 340 1027 1001
f 340 1053 1027
f 922 1053 340
f 948 1013 896
f 1077 338 1013
f 921 845 934
f 922 948 896
f 816 338 1077
f 845 832 976
f 897 923 832
f 975 949 923
f 1078 340 1001
f 1002 845 921
f 975 923 897
f 975 1001 949
f 937 1041 950
f 844 340 1078
f 844 922 340
f 909 922 844
f 948 922 909
f 817 920 907
f 830 959 946
f 972 959 830
f 854 335 1073
f 854 334 335
f 1072 334 854
f 815 1072 854
f 1060 1072 815
f 1061 854 1073
f 815 854 1061
f 997 815 1061
f 828 815 997
f 828 1060 815
f 1047 1060 828
f 1048 997 1061
f 971 997 1048
f 971 828 997
f 1034 1047 828
f 336 971 1048
f 880 971 336
f 880 828 971
f 1035 336 1048
f 1021 828 880
f 1021 1034 828
f 919 336 1035
f 919 880 336
f 919 1021 880
f 1024 1021 919
f 1008 1021 1024
f 1023 1035 1022
f 1023 919 1035
f 932 1024 919
f 814 1023 1022
f 932 919 1023
f 1037 1024 932
f 1008 1024 1037
f 1009 814 1022
f 995 1008 1037
f 1010 1023 814
f 1010 932 1023
f 893 932 1010
f 893 1037 932
f 1050 1037 893
f 995 1037 1050
f 996 814 1009
f 827 814 996
f 827 1010 814
f 1036 1010 827
f 984 1010 1036
f 984 893 1010
f 867 893 984
f 867 1050 893
f 1050 982 995
f 983 1036 827
f 1063 1050 867
f 1063 982 1050
f 1049 1036 983
f 1049 984 1036
f 906 867 984
f 1063 867 906
f 969 982 1063
f 853 983 970
f 853 1049 983
f 945 984 1049
f 945 906 984
f 1062 1049 853
f 945 1049 1062
f 1075 906 945
f 1075 1063 906
f 1075 969 1063
f 840 1062 853
f 957 840 853
f 841 1075 945
f 956 1075 841
f 956 969 1075
f 1074 1062 840
f 1074 945 1062
f 958 945 1074
f 958 841 945
f 866 840 957
f 1074 840 866
f 892 841 958
f 337 841 892
f 337 956 841
f 905 958 1074
f 943 956 337
f 918 866 931
f 918 1074 866
f 918 905 1074
f 892 958 905
f 879 337 892
f 879 943 337
f 866 944 931
f 957 944 866
f 853 970 957
f 827 996 983
f 1072 930 334
f 1072 917 930
f 1060 917 1072
f 1047 917 1060
f 1047 904 917
f 1034 904 1047
f 1034 891 904
f 1021 891 1034
f 1008 891 1021
f 1008 878 891
f 1008 865 878
f 995 865 1008
f 982 865 995
f 982 852 865
f 982 839 852
f 969 839 982
f 969 826 839
f 956 826 969
f 956 813 826
f 943 813 956
f 1231 813 943
f 1244 813 1231
f 1257 813 1244
f 1257 826 813
f 1270 826 1257
f 1270 839 826
f 1283 839 1270
f 1283 852 839
f 1296 852 1283
f 1296 865 852
f 1309 865 1296
f 1309 878 865
f 1322 878 1309
f 1322 891 878
f 1335 891 1322
f 1335 904 891
f 1348 904 1335
f 1348 917 904
f 1104 917 1348
f 1104 930 917
f 1089 930 1104
f 334 930 1089
f 332 1103 1192
f 1349 1103 332
f 1349 825 1336
f 332 825 1349
f 1336 825 1323
f 825 812 1323
f 812 331 1310
f 1310 333 1297
f 1310 838 333
f 331 838 1310
f 1297 333 1284
f 333 330 1284
f 838 330 333
f 1284 330 1271
f 330 851 1271
f 851 329 1258
f 1258 328 1245
f 329 328 1258
f 328 864 1245
f 864 1232 1245
f 1205 1206 1219
f 1218 1205 1319
f 1191 1218 1319
f 1191 1231 1218
f 1244 1231 1191
f 1033 1219 1232
f 1033 1205 1219
f 1175 1205 1033
f 1175 1319 1205
f 1306 1319 1175
f 1306 1191 1319
f 1217 1244 1191
f 1188 1306 1175
f 1216 1306 1293
f 1216 1191 1306
f 1217 1191 1216
f 1257 1244 1217
f 864 1033 1232
f 316 1033 864
f 316 1175 1033
f 1188 1175 316
f 1293 1306 1188
f 1201 1293 1188
f 1176 1293 1201
f 1229 1293 1176
f 1229 1216 1293
f 1229 1217 1216
f 1321 1217 1229
f 1321 1257 1217
f 328 316 864
f 320 316 328
f 1059 316 320
f 1059 1188 316
f 1201 1188 1059
f 1321 1270 1257
f 1162 1201 1059
f 1344 1201 1162
f 1344 1176 1201
f 1189 1176 1344
f 1190 1176 1189
f 1190 1229 1176
f 1087 1229 1190
f 1087 1321 1229
f 1308 1321 1087
f 1308 1270 1321
f 329 320 328
f 314 1059 320
f 1283 1270 1308
f 916 320 329
f 916 314 320
f 314 1162 1059
f 1123 1162 314
f 1318 1162 1123
f 1318 1344 1162
f 1150 1344 1318
f 1150 1189 1344
f 1294 1087 1190
f 1178 1087 1294
f 1178 1308 1087
f 1283 1308 1178
f 319 314 916
f 1123 314 319
f 1202 1189 1150
f 1202 1190 1189
f 1294 1190 1202
f 877 916 329
f 1149 1318 1123
f 1150 1318 1149
f 1333 1178 1294
f 1295 1178 1333
f 1295 1283 1178
f 1295 1296 1283
f 323 916 877
f 968 916 323
f 968 319 916
f 1046 319 968
f 1046 1123 319
f 1149 1123 1046
f 1266 1150 1149
f 1137 1150 1266
f 1137 1202 1150
f 1280 1202 1137
f 1177 1202 1280
f 1177 1294 1202
f 1333 1294 1177
f 1113 1295 1333
f 1309 1295 1113
f 1309 1296 1295
f 325 323 330
f 968 323 325
f 994 1046 968
f 811 1046 994
f 811 1149 1046
f 1266 1149 811
f 1331 1137 1266
f 1267 1137 1331
f 1267 1280 1137
f 1086 1280 1267
f 1086 1177 1280
f 1242 1177 1086
f 1242 1333 1177
f 1242 1113 1333
f 1253 1266 811
f 1253 1331 1266
f 1165 1113 1242
f 1282 1113 1165
f 1282 1309 1113
f 1322 1309 1282
f 838 325 330
f 321 968 325
f 321 994 968
f 318 811 994
f 1124 1267 1331
f 1164 1086 1267
f 1164 1242 1086
f 1255 1242 1164
f 1255 1165 1242
f 903 325 838
f 903 321 325
f 318 994 321
f 1110 811 318
f 1110 1253 811
f 1305 1253 1110
f 1305 1331 1253
f 1305 1124 1331
f 1126 1282 1165
f 1269 1282 1126
f 1269 1322 1282
f 1335 1322 1269
f 324 321 903
f 1020 321 324
f 1020 318 321
f 1254 1267 1124
f 1254 1164 1267
f 1107 1164 1254
f 1112 1164 1107
f 1112 1255 1164
f 1268 1255 1112
f 1268 1165 1255
f 1126 1165 1268
f 324 903 838
f 1084 318 1020
f 1084 1110 318
f 1136 1110 1084
f 1136 1305 1110
f 1292 1124 1305
f 1204 1269 1126
f 331 324 838
f 955 1020 324
f 1292 1305 1136
f 1163 1124 1292
f 1163 1254 1124
f 1215 1254 1163
f 1215 1107 1254
f 1203 1268 1112
f 1106 1126 1268
f 1204 1126 1106
f 1348 1269 1204
f 1348 1335 1269
f 929 324 331
f 929 955 324
f 1007 1020 955
f 1007 1084 1020
f 1214 1292 1136
f 1111 1163 1292
f 1203 1112 1107
f 1106 1268 1203
f 890 929 331
f 981 955 929
f 981 1007 955
f 313 1084 1007
f 313 1136 1084
f 1214 1136 313
f 1111 1292 1214
f 1241 1163 1111
f 1241 1215 1163
f 1125 1107 1215
f 1125 1203 1107
f 1281 1203 1125
f 1281 1106 1203
f 1139 1204 1106
f 1139 1348 1204
f 1256 1348 1139
f 326 929 890
f 315 1007 981
f 315 313 1007
f 1085 1241 1111
f 1345 1215 1241
f 1345 1125 1215
f 1346 1106 1281
f 1139 1106 1346
f 1104 1348 1256
f 322 929 326
f 322 981 929
f 317 315 981
f 312 313 315
f 312 1214 313
f 1227 1214 312
f 1227 1111 1214
f 1085 1111 1227
f 1138 1281 1125
f 1243 1256 1139
f 1243 1104 1256
f 322 317 981
f 312 315 317
f 1108 1241 1085
f 1228 1241 1108
f 1345 1241 1228
f 1345 1138 1125
f 1320 1281 1138
f 1320 1346 1281
f 1152 1139 1346
f 1243 1139 1152
f 327 326 890
f 1240 1227 312
f 1279 1227 1240
f 1279 1085 1227
f 1151 1138 1345
f 1151 1320 1138
f 1320 1152 1346
f 1179 326 327
f 1179 322 326
f 942 317 322
f 1109 312 317
f 1109 1240 312
f 1108 1085 1279
f 1332 1345 1228
f 1332 1151 1345
f 1307 1320 1151
f 1307 1152 1320
f 1230 1243 1152
f 1230 1104 1243
f 1089 1104 1230
f 942 322 1179
f 1153 1109 317
f 1127 1279 1240
f 1127 1108 1279
f 1192 1179 327
f 1166 317 942
f 1153 317 1166
f 1140 1109 1153
f 1140 1240 1109
f 1140 1127 1240
f 1114 1108 1127
f 1114 1228 1108
f 1088 1228 1114
f 1088 1332 1228
f 1088 1151 1332
f 1105 1151 1088
f 1105 1307 1151
f 1347 1307 1105
f 1347 1152 1307
f 1334 1152 1347
f 1334 1230 1152
f 1334 1089 1230
f 327 332 1192
f 890 332 327
f 890 825 332
f 890 812 825
f 331 812 890
f 323 851 330
f 877 851 323
f 329 851 877
f 1271 851 1258
f 1323 812 1310
f 1166 942 1179
f 1193 1356 1342
f 1193 1343 1356
f 1180 1343 1193
f 1180 1329 1343
f 1180 1330 1329
f 1167 1330 1180
f 1167 1316 1330
f 1167 1317 1316
f 1154 1317 1167
f 1154 1303 1317
f 1141 1303 1154
f 1141 1304 1303
f 1128 1304 1141
f 1290 1304 1128
f 1115 1291 1290
f 1115 1277 1291
f 1115 1278 1277
f 1278 1219 1206
f 1115 1219 1278
f 1115 1232 1219
f 1115 1245 1232
f 1290 1245 1115
f 1290 1258 1245
f 1128 1258 1290
f 1141 1258 1128
f 1141 1271 1258
f 1154 1271 1141
f 1154 1284 1271
f 1154 1297 1284
f 1167 1297 1154
f 1167 1310 1297
f 1180 1310 1167
f 1180 1323 1310
f 1180 1336 1323
f 1180 1349 1336
f 1193 1349 1180
f 1193 1103 1349
f 1342 1103 1193
f 1129 224 1265
f 371 224 1129
f 371 1129 225
f 225 1116 370
f 1129 1116 225
f 1129 1142 1116
f 1116 1155 370
f 1116 1142 1155
f 370 1155 226
f 1155 1090 226
f 1155 1220 1090
f 1194 1220 1155
f 1090 1220 369
f 1220 1207 369
f 369 1168 227
f 1207 1168 369
f 227 1168 368
f 1168 1181 368
f 1181 228 368
f 1181 1272 228
f 228 1272 367
f 1272 1337 367
f 367 1337 229
f 229 1118 366
f 1264 366 1118
f 1173 1264 1118
f 1278 1264 1173
f 1250 1278 1173
f 1277 1278 1250
f 1337 1118 229
f 1130 1118 1337
f 1183 1118 1130
f 1183 1173 1118
f 1171 1173 1183
f 1171 1250 1173
f 1341 1250 1171
f 1341 1277 1250
f 1291 1277 1341
f 1247 1130 1337
f 1247 1183 1130
f 1196 1183 1247
f 1196 1171 1183
f 1301 1341 1171
f 1272 1247 1337
f 1119 1171 1196
f 1301 1171 1119
f 1172 1341 1301
f 1121 1341 1172
f 1121 1291 1341
f 1117 1247 1272
f 1260 1247 1117
f 1196 1247 1260
f 1174 1291 1121
f 1174 1290 1291
f 1260 1119 1196
f 1170 1119 1260
f 1313 1119 1170
f 1236 1119 1313
f 1236 1301 1119
f 1146 1301 1236
f 1146 1172 1301
f 1328 1121 1172
f 1174 1121 1328
f 1304 1290 1174
f 1102 1272 1181
f 1102 1117 1272
f 1351 1117 1102
f 1351 1260 1117
f 1328 1172 1146
f 1351 1170 1260
f 1223 1236 1313
f 1223 1146 1236
f 1133 1146 1223
f 1134 1328 1315
f 1134 1174 1328
f 1304 1174 1134
f 1221 1351 1102
f 1261 1170 1351
f 1261 1313 1170
f 1300 1223 1313
f 1133 1328 1146
f 1315 1328 1133
f 1303 1304 1134
f 1259 1102 1181
f 1273 1351 1221
f 1273 1261 1351
f 1300 1313 1261
f 1288 1133 1223
f 1185 1315 1133
f 1354 1315 1185
f 1354 1134 1315
f 1160 1134 1354
f 1160 1303 1134
f 1221 1102 1259
f 1093 1223 1300
f 1288 1223 1093
f 1327 1133 1288
f 1327 1185 1133
f 1208 1221 1259
f 1234 1273 1221
f 1092 1273 1234
f 1092 1261 1273
f 1209 1261 1092
f 1209 1300 1261
f 1093 1300 1209
f 1184 1288 1093
f 1327 1288 1184
f 1263 1185 1327
f 1263 1354 1185
f 1285 1259 1207
f 1285 1208 1259
f 1208 1234 1221
f 1317 1160 1354
f 1317 1303 1160
f 1248 1209 1092
f 1222 1093 1209
f 1158 1093 1222
f 1158 1184 1093
f 1275 1327 1184
f 1159 1327 1275
f 1159 1263 1327
f 1097 1354 1263
f 1097 1317 1354
f 1220 1285 1207
f 1143 1208 1285
f 1143 1234 1208
f 1092 1234 1143
f 1222 1209 1248
f 1158 1275 1184
f 1122 1263 1159
f 1122 1097 1263
f 1161 1317 1097
f 1350 1285 1220
f 1350 1143 1285
f 1338 1092 1143
f 1157 1092 1338
f 1157 1248 1092
f 1100 1158 1222
f 1197 1275 1158
f 1120 1275 1197
f 1120 1159 1275
f 1161 1097 1122
f 1316 1317 1161
f 1156 1338 1143
f 1157 1222 1248
f 1197 1158 1100
f 1198 1159 1120
f 1198 1122 1159
f 1098 1161 1122
f 1316 1161 1098
f 1324 1220 1194
f 1324 1350 1220
f 1156 1143 1350
f 1325 1338 1156
f 1144 1338 1325
f 1144 1157 1338
f 1287 1100 1222
f 1094 1120 1197
f 1094 1198 1120
f 1098 1122 1198
f 1147 1316 1098
f 1169 1350 1324
f 1169 1156 1350
f 1144 1222 1157
f 1287 1222 1144
f 1352 1100 1287
f 1352 1197 1100
f 1145 1197 1352
f 1094 1197 1145
f 1340 1198 1094
f 1211 1198 1340
f 1147 1330 1316
f 1169 1325 1156
f 1211 1098 1198
f 1302 1098 1211
f 1135 1098 1302
f 1135 1147 1098
f 1329 1330 1147
f 1233 1324 1194
f 1298 1324 1233
f 1298 1169 1324
f 1312 1325 1169
f 1131 1325 1312
f 1131 1144 1325
f 1131 1287 1144
f 1235 1287 1131
f 1235 1352 1287
f 1339 1145 1352
f 1262 1094 1145
f 1262 1340 1094
f 1224 1211 1340
f 1302 1211 1224
f 1329 1147 1135
f 1142 1233 1194
f 1091 1169 1298
f 1312 1169 1091
f 1262 1145 1339
f 1099 1340 1262
f 1099 1224 1340
f 1289 1302 1224
f 1289 1135 1302
f 1101 1131 1312
f 1235 1131 1101
f 1326 1352 1235
f 1326 1339 1352
f 1210 1262 1339
f 1314 1099 1262
f 1237 1224 1099
f 1096 1135 1289
f 1343 1329 1135
f 1246 1233 1142
f 1246 1298 1233
f 1311 1298 1246
f 1311 1091 1298
f 1195 1312 1091
f 1195 1299 1312
f 1299 1101 1312
f 1274 1326 1235
f 1210 1339 1326
f 1210 1314 1262
f 1237 1289 1224
f 1148 1135 1096
f 1148 1343 1135
f 1195 1091 1311
f 1182 1299 1195
f 1274 1235 1101
f 1132 1326 1274
f 1132 1210 1326
f 1249 1314 1210
f 1353 1099 1314
f 1353 1237 1099
f 1276 1289 1237
f 1276 1096 1289
f 1095 1096 1276
f 1095 1148 1096
f 1356 1343 1148
f 1286 1299 1182
f 1286 1101 1299
f 1225 1274 1101
f 1132 1249 1210
f 1200 1237 1353
f 1200 1276 1237
f 1251 1246 1265
f 1251 1311 1246
f 1252 1311 1251
f 1252 1195 1311
f 1238 1195 1252
f 1225 1101 1286
f 1226 1132 1274
f 1213 1249 1132
f 1199 1314 1249
f 1199 1353 1314
f 1238 1182 1195
f 1239 1286 1182
f 1226 1274 1225
f 1212 1132 1226
f 1212 1213 1132
f 1186 1276 1200
f 1186 1095 1276
f 1187 1148 1095
f 1342 1148 1187
f 1342 1356 1148
f 1246 1129 1265
f 1142 1129 1246
f 1194 1155 1142
f 1259 1168 1207
f 1181 1168 1259
f 226 1090 369
f 1239 1182 1238
f 1239 1225 1286
f 1199 1249 1213
f 1200 1353 1199
f 1187 1095 1186
f 371 365 230
f 225 365 371
f 370 365 225
f 370 231 365
f 226 231 370
f 226 364 231
f 226 232 364
f 369 232 226
f 227 232 369
f 227 363 232
f 227 233 363
f 368 233 227
f 228 233 368
f 228 362 233
f 367 362 228
f 367 1355 362
f 229 1355 367
f 366 1355 229
f 207 1355 366
f 389 1355 207
f 389 362 1355
f 206 362 389
f 206 233 362
f 390 233 206
f 390 363 233
f 205 363 390
f 391 363 205
f 391 232 363
f 204 232 391
f 204 364 232
f 392 364 204
f 392 231 364
f 203 231 392
f 203 365 231
f 393 365 203
f 202 365 393
f 202 230 365
f 394 230 202
f 224 230 394
f 371 230 224
f 791 135 394
f 202 791 394
f 219 791 202
f 219 136 791
f 393 219 202
f 375 136 219
f 375 393 203
f 375 219 393
f 790 136 375
f 377 375 203
f 377 790 375
f 384 377 203
f 218 790 377
f 214 377 384
f 218 377 214
f 218 137 790
f 214 384 392
f 372 137 218
f 789 137 372
f 214 392 204
f 378 218 214
f 372 218 378
f 382 378 214
f 138 789 372
f 382 214 204
f 220 378 382
f 220 372 378
f 220 138 372
f 391 382 204
f 213 220 382
f 223 138 220
f 213 382 391
f 217 220 213
f 223 220 217
f 788 138 223
f 205 213 391
f 217 213 211
f 211 213 205
f 373 223 217
f 373 788 223
f 379 217 211
f 373 139 788
f 385 205 390
f 385 211 205
f 385 379 211
f 379 373 217
f 222 373 379
f 222 139 373
f 386 385 390
f 383 385 386
f 383 379 385
f 216 379 383
f 216 222 379
f 221 222 216
f 787 139 222
f 206 386 390
f 787 222 221
f 212 383 386
f 212 216 383
f 376 221 216
f 215 216 212
f 215 376 216
f 140 221 376
f 140 787 221
f 209 386 206
f 209 212 386
f 389 209 206
f 381 212 209
f 381 215 212
f 380 215 381
f 380 376 215
f 374 376 380
f 374 140 376
f 210 209 389
f 210 381 209
f 786 140 374
f 207 210 389
f 388 210 207
f 388 381 210
f 208 381 388
f 208 380 381
f 208 374 380
f 387 374 208
f 141 374 387
f 141 786 374
f 203 392 384
f 147 164 165
f 147 201 164
f 147 196 201
f 147 266 196
f 201 196 396
f 266 265 196
f 196 348 396
f 196 265 348
f 396 348 399
f 201 396 162
f 396 161 162
f 396 197 161
f 399 197 396
f 348 194 399
f 197 200 161
f 399 194 197
f 197 195 200
f 194 195 197
f 200 199 161
f 194 402 195
f 200 398 199
f 195 398 200
f 195 193 398
f 402 193 195
f 199 395 116
f 116 395 269
f 199 398 395
f 395 810 269
f 395 397 810
f 398 401 395
f 193 401 398
f 193 403 401
f 810 397 117
f 395 400 397
f 401 400 395
f 401 403 400
f 397 400 809
f 403 192 400
f 400 192 198
f 400 198 146
f 192 781 198
f 198 781 146
f 403 267 192
f 782 145 267
f 158 267 403
f 259 782 267
f 259 267 158
f 244 158 403
f 144 347 783
f 263 779 157
f 262 268 402
f 783 347 248
f 244 268 262
f 250 261 244
f 250 255 261
f 247 194 348
f 247 402 194
f 262 402 247
f 143 783 248
f 257 348 265
f 264 262 247
f 253 244 262
f 253 250 244
f 250 248 255
f 257 264 247
f 256 264 257
f 245 250 253
f 245 242 250
f 770 236 242
f 770 769 236
f 154 784 769
f 157 246 258
f 157 238 246
f 249 256 257
f 253 256 249
f 84 770 242
f 154 769 770
f 260 265 266
f 251 257 265
f 240 242 245
f 84 242 240
f 142 784 154
f 157 153 238
f 156 157 148
f 153 157 156
f 251 265 260
f 153 152 238
f 238 237 246
f 238 703 237
f 238 773 703
f 152 773 238
f 152 775 773
f 775 151 773
f 703 773 234
f 775 149 151
f 773 151 234
f 149 777 151
f 151 777 234
f 777 772 234
f 777 150 772
f 138 775 789
f 138 149 775
f 150 777 149
f 139 776 150
f 787 776 139
f 150 149 138
f 153 135 136
f 148 135 153
f 790 153 136
f 137 153 790
f 156 148 153
f 152 137 775
f 152 153 137
f 157 779 148
f 778 140 786
f 778 776 140
f 772 150 776
f 160 237 703
f 252 246 237
f 263 157 258
f 239 234 772
f 252 237 160
f 772 776 774
f 241 703 234
f 254 258 246
f 774 776 778
f 155 772 774
f 241 234 239
f 160 703 241
f 254 246 252
f 778 786 141
f 785 778 141
f 239 772 155
f 260 263 258
f 243 160 241
f 249 160 243
f 147 779 263
f 142 774 778
f 249 252 160
f 260 258 254
f 201 163 164
f 162 163 201
f 199 82 161
f 199 116 82
f 808 118 780
f 146 780 118
f 146 118 809
f 397 809 117
f 400 146 809
f 192 145 781
f 267 145 192
f 244 403 193
f 347 782 259
f 144 782 347
f 244 193 268
f 261 158 244
f 261 259 158
f 268 193 402
f 255 259 261
f 248 259 255
f 248 347 259
f 256 262 264
f 256 253 262
f 236 143 248
f 242 248 250
f 236 248 242
f 769 143 236
f 257 247 348
f 784 143 769
f 249 257 251
f 243 253 249
f 243 245 253
f 770 84 771
f 254 251 260
f 239 84 240
f 771 84 239
f 771 154 770
f 241 245 243
f 240 245 241
f 771 142 154
f 774 142 771
f 263 266 147
f 263 260 266
f 252 251 254
f 249 251 252
f 239 240 241
f 155 771 239
f 774 771 155
f 778 785 142
f 776 787 140
f 150 788 139
f 138 788 150
f 137 789 775
f 135 791 136
f 177 165 130
f 177 178 165
f 164 130 165
f 804 130 164
f 794 130 804
f 794 177 130
f 176 177 794
f 175 176 794
f 163 794 804
f 800 794 163
f 800 163 162
f 795 794 800
f 795 175 794
f 126 800 162
f 174 175 795
f 122 162 161
f 122 126 162
f 126 795 800
f 128 795 126
f 132 174 795
f 82 122 161
f 802 126 122
f 802 128 126
f 132 795 128
f 173 174 132
f 802 122 82
f 797 132 128
f 116 802 82
f 797 128 802
f 131 132 797
f 172 132 131
f 172 173 132
f 801 802 116
f 801 797 802
f 131 797 801
f 269 801 116
f 792 172 131
f 792 171 172
f 124 801 269
f 129 131 801
f 792 131 129
f 810 124 269
f 129 801 124
f 170 171 792
f 124 810 117
f 127 129 124
f 134 792 129
f 134 170 792
f 169 170 134
f 805 117 809
f 805 124 117
f 803 124 805
f 803 127 124
f 798 129 127
f 798 134 129
f 793 134 798
f 793 169 134
f 799 127 803
f 799 798 127
f 168 169 793
f 118 805 809
f 123 803 805
f 123 799 803
f 121 805 118
f 121 123 805
f 796 798 799
f 796 793 798
f 167 168 793
f 125 123 121
f 125 799 123
f 796 799 125
f 133 793 796
f 133 167 793
f 133 796 120
f 808 121 118
f 119 121 808
f 119 125 121
f 807 125 119
f 807 796 125
f 807 120 796
f 806 133 120
f 806 167 133
f 166 167 806
f 804 164 163
f 178 180 179
f 177 180 178
f 176 180 177
f 176 181 180
f 175 181 176
f 175 182 181
f 175 183 182
f 174 183 175
f 174 184 183
f 174 185 184
f 173 185 174
f 172 185 173
f 172 186 185
f 171 186 172
f 171 187 186
f 170 187 171
f 169 187 170
f 169 188 187
f 168 188 169
f 168 189 188
f 167 189 168
f 167 190 189
f 166 190 167
f 166 235 190
f 95 92 94
f 93 92 95
f 93 91 92
f 93 90 91
f 96 90 93
f 96 89 90
f 97 89 96
f 98 89 97
f 98 88 89
f 99 88 98
f 100 88 99
f 100 87 88
f 101 87 100
f 101 86 87
f 102 86 101
f 102 85 86
f 103 85 102
f 103 159 85
f 104 159 103
f 104 191 159
f 105 191 104
f 106 191 105
f 107 191 106
f 107 159 191
f 108 159 107
f 109 159 108
f 109 85 159
f 110 85 109
f 110 86 85
f 110 87 86
f 111 87 110
f 111 88 87
f 112 88 111
f 113 88 112
f 113 89 88
f 114 89 113
f 114 90 89
f 115 90 114
f 115 91 90
f 83 91 115
f 83 92 91
f 81 92 83
f 235 92 81
f 94 92 235
# 1356 vertices
# 0 texture params
# 0 normals
# 2692 facets

# 5 groups
