# WaveFront *.obj file (generated by Autodesk ATF)

mtllib forearm_sinister_collision.mtl

g Body7

v 3.000003 5.610639 -2.009613
v 21.000003 3.825460 8.582596
v 21.000003 -3.629472 -8.662079
v 12.000003 -6.741623 3.719231
v 12.937503 6.450628 -4.511322
v 21.000003 9.472520 1.508102
v 21.000003 -9.373554 -1.983261
v 3.000003 0.738323 -6.040016
v 3.000003 3.603232 4.853378
v 12.187503 -7.865477 -0.154610
v 11.250003 1.688636 7.510696
v 10.500003 -2.581028 -7.098969
v 11.531253 -1.237870 -7.646210
v 12.750003 -5.728091 -5.564903
v 11.625003 -3.809322 -6.771210
v 11.625003 -7.199074 2.918549
v 11.437503 -6.768919 -3.730576
v 12.000003 -7.552017 -2.108002
v 11.437503 -4.828856 6.038513
v 11.625003 -7.599739 1.627579
v 13.500003 -1.862964 7.914322
v 13.125003 -6.314459 4.968536
v 13.125003 -3.402010 7.301788
v 12.750003 0.287360 7.974365
v 12.000003 5.036702 6.007660
v 11.437503 3.417162 6.923172
v 12.750003 6.930735 -3.967361
v 12.375003 6.829064 4.002884
v 12.750003 7.590440 2.454041
v 11.250003 2.929219 -7.114883
v 12.375003 7.875177 -0.846237
v 10.500003 0.127039 -7.554535
v 12.000003 5.824520 -5.251183
v 13.500003 1.509383 -7.996689
v 12.000003 6.023473 5.022797
v 12.750003 4.614505 -6.514816
v 10.500003 -4.631138 -5.974213
v 3.000003 4.160323 -4.421799
v 11.625003 7.443082 -2.206741
v 12.375003 7.883893 0.724213
v 3.000003 5.838990 -1.735016
v 3.000003 2.550176 -5.495468
v 3.000003 5.751991 1.950134
v 3.000003 5.328816 -2.922379
v 3.000003 6.073409 -0.061554
v 3.000003 4.857224 3.662468
v 3.000003 -1.147696 5.967346
v 3.000003 0.974476 5.957077
v 3.000003 -6.026127 0.876488
v 3.000003 -3.045824 5.219070
v 3.000003 -4.720900 3.849304
v 3.000003 -5.585391 -2.430534
v 3.000003 -5.529375 2.490120
v 3.000003 -1.026520 -5.989380
v 3.000003 -6.009764 -0.873795
v 3.000003 -3.821617 -4.735603
v 3.000003 -2.510932 -5.538635
v 3.000003 -4.865423 -3.649315
v 21.000003 9.038388 -3.239098
v 21.000003 5.578339 -7.773689
v 21.000003 7.746658 -5.618240
v 21.000003 9.517060 -1.083466
v 21.000003 1.506636 -9.460014
v 21.000003 3.347769 -8.995934
v 21.000003 -4.033326 -8.675156
v 21.000003 -1.180073 -9.509537
v 21.000003 -7.701748 -5.705719
v 21.000003 -6.247372 -7.290710
v 21.000003 -8.688847 -4.061203
v 21.000003 -9.048695 3.119446
v 21.000003 -6.308548 7.212914
v 21.000003 -7.954842 5.361862
v 21.000003 -9.574142 0.504257
v 21.000003 -1.335850 9.503204
v 21.000003 -3.907112 8.724777
v 21.000003 3.836671 8.757690
v 21.000003 1.171520 9.516060
v 21.000003 7.411036 6.094620
v 21.000003 5.833499 7.613342
v 21.000003 8.635714 4.143692
v 12.375003 -7.371752 -2.456238
v 11.625003 -5.858354 -4.882477
v 13.125003 -6.901855 -3.861595
v 12.000003 -7.656778 -0.700462
v 12.000003 -2.533497 -7.275681
v 13.875003 -3.677851 -7.164856
v 12.375003 0.501490 -7.759140
v 12.375003 -0.841102 -7.703217
v 13.500003 3.494038 -7.166290
v 12.375003 1.897138 -7.525581
v 12.375003 5.036138 -5.913651
v 12.000003 7.630817 0.977577
v 12.750003 6.483926 4.408272
v 11.812503 7.116908 2.815613
v 12.750003 7.319211 -2.801392
v 12.750003 2.042685 7.576126
v 12.750003 3.655662 6.907440
v 14.343753 -1.179569 8.061920
v 11.625003 0.612531 7.601913
v 12.375003 -4.901501 6.019897
v 12.562503 -3.073736 7.159760
v 10.875003 -5.887877 4.624466
v 13.500003 -7.924446 1.013824
v 12.000003 -4.831960 -5.988365
v 11.250003 5.204049 5.464111
v 12.000003 -7.295771 2.425766
v 21.000003 8.898788 -2.950180
v 11.812503 7.595415 -0.881149
v 21.000003 6.768035 -6.523117
v 21.000003 7.769751 -5.307449
v 21.000003 1.422236 -9.263748
v 21.000003 4.576367 -8.175316
v 21.000003 -1.435800 -9.285889
v 21.000003 -7.560186 -5.559364
v 21.000003 -9.378777 -0.210770
v 21.000003 -8.844433 -3.164597
v 21.000003 -5.753974 -7.435440
v 21.000003 -8.241703 4.513916
v 21.000003 -9.005625 2.621765
v 21.000003 -5.328728 7.732811
v 21.000003 -7.156815 6.096954
v 21.000003 -0.662123 9.354691
v 21.000003 -3.002215 8.903214
v 21.000003 1.741113 9.246979
v 21.000003 8.244848 4.494003
v 21.000003 9.401100 0.115433
v 21.000003 9.159220 2.135506
v 21.000003 6.543428 6.718628
v 3.000003 -4.815968 -3.503281
v 3.000003 -5.807020 -1.413116
v 3.000003 -1.826159 -5.689003
v 3.000003 -3.588797 -4.790298
v 3.000003 2.933569 -5.188759
v 3.000003 0.349851 -5.935318
v 3.000003 4.607526 -3.805969
v 3.000003 5.822339 1.353508
v 3.000003 3.867381 4.524429
v 3.000003 5.142243 3.039688
v 3.000003 5.987360 -0.215302
v 3.000003 -0.766694 5.938789
v 3.000003 1.252026 5.827316
v 3.000003 -3.135306 5.093239
v 3.000003 -1.871589 5.680672
v 3.000003 -5.729875 1.678528
v 3.000003 -4.708179 3.680397
v 3.000003 -5.994310 0.030838
usemtl Paint_-_Metal_Flake_(Black)
f 32 66 13
f 63 66 32
f 34 63 32
f 57 54 12
f 15 57 12
f 15 56 57
f 37 56 15
f 14 56 37
f 14 58 56
f 17 58 14
f 17 52 58
f 18 52 17
f 55 52 18
f 10 55 18
f 49 55 10
f 20 49 10
f 20 53 49
f 16 53 20
f 22 53 16
f 22 51 53
f 19 51 22
f 19 50 51
f 23 50 19
f 23 47 50
f 21 47 23
f 24 47 21
f 24 48 47
f 11 48 24
f 26 48 11
f 9 48 26
f 25 9 26
f 35 9 25
f 35 46 9
f 28 46 35
f 43 46 28
f 29 43 28
f 40 43 29
f 45 43 40
f 31 45 40
f 41 45 31
f 39 41 31
f 44 41 39
f 27 44 39
f 33 44 27
f 33 38 44
f 36 38 33
f 36 42 38
f 30 42 36
f 34 42 30
f 8 42 34
f 32 8 34
f 13 12 54
f 65 12 13
f 65 15 12
f 65 37 15
f 68 37 65
f 68 14 37
f 67 14 68
f 67 17 14
f 69 17 67
f 69 18 17
f 7 18 69
f 7 10 18
f 73 10 7
f 73 20 10
f 70 20 73
f 70 16 20
f 70 22 16
f 72 22 70
f 71 22 72
f 71 19 22
f 71 23 19
f 75 23 71
f 75 21 23
f 74 21 75
f 74 24 21
f 77 24 74
f 77 11 24
f 76 11 77
f 76 26 11
f 79 26 76
f 79 25 26
f 78 25 79
f 78 35 25
f 78 28 35
f 80 28 78
f 80 29 28
f 6 29 80
f 6 40 29
f 62 40 6
f 62 31 40
f 62 39 31
f 59 39 62
f 59 27 39
f 61 27 59
f 61 33 27
f 60 33 61
f 60 36 33
f 60 30 36
f 64 30 60
f 64 34 30
f 63 34 64
f 13 66 65
f 54 32 13
f 8 32 54
f 50 142 145
f 50 143 142
f 47 143 50
f 47 140 143
f 48 140 47
f 48 141 140
f 9 141 48
f 9 137 141
f 46 137 9
f 46 138 137
f 43 138 46
f 43 136 138
f 45 136 43
f 45 139 136
f 45 1 139
f 41 1 45
f 44 1 41
f 44 135 1
f 38 135 44
f 38 133 135
f 42 133 38
f 42 134 133
f 8 134 42
f 54 134 8
f 54 131 134
f 57 131 54
f 57 132 131
f 56 132 57
f 56 129 132
f 58 129 56
f 52 129 58
f 52 130 129
f 55 130 52
f 55 146 130
f 145 51 50
f 145 53 51
f 144 53 145
f 144 49 53
f 146 49 144
f 146 55 49
f 6 126 62
f 6 127 126
f 80 127 6
f 80 125 127
f 78 125 80
f 78 128 125
f 79 128 78
f 76 128 79
f 76 2 128
f 76 124 2
f 77 124 76
f 77 122 124
f 74 122 77
f 74 123 122
f 75 123 74
f 75 120 123
f 71 120 75
f 71 121 120
f 72 121 71
f 72 118 121
f 70 118 72
f 70 119 118
f 73 119 70
f 73 115 119
f 7 115 73
f 7 116 115
f 69 116 7
f 69 114 116
f 67 114 69
f 68 114 67
f 68 117 114
f 65 117 68
f 65 3 117
f 65 113 3
f 66 113 65
f 66 111 113
f 63 111 66
f 64 111 63
f 64 112 111
f 60 112 64
f 60 109 112
f 61 109 60
f 61 110 109
f 61 107 110
f 59 107 61
f 62 107 59
f 62 126 107
f 103 115 84
f 119 115 103
f 84 130 146
f 81 130 84
f 81 129 130
f 83 129 81
f 82 129 83
f 104 129 82
f 104 132 129
f 86 132 104
f 85 132 86
f 131 132 85
f 88 131 85
f 134 131 88
f 87 134 88
f 90 134 87
f 133 134 90
f 89 133 90
f 91 133 89
f 91 135 133
f 5 135 91
f 5 1 135
f 95 1 5
f 108 1 95
f 108 139 1
f 92 139 108
f 92 136 139
f 94 136 92
f 138 136 94
f 93 138 94
f 105 138 93
f 137 138 105
f 97 137 105
f 97 141 137
f 96 141 97
f 99 141 96
f 99 140 141
f 98 140 99
f 98 143 140
f 101 143 98
f 142 143 101
f 100 142 101
f 145 142 100
f 102 145 100
f 4 145 102
f 4 144 145
f 106 144 4
f 115 81 84
f 116 81 115
f 116 83 81
f 114 83 116
f 114 82 83
f 114 104 82
f 117 104 114
f 117 86 104
f 3 86 117
f 3 85 86
f 3 88 85
f 113 88 3
f 111 88 113
f 111 87 88
f 111 90 87
f 111 89 90
f 112 89 111
f 112 91 89
f 109 91 112
f 109 5 91
f 110 5 109
f 110 95 5
f 107 95 110
f 107 108 95
f 126 108 107
f 126 92 108
f 127 92 126
f 127 94 92
f 125 94 127
f 125 93 94
f 128 93 125
f 128 105 93
f 128 97 105
f 2 97 128
f 2 96 97
f 124 96 2
f 124 99 96
f 122 99 124
f 122 98 99
f 123 98 122
f 123 101 98
f 120 101 123
f 120 100 101
f 121 100 120
f 121 102 100
f 118 102 121
f 118 4 102
f 118 106 4
f 119 106 118
f 103 106 119
f 103 144 106
f 84 144 103
f 84 146 144
g Body8

v 21.000003 9.292185 1.359055
v 21.000003 8.385546 4.156776
v 21.000003 -1.677321 9.218269
v 21.000003 -6.975067 6.295609
v 21.000003 -9.291870 1.378319
v 21.000003 -7.938225 -5.004333
v 21.000003 -3.116099 -8.796753
v 21.000003 3.309051 -8.791412
v 21.000003 8.132211 -4.651382
v 21.000003 8.912285 -3.523834
v 21.000003 6.561052 -6.972366
v 21.000003 1.431481 -9.484406
v 21.000003 -3.986729 -8.711853
v 21.000003 -8.368742 -4.660011
v 21.000003 -9.566902 -0.329422
v 21.000003 -7.895424 5.438820
v 21.000003 -4.025208 8.680862
v 21.000003 0.966265 9.515831
v 21.000003 6.588334 6.944641
v 21.000003 9.034725 3.196625
v 23.000003 -9.637108 -1.340118
v 23.000003 -5.197513 -8.253632
v 23.000003 1.674382 -9.621521
v 23.000003 8.135263 -5.365265
v 23.000003 9.748150 -0.293762
v 23.000003 6.287603 7.446991
v 23.000003 -0.440250 9.754288
v 23.000003 -6.005503 7.638458
v 23.000003 -9.501249 2.249245
v 23.000003 -7.600618 -6.428772
v 23.000003 -1.939111 -9.750153
v 23.000003 4.163806 -9.069435
v 23.000003 7.838945 -6.139389
v 23.000003 9.930650 0.848755
v 23.000003 7.915688 6.073807
v 23.000003 3.536987 9.313614
v 23.000003 -2.544013 9.647644
v 23.000003 -6.732075 7.317474
v 23.000003 -9.664843 2.507805
v 23.000003 -9.962589 0.019829
v 23.000003 -8.871967 4.528992
v 23.000003 -4.715686 8.801163
v 23.000003 0.424664 9.953522
v 23.000003 5.927772 8.017746
v 23.000003 9.279349 3.629341
v 23.000003 9.508317 -2.823212
v 23.000003 6.047049 -7.945534
v 23.000003 1.338350 -9.860886
v 23.000003 -5.269802 -8.455498
v 23.000003 -9.340258 -3.378471
v 23.000003 -8.326620 5.093773
v 23.000003 -3.136369 9.259850
v 23.000003 2.850268 9.330696
v 23.000003 9.101754 3.421135
v 23.000003 9.323847 -2.930672
v 23.000003 5.513656 -7.987305
v 23.000003 -1.822709 -9.564194
v 23.000003 -7.996948 -5.506615
v 21.000003 9.536140 -0.057838
v 21.000003 8.052842 5.217239
v 21.000003 4.170612 8.602661
v 21.000003 -1.354508 9.495697
v 21.000003 -6.389290 7.158127
v 21.000003 -9.088673 2.929337
v 21.000003 -9.254715 -2.533401
v 21.000003 -6.498508 -6.989883
v 21.000003 -1.063463 -9.513313
v 21.000003 3.771378 -8.801422
v 21.000003 7.950590 -5.382591
v 21.000003 9.276608 -1.434059
v 21.000003 5.895319 -7.274269
v 21.000003 0.229904 -9.380981
v 21.000003 -6.121830 -7.126625
v 21.000003 -9.106468 -2.153351
v 21.000003 -8.385546 4.156776
v 21.000003 -4.797417 8.040260
v 21.000003 1.881790 9.165123
v 21.000003 6.037570 7.114929
usemtl Paint_-_Metal_Flake_(Gold)
f 192 205 180
f 192 156 205
f 179 156 192
f 179 215 156
f 179 157 215
f 193 157 179
f 193 214 157
f 178 214 193
f 194 214 178
f 194 158 214
f 194 213 158
f 177 213 194
f 177 159 213
f 195 159 177
f 195 212 159
f 176 212 195
f 176 160 212
f 196 160 176
f 196 211 160
f 196 161 211
f 186 161 196
f 186 210 161
f 185 210 186
f 187 210 185
f 187 162 210
f 184 162 187
f 184 209 162
f 184 163 209
f 188 163 184
f 183 163 188
f 183 208 163
f 189 208 183
f 189 164 208
f 182 164 189
f 182 207 164
f 190 207 182
f 190 165 207
f 181 165 190
f 181 206 165
f 191 206 181
f 191 166 206
f 180 166 191
f 180 205 166
f 196 167 186
f 196 204 167
f 176 204 196
f 176 168 204
f 195 168 176
f 195 203 168
f 177 203 195
f 194 203 177
f 194 169 203
f 178 169 194
f 178 202 169
f 193 202 178
f 179 202 193
f 179 170 202
f 192 170 179
f 192 201 170
f 192 171 201
f 180 171 192
f 180 200 171
f 191 200 180
f 181 200 191
f 181 172 200
f 190 172 181
f 182 172 190
f 182 199 172
f 189 199 182
f 189 173 199
f 183 173 189
f 183 198 173
f 188 198 183
f 188 174 198
f 184 174 188
f 184 197 174
f 187 197 184
f 187 175 197
f 185 175 187
f 186 175 185
f 186 167 175
f 200 147 171
f 200 148 147
f 172 148 200
f 172 224 148
f 199 224 172
f 199 223 224
f 173 223 199
f 173 149 223
f 198 149 173
f 198 222 149
f 174 222 198
f 174 150 222
f 197 150 174
f 197 221 150
f 175 221 197
f 175 151 221
f 167 151 175
f 167 220 151
f 204 220 167
f 204 152 220
f 204 219 152
f 168 219 204
f 168 153 219
f 203 153 168
f 203 218 153
f 169 218 203
f 169 154 218
f 202 154 169
f 202 217 154
f 170 217 202
f 170 155 217
f 201 155 170
f 201 216 155
f 171 216 201
f 216 171 147
f 205 216 147
f 156 216 205
f 156 155 216
f 215 155 156
f 157 155 215
f 157 217 155
f 214 217 157
f 214 154 217
f 158 154 214
f 158 218 154
f 213 218 158
f 213 153 218
f 159 153 213
f 212 153 159
f 212 219 153
f 212 152 219
f 160 152 212
f 160 220 152
f 211 220 160
f 161 220 211
f 161 151 220
f 210 151 161
f 210 221 151
f 162 221 210
f 162 150 221
f 209 150 162
f 209 222 150
f 163 222 209
f 163 149 222
f 208 149 163
f 164 149 208
f 164 223 149
f 207 223 164
f 207 224 223
f 165 224 207
f 206 224 165
f 206 148 224
f 166 148 206
f 166 147 148
f 205 147 166
g Body4

v 2.100002 -4.964501 3.143814
v 2.100002 -2.612646 5.275337
v 2.725002 0.794989 5.826752
v 1.318752 3.632203 4.611053
v 1.787502 5.494787 2.063148
v 2.412502 5.822435 -0.894402
v 2.725002 4.630606 -3.633072
v 2.725002 2.385914 -5.363785
v 1.475002 -1.086285 -5.772247
v 2.412502 -3.432479 -4.781357
v 2.412502 -5.301847 -2.574890
v 2.412502 -5.889923 -0.000053
v 9.600002 -4.402618 -3.887901
v 9.600002 -1.203003 -5.736877
v 9.600002 2.247718 -5.426468
v 9.600002 4.911565 -3.190681
v 9.600002 5.781682 0.934296
v 9.600002 4.213993 4.106277
v 9.600002 0.257652 5.870148
v 9.600002 -3.380310 4.761475
v 9.600002 -5.607929 1.796539
v -5.399998 -5.779459 1.041138
v -5.399998 -4.075631 4.225967
v -5.399998 -0.679276 5.818863
v -5.399998 3.277331 4.878220
v -5.399998 5.347295 2.461884
v -5.399998 5.815417 -0.755035
v -5.399998 3.384552 -4.793571
v -5.399998 0.212612 -5.877983
v -5.399998 -3.662552 -4.606659
v -5.399998 -5.773820 -1.040596
v -5.399998 -4.978243 -3.107574
v -5.399998 -1.882771 -5.553925
v -5.399998 1.777979 -5.600662
v -5.399998 5.128626 -2.844131
v -5.399998 5.804602 0.968781
v -5.399998 4.490564 3.803513
v -5.399998 1.776844 5.595749
v -5.399998 -2.731663 5.206993
v -5.399998 -5.235744 2.695068
v 9.600002 -5.877979 0.212616
v 9.600002 -4.940670 3.191490
v 9.600002 -1.732433 5.604698
v 9.600002 2.544607 5.272934
v 9.600002 5.187346 2.772598
v 9.600002 5.772246 -1.086288
v 9.600002 3.545941 -4.704605
v 9.600002 0.637940 -5.856621
v 9.600002 -3.284775 -4.888374
v 9.600002 -5.583065 -1.740295
v 1.943752 -5.719879 -1.354408
v 1.787502 -4.491690 -3.794159
v 2.100002 -2.339767 -5.410133
v 2.100002 0.560748 -5.846924
v 3.037502 3.825825 -4.481781
v 1.787502 5.474838 -2.152313
v 2.100002 5.881745 0.334732
v 1.475002 4.840639 3.334557
v 2.100002 2.176244 5.472755
v 2.021877 -1.017815 5.774918
v 2.725002 -3.914169 4.397881
v 1.943752 -5.728970 1.348648
usemtl Steel_-_Satin
f 239 238 272
f 239 273 238
f 271 273 239
f 271 237 273
f 240 237 271
f 240 274 237
f 270 274 240
f 270 265 274
f 267 268 243
f 244 268 267
f 244 242 268
f 266 242 244
f 266 269 242
f 245 269 266
f 245 241 269
f 265 241 245
f 265 270 241
f 262 263 248
f 249 263 262
f 249 247 263
f 261 247 249
f 261 264 247
f 250 264 261
f 250 246 264
f 260 246 250
f 257 258 253
f 257 252 258
f 254 252 257
f 256 252 254
f 256 259 252
f 256 251 259
f 255 251 256
f 255 260 251
f 246 260 255
f 265 286 236
f 245 286 265
f 245 225 286
f 266 225 245
f 266 285 225
f 244 285 266
f 244 226 285
f 267 226 244
f 267 284 226
f 243 284 267
f 243 227 284
f 268 227 243
f 268 283 227
f 268 228 283
f 242 228 268
f 242 282 228
f 269 282 242
f 269 229 282
f 241 229 269
f 241 281 229
f 270 281 241
f 270 230 281
f 270 280 230
f 240 280 270
f 240 231 280
f 240 279 231
f 271 279 240
f 271 232 279
f 239 232 271
f 239 278 232
f 272 278 239
f 238 278 272
f 238 233 278
f 238 277 233
f 273 277 238
f 273 234 277
f 237 234 273
f 237 276 234
f 237 235 276
f 274 235 237
f 274 275 235
f 274 236 275
f 265 236 274
f 255 275 236
f 256 275 255
f 256 235 275
f 256 276 235
f 254 276 256
f 254 234 276
f 257 234 254
f 257 277 234
f 257 233 277
f 253 233 257
f 253 278 233
f 258 278 253
f 258 232 278
f 252 232 258
f 252 279 232
f 252 231 279
f 259 231 252
f 259 280 231
f 251 280 259
f 251 230 280
f 251 281 230
f 260 281 251
f 260 229 281
f 250 229 260
f 250 282 229
f 261 282 250
f 261 228 282
f 249 228 261
f 249 283 228
f 262 283 249
f 262 227 283
f 248 227 262
f 248 284 227
f 263 284 248
f 263 226 284
f 263 285 226
f 247 285 263
f 247 225 285
f 264 225 247
f 264 286 225
f 246 286 264
f 246 236 286
f 255 236 246
g Body5

v 3.000000 1.833452 -5.683954
v 3.000000 -1.866964 -5.686158
v 3.000000 -4.699195 -3.706654
v 3.000000 -5.948203 -0.429043
v 3.000000 -4.230382 4.213768
v 3.000000 -0.742159 5.926051
v 3.000000 2.676443 5.352999
v 4.020514 2.561350 5.425817
v 6.953990 4.430180 4.025290
v 9.079841 5.784496 1.541152
v 9.249231 5.892410 -1.104831
v 6.399582 4.076983 -4.372561
v 4.444525 3.760630 -4.000000
v 4.801909 3.199124 -4.800000
v 3.000000 3.583606 -4.800000
v 4.020514 2.561350 -5.425817
v 6.595357 2.882775 -3.653884
v 4.446582 3.760983 -3.996683
v 10.000000 2.616601 5.357635
v 10.000000 5.353970 2.598178
v 10.000000 5.957251 0.107327
v 10.000000 5.036651 -3.227005
v 10.000000 4.148950 -4.323031
v 10.000000 3.140778 -5.071496
v 10.000000 -0.945259 -5.886792
v 10.000000 -2.949961 -5.201159
v 10.000000 -4.058895 -4.406836
v 10.000000 -5.862266 -1.189645
v 10.000000 -5.964971 0.491046
v 10.000000 -5.591957 2.100568
v 10.000000 -4.469917 3.929559
v 10.000000 -2.538091 5.406246
v 10.000000 0.596829 5.941072
v 10.000000 -1.101335 5.891624
v 10.000000 -5.128477 -3.049664
v 10.000000 1.129397 -5.874170
v 10.000000 5.677635 -1.903007
v 10.000000 4.138857 4.312586
v 4.991665 3.630589 -3.395579
v 5.611735 3.026881 -4.634527
v 3.000000 3.322748 -4.995933
v 4.967631 3.554515 -4.000000
v 5.296508 3.374248 -4.956367
v 8.416802 5.362094 -2.627954
v 9.393187 5.984120 0.052818
v 8.285270 5.278299 2.829368
v 5.832856 3.715939 4.706520
v 3.000000 3.322748 4.995933
v 3.000000 1.077206 5.883935
v 3.000000 -2.632171 5.366543
v 3.000000 -5.517587 2.221601
v 3.000000 -5.543203 -2.248103
v 3.000000 -3.497533 -4.842431
v 3.000000 -0.253312 -5.961287
v 6.500000 -0.596050 5.938291
v 6.500000 1.632515 5.735920
v 6.500000 2.948301 -5.198101
v 6.500000 0.899834 -5.898478
v 6.500000 -2.362293 -5.502413
v 6.500000 -3.629202 -4.755029
v 6.500000 -4.813042 -3.557617
v 6.500000 -5.963714 0.000486
v 6.500000 -5.690909 1.842542
v 6.500000 -3.451316 4.875530
v 6.500000 -2.165166 5.588938
v 6.500000 3.664774 -4.750730
v 4.991665 3.630589 3.395579
v 6.595357 2.882775 3.653884
v 7.679096 2.377419 -0.274771
v 7.292093 2.557882 -2.264332
v 4.446582 3.760983 3.996683
v 0.003947 3.000000 -4.000000
v 0.003947 3.000000 4.000000
v 4.444525 3.760630 4.000000
v 3.000000 3.583606 4.800000
v 4.967631 3.554515 4.000000
v 4.801909 3.199124 4.800000
v 3.000000 -0.665084 4.800000
v 3.000000 -0.665084 4.000000
v 3.000000 -3.000000 -4.000000
v 3.000000 -0.665084 -4.000000
v 3.000000 -0.665084 -4.800000
v -1.108585 -2.758927 -4.000000
v -2.251563 -1.923123 -4.000000
v -2.903150 0.642152 -4.000000
v -2.296898 1.877288 -4.000000
v -0.000000 3.000000 -4.000000
v -0.000000 -3.000000 4.000000
v -1.256312 -2.700139 4.000000
v -2.745841 -1.126300 4.000000
v -2.939327 0.390204 4.000000
v -1.613821 2.511541 4.000000
v -0.000000 3.000000 4.000000
v -1.420791 -2.635021 0.000000
v -2.171211 -2.048128 0.000000
v -2.977855 0.151599 0.000000
v -2.740772 1.182013 0.000000
v -2.171211 2.048128 0.000000
v -0.602809 2.919406 0.000000
v -1.420791 2.635021 0.000000
v -2.763336 -1.097803 0.000000
v -0.602809 -2.919406 0.000000
v -2.421675 1.733365 4.000000
v -2.100109 -2.130431 4.000000
v -1.397149 2.647891 -4.000000
v -2.896950 -0.684937 -4.000000
v -0.000000 -3.000000 -4.000000
v 3.000000 -3.000000 4.000000
v 5.488173 3.269822 4.210333
v 5.647407 3.018044 4.594294
v 0.003947 3.000000 0.000000
v 4.446582 3.760983 0.000000
v 7.301957 2.553282 2.219610
v 6.500000 3.566460 4.824973
v 6.500000 -4.839840 3.501189
v 6.500000 -5.543852 -2.246577
v 6.500000 -0.947798 -5.906191
v 6.500000 2.969192 5.204449
usemtl Paint_-_Metal_Flake_(Black)
f 326 329 302
f 326 298 329
f 303 298 326
f 303 330 298
f 356 330 303
f 356 297 330
f 355 297 356
f 355 331 297
f 355 296 331
f 399 296 355
f 399 332 296
f 354 332 399
f 354 295 332
f 396 295 354
f 396 333 295
f 294 333 396
f 374 394 365
f 359 374 365
f 359 375 374
f 359 390 375
f 377 378 389
f 376 378 377
f 376 379 378
f 390 379 376
f 379 390 359
f 365 360 359
f 362 360 365
f 368 328 300
f 367 328 368
f 300 301 368
f 373 397 358
f 379 397 373
f 359 397 379
f 374 366 394
f 393 366 374
f 375 388 374
f 375 380 388
f 375 381 380
f 390 381 375
f 376 381 390
f 376 387 381
f 376 382 387
f 377 382 376
f 377 383 382
f 389 383 377
f 389 384 383
f 378 384 389
f 378 386 384
f 379 386 378
f 379 385 386
f 373 385 379
f 391 385 373
f 391 386 385
f 372 386 391
f 372 384 386
f 372 383 384
f 371 383 372
f 371 382 383
f 392 382 371
f 392 387 382
f 370 387 392
f 370 381 387
f 370 380 381
f 369 380 370
f 369 388 380
f 393 388 369
f 393 374 388
f 372 392 371
f 391 392 372
f 373 392 391
f 373 370 392
f 358 370 373
f 358 369 370
f 358 393 369
f 367 393 358
f 366 393 367
f 367 299 328
f 358 299 367
f 364 362 365
f 363 362 364
f 364 361 363
f 334 361 364
f 364 293 334
f 364 335 293
f 292 335 364
f 364 336 292
f 365 336 364
f 394 336 365
f 291 336 394
f 337 291 394
f 394 290 337
f 366 290 394
f 338 290 366
f 366 289 338
f 366 339 289
f 288 339 366
f 367 288 366
f 368 288 367
f 340 288 368
f 287 340 368
f 368 327 287
f 301 327 368
f 395 362 363
f 353 362 395
f 353 360 362
f 353 357 360
f 395 354 353
f 395 396 354
f 363 396 395
f 363 294 396
f 361 294 363
f 334 294 361
f 360 357 398
f 299 358 397
f 360 397 359
f 398 397 360
f 398 299 397
f 304 299 398
f 304 398 325
f 353 398 357
f 325 398 353
f 399 353 354
f 325 353 399
f 356 399 355
f 356 325 399
f 303 325 356
f 293 294 334
f 330 297 323
f 343 302 329
f 294 404 333
f 294 342 404
f 293 342 294
f 335 342 293
f 335 341 342
f 292 341 335
f 292 351 341
f 336 351 292
f 336 350 351
f 291 350 336
f 291 401 350
f 337 401 291
f 337 349 401
f 337 348 349
f 290 348 337
f 290 402 348
f 338 402 290
f 338 347 402
f 289 347 338
f 289 346 347
f 339 346 289
f 339 345 346
f 288 345 339
f 288 403 345
f 340 403 288
f 340 344 403
f 287 344 340
f 287 343 344
f 287 302 343
f 287 327 302
f 310 352 298
f 310 298 309
f 309 298 308
f 308 298 330
f 308 330 323
f 323 297 307
f 307 297 331
f 307 331 296
f 307 296 306
f 306 296 332
f 306 332 295
f 306 295 324
f 305 324 400
f 295 333 324
f 333 400 324
f 333 305 400
f 404 305 333
f 342 305 404
f 342 319 305
f 341 319 342
f 352 329 298
f 310 329 352
f 310 343 329
f 310 344 343
f 322 344 310
f 311 344 322
f 311 403 344
f 311 345 403
f 312 345 311
f 312 346 345
f 313 346 312
f 313 347 346
f 321 347 313
f 321 402 347
f 314 402 321
f 314 348 402
f 315 348 314
f 315 349 348
f 316 349 315
f 316 401 349
f 317 401 316
f 317 350 401
f 318 350 317
f 318 351 350
f 318 341 351
f 320 341 318
f 319 341 320
f 300 302 327
f 301 300 327
f 326 302 300
f 328 326 300
f 328 303 326
f 328 304 325
f 303 328 325
f 304 328 299
f 312 321 313
f 312 314 321
f 312 315 314
f 312 316 315
f 312 317 316
f 318 317 312
f 311 318 312
f 311 320 318
f 311 319 320
f 306 323 307
f 306 308 323
f 324 308 306
f 324 309 308
f 324 310 309
f 305 310 324
f 305 322 310
f 319 322 305
f 319 311 322
# 404 vertices
# 0 texture params
# 0 normals
# 800 facets

# 4 groups
