# WaveFront *.obj file (generated by Autodesk ATF)

mtllib hand_sinister_collision.mtl

g Body1

v 1.000000 4.000000 3.250000
v 8.463394 3.954599 2.299159
v 1.000000 3.807359 3.751848
v 8.825989 3.531825 2.624254
v 8.343109 3.962485 2.590365
v 8.299591 3.981196 2.564491
v 8.512505 3.885043 2.656973
v 8.525566 3.792306 2.867400
v 8.319885 3.917518 2.872233
v 8.506729 3.623116 3.143526
v 8.041908 3.944566 3.100993
v 8.238388 3.899301 3.044520
v 8.213455 3.804841 3.254092
v 8.272987 3.549493 3.445903
v 8.361885 3.333973 3.458225
v 7.894180 3.981196 3.099098
v 8.033707 3.790347 3.426411
v 7.817093 3.981196 3.157557
v 7.736191 3.981196 3.210619
v 7.973358 3.484237 3.697560
v 8.676285 3.810516 2.469678
v 7.372559 3.853703 3.648846
v 7.404877 -4.981196 3.355441
v 9.000000 -4.250000 -0.840683
v 7.208984 -4.808352 3.735682
v 1.000000 -4.405934 3.983611
v 1.000000 -4.590026 3.917339
v 0.268692 -4.675998 3.169000
v -0.000000 -4.000000 3.000000
v 0.103912 -4.105691 3.422763
v 0.285873 -4.174471 3.697885
v 0.606125 -4.229068 3.916274
v 0.779762 -4.243561 3.974245
v 0.881027 -4.248214 3.992856
v 4.375000 -4.988240 3.375432
v 4.000000 -4.941820 3.536561
v 4.000000 -4.860708 3.683321
v 4.375000 -4.748974 3.808352
v 4.375000 -4.649024 3.885043
v 4.000000 -4.536561 3.941819
v 4.375000 -4.375432 3.988240
v 1.000000 -5.000000 3.250000
v 1.000000 -4.983611 3.405934
v 1.000000 -4.949226 3.518408
v 1.000000 -4.899519 3.625000
v 1.000000 -4.856763 3.690839
v 1.000000 -4.807359 3.751848
v 1.000000 -4.721343 3.832061
v -0.000000 -1.972930 -2.252392
v 0.750252 3.968310 -1.004253
v 0.701424 3.954387 -1.005755
v 0.604141 3.915580 -1.008995
v 0.428009 3.820261 -1.014632
v 0.367058 3.773777 -1.016006
v 0.270309 3.680689 -1.016628
v -0.000000 3.000000 -0.973947
v -0.000000 2.699230 -1.292300
v -0.000000 2.417887 -1.773967
v -0.000000 2.263634 -1.968746
v -0.000000 2.151485 -2.090720
v -0.000000 2.032773 -2.206317
v -0.000000 1.907859 -2.315183
v -0.000000 1.777125 -2.416987
v -0.000000 1.640971 -2.511417
v -0.000000 1.499810 -2.598186
v -0.000000 1.191431 -2.743637
v -0.000000 0.367785 -2.974200
v -0.000000 -0.045094 -2.996515
v -0.000000 -0.659875 -2.920666
v -0.000000 -1.171781 -2.758272
v -0.000000 -1.506280 -2.594440
v -0.000000 -1.647224 -2.507320
v 7.250053 -4.717617 3.819270
v 7.311836 3.717618 3.808617
v 7.400711 3.457300 3.928359
v 8.996002 3.323344 -1.173160
v 8.985756 3.395486 -1.168129
v 7.263031 3.554964 3.913657
v 7.131416 3.575413 3.921237
v 7.306854 4.000000 3.211751
v 7.405876 4.000000 3.182271
v 7.548523 4.000000 3.122029
v 7.683685 4.000000 3.046458
v 7.767769 4.000000 2.986426
v 7.883133 4.000000 2.883128
v 8.057892 4.000000 2.660330
v 8.144714 4.000000 2.502119
v 8.855141 3.250000 2.731571
v 8.611404 3.250000 3.179220
v 8.461670 3.250000 3.365106
v 8.313644 3.250000 3.506547
v 7.870735 3.250000 3.791526
v 7.539597 3.250000 3.925835
v 7.406914 3.250000 3.958168
v 7.204407 3.250000 3.988355
v 5.907616 -4.684759 -0.620005
v 1.729126 -4.693316 -0.862515
v 7.321190 -4.723730 -0.560630
v 2.673996 3.633058 -1.183763
v 1.374138 3.769335 -1.066857
v 0.492668 3.599216 -1.051621
v 1.889954 3.600181 -1.166048
v 2.603844 3.492598 -1.265286
v 3.396141 3.426953 -1.339569
v 7.015732 3.237308 -1.459439
v 7.283905 3.261837 -1.425261
v 6.846863 -2.964630 -1.542458
v 0.929237 -3.636897 -1.081758
v 4.208084 -4.954291 -0.614852
v 3.851639 -4.671692 -0.720033
v 3.038788 -4.747992 -0.755147
v 5.695724 -4.875172 -0.546999
v 4.880600 -4.619244 -0.687949
v 3.763382 -1.877236 -2.152942
v 7.000000 -4.443848 3.973452
v 8.931786 -4.532448 2.000000
v 8.764351 -4.791954 2.000000
v 8.488815 -4.953992 2.000000
v 8.250000 -5.000000 2.000000
v 3.246750 -3.298043 -1.422042
v 6.222359 2.969184 -1.617381
v 1.485550 3.490143 -1.193312
v 1.184319 3.616362 -1.110912
v 0.385086 -3.583220 -1.038672
v 1.029694 -3.401076 -1.183851
v 1.908707 -3.417248 -1.269367
v 2.444481 -3.220117 -1.440472
v 2.469734 2.542600 -1.931297
v 2.671936 3.153963 -1.501514
v 1.596169 -3.278424 -1.330430
v 5.754845 -1.489502 -1.823580
v 2.009621 3.232718 -1.401807
v 1.823929 3.386777 -1.281675
v 0.935860 -2.332910 -2.028611
v 0.103241 -2.588736 -1.585893
v 0.178726 2.538863 -1.685129
v 1.374397 1.778178 -2.407606
v 1.156204 1.887986 -2.350316
v 0.641159 2.065230 -2.225581
v 0.272079 -2.487775 -1.780672
v 0.611992 -1.617238 -2.517098
v 0.343559 -1.166808 -2.738674
v 0.684784 0.079346 -2.858021
v 0.428268 0.552837 -2.873702
v 1.000000 3.690839 3.856763
v 1.000000 3.590026 3.917339
v 1.000000 3.328396 3.995892
v 1.000000 3.250000 4.000000
v 4.375000 3.988240 3.375432
v 3.250000 3.949866 3.517135
v 4.375000 3.895214 3.630621
v 3.625000 3.836374 3.717618
v 4.000000 3.748974 3.808352
v 3.625000 3.649024 3.885043
v 4.375000 3.536561 3.941819
v 4.375000 3.375432 3.988240
v -0.000000 3.000000 3.000000
v 0.145668 3.128591 3.514364
v 0.368988 3.192589 3.770357
v 0.567261 3.225095 3.900381
v 0.820587 3.245115 3.980459
v 0.867752 3.987397 3.246849
v 0.538025 3.884005 3.221002
v 0.374390 3.777530 3.194383
v 0.163857 3.537289 3.134322
v 0.208466 3.350288 3.559779
v 0.439392 3.599606 3.682028
v 0.609756 3.712475 3.721644
v 0.568771 3.857726 3.442187
v 0.715454 3.577787 3.869800
v 0.758347 3.409622 3.947126
v 7.136482 -4.250000 3.995337
v 0.910713 3.499855 3.950946
v 0.889542 3.924475 3.559623
v 0.795685 3.783110 3.737595
v 0.842415 3.588165 3.901871
v 0.792328 3.662616 3.845374
v 0.748779 3.918125 3.490499
v 0.885590 3.866990 3.661374
v 1.000000 -4.250000 4.000000
v 7.000000 -4.250000 4.000000
v 7.372787 -4.250000 3.961687
v 7.733276 -4.250000 3.859472
v 8.008194 -4.250000 3.723580
v 8.313644 -4.250000 3.506547
v 8.536537 -4.250000 3.272163
v 8.805099 -4.250000 2.858466
v 8.966408 -4.250000 2.304317
v 9.000000 -4.250000 2.000000
v 8.953323 -0.968750 2.397314
v 8.775772 -1.750000 2.920130
v 8.785110 -1.437500 2.880823
v 8.633942 -1.750000 3.153361
v 8.551422 -0.500000 3.262176
v 8.387657 -0.500000 3.435826
v 8.153358 -0.500000 3.633940
v 7.938370 -1.437500 3.759680
v 7.246338 -0.500000 3.980533
v 9.000000 -3.995116 -1.000744
v 9.000000 -3.148251 -1.176095
v 9.000000 -2.676239 -1.189691
v 9.000000 -2.234288 -1.192756
v 2.472595 -4.019066 -0.993262
v 3.773254 -4.069222 -0.964119
v 0.179985 -3.906816 -1.001029
v 1.696625 -3.882390 -1.036752
v 3.949951 -3.925570 -1.040649
v 5.253120 -3.948306 -1.031979
v 2.605881 -1.915394 -2.286697
v 1.031631 3.731046 -1.061568
v 2.154053 3.747480 -1.104431
v 3.759277 3.713264 -1.163025
v 5.761673 3.061362 -1.591556
v 7.645592 3.038844 -1.411703
v 5.032150 1.096674 -1.976671
v 8.012177 -0.893552 -1.393098
v 7.743958 -2.945980 -1.407147
v 8.614532 -3.620429 -1.180830
v 2.491928 -3.840265 -1.067771
v 0.998306 -3.871982 -1.024973
v 0.531593 -3.890598 -1.010653
v 0.690933 3.849052 -1.020480
v 3.160934 3.826338 -1.087773
v 6.909180 3.260788 -1.457356
v 1.258591 3.924706 -1.017957
v 2.451164 3.915135 -1.035096
v 4.865196 3.886666 -1.069556
v 7.056396 3.743011 -1.164117
v 0.217400 -3.398692 -1.037888
v 6.154297 4.000000 -1.000000
v 2.755859 4.000000 -1.000000
v 1.339844 4.000000 -1.000000
v 1.000000 4.000000 -1.000000
v 7.528236 3.497709 3.885308
v 7.453613 3.593816 3.859923
v 7.354401 3.957912 3.454277
v 7.656868 3.476726 3.848252
v 7.527657 3.698999 3.768878
v 7.469803 3.933773 3.482417
v 7.784676 3.457300 3.806498
v 7.338806 3.981196 3.365604
v 7.707687 3.636895 3.750649
v 7.635246 3.850200 3.565263
v 7.689041 3.957912 3.329794
v 7.624275 3.969554 3.315876
v 7.745743 3.923602 3.383678
v 1.000000 3.751848 3.807359
v 1.000000 3.878141 3.657919
v 1.000000 3.949226 3.518408
v 1.000000 3.983611 3.405934
v 7.000000 3.250000 4.000000
v 8.908752 3.606450 -1.150128
v 8.785973 3.771976 -1.123749
v 8.457520 3.968656 -1.019833
v 8.250000 4.000000 2.000000
v 8.673172 3.865790 2.000000
v 9.000000 3.250000 2.000000
v 8.804840 3.745836 0.410954
v 7.000000 4.000000 3.250000
v 7.000000 3.973452 3.443849
v 7.000000 3.878141 3.657919
v 7.000000 3.751848 3.807359
v 7.000000 3.590026 3.917339
v 7.000000 3.367165 3.989751
v 7.242424 3.780330 3.763748
v 3.697891 3.157452 -1.530794
v 0.222992 -4.291801 -0.997468
v 1.174255 -4.085401 -0.983585
v 1.833694 -4.057055 -0.982973
v 3.139549 -4.107024 -0.952137
v 0.602814 -4.085875 -0.992206
v 5.346794 -4.335247 -0.808571
v 6.203476 -3.828165 -1.110045
v 6.059868 -4.266933 -0.838298
v 4.484344 -4.338615 -0.823988
v 2.115204 -4.231168 -0.929789
v 7.817627 -4.621771 -0.610234
v 3.599754 -4.344456 -0.845952
v 0.680885 -4.320708 -0.973224
v 2.370529 -4.373859 -0.882270
v 1.313980 -4.334730 -0.940033
v 3.443489 -4.517767 -0.791515
v 1.833374 -4.502893 -0.884901
v 1.049232 -4.421968 -0.944629
v 0.669022 -4.712309 -0.957202
v 7.260925 -4.941820 3.513336
v 7.194046 -4.630621 3.884143
v 0.195374 -4.489146 3.413757
v 0.323433 -4.435861 3.660748
v 0.512177 -4.671327 3.690107
v 0.495102 -4.763968 3.552423
v 0.760590 -4.612215 3.867037
v 0.604446 -4.524954 3.842957
v 0.722885 -4.514246 3.907257
v 0.738678 -4.408429 3.945918
v 0.849098 -4.961414 3.440372
v 0.731049 -4.854940 3.615783
v 0.789215 -4.523898 3.922440
v 0.762550 -4.466171 3.935977
v 0.874870 -4.986396 3.335048
v 0.815041 -4.922538 3.532624
v 0.793617 -4.786867 3.734626
v 0.834167 -4.418124 3.965407
v 0.889511 -4.630623 3.886666
v 0.905365 -4.336015 3.989199
v 0.881271 -4.992885 3.248221
v 0.684799 -4.945207 3.236301
v 0.468048 -4.845018 3.211254
v 1.000000 3.443849 3.973452
v 3.327988 1.829255 -2.227091
v 1.130676 2.883951 -1.572205
v 1.197182 1.417892 -2.576359
v 0.627319 -1.476470 -2.589561
v 0.679306 -2.451890 -1.897416
v 0.187576 -2.972190 -1.177624
v 1.266953 0.841360 -2.686911
v 0.577286 -2.581316 -1.752826
v 0.574875 2.429029 -1.906510
v 0.936836 -0.580542 -2.778186
v 1.391815 -1.325005 -2.585047
v 2.960052 -2.204373 -2.132584
v 0.599380 2.767353 -1.569594
v 0.850586 2.370254 -1.993003
v 1.658951 -3.000943 -1.544126
v 1.123177 -2.921962 -1.535096
v 2.997543 1.119217 -2.353826
v 1.502060 2.931314 -1.581988
v 1.386520 3.038620 -1.481455
v 1.324615 3.134933 -1.397763
v 0.506531 3.117146 -1.233447
v 0.262039 3.206850 -1.102453
v 0.726273 3.022004 -1.370806
v 0.990372 3.007197 -1.442830
v 0.861992 3.989354 1.827687
v 0.004265 3.092268 1.827687
v 0.017029 3.183750 1.827687
v 0.004265 3.092268 0.405374
v 8.981194 -4.416891 0.579658
v 0.794159 3.975590 0.405374
v 0.376404 -4.777846 0.766504
v 0.084145 -4.362129 1.121289
v 0.682541 3.947149 1.827687
v 0.816254 -4.982973 0.411719
v 0.685684 -4.947081 0.677807
v 0.513245 3.868372 1.472108
v 0.012955 -1.093262 3.138330
v 0.861992 -4.989354 1.476074
v 8.375435 -4.988240 0.579658
v 0.215942 3.602867 1.116530
v 0.191589 -2.375000 3.554058
v 0.247818 1.375000 3.654493
v 8.957916 -4.497709 0.579658
v 8.554962 -4.931649 0.579658
v 0.067795 3.348663 0.405374
v 0.625404 -0.968750 3.912345
v 0.247818 -0.500000 3.654493
v 8.995285 -4.333973 0.579658
v 8.821098 -4.718859 0.579658
v 0.017029 3.183750 0.405374
v 0.907730 -2.375000 3.995734
v 0.766647 0.906250 3.966930
v 7.425705 -4.860708 3.625813
v 8.029617 -4.866916 3.309479
v 7.201538 -4.446935 3.959831
v 7.438866 -4.691160 3.799891
v 8.143295 -4.716201 3.429943
v 7.860947 -4.982419 3.097643
v 7.493568 -4.501592 3.886490
v 8.219040 -4.554964 3.498402
v 7.994225 -4.925727 3.222065
v 7.530624 -4.949866 3.418714
v 8.183182 -4.913631 3.051873
v 7.955910 -4.988240 2.988112
v 7.565475 -4.736112 3.725100
v 8.099098 -4.981196 2.894183
v 8.585297 -4.714568 2.910680
v 7.596199 -4.780330 3.677536
v 8.481735 -4.883567 2.700819
v 8.223587 -4.957913 2.863699
v 7.711777 -4.986919 3.183021
v 8.292519 -4.976885 2.585481
v 8.478897 -4.819559 2.897969
v 7.696960 -4.915556 3.431327
v 8.820328 -4.573489 2.612445
v 8.681015 -4.812198 2.388062
v 7.753220 -4.853703 3.511103
v 8.371597 -4.986057 2.158387
v 8.418671 -4.965531 2.370955
v 7.733704 -4.786502 3.611726
v 8.046455 -5.000000 2.683685
v 8.122025 -5.000000 2.548527
v 7.909958 -4.514123 3.719343
v 7.751366 -5.000000 2.986361
v 7.986427 -5.000000 2.767766
v 7.753799 -4.941820 3.337929
v 7.000000 -5.000000 3.250000
v 7.502121 -5.000000 3.144717
v 7.923340 -4.649024 3.642159
v 7.000000 -4.983611 3.405934
v 7.000000 -4.995891 3.328396
v 7.778183 -4.957913 3.279672
v 7.000000 -4.899519 3.625000
v 7.000000 -4.949226 3.518408
v 8.026474 -4.664918 3.562838
v 7.000000 -4.721343 3.832061
v 7.000000 -4.856763 3.690839
v 1.000000 -4.481763 3.963293
v 7.000000 -4.590026 3.917339
v 7.000000 -4.807359 3.751848
v 0.462265 -3.378191 -1.100252
v 1.522583 -2.333910 -2.057446
v 5.092682 -2.251512 -1.898395
v 0.358315 -2.885969 -1.362158
v 1.188446 3.306958 -1.262766
v 1.496941 -2.084730 -2.226918
v 0.274414 3.446993 -1.045363
v 5.139214 -1.714127 -1.929514
v 0.880760 3.502510 -1.125860
v 0.891335 3.344548 -1.196029
v 1.832184 2.873357 -1.659868
v 0.324707 3.307563 -1.088692
v 3.243454 2.539838 -1.933107
v 0.891335 3.226192 -1.264063
v 3.319077 -0.268171 -2.331712
v 1.991058 2.669012 -1.827824
v 2.352455 -2.213061 -2.140670
v 5.042473 2.686880 -1.813097
v 2.201706 -2.840039 -1.707406
v 3.747345 -1.152996 -2.212640
v 0.479263 -3.746712 -1.025810
v 3.732529 -3.142212 -1.542475
v 1.824997 -3.638157 -1.142886
v 1.057602 -3.177014 -1.325022
v 2.575638 -3.588266 -1.205035
v 1.442688 -3.758227 -1.072438
v 4.028091 -3.624383 -1.223316
v 2.260307 -3.653400 -1.155007
v 3.866440 -2.157452 -2.089431
v 3.269081 -3.648373 -1.192418
v 7.838760 -3.860399 -1.088632
v 6.205536 -3.298114 -1.445145
v -0.000000 -2.926549 -1.004733
v -0.000000 -2.345417 -1.865517
v -0.000000 -4.000000 -1.000000
v -0.000000 -2.660171 -1.380082
v 0.262329 -4.675163 -0.996801
v -0.000000 -3.330154 -0.978421
v 0.332321 -4.744450 -0.990471
v 0.185165 -4.567550 -1.001978
v 0.428596 -4.820306 -0.980731
v 0.296501 -4.710697 -0.993808
v 0.795700 -4.978077 -0.938788
v 0.369675 -4.776334 -0.986813
v 1.708618 -5.000000 -0.837467
v 0.636353 -4.928874 -0.957435
v 5.132355 -5.000000 -0.536081
v 1.000000 -5.000000 -0.915057
v 7.592613 -5.000000 -0.408255
v 3.159088 -5.000000 -0.693861
v 8.250000 -5.000000 -0.387930
v 6.393768 -5.000000 -0.460048
v 8.469040 -4.967026 -0.400793
v 8.603149 -4.907456 -0.432264
v 8.779099 -4.780277 -0.505062
v 8.897820 -4.623395 -0.601479
v 9.000000 3.108378 -1.184731
v 8.951797 -4.514558 -0.670310
v 9.000000 2.259170 -1.192754
v 8.980476 -4.416631 -0.733215
v 9.000000 -1.484217 -1.196779
v 9.000000 3.011955 -1.187095
v 9.000000 1.508406 -1.196781
v 9.000000 0.011818 -1.200000
v 7.000000 3.481763 3.963293
v 9.000000 3.250000 -1.178093
v 7.000000 3.690839 3.856763
v 7.000000 3.807359 3.751848
v 7.000000 3.935159 3.555052
v 7.000000 3.995892 3.328396
v 8.465195 3.959945 0.410954
v 8.965004 3.456048 0.410954
v 8.868805 3.646994 2.000000
v 8.470589 3.959915 2.000000
v 8.250000 4.000000 -1.000000
v 8.675896 3.863785 -1.084757
v 8.963867 3.476564 -1.161941
usemtl Paint_-_Metal_Flake_(Black)
f 469 24 357
f 118 119 348
f 353 118 348
f 117 118 353
f 358 117 353
f 116 117 358
f 352 116 358
f 338 116 352
f 460 348 119
f 462 348 460
f 462 353 348
f 463 353 462
f 463 358 353
f 464 358 463
f 465 358 464
f 467 358 465
f 467 352 358
f 469 352 467
f 469 338 352
f 357 338 469
f 357 116 338
f 189 357 24
f 116 357 189
f 1 232 233
f 231 232 1
f 1 230 231
f 81 259 80
f 82 259 81
f 83 259 82
f 84 259 83
f 85 259 84
f 86 259 85
f 87 259 86
f 255 259 87
f 230 255 484
f 230 259 255
f 259 230 1
f 447 444 29
f 442 447 29
f 29 445 442
f 29 443 445
f 29 49 443
f 72 49 29
f 29 71 72
f 29 70 71
f 29 69 70
f 69 67 68
f 69 66 67
f 69 65 66
f 64 65 69
f 69 63 64
f 69 62 63
f 61 62 69
f 69 60 61
f 69 59 60
f 58 59 69
f 69 57 58
f 56 57 69
f 29 56 69
f 157 56 29
f 334 339 342
f 345 342 339
f 349 354 336
f 336 359 335
f 354 359 336
f 359 337 335
f 162 1 233
f 157 335 337
f 157 336 335
f 157 349 336
f 165 349 157
f 165 345 349
f 164 345 165
f 163 345 164
f 163 342 345
f 162 342 163
f 162 334 342
f 233 334 162
f 233 339 334
f 50 339 233
f 51 339 50
f 51 345 339
f 52 345 51
f 53 345 52
f 53 349 345
f 54 349 53
f 55 349 54
f 56 349 55
f 56 354 349
f 56 359 354
f 56 337 359
f 56 157 337
f 396 393 397
f 396 394 393
f 396 390 394
f 391 390 396
f 396 119 391
f 458 460 119
f 119 461 458
f 396 461 119
f 454 42 457
f 459 42 454
f 456 42 459
f 461 42 456
f 461 396 42
f 341 340 28
f 344 343 347
f 306 347 42
f 307 347 306
f 307 344 347
f 307 340 344
f 308 340 307
f 308 28 340
f 29 341 28
f 444 341 29
f 449 341 444
f 446 341 449
f 451 341 446
f 451 340 341
f 448 340 451
f 453 340 448
f 450 340 453
f 450 344 340
f 455 344 450
f 452 344 455
f 452 343 344
f 452 347 343
f 457 347 452
f 42 347 457
f 350 356 346
f 350 31 356
f 31 355 356
f 356 351 346
f 356 355 351
f 360 180 148
f 34 180 360
f 346 157 29
f 161 361 148
f 160 361 161
f 160 355 361
f 159 355 160
f 159 351 355
f 158 351 159
f 158 346 351
f 157 346 158
f 29 350 346
f 30 350 29
f 31 350 30
f 32 355 31
f 33 355 32
f 34 355 33
f 360 355 34
f 360 361 355
f 148 361 360
f 28 288 29
f 288 28 289
f 291 290 28
f 289 293 32
f 291 302 290
f 291 297 302
f 293 299 295
f 299 303 295
f 302 45 47
f 297 45 302
f 303 407 26
f 299 407 303
f 302 293 290
f 302 48 292
f 47 48 302
f 28 293 289
f 290 293 28
f 302 292 293
f 292 48 304
f 295 32 293
f 295 33 32
f 303 33 295
f 303 305 33
f 303 26 305
f 289 32 31
f 305 34 33
f 300 42 43
f 306 42 300
f 307 306 300
f 296 43 44
f 296 300 43
f 296 307 300
f 308 307 296
f 308 296 301
f 305 180 34
f 26 180 305
f 294 299 293
f 298 299 294
f 298 407 299
f 293 298 294
f 292 298 293
f 292 407 298
f 304 407 292
f 27 407 304
f 288 31 30
f 288 289 31
f 48 27 304
f 288 30 29
f 45 46 47
f 301 45 297
f 308 291 28
f 308 297 291
f 44 45 301
f 308 301 297
f 296 44 301
f 41 181 180
f 115 181 41
f 35 42 396
f 43 42 35
f 26 41 180
f 407 41 26
f 407 40 41
f 27 40 407
f 27 39 40
f 48 39 27
f 48 38 39
f 47 38 48
f 47 37 38
f 46 37 47
f 45 37 46
f 45 36 37
f 44 36 45
f 44 35 36
f 43 35 44
f 400 35 396
f 399 35 400
f 403 35 399
f 403 36 35
f 402 36 403
f 402 37 36
f 406 37 402
f 409 37 406
f 409 38 37
f 405 38 409
f 405 39 38
f 408 39 405
f 408 40 39
f 115 40 408
f 115 41 40
f 390 391 381
f 373 393 394
f 367 393 373
f 380 393 367
f 397 393 380
f 400 396 397
f 388 119 387
f 388 391 119
f 381 391 388
f 375 394 390
f 373 394 375
f 23 397 380
f 23 400 397
f 399 400 23
f 378 390 381
f 379 390 378
f 379 375 390
f 372 375 379
f 372 373 375
f 372 367 373
f 401 380 367
f 395 380 401
f 371 380 395
f 371 23 380
f 286 23 371
f 286 399 23
f 403 399 286
f 385 388 387
f 385 381 388
f 382 379 378
f 382 372 379
f 370 367 372
f 363 367 370
f 363 401 367
f 395 401 363
f 383 371 395
f 402 403 286
f 378 381 385
f 363 370 372
f 383 395 363
f 386 371 383
f 362 371 386
f 362 286 371
f 406 286 362
f 406 402 286
f 386 383 363
f 389 362 386
f 25 406 362
f 409 406 25
f 376 382 378
f 376 363 372
f 366 363 376
f 377 362 389
f 374 362 377
f 365 362 374
f 365 25 362
f 385 376 378
f 376 372 382
f 366 386 363
f 404 386 366
f 404 389 386
f 374 377 389
f 73 25 365
f 73 409 25
f 405 409 73
f 384 385 188
f 384 376 385
f 186 376 384
f 404 366 369
f 398 389 404
f 398 374 389
f 287 73 365
f 287 405 73
f 408 405 287
f 185 376 186
f 185 366 376
f 392 398 404
f 392 374 398
f 368 374 392
f 368 365 374
f 368 287 365
f 185 369 366
f 392 404 369
f 364 287 368
f 364 408 287
f 115 408 364
f 185 392 369
f 183 368 392
f 188 186 384
f 184 392 185
f 184 183 392
f 183 182 368
f 182 364 368
f 172 115 364
f 181 115 172
f 364 182 172
f 186 188 187
f 116 189 188
f 117 116 385
f 119 118 387
f 385 116 188
f 385 118 117
f 387 118 385
f 415 426 441
f 413 135 140
f 209 142 320
f 70 142 313
f 316 143 144
f 316 326 143
f 426 415 141
f 209 313 142
f 141 313 209
f 320 142 69
f 321 141 209
f 426 141 321
f 413 315 445
f 215 143 326
f 415 411 72
f 431 415 273
f 411 415 431
f 325 413 317
f 413 410 315
f 445 315 442
f 315 229 442
f 315 410 229
f 229 447 442
f 421 331 56
f 416 421 56
f 56 331 57
f 101 421 416
f 215 424 143
f 131 215 216
f 424 215 131
f 429 424 131
f 320 438 209
f 431 428 411
f 411 324 134
f 411 428 324
f 428 431 120
f 101 416 56
f 331 330 57
f 331 421 330
f 101 418 421
f 101 210 418
f 330 322 57
f 330 332 322
f 330 423 332
f 419 414 423
f 419 122 414
f 418 122 419
f 123 122 418
f 123 102 122
f 211 123 100
f 102 123 211
f 137 427 312
f 213 427 137
f 213 224 427
f 224 121 427
f 224 105 121
f 224 106 105
f 105 106 121
f 424 429 319
f 424 319 143
f 429 114 319
f 209 441 321
f 440 415 441
f 440 273 415
f 436 120 431
f 428 127 324
f 120 127 428
f 120 439 127
f 436 439 120
f 324 325 134
f 127 439 434
f 324 433 325
f 324 126 130
f 127 126 324
f 434 126 127
f 324 130 433
f 434 432 126
f 434 437 432
f 130 125 433
f 126 125 130
f 126 432 125
f 432 108 125
f 432 435 108
f 435 220 108
f 220 430 108
f 229 430 447
f 124 430 229
f 205 447 430
f 110 109 111
f 449 267 285
f 267 279 285
f 267 271 279
f 113 96 112
f 274 273 277
f 221 271 267
f 272 208 274
f 282 113 110
f 207 208 272
f 274 208 273
f 113 112 110
f 272 98 96
f 274 98 272
f 274 277 98
f 279 284 97
f 279 281 284
f 279 271 281
f 205 267 444
f 205 221 267
f 283 111 97
f 282 110 111
f 278 113 282
f 278 275 113
f 204 272 275
f 207 272 204
f 436 208 207
f 209 199 440
f 222 210 101
f 57 322 136
f 332 333 322
f 332 329 333
f 423 329 332
f 414 329 423
f 414 133 329
f 122 133 414
f 122 102 133
f 333 311 322
f 333 328 311
f 329 328 333
f 133 132 329
f 102 103 133
f 102 99 103
f 211 99 102
f 211 223 99
f 136 322 318
f 322 311 318
f 328 327 311
f 328 132 327
f 329 132 328
f 133 103 132
f 99 212 103
f 223 212 99
f 311 323 318
f 311 420 323
f 327 420 311
f 132 420 327
f 132 129 420
f 103 129 132
f 103 104 129
f 103 212 104
f 420 425 323
f 129 425 420
f 129 266 425
f 104 266 129
f 212 266 104
f 212 227 266
f 425 139 323
f 425 266 139
f 266 128 139
f 266 228 128
f 266 227 228
f 128 422 138
f 128 213 422
f 228 213 128
f 429 417 412
f 131 417 429
f 216 217 131
f 114 438 320
f 217 438 412
f 107 438 217
f 218 107 217
f 218 438 107
f 218 209 438
f 436 431 208
f 439 436 207
f 434 439 207
f 219 204 270
f 219 207 204
f 219 434 207
f 270 204 275
f 203 219 270
f 270 275 278
f 206 219 203
f 276 278 280
f 276 270 278
f 276 203 270
f 269 203 276
f 269 206 203
f 435 219 206
f 268 269 276
f 220 269 268
f 220 206 269
f 220 435 206
f 281 280 283
f 281 276 280
f 219 437 434
f 219 432 437
f 435 432 219
f 221 430 220
f 281 283 97
f 281 268 276
f 271 220 268
f 221 220 271
f 284 281 97
f 271 268 281
f 325 317 314
f 433 413 325
f 125 413 433
f 125 410 413
f 430 124 410
f 421 418 330
f 210 123 418
f 210 225 100
f 222 225 210
f 225 211 100
f 226 211 225
f 226 223 211
f 213 228 224
f 121 310 427
f 427 310 312
f 422 137 138
f 422 213 137
f 228 230 484
f 227 212 223
f 227 230 228
f 227 231 230
f 223 231 227
f 226 231 223
f 225 231 226
f 225 232 231
f 225 233 232
f 222 52 51
f 222 53 52
f 54 53 222
f 55 101 56
f 54 101 55
f 222 101 54
f 51 225 222
f 50 225 51
f 233 225 50
f 100 123 210
f 423 418 419
f 423 330 418
f 136 58 57
f 136 59 58
f 60 136 318
f 59 136 60
f 61 318 323
f 60 318 61
f 62 323 139
f 61 323 62
f 63 139 128
f 62 139 63
f 64 128 138
f 63 128 64
f 65 138 137
f 64 138 65
f 65 137 66
f 66 137 312
f 143 67 144
f 320 69 319
f 69 142 70
f 70 313 141
f 71 141 415
f 70 141 71
f 71 415 72
f 430 221 205
f 410 108 430
f 125 108 410
f 314 134 325
f 49 411 134
f 72 411 49
f 140 49 314
f 140 443 49
f 413 140 317
f 135 443 140
f 135 445 443
f 413 445 135
f 229 410 124
f 314 317 140
f 49 134 314
f 444 447 205
f 267 449 444
f 285 279 97
f 285 446 449
f 451 446 285
f 285 448 451
f 285 453 448
f 285 450 453
f 285 455 450
f 457 452 455
f 97 111 459
f 109 459 111
f 109 456 459
f 110 456 109
f 461 456 112
f 110 112 456
f 96 461 112
f 458 96 98
f 461 96 458
f 98 460 458
f 98 462 460
f 98 463 462
f 277 463 98
f 464 463 277
f 465 277 273
f 464 277 465
f 273 467 465
f 440 467 273
f 440 469 467
f 440 441 209
f 469 440 24
f 24 440 199
f 218 199 209
f 441 426 321
f 208 431 273
f 96 275 272
f 96 113 275
f 454 97 459
f 454 285 97
f 457 285 454
f 455 285 457
f 280 111 283
f 280 282 111
f 278 282 280
f 114 412 438
f 319 69 68
f 199 218 200
f 143 319 68
f 143 68 67
f 114 320 319
f 200 218 217
f 429 412 114
f 417 217 412
f 131 217 417
f 216 200 217
f 201 200 216
f 201 216 202
f 202 216 470
f 473 216 215
f 470 216 473
f 473 215 472
f 468 472 215
f 312 316 144
f 310 326 316
f 471 468 215
f 67 312 144
f 66 312 67
f 310 316 312
f 310 215 326
f 214 215 310
f 214 471 215
f 214 466 471
f 475 466 214
f 214 76 475
f 214 77 76
f 214 486 77
f 214 252 486
f 121 214 310
f 106 214 121
f 106 252 214
f 253 252 106
f 224 253 106
f 485 253 224
f 228 485 224
f 228 254 485
f 484 254 228
f 257 468 471
f 257 472 468
f 473 472 257
f 257 470 473
f 257 202 470
f 201 202 257
f 201 199 200
f 257 199 201
f 257 24 199
f 189 24 257
f 475 471 466
f 257 471 475
f 194 193 192
f 257 192 190
f 88 192 257
f 89 192 88
f 89 194 192
f 89 195 194
f 90 195 89
f 91 195 90
f 91 196 195
f 92 196 91
f 92 197 196
f 93 197 92
f 93 198 197
f 94 198 93
f 95 198 94
f 251 198 95
f 181 198 251
f 172 198 181
f 182 198 172
f 182 197 198
f 183 197 182
f 184 197 183
f 184 196 197
f 184 195 196
f 185 195 184
f 186 195 185
f 186 194 195
f 186 193 194
f 186 192 193
f 186 191 192
f 187 191 186
f 187 192 191
f 188 192 187
f 188 190 192
f 189 190 188
f 257 190 189
f 251 180 181
f 148 180 251
f 249 178 174
f 145 177 176
f 170 168 167
f 174 175 179
f 178 175 174
f 178 168 175
f 178 169 168
f 145 176 146
f 177 170 176
f 157 158 166
f 146 176 173
f 167 159 170
f 176 171 173
f 170 171 176
f 170 159 171
f 166 159 167
f 178 162 163
f 250 1 162
f 169 178 163
f 178 250 162
f 169 164 165
f 169 163 164
f 249 250 178
f 174 248 249
f 179 248 174
f 167 169 165
f 3 179 175
f 3 248 179
f 168 169 167
f 157 166 165
f 167 165 166
f 177 3 175
f 247 3 177
f 170 175 168
f 170 177 175
f 145 247 177
f 173 309 146
f 160 171 159
f 147 173 171
f 147 309 173
f 159 166 158
f 161 171 160
f 161 147 171
f 148 147 161
f 479 259 1
f 149 479 1
f 260 479 149
f 147 148 251
f 156 147 251
f 309 147 156
f 250 149 1
f 249 149 250
f 249 150 149
f 248 150 249
f 248 151 150
f 248 152 151
f 3 152 248
f 3 153 152
f 247 153 3
f 145 153 247
f 145 154 153
f 146 154 145
f 146 155 154
f 309 155 146
f 309 156 155
f 264 156 251
f 474 156 264
f 474 155 156
f 263 155 474
f 263 154 155
f 476 154 263
f 476 153 154
f 262 153 476
f 477 153 262
f 477 152 153
f 261 152 477
f 261 151 152
f 478 151 261
f 478 150 151
f 260 150 478
f 260 149 150
f 241 81 80
f 241 82 81
f 245 82 241
f 245 83 82
f 19 83 245
f 19 84 83
f 18 84 19
f 16 84 18
f 16 85 84
f 11 85 16
f 11 86 85
f 6 255 87
f 5 255 6
f 483 255 2
f 236 241 478
f 239 241 236
f 245 241 239
f 244 19 245
f 246 19 244
f 246 18 19
f 11 18 246
f 11 16 18
f 9 86 11
f 5 86 9
f 5 87 86
f 5 6 87
f 2 255 5
f 239 236 478
f 246 245 239
f 246 244 245
f 12 9 11
f 22 478 261
f 22 239 478
f 243 239 22
f 243 246 239
f 12 11 13
f 21 5 7
f 21 2 5
f 256 483 2
f 17 246 243
f 17 11 246
f 17 13 11
f 8 9 12
f 8 5 9
f 8 7 5
f 8 21 7
f 256 2 21
f 265 22 261
f 238 243 22
f 13 8 12
f 74 22 265
f 74 238 22
f 242 243 238
f 242 17 243
f 10 8 13
f 4 21 8
f 482 256 21
f 235 74 78
f 235 238 74
f 14 13 17
f 14 10 13
f 4 8 88
f 4 482 21
f 235 242 238
f 237 242 235
f 20 17 242
f 20 14 17
f 88 8 10
f 75 235 78
f 234 235 75
f 234 237 235
f 240 242 237
f 20 242 240
f 89 88 10
f 95 75 78
f 93 234 75
f 93 237 234
f 90 10 14
f 89 10 90
f 257 4 88
f 257 482 4
f 94 75 95
f 94 93 75
f 93 240 237
f 92 240 93
f 92 20 240
f 91 14 20
f 15 14 91
f 15 90 14
f 15 91 90
f 20 92 91
f 264 251 95
f 79 263 474
f 262 263 79
f 476 263 262
f 479 260 478
f 78 264 95
f 78 474 264
f 78 79 474
f 78 262 79
f 74 262 78
f 265 262 74
f 265 477 262
f 261 477 265
f 241 479 478
f 80 479 241
f 259 479 80
f 481 482 257
f 258 482 481
f 258 256 482
f 480 256 258
f 480 483 256
f 255 483 480
f 480 484 255
f 480 254 484
f 480 485 254
f 258 485 480
f 258 253 485
f 258 252 253
f 481 252 258
f 481 486 252
f 481 77 486
f 481 76 77
f 475 481 257
f 76 481 475
# 486 vertices
# 0 texture params
# 0 normals
# 968 facets

# 1 groups
