# WaveFront *.obj file (generated by Autodesk ATF)

mtllib hand_dexter_collision.mtl

g Body1

v -1.000000 3.481763 3.963293
v -1.000000 3.367165 3.989751
v 0.000000 3.000000 3.000000
v -8.479584 3.941819 2.414559
v -7.686279 3.893256 3.473635
v -7.939056 3.677183 3.602943
v -8.130783 3.788411 3.352346
v -7.872887 3.964149 3.170796
v -7.995819 3.885043 3.313185
v -8.142517 3.416891 3.618577
v -8.098740 3.968550 2.933333
v -8.177887 3.872876 3.177061
v -8.505447 3.531631 3.213658
v -8.310303 3.876041 3.010510
v -8.519180 3.781381 2.912050
v -8.255325 3.941819 2.886105
v -8.389496 3.930372 2.674094
v -8.629150 3.842173 2.445951
v -8.452126 3.966643 2.198894
v -8.542465 3.925726 2.320527
v -1.000000 3.250000 4.000000
v -7.236816 -4.933773 3.535331
v -1.000000 3.949226 3.518408
v -7.255508 -4.872876 3.643767
v -7.400711 -4.457300 3.928359
v -0.765465 -4.972108 3.243027
v -0.822716 -4.984147 3.246037
v -0.910919 -4.995544 3.248886
v -3.625000 -4.333973 3.995284
v -4.000000 -4.457300 3.969554
v -3.625000 -4.575413 3.925726
v -4.000000 -4.683321 3.860708
v -3.625000 -4.808352 3.748974
v -4.000000 -4.905385 3.612218
v -4.375000 -4.957913 3.497709
v -4.000000 -4.988240 3.375432
v -1.000000 -4.367165 3.989751
v -1.000000 -4.518408 3.949226
v -1.000000 -4.657919 3.878141
v -1.000000 -4.751848 3.807359
v -1.000000 -4.832061 3.721343
v -1.000000 -4.917339 3.590026
v -1.000000 -4.973451 3.443849
v -1.000000 -5.000000 3.250000
v -7.200104 -4.497709 3.946512
v -7.194740 -4.612218 3.894290
v -7.246239 -4.748974 3.791509
v -0.774963 3.974020 -1.003569
v -0.627640 -4.926034 -0.958465
v -1.000000 -5.000000 -0.915057
v -6.562195 -4.062386 -0.960154
v -7.823166 -3.098154 -1.380681
v -7.423302 -1.982064 -1.492782
v -8.565353 -0.776950 -1.285551
v -8.565353 -0.092102 -1.286789
v -8.538216 1.837117 -1.282604
v -7.625870 3.378362 -1.356099
v -4.852814 3.785059 -1.132301
v -2.352127 3.786119 -1.091704
v -0.498276 3.772633 -1.023974
v -0.155220 -3.520311 -1.011665
v -8.972946 -4.449640 -0.711948
v -8.951797 -4.514558 -0.670310
v -8.897820 -4.623395 -0.601479
v -8.779099 -4.780277 -0.505062
v -8.516609 -4.942067 -0.414295
v -8.250000 -5.000000 -0.387930
v -7.592613 -5.000000 -0.408255
v -5.901817 -5.000000 -0.488043
v -4.187408 -5.000000 -0.604707
v -2.397476 -5.000000 -0.766914
v -1.434067 -5.000000 -0.866917
v -7.440598 -4.969554 3.388208
v -8.348999 3.250000 3.469540
v -8.096268 3.250000 3.671390
v -1.000000 3.590026 3.917339
v -1.000000 3.721343 3.832061
v -1.000000 3.807359 3.751848
v -0.123642 3.105711 3.422845
v -0.483788 3.213056 3.852223
v -0.738678 3.240775 3.963099
v -3.625000 3.993523 3.344338
v -4.187500 3.975375 3.437096
v -5.500000 3.941819 3.536561
v -3.812500 3.910470 3.603017
v -4.187500 3.801347 3.756813
v -4.000000 3.683321 3.860708
v -4.000000 3.536561 3.941819
v -4.000000 3.375432 3.988240
v -1.000000 4.000000 3.250000
v -1.000000 3.983611 3.405934
v -1.000000 3.878141 3.657919
v -0.511581 -4.872269 -0.971721
v -1.015129 3.688155 -1.073797
v -0.297112 3.621812 -1.025439
v -0.722740 -3.722570 -1.044010
v -2.321701 -3.488648 -1.252356
v -4.203896 -3.550366 -1.275487
v -4.200813 3.435178 -1.351452
v -1.984863 3.652874 -1.143906
v -0.632912 3.717547 -1.041226
v -0.295792 -3.709233 -1.015329
v -2.224030 -3.768363 -1.095771
v -2.431435 -2.552074 -1.924458
v -6.164238 -2.991464 -1.613400
v -7.724869 -3.307859 -1.361785
v -6.780899 0.024724 -1.642176
v -8.166092 3.399206 -1.285951
v -0.784042 3.928288 -1.010213
v -1.280258 3.910779 -1.021280
v -2.451172 3.915135 -1.035096
v -3.643745 3.890205 -1.059090
v -7.475502 3.848885 -1.096262
v -7.995911 -3.506378 -1.281414
v -8.273270 -3.664458 -1.203399
v -7.558365 -3.502935 -1.309982
v -4.534302 -3.072417 -1.594336
v -5.736694 -4.186239 -0.887788
v -0.467407 -3.843700 -1.013115
v -1.068878 -3.963161 -1.006687
v -1.409210 -3.729884 -1.080047
v -3.348602 -3.687039 -1.171297
v -0.819565 -4.982759 -0.935981
v -0.148338 3.520474 -1.013033
v -0.424576 3.814089 -1.014480
v -0.566315 3.898746 -1.010291
v -0.701424 3.954387 -1.005755
v -0.468636 3.844497 3.211124
v -0.736687 3.959620 3.239905
v -0.881271 3.992925 3.248231
v -0.911911 3.392177 3.980556
v -0.922455 3.744894 3.807040
v -0.882065 3.931258 3.538427
v -0.845123 3.541612 3.923365
v -0.754639 3.701835 3.803380
v -0.826797 3.788158 3.746922
v -0.765968 3.933855 3.461063
v -0.790009 3.469830 3.942430
v -0.537407 3.339349 3.866158
v -0.667603 3.548754 3.864779
v -0.739883 3.843314 3.640029
v -8.884521 -4.250000 2.669759
v -0.671890 3.855103 3.576454
v -0.633667 3.889277 3.465051
v -0.501289 3.804678 3.488911
v -0.473602 3.831857 3.357471
v -8.947800 -4.250000 2.439608
v -9.000000 -4.250000 2.000000
v -7.000000 -4.250000 4.000000
v -0.261391 3.407992 3.596030
v -0.271248 3.636169 3.367130
v -1.000000 -4.250000 4.000000
v -0.438263 3.516166 3.732961
v -0.123405 3.438624 3.109656
v -1.000000 4.000000 -1.000000
v -1.226562 4.000000 -1.000000
v -2.416016 4.000000 -1.000000
v -6.069336 4.000000 -1.000000
v -9.000000 -4.250000 -0.840683
v -9.000000 -3.890682 -1.059683
v -9.000000 -3.458000 -1.156899
v -9.000000 -1.731566 -1.193589
v -9.000000 1.508406 -1.196781
v -9.000000 2.259170 -1.192754
v -9.000000 3.060166 -1.185913
v -8.944710 -1.281250 2.445560
v -8.859467 -1.125000 2.733281
v -8.664406 0.125000 3.086745
v -8.443588 -0.500000 3.371675
v -8.153358 -0.500000 3.633940
v -7.986053 -0.500000 3.736034
v -7.920128 -1.750000 3.775771
v -7.733276 -1.750000 3.859472
v -7.372787 -0.500000 3.961687
v -7.136482 -0.500000 3.995337
v -7.339622 -4.250000 3.969770
v -7.539597 -4.250000 3.925835
v -7.733276 -4.250000 3.859472
v -8.008194 -4.250000 3.723580
v -8.465233 -4.250000 3.345087
v -8.834419 -4.250000 2.796802
v -0.178467 2.222728 -2.045043
v -0.446106 0.064593 -2.906319
v -1.960327 -4.899800 -0.820829
v -1.328278 -4.862425 -0.886832
v -2.868637 -4.913825 -0.735824
v -0.693794 -4.606213 -0.960046
v -4.414581 -4.909275 -0.612276
v -1.774796 -4.655500 -0.866840
v -8.284325 -4.754906 -0.525954
v -6.920868 -4.908005 -0.477395
v -3.337494 -4.773404 -0.726270
v -4.897400 -4.756281 -0.632542
v -7.307541 -4.781513 -0.529472
v -5.462463 -4.660599 -0.646706
v -3.887390 -4.623592 -0.734094
v -1.391762 -4.464836 -0.917973
v -0.692795 -4.220234 -0.979582
v -4.725723 -4.384244 -0.797333
v -2.724930 -4.412114 -0.856296
v -2.045456 -4.407686 -0.890547
v -7.270996 -3.708967 -1.185277
v -1.299683 -4.230154 -0.956067
v -3.517662 -4.301598 -0.864898
v -2.327484 -4.187041 -0.936747
v -0.183517 -4.153358 -0.999308
v -4.370422 -4.143342 -0.923019
v -3.013741 -4.042163 -0.981193
v -1.858810 -4.076306 -0.977227
v -0.139961 -3.903964 -1.000227
v -0.683678 -3.999132 -1.000097
v -1.749649 -3.921272 -1.024602
v -7.540482 -2.783965 -1.453464
v -1.232010 -3.515636 -1.154536
v -0.782394 -3.592204 -1.080712
v -0.324707 3.471095 -1.052710
v -0.804672 3.452894 -1.134779
v -1.299858 3.620628 -1.117952
v -3.090775 3.571615 -1.234829
v -3.239334 3.302438 -1.419835
v -6.033554 2.958198 -1.636422
v -7.473763 2.790212 -1.463847
v -6.040359 1.111441 -1.777117
v -4.023926 -0.432351 -2.188628
v -6.124817 -2.800306 -1.670183
v -3.307701 -2.453007 -1.984803
v -1.469048 2.976398 -1.541429
v -2.681320 -3.153574 -1.500575
v -1.947723 3.227236 -1.400030
v -1.176071 3.148624 -1.366116
v -7.663528 3.390717 3.867780
v -8.250000 4.000000 -1.000000
v -8.457520 3.968656 -1.019833
v -8.804741 3.751058 -1.128038
v -7.462250 3.507033 3.896106
v -7.378571 3.683321 3.821790
v -7.513382 3.811855 3.663664
v -7.407623 3.905385 3.559098
v -7.270737 3.375432 3.969721
v -7.262222 3.575413 3.907790
v -7.257568 3.778663 3.758431
v -7.275230 3.981808 3.377005
v -7.135681 3.375432 3.983605
v -7.200104 3.497709 3.946512
v -7.162033 3.612218 3.897653
v -7.167282 3.895214 3.621062
v -7.204407 3.250000 3.988355
v -7.406914 3.250000 3.958168
v -7.636436 3.250000 3.892653
v -7.920128 3.250000 3.775771
v -9.000000 3.250000 2.000000
v -8.847206 3.696140 2.000000
v -8.250000 4.000000 2.000000
v -8.497711 3.957912 0.410954
v -8.720856 3.824014 0.410954
v -7.000000 3.250000 4.000000
v -7.000000 3.590026 3.917339
v -7.000000 3.779603 3.779603
v -7.000000 3.935159 3.555052
v -7.000000 3.995892 3.328396
v -7.356369 4.000000 3.197011
v -8.022598 4.000000 2.690536
v -8.671387 3.250000 3.096264
v -7.704086 3.645028 3.742903
v -7.567932 3.983740 3.263480
v -1.806152 -3.527935 -1.198031
v -4.840431 3.215985 -1.501625
v -5.988449 2.749015 -1.697600
v -4.746475 -1.638050 -2.002142
v -5.756645 -2.575475 -1.758066
v -2.717957 -3.374934 -1.346890
v -0.808548 -3.323194 -1.188445
v -1.188446 3.306958 -1.262766
v -2.473862 3.130733 -1.507806
v -5.348419 -2.217343 -1.864211
v -5.127663 -2.213310 -1.901178
v -0.792297 3.267549 -1.219058
v -4.979836 -2.192536 -1.926674
v -5.109871 -2.281057 -1.896598
v -0.331718 -3.420492 -1.058958
v -0.221024 3.297833 -1.063330
v -3.539948 -2.349330 -2.038800
v -1.539200 3.401394 -1.247908
v -1.529549 -3.236752 -1.351222
v -2.624481 3.610195 -1.195213
v -1.427559 0.198044 -2.709709
v -2.966309 -3.921365 -1.037121
v -4.177391 -3.911289 -1.049815
v -0.499641 -0.418804 -2.876896
v -0.738350 -1.033240 -2.734057
v -0.282562 -1.038721 -2.787585
v -0.823296 -1.414706 -2.607159
v -0.185562 -2.334207 -1.929538
v -0.213821 -2.644737 -1.567366
v -0.033485 -2.759293 -1.252040
v -1.044075 1.346303 -2.615110
v -0.412331 -1.691176 -2.477654
v -0.740547 0.682116 -2.799982
v -0.438202 1.240136 -2.704134
v -1.069290 1.735211 -2.439835
v -0.634460 1.930028 -2.323566
v -0.371384 2.222538 -2.073620
v -0.425903 -2.609557 -1.685975
v -0.685066 -2.556020 -1.797268
v -2.105652 -0.817822 -2.541385
v -1.142044 0.277351 -2.763028
v -1.815155 1.348683 -2.521092
v -0.894005 -2.462147 -1.915244
v -0.960037 -1.657100 -2.485233
v -8.742310 -4.250000 2.979649
v -0.355331 -4.713147 3.401813
v -0.567520 -4.749817 3.640450
v -0.562881 -4.558667 3.804918
v -0.642059 -4.915246 3.382490
v -0.673416 -4.717199 3.757053
v -0.776237 -4.780524 3.739707
v -0.814781 -4.849952 3.666057
v -0.684113 -4.862371 3.572773
v -0.771294 -4.425395 3.944836
v -0.809296 -4.657055 3.851192
v -0.849258 -4.791314 3.750061
v -0.877785 -4.990170 3.306251
v -0.874611 -4.558666 3.922978
v -0.918076 -4.908297 3.597141
v -0.860138 -4.963148 3.431218
v -0.940437 -4.249549 3.998196
v -0.851700 -4.247117 3.988469
v -0.683289 -4.236598 3.946391
v -0.324356 -4.180061 3.720245
v 0.000000 -4.000000 3.000000
v -0.104713 -4.424537 3.106134
v -0.416016 -4.798167 3.199542
v -0.682968 -4.947992 3.236998
v -0.118813 3.437420 1.383214
v -0.038177 -4.273663 0.411719
v -0.104836 -4.445738 0.411719
v -0.067528 -4.361242 0.411719
v -0.017029 3.183750 0.405374
v -0.437065 3.821992 0.760952
v -0.907730 -2.375000 3.995734
v -0.010651 -4.138009 0.411719
v -0.554237 3.895150 0.405374
v -0.738449 -1.906250 3.961392
v -0.811508 0.906250 3.977481
v -0.814056 3.979446 1.472108
v -0.149780 -0.500000 3.526432
v -0.400330 0.437500 3.780531
v -8.973076 -4.436571 0.579658
v -0.873428 -4.990949 1.476074
v -0.104836 1.375000 3.445738
v -0.149780 1.375000 3.526432
v -8.536560 -4.941820 0.579658
v -8.925728 -4.575413 0.579658
v -0.696640 -4.950751 1.298681
v -0.004265 -1.437500 3.092268
v -0.067528 1.375000 3.361242
v -0.004265 3.092268 0.405374
v -8.885040 -4.649024 0.579658
v -0.376556 -4.769003 1.121289
v -0.298889 -4.471480 3.598021
v -0.027962 0.906250 3.225581
v -7.534523 -4.416891 3.907728
v -8.108688 -4.564677 3.571393
v -7.338348 -4.354703 3.961636
v -7.399612 -4.740400 3.769063
v -7.945183 -4.957913 3.161790
v -8.279724 -4.655205 3.370246
v -7.480324 -4.780330 3.714311
v -8.228149 -4.770323 3.294225
v -7.817322 -4.980352 3.148257
v -7.454155 -4.860708 3.620899
v -8.587822 -4.392980 3.183441
v -8.432686 -4.796776 3.011317
v -7.602257 -4.532234 3.839951
v -8.128632 -4.984602 2.803372
v -8.158951 -4.937265 3.013639
v -7.633949 -4.745836 3.688979
v -8.605743 -4.582915 3.014843
v -8.220451 -4.988240 2.630795
v -7.514954 -4.929959 3.472026
v -8.486435 -4.903324 2.614660
v -8.830093 -4.333973 2.794923
v -7.600693 -4.991762 3.211828
v -8.516663 -4.922433 2.402519
v -8.907730 -4.416891 2.534520
v -7.805016 -4.791548 3.568772
v -7.281418 -4.995284 3.298834
v -8.448669 -4.969554 2.150315
v -7.967102 -4.981196 3.035515
v -7.000000 -4.590026 3.917339
v -7.000000 -4.443848 3.973452
v -7.957390 -4.889403 3.319762
v -7.000000 -4.721343 3.832061
v -7.000000 -4.856763 3.690839
v -7.000000 -4.807359 3.751848
v -7.000000 -4.983611 3.405934
v -7.000000 -4.917339 3.590026
v -7.000000 -5.000000 3.250000
v -8.173515 -5.000000 2.416603
v -7.000000 -4.963292 3.481763
v -7.546654 -5.000000 3.118197
v -8.250000 -5.000000 2.000000
v -7.974655 -5.000000 2.775070
v -7.807190 -5.000000 2.953040
v -8.694672 -4.845737 2.000000
v -8.386124 -4.984671 2.000000
v -7.391800 -4.575413 3.885448
v -8.898544 -4.613367 2.000000
v -8.555054 -4.935159 2.000000
v -1.420044 2.032359 -2.259851
v -0.440247 2.502340 -1.804006
v -2.319786 0.317254 -2.529702
v -0.765991 2.174774 -2.146589
v -0.802971 -2.187146 -2.138118
v -2.949295 2.044421 -2.211929
v -1.463249 -0.071922 -2.705203
v -1.492813 -1.657535 -2.463205
v -0.648117 2.290037 -2.041000
v -0.187660 -2.801968 -1.344511
v -0.354752 2.853551 -1.394855
v -2.895271 0.911302 -2.388947
v -0.966209 -2.951566 -1.483415
v -0.680878 2.777283 -1.579839
v -3.580719 -1.951499 -2.167877
v -0.532730 -3.069360 -1.276814
v -1.485550 2.676751 -1.789356
v -1.541061 -2.623903 -1.835222
v -0.492096 3.169662 -1.197902
v -4.188950 2.689983 -1.832743
v -2.385880 -2.770199 -1.768396
v -3.125931 -2.165095 -2.147056
v -3.779312 1.697798 -2.168112
v -3.139168 2.006177 -2.207341
v -0.934814 -3.156843 -1.313920
v -2.352127 2.790461 -1.753545
v -3.557526 -1.804933 -2.194063
v -1.035767 2.895118 -1.544975
v -3.208389 2.956349 -1.659904
v -1.773361 -2.989482 -1.559052
v -4.748901 2.316722 -1.940455
v -3.873138 2.098031 -2.100747
v -0.141922 -4.502917 -1.004620
v -0.428596 -4.820306 -0.980731
v 0.000000 -3.420674 -0.981337
v -0.329025 -4.738851 -0.990642
v 0.000000 -2.717888 -1.270074
v 0.000000 -4.000000 -1.000000
v 0.000000 -2.491794 -1.664962
v 0.000000 -2.985387 -1.006628
v 0.000000 -2.097477 -2.143298
v 0.000000 -2.643620 -1.418194
v 0.000000 -1.647224 -2.507320
v 0.000000 -2.268533 -1.963099
v 0.000000 -1.171781 -2.758272
v 0.000000 -1.848383 -2.361486
v 0.000000 -0.086585 -2.998750
v 0.000000 -1.506280 -2.594440
v 0.000000 0.244566 -2.990015
v 0.000000 -0.405359 -2.965874
v 0.000000 0.812943 -2.881813
v 0.000000 0.079112 -2.998957
v 0.000000 1.354074 -2.677029
v 0.000000 0.409275 -2.971951
v 0.000000 1.640971 -2.511417
v 0.000000 1.204206 -2.747706
v 0.000000 1.907859 -2.315183
v 0.000000 1.499810 -2.598186
v 0.000000 2.282842 -1.930991
v 0.000000 1.777125 -2.416987
v -0.081810 3.392432 -1.006185
v 0.000000 2.032773 -2.206317
v 0.000000 2.677396 -1.350810
v 0.000000 3.000000 -0.973947
v -8.640747 3.887176 -1.070739
v -8.893402 3.250000 2.618683
v -7.637123 4.000000 3.069236
v -7.000000 4.000000 3.250000
v -7.000000 3.973452 3.443849
v -7.000000 3.878141 3.657919
v -7.000000 3.690839 3.856763
v -7.000000 3.443849 3.973452
v -8.950821 3.484138 0.410954
v -8.575417 3.925726 0.410954
v -8.375435 3.988240 0.410954
v -8.586311 3.910048 2.000000
v -9.000000 3.250000 -1.178093
usemtl Paint_-_Metal_Flake_(Black)
f 66 67 402
f 408 148 348
f 353 408 348
f 358 408 353
f 405 408 358
f 409 405 352
f 406 409 352
f 159 348 148
f 62 348 159
f 63 348 62
f 63 353 348
f 64 353 63
f 64 358 353
f 64 405 358
f 65 405 64
f 66 405 65
f 66 352 405
f 66 406 352
f 402 406 66
f 477 476 261
f 477 262 476
f 477 253 262
f 158 232 253
f 477 158 253
f 156 90 155
f 157 90 156
f 158 90 157
f 158 477 90
f 459 472 473
f 468 472 459
f 459 471 468
f 466 471 459
f 459 469 466
f 459 464 469
f 467 464 459
f 459 460 465
f 458 456 461
f 458 459 456
f 463 459 458
f 459 463 460
f 459 462 467
f 459 465 462
f 444 330 447
f 449 330 444
f 446 330 449
f 451 330 446
f 448 330 451
f 453 330 448
f 450 330 453
f 455 330 450
f 452 330 455
f 457 330 452
f 454 330 457
f 459 330 454
f 473 330 459
f 473 3 330
f 3 338 334
f 357 338 3
f 339 342 345
f 130 345 90
f 129 345 130
f 129 339 345
f 128 339 129
f 154 339 128
f 154 334 339
f 154 3 334
f 473 357 3
f 473 338 357
f 473 334 338
f 470 334 473
f 124 334 470
f 124 339 334
f 125 339 124
f 126 339 125
f 126 342 339
f 126 345 342
f 127 345 126
f 48 345 127
f 155 345 48
f 90 345 155
f 72 50 44
f 71 72 44
f 44 70 71
f 44 69 70
f 399 402 398
f 398 403 399
f 398 404 403
f 398 401 404
f 68 402 67
f 69 402 68
f 69 398 402
f 398 69 44
f 359 336 331
f 336 337 331
f 337 335 331
f 335 341 331
f 28 44 50
f 330 331 341
f 332 359 331
f 332 354 359
f 333 354 332
f 26 354 333
f 26 349 354
f 27 349 26
f 28 349 27
f 50 349 28
f 123 349 50
f 123 354 349
f 49 354 123
f 93 354 49
f 443 354 93
f 443 359 354
f 445 359 443
f 442 359 445
f 442 336 359
f 447 336 442
f 447 337 336
f 447 335 337
f 447 341 335
f 447 330 341
f 340 343 344
f 343 347 344
f 347 330 346
f 330 361 346
f 361 330 355
f 346 351 347
f 346 350 351
f 361 350 346
f 361 356 350
f 355 3 361
f 344 21 152
f 79 361 3
f 79 356 361
f 79 350 356
f 79 351 350
f 79 347 351
f 80 347 79
f 80 344 347
f 81 344 80
f 21 344 81
f 152 340 344
f 326 340 152
f 327 340 326
f 327 343 340
f 328 343 327
f 328 347 343
f 329 347 328
f 329 330 347
f 330 3 355
f 329 360 330
f 331 311 332
f 311 314 332
f 313 320 315
f 313 312 360
f 313 315 312
f 320 316 315
f 320 321 316
f 320 40 321
f 320 39 40
f 315 316 312
f 40 41 321
f 312 317 318
f 316 317 312
f 321 317 316
f 321 41 317
f 314 333 332
f 314 26 333
f 325 26 314
f 325 27 26
f 325 322 27
f 325 28 322
f 44 28 325
f 327 326 319
f 328 327 319
f 329 328 319
f 313 329 319
f 322 28 27
f 325 43 44
f 312 314 311
f 318 314 312
f 318 325 314
f 324 43 325
f 42 43 324
f 318 324 325
f 360 311 331
f 317 324 318
f 41 42 324
f 312 311 360
f 41 324 317
f 330 360 331
f 323 39 320
f 38 39 323
f 329 313 360
f 319 320 313
f 319 323 320
f 319 38 323
f 319 37 38
f 326 37 319
f 326 152 37
f 36 398 44
f 396 398 36
f 37 152 149
f 29 37 149
f 43 36 44
f 43 35 36
f 42 35 43
f 42 34 35
f 41 34 42
f 41 33 34
f 40 33 41
f 40 32 33
f 39 32 40
f 39 31 32
f 38 31 39
f 38 30 31
f 37 30 38
f 29 30 37
f 391 29 149
f 391 30 29
f 390 30 391
f 390 31 30
f 390 32 31
f 393 32 390
f 393 33 32
f 395 33 393
f 394 33 395
f 394 34 33
f 397 34 394
f 397 35 34
f 400 35 397
f 400 36 35
f 396 36 400
f 401 398 387
f 383 401 387
f 370 401 383
f 370 404 401
f 379 403 375
f 399 403 379
f 396 387 398
f 73 387 396
f 73 383 387
f 389 404 370
f 389 403 404
f 375 403 389
f 384 399 379
f 388 402 399
f 388 406 402
f 22 396 400
f 22 73 396
f 380 383 73
f 380 370 383
f 366 389 370
f 376 389 366
f 376 375 389
f 381 379 375
f 381 384 379
f 388 399 384
f 409 406 388
f 380 73 22
f 392 370 380
f 392 366 370
f 392 376 366
f 376 381 375
f 384 409 388
f 24 380 22
f 371 380 24
f 373 381 376
f 405 409 384
f 377 380 371
f 386 380 377
f 386 392 380
f 373 376 392
f 405 381 373
f 405 384 381
f 47 394 395
f 47 24 394
f 365 24 47
f 365 371 24
f 368 371 365
f 368 377 371
f 386 369 392
f 369 373 392
f 393 47 395
f 365 377 368
f 378 369 367
f 378 373 369
f 378 405 373
f 46 47 393
f 46 365 47
f 374 377 365
f 363 386 377
f 363 369 386
f 363 367 369
f 407 365 46
f 407 374 365
f 374 363 377
f 408 405 378
f 45 407 46
f 25 407 45
f 25 374 407
f 180 367 363
f 142 408 378
f 364 45 391
f 364 25 45
f 362 374 25
f 179 363 374
f 179 180 363
f 180 378 367
f 385 408 142
f 147 148 408
f 364 362 25
f 177 362 364
f 177 374 362
f 178 374 177
f 179 374 178
f 372 378 180
f 310 378 372
f 382 378 310
f 382 142 378
f 147 385 142
f 147 408 385
f 397 22 400
f 397 24 22
f 394 24 397
f 390 46 393
f 390 45 46
f 391 45 390
f 149 364 391
f 176 364 149
f 176 177 364
f 310 372 180
f 181 382 310
f 181 142 382
f 206 442 187
f 206 447 442
f 197 187 185
f 184 197 185
f 51 118 190
f 201 184 186
f 189 184 201
f 197 184 189
f 198 187 197
f 198 206 187
f 198 210 206
f 211 210 198
f 203 198 197
f 120 198 203
f 120 211 198
f 201 203 197
f 205 203 201
f 205 120 203
f 209 120 205
f 212 120 209
f 200 205 201
f 200 201 192
f 208 209 205
f 208 212 209
f 204 200 196
f 204 205 200
f 204 208 205
f 287 212 208
f 196 200 192
f 188 196 192
f 193 196 188
f 193 204 196
f 195 204 193
f 199 204 195
f 207 204 199
f 207 208 204
f 207 287 208
f 288 287 207
f 194 199 195
f 118 207 199
f 194 195 191
f 118 199 194
f 118 288 207
f 291 290 459
f 292 291 454
f 292 290 291
f 420 473 472
f 417 292 309
f 292 424 290
f 306 298 183
f 286 298 306
f 286 421 298
f 421 307 298
f 296 299 460
f 307 415 296
f 433 415 307
f 410 300 429
f 435 413 301
f 418 437 423
f 289 306 183
f 416 306 289
f 416 286 306
f 432 307 421
f 426 413 435
f 428 473 420
f 281 473 428
f 438 301 410
f 438 435 301
f 437 230 428
f 292 105 424
f 424 278 436
f 432 421 223
f 221 415 441
f 274 426 435
f 229 426 274
f 229 227 426
f 230 227 229
f 230 277 428
f 302 182 471
f 411 182 302
f 444 280 449
f 278 276 275
f 223 440 432
f 441 415 433
f 267 410 429
f 283 230 229
f 273 230 283
f 277 217 428
f 105 270 424
f 276 270 275
f 222 440 223
f 268 440 222
f 440 268 221
f 438 410 267
f 220 435 438
f 274 435 220
f 217 273 283
f 428 217 101
f 213 270 225
f 269 53 224
f 107 223 224
f 99 438 267
f 219 274 220
f 219 229 274
f 218 217 283
f 52 213 225
f 57 268 222
f 440 221 441
f 220 438 99
f 285 229 219
f 100 229 285
f 100 283 229
f 218 283 100
f 94 217 218
f 61 102 280
f 424 279 278
f 424 270 279
f 216 60 125
f 101 60 216
f 108 57 222
f 57 221 268
f 113 267 429
f 58 99 267
f 219 220 99
f 210 119 102
f 295 419 451
f 449 425 419
f 280 272 425
f 215 214 272
f 215 121 214
f 215 212 121
f 120 212 215
f 419 294 451
f 425 272 434
f 419 425 294
f 272 284 434
f 272 214 284
f 121 266 214
f 121 103 266
f 121 212 103
f 434 439 422
f 284 439 434
f 266 122 97
f 103 122 266
f 103 287 122
f 294 303 293
f 97 271 284
f 97 122 271
f 287 288 122
f 422 308 304
f 422 427 308
f 422 439 427
f 284 271 439
f 228 98 430
f 427 414 308
f 427 430 414
f 98 51 430
f 51 98 118
f 430 104 414
f 51 104 430
f 117 226 297
f 117 202 226
f 282 105 431
f 226 105 282
f 116 105 226
f 160 116 202
f 115 105 116
f 115 114 105
f 105 292 431
f 297 309 457
f 279 270 278
f 275 269 278
f 270 213 275
f 436 278 269
f 213 53 275
f 269 224 305
f 53 107 224
f 107 55 56
f 58 267 113
f 58 219 99
f 59 285 219
f 59 100 285
f 218 100 59
f 110 94 218
f 101 94 110
f 280 119 96
f 102 119 280
f 61 210 102
f 447 210 61
f 165 56 164
f 56 223 107
f 164 56 163
f 162 56 55
f 163 56 162
f 54 55 107
f 54 162 55
f 53 54 107
f 53 162 54
f 424 436 305
f 436 269 305
f 275 53 269
f 213 162 53
f 278 270 276
f 161 162 213
f 226 309 297
f 282 417 309
f 160 161 114
f 114 106 105
f 160 115 116
f 160 114 115
f 202 159 160
f 202 116 226
f 202 62 159
f 104 117 297
f 51 117 104
f 51 202 117
f 51 62 202
f 51 63 62
f 64 63 51
f 190 118 194
f 64 51 190
f 190 65 64
f 190 66 65
f 194 66 190
f 67 66 194
f 194 68 67
f 191 68 194
f 69 68 191
f 186 71 70
f 184 71 186
f 72 71 184
f 185 72 184
f 72 123 50
f 49 123 72
f 187 49 72
f 187 93 49
f 187 443 93
f 185 187 72
f 445 443 187
f 187 442 445
f 447 61 444
f 444 61 280
f 120 96 119
f 215 280 96
f 272 280 215
f 425 449 280
f 215 96 120
f 295 449 419
f 295 446 449
f 451 446 295
f 266 284 214
f 422 425 434
f 303 294 425
f 97 284 266
f 304 425 422
f 304 303 425
f 294 448 451
f 293 448 294
f 293 453 448
f 228 439 271
f 308 303 304
f 308 293 303
f 450 453 293
f 118 122 288
f 98 122 118
f 98 271 122
f 228 271 98
f 308 450 293
f 212 287 103
f 119 211 120
f 210 211 119
f 206 210 447
f 189 201 197
f 186 192 201
f 70 192 186
f 70 188 192
f 69 188 70
f 69 193 188
f 69 195 193
f 191 195 69
f 430 439 228
f 430 427 439
f 414 450 308
f 414 455 450
f 292 282 431
f 455 414 104
f 417 282 292
f 309 226 282
f 452 104 297
f 455 104 452
f 270 105 225
f 454 309 292
f 457 309 454
f 297 457 452
f 105 52 225
f 106 52 105
f 114 52 106
f 161 52 114
f 454 291 459
f 305 290 424
f 289 290 305
f 289 459 290
f 416 305 224
f 416 289 305
f 183 459 289
f 183 456 459
f 183 461 456
f 412 416 224
f 421 416 412
f 421 286 416
f 183 458 461
f 421 224 223
f 421 412 224
f 183 463 458
f 298 463 183
f 441 432 440
f 307 432 441
f 296 298 307
f 298 460 463
f 433 307 441
f 460 298 296
f 460 299 465
f 410 464 467
f 281 428 216
f 411 423 420
f 471 418 302
f 466 418 471
f 471 182 468
f 468 411 420
f 468 182 411
f 468 420 472
f 281 470 473
f 281 124 470
f 216 124 281
f 413 466 469
f 413 418 466
f 418 411 302
f 95 124 216
f 301 464 410
f 301 469 464
f 301 413 469
f 418 423 411
f 437 420 423
f 437 428 420
f 101 216 428
f 125 95 216
f 125 124 95
f 300 467 462
f 300 410 467
f 217 277 230
f 429 415 221
f 300 415 429
f 300 296 415
f 300 299 296
f 300 465 299
f 300 462 465
f 426 418 413
f 426 437 418
f 227 437 426
f 227 230 437
f 273 217 230
f 94 101 217
f 127 126 109
f 109 48 127
f 155 48 109
f 110 155 109
f 110 156 155
f 110 157 156
f 111 157 110
f 112 157 111
f 112 158 157
f 58 158 112
f 113 158 58
f 158 233 232
f 113 233 158
f 113 474 233
f 221 474 113
f 234 474 221
f 57 234 221
f 108 234 57
f 486 234 108
f 60 126 125
f 101 126 60
f 101 109 126
f 110 109 101
f 59 110 218
f 59 111 110
f 59 112 111
f 219 112 59
f 58 112 219
f 221 113 429
f 222 486 108
f 161 213 52
f 56 222 223
f 165 222 56
f 486 222 165
f 251 159 148
f 160 159 251
f 162 161 160
f 251 162 160
f 163 162 251
f 251 164 163
f 251 165 164
f 486 165 251
f 172 173 171
f 173 174 171
f 247 174 175
f 248 174 247
f 249 174 248
f 249 171 174
f 250 171 249
f 75 171 250
f 75 170 171
f 75 169 170
f 74 169 75
f 74 168 169
f 263 168 74
f 475 168 263
f 475 167 168
f 475 166 167
f 251 166 475
f 148 166 251
f 147 166 148
f 147 167 166
f 142 167 147
f 181 167 142
f 181 168 167
f 310 168 181
f 310 169 168
f 180 169 310
f 180 170 169
f 179 170 180
f 179 171 170
f 179 172 171
f 179 173 172
f 178 173 179
f 178 174 173
f 177 174 178
f 176 174 177
f 176 175 174
f 149 175 176
f 256 175 149
f 247 175 256
f 21 149 152
f 256 149 21
f 140 135 134
f 134 135 76
f 146 145 151
f 144 143 145
f 137 143 144
f 137 133 143
f 145 153 151
f 133 141 143
f 133 92 141
f 145 143 153
f 150 79 154
f 135 132 76
f 140 139 153
f 150 153 80
f 134 138 140
f 134 131 138
f 150 80 79
f 139 81 80
f 131 21 81
f 131 2 21
f 139 131 81
f 1 2 131
f 153 139 80
f 140 131 139
f 138 131 140
f 134 1 131
f 134 76 1
f 132 77 76
f 154 79 3
f 143 140 153
f 143 135 140
f 141 135 143
f 136 135 141
f 136 132 135
f 78 77 132
f 151 150 154
f 151 153 150
f 78 132 136
f 141 78 136
f 92 78 141
f 133 23 92
f 91 23 133
f 146 144 145
f 129 137 144
f 137 91 133
f 128 146 151
f 129 144 146
f 130 91 137
f 90 91 130
f 154 128 151
f 128 129 146
f 129 130 137
f 84 85 83
f 89 256 21
f 481 256 89
f 82 90 477
f 91 90 82
f 1 89 2
f 1 88 89
f 76 88 1
f 76 87 88
f 77 87 76
f 77 86 87
f 78 86 77
f 92 86 78
f 92 85 86
f 23 85 92
f 23 83 85
f 91 83 23
f 82 83 91
f 260 82 477
f 478 82 260
f 478 83 82
f 478 84 83
f 259 84 478
f 479 84 259
f 479 85 84
f 479 86 85
f 258 86 479
f 258 87 86
f 480 87 258
f 257 87 480
f 257 88 87
f 481 88 257
f 481 89 88
f 2 89 21
f 8 262 11
f 476 262 8
f 265 476 8
f 261 476 265
f 242 477 261
f 260 477 242
f 19 253 485
f 17 262 253
f 17 11 262
f 242 261 265
f 4 253 19
f 4 17 253
f 259 260 242
f 259 478 260
f 18 19 485
f 20 19 18
f 20 4 19
f 18 17 4
f 17 16 11
f 14 11 16
f 5 265 8
f 5 242 265
f 238 242 5
f 238 259 242
f 479 259 246
f 18 4 20
f 14 16 17
f 12 11 14
f 12 8 11
f 9 8 12
f 9 5 8
f 246 259 238
f 15 17 18
f 15 14 17
f 7 9 12
f 7 5 9
f 237 238 5
f 237 246 238
f 241 246 237
f 241 479 246
f 258 479 241
f 7 12 14
f 6 5 7
f 475 15 18
f 15 7 14
f 6 237 5
f 264 237 6
f 264 241 237
f 236 241 264
f 480 258 241
f 475 18 252
f 13 15 475
f 13 7 15
f 245 241 236
f 245 480 241
f 257 480 245
f 74 7 13
f 74 6 7
f 235 236 264
f 235 245 236
f 240 245 235
f 263 13 475
f 75 264 6
f 231 264 75
f 244 240 235
f 244 245 240
f 244 257 245
f 481 257 244
f 251 475 252
f 10 6 74
f 10 75 6
f 231 235 264
f 239 244 235
f 243 244 239
f 243 481 244
f 74 13 263
f 74 75 10
f 248 235 231
f 248 239 235
f 256 481 243
f 485 252 18
f 250 231 75
f 249 231 250
f 249 248 231
f 247 239 248
f 247 243 239
f 247 256 243
f 485 253 484
f 482 234 486
f 255 234 482
f 474 234 255
f 483 474 255
f 254 474 483
f 254 233 474
f 484 233 254
f 251 482 486
f 252 482 251
f 252 255 482
f 485 255 252
f 485 483 255
f 485 254 483
f 485 484 254
f 232 233 484
f 232 484 253
# 486 vertices
# 0 texture params
# 0 normals
# 968 facets

# 1 groups
