# WaveFront *.obj file (generated by Autodesk ATF)

mtllib hip_bracket_sinister_collision.mtl

g Body2

v 0.600000 2.246496 -7.044354
v 1.044483 -5.331174 -5.899735
v 1.026471 -5.804631 -5.234537
v 0.600000 3.183340 -6.676572
v 1.638766 -7.249537 -2.575076
v 0.969179 -5.057668 -6.096924
v 7.328389 -7.130648 -2.682464
v 1.670419 5.023140 -7.480864
v 0.600000 3.945963 -6.252924
v 0.600000 7.396029 -0.201512
v 0.600000 6.891989 2.691160
v 1.378208 -3.849819 -8.499057
v 2.388183 5.451227 -8.043893
v 1.111606 2.398096 -9.473805
v 8.499806 3.411640 1.578400
v 1.114297 -2.625163 -9.195579
v 1.505126 -3.866049 -8.836385
v 3.942581 -6.890738 -6.579378
v 7.922361 -6.178226 -0.815068
v 0.600000 5.486358 4.964044
v 7.918247 -6.920743 -2.408991
v 6.192814 7.226597 -2.279017
v 1.712435 4.284708 -8.729877
v 4.202401 4.061467 3.892277
v 8.929587 0.216515 2.224602
v 1.339617 -4.650325 -7.338945
v 0.600000 4.061534 6.184318
v 0.794459 -1.448073 -8.598956
v 2.369589 6.110094 -6.672892
v 5.129380 -7.221436 -1.523013
v 5.395349 -7.163986 -1.471452
v 1.066206 4.733704 -6.653926
v 1.144872 3.513666 -8.227062
v 1.457018 4.781686 -7.406695
v 8.129970 0.968121 2.654877
v 1.490524 -4.235662 -8.254784
v 8.869197 4.892988 0.214843
v 4.900913 -7.423312 -4.813327
v 3.053431 6.593383 -6.426106
v 8.630377 5.583328 -0.407473
v 10.702673 0.267894 1.121634
v 6.839845 -6.437326 -0.556975
v 3.177293 -6.670999 -6.358400
v 2.179203 5.744161 -7.126055
v 1.281188 -4.247117 -7.720430
v 1.259276 3.658926 -8.402694
v 4.229637 -7.347793 -1.560980
v 1.470707 3.744239 -8.917040
v 6.196599 -7.470160 -3.934321
v 2.606677 5.777243 -7.735391
v 0.868561 3.387233 -7.458297
v 0.918326 3.791058 -7.255762
v 0.875565 3.025729 -7.788204
v 0.793668 2.649532 -7.754911
v 1.120680 4.092670 -7.498769
v 1.164439 4.376382 -7.280907
v 1.427192 5.412675 -6.453929
v 1.581705 5.831108 -6.039782
v 1.958997 6.073771 -6.158740
v 1.355304 6.523777 -4.436660
v 3.427639 -7.442310 -2.783883
v 7.150783 -4.512946 1.665356
v 7.364784 -6.580391 -1.200229
v 5.767566 4.469920 2.586999
v 0.955774 1.279539 -9.882268
v 1.529266 6.851274 -3.864248
v 5.744205 -0.640747 4.175401
v 2.505541 -5.714352 -7.709519
v 6.163269 5.268635 1.576245
v 2.702691 -5.913562 -7.593275
v 4.430988 7.332163 -5.078023
v 0.934690 -2.555303 -8.462062
v 1.002104 -3.436508 -7.853263
v 10.184124 -0.132286 1.447252
v 6.821438 -7.241499 -2.776883
v 2.989027 -6.393578 -6.869727
v 2.832505 6.126828 -7.302852
v 1.534596 -4.567614 -7.880180
v 0.687396 1.175509 -7.969654
v 0.721843 1.686794 -7.981933
v 0.733771 2.129658 -7.791650
v 0.681363 2.721787 -7.215186
v 0.714750 3.530612 -6.855684
v 0.782573 4.099198 -6.619081
v 3.277707 6.963657 0.648984
v 9.152641 -1.316506 1.958340
v 1.026646 2.063993 -9.456480
v 0.973910 5.073743 -6.084009
v 1.473264 3.451568 -9.364778
v 0.818730 4.588308 -6.279689
v 2.188337 5.198438 -8.166686
v 1.693411 7.348958 -2.012608
v 4.053779 7.335152 -1.358900
v 2.233169 5.006176 -8.604873
v 2.674769 7.420013 -1.228374
v 3.631102 5.902083 2.454131
v 3.124504 6.129668 -7.713538
v 2.443783 6.258090 2.710851
v 7.478218 3.053440 2.413652
v 4.172453 6.938864 -6.665588
v 3.566968 3.578868 4.597121
v 7.604139 2.070386 2.728963
v 5.558245 7.445074 -5.279797
v 2.590901 2.308900 5.784377
v 1.915961 -2.662169 6.078350
v 2.286207 -1.333802 6.227853
v 6.691014 -3.520818 2.656186
v 5.779248 -3.179241 3.418172
v 1.832359 -4.376764 5.178163
v 6.932810 -5.359982 0.972687
v 5.162062 -6.944757 -0.589176
v 7.644732 -4.082905 1.684944
v 2.982313 -7.390017 -1.054344
v 2.755972 -7.147753 -4.243432
v 5.819443 -7.053412 -1.373283
v 0.964079 5.397825 -5.679098
v 1.017798 2.708738 -8.670239
v 1.052494 3.447088 -8.001593
v 6.337871 1.291716 3.715460
v 9.803773 2.453865 1.218360
v 8.706146 -3.479498 1.408548
v 2.908391 6.383902 -6.784775
v 7.959128 5.919504 -0.430509
v 9.478143 0.637386 1.856068
v 3.478728 -6.838790 -6.204190
v 1.550903 4.474181 -8.051947
v 0.888071 -1.359106 -9.334876
v 2.295471 6.613437 -5.414539
v 3.744911 -7.382139 -3.951133
v 9.305637 -3.188812 1.193215
v 10.421863 2.715933 0.722380
v 7.959050 6.726330 -1.929874
v 1.610163 -6.892410 -3.845178
v 2.063822 -7.033319 -3.919962
v 1.143971 -6.402998 -4.411482
v 1.139350 -6.597491 -4.013887
v 0.930805 -4.763064 -6.341922
v 0.939109 -4.499998 -6.632894
v 0.724665 -1.918680 -7.868150
v 0.767263 -2.245874 -7.905515
v 6.157039 -5.571969 1.226752
v 2.021451 -4.889156 -8.401269
v 0.817404 -0.341297 -9.369295
v 7.326038 6.639096 -1.301398
v 9.685717 4.237610 0.267816
v 6.323265 7.136403 -2.010229
v 1.907398 5.480683 -7.165411
v 1.358327 4.138224 -8.055409
v 1.144860 -5.536034 -5.799226
v 0.866579 -4.223771 -6.726218
v 0.844463 -4.012429 -6.858545
v 0.600000 1.203052 -7.295365
v 0.661782 0.377202 -7.947157
v 10.925284 -1.548232 0.804064
v 2.840676 -6.592950 -6.154023
v 2.744781 -6.228779 -6.939568
v 0.996129 -2.005397 -9.359621
v 2.872441 7.142443 0.353572
v 1.049214 -2.347404 -9.235907
v 8.943571 3.742415 1.094032
v 7.494761 6.967418 -2.256868
v 1.851169 4.633478 -8.480053
v 3.331935 6.978032 -5.552920
v 0.888949 1.293911 -9.400168
v 1.085178 2.931581 -8.696429
v 1.052985 -6.179830 -4.690158
v 0.773631 -3.198025 -7.282366
v 0.751180 -2.869136 -7.420035
v 0.701922 -0.328433 -8.320313
v 0.664816 -1.302617 -7.753492
v 10.468178 2.032449 0.953312
v 5.052096 -7.472608 -3.413548
v 4.093148 -7.145495 -5.728290
v 1.853500 -6.262844 -5.631618
v 4.901918 7.434377 -2.715218
v 0.877523 -0.932790 -9.594678
v 0.959153 -1.537361 -9.649850
v 10.462178 1.208500 1.165203
v 8.600328 6.204288 -1.310044
v 2.044666 4.873756 -8.477170
v 9.639559 1.649651 1.579819
v 6.426382 6.326037 -0.072660
v 0.932995 2.387174 -8.615625
v 0.885541 1.906582 -8.818636
v 1.067390 6.052866 -4.919862
v 0.600000 4.760195 -5.661344
v 0.600000 2.438411 6.983153
v 0.600000 7.005005 -2.374906
v 0.600000 6.705215 -3.122558
v 0.600000 7.288948 -1.270079
v 0.600000 7.177552 -1.795719
v 0.600000 7.385666 0.402742
v 0.600000 7.361901 -0.737741
v 0.600000 7.310808 1.137513
v 0.600000 7.208976 1.665089
v 0.600000 6.647408 3.243799
v 0.600000 7.069123 2.183884
v 1.888934 5.026165 -7.903042
v 9.179641 -0.411581 2.059623
v 3.407266 6.757660 -6.378386
v 0.600000 6.182525 4.060376
v 3.268811 -5.944589 2.636572
v 1.190164 -3.432278 -8.471360
v 1.634588 -4.138173 -8.766031
v 3.814297 -7.038061 -5.874629
v 9.566609 -4.516264 0.115125
v 0.600000 5.061401 5.393745
v 0.600000 5.832151 4.552787
v 6.996794 7.303028 -3.189283
v 1.548650 4.077074 -8.637507
v 3.799259 7.063402 -5.760127
v 10.178017 -0.821583 1.401520
v 1.507779 -4.889923 -7.358215
v 0.600001 3.602003 6.462773
v 0.600000 4.499645 5.873248
v 0.885670 -1.862332 -8.856332
v 4.718701 7.472802 -3.585037
v 1.733329 -5.271349 -7.209057
v 2.971383 -6.921387 -5.330465
v 0.600000 3.123474 6.707143
v 6.177402 6.848765 -1.025778
v 0.600000 5.391755 -5.059511
v 0.600000 -0.000000 7.398774
v 0.600000 1.860814 7.160952
v 0.600000 -1.071087 7.320835
v 0.600000 -0.536960 7.379263
v 0.600000 -2.119608 7.088661
v 0.600000 -1.599566 7.223797
v 0.600000 -3.304051 6.617667
v 0.600000 -2.628473 6.916140
v 6.316505 -0.160391 3.847948
v 0.600000 -4.499645 5.873248
v 0.600000 -4.004074 6.219137
v 0.600000 -5.617912 4.811376
v 0.600000 -4.962600 5.484786
v 4.159135 7.033988 -6.288188
v 0.600000 -6.525239 3.483034
v 0.600000 -6.107794 4.171945
v 3.391036 7.259051 -4.399439
v 4.844406 7.399750 -2.351297
v 1.420921 -3.533140 -9.079572
v 9.556401 -3.611305 0.790460
v 0.600000 -6.789725 2.939640
v 3.124504 -6.129668 -7.713538
v 4.425453 -6.087366 1.658793
v 4.202351 -6.402809 1.281414
v 1.747756 -4.401586 -8.625258
v 4.664022 -7.235708 -5.914422
v 9.970934 -4.192048 0.122751
v 0.600000 -7.396029 -0.201512
v 0.600000 -7.391150 0.335780
v 6.417735 7.457611 -3.906064
v 0.864686 1.012008 -9.433478
v 1.287946 3.178134 -9.142453
v 5.172560 -1.943860 4.285866
v 1.483775 -5.256983 -6.778576
v 0.600000 -7.275019 -1.335806
v 0.600000 -7.361901 -0.737741
v 0.823620 -3.795859 -6.983261
v 6.715899 6.109930 0.099677
v 0.761127 -0.996368 -8.627308
v 1.021664 -2.971420 -8.399739
v 0.600000 -7.107614 -2.055159
v 6.942143 -7.420689 -3.895899
v 1.114258 6.277719 -4.604728
v 0.600000 -5.347590 -5.110142
v 0.600000 5.913861 -4.446133
v 0.600000 -4.116343 -6.145403
v 0.600000 -1.989227 -7.121282
v 0.600000 1.137169 7.308702
v 0.600000 0.335699 -7.389017
v 0.600000 -1.086975 -7.312657
v 0.946329 -1.213167 -9.891713
v 0.898069 -0.676038 -9.939973
v 1.124295 -2.265684 -9.713747
v 1.021869 -1.743972 -9.816173
v 4.928195 0.355199 4.702666
v 1.253073 -2.775584 -9.584969
v 1.612287 -3.806761 -9.225755
v 1.407533 -3.271013 -9.430509
v 6.216086 4.729564 2.078331
v 2.264162 -5.057776 -8.573880
v 1.930090 -4.482698 -8.907952
v 3.623539 6.467822 1.553029
v 5.233198 7.474315 -3.556909
v 2.819711 -5.801998 -8.018331
v 2.532431 -5.444078 -8.305611
v 3.142756 7.165195 -4.596326
v 5.817126 -7.435295 -3.291846
v 2.230122 6.364386 -5.921321
v 1.218812 -2.968011 -9.177821
v 0.600000 -6.985163 2.439130
v 4.852834 -7.260489 -5.985208
v 3.487107 -6.458169 -7.350935
v 3.579278 -7.205081 -4.880209
v 5.706601 -2.808928 3.639040
v 1.859902 -4.689114 -8.404595
v 4.746435 -7.473325 -3.515700
v 9.885782 -2.891930 0.978189
v 5.605619 -7.454820 -5.232423
v 5.226745 -7.376884 -5.611297
v 5.411553 7.473361 -4.682595
v 0.799349 0.395747 -9.192076
v 1.172461 2.857727 -9.140354
v 7.280832 -5.817923 0.163634
v 2.097263 -5.927635 -6.647757
v 6.513683 -7.481674 -4.324358
v 5.987483 -7.493889 -4.850559
v 1.739319 -5.738483 -6.444568
v 6.222606 5.493251 1.279821
v 0.769338 -3.499106 -7.051345
v 0.729069 -2.513950 -7.550042
v 0.600000 -6.939720 -2.565568
v 8.405349 -6.805706 -2.432693
v 7.318781 -7.323461 -3.519261
v 0.600000 -6.220941 -4.005216
v 0.600000 -5.871564 -4.498334
v 0.600000 6.325901 -3.833176
v 0.600000 -4.760195 -5.661344
v 0.600001 -3.423674 -6.556579
v 0.600000 -2.753626 -6.867270
v 0.600000 0.536960 7.379263
v 9.684041 -5.626707 -1.154001
v 9.387812 -5.969725 -1.450230
v 10.818832 -3.632124 -0.019210
v 10.593100 -4.150845 -0.244942
v 11.172399 -2.522278 0.334357
v 11.009804 -3.086193 0.171762
v 4.330163 0.862723 5.029339
v 11.402053 -1.279539 0.564011
v 11.288076 -2.006135 0.450034
v 11.479622 0.067692 0.641580
v 11.459758 -0.676038 0.621716
v 4.168533 5.078586 3.069334
v 11.411499 1.213167 0.573457
v 11.459758 0.676038 0.621716
v 4.202699 6.616000 0.864801
v 2.695946 7.436508 -1.749040
v 9.394182 -5.139074 -0.379737
v 11.233533 2.265684 0.395491
v 11.335958 1.743972 0.497916
v 2.005109 7.007256 -3.945982
v 1.324493 -3.246912 -9.175408
v 0.965842 1.904601 -9.289509
v 1.169749 -3.875977 -7.879320
v 0.600000 -7.158881 1.860294
v 10.950294 3.271013 0.112252
v 10.220229 4.854606 -0.617812
v 3.952478 -6.805706 -6.885564
v 2.387966 -6.093488 -6.736719
v 7.672380 6.447118 -1.135285
v 2.082390 -5.101715 -8.144586
v 6.342574 -7.410045 -3.420572
v 9.846403 -2.590284 1.136989
v 9.233323 6.129668 -1.604719
v 9.961997 5.254353 -0.876045
v 4.873479 7.436147 -4.640591
v 0.855802 -0.598040 -9.618877
v 5.689079 7.041433 -1.245191
v 7.578921 -6.007333 -0.311346
v 5.375235 -6.774172 -0.290424
v 8.052296 7.015165 -2.785746
v 8.405349 6.805706 -2.432693
v 1.927184 -6.485621 -5.249302
v 4.320028 4.271943 3.666677
v 1.643819 -6.697336 -4.403299
v 1.367836 -6.006738 -5.426354
v 0.600000 -6.735227 -3.062447
v 7.131082 7.376884 -3.706959
v 5.987483 7.493889 -4.850559
v 7.689476 -7.188050 -3.148566
v 3.379718 -7.302266 -4.132023
v 2.949931 -7.263825 -0.216770
v 2.672837 -6.740598 1.633501
v 1.644135 -6.316384 3.151458
v 6.319650 -4.750596 1.993422
v 5.114821 -3.914234 3.411174
v 9.074852 -6.281620 -1.763190
v 8.746794 -6.560765 -2.091248
v 10.249885 -4.801456 -0.588157
v 9.961997 -5.254353 -0.876045
v 4.576572 7.149476 -6.261470
v 4.992694 7.306529 -5.845347
v 5.158661 1.622870 4.378861
v 3.445222 6.425382 -7.392820
v 3.780192 6.687595 -7.057850
v 4.759740 2.773805 4.248152
v 2.532431 5.444078 -8.305611
v 2.819711 5.801998 -8.018331
v 5.526434 5.704139 1.470731
v 1.685578 3.981398 -9.152464
v 1.900435 4.429549 -8.937607
v 1.560760 6.801104 2.253723
v 2.987717 7.431571 -2.501013
v 4.699491 -7.362586 -5.144606
v 1.084216 2.070674 -9.753826
v 1.253073 2.775584 -9.584969
v 0.979185 5.737267 -5.257395
v 0.810168 0.939206 -9.040829
v 6.944968 -1.044748 3.379575
v 3.224441 7.263344 -0.401451
v 0.600000 -7.318720 1.070794
v 11.104754 2.775584 0.266712
v 10.696186 3.922766 -0.141856
v 10.457392 4.429549 -0.380649
v 4.350899 -7.036783 -6.487143
v 2.142814 -5.518671 -7.497240
v 3.050973 7.399674 -3.022998
v 2.182151 -5.323166 -7.925567
v 6.728677 -7.316077 -3.075994
v 8.676676 -2.226829 2.007429
v 8.787814 6.525861 -2.050227
v 9.647001 5.669598 -1.191041
v 5.077090 7.385947 -5.374809
v 1.752530 -4.877121 -7.872343
v 8.955847 5.323040 -0.300643
v 3.734116 -7.432379 -2.001849
v 6.149994 -1.560105 3.774374
v 0.878206 -0.067692 -9.959836
v 0.898069 0.676038 -9.939973
v 7.606416 2.422885 2.605379
v 4.697261 -6.254611 1.208727
v 5.129831 -5.075526 2.449943
v 2.973217 -7.400556 -2.915691
v 0.600000 -6.495212 -3.543174
v 7.550882 7.241201 -3.287159
v 6.752208 7.454820 -4.085834
v 6.370344 7.493889 -4.467698
v 8.052296 -7.015165 -2.785746
usemtl Paint_-_Metal_Flake_(Aqua)
f 339 423 110
f 352 297 142
f 352 415 297
f 75 7 31
f 147 13 91
f 147 198 8
f 147 91 198
f 285 240 252
f 285 175 240
f 69 37 416
f 281 69 334
f 37 69 281
f 212 199 67
f 400 212 67
f 339 110 141
f 305 141 202
f 305 202 245
f 360 305 245
f 47 353 410
f 289 49 353
f 417 353 113
f 289 353 417
f 205 125 18
f 247 36 204
f 12 36 45
f 204 36 12
f 127 177 216
f 13 44 50
f 147 44 13
f 147 8 57
f 69 416 40
f 281 64 145
f 400 86 212
f 289 172 49
f 289 417 172
f 43 155 76
f 155 364 76
f 143 261 170
f 216 177 157
f 117 53 165
f 53 54 82
f 147 58 44
f 57 58 147
f 58 57 398
f 93 22 209
f 401 22 93
f 260 96 123
f 400 418 86
f 418 400 106
f 361 115 21
f 361 111 115
f 30 373 47
f 129 372 395
f 38 395 301
f 295 173 372
f 114 173 295
f 133 155 219
f 366 155 133
f 134 219 205
f 76 174 156
f 70 306 68
f 407 218 409
f 218 2 256
f 149 2 218
f 6 137 213
f 12 203 241
f 16 72 159
f 139 28 216
f 28 176 127
f 28 261 176
f 304 33 254
f 165 33 304
f 165 118 33
f 53 118 165
f 53 51 118
f 53 83 51
f 82 83 53
f 33 46 254
f 46 48 254
f 51 52 118
f 51 83 52
f 46 148 48
f 118 52 33
f 83 84 52
f 148 210 48
f 46 55 148
f 33 55 46
f 52 55 33
f 52 84 55
f 55 56 148
f 55 84 56
f 148 34 126
f 148 56 34
f 84 90 56
f 50 29 77
f 44 29 50
f 44 59 29
f 58 59 44
f 398 185 58
f 58 185 59
f 185 265 59
f 77 290 122
f 29 290 77
f 59 290 29
f 59 60 290
f 59 265 60
f 239 92 71
f 71 92 408
f 408 394 357
f 394 217 357
f 123 390 40
f 96 390 123
f 390 310 40
f 310 69 40
f 390 69 310
f 102 119 181
f 102 384 119
f 35 329 124
f 119 329 35
f 329 277 124
f 86 255 154
f 86 418 255
f 154 255 411
f 62 112 376
f 424 38 61
f 174 350 156
f 213 78 415
f 213 137 26
f 150 151 45
f 241 203 343
f 311 167 73
f 203 291 343
f 203 262 291
f 73 262 203
f 73 167 262
f 312 140 72
f 72 157 159
f 72 216 157
f 72 140 216
f 216 28 127
f 139 170 28
f 28 170 261
f 170 169 143
f 169 153 303
f 169 303 419
f 420 419 303
f 399 303 79
f 253 303 399
f 253 420 303
f 79 303 153
f 164 420 253
f 65 420 164
f 254 397 304
f 254 89 397
f 48 89 254
f 48 391 89
f 210 391 48
f 23 391 210
f 23 210 126
f 392 391 23
f 162 392 23
f 8 23 126
f 162 23 8
f 94 392 162
f 8 126 34
f 180 162 198
f 180 94 162
f 198 162 8
f 91 94 180
f 91 180 198
f 13 94 91
f 13 388 94
f 50 388 13
f 50 389 388
f 77 389 50
f 77 97 389
f 122 97 77
f 122 385 97
f 39 385 122
f 128 290 60
f 39 290 128
f 39 122 290
f 200 385 39
f 386 385 200
f 66 128 60
f 39 128 66
f 100 386 200
f 383 382 288
f 71 383 288
f 414 383 71
f 103 383 414
f 357 414 71
f 357 103 414
f 302 103 357
f 370 103 302
f 302 357 217
f 217 370 302
f 285 370 217
f 285 428 370
f 252 428 285
f 252 427 428
f 240 427 252
f 240 369 427
f 93 369 240
f 209 369 93
f 209 426 369
f 22 401 158
f 22 426 209
f 158 146 22
f 146 426 22
f 359 158 85
f 359 146 158
f 362 426 146
f 161 146 359
f 161 362 146
f 221 359 85
f 221 161 359
f 363 362 161
f 221 85 393
f 221 363 161
f 179 412 351
f 355 412 179
f 123 355 179
f 413 355 123
f 40 413 123
f 416 413 40
f 416 356 413
f 37 356 416
f 37 348 356
f 281 348 37
f 281 405 348
f 145 405 281
f 24 64 365
f 145 64 24
f 404 405 145
f 160 145 24
f 160 404 145
f 160 24 101
f 15 160 101
f 15 404 160
f 347 404 15
f 171 341 340
f 181 341 171
f 181 335 341
f 178 335 181
f 124 178 35
f 124 335 178
f 336 335 124
f 41 336 124
f 332 336 41
f 231 124 277
f 25 124 231
f 74 124 25
f 74 41 124
f 74 25 231
f 74 332 41
f 199 74 231
f 199 332 74
f 333 332 199
f 212 333 199
f 86 333 212
f 86 330 333
f 154 330 86
f 154 331 330
f 411 331 154
f 354 331 411
f 327 331 354
f 296 411 105
f 108 411 296
f 108 354 411
f 299 327 354
f 328 327 299
f 299 354 108
f 130 328 299
f 130 299 108
f 326 325 112
f 249 326 112
f 206 326 249
f 380 326 206
f 376 380 206
f 423 380 376
f 339 380 423
f 339 381 380
f 141 381 339
f 141 323 381
f 305 323 141
f 305 324 323
f 360 324 305
f 19 324 360
f 360 245 422
f 19 360 246
f 378 324 19
f 246 360 422
f 42 378 19
f 246 245 375
f 246 422 245
f 42 19 246
f 63 378 42
f 379 378 63
f 314 379 63
f 371 429 7
f 75 371 7
f 75 315 371
f 410 315 75
f 410 75 47
f 353 315 410
f 353 264 315
f 49 264 353
f 49 307 264
f 172 307 49
f 298 172 417
f 298 307 172
f 298 308 307
f 61 308 298
f 173 248 372
f 406 293 248
f 173 406 248
f 205 406 173
f 18 406 205
f 18 349 406
f 125 349 18
f 43 349 125
f 43 294 349
f 174 364 135
f 174 76 364
f 76 294 43
f 174 135 166
f 156 294 76
f 156 244 294
f 367 174 166
f 306 174 367
f 350 174 306
f 287 286 68
f 407 287 68
f 409 287 407
f 282 287 409
f 352 282 409
f 142 282 352
f 142 283 282
f 297 283 142
f 297 415 78
f 247 297 78
f 247 283 297
f 36 78 45
f 36 247 78
f 204 283 247
f 204 279 283
f 345 12 45
f 17 204 12
f 17 279 204
f 73 259 311
f 73 345 259
f 203 345 73
f 203 12 345
f 241 17 12
f 241 279 17
f 241 280 279
f 343 280 241
f 157 275 159
f 177 276 157
f 273 276 177
f 127 273 177
f 176 273 127
f 176 274 273
f 358 274 176
f 143 274 358
f 143 419 274
f 419 143 169
f 157 276 275
f 261 358 176
f 261 143 358
f 16 275 278
f 16 159 275
f 170 272 169
f 170 269 272
f 139 269 170
f 140 139 216
f 140 269 139
f 312 269 140
f 312 321 269
f 168 321 312
f 262 16 291
f 262 72 16
f 168 72 262
f 168 312 72
f 320 321 168
f 268 320 259
f 151 268 259
f 150 268 151
f 138 150 45
f 138 268 150
f 319 268 138
f 26 45 78
f 26 138 45
f 213 26 78
f 137 138 26
f 137 319 138
f 6 319 137
f 218 415 352
f 218 213 415
f 256 6 213
f 266 319 6
f 218 256 213
f 409 218 352
f 2 6 256
f 2 266 6
f 149 266 2
f 309 218 407
f 149 218 309
f 317 266 149
f 306 407 68
f 309 407 306
f 3 149 309
f 3 317 149
f 367 309 306
f 367 3 309
f 271 169 272
f 153 169 271
f 278 291 16
f 280 291 278
f 343 291 280
f 167 168 262
f 167 320 168
f 311 320 167
f 311 259 320
f 345 151 259
f 345 45 151
f 286 70 68
f 244 70 286
f 244 156 70
f 156 350 70
f 350 306 70
f 166 3 367
f 166 317 3
f 166 316 317
f 395 293 301
f 395 248 293
f 372 248 395
f 219 125 205
f 219 43 125
f 366 364 155
f 136 364 366
f 135 364 136
f 316 166 135
f 114 205 173
f 134 205 114
f 155 43 219
f 425 135 136
f 316 135 425
f 38 301 300
f 133 368 366
f 313 368 133
f 134 313 133
f 263 313 134
f 114 263 134
f 372 114 295
f 5 114 372
f 5 263 114
f 257 263 5
f 372 257 5
f 424 395 38
f 424 129 395
f 424 372 129
f 258 257 372
f 424 258 372
f 61 258 424
f 250 258 61
f 136 368 425
f 136 366 368
f 219 134 133
f 300 61 38
f 308 61 300
f 298 250 61
f 115 7 429
f 47 113 353
f 251 298 417
f 250 298 251
f 402 251 417
f 113 402 417
f 373 113 47
f 373 402 113
f 373 346 402
f 30 47 75
f 31 346 373
f 31 373 30
f 115 346 31
f 111 346 115
f 111 292 346
f 361 292 111
f 361 243 292
f 374 243 361
f 237 243 374
f 75 31 30
f 7 115 31
f 429 21 115
f 314 21 429
f 314 361 21
f 63 361 314
f 42 361 63
f 42 374 361
f 246 374 42
f 246 237 374
f 375 237 246
f 238 237 375
f 202 375 245
f 202 238 375
f 234 238 202
f 141 234 202
f 110 234 141
f 423 234 110
f 423 235 234
f 376 235 423
f 376 232 235
f 112 232 376
f 109 232 112
f 112 62 249
f 377 109 112
f 377 232 109
f 233 232 377
f 107 233 377
f 121 112 242
f 121 377 112
f 108 233 107
f 229 233 108
f 121 242 130
f 130 377 121
f 130 107 377
f 376 249 62
f 206 249 376
f 325 242 112
f 328 242 325
f 130 242 328
f 108 107 130
f 296 229 108
f 105 229 296
f 105 230 229
f 411 230 105
f 411 227 230
f 255 227 411
f 255 228 227
f 418 228 255
f 120 340 403
f 120 171 340
f 119 178 181
f 119 35 178
f 228 418 106
f 226 225 400
f 67 226 400
f 231 67 199
f 231 226 67
f 223 226 231
f 277 223 231
f 322 223 277
f 329 322 277
f 329 270 322
f 119 270 329
f 384 270 119
f 384 224 270
f 102 224 384
f 421 171 120
f 421 181 171
f 421 102 181
f 104 224 102
f 187 224 104
f 421 104 102
f 387 421 120
f 387 104 421
f 387 187 104
f 99 120 131
f 387 120 99
f 220 187 387
f 99 220 387
f 106 225 228
f 106 400 225
f 403 131 120
f 403 99 131
f 347 99 403
f 15 99 347
f 101 99 15
f 101 220 99
f 101 214 220
f 365 27 24
f 215 27 365
f 64 215 365
f 281 215 64
f 281 207 215
f 334 207 281
f 69 207 334
f 69 20 207
f 69 208 20
f 390 208 69
f 96 208 390
f 260 123 179
f 201 208 96
f 182 96 260
f 98 96 182
f 98 201 96
f 351 260 179
f 351 182 260
f 351 284 182
f 284 98 182
f 284 201 98
f 196 201 284
f 144 284 351
f 337 284 144
f 337 196 284
f 101 27 214
f 101 24 27
f 412 144 351
f 412 132 144
f 363 132 412
f 221 132 363
f 221 144 132
f 221 337 144
f 393 337 221
f 393 196 337
f 393 11 196
f 85 11 393
f 85 197 11
f 158 197 85
f 158 195 197
f 401 195 158
f 401 194 195
f 93 194 401
f 240 194 93
f 192 194 240
f 95 192 240
f 217 95 285
f 338 95 217
f 338 192 95
f 10 192 338
f 394 338 217
f 394 10 338
f 408 10 394
f 408 193 10
f 92 193 408
f 92 190 193
f 239 190 92
f 288 190 239
f 288 191 190
f 342 191 288
f 188 191 342
f 211 288 236
f 163 288 211
f 163 342 288
f 66 188 342
f 163 211 236
f 200 342 163
f 39 342 200
f 39 66 342
f 189 188 66
f 175 95 240
f 175 285 95
f 357 71 408
f 71 288 239
f 382 236 288
f 100 236 382
f 100 163 236
f 200 163 100
f 60 189 66
f 60 318 189
f 265 318 60
f 185 318 265
f 185 267 318
f 398 267 185
f 304 397 396
f 34 57 8
f 116 398 57
f 88 222 116
f 186 222 88
f 32 88 34
f 90 88 32
f 90 186 88
f 56 32 34
f 90 32 56
f 84 186 90
f 84 9 186
f 83 9 84
f 83 4 9
f 82 4 83
f 183 53 117
f 54 53 183
f 1 4 82
f 14 165 304
f 117 165 14
f 344 183 117
f 81 82 54
f 87 117 14
f 184 54 183
f 81 54 184
f 344 117 87
f 184 183 344
f 81 1 82
f 80 81 184
f 80 1 81
f 152 1 80
f 164 184 344
f 80 184 164
f 79 152 80
f 399 164 253
f 399 80 164
f 79 80 399
f 398 222 267
f 398 116 222
f 57 88 116
f 57 34 88
f 126 210 148
f 396 14 304
f 396 87 14
f 396 344 87
f 65 344 396
f 65 164 344
f 153 152 79
f 153 271 152
f 251 258 250
f 402 258 251
f 402 257 258
f 346 257 402
f 346 263 257
f 292 263 346
f 292 313 263
f 243 313 292
f 243 368 313
f 237 368 243
f 237 425 368
f 237 316 425
f 238 316 237
f 238 317 316
f 234 317 238
f 234 266 317
f 235 266 234
f 235 319 266
f 232 319 235
f 232 268 319
f 233 268 232
f 233 320 268
f 229 320 233
f 229 321 320
f 230 321 229
f 230 269 321
f 227 269 230
f 228 269 227
f 228 272 269
f 225 272 228
f 226 272 225
f 223 272 226
f 207 27 215
f 20 27 207
f 208 27 20
f 201 27 208
f 196 27 201
f 11 27 196
f 197 27 11
f 195 27 197
f 194 27 195
f 192 27 194
f 10 27 192
f 193 27 10
f 190 27 193
f 191 27 190
f 188 27 191
f 189 27 188
f 318 27 189
f 267 27 318
f 222 27 267
f 186 27 222
f 9 27 186
f 9 214 27
f 4 214 9
f 4 220 214
f 4 187 220
f 1 187 4
f 1 224 187
f 152 224 1
f 152 270 224
f 152 322 270
f 271 322 152
f 271 223 322
f 272 223 271
f 428 103 370
f 427 103 428
f 369 103 427
f 369 383 103
f 426 383 369
f 426 382 383
f 426 100 382
f 362 100 426
f 363 100 362
f 363 386 100
f 412 386 363
f 412 385 386
f 412 97 385
f 355 97 412
f 355 389 97
f 413 389 355
f 413 388 389
f 356 388 413
f 356 94 388
f 348 94 356
f 348 392 94
f 405 392 348
f 405 391 392
f 404 391 405
f 404 89 391
f 347 89 404
f 347 397 89
f 403 397 347
f 403 396 397
f 340 396 403
f 341 396 340
f 341 65 396
f 335 65 341
f 335 420 65
f 336 420 335
f 336 419 420
f 332 419 336
f 300 307 308
f 300 264 307
f 301 264 300
f 301 315 264
f 293 315 301
f 293 371 315
f 406 371 293
f 406 429 371
f 406 314 429
f 349 314 406
f 349 379 314
f 294 379 349
f 294 378 379
f 244 378 294
f 244 324 378
f 286 324 244
f 286 323 324
f 287 323 286
f 287 381 323
f 282 381 287
f 282 380 381
f 283 380 282
f 283 326 380
f 279 326 283
f 279 325 326
f 279 328 325
f 280 328 279
f 278 328 280
f 278 327 328
f 275 327 278
f 275 331 327
f 276 331 275
f 276 330 331
f 273 330 276
f 273 333 330
f 274 333 273
f 274 332 333
f 419 332 274
g Body3

v 0.600000 -6.530797 2.216515
v 1.061531 -6.363093 2.413284
v 3.095027 6.756702 -6.355088
v 2.700147 6.764217 -4.207597
v 1.538333 6.447091 -3.825607
v 3.654889 6.644279 0.261099
v 1.688574 6.839293 0.266809
v 2.282412 -6.419385 -6.672900
v 2.243287 6.391737 -6.622372
v 0.600000 -6.127573 -3.164979
v 13.717457 7.000000 -11.185026
v 14.598437 7.000000 -9.236552
v 14.620290 7.000000 -7.261073
v 14.379274 7.000000 -6.411893
v 13.249982 7.000000 -4.659129
v 7.089606 8.000000 -12.446317
v 7.675421 8.000000 -12.756322
v 8.350932 8.000000 -12.998796
v 10.321206 8.000000 -13.156477
v 10.918495 8.000000 -13.044058
v 3.104056 7.000000 -7.733986
v 1.653618 6.142901 -6.760918
v 2.419885 6.806461 -7.870914
v 2.451813 -7.881495 -7.713646
v 0.600000 -7.299520 -1.179189
v 0.600000 -6.530426 3.473606
v 3.875504 -6.574399 2.560659
v 9.714447 -8.000000 -1.123595
v 0.600000 -5.230506 4.500200
v 9.253771 7.000000 -1.584270
v 8.432728 -6.751165 -0.229463
v 2.751923 -6.751165 -7.279235
v 1.273689 6.560886 1.746625
v 12.750194 8.000000 -12.166063
v 12.244592 8.000000 -12.503345
v 1.317614 6.053884 -4.583521
v 1.318421 6.320637 -3.855488
v 0.829513 5.947299 -3.875739
v 1.205119 6.908929 -0.422213
v 4.443902 6.169850 1.445623
v 0.798551 6.355374 -4.409538
v 2.918437 6.873855 -3.488828
v 0.991116 5.990165 -5.394364
v 10.756337 7.000000 -13.078651
v 11.599977 8.000000 -12.818909
v 12.339324 7.000000 -12.446297
v 12.750194 7.000000 -12.166063
v 0.600000 -6.696009 1.660368
v 0.600000 -6.809769 1.091462
v 0.600000 -6.889150 0.322268
v 0.600000 -6.881923 -0.450977
v 0.600000 -6.764204 -1.345285
v 0.600000 -6.571085 -2.094061
v 0.600000 -6.373817 -2.639662
v 4.064949 -7.000000 -6.773093
v 0.600000 -5.622839 -3.988799
v 3.104056 -7.000000 -7.733986
v 0.600000 5.230506 -4.500200
v 0.600000 -5.230506 -4.500200
v 2.240303 7.598822 -4.610087
v 0.600000 7.242488 -1.502921
v 13.046897 -8.000000 -11.917719
v 14.229866 -7.000000 -6.055184
v 8.649531 -6.955227 -1.741490
v 2.090767 -6.417686 -5.117527
v 3.573407 6.853568 -5.417911
v 7.657567 6.831410 -1.312561
v 7.331985 7.000000 -3.506057
v 3.390712 6.828440 -6.171144
v 2.934675 6.774093 -7.006088
v 3.899526 6.957981 -2.852705
v 3.804298 6.021093 2.910231
v 8.474910 6.921265 -1.580367
v 7.874073 6.913862 -1.861202
v 3.381125 6.932126 -7.152835
v 1.182882 6.437458 3.440785
v 4.265455 6.942461 -5.025320
v 6.266713 6.968139 -3.083377
v 3.776642 6.940272 -6.645628
v 0.812231 7.385217 -1.120674
v 2.766175 6.394069 1.482346
v 5.447739 6.977038 -3.419124
v 1.454480 5.842653 4.231776
v 5.860389 6.889371 1.364978
v 4.449306 7.000000 -6.388736
v 6.252124 6.876340 -1.859282
v 8.397125 7.130068 -0.239802
v 0.767019 7.243656 -1.954455
v 4.961405 6.509060 2.016545
v 3.713787 6.882404 -5.981729
v 0.842071 7.428144 -0.395805
v 0.971985 7.334020 -2.012914
v 1.212648 7.080700 1.917898
v 7.590424 6.968477 -2.639503
v 1.869936 7.563141 -2.030048
v 2.066338 6.492113 3.076135
v 1.759495 6.697379 2.735401
v 1.253984 6.887802 2.449391
v 4.224962 6.951874 -5.936290
v 6.886806 6.933374 -2.418517
v 1.064620 6.638607 3.094236
v 1.131810 6.117789 3.982058
v 3.268067 6.839888 -6.740005
v 5.056640 6.982928 -5.100638
v 3.661885 6.292768 2.835564
v 5.824786 6.442378 1.529497
v 5.365818 6.933900 -2.389561
v 4.306364 6.959445 -3.956135
v 5.794556 7.000000 -5.043486
v 8.485057 7.000000 -2.352985
v 6.837725 6.831044 -1.476752
v 7.384370 6.696864 -0.627484
v 13.249982 8.000000 -4.659129
v 13.906974 8.000000 -5.476374
v 14.229866 8.000000 -6.055184
v 14.458209 8.000000 -6.618436
v 14.620290 8.000000 -7.261073
v 14.705580 8.000000 -7.918322
v 14.706193 8.000000 -8.415660
v 14.644567 8.000000 -9.020304
v 14.487242 8.000000 -9.664122
v 14.181431 8.000000 -10.433507
v 13.845814 8.000000 -11.005034
v 13.547679 8.000000 -11.403105
v 13.208318 8.000000 -11.766669
v 1.379937 7.365271 0.645175
v 1.114407 7.127394 -3.814552
v 1.239150 7.407617 0.363513
v 1.049849 7.240073 -2.862141
v 0.739277 7.117339 -2.427125
v 1.611039 7.512667 -0.778047
v 6.990794 6.970579 0.676014
v 0.826239 6.966709 -3.305975
v 9.216002 7.466136 -0.796094
v 8.058894 7.349123 -0.048793
v 3.680592 7.000000 -7.157450
v 2.664992 6.087167 3.472934
v 2.451372 5.728383 3.845008
v 1.454479 5.614609 4.448096
v 0.960187 7.088531 -3.326585
v 1.922005 7.245025 1.090176
v 2.346714 7.175611 1.239222
v 1.247460 7.385501 -2.479148
v 3.199127 7.162584 1.101699
v 2.704124 6.866617 2.079513
v 3.240982 6.577677 2.644358
v 1.328899 7.225588 -4.332183
v 4.083681 7.102670 1.174960
v 1.608629 7.436194 -3.424423
v 3.062071 7.507297 -0.477671
v 4.409967 6.928535 1.666254
v 1.750236 7.446458 -4.232347
v 1.880690 7.480951 -4.851868
v 3.889137 7.643394 -1.463030
v 2.588222 7.648676 -2.307325
v 2.382862 7.633313 -4.137809
v 2.880673 7.614395 -1.394167
v 1.548291 7.332651 -4.750156
v 2.270727 7.617150 -3.280666
v 3.983179 7.355761 0.239325
v 1.918437 7.541339 -3.314332
v 4.192516 6.793839 2.029827
v 3.213642 7.265152 0.721798
v 2.878952 7.411972 0.108930
v 2.934935 6.730446 2.364835
v 3.412957 6.982311 1.626981
v 1.385739 7.325465 -3.614271
v 1.283603 7.465115 -1.686075
v 2.426615 7.039010 1.671762
v 1.713901 7.344620 0.686124
v 2.120021 6.316850 3.383005
v 4.870496 7.157102 0.955287
v 4.754114 7.443248 -0.168008
v 2.377355 7.652369 -5.529693
v 2.061395 7.548634 -5.301542
v 5.734187 7.428332 -0.031186
v 6.185595 7.643651 -1.035646
v 3.937200 7.824940 -3.956714
v 3.598830 7.897873 -6.068454
v 3.997627 7.960865 -6.345373
v 5.017802 7.939221 -4.780249
v 4.445157 6.713482 2.201220
v 1.685546 7.407475 -5.789580
v 4.411147 8.000000 -6.426895
v 0.600000 5.774784 -4.609297
v 0.600000 -6.154464 3.106351
v 1.118245 5.814019 -4.711167
v 2.003352 6.713269 -3.396275
v 1.824476 6.202715 -5.406931
v 3.634340 6.333433 1.296765
v 3.224196 6.171245 1.855501
v 1.720178 6.883156 -1.783167
v 1.431143 6.766971 -2.325645
v 1.580740 6.160080 -4.874538
v 1.504171 6.012629 -5.164006
v 1.671609 6.039322 -5.620254
v 1.734721 6.411797 -4.306457
v 2.346409 6.807162 -3.275380
v 3.061345 6.584779 0.748849
v 3.177542 6.030319 2.180256
v 1.412322 6.220180 -4.320513
v 1.656740 6.553283 -3.623194
v 2.851914 6.923086 -1.289258
v 0.600000 7.341473 -0.919493
v 0.600000 7.337069 0.917009
v 0.600000 6.976495 2.449898
v 0.600000 6.161754 4.095787
v 0.600000 5.441866 5.013551
v 0.600000 6.038250 3.336599
v 0.600000 6.624620 1.908205
v 0.600000 6.880712 0.515557
v 0.600000 6.881923 -0.450977
v 0.600000 6.678155 -1.722349
v 0.600000 6.004966 -3.391848
v 6.178914 -8.000000 -11.730196
v 7.135675 -8.000000 -12.476916
v 8.998773 -8.000000 -13.136998
v 11.025439 -8.000000 -13.016245
v 7.574970 -8.000000 -12.710080
v 12.524819 -8.000000 -12.326028
v 11.802678 -8.000000 -12.730980
v 0.600000 6.975860 -2.451706
v 9.714447 8.000000 -1.123595
v 3.637749 8.000000 -7.200293
v 1.206628 7.111214 -4.587039
v 6.438943 7.200273 0.943182
v 8.613150 7.895995 -1.391296
v 7.577502 7.557229 -0.112790
v 3.127965 7.870447 -6.534621
v 2.789187 7.796749 -6.359502
v 5.905525 7.725133 -1.666425
v 5.251872 7.735544 -1.939334
v 6.109590 7.355070 0.330548
v 2.118798 7.599470 -6.032719
v 3.873112 6.483967 0.759093
v 13.437504 -8.000000 -11.527111
v 14.158305 -8.000000 -10.483745
v 14.598437 -8.000000 -9.236552
v 14.680546 -8.000000 -7.643085
v 14.203459 -8.000000 -6.006591
v 13.249982 -8.000000 -4.659129
v 6.770185 -7.000000 -12.228295
v 8.138221 -7.000000 -12.938424
v 9.438378 -7.000000 -13.180909
v 10.756337 -7.000000 -13.078651
v 12.339324 -7.000000 -12.446297
v 13.543927 -7.000000 -11.399964
v 14.401297 -7.000000 -9.926657
v 14.710472 -7.000000 -8.360521
v 14.473309 -7.000000 -6.671639
v 14.552305 -7.000000 -9.452798
v 5.399254 6.311676 0.855138
v 3.330067 6.784624 -0.279251
v 2.212475 6.628166 -4.220579
v 2.259642 6.546565 -4.803343
v 1.948933 6.366635 -4.982941
v 4.761172 6.602148 0.043079
v 4.099247 6.866480 -1.199812
v 2.183023 6.421556 -5.403437
v 2.066164 6.295545 -5.893509
v 4.746787 6.420356 0.680242
v 5.960532 6.592515 -0.177189
v 5.002336 6.707321 -0.506906
v 3.170781 6.806184 -4.821273
v 2.347970 6.458088 -5.864345
v 2.527967 6.582094 -5.352682
v 2.702315 6.686792 -4.899602
v 13.874367 -7.000000 -5.431703
v 0.938734 -6.836440 -4.106765
v 0.928258 -6.066733 -5.147760
v 0.863404 -6.562346 -4.304510
v 1.343319 -6.147453 -6.090849
v 1.535884 -7.148146 -5.612019
v 1.719469 -6.449862 -6.694402
v 1.874119 -6.778868 -6.818501
v 1.877112 -7.403953 -6.374741
v 2.194395 -7.606834 -7.126754
v 2.379976 -7.176440 -7.716378
v 2.494716 -7.705111 -7.855132
v 2.503696 -7.411133 -7.921107
v 2.643380 -7.437500 -8.194662
v 2.848062 -6.715471 -5.042422
v 0.600000 -5.818258 -4.559127
v 2.741335 6.895080 -2.949032
v 2.938311 6.927299 -2.643083
v 5.648701 6.696056 -0.596054
v 5.035612 6.804165 -1.067384
v 4.540139 6.937676 -2.225287
v 3.682164 6.911421 -4.207900
v 2.890910 6.683597 -5.801101
v 2.368324 6.455814 -6.325134
v 3.910665 6.953301 -2.405169
v 6.347182 6.539308 -0.001289
v 5.735357 6.838512 -1.484472
v 3.373694 6.861985 -4.487647
v 2.728300 6.624029 -6.144225
v 2.962149 6.722091 -5.366801
v 6.901834 6.736124 -0.878097
v 2.683999 6.637769 -6.744494
v 1.033520 6.811691 -4.470980
v 1.082409 5.792327 -5.806830
v 0.836465 6.806449 -3.802903
v 1.063951 6.359546 -5.169577
v 1.335337 6.431713 -5.811253
v 1.871126 6.479033 -6.994601
v 1.978882 6.792031 -7.045495
v 1.840695 7.286258 -6.368900
v 2.176436 7.605742 -7.077906
v 6.178914 7.000000 -11.730196
v 6.591590 7.000000 -12.097933
v 7.138200 7.000000 -12.472725
v 7.931678 7.000000 -12.859489
v 8.563643 7.000000 -13.059168
v 9.053103 7.000000 -13.147337
v 9.880143 7.000000 -13.185796
v 2.406678 -6.577640 -4.986057
v 3.987206 -6.756126 -0.408527
v 4.883593 -6.464084 0.504991
v 2.684286 -6.859642 -0.455535
v 2.729916 -6.426195 1.411024
v 2.165322 -6.774753 -3.245882
v 1.875267 -6.911712 -0.636671
v 1.707063 -6.353199 -4.488250
v 2.582718 -6.532032 1.155629
v 2.829220 -6.095246 2.180917
v 1.590448 -6.605075 -3.304022
v 2.009170 -5.905142 2.894814
v 1.307312 -6.779998 0.849659
v 1.193389 -6.080397 -4.269872
v 1.826170 -6.592854 1.339551
v 1.674487 -6.737174 -2.802971
v 13.245656 7.000000 -11.725870
v 14.338694 7.000000 -10.080192
v 14.705580 7.000000 -7.918322
v 1.359490 -5.850954 -5.237044
v 1.298599 -5.514340 3.822330
v 0.959836 -6.580232 -2.529950
v 13.752032 7.000000 -5.247516
v 6.549975 8.000000 -12.061507
v 0.803727 -6.482763 -2.626668
v 1.120900 -6.836964 -1.498519
v 2.157394 -6.890814 -0.460373
v 0.782781 -5.607841 -4.370833
v 9.659208 8.000000 -13.188242
v 1.014244 -6.539671 1.956218
v 3.905243 -6.577319 0.425854
v 1.174110 -6.843016 0.537104
v 11.599977 7.000000 -12.818909
v 14.052702 7.000000 -10.678071
v 14.700080 7.000000 -8.526073
v 1.031462 -6.283242 -3.493114
v 1.031857 -5.861511 -4.424667
v 1.088245 -6.694553 -2.257704
v 14.078047 7.000000 -5.760455
v 6.178914 8.000000 -11.730196
v 1.332127 -5.716593 3.514491
v 0.784784 -5.999418 -3.701796
v 1.617514 -6.891864 -1.530529
v 2.117225 -6.921814 -1.611678
v 8.998073 8.000000 -13.141841
v 1.196188 -6.699629 1.291085
v 1.320019 -6.193953 2.662502
v 4.033837 -6.926567 -5.913698
v 4.038716 -6.452194 0.800772
v 2.178508 -6.654716 -4.005370
v 4.470120 -6.938846 -2.215367
v 2.259826 -6.928347 -1.365574
v 2.575851 -6.589861 -5.472869
v 5.786855 -6.706491 -0.673310
v 2.790088 -6.682468 -6.751803
v 3.866056 -6.911684 -4.710812
v 5.564420 -6.794044 -1.126084
v 2.716825 -6.621489 -6.318064
v 6.665919 -6.814687 -1.364889
v 4.730329 -6.974775 -3.708448
v 5.648696 -6.973764 -3.303545
v 4.318765 -6.950543 -5.664697
v 4.985575 -6.982960 -5.149918
v 7.707131 -6.865899 -1.527692
v 8.067509 -6.846850 -1.258906
v 3.375000 -6.872737 -6.777855
v 7.451939 -6.724324 -0.741895
v 2.954324 -6.798235 -7.111772
v 6.369292 -6.914692 -2.250002
v 6.639187 -6.554062 -0.068039
v 5.401159 -6.918678 -2.193913
v 3.632124 -6.867195 -5.254900
v 2.957115 -6.704176 -5.833516
v 5.070736 -6.832167 -1.270163
v 3.247598 -6.849132 -4.399780
v 3.832776 -6.951187 -2.328625
v 2.463387 -6.504144 -6.251076
v 2.701196 -6.890478 -2.957279
v 4.014297 -6.288504 1.282279
v 4.047053 -6.956105 -6.387627
v 7.175932 -6.946378 -2.512122
v 3.449044 -6.848233 -6.344696
v 7.284808 -6.895540 -1.909631
v 3.186357 -6.778031 -6.261248
v 4.323571 -6.948218 -4.895312
v 6.881381 -6.721714 -0.806029
v 4.625366 -6.968314 -4.389378
v 3.373341 -6.816853 -5.537735
v 6.111170 -6.583962 -0.155953
v 3.607421 -6.939775 -3.407422
v 3.485973 -6.906106 -3.946650
v 4.249700 -6.879972 -1.391169
v 2.104159 -6.528278 -4.547216
v 3.636708 -6.815100 -0.608370
v 2.152514 -6.361726 -5.748787
v 2.736160 -6.849254 -3.472897
v 5.257677 -6.604577 -0.103378
v 5.268329 -6.344185 0.790695
v 1.776190 -6.185845 -5.318015
v 3.043270 -6.644379 0.535277
v 1.868598 -6.481907 -4.288721
v 4.163620 -6.125990 1.635481
v 1.553751 -6.154591 -4.829272
v 2.803204 -5.844932 2.672869
v 2.492998 -6.740374 0.389595
v 1.327748 -5.921836 -4.956994
v 2.590455 -6.286693 1.847662
v 1.358973 -6.449210 -3.524914
v 1.367680 -6.140675 -4.456554
v 1.335411 -6.010324 3.015232
v 13.249982 -7.000000 -4.659129
v 0.825490 -6.227750 -4.667077
v 0.884357 -5.694283 -5.434932
v 1.338331 -6.516287 -5.731532
v 1.227581 -6.822783 -5.066692
v 1.609717 -6.643114 -6.299150
v 1.547857 -6.842667 -5.966573
v 1.865140 -7.129852 -6.558050
v 2.098612 -6.762699 -7.304832
v 2.100607 -7.168942 -7.112705
v 2.324102 -7.445220 -7.518898
v 2.462788 -6.977666 -7.911877
v 0.600000 -6.429123 -3.652158
v 4.608100 -6.668366 -0.197366
v 2.747408 -6.754202 -4.388976
v 1.395202 6.839427 -5.544857
v 1.643640 7.293434 -5.780719
v 1.634660 6.752807 -6.272951
v 1.454069 6.234933 -6.268572
v 2.296165 7.260393 -7.518331
v 1.970900 7.096002 -6.846741
v 2.244282 7.464360 -7.320453
v 2.280201 6.903304 -7.604026
v 2.519659 7.663025 -7.919558
v 2.531632 7.169249 -8.004276
v 2.643380 7.562500 -8.194662
v 1.129067 5.543297 3.858551
v 1.451575 5.804413 3.316820
v 1.094712 6.004692 3.145289
v 1.090224 6.217012 2.731227
v 0.797454 5.599708 -4.415586
v 13.845814 -8.000000 -11.005034
v 14.361821 -8.000000 -10.029954
v 14.705581 -8.000000 -8.360357
v 14.518581 -8.000000 -6.831147
v 13.845836 -8.000000 -5.384325
v 6.178914 -7.000000 -11.730196
v 7.526377 -7.000000 -12.683674
v 8.726123 -7.000000 -13.092578
v 10.101134 -7.000000 -13.178460
v 11.599977 -7.000000 -12.818909
v 12.919750 -7.000000 -12.024142
v 14.116044 -7.000000 -10.555111
v 14.667128 -7.000000 -8.855966
v 14.691529 -7.000000 -7.753040
v 14.625096 -7.000000 -7.260157
v 2.223468 6.259453 2.081254
v 1.763164 6.693243 1.000963
v 0.960501 6.421506 -3.017650
v 1.074853 5.995777 -4.227832
v 1.234642 5.775607 -5.083760
v 0.910346 6.222443 -3.444392
v 0.940933 6.879905 0.323766
v 1.396831 6.407796 2.119017
v 2.022957 6.072832 2.573647
v 2.583232 5.794373 2.846757
v 1.485633 6.775392 0.771096
v 2.527746 6.884481 -0.599996
v 1.290100 6.898790 -1.032337
v 1.294488 6.821773 -1.819585
v 1.229936 6.672832 -2.526990
v 1.264271 6.580866 -2.935759
v 0.600000 7.392966 -0.132428
v 0.600000 7.202260 1.694151
v 0.600000 6.558709 3.414209
v 0.600000 5.774672 4.627436
v 0.600000 5.622839 3.988799
v 0.600000 6.346927 2.698290
v 0.600000 6.809769 1.091462
v 0.600000 6.897588 0.128979
v 0.600000 6.801352 -1.155411
v 0.600000 6.369361 -2.637816
v 0.600000 5.587512 -4.042765
v 6.636261 -8.000000 -12.130540
v 8.191424 -8.000000 -12.953524
v 9.880143 -8.000000 -13.185796
v 10.540090 -8.000000 -13.124782
v 1.967589 -6.220270 -5.966558
v 3.411759 -6.947339 -7.188436
v 0.600000 6.735949 -3.063821
v 8.167651 8.000000 -2.670391
v 2.643380 8.000000 -8.194662
v 0.823495 6.874204 -3.625007
v 8.290315 7.652292 -0.224996
v 8.000777 7.946987 -2.312245
v 7.442940 7.835746 -1.787913
v 2.540130 7.805854 -7.005104
v 4.590481 7.757889 -2.382463
v 3.143906 7.787140 -5.096253
v 3.529397 7.790562 -3.929865
v 4.646884 7.573640 -0.880484
v 5.572270 7.110531 1.127576
v 1.792103 7.449475 -5.566342
v 4.568583 7.294825 0.468312
v 2.906038 7.716560 -3.681693
v 2.713331 7.728480 -5.446756
v 2.296272 7.682125 -6.387658
v 6.719541 7.573766 -0.499703
v 7.755576 7.742545 -0.990963
v 6.587990 7.872937 -2.629613
v 5.384230 7.892790 -3.654619
v 2.958024 7.943338 -7.471770
v 2.380166 6.209307 3.504188
v 2.308138 7.792617 -7.352884
v 5.626486 8.000000 -5.211555
v 0.600000 6.297983 -3.883011
v 0.600000 -5.473612 4.199158
v 0.600000 -5.772066 3.778440
v 1.852028 -6.115253 -6.117093
v 2.468039 -7.652879 -4.629624
v 5.342390 -7.325605 0.365907
v 2.572086 -7.668662 -3.597958
v 4.485893 -7.394888 0.049653
v 3.895334 -7.277917 0.576262
v 3.170257 -7.529435 -0.623741
v 1.964935 -7.540411 -3.662629
v 2.001998 -7.526353 -4.630050
v 1.586739 -7.363604 -4.457193
v 1.854190 -7.478407 -5.622712
v 2.236046 -7.608305 -3.471824
v 3.627055 -7.640039 -1.486811
v 3.356228 -7.439895 -0.092606
v 4.614156 -6.928383 1.653273
v 4.199179 -7.063496 1.288756
v 2.870105 -7.630979 -1.633459
v 1.717956 -7.435142 -4.173059
v 3.056266 -7.182819 1.053885
v 1.517668 -7.449353 0.010639
v 2.109161 -7.592643 -1.927389
v 1.748101 -7.540996 -2.171564
v 1.656788 -7.439651 -3.640949
v 3.028398 -6.900677 1.926435
v 2.512127 -7.624225 -1.830303
v 1.510239 -7.307401 -4.814308
v 2.462884 -7.330091 0.591580
v 3.483800 -6.704420 2.328850
v 1.619574 -7.487293 -2.707432
v 1.361963 -7.318830 -3.573591
v 1.511993 -7.324508 0.839014
v 1.205189 -7.471140 -0.558055
v 2.450977 -6.763547 2.397720
v 2.557657 -7.110530 1.408997
v 1.042702 -7.437469 -0.032132
v 1.080529 -7.179085 -3.346141
v 1.178512 -7.140995 -4.090233
v 2.535490 -6.476727 2.985356
v 1.227084 -7.389606 -2.385351
v 1.468597 -6.553357 3.134417
v 1.617982 -7.238545 1.207327
v 1.037895 -7.449985 -0.873703
v 1.101555 -7.430735 -1.526269
v 1.040292 -7.266921 -2.676829
v 0.793540 -7.021796 -2.973538
v 1.462479 -6.276427 3.636105
v 1.132366 -7.357391 0.736056
v 0.775600 -7.327228 -1.484173
v 1.012924 -6.106903 4.039784
v 1.248535 -6.678981 2.947103
v 1.069982 -6.838746 2.644655
v 1.591495 -6.999475 2.037796
v 0.781771 -6.919925 -3.285932
v 0.758982 -7.158031 -2.322518
v 0.600000 -5.441866 5.013551
v 9.216001 -7.461537 -0.794426
v 8.032191 -6.953116 0.016397
v 8.147902 -7.337060 -0.103134
v 6.741572 -6.664465 0.896868
v 6.848381 -7.091341 0.736375
v 5.620067 -6.408257 1.666724
v 3.804298 -6.021093 2.910231
v 3.733091 -6.324795 2.778945
v 5.459852 -6.706256 1.657256
v 2.024133 -5.626457 4.148984
v 2.878612 -6.150636 3.322115
v 2.202149 -5.839775 3.887308
v 1.596893 -5.884905 4.131108
v 8.485057 -7.000000 -2.352985
v 7.331985 -7.000000 -3.506057
v 5.794556 -7.000000 -5.043486
v 1.852028 6.115253 -6.117093
v 0.600000 5.230506 -5.234673
v 2.643380 7.000000 -8.194662
v 2.643380 -7.000000 -8.194662
v 1.773347 -6.246583 -6.934354
v 0.600000 -5.230506 -5.234673
v 9.714447 7.000000 -1.123595
v 8.859968 6.834110 -0.527507
v 7.507042 6.571451 0.416298
v 3.706388 5.833586 3.067646
v 0.600000 5.230506 5.234673
v 0.600000 -5.230506 5.234673
v 3.920009 -5.875058 2.918624
v 9.714447 -7.000000 -1.123595
v 0.600000 5.230506 4.500200
v 2.019759 5.520814 3.501967
v 5.062101 6.142902 1.362895
v 7.901620 6.723517 -0.633572
v 9.253771 -7.000000 -1.584270
v 7.901620 -6.723517 -0.633572
v 5.062101 -6.142902 1.362895
v 2.425405 -5.603759 3.216757
v 2.643380 -8.000000 -8.194662
v 4.024448 -8.000000 -6.813594
v 7.698088 -8.000000 -3.139954
v 8.432729 -7.687063 -0.314856
v 7.151009 -7.374126 0.493883
v 5.869290 -7.061190 1.302621
v 1.668099 -6.035453 3.953487
v 0.600000 -5.774672 4.627436
v 0.600000 -6.161754 4.095787
v 0.600000 -6.863182 2.758467
v 0.600000 -7.063656 2.201693
v 0.600000 -7.215036 1.629617
v 0.600000 -7.341711 0.917589
v 0.600000 -7.389518 0.327757
v 0.600000 -7.388255 -0.395449
v 0.600000 -7.058619 -2.202131
v 0.600000 -6.735949 -3.063821
v 0.967170 -6.963083 -3.985769
v 1.605726 -7.358099 -5.589157
v 2.068679 -7.644485 -6.751613
v 2.260246 -7.762990 -7.232629
v 8.526131 -7.908420 -1.554063
v 7.038761 -7.914397 -2.753833
v 6.227612 -7.911654 -3.311570
v 4.872133 -7.956711 -5.265687
v 3.876232 -7.944064 -6.293774
v 2.828002 -7.943978 -7.636279
v 3.259436 -7.902874 -6.672750
v 2.798370 -7.821548 -6.637592
v 4.681724 -7.852517 -3.617251
v 7.303145 -7.677918 -0.838904
v 2.446170 -7.779340 -6.979152
v 3.652531 -7.866152 -5.411641
v 8.059096 -7.729212 -0.745611
v 6.565559 -7.398621 0.245405
v 5.020038 -7.732924 -1.993604
v 3.167072 -7.816804 -5.652988
v 3.692177 -7.798785 -3.798295
v 4.746030 -7.784075 -2.622662
v 6.776670 -7.752243 -1.530786
v 5.934978 -7.543511 -0.539557
v 2.983279 -7.745104 -4.554824
v 2.272293 -7.652683 -6.107487
v 2.716093 -7.738545 -5.655317
v 3.418423 -7.785948 -4.085658
v 5.334547 -7.489672 -0.364061
v 5.373542 -7.668736 -1.407357
v 5.650530 -7.183671 0.894276
v 4.478724 -7.576421 -0.909648
v 2.381988 -7.641860 -5.185598
v 2.712797 6.723517 -7.228707
f 1040 542 652
f 444 542 1040
f 1036 880 738
f 784 880 936
f 738 880 784
f 542 935 652
f 936 768 784
f 936 445 768
f 936 446 445
f 936 447 446
f 653 447 936
f 789 447 653
f 653 773 789
f 653 448 773
f 653 449 448
f 613 449 653
f 613 474 449
f 959 474 613
f 959 464 474
f 959 463 464
f 959 554 463
f 959 553 554
f 552 553 959
f 935 552 959
f 551 552 935
f 550 551 935
f 550 548 549
f 550 547 548
f 550 546 547
f 550 545 546
f 550 544 545
f 550 543 544
f 550 542 543
f 542 550 935
f 768 738 784
f 768 739 738
f 768 740 739
f 445 740 768
f 446 740 445
f 446 741 740
f 447 741 446
f 447 742 741
f 447 743 742
f 789 743 447
f 773 743 789
f 773 744 743
f 448 744 773
f 448 473 744
f 449 473 448
f 449 777 473
f 474 777 449
f 474 475 777
f 464 475 474
f 464 476 475
f 463 476 464
f 463 761 476
f 554 761 463
f 553 761 554
f 553 440 761
f 552 440 553
f 552 778 440
f 551 778 552
f 551 762 778
f 550 762 551
f 550 441 762
f 549 441 550
f 549 779 441
f 548 779 549
f 548 763 779
f 547 763 548
f 547 442 763
f 546 442 547
f 546 443 442
f 545 443 546
f 544 443 545
f 544 783 443
f 543 783 544
f 543 767 783
f 542 767 543
f 542 444 767
f 444 539 497
f 444 459 539
f 1040 459 444
f 762 444 497
f 762 767 444
f 762 783 767
f 762 443 783
f 762 442 443
f 763 442 762
f 762 779 763
f 762 441 779
f 778 762 497
f 497 440 778
f 538 440 497
f 761 440 538
f 538 476 761
f 538 475 476
f 514 475 538
f 514 777 475
f 473 777 514
f 565 473 514
f 565 744 473
f 565 743 744
f 450 743 565
f 742 743 450
f 450 741 742
f 1036 741 450
f 1036 740 741
f 739 740 1036
f 1036 738 739
f 737 736 871
f 733 730 472
f 732 733 472
f 729 732 470
f 870 729 871
f 732 870 733
f 870 871 736
f 733 870 872
f 872 736 875
f 735 872 875
f 737 875 736
f 874 877 735
f 874 878 879
f 879 877 874
f 730 733 873
f 736 872 870
f 876 875 737
f 874 875 876
f 877 734 735
f 451 734 877
f 958 936 878
f 729 870 732
f 654 871 729
f 654 729 731
f 934 937 731
f 729 934 731
f 729 960 934
f 470 960 729
f 614 960 470
f 732 614 470
f 472 614 732
f 1035 472 730
f 614 472 1035
f 731 937 654
f 1035 730 451
f 871 654 612
f 873 733 872
f 451 730 873
f 735 873 872
f 734 873 735
f 451 873 734
f 871 958 737
f 871 612 958
f 735 875 874
f 451 877 452
f 879 452 877
f 879 1036 452
f 1036 879 880
f 880 879 878
f 876 878 874
f 737 878 876
f 958 878 737
f 880 878 936
f 910 881 882
f 465 630 904
f 904 906 467
f 904 466 906
f 630 466 904
f 466 903 906
f 466 434 903
f 434 631 903
f 631 916 903
f 617 622 915
f 468 632 907
f 632 912 907
f 907 912 436
f 436 682 911
f 902 628 462
f 462 510 908
f 628 510 462
f 901 884 908
f 901 909 884
f 510 901 908
f 884 909 883
f 909 882 883
f 909 910 882
f 510 620 901
f 885 487 905
f 912 682 436
f 628 664 510
f 664 619 510
f 510 619 620
f 664 690 619
f 682 692 686
f 435 686 664
f 692 715 686
f 715 691 686
f 686 691 690
f 690 722 681
f 691 722 690
f 716 715 692
f 723 727 715
f 433 627 617
f 537 500 714
f 495 528 506
f 724 627 433
f 724 471 627
f 537 714 713
f 471 914 622
f 471 713 914
f 721 717 632
f 515 723 536
f 529 540 515
f 618 685 623
f 618 688 685
f 689 688 618
f 694 688 689
f 508 532 504
f 626 631 434
f 626 683 631
f 684 683 626
f 684 696 683
f 519 508 528
f 495 724 693
f 533 537 506
f 693 724 433
f 506 537 718
f 538 500 537
f 497 511 538
f 718 471 724
f 718 713 471
f 718 537 713
f 500 717 721
f 511 717 500
f 511 536 717
f 507 536 511
f 529 503 540
f 523 503 529
f 713 621 914
f 721 632 500
f 717 912 632
f 536 687 717
f 536 723 687
f 503 496 540
f 623 685 630
f 688 695 685
f 694 695 688
f 694 719 695
f 725 719 694
f 725 432 719
f 532 498 432
f 532 508 498
f 726 693 696
f 726 495 693
f 519 528 495
f 533 528 514
f 533 506 528
f 538 533 514
f 506 724 495
f 538 511 500
f 507 497 529
f 627 622 617
f 627 471 622
f 529 515 536
f 539 503 523
f 502 503 539
f 1034 625 905
f 689 625 1034
f 689 438 720
f 1106 504 499
f 1106 499 728
f 438 728 720
f 1106 728 438
f 438 689 1034
f 1034 905 487
f 927 487 885
f 694 689 720
f 618 625 689
f 624 625 618
f 624 905 625
f 616 905 624
f 616 885 905
f 882 638 883
f 882 921 638
f 881 1048 921
f 881 1049 1048
f 882 881 921
f 910 1049 881
f 468 913 500
f 435 902 682
f 628 902 435
f 1049 910 629
f 664 628 435
f 469 620 619
f 469 629 620
f 1050 629 469
f 1049 629 1050
f 682 912 687
f 686 435 682
f 469 619 690
f 716 682 687
f 692 682 716
f 690 664 686
f 681 469 690
f 1050 469 681
f 1050 681 722
f 715 716 723
f 727 691 715
f 722 691 727
f 540 727 723
f 541 722 727
f 1051 722 541
f 1050 722 1051
f 496 727 540
f 541 727 496
f 1051 496 502
f 1051 541 496
f 714 913 621
f 714 500 913
f 632 468 500
f 717 687 912
f 723 716 687
f 515 540 723
f 503 502 496
f 1051 502 459
f 714 621 713
f 459 502 539
f 507 529 536
f 497 523 529
f 539 523 497
f 497 507 511
f 724 506 718
f 533 538 537
f 683 617 631
f 683 433 617
f 696 433 683
f 696 693 433
f 508 514 528
f 695 696 684
f 695 726 696
f 719 495 726
f 498 495 719
f 498 519 495
f 498 508 519
f 565 514 508
f 685 626 630
f 685 684 626
f 685 695 684
f 719 726 695
f 432 498 719
f 504 565 508
f 630 465 623
f 626 466 630
f 434 466 626
f 617 916 631
f 617 915 916
f 902 911 682
f 629 901 620
f 629 909 901
f 910 909 629
f 638 884 883
f 922 884 638
f 922 908 884
f 922 462 908
f 639 462 922
f 639 902 462
f 639 911 902
f 923 911 639
f 923 436 911
f 923 907 436
f 640 907 923
f 924 907 640
f 924 468 907
f 641 468 924
f 641 913 468
f 641 621 913
f 925 621 641
f 925 914 621
f 642 914 925
f 642 622 914
f 642 915 622
f 926 915 642
f 926 916 915
f 926 903 916
f 926 906 903
f 643 906 926
f 643 467 906
f 927 467 643
f 927 885 467
f 885 904 467
f 616 904 885
f 616 465 904
f 616 623 465
f 624 623 616
f 624 618 623
f 720 725 694
f 728 725 720
f 728 432 725
f 728 532 432
f 499 532 728
f 504 532 499
f 504 450 565
f 1106 450 504
f 568 567 566
f 568 566 512
f 567 534 566
f 535 518 501
f 501 534 567
f 518 513 534
f 518 535 513
f 518 534 501
f 561 513 535
f 1042 561 535
f 563 564 516
f 938 564 563
f 563 1041 1040
f 1043 1042 535
f 501 1043 535
f 512 637 568
f 512 920 637
f 512 957 920
f 566 957 512
f 534 957 566
f 611 957 534
f 611 513 655
f 611 534 513
f 1044 568 637
f 1043 568 1044
f 1043 567 568
f 501 567 1043
f 564 561 1042
f 938 561 564
f 938 513 561
f 655 513 938
f 516 1042 1041
f 516 564 1042
f 563 516 1041
f 938 563 652
f 652 563 1040
f 526 598 527
f 560 584 520
f 584 524 520
f 521 572 558
f 558 556 569
f 569 556 562
f 600 575 525
f 575 594 525
f 597 578 572
f 578 596 572
f 572 596 558
f 558 596 556
f 595 598 574
f 598 573 571
f 573 592 571
f 593 579 599
f 579 557 599
f 524 588 590
f 590 578 597
f 575 580 594
f 591 580 575
f 580 595 594
f 577 573 595
f 589 593 592
f 581 587 578
f 573 589 592
f 577 589 573
f 585 590 588
f 590 582 581
f 601 948 577
f 602 945 589
f 939 656 935
f 955 939 935
f 610 959 609
f 609 653 658
f 559 569 562
f 559 558 569
f 509 572 521
f 509 597 572
f 505 526 530
f 505 525 526
f 531 525 505
f 531 600 525
f 588 949 585
f 604 663 947
f 604 603 663
f 489 603 604
f 585 950 603
f 585 949 950
f 584 607 944
f 586 607 584
f 945 661 583
f 655 662 946
f 603 951 663
f 603 950 951
f 662 952 605
f 950 659 951
f 950 943 659
f 586 942 955
f 657 952 662
f 606 940 660
f 952 940 606
f 952 953 940
f 657 953 952
f 607 609 608
f 610 609 607
f 940 954 660
f 600 957 575
f 531 920 957
f 636 920 531
f 505 636 531
f 919 636 505
f 530 919 505
f 527 919 530
f 527 635 919
f 522 635 527
f 570 635 522
f 918 635 570
f 599 918 570
f 555 918 599
f 555 634 918
f 557 634 555
f 560 634 557
f 917 634 560
f 520 917 560
f 597 917 520
f 509 917 597
f 509 633 917
f 521 633 509
f 521 490 633
f 517 490 521
f 559 490 517
f 651 490 559
f 562 651 559
f 937 651 562
f 934 651 937
f 527 530 526
f 560 557 586
f 558 517 521
f 558 559 517
f 600 531 957
f 522 527 598
f 524 597 520
f 574 525 594
f 574 526 525
f 598 526 574
f 571 522 598
f 571 570 522
f 557 555 599
f 937 562 556
f 592 570 571
f 593 570 592
f 599 570 593
f 590 597 524
f 576 556 596
f 654 556 576
f 937 556 654
f 575 957 611
f 595 574 594
f 573 598 595
f 587 596 578
f 587 576 596
f 591 575 611
f 577 595 580
f 583 557 579
f 586 557 583
f 590 581 578
f 654 576 587
f 580 591 611
f 601 577 580
f 589 577 948
f 945 593 589
f 579 593 945
f 584 560 586
f 949 524 584
f 588 524 949
f 489 590 585
f 489 582 590
f 947 581 582
f 947 587 581
f 612 587 947
f 654 587 612
f 946 611 655
f 946 580 611
f 601 580 946
f 602 589 948
f 583 579 945
f 586 583 942
f 604 582 489
f 947 582 604
f 662 601 946
f 605 601 662
f 605 948 601
f 602 948 605
f 944 949 584
f 603 489 585
f 657 662 655
f 606 602 605
f 945 602 606
f 942 583 661
f 607 586 955
f 943 949 944
f 950 949 943
f 612 947 663
f 657 655 938
f 606 605 952
f 660 945 606
f 661 945 660
f 958 663 951
f 612 663 958
f 610 607 955
f 607 943 944
f 608 943 607
f 659 943 608
f 941 951 659
f 958 951 941
f 954 661 660
f 954 942 661
f 955 942 954
f 658 659 608
f 941 659 658
f 940 953 656
f 956 941 658
f 936 958 956
f 936 956 653
f 653 956 658
f 653 609 613
f 613 609 959
f 959 610 955
f 959 955 935
f 941 956 958
f 608 609 658
f 954 939 955
f 940 939 954
f 656 939 940
f 657 656 953
f 938 656 657
f 652 656 938
f 935 656 652
f 1045 458 1017
f 1045 1048 458
f 1044 1048 1045
f 637 1048 1044
f 920 1048 637
f 920 921 1048
f 636 921 920
f 919 921 636
f 919 638 921
f 919 922 638
f 635 922 919
f 635 639 922
f 918 639 635
f 918 923 639
f 634 923 918
f 634 640 923
f 634 924 640
f 917 924 634
f 917 641 924
f 633 641 917
f 633 925 641
f 490 925 633
f 490 642 925
f 651 642 490
f 651 926 642
f 934 926 651
f 934 643 926
f 960 643 934
f 960 927 643
f 614 927 960
f 614 487 927
f 1035 487 614
f 1035 488 487
f 1039 488 1035
f 712 488 1039
f 712 485 488
f 867 485 712
f 867 439 485
f 1072 439 867
f 1072 483 439
f 1071 483 1072
f 1071 482 483
f 1071 481 482
f 454 481 1071
f 454 480 481
f 1070 480 454
f 1070 479 480
f 1069 479 1070
f 1068 479 1069
f 1068 478 479
f 1067 478 1068
f 1067 477 478
f 1066 477 1067
f 1066 430 477
f 1065 430 1066
f 1065 615 430
f 455 615 1065
f 455 962 615
f 1064 962 455
f 1064 961 962
f 1063 961 1064
f 458 1063 1017
f 961 1063 458
f 457 855 1047
f 670 855 457
f 1056 710 644
f 891 710 1037
f 644 710 891
f 457 1058 670
f 888 887 667
f 668 887 888
f 889 887 668
f 669 887 889
f 890 887 669
f 670 887 890
f 1058 887 670
f 666 887 1058
f 1058 886 666
f 1058 665 886
f 1058 491 665
f 1058 649 491
f 1058 650 649
f 1057 650 1058
f 647 650 1057
f 931 647 1057
f 1057 930 931
f 1057 646 930
f 1057 929 646
f 1056 929 1057
f 648 929 1056
f 645 648 1056
f 1056 928 645
f 1056 644 928
f 670 697 855
f 890 697 670
f 669 697 890
f 669 492 697
f 669 679 492
f 889 679 669
f 889 900 679
f 668 900 889
f 668 899 900
f 888 899 668
f 888 678 899
f 888 898 678
f 667 898 888
f 667 680 898
f 667 677 680
f 887 677 667
f 887 897 677
f 666 897 887
f 886 897 666
f 886 676 897
f 665 676 886
f 665 896 676
f 491 896 665
f 649 896 491
f 649 675 896
f 650 675 649
f 650 895 675
f 647 895 650
f 647 674 895
f 931 674 647
f 931 894 674
f 930 894 931
f 930 673 894
f 646 673 930
f 646 893 673
f 929 893 646
f 929 672 893
f 929 892 672
f 648 892 929
f 645 892 648
f 645 671 892
f 928 671 645
f 928 891 671
f 644 891 928
f 855 1052 1047
f 1031 1052 855
f 1037 671 891
f 892 671 1037
f 1037 672 892
f 486 672 1037
f 486 893 672
f 486 673 893
f 484 673 486
f 484 894 673
f 484 674 894
f 484 895 674
f 484 675 895
f 1033 675 484
f 1033 896 675
f 1033 676 896
f 1033 897 676
f 1032 897 1033
f 1032 677 897
f 898 680 677
f 678 898 677
f 677 899 678
f 677 900 899
f 677 679 900
f 677 492 679
f 677 697 492
f 677 855 697
f 855 1032 1031
f 855 677 1032
f 856 859 700
f 699 858 859
f 703 860 701
f 703 862 860
f 862 705 861
f 861 705 702
f 704 862 703
f 863 864 704
f 704 864 862
f 709 710 708
f 864 865 706
f 863 707 864
f 1038 866 863
f 865 708 706
f 707 709 865
f 857 712 1039
f 699 712 857
f 856 712 699
f 700 712 856
f 700 867 712
f 698 867 700
f 857 1039 1038
f 1073 867 698
f 1072 867 1073
f 859 856 699
f 701 857 1038
f 701 699 857
f 858 699 701
f 698 700 859
f 1073 698 859
f 701 1038 703
f 861 859 858
f 702 859 861
f 1074 859 702
f 1073 859 1074
f 860 858 701
f 861 858 860
f 862 861 860
f 1074 702 705
f 863 703 1038
f 863 704 703
f 706 862 864
f 706 705 862
f 1075 705 706
f 1074 705 1075
f 707 863 866
f 865 864 707
f 1075 706 1076
f 708 865 709
f 453 706 708
f 1076 706 453
f 453 708 1056
f 1056 708 710
f 710 709 866
f 707 866 709
f 1037 866 1038
f 710 866 1037
f 764 843 932
f 847 843 764
f 851 754 823
f 823 754 846
f 754 848 846
f 847 852 752
f 752 852 845
f 852 755 845
f 757 849 838
f 849 759 844
f 759 753 844
f 756 848 754
f 764 781 850
f 850 781 758
f 758 780 853
f 853 780 852
f 760 770 750
f 790 759 849
f 766 782 755
f 782 770 760
f 759 774 753
f 753 431 749
f 774 431 753
f 749 791 851
f 431 791 749
f 791 854 851
f 823 793 851
f 747 793 823
f 793 749 851
f 868 747 841
f 775 747 868
f 775 793 747
f 843 847 752
f 793 775 749
f 749 844 753
f 775 844 749
f 775 868 844
f 868 746 844
f 868 801 746
f 844 746 849
f 801 818 746
f 746 838 849
f 746 836 838
f 818 836 746
f 838 771 748
f 838 836 771
f 836 795 771
f 771 795 751
f 795 820 751
f 820 796 751
f 820 804 796
f 796 834 788
f 788 822 787
f 788 834 822
f 834 835 822
f 822 840 770
f 840 750 770
f 835 840 822
f 835 819 840
f 750 794 760
f 750 869 794
f 840 869 750
f 819 869 840
f 819 711 869
f 794 837 845
f 869 745 794
f 869 711 745
f 745 837 794
f 711 797 745
f 837 745 494
f 837 494 845
f 745 839 494
f 745 797 839
f 797 821 839
f 821 932 839
f 795 804 820
f 835 800 819
f 832 817 711
f 817 802 821
f 825 1032 813
f 829 831 807
f 1033 807 804
f 807 831 804
f 792 824 826
f 824 810 826
f 933 812 810
f 1031 808 493
f 493 808 809
f 827 1031 825
f 1033 804 805
f 807 484 806
f 933 810 824
f 932 963 764
f 494 752 845
f 494 843 752
f 494 932 843
f 839 932 494
f 833 842 814
f 798 841 833
f 801 868 798
f 815 836 818
f 795 836 815
f 832 711 819
f 817 797 711
f 821 797 817
f 834 831 829
f 804 831 834
f 815 805 795
f 798 803 801
f 830 803 798
f 814 830 833
f 800 806 816
f 829 806 800
f 803 813 801
f 830 808 803
f 1053 1052 493
f 846 1054 842
f 758 853 850
f 852 847 853
f 782 760 755
f 757 748 776
f 772 764 488
f 781 764 772
f 755 852 766
f 776 748 771
f 854 754 851
f 756 754 854
f 785 848 756
f 765 848 785
f 1055 848 765
f 786 758 781
f 780 758 786
f 769 852 780
f 769 766 852
f 790 849 757
f 765 458 1055
f 765 961 458
f 785 961 765
f 785 962 961
f 854 962 785
f 615 962 854
f 791 615 854
f 431 615 791
f 430 615 431
f 774 430 431
f 477 430 774
f 790 477 774
f 757 477 790
f 478 477 757
f 776 478 757
f 771 478 776
f 479 478 771
f 751 479 771
f 788 751 796
f 788 479 751
f 480 479 788
f 787 480 788
f 770 480 787
f 481 480 770
f 782 481 770
f 766 481 782
f 766 482 481
f 769 482 766
f 769 483 482
f 780 483 769
f 780 439 483
f 786 439 780
f 485 439 786
f 772 485 786
f 854 785 756
f 790 774 759
f 781 772 786
f 485 772 488
f 823 842 747
f 846 842 823
f 848 1054 846
f 848 1055 1054
f 748 757 838
f 822 770 787
f 794 755 760
f 845 755 794
f 847 850 853
f 764 850 847
f 488 764 963
f 842 1054 814
f 833 747 842
f 841 747 833
f 798 868 841
f 834 796 804
f 437 932 821
f 963 932 437
f 814 1054 1053
f 830 798 833
f 815 818 801
f 805 804 795
f 829 835 834
f 800 835 829
f 816 819 800
f 816 832 819
f 437 821 802
f 811 814 1053
f 811 830 814
f 813 815 801
f 828 817 832
f 828 802 817
f 828 799 802
f 437 802 799
f 808 830 811
f 813 803 827
f 805 815 813
f 792 832 816
f 826 832 792
f 826 828 832
f 826 799 828
f 812 799 826
f 461 799 812
f 437 799 461
f 933 461 812
f 486 461 933
f 486 933 484
f 484 933 824
f 824 792 806
f 807 806 829
f 484 824 806
f 484 807 1033
f 1032 1033 805
f 1031 1032 825
f 1031 827 808
f 826 810 812
f 816 806 792
f 813 1032 805
f 827 825 813
f 808 827 803
f 811 809 808
f 1053 809 811
f 493 809 1053
f 1031 493 1052
f 1028 1029 1030
f 1025 1029 1028
f 1025 1024 1029
f 1023 1024 1025
f 1026 1023 1025
f 1022 1023 1026
f 1022 1021 1023
f 1020 1019 1022
f 1018 460 1019
f 1018 1019 1020
f 1018 1059 457
f 1022 1061 1060
f 1021 1022 1019
f 1026 1061 1022
f 1026 456 1061
f 1025 456 1026
f 1017 1063 1030
f 1029 1017 1030
f 1027 1017 1029
f 1045 1017 1027
f 1027 1046 1045
f 1024 1046 1027
f 1046 1024 1023
f 1027 1029 1024
f 1062 1030 1063
f 1062 1028 1030
f 456 1028 1062
f 1025 1028 456
f 1021 1046 1023
f 1021 460 1046
f 1020 1060 1059
f 1020 1022 1060
f 460 1021 1019
f 460 1018 1047
f 1059 1018 1020
f 1047 1018 457
f 995 1002 1012
f 995 1000 1002
f 986 995 1014
f 986 990 995
f 1002 1000 1008
f 995 990 1000
f 986 977 990
f 981 996 1003
f 978 986 996
f 978 977 986
f 989 1003 993
f 989 981 1003
f 968 978 981
f 1103 978 965
f 965 1090 1103
f 1104 967 976
f 1101 967 1104
f 1086 1090 1096
f 969 993 1009
f 976 968 989
f 1101 1090 965
f 1089 1090 1086
f 1080 1100 1088
f 1080 1093 1100
f 1079 1078 1094
f 1095 1102 1091
f 984 1004 1005
f 984 983 1004
f 1091 1102 975
f 1077 1089 1086
f 983 994 1004
f 979 982 997
f 1104 976 969
f 999 992 998
f 999 972 992
f 973 971 972
f 1098 1105 973
f 1098 1084 1099
f 1084 1082 1083
f 998 1006 1016
f 980 970 985
f 980 971 970
f 971 1105 964
f 964 974 970
f 1079 1094 1085
f 1093 987 1100
f 1085 987 1093
f 966 987 983
f 1085 1094 979
f 1078 1091 1094
f 1094 975 979
f 1094 1091 975
f 1006 1010 1016
f 1077 1086 1095
f 1007 998 1016
f 972 980 992
f 972 971 980
f 973 1105 971
f 1098 1099 1105
f 992 1001 1006
f 992 985 1001
f 971 964 970
f 970 974 991
f 964 966 974
f 964 1097 966
f 1058 1085 1080
f 1058 1078 1079
f 1095 1078 1077
f 966 983 984
f 1078 1095 1091
f 1087 453 1082
f 1076 453 1087
f 1087 1075 1076
f 1098 1075 1087
f 1098 1074 1075
f 973 1074 1098
f 988 1074 973
f 999 1074 988
f 1073 1074 999
f 1015 1073 999
f 1015 1072 1073
f 1007 1015 999
f 1071 1072 1015
f 1104 975 1102
f 994 983 987
f 1010 1001 1005
f 454 1016 1010
f 1071 1016 454
f 1005 454 1010
f 1005 1070 454
f 1004 1070 1005
f 994 1069 1070
f 997 1069 994
f 982 1068 1069
f 1009 1068 982
f 1003 1067 993
f 1003 1066 1067
f 1014 1066 1003
f 1065 1066 1014
f 1013 1065 1014
f 986 1014 996
f 1012 1065 1013
f 455 1065 1012
f 995 1013 1014
f 1012 1013 995
f 1002 455 1012
f 1008 455 1002
f 1064 1008 1011
f 455 1008 1064
f 1011 1063 1064
f 1062 1063 1011
f 1008 1062 1011
f 1000 1062 1008
f 1000 456 1062
f 990 456 1000
f 977 456 990
f 977 1061 456
f 996 1014 1003
f 981 978 996
f 1103 1061 977
f 1009 1067 1068
f 1009 993 1067
f 1103 977 978
f 965 978 968
f 1090 1061 1103
f 1060 1061 1090
f 997 982 1069
f 976 989 993
f 968 981 989
f 967 965 968
f 1004 994 1070
f 969 1009 982
f 969 976 993
f 976 967 968
f 1101 965 967
f 1059 1060 1090
f 1096 1090 1101
f 1089 1059 1090
f 979 997 994
f 1100 987 966
f 1085 979 987
f 1058 1077 1078
f 1080 1085 1093
f 1058 1079 1085
f 991 984 1005
f 1092 1100 1097
f 1092 1088 1100
f 1081 1080 1088
f 1057 1058 1080
f 1001 991 1005
f 974 984 991
f 974 966 984
f 1097 1100 966
f 1081 1057 1080
f 985 991 1001
f 985 970 991
f 1105 1097 964
f 1099 1097 1105
f 1099 1092 1097
f 1083 1088 1092
f 1083 1081 1088
f 1083 1057 1081
f 998 992 1006
f 992 980 985
f 1084 1092 1099
f 1084 1083 1092
f 1082 1057 1083
f 987 979 994
f 975 982 979
f 975 969 982
f 975 1104 969
f 1102 1101 1104
f 1102 1096 1101
f 1095 1096 1102
f 1095 1086 1096
f 1077 1059 1089
f 1077 457 1059
f 1077 1058 457
f 1010 1006 1001
f 1071 1007 1016
f 1015 1007 1071
f 999 998 1007
f 988 972 999
f 973 972 988
f 1087 1084 1098
f 1087 1082 1084
f 1082 1056 1057
f 453 1056 1082
f 1052 1040 1047
f 459 1040 1052
f 1048 1055 458
f 1052 1051 459
f 1053 1051 1052
f 1053 1050 1051
f 1054 1050 1053
f 1054 1049 1050
f 1055 1049 1054
f 1049 1055 1048
f 1046 1044 1045
f 1043 1044 1046
f 1046 1042 1043
f 460 1042 1046
f 460 1041 1042
f 1047 1041 460
f 1040 1041 1047
f 1037 450 486
f 1036 450 1037
f 1037 452 1036
f 1038 452 1037
f 1038 451 452
f 1038 1035 451
f 1039 1035 1038
f 963 487 488
f 963 1034 487
f 437 1034 963
f 437 438 1034
f 437 1106 438
f 461 1106 437
f 486 1106 461
f 450 1106 486
g Body4

v 0.600000 -4.725368 5.671914
v 0.600000 -7.043484 2.211117
v 0.600000 -6.704984 -2.976092
v 0.600000 -3.184664 -6.641018
v 0.600000 0.818160 -7.326443
v 0.600000 4.962321 -5.410134
v 0.600000 7.285197 -1.167324
v 0.600000 6.413491 3.612853
v 0.600000 2.926592 6.758543
v 0.000000 -0.712022 7.940159
v 0.000000 5.005932 6.153557
v 0.000000 7.741477 1.823029
v 0.000000 6.565911 -4.513186
v -0.000000 1.840161 -7.737534
v -0.000000 -3.438399 -7.167969
v -0.000000 -7.505885 -2.657889
v -0.000000 -7.731451 1.909683
v -0.000000 -6.919854 3.974883
v 0.000000 -2.796631 7.479974
v 0.000000 -5.051706 6.128184
v -0.000000 -7.978694 -0.243701
v -0.000000 -6.068151 -5.136483
v -0.000000 -0.746922 -7.940768
v -0.000000 4.652057 -6.432368
v 0.000000 7.778293 -1.503317
v 0.000000 6.919854 3.974883
v 0.000000 1.972670 7.696348
v 0.600000 -0.283042 7.332792
v 0.600000 4.955879 5.452052
v 0.600000 7.284988 1.065758
v 0.600000 6.647155 -3.187708
v 0.600000 3.025192 -6.734087
v 0.600000 -1.234308 -7.278474
v 0.600000 -5.105124 -5.318258
v 0.600000 -7.361619 0.100631
v 0.600000 -6.074451 4.169731
v 0.600000 -2.991280 6.740473
usemtl Paint_-_Metal_Flake_(Gold)
f 1109 1108 1141
f 1109 1142 1108
f 1140 1142 1109
f 1140 1107 1142
f 1110 1107 1140
f 1110 1143 1107
f 1139 1143 1110
f 1139 1134 1143
f 1111 1134 1139
f 1113 1112 1137
f 1136 1112 1113
f 1114 1112 1136
f 1135 1112 1114
f 1115 1112 1135
f 1115 1138 1112
f 1115 1111 1138
f 1134 1111 1115
f 1131 1132 1118
f 1119 1132 1131
f 1119 1117 1132
f 1130 1117 1119
f 1130 1133 1117
f 1120 1133 1130
f 1120 1116 1133
f 1123 1122 1127
f 1124 1122 1123
f 1124 1128 1122
f 1126 1128 1124
f 1126 1121 1128
f 1125 1121 1126
f 1125 1129 1121
f 1116 1129 1125
f 1116 1120 1129
f 1134 1133 1116
f 1115 1133 1134
f 1115 1117 1133
f 1135 1117 1115
f 1114 1117 1135
f 1114 1132 1117
f 1114 1118 1132
f 1136 1118 1114
f 1136 1131 1118
f 1113 1131 1136
f 1137 1131 1113
f 1137 1119 1131
f 1112 1119 1137
f 1112 1130 1119
f 1138 1130 1112
f 1138 1120 1130
f 1111 1120 1138
f 1111 1129 1120
f 1139 1129 1111
f 1139 1121 1129
f 1110 1121 1139
f 1140 1121 1110
f 1140 1128 1121
f 1109 1128 1140
f 1109 1122 1128
f 1141 1122 1109
f 1141 1127 1122
f 1141 1123 1127
f 1108 1123 1141
f 1108 1124 1123
f 1142 1124 1108
f 1142 1126 1124
f 1107 1126 1142
f 1143 1126 1107
f 1143 1125 1126
f 1134 1125 1143
f 1134 1116 1125
# 1143 vertices
# 0 texture params
# 0 normals
# 2278 facets

# 3 groups
