# WaveFront *.obj file (generated by Autodesk ATF)

mtllib hip_motor_link_dexter_collision.mtl

g Body1

v -2.320228 3.500000 4.408000
v 0.165039 3.500000 -4.969884
v 2.159951 3.500000 4.485185
v -0.669495 3.500000 4.924989
v 3.892097 7.000000 -3.103844
v 1.239303 7.000000 -4.802876
v -1.985934 7.000000 -4.562661
v -4.279924 7.000000 -2.524750
v -4.927249 7.000000 0.670230
v -3.892097 7.000000 3.103844
v -1.239303 7.000000 4.802876
v 1.985934 7.000000 4.562661
v 4.279924 7.000000 2.524750
v 4.927249 7.000000 -0.670230
v 0.304918 -3.500000 4.978195
v -2.159951 -3.500000 4.485185
v -0.304918 -3.500000 -4.978195
v 2.159951 -3.500000 -4.485185
v 4.703690 -7.000000 1.566008
v 2.758878 -7.000000 4.151958
v -0.507718 -7.000000 4.961616
v -3.356951 -7.000000 3.680326
v -4.927249 -7.000000 0.670230
v -3.781183 -7.000000 -3.242927
v -1.239303 -7.000000 -4.802876
v 1.985934 -7.000000 -4.562661
v 4.358167 -7.000000 -2.394445
v 3.000000 0.305172 -4.978180
v 3.000000 0.834312 4.910992
v 3.000000 -1.596176 4.715347
v 1.993367 -1.993367 -4.572231
v 3.637905 -3.637905 -3.410965
v 4.604891 -4.604891 -1.841187
v 4.885180 -4.885180 0.994988
v 4.973596 -4.973596 -0.343994
v 2.891619 -2.891619 -4.065835
v 0.800452 -0.800452 -4.926750
v 3.000000 -0.381624 4.978180
v 3.000000 1.596176 -4.715347
v 3.000000 -1.326197 -4.786509
v 3.356951 -7.000000 -3.680326
v 0.507718 -7.000000 -4.961616
v -2.758878 -7.000000 -4.151958
v -4.703690 -7.000000 -1.566008
v -4.358167 -7.000000 2.394445
v -1.985934 -7.000000 4.562661
v 1.239303 -7.000000 4.802876
v 3.781183 -7.000000 3.242927
v 4.927249 -7.000000 -0.670230
v 0.910697 -3.500000 -4.903676
v -1.900680 -3.500000 -4.588777
v -0.910697 -3.500000 4.903676
v 2.014554 -3.500000 4.532208
v 4.876397 7.000000 1.034849
v 3.304570 7.000000 3.736015
v 0.507718 7.000000 4.961616
v -2.758878 7.000000 4.151958
v -4.570400 7.000000 2.003348
v -4.876397 7.000000 -1.034849
v -3.304570 7.000000 -3.736015
v -0.507718 7.000000 -4.961616
v 2.758878 7.000000 -4.151958
v 4.570400 7.000000 -2.003348
v 0.910697 3.500000 4.903676
v 2.164500 3.500000 -4.464005
v -1.978880 3.500000 -4.545381
v 4.386508 -4.386508 2.361903
v 2.010103 -2.010103 4.552997
v 2.397993 2.397993 4.372652
v 4.397941 4.397941 2.350879
v 4.973596 4.973596 0.343994
v 4.351066 4.351066 -2.429803
v 2.010103 2.010103 -4.552997
v 6.000000 -3.914618 -3.024925
v 6.000000 -0.845220 -4.900265
v 6.000000 2.096160 -4.528584
v 6.000000 4.312922 -2.499772
v 6.000000 4.804144 1.304789
v 6.000000 2.498093 4.309692
v 6.000000 -0.846384 4.904795
v 6.000000 -3.311308 3.704764
v 6.000000 -4.860637 1.006096
v -3.000000 0.076198 4.984411
v -3.000000 -1.521024 -4.729302
v -6.000000 -2.518348 4.294205
v -6.000000 0.846384 4.904795
v -6.000000 3.135645 3.851490
v -6.000000 4.877185 0.956806
v -6.000000 3.912634 -3.024100
v -6.000000 0.845220 -4.900265
v -6.000000 -2.096160 -4.528584
v -6.000000 -4.302330 -2.522966
v -6.000000 -4.917344 0.629930
v -2.082009 2.082009 -4.535973
v -4.386508 4.386508 -2.361903
v -4.853143 4.853143 1.101865
v -3.637905 3.637905 3.410965
v -1.425464 1.425464 4.764832
v -1.217961 -1.217961 4.816415
v -3.419123 -3.419123 3.630463
v -4.817712 -4.817712 1.317326
v -4.885180 -4.885180 -0.994988
v -3.385801 -3.385801 -3.651037
v -2.580864 -2.580864 -4.276077
v 0.000000 0.000000 -5.000000
v -1.425464 -1.425464 -4.764832
v -4.397941 -4.397941 -2.350879
v -4.973596 -4.973596 0.343994
v -4.351066 -4.351066 2.429803
v -2.754323 -2.754323 4.156271
v 0.000000 0.000000 5.000000
v -2.686469 2.686469 4.199746
v -4.392071 4.392071 2.365049
v -4.910924 4.910924 -0.747488
v -3.134067 3.134067 -3.864539
v -0.989430 0.989430 -4.895581
v -6.000000 -4.804144 -1.304789
v -6.000000 -3.135645 -3.851490
v -6.000000 -0.846384 -4.904795
v -6.000000 2.518348 -4.294205
v -6.000000 4.860637 -1.006096
v -6.000000 4.302330 2.522966
v -6.000000 2.096160 4.528584
v -6.000000 -0.845220 4.900265
v -6.000000 -3.912634 3.024100
v -3.000000 -1.543752 4.718305
v -3.000000 1.596176 4.715347
v 6.000000 -4.312922 2.499772
v 6.000000 -2.096160 4.528584
v 6.000000 0.845220 4.900265
v 6.000000 3.914618 3.024925
v 6.000000 4.917344 -0.629930
v 6.000000 3.311308 -3.704764
v 6.000000 0.846384 -4.904795
v 6.000000 -2.498093 -4.309692
v 6.000000 -4.877185 -0.956806
v 3.167076 3.167076 -3.844794
v 4.885180 4.885180 -0.994988
v 4.817712 4.817712 1.317326
v 3.385801 3.385801 3.651037
v 1.107789 1.107789 4.863413
v 3.169720 -3.169720 3.842017
usemtl Paint_-_Metal_Flake_(Aqua)
f 7 6 61
f 7 62 6
f 60 62 7
f 60 5 62
f 8 5 60
f 8 63 5
f 59 63 8
f 59 14 63
f 9 14 59
f 12 11 56
f 12 57 11
f 55 57 12
f 55 10 57
f 13 10 55
f 13 58 10
f 54 58 13
f 54 9 58
f 14 9 54
f 46 47 21
f 46 20 47
f 22 20 46
f 22 48 20
f 45 48 22
f 45 19 48
f 23 19 45
f 23 49 19
f 26 25 42
f 26 43 25
f 41 43 26
f 41 24 43
f 27 24 41
f 27 44 24
f 49 44 27
f 49 23 44
f 11 57 1
f 4 11 1
f 56 11 4
f 57 97 112
f 10 97 57
f 10 113 97
f 58 113 10
f 58 96 113
f 9 96 58
f 9 114 96
f 59 114 9
f 8 114 59
f 8 95 114
f 8 115 95
f 60 115 8
f 65 6 62
f 2 6 65
f 2 61 6
f 66 61 2
f 66 7 61
f 66 60 7
f 115 60 66
f 66 94 115
f 66 116 94
f 2 116 66
f 2 105 116
f 65 105 2
f 65 73 105
f 65 137 73
f 62 137 65
f 5 137 62
f 5 72 137
f 63 72 5
f 63 138 72
f 14 138 63
f 14 71 138
f 54 71 14
f 54 139 71
f 13 139 54
f 13 70 139
f 13 140 70
f 55 140 13
f 3 141 69
f 64 141 3
f 64 111 141
f 55 69 140
f 55 3 69
f 12 3 55
f 12 64 3
f 56 64 12
f 4 64 56
f 4 111 64
f 112 1 57
f 98 1 112
f 98 4 1
f 111 4 98
f 16 99 110
f 52 99 16
f 52 111 99
f 15 111 52
f 53 111 15
f 53 68 111
f 53 142 68
f 18 31 36
f 50 31 18
f 50 37 31
f 105 37 50
f 17 105 50
f 106 51 104
f 106 17 51
f 105 17 106
f 35 19 49
f 34 19 35
f 67 19 34
f 67 48 19
f 142 48 67
f 48 142 20
f 53 20 142
f 53 47 20
f 15 47 53
f 15 21 47
f 52 21 15
f 52 46 21
f 16 46 52
f 22 16 110
f 46 16 22
f 110 100 22
f 100 45 22
f 109 45 100
f 101 45 109
f 101 23 45
f 108 23 101
f 108 44 23
f 102 44 108
f 107 44 102
f 107 24 44
f 103 24 107
f 24 103 43
f 104 43 103
f 51 43 104
f 51 25 43
f 17 25 51
f 17 42 25
f 50 42 17
f 50 26 42
f 18 26 50
f 41 18 36
f 26 18 41
f 41 36 32
f 32 27 41
f 33 27 32
f 33 49 27
f 35 49 33
f 76 75 134
f 76 135 75
f 133 135 76
f 133 74 135
f 77 74 133
f 77 136 74
f 132 136 77
f 129 130 80
f 129 79 130
f 81 79 129
f 81 131 79
f 128 131 81
f 128 78 131
f 82 78 128
f 82 132 78
f 136 132 82
f 123 124 86
f 123 85 124
f 87 85 123
f 87 125 85
f 122 125 87
f 88 125 122
f 88 93 125
f 91 90 119
f 91 120 90
f 118 120 91
f 118 89 120
f 92 89 118
f 117 89 92
f 117 121 89
f 93 121 117
f 93 88 121
f 30 111 68
f 38 111 30
f 29 111 38
f 29 141 111
f 39 105 73
f 28 105 39
f 37 40 31
f 37 28 40
f 105 28 37
f 35 136 82
f 33 136 35
f 33 74 136
f 32 74 33
f 36 74 32
f 74 36 135
f 36 31 135
f 40 135 31
f 40 75 135
f 28 75 40
f 28 134 75
f 39 134 28
f 39 76 134
f 76 39 73
f 73 137 133
f 76 73 133
f 137 77 133
f 72 77 137
f 72 132 77
f 138 132 72
f 71 132 138
f 71 78 132
f 139 78 71
f 70 78 139
f 70 131 78
f 140 131 70
f 79 140 69
f 131 140 79
f 141 79 69
f 141 130 79
f 29 130 141
f 38 130 29
f 38 80 130
f 30 80 38
f 30 129 80
f 129 30 68
f 68 142 81
f 129 68 81
f 142 128 81
f 67 128 142
f 67 82 128
f 34 82 67
f 35 82 34
f 90 120 116
f 105 90 116
f 119 90 105
f 89 115 120
f 89 95 115
f 121 95 89
f 121 114 95
f 88 114 121
f 88 96 114
f 88 113 96
f 122 113 88
f 122 97 113
f 87 97 122
f 87 112 97
f 112 87 123
f 126 124 85
f 83 124 126
f 83 86 124
f 127 86 83
f 127 123 86
f 112 123 127
f 127 98 112
f 83 98 127
f 83 111 98
f 83 99 111
f 126 99 83
f 126 110 99
f 85 110 126
f 85 100 110
f 125 100 85
f 125 109 100
f 93 109 125
f 93 101 109
f 93 108 101
f 93 102 108
f 117 102 93
f 117 107 102
f 92 107 117
f 92 103 107
f 118 103 92
f 104 103 118
f 104 118 91
f 84 106 104
f 84 105 106
f 91 84 104
f 119 84 91
f 119 105 84
f 94 120 115
f 94 116 120
# 142 vertices
# 0 texture params
# 0 normals
# 280 facets

# 1 groups
