# WaveFront *.obj file (generated by Autodesk ATF)

mtllib hip_bracket_dexter_collision.mtl

g Body2

v -2.321538 -6.447033 -6.723428
v -0.600000 -5.230506 -4.500200
v -1.813257 -6.281143 -6.992167
v -3.104056 -7.000000 -7.733986
v -2.643380 -7.000000 -8.194662
v -12.181770 -8.000000 -12.539832
v -12.867606 -8.000000 -12.068454
v -13.517380 -8.000000 -11.428470
v -14.005544 -8.000000 -10.754873
v -14.385698 -8.000000 -9.955125
v -14.617861 -8.000000 -9.156290
v -14.705773 -8.000000 -8.275163
v -14.615350 -8.000000 -7.260806
v -14.246177 -8.000000 -6.114348
v -13.735818 -8.000000 -5.233116
v -13.249982 -8.000000 -4.659129
v -6.256855 7.000000 -8.056855
v -5.661483 7.000000 -8.454019
v -4.943533 7.000000 -8.911772
v -5.682276 6.678829 -9.142088
v -6.256854 6.429029 -9.321222
v -6.256854 6.811524 -8.542384
v -6.097299 6.814490 -8.626389
v -5.864546 6.694941 -9.012819
v -6.256855 5.645736 -10.432736
v -4.350998 7.000000 -8.925122
v -3.806009 7.000000 -8.807820
v -3.068190 7.000000 -8.468328
v -4.818875 6.169112 -9.653837
v -4.594797 6.858767 -9.061000
v -4.121058 6.800860 -9.010310
v -4.184576 6.448299 -9.236380
v -3.638497 6.750544 -8.851145
v -5.656079 5.766481 -10.219123
v -5.046482 6.695553 -9.227178
v -5.687838 6.218979 -9.745567
v -5.023544 6.332334 -9.570932
v -13.249982 7.000000 -4.659129
v -13.891404 7.000000 -5.452178
v -14.275432 7.000000 -6.160061
v -14.517033 7.000000 -6.815038
v -14.674596 7.000000 -7.631869
v -14.700859 7.000000 -8.516981
v -14.581733 7.000000 -9.313462
v -14.318152 7.000000 -10.130659
v -13.789153 7.000000 -11.062345
v -13.090689 7.000000 -11.874765
v -12.546168 7.000000 -12.311644
v -11.846713 7.000000 -12.710814
v -10.935876 7.000000 -13.028866
v -9.741360 7.000000 -13.186564
v -8.700632 7.000000 -13.084892
v -7.877953 7.000000 -12.838956
v -7.109561 7.000000 -12.455735
v -6.178914 7.000000 -11.730196
v -13.249982 8.000000 -4.659129
v -13.899591 8.000000 -5.478872
v -14.422494 8.000000 -6.535114
v -14.643767 8.000000 -7.392174
v -14.708373 8.000000 -8.248394
v -14.585867 8.000000 -9.259347
v -14.191018 8.000000 -10.397219
v -13.551877 8.000000 -11.387459
v -12.799411 8.000000 -12.112222
v -11.821495 8.000000 -12.720163
v -10.886140 8.000000 -13.052164
v -10.197281 8.000000 -13.165482
v -9.392092 8.000000 -13.181071
v -8.441133 8.000000 -13.015757
v -7.485506 8.000000 -12.663890
v -6.752902 8.000000 -12.216033
v -6.178914 8.000000 -11.730196
v -1.692761 -6.135990 -6.631042
v -0.600000 -5.230506 -5.234673
v -12.866040 -7.000000 -12.066746
v -12.274658 -7.000000 -12.485759
v -11.575217 -7.000000 -12.827492
v -10.886140 -7.000000 -13.052164
v -10.197281 -7.000000 -13.165482
v -9.392092 -7.000000 -13.181071
v -8.441133 -7.000000 -13.015757
v -7.252264 -7.000000 -12.530782
v -6.178914 -7.000000 -11.730196
v -5.902212 -5.785715 -10.245528
v -5.874422 -6.260729 -9.679031
v -5.600500 -5.745147 -10.228877
v -4.868278 -6.588723 -9.322298
v -4.937971 -6.827061 -9.092688
v -4.830344 -6.260266 -9.584580
v -4.257799 -6.654696 -9.142589
v -3.660552 -6.738131 -8.867126
v -4.370059 -7.000000 -8.927840
v -3.102947 -7.000000 -8.485794
v -5.851685 -6.782681 -8.840527
v -6.256854 -6.429029 -9.321222
v -6.256855 -7.000000 -8.056855
v -4.943533 -7.000000 -8.911772
v -6.256854 -5.230506 -10.891528
v -4.845341 -5.921715 -9.838064
v -3.193870 -6.730429 -8.605513
v -3.123294 6.764989 -8.552839
v -4.817111 5.935539 -9.816995
v -6.256854 5.230506 -10.891528
v -2.643380 -8.000000 -8.194662
v -9.714447 -8.000000 -1.123595
v -9.714447 -7.000000 -1.123595
v -6.256854 -7.000000 -4.581188
v -6.256854 7.000000 -4.581188
v -9.714447 7.000000 -1.123595
v -9.714447 8.000000 -1.123595
v -2.643380 8.000000 -8.194662
v -0.959931 5.517358 -5.447526
v -2.146961 6.511402 -7.270602
v -1.637654 6.129078 -6.737792
v -0.600000 5.230506 -5.234673
v -0.600000 5.230506 -4.867437
v -0.600000 5.230506 -4.500200
v -1.734650 6.032308 -5.965509
v -3.104056 7.000000 -7.733986
v -2.643380 7.000000 -8.194662
v -2.586864 -6.799549 -7.651329
v -0.936040 -5.500078 -5.430625
v -1.664228 -6.036629 -6.180392
v -2.184910 6.428889 -6.889712
v -5.500544 -7.000000 -8.561704
v -6.256854 -6.786878 -8.594762
v -5.682276 -6.678829 -9.142088
v -6.052336 -6.925957 -8.390368
v -3.806009 -7.000000 -8.807820
v -6.256855 -5.645736 -10.432736
v -13.536397 -7.000000 -11.409452
v -14.005544 -7.000000 -10.754873
v -14.326408 -7.000000 -10.105062
v -14.596027 -7.000000 -9.261606
v -14.705773 -7.000000 -8.275163
v -14.643767 -7.000000 -7.392174
v -14.389645 -7.000000 -6.461474
v -13.859507 -7.000000 -5.408867
v -13.249982 -7.000000 -4.659129
v -6.178914 -8.000000 -11.730196
v -6.752902 -8.000000 -12.216033
v -7.781726 -8.000000 -12.790964
v -8.700632 -8.000000 -13.084892
v -9.392092 -8.000000 -13.181071
v -10.515783 -8.000000 -13.115970
v -11.450591 -8.000000 -12.877396
v -1.226014 -5.672880 -5.308647
usemtl Paint_-_Metal_Flake_(Aqua)
f 110 38 109
f 56 38 110
f 120 72 111
f 55 72 120
f 56 110 111
f 64 66 65
f 63 66 64
f 62 66 63
f 61 66 62
f 61 67 66
f 60 67 61
f 60 68 67
f 59 68 60
f 58 68 59
f 57 68 58
f 56 68 57
f 111 68 56
f 69 68 111
f 70 69 111
f 111 71 70
f 111 72 71
f 57 38 56
f 57 39 38
f 57 40 39
f 58 40 57
f 58 41 40
f 59 41 58
f 59 42 41
f 60 42 59
f 60 43 42
f 61 43 60
f 61 44 43
f 61 45 44
f 62 45 61
f 62 46 45
f 63 46 62
f 63 47 46
f 64 47 63
f 64 48 47
f 64 49 48
f 65 49 64
f 65 50 49
f 66 50 65
f 67 50 66
f 67 51 50
f 68 51 67
f 68 52 51
f 69 52 68
f 69 53 52
f 70 53 69
f 70 54 53
f 71 54 70
f 71 55 54
f 72 55 71
f 28 55 120
f 28 54 55
f 27 54 28
f 26 54 27
f 19 54 26
f 18 54 19
f 17 54 18
f 53 54 17
f 17 52 53
f 17 51 52
f 17 50 51
f 17 49 50
f 17 48 49
f 17 47 48
f 46 47 17
f 45 46 17
f 17 44 45
f 17 43 44
f 17 42 43
f 17 41 42
f 17 40 41
f 17 39 40
f 17 38 39
f 108 109 38
f 108 38 17
f 35 37 36
f 37 34 36
f 33 32 31
f 31 37 30
f 35 36 20
f 29 34 37
f 102 34 29
f 36 21 20
f 36 25 21
f 34 25 36
f 34 103 25
f 103 34 102
f 35 20 19
f 102 29 32
f 30 37 35
f 31 29 37
f 31 32 29
f 33 102 32
f 33 101 102
f 120 101 28
f 33 28 101
f 33 27 28
f 31 27 33
f 26 27 31
f 30 26 31
f 30 19 26
f 35 19 30
f 96 107 108
f 130 103 98
f 130 25 103
f 95 25 130
f 95 21 25
f 126 21 95
f 96 21 126
f 108 21 96
f 22 21 108
f 17 22 108
f 21 22 23
f 21 24 20
f 24 19 20
f 24 18 19
f 21 23 24
f 23 18 24
f 23 17 18
f 22 17 23
f 106 16 105
f 139 16 106
f 104 83 5
f 140 83 104
f 141 140 104
f 104 142 141
f 104 143 142
f 104 144 143
f 6 146 145
f 7 6 145
f 8 7 145
f 145 9 8
f 145 10 9
f 145 11 10
f 145 12 11
f 144 12 145
f 13 12 144
f 144 14 13
f 144 15 14
f 16 15 144
f 16 104 105
f 16 144 104
f 141 83 140
f 141 82 83
f 142 82 141
f 142 81 82
f 143 81 142
f 143 80 81
f 144 80 143
f 144 79 80
f 145 79 144
f 145 78 79
f 146 78 145
f 146 77 78
f 6 77 146
f 6 76 77
f 7 76 6
f 7 75 76
f 8 75 7
f 8 131 75
f 8 132 131
f 9 132 8
f 9 133 132
f 10 133 9
f 10 134 133
f 11 134 10
f 11 135 134
f 12 135 11
f 12 136 135
f 13 136 12
f 13 137 136
f 14 137 13
f 14 138 137
f 15 138 14
f 15 139 138
f 16 139 15
f 83 93 5
f 82 93 83
f 82 129 93
f 82 92 129
f 97 92 82
f 82 125 97
f 82 96 125
f 81 96 82
f 80 96 81
f 79 96 80
f 78 96 79
f 77 96 78
f 76 96 77
f 75 96 76
f 131 96 75
f 132 96 131
f 133 96 132
f 134 96 133
f 135 96 134
f 136 96 135
f 137 96 136
f 138 96 137
f 139 96 138
f 139 107 96
f 106 107 139
f 87 86 89
f 88 85 87
f 127 85 88
f 86 87 84
f 87 85 84
f 89 90 87
f 89 99 90
f 90 99 91
f 100 91 99
f 99 89 86
f 98 99 86
f 84 98 86
f 130 98 84
f 85 130 84
f 85 95 130
f 127 95 85
f 97 127 88
f 92 97 88
f 87 92 88
f 90 92 87
f 92 90 129
f 129 90 91
f 129 91 93
f 100 93 91
f 5 93 100
f 94 95 127
f 94 126 95
f 128 96 126
f 125 96 128
f 125 128 94
f 126 94 128
f 94 97 125
f 127 97 94
f 5 101 120
f 100 101 5
f 100 102 101
f 99 102 100
f 99 103 102
f 98 103 99
f 110 109 108
f 119 120 111
f 108 111 110
f 108 119 111
f 107 119 108
f 4 119 107
f 105 107 106
f 104 107 105
f 104 4 107
f 5 4 104
f 3 115 74
f 3 114 115
f 5 114 3
f 120 114 5
f 74 117 2
f 74 116 117
f 115 116 74
f 4 118 119
f 1 118 4
f 147 118 1
f 147 117 118
f 2 117 147
f 112 114 113
f 112 113 124
f 112 117 116
f 112 118 117
f 115 112 116
f 114 112 115
f 124 118 112
f 118 124 119
f 120 113 114
f 120 124 113
f 119 124 120
f 123 73 122
f 123 121 73
f 1 4 121
f 123 147 1
f 122 147 123
f 122 2 147
f 74 2 122
f 122 3 74
f 73 3 122
f 123 1 121
f 3 73 121
f 121 5 3
f 5 121 4
g Body3

v -0.600000 -4.057893 -6.146731
v -0.000000 6.444405 4.694881
v -0.000000 1.888580 7.710883
v -0.000000 4.739276 6.389581
v -0.000000 7.751539 1.696545
v 0.000000 7.881843 -1.203670
v 0.000000 7.044918 -3.639506
v 0.000000 5.299809 -5.974362
v 0.000000 3.450513 -7.176363
v 0.000000 1.220741 -7.881551
v 0.000000 -0.782423 -7.944735
v 0.000000 -2.641207 -7.533593
v 0.000000 -4.682229 -6.427719
v 0.000000 -6.811957 -4.074002
v 0.000000 -7.881843 -1.203670
v 0.000000 -7.777666 1.633470
v -0.000000 -6.904367 3.999453
v -0.000000 -5.552991 5.721587
v -0.000000 -3.428500 7.169776
v -0.000000 -1.120855 7.904093
v -0.600000 0.032829 7.383104
v -0.600000 -2.122979 7.041840
v -0.600000 -4.216963 6.060407
v -0.600000 -5.670763 4.701947
v -0.600000 -6.988828 2.329036
v -0.600000 -7.372926 0.196341
v -0.600000 -7.179960 -1.720317
v -0.600000 -5.973680 -4.256561
v -0.600000 -1.506553 -7.199425
v -0.600000 0.687058 -7.351140
v -0.600000 2.984645 -6.734817
v -0.600000 5.178709 -5.202606
v -0.600000 6.978141 -2.325289
v -0.600000 7.356949 0.294008
v -0.600000 6.930473 2.516570
v -0.600000 5.466815 4.901319
v -0.600000 2.717237 6.813207
usemtl Paint_-_Metal_Flake_(Gold)
f 179 181 180
f 179 182 181
f 179 183 182
f 179 184 183
f 178 184 179
f 177 184 178
f 177 168 184
f 172 174 173
f 172 175 174
f 171 175 172
f 171 148 175
f 170 148 171
f 169 148 170
f 169 176 148
f 168 176 169
f 168 177 176
f 161 163 162
f 161 164 163
f 161 165 164
f 160 165 161
f 160 166 165
f 159 166 160
f 159 167 166
f 158 167 159
f 152 154 153
f 149 154 152
f 149 155 154
f 151 155 149
f 151 156 155
f 150 156 151
f 150 157 156
f 150 158 157
f 167 158 150
f 169 167 168
f 169 166 167
f 170 166 169
f 170 165 166
f 171 165 170
f 171 164 165
f 172 164 171
f 172 163 164
f 173 163 172
f 173 162 163
f 174 162 173
f 174 161 162
f 175 161 174
f 175 160 161
f 148 160 175
f 148 159 160
f 176 159 148
f 176 158 159
f 177 158 176
f 177 157 158
f 178 157 177
f 178 156 157
f 179 156 178
f 179 155 156
f 179 154 155
f 180 154 179
f 180 153 154
f 181 153 180
f 181 152 153
f 182 152 181
f 182 149 152
f 183 149 182
f 183 151 149
f 184 151 183
f 184 150 151
f 168 150 184
f 167 150 168
g Body4

v -0.600000 5.694309 4.720946
v -0.600000 -7.217476 1.628099
v -0.600001 2.571638 6.937531
v -0.600000 -7.083801 2.135982
v -0.786105 -1.481333 -8.520333
v -0.600000 -7.396206 -0.196961
v -0.600000 6.054482 4.252754
v -0.600000 -3.642405 -6.440151
v -0.600000 -6.914436 2.633104
v -3.339215 -6.887663 0.815608
v -7.791502 -5.609278 0.108555
v -0.772324 1.195518 -8.601244
v -0.600000 6.340906 3.812554
v -0.600000 7.349644 0.851705
v -0.880768 -0.889111 -9.652107
v -9.039778 2.223605 1.781350
v -8.875193 1.555652 2.079126
v -8.965706 -3.121713 1.442035
v -4.408634 -5.136530 2.855125
v -1.162480 -3.528810 -8.265390
v -1.470792 4.109420 -8.384730
v -1.470124 -4.234713 -8.205987
v -6.631307 -2.178012 3.301133
v -5.797060 -4.887583 2.201722
v -6.334056 -4.449774 2.239664
v -7.822455 -1.655529 2.710178
v -5.488257 -0.712446 4.327773
v -9.666371 1.833582 1.513917
v -7.704946 -7.009648 -2.529384
v -6.878586 -6.923230 -1.706221
v -1.737246 4.494618 -8.450925
v -0.838734 -0.581618 -9.476829
v -1.307104 -3.841259 -8.309903
v -4.696304 7.469044 -3.794341
v -1.617083 -6.590938 -4.620402
v -2.645814 -6.991332 -4.718819
v -1.592939 -5.035712 -7.312680
v -1.073699 3.062181 -8.497933
v -2.008346 7.063915 -3.746564
v -1.574833 6.821985 -3.996399
v -0.763294 -3.063314 -7.340307
v -0.728198 -2.353594 -7.641647
v -0.600000 -5.065376 -5.390219
v -0.802715 -1.994257 -8.262007
v -1.423507 4.388197 -7.876899
v -1.623078 4.930954 -7.530109
v -2.665530 6.593924 -5.926920
v -0.886442 2.357832 -8.416199
v -0.821556 1.599853 -8.678242
v -5.131236 7.456470 -4.653460
v -1.195765 2.886014 -9.196055
v -1.077253 2.368832 -9.341008
v -1.221170 -2.891777 -9.284346
v -9.720087 -0.451688 1.721505
v -10.914599 1.474250 0.828192
v -6.639895 7.059384 -1.957772
v -1.894956 5.980406 -6.244929
v -5.720519 4.332869 2.725191
v -5.808964 -7.140302 -1.668998
v -2.211118 -5.580315 -7.495829
v -1.790474 -5.268416 -7.318607
v -1.273798 3.203614 -9.057083
v -8.096955 -6.509580 -1.545990
v -3.373878 -6.652757 -6.654569
v -1.409589 -4.879414 -7.179860
v -0.943193 -1.186146 -9.894849
v -1.249308 -4.596519 -7.210269
v -1.464088 -5.340643 -6.623221
v -1.875810 -7.352243 -2.187174
v -1.307354 -2.961131 -9.530688
v -2.585684 -6.853928 -5.097466
v -1.040997 -5.507712 -5.670767
v -0.797158 -4.339783 -6.458118
v -1.722985 6.265773 -5.452025
v -3.218649 7.287560 -4.052604
v -3.014569 6.800404 -5.770357
v -1.468098 -4.597911 -7.689116
v -4.462642 4.619680 3.298504
v -4.573000 -2.426780 4.503222
v -3.454759 6.637450 1.325376
v -1.504783 5.647560 -6.221800
v -1.997162 -4.607358 -8.840880
v -1.591007 5.831419 -6.053043
v -8.270504 5.518620 -0.089863
v -7.240557 6.071537 -0.186907
v -1.917501 -5.001827 -8.000456
v -2.543911 -5.808597 -7.576240
v -1.360894 -3.328711 -9.185406
v -0.942975 3.185610 -7.893629
v -1.050232 3.498793 -7.942520
v -0.887842 2.868697 -7.972170
v -0.817143 -2.706488 -7.815287
v -2.883338 -5.874593 -7.954704
v -0.669376 -1.627439 -7.664979
v -10.074350 4.423503 -0.130314
v -10.797154 2.360655 0.633425
v -8.205588 3.241265 1.858337
v -6.959143 -2.523040 2.972958
v -5.272228 0.424937 4.485801
v -1.115100 -6.185997 -4.763913
v -1.010985 -5.711601 -5.343891
v -1.331012 -7.037032 -3.087610
v -3.830192 -6.723057 -7.007850
v -1.334612 -6.740534 -3.923374
v -1.090556 2.667140 -9.034811
v -1.100448 -3.134729 -8.515955
v -3.056200 6.418340 -6.892841
v -1.382706 3.465365 -9.058562
v -7.183617 7.197081 -2.836651
v -1.427829 -3.933373 -8.521362
v -6.927606 -7.233805 -2.817050
v -5.107310 -7.380403 -2.374527
v -1.846230 -7.273881 0.496193
v -2.306714 -7.041997 1.089129
v -3.176144 -5.789848 2.907488
v -3.283304 -4.500016 4.152988
v -4.283637 -4.177720 3.758048
v -4.947220 -3.957699 3.488233
v -5.973952 -3.328529 3.217368
v -4.390759 -3.625114 4.051068
v -2.973767 -1.873010 5.675575
v -1.947991 1.415553 6.423234
v -4.505749 3.393598 4.109477
v -4.950757 3.998269 3.459074
v -5.962003 4.821762 2.158121
v -4.775269 5.640344 2.047591
v -1.709599 7.106034 1.291132
v -3.724844 7.289947 -0.879540
v -3.342639 7.400764 -1.386021
v -2.278191 7.427169 -1.302302
v -2.407814 7.398654 -2.323535
v -2.526614 7.195323 -3.780653
v -1.190124 6.591866 -4.086261
v -1.212753 6.186874 -4.902813
v -1.010310 5.703094 -5.353332
v -0.920494 5.071607 -5.986220
v -1.002611 4.461659 -6.813949
v -0.763015 3.633535 -6.934235
v -0.753939 -0.274417 -8.806889
v -0.600000 -2.165414 -7.067625
v -0.600000 -4.090073 -6.165547
v -0.762178 0.189663 -8.893667
v -0.970445 -3.433928 -7.750389
v -0.600000 -5.937498 -4.411191
v -0.600000 -4.517134 -5.859878
v -1.258853 3.609773 -8.465398
v -2.376863 6.038220 -6.836322
v -1.503494 4.685915 -7.645298
v -0.897566 2.656116 -8.200188
v -4.347199 7.334699 -4.967165
v -1.462936 3.818362 -8.786463
v -1.201950 3.276865 -8.705850
v -1.005540 -2.095487 -9.306594
v -10.642861 -1.290353 1.036728
v -7.456441 -1.007360 3.066889
v -6.580719 2.766598 3.109446
v -2.901956 6.294302 2.346017
v -4.171976 7.361281 -1.609967
v -5.748168 5.340526 1.766335
v -10.001169 -0.134000 1.561317
v -7.236615 -6.346087 -0.650973
v -5.490956 -6.642276 -0.065091
v -9.452787 0.897660 1.842918
v -3.658427 -7.025101 -5.750293
v -0.600000 -6.653856 -3.235562
v -0.600000 -6.866614 -2.755407
v -0.600000 -7.044776 -2.261370
v -0.600000 -7.187443 -1.755940
v -0.600000 -7.293898 -1.241662
v -0.600000 -7.363602 -0.721128
v -0.600000 -6.710234 3.116958
v -0.600000 -4.822607 5.611161
v -0.966602 1.638691 -9.585119
v -3.065363 -7.443678 -2.127352
v -3.991509 -7.455678 -2.612365
v -8.137055 -5.103757 0.471624
v -8.748453 -5.389524 -0.244484
v -0.718295 0.583115 -8.419592
v -5.307786 -7.314445 -2.096537
v -0.600000 -2.323800 7.024430
v -0.600000 2.073033 7.102478
v -0.600000 -6.472222 3.585109
v -0.600000 -2.816236 6.841891
v -0.600000 -4.412420 5.939126
v -2.753682 5.906051 -7.684569
v -2.312376 5.526128 -7.767379
v -7.529007 -6.790243 -1.795476
v -2.085911 -6.332442 -5.801028
v -3.570645 -7.449006 -2.812817
v -10.020393 -4.210744 0.077099
v -9.865393 -4.814493 -0.351706
v -0.895059 1.263515 -9.464564
v -5.578355 0.024066 4.307810
v -7.400856 -6.110928 -0.357205
v -0.600000 -1.241335 7.291884
v -0.600000 0.981758 7.331347
v -0.600000 1.563984 7.231640
v -0.600000 -5.253466 5.207071
v -0.600000 -6.201601 4.035196
v -0.600000 3.756132 6.374491
v -0.600000 5.208495 5.254925
v -0.600000 -3.811490 6.339167
v -7.788427 6.825603 -2.066101
v -4.832051 7.383889 -5.124438
v -7.055381 -7.082479 -2.322688
v -2.503172 5.754908 -7.620140
v -0.842622 0.412471 -9.577624
v -1.881542 -5.500109 -7.087507
v -2.120435 6.694646 -4.985399
v -10.021254 -2.402401 1.103162
v -10.033085 -3.903952 0.295132
v -0.988938 1.976207 -9.348301
v -1.910802 5.028236 -7.941764
v -5.291866 2.487793 4.030724
v -3.770036 2.063959 5.126152
v -0.600000 -1.819655 7.171577
v -0.600000 -0.328093 7.389509
v -0.600000 0.262590 7.394167
v -0.600000 -7.391545 0.328199
v -0.600000 -7.339774 0.916627
v -0.600000 -5.858272 4.515876
v -0.600000 3.116085 6.708390
v -0.600000 4.198856 6.091984
v -0.600000 4.771317 5.652169
v -0.600000 -3.294484 6.624880
v -1.744323 -4.246680 -8.866665
v -5.047423 -7.465385 -3.248679
v -8.787330 5.841676 -0.861128
v -5.051720 -5.343148 2.216289
v -1.275360 4.003634 -8.009749
v -0.973287 2.362522 -8.837836
v -4.553425 7.452116 -2.757694
v -6.496851 0.663993 3.706503
v -9.633533 -1.694723 1.571673
v -9.216247 -2.024944 1.736995
v -0.849568 0.886178 -9.394826
v -1.647719 4.306269 -8.536239
v -3.551660 6.966883 -5.847583
v -2.006262 5.738123 -6.866005
v -3.722005 6.428646 1.557878
v -1.724204 5.267571 -7.198569
v -0.600000 -5.480792 -4.970270
v -0.600000 -6.372742 -3.755083
v -0.600000 6.595383 3.353146
v -0.600000 3.640110 -6.436094
v -0.600000 7.391545 0.328199
v -0.600000 7.270711 1.370919
v -0.600000 7.392130 -0.262502
v -1.075007 2.025364 -9.763035
v -2.804102 -5.967117 -7.627341
v -1.254476 -3.171658 -9.032796
v -0.926066 -1.498706 -9.466266
v -8.747961 -1.244493 2.224915
v -6.308922 2.202179 3.495628
v -8.208844 -4.012069 1.378186
v -7.231362 -4.696727 1.453359
v -0.600000 6.534832 -3.469674
v -0.600000 6.764497 -2.997373
v -0.884839 1.939853 -8.783135
v -6.635886 1.112949 3.560225
v -4.858711 -7.071610 -0.772631
v -1.636691 4.021207 -8.957648
v -2.429116 -6.435958 -6.019706
v -0.600000 5.978049 -4.359540
v -0.600000 6.272242 -3.924493
v -5.976847 -7.493546 -4.355192
v -7.481408 -7.180044 -2.970221
v -1.847891 4.767096 -8.249605
v -2.663733 -6.651281 -5.771330
v -1.851614 -4.728765 -8.325289
v -0.600000 5.253488 -5.207049
v -0.600000 5.653738 -4.772621
v -2.015751 -6.052818 -6.282667
v -3.837159 -6.267020 1.765042
v -4.234720 -6.471282 1.132342
v -0.682843 1.051340 -7.980697
v -4.431092 0.977827 4.951894
v -5.647665 6.931393 -0.887951
v -0.600000 4.722260 -5.695869
v -5.572118 7.447512 -5.265924
v -5.991782 7.494161 -4.846260
v -0.600000 6.816629 2.876843
v -0.600000 -0.032746 -7.392420
v -0.600000 2.876065 -6.814744
v -0.976055 1.446720 -9.861987
v -0.916855 0.924094 -9.921187
v -0.600000 7.333370 -0.982013
v -1.997162 4.607358 -8.840880
v -1.236494 2.716149 -9.601547
v -3.914624 -6.926901 -6.416542
v -2.548749 -6.098216 -6.959243
v -1.673292 -4.489581 -8.314143
v -9.865121 0.194916 1.644677
v -7.664407 4.520011 1.330447
v -8.976479 3.790085 1.043163
v -9.292277 0.528585 1.981330
v -2.738791 5.706452 -8.099251
v -2.364942 5.206638 -8.473100
v -1.398747 -7.411751 -0.531105
v -1.785058 -5.881812 -6.262053
v -0.986227 -2.801876 -8.436838
v -1.583363 -5.677737 -6.298223
v -3.258567 7.078444 -5.085661
v -2.269313 5.288706 -8.149643
v -3.381257 6.367736 -7.456785
v -3.031990 6.035414 -7.806052
v -0.905200 -4.960197 -6.080923
v -4.769157 -7.346254 -5.341134
v -4.326302 -7.378460 -4.604959
v -9.810702 2.942491 1.000137
v -8.946825 -4.650990 0.393744
v -5.811675 -6.778266 -0.596624
v -4.345832 7.036484 -6.492210
v -3.872854 6.750260 -6.965188
v -1.235422 4.287163 -7.558606
v -1.066376 -3.884163 -7.580756
v -8.480031 -3.643892 1.450836
v -7.226315 -4.164723 1.891636
v -0.682006 1.623325 -7.749902
v -3.967392 -7.420417 -1.982512
v -5.010246 -4.710447 2.869604
v -4.701368 7.201819 -6.136674
v -0.600000 4.306316 -6.016502
v -6.366046 7.494161 -4.471996
v -5.064265 7.331275 -5.773777
v -8.011996 7.036484 -2.826046
v -0.600000 7.003531 2.386046
v -8.693944 6.601645 -2.144098
v -9.653555 5.661764 -1.184487
v -0.600000 2.135408 -7.081844
v -10.390393 4.556245 -0.447649
v -10.057251 5.110658 -0.780791
v -0.600000 7.245234 -1.499745
v -10.607161 4.124770 -0.230881
v -9.895096 -5.349061 -0.942945
v -1.384284 3.202425 -9.453758
v -5.152680 -7.480401 -3.982383
v -10.595105 0.913373 1.130666
v -8.421057 -4.872428 0.523922
v -6.877884 6.771333 -1.308279
v -6.622674 5.949503 0.406554
v -6.689167 6.207278 -0.042778
v -8.186978 4.106995 1.322871
v -11.342429 1.705492 0.504387
v -11.229099 2.278836 0.391057
v -3.110820 -7.427271 -2.712286
v -3.459499 -7.321476 -0.868442
v -3.500627 -7.170699 -4.959819
v -3.387285 6.670070 -6.622962
v -6.555383 7.436983 -3.792754
v -4.860607 7.475560 -3.593162
v -11.469833 0.462788 0.631791
v -11.414634 1.186146 0.576592
v -0.951970 -4.599972 -6.559599
v -0.760270 -0.996576 -8.617138
v -4.188418 -7.054263 -6.238977
v -4.352897 -7.258595 -5.446393
v -9.312217 -4.444838 0.339564
v -9.648292 2.686007 1.220525
v -9.061715 2.438078 1.689568
v -11.454988 -0.726568 0.616947
v -11.480563 -0.132343 0.642521
v -1.236720 4.718417 -7.031243
v -2.057114 6.350503 -5.725348
v -1.053225 -3.399802 -8.056859
v -4.588099 1.681596 4.720295
v -6.292465 -0.363125 3.855454
v -0.692523 2.099999 -7.592633
v -2.871695 -7.396002 -2.864777
v -2.224619 -7.411424 -0.842504
v -11.296652 -1.962139 0.458610
v -11.381772 -1.446720 0.543730
v -11.186036 -2.467782 0.347994
v -6.739378 7.456825 -4.098664
v -7.109917 7.382340 -3.728124
v -7.611083 7.218006 -3.226959
v -0.600000 7.155146 1.883227
v -8.358399 6.836093 -2.479643
v -9.016960 6.334308 -1.821081
v -9.325837 6.035414 -1.512205
v -0.600000 1.143437 -7.302938
v -10.501470 -4.343213 -0.336572
v -11.030488 -3.020974 0.192446
v -0.600000 7.120595 -2.009921
v -10.823334 3.613937 -0.014708
v -8.358399 -6.836093 -2.479643
v -9.619036 -5.706452 -1.219006
v -1.555959 3.672746 -9.282083
v -6.137267 -7.452228 -3.673063
v -7.055078 6.448755 -0.722727
v -8.854035 1.248952 2.157823
v -7.362200 6.957388 -2.136063
v -3.031417 7.356562 -3.388957
v -2.888967 6.209046 -7.186839
v -5.120701 7.445302 -2.977843
v -7.247492 -7.342896 -3.590550
v -7.656459 -7.201819 -3.181582
v -2.283881 -7.300822 -2.968849
v -3.977275 -7.029963 -0.030965
v -4.093564 -7.185080 -0.657990
v -4.485695 7.280875 -5.463845
v -8.166978 6.560786 -1.700003
v -6.583197 7.325692 -3.032853
v -6.319248 -7.494161 -4.518794
v -6.739378 -7.456825 -4.098664
v -0.803511 -3.938916 -6.810550
v -0.695082 -0.714974 -8.180492
v -2.946626 -6.425327 -6.731354
v -3.531064 -6.815341 -6.344082
v -7.424952 -5.333674 0.682308
v -7.410963 5.330546 0.693522
v -8.300291 5.036038 0.438977
v -5.618450 -7.456825 -5.219592
v -5.898245 -7.489489 -4.939797
v -1.345031 5.088576 -6.762639
v -2.134017 6.547089 -5.375079
v -0.868249 -1.482867 -9.088523
v -4.322925 5.870477 2.041154
v -8.722673 3.383538 1.453479
v -0.703953 2.590441 -7.394047
v -1.557606 -6.097899 -5.538548
v -1.149732 -6.439828 -4.349451
v -4.882008 -7.271076 -5.956033
v -5.247910 -7.382340 -5.590132
v -6.465497 -5.864502 0.635555
v -4.171379 -6.940612 -6.666662
v -4.522568 -7.123589 -6.315474
v -0.600000 -3.116113 -6.708377
v -0.600000 -0.981727 -7.331351
v -0.747481 3.174967 -7.205367
v -0.824140 4.173288 -6.665185
v -0.879723 4.725741 -6.273515
v -0.964079 5.397825 -5.679098
v -1.170623 5.990119 -5.169442
v -1.149428 6.427001 -4.373032
v -1.207759 7.035539 -2.958942
v -1.626988 7.270390 -2.454188
v -2.193823 7.420107 -1.732896
v -1.897211 7.407624 -0.609766
v -1.788856 7.338175 0.152067
v -3.397399 7.227048 -0.350847
v -3.123944 6.839356 1.088639
v -3.309847 5.181770 3.522313
v -2.455477 4.307846 4.830103
v -5.478665 3.684655 3.326883
v -4.185530 3.083213 4.469704
v -2.638664 -0.419034 6.120940
v -10.182371 -4.913908 -0.655671
v -10.777522 -3.729267 -0.060520
v -0.600000 6.960080 -2.509970
v -11.050473 2.961131 0.212431
v -8.011996 -7.036484 -2.826046
v -8.734334 -6.568217 -2.103708
v -9.287216 -6.072787 -1.550826
v -1.750666 4.124770 -9.087376
v -6.273225 -7.268568 -2.523143
v -1.083468 -2.313280 -9.442853
v -6.637039 6.649810 -0.858248
v -2.115493 5.160875 -8.101378
v -4.076470 7.187815 -5.513128
v -1.000262 -2.608732 -8.701323
v -1.886615 5.412903 -7.243548
v -3.184563 -6.188716 -7.653479
v -3.500706 -6.472008 -7.337335
v -1.677567 -7.153968 -3.042062
v -0.999071 -5.251372 -5.922207
v -4.704077 -1.465613 4.696733
v -6.942617 -2.822072 2.858460
v -6.103546 7.233311 -2.246237
v -9.174947 4.275360 0.564692
v -8.575166 6.030975 -1.007614
v -2.267154 -5.064215 -8.570888
v -2.565149 -5.484819 -8.272893
v -0.772245 -3.554186 -7.020899
v -0.822228 2.107434 -8.293220
v -1.080282 4.090737 -7.396543
v -1.510201 -3.803976 -8.941960
v -2.843095 -6.194877 -7.157582
v -2.113801 -5.123921 -8.163397
v -8.353304 5.694774 -0.371450
v -8.485213 5.288333 0.045230
v -1.467186 -3.439728 -9.370856
v -1.676233 -3.956459 -9.161809
v -1.500272 5.417964 -6.571539
v -4.649270 7.156303 -0.929417
v -2.592387 -5.552701 3.584801
v -0.930948 -2.239695 -8.751025
v -2.009213 6.930575 -4.192616
v -3.346995 6.140822 2.294537
v -1.009188 3.795621 -7.512114
v -1.118161 -4.252559 -7.314021
v -1.191004 -5.918272 -5.314402
v -1.015399 -1.705492 -9.822643
v -1.157961 -2.404557 -9.680081
v -2.880349 -6.099650 2.666683
v -1.770996 -6.849207 -4.156117
v -0.879741 0.198432 -9.958301
v -0.894595 -0.594802 -9.943447
v -1.282785 -5.117643 -6.608284
usemtl Paint_-_Metal_Flake_(Aqua)
f 451 295 389
f 397 452 643
f 414 205 229
f 330 274 336
f 335 414 330
f 205 414 335
f 421 229 205
f 215 229 421
f 390 370 488
f 243 295 640
f 645 641 337
f 204 290 549
f 204 435 290
f 271 475 434
f 475 271 457
f 447 475 372
f 447 662 475
f 541 493 492
f 530 493 553
f 521 530 373
f 389 214 213
f 445 214 389
f 214 445 194
f 496 346 371
f 596 595 665
f 595 596 343
f 310 595 343
f 268 665 595
f 310 268 595
f 525 310 602
f 525 268 310
f 525 664 268
f 388 234 577
f 388 334 585
f 259 388 577
f 334 388 259
f 421 205 446
f 205 335 446
f 335 330 292
f 292 336 246
f 330 336 292
f 336 235 246
f 415 396 236
f 396 443 357
f 357 233 376
f 443 233 357
f 233 420 376
f 435 217 272
f 204 217 435
f 662 447 592
f 359 411 521
f 554 359 358
f 346 345 247
f 459 345 346
f 459 458 345
f 345 458 378
f 211 344 238
f 211 551 344
f 551 377 344
f 344 377 477
f 664 269 412
f 664 525 269
f 412 526 655
f 412 269 526
f 525 526 269
f 602 526 525
f 602 673 526
f 259 585 334
f 259 644 585
f 259 487 644
f 259 316 487
f 487 316 223
f 332 229 215
f 274 222 336
f 274 273 222
f 273 275 222
f 222 415 289
f 222 333 415
f 275 333 222
f 289 415 236
f 333 232 415
f 415 443 396
f 232 443 415
f 232 659 443
f 659 233 443
f 196 460 420
f 420 362 391
f 460 362 420
f 362 326 391
f 199 601 436
f 539 189 199
f 276 225 485
f 410 206 476
f 661 206 410
f 294 206 661
f 217 206 294
f 500 675 217
f 257 500 590
f 675 500 257
f 249 221 454
f 252 486 245
f 252 256 486
f 256 252 650
f 676 605 484
f 606 372 284
f 593 220 348
f 255 680 286
f 582 493 541
f 296 531 363
f 298 194 583
f 458 609 378
f 679 609 458
f 303 652 202
f 377 480 477
f 377 283 480
f 527 478 654
f 242 478 527
f 628 262 242
f 312 313 342
f 313 312 624
f 621 259 577
f 621 316 259
f 331 390 369
f 331 423 390
f 241 423 331
f 241 267 423
f 267 618 319
f 614 275 273
f 604 333 275
f 333 604 232
f 232 552 659
f 604 552 232
f 659 503 233
f 552 503 659
f 503 196 233
f 189 601 199
f 539 278 189
f 485 225 327
f 225 658 327
f 206 261 476
f 217 261 206
f 217 251 261
f 675 251 217
f 675 257 538
f 454 245 270
f 221 245 454
f 249 683 221
f 249 491 683
f 270 245 663
f 221 683 252
f 491 650 683
f 245 486 392
f 256 285 486
f 392 484 244
f 486 484 392
f 484 605 457
f 676 284 605
f 453 593 248
f 453 255 593
f 219 680 453
f 219 288 680
f 220 649 348
f 582 553 493
f 411 504 573
f 359 504 411
f 554 504 359
f 531 297 363
f 296 297 531
f 640 584 243
f 583 194 445
f 679 299 609
f 609 299 195
f 652 263 282
f 263 207 282
f 263 305 207
f 207 651 210
f 207 305 651
f 283 417 480
f 480 347 522
f 417 444 480
f 283 461 417
f 347 575 522
f 480 575 347
f 480 444 575
f 417 461 444
f 522 201 239
f 575 201 522
f 242 309 478
f 242 262 309
f 309 627 596
f 627 343 596
f 342 313 579
f 313 416 579
f 313 314 416
f 623 314 313
f 416 314 535
f 314 218 535
f 314 622 218
f 218 315 234
f 622 315 218
f 267 265 423
f 267 319 265
f 423 370 390
f 423 646 370
f 423 668 646
f 265 668 423
f 265 617 668
f 319 617 265
f 370 646 488
f 646 668 425
f 646 643 488
f 646 425 643
f 668 599 425
f 668 320 599
f 617 320 668
f 425 397 643
f 425 230 397
f 425 599 230
f 397 230 452
f 599 332 230
f 599 547 332
f 599 616 547
f 320 616 599
f 230 332 452
f 614 604 275
f 323 681 326
f 323 682 681
f 216 682 323
f 436 677 250
f 337 677 436
f 641 677 337
f 678 677 641
f 237 678 641
f 237 645 485
f 237 641 645
f 254 678 237
f 290 237 485
f 290 485 549
f 435 237 290
f 272 237 435
f 272 254 237
f 272 666 254
f 661 666 272
f 549 327 500
f 500 204 549
f 294 272 217
f 661 272 294
f 667 666 661
f 217 204 500
f 410 667 661
f 410 266 667
f 454 266 410
f 251 675 538
f 454 410 476
f 663 656 266
f 657 656 663
f 244 657 663
f 271 657 244
f 277 657 271
f 434 277 271
f 662 277 434
f 662 434 475
f 647 277 662
f 592 647 662
f 592 648 647
f 248 648 592
f 219 447 372
f 453 592 447
f 248 592 453
f 287 648 248
f 453 447 219
f 593 287 248
f 255 453 680
f 474 287 593
f 610 287 474
f 541 611 532
f 607 611 541
f 492 607 541
f 492 608 607
f 493 608 492
f 493 597 608
f 530 597 493
f 598 597 530
f 521 598 530
f 521 588 598
f 359 373 358
f 521 373 359
f 450 588 521
f 450 521 411
f 411 588 450
f 411 589 588
f 573 589 411
f 363 580 296
f 295 363 640
f 295 580 363
f 581 580 295
f 451 581 295
f 389 295 243
f 389 581 451
f 636 581 389
f 389 243 445
f 213 636 389
f 214 636 213
f 214 570 636
f 496 214 194
f 371 214 496
f 371 570 214
f 346 570 371
f 346 637 570
f 247 637 346
f 345 637 247
f 345 638 637
f 378 638 345
f 609 638 378
f 609 571 638
f 195 571 609
f 413 299 670
f 413 195 299
f 594 195 413
f 519 571 195
f 360 195 594
f 361 195 360
f 361 519 195
f 203 594 413
f 360 594 203
f 360 519 361
f 632 519 360
f 208 360 203
f 375 632 360
f 505 208 300
f 440 360 208
f 440 523 360
f 523 375 360
f 501 633 395
f 501 567 633
f 202 567 501
f 652 567 202
f 652 557 567
f 394 557 652
f 419 394 282
f 419 557 394
f 555 557 419
f 210 418 419
f 418 555 419
f 556 555 418
f 437 418 210
f 339 210 651
f 437 210 339
f 437 338 418
f 338 556 418
f 545 556 338
f 339 338 437
f 339 545 338
f 238 339 211
f 238 545 339
f 344 545 238
f 344 546 545
f 477 546 344
f 477 536 546
f 480 536 477
f 522 536 480
f 522 537 536
f 239 537 522
f 550 461 306
f 550 444 461
f 550 575 444
f 528 537 239
f 201 575 550
f 212 239 201
f 212 528 239
f 438 550 399
f 438 201 550
f 212 201 438
f 529 528 212
f 200 212 438
f 280 212 200
f 280 529 212
f 398 438 399
f 398 200 438
f 543 200 544
f 543 280 200
f 569 635 603
f 479 569 603
f 518 569 479
f 654 479 527
f 654 518 479
f 279 518 654
f 515 518 279
f 309 279 654
f 309 654 478
f 309 515 279
f 596 515 309
f 596 516 515
f 665 516 596
f 268 516 665
f 268 513 516
f 664 513 268
f 412 513 664
f 412 564 513
f 655 564 412
f 526 564 655
f 563 564 526
f 424 673 341
f 424 526 673
f 574 563 526
f 574 526 424
f 586 563 574
f 512 563 586
f 264 574 424
f 642 574 264
f 642 586 574
f 524 586 642
f 387 586 524
f 387 512 586
f 562 512 387
f 626 642 264
f 462 642 626
f 462 524 642
f 587 560 293
f 559 560 587
f 534 559 587
f 534 587 342
f 558 559 534
f 579 534 342
f 416 534 579
f 416 558 534
f 508 558 416
f 535 508 416
f 465 508 535
f 218 465 535
f 234 465 218
f 234 464 465
f 388 464 234
f 388 509 464
f 585 509 388
f 585 506 509
f 644 506 585
f 644 497 506
f 487 497 644
f 672 223 620
f 672 487 223
f 422 487 672
f 422 497 487
f 260 422 672
f 498 497 422
f 369 481 490
f 390 481 369
f 390 482 481
f 488 482 390
f 643 482 488
f 643 472 482
f 452 472 643
f 215 472 452
f 421 472 215
f 639 472 421
f 446 639 421
f 572 639 446
f 335 572 446
f 292 572 335
f 520 572 292
f 246 520 292
f 235 520 246
f 235 473 520
f 289 473 235
f 236 473 289
f 236 433 473
f 396 433 236
f 396 469 433
f 357 469 396
f 376 469 357
f 376 470 469
f 420 470 376
f 420 681 470
f 391 681 420
f 215 452 332
f 222 235 336
f 289 235 222
f 420 233 196
f 681 391 326
f 460 196 503
f 326 467 323
f 362 467 326
f 362 565 467
f 460 565 362
f 503 565 460
f 503 514 565
f 552 514 503
f 604 514 552
f 614 468 604
f 429 468 614
f 274 614 273
f 322 614 274
f 322 429 614
f 674 322 274
f 660 674 414
f 615 674 660
f 615 322 674
f 615 429 322
f 507 429 615
f 499 414 229
f 499 660 414
f 499 615 660
f 547 499 229
f 321 499 547
f 321 615 499
f 321 507 615
f 463 507 321
f 332 547 229
f 616 321 547
f 616 463 321
f 320 463 616
f 320 455 463
f 617 455 320
f 617 456 455
f 319 456 617
f 319 448 456
f 618 448 319
f 578 331 369
f 241 618 267
f 318 618 241
f 548 331 578
f 258 331 548
f 258 241 331
f 258 318 241
f 318 448 618
f 449 448 318
f 600 578 291
f 600 548 578
f 600 291 231
f 619 258 548
f 619 318 258
f 619 449 318
f 441 449 619
f 231 291 533
f 600 619 548
f 317 619 600
f 317 441 619
f 393 600 231
f 442 441 317
f 260 231 533
f 260 393 231
f 224 600 393
f 224 317 600
f 224 442 317
f 604 468 514
f 330 674 274
f 330 414 674
f 490 578 369
f 489 578 490
f 489 291 578
f 489 533 291
f 498 533 489
f 498 260 533
f 422 260 498
f 672 393 260
f 224 393 672
f 672 442 224
f 672 634 442
f 620 634 672
f 568 634 620
f 316 568 620
f 517 568 316
f 621 517 316
f 471 517 621
f 577 471 621
f 315 577 234
f 315 471 577
f 315 432 471
f 622 432 315
f 314 432 622
f 314 430 432
f 623 430 314
f 313 430 623
f 313 198 430
f 624 198 313
f 624 431 198
f 312 342 587
f 312 431 624
f 653 312 587
f 625 431 312
f 561 431 625
f 669 312 653
f 669 625 312
f 311 561 625
f 240 653 293
f 240 669 653
f 311 625 669
f 511 561 311
f 462 669 240
f 462 311 669
f 462 511 311
f 462 240 576
f 626 511 462
f 466 511 626
f 524 462 576
f 223 316 620
f 587 293 653
f 560 240 293
f 510 240 560
f 510 576 240
f 562 576 510
f 387 576 562
f 524 576 387
f 264 466 626
f 264 428 466
f 424 428 264
f 673 197 341
f 191 197 673
f 602 191 673
f 185 191 602
f 310 185 602
f 343 185 310
f 627 185 343
f 627 385 185
f 309 385 627
f 309 408 385
f 262 408 309
f 628 408 262
f 628 407 408
f 308 242 527
f 308 628 242
f 308 407 628
f 479 308 527
f 629 407 308
f 384 407 629
f 629 308 479
f 307 384 629
f 603 629 479
f 406 384 307
f 307 629 603
f 630 406 307
f 494 281 603
f 630 603 281
f 630 307 603
f 340 281 494
f 340 630 281
f 398 406 630
f 187 406 398
f 543 340 494
f 544 340 543
f 398 630 340
f 424 197 428
f 424 341 197
f 635 494 603
f 529 494 635
f 280 494 529
f 280 543 494
f 200 340 544
f 398 340 200
f 399 187 398
f 399 365 187
f 550 365 399
f 550 381 365
f 306 381 550
f 306 380 381
f 461 380 306
f 283 380 461
f 395 633 566
f 282 394 652
f 402 283 377
f 380 283 402
f 401 402 377
f 631 401 377
f 211 401 631
f 379 401 211
f 339 379 211
f 651 379 339
f 305 379 651
f 305 400 379
f 305 364 400
f 263 364 305
f 263 367 364
f 652 367 263
f 652 409 367
f 303 409 652
f 501 303 202
f 304 303 501
f 304 409 303
f 386 409 304
f 302 304 501
f 439 501 395
f 502 501 439
f 302 501 502
f 302 386 304
f 374 439 395
f 502 439 374
f 301 302 502
f 301 386 302
f 368 386 301
f 542 502 374
f 209 502 542
f 209 301 502
f 300 301 209
f 440 209 542
f 505 300 209
f 300 368 301
f 356 368 300
f 679 383 405
f 458 383 679
f 458 366 383
f 459 366 458
f 346 366 459
f 346 355 366
f 194 346 496
f 194 355 346
f 193 355 194
f 298 193 194
f 188 193 298
f 584 298 583
f 584 445 243
f 584 583 445
f 584 188 298
f 584 186 188
f 363 584 640
f 363 297 584
f 297 186 584
f 297 404 186
f 296 404 297
f 504 404 296
f 483 190 403
f 358 190 483
f 530 358 373
f 530 190 358
f 354 190 530
f 553 354 530
f 253 354 553
f 353 354 253
f 582 253 553
f 582 353 253
f 532 582 541
f 649 582 532
f 649 353 582
f 352 353 649
f 649 532 348
f 286 352 649
f 351 352 286
f 348 532 540
f 286 649 220
f 255 286 220
f 680 351 286
f 680 350 351
f 255 220 593
f 606 349 219
f 427 349 606
f 606 219 372
f 284 427 606
f 605 284 372
f 605 372 457
f 328 427 284
f 676 328 284
f 244 457 271
f 484 457 244
f 486 676 484
f 285 676 486
f 285 328 676
f 256 328 285
f 256 426 328
f 650 426 256
f 663 392 244
f 227 426 650
f 245 392 663
f 221 252 245
f 683 650 252
f 491 227 650
f 454 270 663
f 476 249 454
f 261 249 476
f 251 249 261
f 538 249 251
f 538 491 249
f 538 227 491
f 329 227 538
f 377 211 631
f 551 211 377
f 419 207 210
f 419 282 207
f 566 374 395
f 566 542 374
f 566 375 542
f 632 375 566
f 375 495 542
f 523 495 375
f 523 542 495
f 523 440 542
f 208 209 440
f 208 505 209
f 208 356 300
f 203 356 208
f 203 382 356
f 413 382 203
f 670 382 413
f 670 405 382
f 299 405 670
f 679 405 299
f 589 296 580
f 589 573 296
f 504 296 573
f 554 404 504
f 554 403 404
f 554 483 403
f 554 358 483
f 611 540 532
f 610 540 611
f 610 348 540
f 610 474 348
f 593 348 474
f 288 350 680
f 288 349 350
f 219 349 288
f 475 457 372
f 266 454 663
f 257 329 538
f 199 250 682
f 199 436 250
f 590 500 327
f 325 257 590
f 329 257 325
f 590 192 325
f 658 192 590
f 612 192 658
f 225 612 658
f 276 612 225
f 226 612 276
f 324 612 226
f 671 485 645
f 671 276 485
f 228 276 671
f 226 276 228
f 278 324 226
f 436 671 337
f 601 671 436
f 601 228 671
f 278 226 228
f 189 228 601
f 189 278 228
f 278 613 324
f 539 613 278
f 591 613 539
f 216 539 199
f 323 613 591
f 467 613 323
f 327 658 590
f 549 485 327
f 337 671 645
f 216 199 682
f 323 539 216
f 323 591 539
f 407 385 408
f 185 385 407
f 191 185 407
f 407 197 191
f 407 428 197
f 466 428 407
f 407 511 466
f 407 561 511
f 431 561 407
f 407 198 431
f 407 430 198
f 407 432 430
f 407 471 432
f 517 471 407
f 407 568 517
f 407 634 568
f 442 634 407
f 407 441 442
f 407 449 441
f 448 449 407
f 407 456 448
f 407 455 456
f 407 463 455
f 507 463 407
f 407 429 507
f 384 429 407
f 406 429 384
f 406 468 429
f 187 468 406
f 187 514 468
f 365 514 187
f 381 514 365
f 381 565 514
f 380 565 381
f 402 565 380
f 402 467 565
f 354 403 190
f 354 404 403
f 353 404 354
f 353 186 404
f 352 186 353
f 352 188 186
f 351 188 352
f 351 193 188
f 350 193 351
f 350 355 193
f 349 355 350
f 349 366 355
f 427 366 349
f 427 383 366
f 328 383 427
f 328 405 383
f 426 405 328
f 426 382 405
f 227 382 426
f 227 356 382
f 329 356 227
f 329 368 356
f 325 368 329
f 325 386 368
f 192 386 325
f 192 409 386
f 612 409 192
f 612 367 409
f 324 367 612
f 324 364 367
f 324 400 364
f 324 379 400
f 613 379 324
f 613 401 379
f 467 401 613
f 467 402 401
f 588 597 598
f 589 597 588
f 589 608 597
f 580 608 589
f 580 607 608
f 581 607 580
f 581 611 607
f 636 611 581
f 636 610 611
f 570 610 636
f 570 287 610
f 637 287 570
f 637 648 287
f 637 647 648
f 638 647 637
f 638 277 647
f 571 277 638
f 571 657 277
f 519 657 571
f 519 656 657
f 632 656 519
f 632 266 656
f 566 266 632
f 566 667 266
f 633 667 566
f 633 666 667
f 567 666 633
f 567 254 666
f 567 678 254
f 557 678 567
f 555 678 557
f 555 677 678
f 556 677 555
f 556 250 677
f 545 250 556
f 545 682 250
f 546 682 545
f 465 558 508
f 464 558 465
f 464 559 558
f 509 559 464
f 509 560 559
f 506 560 509
f 506 510 560
f 497 510 506
f 497 562 510
f 498 562 497
f 498 512 562
f 489 512 498
f 489 563 512
f 489 564 563
f 490 564 489
f 490 513 564
f 481 513 490
f 482 513 481
f 482 516 513
f 472 516 482
f 472 515 516
f 472 518 515
f 639 518 472
f 639 569 518
f 572 569 639
f 520 569 572
f 520 635 569
f 473 635 520
f 473 529 635
f 433 529 473
f 433 528 529
f 469 528 433
f 469 537 528
f 470 537 469
f 470 536 537
f 681 536 470
f 681 546 536
f 682 546 681
# 683 vertices
# 0 texture params
# 0 normals
# 1354 facets

# 3 groups
