# WaveFront *.obj file (generated by Autodesk ATF)

mtllib neck_collision.mtl

g Body1

v 4.585022 -1.989567 2.618197
v 4.761143 -1.520634 2.618197
v 3.535534 -3.535534 2.618197
v 4.971416 -0.500129 2.618197
v 4.999302 -0.083549 2.618197
v 4.384137 -2.402573 2.618197
v 4.968626 0.541810 2.618197
v 3.707743 -3.353456 2.618197
v 2.547727 4.301407 2.618197
v 3.140934 1.495042 1.139064
v -3.052556 -3.461876 1.960804
v 2.041616 -3.643264 1.723764
v 3.098317 3.923449 2.618197
v 3.789706 3.258671 2.618197
v 4.515981 2.141665 2.618197
v 4.871435 1.118001 2.618197
v 2.635958 3.263389 1.436155
v 0.921443 3.248726 1.215707
v -2.658386 3.068454 1.126422
v 1.521070 3.648276 1.624207
v 2.800975 3.959555 2.415922
v -2.288968 4.275364 2.453849
v -2.059048 4.379303 2.453849
v -1.530762 4.084053 2.024015
v 3.029890 3.628573 2.182042
v -2.345858 3.643438 1.818580
v -3.240789 3.532579 2.238932
v 2.648949 3.478124 1.741147
v -1.037344 3.559857 1.490674
v -2.614041 3.293477 1.474081
v -2.227215 3.392848 1.496205
v -1.609177 3.172902 1.176990
v -0.681245 3.077958 1.065581
v -3.754976 1.968095 1.818580
v -3.398366 2.883524 1.749048
v -3.095358 2.235281 1.129582
v -3.127017 -1.677735 1.133533
v -3.398868 -2.576859 1.606824
v -3.361546 1.985215 1.412451
v -4.158046 2.387983 2.384317
v -4.527667 -1.666372 2.453849
v -4.519284 -1.457683 2.390638
v -4.608078 -0.968861 2.371675
v -4.168503 0.478982 1.959224
v -3.714683 -2.551355 1.986089
v -3.441730 3.025803 1.910236
v -3.559891 2.019335 1.632108
v -3.338015 2.845384 1.635269
v -3.100012 2.893044 1.230720
v -3.034563 2.331493 1.050569
v -3.205178 -2.186319 1.262325
v -3.264305 -1.535716 1.261535
v -3.155169 -1.992186 1.183311
v -3.151404 2.584440 1.252843
v -3.525386 2.288616 1.665294
v -3.444226 2.465818 1.625787
v -3.877762 -1.902551 1.922878
v -3.511547 -3.021538 2.011373
v -3.673300 -2.777843 2.061942
v -4.551052 -0.195533 2.257895
v -4.690694 -0.653121 2.400120
v -4.645700 -1.225043 2.447528
v -4.070436 2.600310 2.409601
v -3.480105 1.037868 1.421932
v -3.529175 1.295456 1.486723
v -3.070434 -2.560112 1.120100
v -3.079090 2.731615 1.154866
v 0.000000 3.000000 1.000000
v -3.327976 3.082560 1.764851
v 0.457991 3.111068 1.091656
v -1.271068 3.194168 1.180151
v -0.705385 3.654288 1.548354
v -1.902595 3.433681 1.475661
v -1.309799 3.545077 1.502526
v 2.833793 3.415029 1.745888
v -2.092788 4.036434 2.137795
v -2.959443 3.655140 2.163079
v 3.163486 3.466277 2.061942
v -0.199248 4.188157 1.964162
v -0.402688 4.630949 2.332168
v -0.822877 4.451144 2.221549
v 2.613378 3.964436 2.302143
v -2.247401 3.537152 1.666874
v 1.747518 3.099647 1.107458
v -0.974738 3.192438 1.169089
v -2.511246 3.436163 1.632108
v -1.275765 3.345546 1.319215
v 1.301518 3.425092 1.393487
v -0.390623 3.501498 1.410475
v -3.285714 3.654501 2.466491
v 3.358001 3.561935 2.415922
v 1.239401 4.264892 2.125153
v 1.018958 4.474974 2.267377
v -2.651911 4.087467 2.460170
v 2.531974 3.722036 1.986089
v -1.912950 3.869125 1.916557
v 2.974899 3.500951 1.960804
v 1.043532 3.887639 1.772752
v 1.637549 3.492270 1.493834
v 2.695622 3.118998 1.221238
v 2.444182 3.183015 1.273387
v -2.261597 3.123557 1.167509
v -2.656745 3.026463 1.050569
v -3.258005 2.991975 1.581540
v -3.552162 -2.489148 1.768011
v -3.137093 1.428499 1.132743
v -3.078874 2.548990 1.132743
v -3.426153 2.674299 1.682677
v -3.638032 1.683298 1.641590
v -4.436048 1.845557 2.428564
v -4.063581 -2.536103 2.365354
v -3.860563 -2.702148 2.238932
v -4.269296 -1.992853 2.324267
v -3.798115 2.287069 1.967125
v -3.717206 2.689902 2.061942
v -3.824215 -2.232935 1.973447
v -3.416107 1.838036 1.447217
v -3.427542 -1.584319 1.424303
v -3.197476 2.394262 1.286029
v -3.251259 -0.280153 1.204645
v -3.353930 0.082941 1.286819
v -3.049438 1.562718 1.050569
v -3.105011 0.752813 1.089285
v -3.180421 2.734118 1.335017
v -4.086058 -0.560233 1.896804
v -3.391179 -2.821512 1.704801
v -3.957018 -1.587152 1.921298
v -3.633993 3.060084 2.213648
v -3.555098 2.880830 1.973447
v -4.179989 -1.699420 2.150437
v -3.641830 -3.301726 2.466491
v -3.553302 -3.233611 2.264216
v -4.330921 2.197345 2.466491
v -3.493117 -2.200560 1.603663
v -3.542441 -2.008246 1.609984
v -3.454221 0.391663 1.371364
v -3.117727 1.847616 1.131162
v -3.827147 1.375670 1.764851
v -3.774312 -1.105901 1.682677
v -1.794684 3.045446 1.050569
v -1.879490 3.292397 1.323955
v -1.964295 3.133528 1.156447
v 0.539602 3.253596 1.210176
v 1.061753 3.461603 1.407710
v 2.410707 3.551454 1.736406
v -2.000214 3.690301 1.761690
v 3.158251 3.333706 1.834383
v 2.691786 3.694681 2.036657
v -2.668138 3.879074 2.238932
v -2.393932 3.963811 2.188364
v -1.860461 4.156723 2.175721
v 3.198892 3.650106 2.365354
v 2.097781 3.744449 1.845445
v -2.505497 3.257507 1.391907
v -1.585428 3.435377 1.432599
v 2.611619 3.189781 1.319215
v -3.000000 3.000000 1.000000
v -3.133883 3.133883 1.404549
v -3.000000 -3.000000 0.000000
v 2.565284 3.071891 1.123261
v 0.841279 3.791984 1.673195
v -1.445120 3.700190 1.660553
v -1.356755 4.575459 2.415922
v 2.495232 4.181910 2.466491
v 2.152799 4.046220 2.169400
v 3.283596 3.439683 2.137794
v 0.362240 4.079601 1.880606
v 1.478394 3.992486 1.930779
v -3.131438 3.420510 1.960804
v -2.875313 3.548879 1.960804
v -1.130383 4.045203 1.918927
v 2.901839 3.207778 1.444056
v 1.826489 3.293156 1.317634
v 2.132917 3.272617 1.336598
v -2.758851 3.145125 1.281288
v 3.051015 3.241899 1.586280
v -3.243868 -2.985522 1.551514
v -3.298223 -2.765007 1.537292
v -3.181709 -1.238462 1.167509
v -3.324481 -2.031336 1.379265
v -4.485103 1.003891 2.273698
v -3.853017 -3.054098 2.491775
v -4.581602 0.694481 2.314785
v -3.377004 3.244324 1.992410
v -3.481477 3.217618 2.137794
v -4.255908 -2.288540 2.434886
v -4.071461 -0.914520 1.914977
v -4.252672 -0.006043 2.014336
v -3.667457 -0.833005 1.568107
v -3.462757 1.573500 1.456698
v -3.378113 2.194717 1.470921
v -3.311608 1.519506 1.306177
v -3.298783 -3.037780 1.682677
v -3.032252 -2.414463 1.050569
v -3.058225 -0.885449 1.050569
v -3.051135 -1.465628 1.050569
v -3.221295 2.136535 1.276547
v -3.334799 2.399185 1.467760
v -3.281732 2.586330 1.448797
v -3.674370 -1.704489 1.680306
v -3.998876 2.158861 2.125153
v -4.041818 1.841325 2.061942
v -4.036373 -2.226622 2.188364
v -3.970323 1.612480 1.938681
v -3.787158 2.493685 2.042979
v -4.520329 1.531721 2.409601
v -3.692396 -2.069626 1.783814
v -3.556768 2.506127 1.780654
v -3.171524 -2.939865 1.391907
v -3.169528 -0.868709 1.145780
v -3.275726 2.760299 1.499365
v -3.398987 -2.373739 1.540452
v -2.993087 3.240906 1.549934
v -2.478790 3.170192 1.262325
v 2.971187 3.116374 1.290770
v 2.864954 3.133795 1.290770
v 2.305554 3.358548 1.472501
v -0.908931 3.849415 1.726924
v -2.355530 3.780021 1.973447
v -2.644397 3.653473 1.960804
v 1.735916 3.913468 1.913791
v -2.970590 3.870921 2.441206
v 2.001351 4.017609 2.087226
v 2.844888 3.720429 2.163079
v 2.990238 3.892935 2.485454
v -1.636339 4.522493 2.441206
v -2.799134 3.293994 1.543613
v -2.004140 3.529090 1.595762
v -2.180665 3.275357 1.347659
v -3.066942 3.066942 1.202275
v -3.435121 3.435121 2.314785
v -3.000000 0.000000 1.000000
v -3.301238 3.301238 1.910236
v 3.008806 3.347465 1.745888
v 3.000000 3.000000 0.000000
v 1.998449 3.133466 1.158027
v -2.799264 3.453977 1.783814
v 2.725681 3.341137 1.586280
v 2.277033 4.281131 2.453849
v 1.665025 4.329558 2.276858
v 0.080319 4.387808 2.123868
v 0.793666 4.552982 2.302143
v 2.784655 3.561952 1.922878
v -1.316459 4.248153 2.125153
v 2.254271 3.589168 1.726924
v 1.282917 3.722829 1.658183
v -2.900465 3.192859 1.417192
v 1.987520 3.400398 1.455118
v -0.152078 3.321253 1.260745
v 1.266287 3.225145 1.208201
v 1.732404 3.046261 1.050569
v 2.862286 3.047400 1.110619
v -3.223703 -2.435703 1.328696
v -3.217879 1.885251 1.243362
v -3.115191 -2.652478 1.205435
v -3.398746 0.844655 1.341338
v -3.879541 2.987018 2.466491
v -3.579403 3.356987 2.441206
v -4.732125 -0.433960 2.415922
v -4.468328 1.252096 2.302143
v -4.173586 1.986265 2.232611
v -3.427903 -3.228323 2.061942
v -3.481358 -2.855128 1.853346
v -3.628011 -3.008086 2.163079
v -3.760784 1.092692 1.670035
v -3.241821 -2.675989 1.417191
v -3.440012 -1.878190 1.478822
v -3.395528 -1.107682 1.352795
v -3.035719 2.869312 1.088495
v -3.180719 3.083272 1.481982
v -3.126373 -2.869531 1.278128
v -3.045142 -2.841978 1.101137
v -3.212401 1.159387 1.192398
v -3.699668 -0.373401 1.571663
v -3.325569 -2.288720 1.429834
v -3.842590 0.766525 1.710134
v -4.139850 -1.309475 2.029546
v -3.373699 -3.095259 1.853346
v -3.879445 -2.883677 2.384317
v -3.730587 2.889843 2.207326
v -4.174567 1.336363 2.065102
v -4.491595 0.244101 2.211672
v -3.950408 2.831778 2.428565
v -3.729654 3.180275 2.453849
v -3.588543 -1.347162 1.546378
v -3.081779 -2.268496 1.113780
v -3.176574 2.940913 1.401389
v -3.258448 -1.822133 1.281288
v -2.944056 3.086600 1.214917
v 2.574832 3.028668 1.050569
v 1.560541 3.243649 1.243362
v 0.704422 3.495980 1.416401
v 2.465857 3.372248 1.534131
v -2.906511 3.341176 1.673195
v -1.680521 3.740639 1.737986
v 1.817853 3.625157 1.654232
v 1.437603 4.469914 2.343230
v 2.338062 3.951993 2.150437
v 1.865354 4.223185 2.238932
v 0.590213 4.434685 2.184413
v 1.935924 4.442055 2.466491
v -0.957789 4.746769 2.485454
v 1.999859 3.534226 1.600503
v -3.090681 3.314158 1.745888
v 2.269238 3.139916 1.189632
v 3.000000 -3.000000 0.000000
v -3.000000 3.000000 0.000000
v -3.200825 3.200825 1.606824
v -2.429539 -3.604688 1.807123
v -2.913637 -3.378571 1.736406
v 2.308349 -3.550968 1.701640
v -2.801492 -3.268861 1.505687
v 0.711009 -3.749816 1.628553
v -2.525239 -3.072355 1.120101
v 0.443013 -3.680080 1.558033
v 2.232207 -3.094016 1.126422
v 1.431234 -3.254430 1.244942
v -1.724222 -3.224511 1.237041
v 1.248395 -3.220436 1.203065
v 1.993810 -3.306012 1.353981
v 2.446991 -3.266394 1.388747
v -2.194119 -3.216308 1.278128
v -1.046241 -3.413990 1.365042
v 3.364093 -3.590913 2.466491
v 2.631251 -3.467358 1.720603
v -1.131043 -4.562043 2.359033
v -0.881325 -4.566152 2.324267
v -3.132991 -3.745089 2.428565
v -3.372950 -3.617465 2.517060
v -2.170053 -4.226414 2.352711
v -2.692161 -4.023993 2.415922
v 0.231573 -4.502763 2.219969
v -0.322997 -4.809831 2.472812
v 1.678278 -4.580429 2.504417
v 1.202796 -4.627986 2.428565
v 3.242154 -3.565246 2.289501
v 3.158884 -3.753904 2.466491
v -0.602495 -4.364645 2.128313
v 1.280433 -4.205724 2.080905
v -3.272321 -3.477701 2.188363
v -3.120903 -3.559113 2.163079
v -2.304869 -4.229304 2.415922
v -2.393981 -3.928745 2.150437
v 1.878839 -4.164947 2.188364
v 1.654586 -4.102296 2.068263
v 3.166571 -3.498798 2.112510
v 2.961778 -3.772177 2.314785
v -0.967438 -4.022631 1.880211
v -0.405838 -3.935816 1.765641
v -3.205428 -3.380944 1.960804
v -1.677591 -4.041143 2.017694
v 3.099531 -3.379671 1.865988
v 1.836270 -3.668695 1.700850
v -2.634564 -3.677951 1.986089
v 2.905101 -3.599838 2.049300
v 2.610945 -3.666801 1.960804
v -2.564197 -3.390231 1.591021
v -1.927354 -3.716452 1.768011
v -2.180001 -3.657483 1.779073
v -2.671001 -3.530618 1.821741
v -2.422573 -3.258307 1.372944
v -1.418043 -3.501968 1.475662
v -2.089647 -3.475784 1.557835
v -2.285203 -3.426983 1.549934
v 1.724353 -3.452013 1.466575
v 1.165785 -3.628853 1.562576
v -1.958066 -3.133143 1.154866
v -1.318829 -3.137573 1.129582
v -0.411227 -3.395367 1.323955
v -1.428970 -3.314334 1.301832
v 1.999103 -3.146800 1.173830
v 1.773145 -3.165278 1.178571
v -1.804728 -3.045530 1.050569
v -2.509089 -3.030204 1.050569
v 0.885449 -3.058225 1.050569
v -0.077548 -3.666934 1.540452
v -3.063469 -3.212892 1.537292
v 3.028212 -3.286663 1.654232
v -2.923585 -3.053904 1.134323
v 2.841978 -3.045142 1.101137
v -3.301238 -3.301238 1.910236
v -3.200825 -3.200825 1.606824
v 3.694299 -2.101027 1.794086
v -3.000000 -3.000000 1.000000
v 3.312082 -2.583023 1.490674
v 3.296830 -2.762302 1.534131
v 3.416041 -0.942230 1.360697
v 3.370257 -1.270011 1.341338
v 3.109916 -1.825271 1.121681
v 3.136000 -2.364630 1.195954
v 3.076977 2.630653 1.139064
v 3.081779 2.268496 1.113780
v 3.214074 -0.896825 1.185682
v 3.209098 0.640348 1.174620
v 3.088785 -2.687323 1.167509
v 3.263211 2.420080 1.379265
v 3.501997 0.977932 1.436155
v 3.836716 0.897645 1.715467
v 3.678869 -1.677249 1.679516
v 3.493325 -2.482399 1.692158
v 3.475996 2.791731 1.809098
v 3.437115 -2.721522 1.720603
v 4.509900 0.876833 2.276858
v 3.742458 3.174490 2.466491
v 4.118634 -2.405421 2.352712
v 4.032110 -2.236766 2.188363
v 4.086529 -2.581204 2.415922
v 3.999458 -2.842184 2.491775
v 4.639055 -1.222166 2.441206
v 4.334034 -1.801008 2.321106
v 4.727580 1.159420 2.504417
v 4.407605 0.416563 2.150437
v 4.408426 2.070140 2.485454
v 4.400438 1.886998 2.409601
v 4.588420 -0.074371 2.286340
v 3.959832 2.458370 2.213648
v 3.445576 -3.319249 2.188364
v 3.699711 -3.103075 2.340069
v 4.475144 -0.645249 2.223129
v 4.476689 -1.031484 2.270537
v 3.557574 3.051439 2.099868
v 3.468655 3.262266 2.163079
v 4.559910 -0.417920 2.274488
v 4.133054 1.591038 2.080905
v 3.591898 -2.825712 1.986089
v 3.648531 -2.656139 1.960804
v 3.762944 -2.398613 1.973447
v 3.797876 -2.653379 2.137795
v 3.737424 2.811573 2.163079
v 3.727193 2.617519 2.036657
v 3.468751 -3.005188 1.935520
v 3.894189 1.274546 1.809494
v 3.548013 -2.311869 1.698480
v 3.331499 -2.888501 1.647911
v 3.488556 1.463490 1.467760
v 3.456973 2.511283 1.657393
v 3.216449 -2.868750 1.445636
v 3.266527 -2.373208 1.372944
v 3.400084 -2.078937 1.472501
v 3.345023 -2.398335 1.480402
v 3.213790 -3.060326 1.534922
v 3.445182 1.747551 1.462229
v 3.219331 2.909590 1.467760
v 3.102271 -2.521625 1.167509
v 3.112820 -2.968019 1.281288
v 3.130433 -2.159037 1.167509
v 3.248557 -1.900393 1.278128
v 3.170296 -1.549064 1.169879
v 3.261249 1.530535 1.258374
v 3.146601 1.903546 1.167509
v 3.166003 2.238563 1.221238
v 3.034563 -2.331493 1.050569
v 3.026927 -2.747098 1.056890
v 3.045761 1.788235 1.050569
v 3.071301 0.976073 1.063211
v 3.127352 2.977998 1.316054
v 3.249295 3.018541 1.578379
v 3.133883 -3.133883 1.404549
v 3.066942 -3.066942 1.202275
v 3.435121 3.435121 2.314785
v 3.435121 -3.435121 2.314785
v 3.066942 3.066942 1.202275
v 3.133883 3.133883 1.404549
v 3.258671 -3.789706 2.618197
v 3.000000 -3.000000 1.000000
v 1.639895 -4.722686 2.618197
v 2.103205 -4.532289 2.618197
v 0.125277 -4.996510 2.618197
v 0.624777 -4.958877 2.618197
v -1.639895 -4.722686 2.618197
v -1.199229 -4.852077 2.618197
v -2.998269 -3.998899 2.618197
v -2.582939 -4.278929 2.618197
v -4.121633 -2.829340 2.618197
v -3.923449 -3.098317 2.618197
v -4.761143 -1.520634 2.618197
v -4.602607 -1.951674 2.618197
v -4.996511 0.167052 2.618197
v -4.989534 -0.292165 2.618197
v -4.602607 1.951674 2.618197
v -4.761143 1.520634 2.618197
v -3.789706 3.258671 2.618197
v -4.024788 2.965485 2.618197
v -2.254736 4.461971 2.618197
v -2.582939 4.278929 2.618197
v -0.665970 4.951929 2.618197
v -1.158939 4.863114 2.618197
v 1.199229 4.852077 2.618197
v 0.831531 4.929663 2.618197
v 2.254736 4.461971 2.618197
v 1.951674 4.602607 2.618197
v 1.639895 4.722686 2.618197
v 2.829340 4.121633 2.618197
v -0.125277 4.996510 2.618197
v 0.375481 4.983956 2.618197
v -1.912691 4.617621 2.618197
v -1.481171 4.774846 2.618197
v -3.535534 3.535534 2.618197
v -2.998269 3.998899 2.618197
v -4.461971 2.254736 2.618197
v -4.278929 2.582939 2.618197
v -4.951929 0.665970 2.618197
v -4.863114 1.158939 2.618197
v -4.889441 -1.036427 2.618197
v -4.954696 -0.666342 2.618197
v -4.301407 -2.547728 2.618197
v -4.461971 -2.254736 2.618197
v -3.353456 -3.707743 2.618197
v -3.535534 -3.535534 2.618197
v -1.951674 -4.602607 2.618197
v -2.254736 -4.461971 2.618197
v -0.250554 -4.993718 2.618197
v -0.665970 -4.951929 2.618197
v 1.320792 -4.821672 2.618197
v 0.995791 -4.899124 2.618197
v 2.965485 -4.024788 2.618197
v 2.582939 -4.278929 2.618197
v 3.000000 3.000000 1.000000
v 3.000000 0.000000 1.000000
v 3.301238 3.301238 1.910236
v 3.200825 3.200825 1.606824
v 3.200825 -3.200825 1.606824
v 3.301238 -3.301238 1.910236
v 3.054013 2.882438 1.126422
v 3.055435 -2.898826 1.132743
v 3.030300 2.504528 1.050569
v 3.309849 3.046294 1.707961
v 3.047802 -1.660471 1.050569
v 3.066360 -0.816940 1.056890
v 3.353455 3.707743 2.618197
v 3.535534 3.535534 2.618197
v 3.144987 2.812219 1.297091
v 3.170192 2.478790 1.262325
v 3.255574 1.898514 1.286029
v 3.220626 1.072915 1.196744
v 3.373487 -0.463581 1.307363
v 3.255029 -2.121098 1.314474
v 3.184912 -2.640982 1.319215
v 3.145902 -2.851962 1.309733
v 3.141095 -1.269663 1.131163
v 3.730194 -0.720110 1.613145
v 3.367416 2.431917 1.516748
v 4.024788 2.965485 2.618197
v 4.278929 2.582939 2.618197
v 3.753840 0.591773 1.624602
v 3.581394 0.409807 1.476452
v 3.833087 -1.062558 1.729295
v 3.737615 1.568417 1.715072
v 3.827847 1.821893 1.853346
v 3.316129 2.757235 1.562576
v 3.422085 2.982019 1.847025
v 3.633704 2.194512 1.756950
v 4.023409 -1.612366 1.986089
v 4.064899 1.937950 2.112510
v 3.329762 -3.188403 1.853346
v 3.489438 -3.125131 2.061942
v 4.123419 -1.288779 2.011373
v 3.983528 -1.834311 2.005052
v 3.964141 2.219656 2.112510
v 3.769194 2.221071 1.910236
v 4.187507 2.473324 2.460170
v 3.973029 2.777362 2.415922
v 3.549807 -3.227394 2.251574
v 3.901832 -2.727953 2.302143
v 4.321219 -0.921336 2.125153
v 3.643137 -2.931867 2.125153
v 3.611290 3.381064 2.517060
v 3.681774 3.087011 2.302143
v 4.487451 1.295812 2.327427
v 4.496864 1.629770 2.415922
v 4.803127 -0.856985 2.517060
v 4.438959 0.146255 2.166240
v 4.202250 -2.131888 2.314785
v 4.408652 -1.989821 2.453849
v 3.649542 -3.303448 2.479133
v 3.857618 -2.988587 2.441206
v 4.454468 0.595194 2.201005
v 4.417276 -1.486776 2.308464
v 3.446967 -2.840698 1.796456
v 3.333321 -3.061255 1.758530
v 3.864161 -1.389602 1.800407
v 3.587838 2.573601 1.847025
v 3.341303 3.156196 1.847025
v 3.509986 -2.101512 1.597342
v 3.594601 -1.903091 1.641590
v 3.587700 -1.198943 1.529391
v 3.524572 1.914378 1.572058
v 3.481699 1.260461 1.440895
v 3.227533 2.667593 1.391907
v 3.194929 -0.007500 1.158027
v 4.665252 1.796788 2.618197
v 4.774846 1.481171 2.618197
v 3.926769 -0.175446 1.751814
v 3.320881 2.147475 1.395068
v 3.369910 -1.734385 1.385586
v 3.488729 -1.512967 1.473291
v 3.565649 2.093937 1.655812
v 3.404670 2.750991 1.688998
v -3.435121 -3.435121 2.314785
v 0.000000 -3.000000 1.000000
v -3.066942 -3.066942 1.202275
v -3.133883 -3.133883 1.404549
v 2.969512 -3.117164 1.290770
v -3.002007 -3.139803 1.353981
v 1.465628 -3.051135 1.050569
v 2.414463 -3.032252 1.050569
v -1.259483 -3.054025 1.050569
v -0.607610 -3.083142 1.069532
v 2.248577 -3.190623 1.252843
v 2.478790 -3.170192 1.262325
v 0.889071 -3.296150 1.255609
v 1.601539 -3.240433 1.243362
v -2.531262 -3.149219 1.240201
v -2.041544 -3.309948 1.365042
v 2.668250 -3.259757 1.442476
v -0.852115 -3.225379 1.193583
v -1.802817 -3.404772 1.430624
v -0.790091 -3.671493 1.568107
v -2.660085 -3.218909 1.376104
v -2.881896 -3.164421 1.355561
v 1.597126 -3.734972 1.717443
v 1.388334 -3.627661 1.586280
v -2.903785 -3.301186 1.606824
v -2.730210 -3.421418 1.701640
v -1.262304 -3.726002 1.658973
v -1.627057 -3.590382 1.586280
v -1.599958 -3.839707 1.815419
v 2.405498 -3.648901 1.847025
v -3.089667 -3.313310 1.743517
v -1.322806 -4.145835 2.036657
v 2.828439 -3.470652 1.821741
v 2.677332 -3.807180 2.163079
v 2.400054 -3.998253 2.226290
v -2.177497 -3.892011 2.024015
v 2.035013 -3.845260 1.929199
v 0.983723 -3.985449 1.850185
v 2.034172 -4.323698 2.390638
v 2.730705 -3.967069 2.377996
v -1.976161 -4.065049 2.125153
v -1.967575 -4.415615 2.453849
v -2.907257 -3.786088 2.289501
v -2.562601 -3.846878 2.144116
v -2.786796 -3.720741 2.125153
v -2.941788 -3.570740 2.036657
v 2.222277 -3.932370 2.080905
v 1.464785 -4.488435 2.365354
v 2.233295 -4.340915 2.491775
v 2.862329 -4.008418 2.517060
v 0.486871 -4.494867 2.226290
v 0.729967 -4.535548 2.280019
v -1.682251 -4.380828 2.327427
v -1.390105 -4.559473 2.409601
v -2.987018 -3.879541 2.466491
v -2.831991 -4.006036 2.491775
v -2.487349 -4.161933 2.441207
v -3.265859 -3.590609 2.352711
v 2.478590 -4.203146 2.479133
v 0.982799 -4.598122 2.365354
v 2.048850 -3.441481 1.511217
v -1.097478 -3.726061 1.640010
v 0.078666 -4.211050 1.980558
v -0.651764 -3.497260 1.415611
v -2.761762 -3.093295 1.186472
v 2.914455 -3.186627 1.410870
v 2.806769 -3.113744 1.233880
v 2.560112 -3.070434 1.120100
v -2.290830 -3.130188 1.180151
v 0.664687 -3.173376 1.145582
v 2.395073 -3.407056 1.556255
v 2.982422 -3.226415 1.518329
v -1.824975 -3.610636 1.641590
v -2.490845 -3.332583 1.489884
v 2.779562 -3.354754 1.628948
v 4.213873 -2.690036 2.618197
v 3.998899 -2.998269 2.618197
v 4.889441 -1.036427 2.618197
v 4.996510 0.167052 2.618197
usemtl Paint_-_Metal_Flake_(Black)
f 235 68 518
f 307 68 235
f 157 68 307
f 306 519 465
f 235 519 306
f 518 519 235
f 159 600 384
f 306 600 159
f 465 600 306
f 307 232 157
f 159 232 307
f 384 232 159
f 307 306 159
f 235 306 307
f 289 19 103
f 101 160 305
f 100 252 160
f 214 154 229
f 101 305 217
f 100 156 172
f 216 100 172
f 27 90 222
f 78 25 152
f 78 97 25
f 147 97 78
f 147 234 97
f 152 25 225
f 234 75 97
f 224 82 21
f 224 148 82
f 148 28 95
f 148 95 82
f 28 145 95
f 164 298 239
f 245 153 298
f 298 165 239
f 298 153 165
f 299 240 301
f 168 92 297
f 168 246 92
f 92 246 98
f 93 300 242
f 98 300 93
f 98 161 300
f 80 218 81
f 80 72 218
f 218 171 81
f 81 244 302
f 81 171 244
f 171 24 244
f 171 162 24
f 163 24 226
f 244 24 163
f 24 295 96
f 226 151 23
f 295 146 96
f 76 150 22
f 76 219 150
f 76 26 219
f 96 26 76
f 22 150 94
f 150 149 94
f 150 220 149
f 219 220 150
f 219 237 220
f 26 237 219
f 94 77 222
f 149 77 94
f 149 170 77
f 220 170 149
f 220 237 170
f 170 169 77
f 170 304 169
f 237 304 170
f 73 295 155
f 161 98 144
f 176 234 147
f 75 234 176
f 75 176 238
f 293 28 238
f 153 303 296
f 99 20 221
f 161 292 300
f 29 218 72
f 218 29 171
f 74 171 29
f 228 146 295
f 83 146 228
f 141 73 155
f 87 29 85
f 85 29 72
f 241 167 143
f 217 293 101
f 174 217 305
f 17 238 172
f 293 17 101
f 87 74 29
f 228 31 83
f 73 31 228
f 31 86 83
f 31 30 86
f 86 30 227
f 227 213 294
f 30 247 227
f 227 247 213
f 175 19 289
f 214 19 175
f 214 102 19
f 85 89 33
f 143 18 70
f 144 250 18
f 291 173 84
f 174 305 236
f 238 28 75
f 236 173 174
f 173 236 84
f 293 145 28
f 293 245 145
f 217 245 293
f 174 248 217
f 173 99 248
f 173 291 99
f 303 153 245
f 99 221 296
f 88 246 20
f 250 144 88
f 88 144 246
f 144 98 246
f 144 292 161
f 85 72 89
f 87 85 71
f 32 87 71
f 155 32 141
f 32 155 87
f 74 162 171
f 155 295 162
f 142 229 141
f 142 102 229
f 154 175 247
f 214 175 154
f 175 289 247
f 252 518 290
f 290 160 252
f 290 305 160
f 251 305 290
f 251 290 518
f 251 236 305
f 236 251 84
f 251 291 84
f 17 293 238
f 251 250 291
f 174 173 248
f 217 303 245
f 248 303 217
f 251 70 250
f 68 70 251
f 248 296 303
f 248 99 296
f 291 88 99
f 250 88 291
f 70 18 250
f 99 88 20
f 18 292 144
f 18 143 292
f 246 168 20
f 143 167 292
f 143 249 241
f 70 249 143
f 70 33 249
f 68 33 70
f 292 167 300
f 249 79 241
f 249 89 79
f 33 89 249
f 140 85 33
f 140 33 68
f 140 71 85
f 89 72 79
f 71 140 32
f 140 142 32
f 87 155 74
f 140 102 142
f 103 102 140
f 74 155 162
f 142 141 32
f 157 103 140
f 103 19 102
f 83 26 146
f 86 26 83
f 294 26 86
f 294 237 26
f 294 304 237
f 463 172 176
f 463 215 172
f 289 158 247
f 100 101 156
f 215 100 216
f 100 160 101
f 215 252 100
f 462 252 215
f 518 252 462
f 172 156 17
f 172 215 216
f 462 215 463
f 463 176 521
f 166 520 147
f 166 460 520
f 91 460 166
f 91 531 460
f 530 531 91
f 78 166 147
f 152 166 78
f 152 91 166
f 152 530 91
f 152 13 530
f 225 13 152
f 243 97 75
f 243 25 97
f 224 25 243
f 224 225 25
f 21 225 224
f 493 13 225
f 148 243 28
f 148 224 243
f 21 493 225
f 9 493 21
f 245 95 145
f 298 95 245
f 298 82 95
f 164 82 298
f 164 21 82
f 164 9 21
f 164 490 9
f 239 490 164
f 223 165 153
f 301 239 165
f 301 490 239
f 491 490 301
f 221 153 296
f 221 223 153
f 299 223 221
f 299 165 223
f 299 301 165
f 240 221 168
f 240 299 221
f 240 491 301
f 492 491 240
f 297 240 168
f 297 492 240
f 297 488 492
f 93 92 98
f 93 297 92
f 93 488 297
f 93 489 488
f 242 489 93
f 300 489 242
f 495 489 300
f 167 495 300
f 241 495 167
f 494 495 241
f 79 494 241
f 80 494 79
f 486 494 80
f 81 486 80
f 302 486 81
f 302 487 486
f 163 302 244
f 163 487 302
f 497 487 163
f 226 497 163
f 496 497 226
f 151 24 96
f 151 226 24
f 23 496 226
f 76 151 96
f 76 23 151
f 22 496 23
f 484 496 22
f 22 23 76
f 94 484 22
f 94 485 484
f 90 499 222
f 231 498 90
f 90 498 499
f 27 231 90
f 222 499 485
f 233 231 27
f 227 294 86
f 308 294 213
f 308 304 294
f 233 304 308
f 229 31 73
f 154 31 229
f 154 30 31
f 247 30 154
f 158 213 247
f 308 213 158
f 158 289 230
f 73 228 295
f 141 229 73
f 102 214 229
f 157 289 103
f 230 289 157
f 157 140 68
f 94 222 485
f 77 27 222
f 169 27 77
f 169 233 27
f 304 233 169
f 96 146 26
f 24 162 295
f 79 72 80
f 221 20 168
f 75 28 243
f 521 147 520
f 176 147 521
f 172 238 176
f 156 101 17
f 68 251 518
f 135 267 180
f 37 52 179
f 210 274 120
f 192 117 254
f 49 124 287
f 64 276 265
f 256 276 64
f 270 287 104
f 200 127 285
f 285 277 139
f 270 69 184
f 132 131 182
f 185 46 128
f 46 129 128
f 46 35 129
f 283 115 63
f 280 115 283
f 108 208 115
f 115 205 63
f 208 205 115
f 114 201 40
f 55 34 114
f 40 201 133
f 114 34 201
f 34 204 202
f 34 109 204
f 261 204 110
f 202 204 261
f 281 260 206
f 138 265 281
f 181 276 183
f 125 61 259
f 187 277 43
f 62 277 42
f 277 130 42
f 277 127 130
f 41 130 113
f 127 57 130
f 200 57 127
f 130 57 113
f 57 207 116
f 203 111 186
f 203 45 111
f 116 45 203
f 207 105 116
f 111 112 279
f 111 45 112
f 116 105 45
f 45 59 112
f 112 264 279
f 112 59 264
f 45 263 59
f 105 263 45
f 59 58 264
f 59 263 58
f 263 278 58
f 58 262 264
f 58 278 262
f 189 125 274
f 117 47 39
f 108 199 198
f 108 211 199
f 108 48 211
f 104 69 270
f 104 35 69
f 48 35 104
f 208 56 55
f 125 189 187
f 38 105 134
f 126 105 38
f 288 267 118
f 120 188 121
f 273 64 65
f 256 64 273
f 198 119 197
f 198 199 119
f 200 118 267
f 135 275 134
f 180 275 135
f 134 275 212
f 275 266 212
f 212 178 38
f 212 266 178
f 38 178 177
f 178 209 177
f 266 209 178
f 255 66 272
f 255 286 66
f 255 51 286
f 51 53 286
f 136 123 121
f 192 106 273
f 137 254 197
f 108 35 48
f 198 56 108
f 197 191 198
f 254 39 197
f 56 208 108
f 254 117 39
f 192 190 117
f 47 34 55
f 117 109 47
f 273 65 192
f 192 65 190
f 109 138 204
f 109 65 138
f 136 256 123
f 65 265 138
f 256 44 276
f 256 136 44
f 121 188 136
f 136 282 44
f 136 188 282
f 120 274 188
f 210 268 189
f 179 268 210
f 179 52 285
f 189 139 187
f 285 52 118
f 288 52 37
f 118 200 285
f 52 288 118
f 53 288 37
f 288 51 180
f 53 51 288
f 253 266 275
f 253 271 266
f 255 271 253
f 266 271 209
f 50 67 269
f 50 107 67
f 157 50 269
f 50 36 107
f 122 36 50
f 157 122 50
f 122 106 137
f 198 55 56
f 198 191 55
f 197 39 191
f 137 192 254
f 137 106 192
f 191 47 55
f 39 47 191
f 122 273 106
f 122 123 273
f 232 123 122
f 190 109 117
f 47 109 34
f 273 123 256
f 190 65 109
f 64 265 65
f 232 121 123
f 232 120 121
f 195 210 120
f 232 195 120
f 210 189 274
f 195 179 210
f 195 196 179
f 232 196 195
f 179 196 37
f 179 285 268
f 194 37 196
f 194 53 37
f 268 139 189
f 268 285 139
f 384 194 196
f 194 286 53
f 194 66 286
f 288 180 267
f 135 207 200
f 134 207 135
f 105 207 134
f 193 263 126
f 193 278 263
f 381 278 193
f 104 287 211
f 287 124 211
f 271 602 209
f 124 67 54
f 270 49 287
f 230 49 270
f 49 67 124
f 272 601 255
f 119 107 36
f 54 107 119
f 67 107 54
f 49 269 67
f 230 269 49
f 157 269 230
f 230 270 158
f 158 270 308
f 184 231 233
f 258 231 184
f 258 498 231
f 482 498 258
f 185 258 184
f 46 184 69
f 46 185 184
f 128 258 185
f 284 258 128
f 284 482 258
f 280 128 129
f 257 284 128
f 257 482 284
f 483 482 257
f 108 129 35
f 280 257 128
f 115 129 108
f 115 280 129
f 283 257 280
f 283 483 257
f 283 501 483
f 63 501 283
f 55 205 208
f 114 205 55
f 40 63 205
f 114 40 205
f 40 501 63
f 40 500 501
f 133 500 40
f 261 201 34
f 261 133 201
f 480 500 133
f 202 261 34
f 110 133 261
f 110 480 133
f 206 110 204
f 481 480 110
f 206 481 110
f 281 204 138
f 281 206 204
f 260 481 206
f 260 503 481
f 181 281 265
f 181 260 281
f 181 503 260
f 181 502 503
f 183 502 181
f 44 183 276
f 44 502 183
f 282 502 44
f 282 478 502
f 188 478 282
f 188 479 478
f 60 479 188
f 125 188 274
f 125 60 188
f 259 60 125
f 259 479 60
f 61 479 259
f 61 505 479
f 187 61 125
f 504 505 61
f 187 43 61
f 43 504 61
f 62 504 43
f 277 187 139
f 277 62 43
f 42 504 62
f 476 504 42
f 41 476 42
f 130 41 42
f 113 476 41
f 113 477 476
f 116 113 57
f 186 477 113
f 507 477 186
f 203 113 116
f 203 186 113
f 186 506 507
f 111 506 186
f 279 506 111
f 182 475 474
f 131 475 182
f 599 509 131
f 131 509 475
f 132 599 131
f 279 182 474
f 279 132 182
f 262 599 132
f 381 599 262
f 135 200 267
f 212 38 134
f 177 126 38
f 177 193 126
f 382 193 177
f 381 193 382
f 602 177 209
f 382 177 602
f 601 271 255
f 602 271 601
f 180 253 275
f 51 253 180
f 51 255 253
f 194 272 66
f 384 272 194
f 601 272 384
f 384 196 232
f 279 474 506
f 264 132 279
f 264 262 132
f 278 381 262
f 105 126 263
f 57 200 207
f 277 285 127
f 265 276 181
f 69 35 46
f 233 270 184
f 308 270 233
f 211 48 104
f 124 199 211
f 54 199 124
f 54 119 199
f 36 197 119
f 36 137 197
f 122 137 36
f 232 122 157
f 668 319 611
f 608 369 616
f 613 314 667
f 319 366 611
f 667 322 361
f 613 667 361
f 619 613 361
f 663 619 620
f 349 618 662
f 359 309 364
f 336 324 337
f 329 656 328
f 656 341 328
f 629 310 11
f 341 644 328
f 11 644 341
f 11 310 644
f 641 331 654
f 641 643 331
f 360 309 354
f 643 642 331
f 354 642 643
f 354 309 642
f 343 342 655
f 343 359 634
f 343 330 342
f 343 634 330
f 358 351 639
f 358 627 351
f 671 627 358
f 639 651 640
f 639 351 651
f 630 326 652
f 348 338 327
f 338 349 333
f 349 376 333
f 661 315 332
f 315 313 649
f 313 650 649
f 650 339 658
f 650 636 339
f 339 646 335
f 339 345 646
f 334 344 637
f 621 353 345
f 345 635 344
f 344 645 637
f 345 353 635
f 637 633 647
f 637 645 633
f 647 633 657
f 12 311 635
f 635 628 645
f 311 628 635
f 633 638 657
f 633 632 638
f 633 356 632
f 645 356 633
f 628 356 645
f 628 325 356
f 632 347 638
f 632 355 347
f 356 355 632
f 356 631 355
f 325 631 356
f 347 355 346
f 355 352 346
f 631 352 355
f 353 659 12
f 357 312 672
f 624 312 357
f 624 623 312
f 623 310 629
f 357 360 624
f 353 621 365
f 319 622 366
f 317 622 319
f 611 366 313
f 662 618 323
f 672 312 619
f 361 672 619
f 363 617 671
f 660 323 618
f 313 315 611
f 659 321 669
f 321 615 669
f 669 673 325
f 669 615 673
f 615 670 673
f 615 664 670
f 673 670 378
f 665 666 380
f 610 666 665
f 610 316 666
f 610 609 316
f 369 608 376
f 370 318 368
f 367 322 667
f 361 364 672
f 322 364 361
f 322 614 364
f 357 309 360
f 364 309 357
f 318 617 614
f 363 359 364
f 363 358 359
f 617 626 671
f 617 362 626
f 368 323 370
f 616 323 368
f 626 627 671
f 362 660 625
f 323 660 362
f 616 662 323
f 662 369 349
f 376 668 661
f 668 315 661
f 320 372 371
f 372 365 612
f 372 320 365
f 371 609 320
f 316 609 371
f 610 665 321
f 321 664 615
f 321 665 664
f 665 603 664
f 379 374 663
f 379 384 374
f 374 314 663
f 374 667 314
f 373 667 374
f 373 367 667
f 384 373 374
f 607 318 373
f 607 368 318
f 623 624 310
f 367 614 322
f 373 318 367
f 600 607 373
f 672 364 357
f 614 363 364
f 367 318 614
f 607 616 368
f 614 617 363
f 318 370 617
f 608 616 607
f 363 671 358
f 370 362 617
f 608 607 600
f 370 323 362
f 626 625 627
f 362 625 626
f 600 376 608
f 616 369 662
f 618 348 660
f 600 668 376
f 369 376 349
f 600 375 668
f 668 611 315
f 605 319 668
f 375 605 668
f 600 605 375
f 605 372 612
f 605 612 317
f 606 372 605
f 606 371 372
f 313 366 636
f 465 606 605
f 606 316 371
f 317 365 622
f 612 365 317
f 606 666 316
f 622 365 621
f 325 628 311
f 673 631 325
f 378 631 673
f 523 352 378
f 377 629 382
f 670 522 378
f 623 620 312
f 377 620 623
f 602 604 377
f 620 619 312
f 604 620 377
f 603 458 664
f 619 663 613
f 604 379 620
f 601 379 604
f 379 663 620
f 380 459 665
f 663 314 613
f 384 379 601
f 601 604 602
f 602 377 382
f 350 381 629
f 340 381 350
f 340 599 381
f 656 599 340
f 329 599 656
f 329 509 599
f 508 509 329
f 11 350 629
f 11 340 350
f 341 340 11
f 341 656 340
f 328 508 329
f 328 472 508
f 641 644 643
f 641 328 644
f 653 328 641
f 653 472 328
f 624 644 310
f 360 644 624
f 643 644 360
f 354 643 360
f 654 653 641
f 654 472 653
f 654 473 472
f 331 473 654
f 343 642 309
f 343 331 642
f 655 331 343
f 655 473 331
f 359 343 309
f 342 473 655
f 342 511 473
f 358 634 359
f 639 634 358
f 639 330 634
f 330 511 342
f 640 511 330
f 510 511 640
f 640 330 639
f 651 510 640
f 470 510 651
f 630 351 627
f 630 651 351
f 652 651 630
f 652 470 651
f 652 471 470
f 327 630 348
f 327 326 630
f 326 471 652
f 327 471 326
f 327 513 471
f 338 513 327
f 333 513 338
f 333 512 513
f 376 512 333
f 468 512 376
f 661 468 376
f 332 468 661
f 469 468 332
f 649 332 315
f 649 469 332
f 650 469 649
f 658 469 650
f 515 469 658
f 636 650 313
f 335 515 658
f 335 658 339
f 514 515 335
f 339 636 366
f 646 514 335
f 646 466 514
f 334 466 646
f 345 339 621
f 344 646 345
f 334 646 344
f 637 466 334
f 637 467 466
f 647 467 637
f 12 635 353
f 645 344 635
f 657 467 647
f 657 517 467
f 638 517 657
f 337 464 516
f 324 3 464
f 461 3 324
f 337 324 464
f 336 461 324
f 648 516 517
f 648 337 516
f 347 337 648
f 347 336 337
f 346 336 347
f 346 461 336
f 523 461 346
f 659 311 12
f 669 311 659
f 325 311 669
f 523 378 522
f 321 659 320
f 458 670 664
f 522 670 458
f 459 603 665
f 458 603 459
f 365 659 353
f 365 320 659
f 609 321 320
f 609 610 321
f 606 380 666
f 465 380 606
f 459 380 465
f 605 317 319
f 465 605 600
f 638 648 517
f 638 347 648
f 352 523 346
f 631 378 352
f 339 622 621
f 339 366 622
f 338 618 349
f 348 618 338
f 348 625 660
f 630 625 348
f 627 625 630
f 382 629 381
f 377 623 629
f 600 373 384
f 533 396 594
f 535 545 394
f 393 387 388
f 390 537 438
f 588 398 397
f 595 585 439
f 546 545 572
f 568 422 404
f 563 418 575
f 563 556 418
f 580 579 431
f 556 566 418
f 431 566 556
f 402 400 426
f 408 564 407
f 426 400 427
f 427 383 406
f 433 383 427
f 405 406 573
f 558 399 553
f 578 557 409
f 581 557 578
f 581 547 557
f 557 420 409
f 547 541 565
f 420 419 571
f 420 565 419
f 541 419 565
f 423 593 415
f 593 572 415
f 412 398 577
f 545 398 412
f 403 569 411
f 398 432 403
f 569 432 424
f 548 549 424
f 570 554 414
f 424 554 570
f 424 549 554
f 413 416 561
f 413 559 416
f 559 430 416
f 559 560 430
f 560 582 430
f 561 429 562
f 416 429 561
f 416 430 429
f 562 429 568
f 582 401 430
f 429 421 568
f 430 421 429
f 430 551 421
f 401 551 430
f 421 583 422
f 551 583 421
f 588 432 398
f 387 547 586
f 586 547 596
f 595 399 585
f 585 584 439
f 441 580 555
f 434 580 441
f 400 402 385
f 433 584 383
f 399 596 581
f 547 581 596
f 387 541 547
f 435 548 432
f 549 548 587
f 587 548 442
f 597 549 587
f 527 598 457
f 545 546 394
f 440 385 438
f 537 439 440
f 387 586 388
f 587 542 597
f 587 594 542
f 542 550 436
f 542 589 550
f 589 443 550
f 443 457 550
f 533 392 391
f 533 451 392
f 451 450 392
f 388 448 540
f 595 389 448
f 595 447 389
f 389 447 537
f 446 537 390
f 537 446 389
f 440 400 385
f 438 537 440
f 439 584 433
f 596 448 388
f 448 596 595
f 584 585 383
f 596 399 595
f 393 388 540
f 387 393 536
f 536 541 387
f 590 593 536
f 541 536 423
f 590 572 593
f 535 397 545
f 534 442 449
f 450 534 449
f 534 594 442
f 450 594 534
f 450 451 594
f 396 533 589
f 533 532 589
f 589 532 443
f 532 456 443
f 452 395 453
f 453 395 525
f 465 452 453
f 452 390 444
f 452 444 395
f 452 446 390
f 528 446 452
f 465 528 452
f 528 448 389
f 434 579 580
f 434 402 579
f 386 402 434
f 386 385 402
f 528 540 448
f 440 433 400
f 440 439 433
f 537 447 439
f 447 595 439
f 528 529 540
f 519 529 528
f 529 393 540
f 388 586 596
f 529 536 393
f 529 590 536
f 519 590 529
f 590 455 394
f 519 455 590
f 536 593 423
f 590 546 572
f 394 546 590
f 455 535 394
f 455 10 535
f 454 450 10
f 545 397 398
f 449 588 397
f 10 449 535
f 449 435 588
f 10 450 449
f 588 435 432
f 449 442 435
f 454 392 450
f 454 526 392
f 518 526 454
f 526 391 392
f 435 442 548
f 436 582 552
f 598 582 436
f 598 401 582
f 527 401 598
f 527 551 401
f 527 583 551
f 520 583 527
f 456 463 443
f 538 390 438
f 539 395 538
f 538 444 390
f 395 444 538
f 539 525 395
f 445 525 539
f 525 465 453
f 459 525 445
f 465 525 459
f 437 539 538
f 441 539 437
f 441 445 539
f 458 445 441
f 459 445 458
f 458 441 522
f 417 523 555
f 417 461 523
f 575 461 417
f 575 3 461
f 8 3 575
f 556 417 555
f 563 417 556
f 563 575 417
f 431 555 580
f 431 556 555
f 575 675 8
f 418 675 575
f 425 431 579
f 425 566 431
f 576 418 566
f 576 675 418
f 426 425 579
f 402 426 579
f 426 566 425
f 428 566 426
f 564 566 428
f 564 576 566
f 564 408 576
f 408 675 576
f 408 674 675
f 407 674 408
f 433 427 400
f 427 428 426
f 407 428 427
f 407 564 428
f 405 407 427
f 6 674 407
f 406 405 427
f 405 6 407
f 573 6 405
f 573 406 383
f 1 6 573
f 558 383 585
f 558 573 383
f 399 558 585
f 410 573 558
f 410 574 573
f 574 1 573
f 410 1 574
f 581 553 399
f 553 410 558
f 2 1 410
f 578 410 553
f 578 2 410
f 578 553 581
f 578 676 2
f 409 676 578
f 420 557 547
f 565 420 547
f 420 676 409
f 571 676 420
f 571 4 676
f 419 4 571
f 423 419 541
f 423 4 419
f 415 4 423
f 5 4 415
f 572 5 415
f 572 677 5
f 412 572 545
f 412 677 572
f 7 677 412
f 577 7 412
f 403 7 577
f 403 577 398
f 16 7 403
f 411 16 403
f 569 403 432
f 569 16 411
f 592 16 569
f 570 569 424
f 570 592 569
f 424 432 548
f 591 592 570
f 414 591 570
f 413 591 414
f 413 15 591
f 560 554 549
f 559 554 560
f 559 414 554
f 413 414 559
f 552 560 549
f 561 15 413
f 561 544 15
f 562 544 561
f 404 14 543
f 567 531 14
f 460 531 567
f 404 567 14
f 404 460 567
f 422 460 404
f 562 543 544
f 562 404 543
f 568 404 562
f 520 460 422
f 542 552 597
f 542 436 552
f 550 598 436
f 457 598 550
f 521 527 457
f 520 527 521
f 396 542 594
f 589 542 396
f 463 457 443
f 521 457 463
f 391 532 533
f 524 532 391
f 524 456 532
f 462 456 524
f 463 456 462
f 442 594 587
f 451 533 594
f 526 524 391
f 518 524 526
f 462 524 518
f 535 449 397
f 455 454 10
f 519 454 455
f 518 454 519
f 421 422 568
f 583 520 422
f 560 552 582
f 549 597 552
f 522 555 523
f 441 555 522
f 441 386 434
f 437 386 441
f 538 386 437
f 538 385 386
f 538 438 385
f 528 389 446
f 519 528 465
f 486 495 494
f 486 489 495
f 486 488 489
f 487 488 486
f 497 488 487
f 497 492 488
f 496 492 497
f 496 491 492
f 496 490 491
f 484 490 496
f 484 9 490
f 485 9 484
f 485 493 9
f 499 493 485
f 499 13 493
f 499 530 13
f 498 530 499
f 498 531 530
f 498 14 531
f 482 14 498
f 482 543 14
f 483 543 482
f 483 544 543
f 501 544 483
f 501 15 544
f 500 15 501
f 480 15 500
f 480 591 15
f 481 591 480
f 481 592 591
f 481 16 592
f 503 16 481
f 502 16 503
f 502 7 16
f 502 677 7
f 478 677 502
f 478 5 677
f 479 5 478
f 479 4 5
f 505 4 479
f 505 676 4
f 504 676 505
f 504 2 676
f 476 2 504
f 476 1 2
f 477 1 476
f 507 1 477
f 507 6 1
f 506 6 507
f 506 674 6
f 474 674 506
f 474 675 674
f 475 675 474
f 475 8 675
f 509 8 475
f 468 513 512
f 469 513 468
f 515 513 469
f 515 471 513
f 514 471 515
f 514 470 471
f 466 470 514
f 466 510 470
f 467 510 466
f 467 511 510
f 467 473 511
f 517 473 467
f 517 472 473
f 516 472 517
f 464 472 516
f 464 508 472
f 464 509 508
f 3 509 464
f 8 509 3
# 677 vertices
# 0 texture params
# 0 normals
# 1350 facets

# 1 groups
