# WaveFront *.obj file (generated by Autodesk ATF)

mtllib shoulder_bracket_sinister_collision.mtl

g Body15

v 0.600000 -4.128150 11.185329
v 13.510320 -7.900000 -3.197919
v 10.775415 8.811336 -5.598798
v 10.489148 8.851579 -5.624463
v 11.229472 8.746754 -5.559308
v 3.052999 9.372141 -7.062650
v 6.608689 9.129814 6.092937
v 0.600000 -3.557704 11.377193
v 0.600000 -7.287127 9.463054
v 0.600000 -6.548026 9.981227
v 0.600000 -3.844124 11.284816
v 1.064031 3.825786 11.207965
v 1.166867 5.157343 10.641895
v 1.574433 6.602140 9.742480
v 2.512153 7.255464 9.083835
v 4.608596 7.389788 8.523242
v 6.682342 7.310697 8.134357
v 7.954778 7.236528 7.916484
v 9.464961 7.138174 7.666019
v 9.680091 7.131294 7.623714
v 9.803817 7.134926 7.592334
v 9.961429 7.145702 7.546565
v 10.157863 7.173363 7.475772
v 10.901971 7.402517 7.072887
v 11.460908 7.666241 6.656802
v 10.404817 7.899999 6.656802
v 10.766534 7.899999 6.564037
v 11.123405 7.899999 6.471782
v 11.475465 7.899999 6.380016
v 11.822753 7.899999 6.288745
v 12.324403 8.295698 5.618510
v 12.617379 8.559299 5.133220
v 11.701938 8.707807 5.182979
v 10.186374 8.954008 5.264514
v 8.215045 9.275305 5.368076
v 7.118053 9.455133 5.423419
v 6.026429 9.635408 5.475742
v 4.238893 9.936708 5.549411
v 2.508460 10.250200 5.580104
v 1.127034 10.622427 5.371982
v 0.600000 10.997049 4.802592
v 0.600000 10.870165 5.075481
v 0.600000 10.389158 5.947711
v 0.600000 9.797357 6.885432
v 0.600000 9.618870 7.127734
v 0.600000 9.016367 7.849208
v 0.600000 8.151367 8.738086
v 0.600000 7.757423 9.087497
v 0.600000 7.405872 9.370631
v 0.600000 7.045097 9.641910
v 0.600000 6.798679 9.814670
v 0.600000 6.548027 9.981227
v 0.600000 6.163970 10.218402
v 0.600000 5.772235 10.442676
v 0.600000 5.506230 10.583423
v 0.600000 5.031502 10.811252
v 0.600000 4.409605 11.078784
v 0.600000 4.128150 11.185329
v 0.600000 3.844125 11.284816
v 0.600000 3.557705 11.377193
v 0.600000 3.269069 11.462383
v 0.600000 2.832132 11.575687
v 0.600000 2.021404 11.740710
v 0.600000 1.500869 11.820194
v 0.600000 1.201818 11.853915
v 0.600000 0.902019 11.880176
v 0.600000 0.601659 11.898936
v 0.600000 0.300923 11.910205
v 0.600000 -0.000000 11.913959
v 0.600000 -0.300923 11.910205
v 0.600000 -1.518917 11.812488
v 0.600000 -2.095979 11.730403
v 0.600000 -2.391669 11.674403
v 0.600000 -2.685869 11.611034
v 0.600000 -2.978397 11.540347
v 0.600000 -3.269068 11.462383
v 1.166711 -5.165179 10.640262
v 1.448758 -6.374078 9.915469
v 0.600000 -4.409604 11.078784
v 0.600000 -4.894380 10.873187
v 0.600000 -5.999065 10.308849
v 0.600000 -6.798679 9.814670
v 0.600000 -7.045097 9.641910
v 0.600000 -7.524618 9.278209
v 0.600000 -7.757423 9.087497
v 0.600000 -7.985395 8.891032
v 0.600000 -8.317338 8.585147
v 0.600000 -9.018511 7.851032
v 0.600000 -9.526630 7.246616
v 0.600000 -9.883549 6.762088
v 0.600000 -10.310127 6.097614
v 0.600000 -10.997049 4.802592
v 1.515546 -10.486686 5.492152
v 3.122733 -10.133804 5.579471
v 4.548526 -9.882618 5.539829
v 8.434674 -9.239025 5.356532
v 9.678886 -9.036305 5.291415
v 11.404634 -8.755977 5.199092
v 11.947087 -8.667984 5.169727
v 12.242433 -8.620092 5.153667
v 12.432664 -8.589248 5.143298
v 12.617379 -8.559300 5.133220
v 12.418943 -8.375952 5.477306
v 12.135743 -8.138000 5.894290
v 11.822753 -7.900000 6.288745
v 11.032985 -7.900000 6.494968
v 10.404817 -7.900000 6.656802
v 6.608689 -7.813742 7.670184
v 6.608689 7.714922 7.768359
v 6.608689 8.271728 7.192889
v 6.608689 8.454876 6.981075
v 6.608689 8.717756 6.655505
v 6.608689 8.969538 6.321285
v 6.608689 9.284277 5.860614
v 6.608689 9.432417 5.625140
v 6.608689 -8.454876 6.981075
v 6.608689 -8.631962 6.765498
v 6.608689 -8.803552 6.545520
v 6.608689 -8.969538 6.321285
v 6.608689 -9.129814 6.092937
v 6.608689 -9.284277 5.860614
v 6.608689 -9.432997 5.624194
v 11.250276 7.899999 -6.728139
v 10.044698 7.899999 -7.036748
v 8.075572 7.899999 -7.526974
v 6.738101 7.899999 -7.850171
v 6.203080 7.981212 -7.894589
v 5.806089 8.046118 -7.922696
v 4.111655 8.418550 -7.938741
v 2.379563 9.106596 -7.588818
v 12.363679 8.582590 -5.465298
v 4.530919 9.488931 -6.469571
v 6.036435 9.395361 -6.153500
v 11.864690 8.655081 -5.506215
v 10.924691 8.790188 -5.585683
v 11.076038 8.768659 -5.572514
v 7.555509 9.236906 -5.930676
v 8.442344 9.125698 -5.829755
v 3.704324 -7.384007 8.724796
v 7.103597 -7.287933 8.060794
v 9.464961 -7.138175 7.666019
v 10.434369 -7.239171 7.348293
v 1.018455 2.453006 11.590411
v 0.995713 0.052610 11.836383
v 1.063748 -3.794257 11.212924
v 11.460908 -7.666240 6.656802
v 1.012118 2.110423 11.655315
v 1.027288 2.797125 11.508456
v 1.011714 -1.994981 11.664851
v 11.238702 -7.545995 6.843433
v 5.775556 -7.355894 8.295802
v 2.361737 -7.208538 9.151408
v 10.607080 9.145876 -2.577702
v 9.553697 -8.400000 0.427867
v 8.322484 -8.400000 -1.864941
v 9.374061 -7.900000 0.917766
v 13.600000 -7.900000 -2.154584
v 9.486308 8.399999 0.664706
v 9.486308 7.899999 0.664706
v 9.356671 -0.143429 8.629916
v 4.830861 0.759554 10.345195
v 6.299771 6.237638 8.657298
v 7.062528 -6.130260 8.501224
v 12.956494 7.899999 4.818195
v 8.652864 -8.400000 1.700435
v 12.674890 7.899999 5.307620
v 8.566180 -6.454531 8.035609
v 6.988736 2.982733 9.305225
v 4.668120 2.949163 10.131831
v 1.384463 1.640473 11.587848
v 8.027663 8.399999 1.952769
v 9.523652 7.899999 0.547328
v 8.447221 8.399999 1.804950
v 8.206306 8.399999 1.905887
v 8.853849 8.399999 1.558162
v 8.755548 8.399999 1.632396
v 9.035823 8.399999 1.392268
v 8.947391 8.399999 1.478015
v 9.441812 8.399999 0.779575
v 9.251199 8.399999 1.112590
v 13.562276 -7.900000 -2.832501
v 9.523652 8.399999 0.547328
v 9.504979 -7.900000 0.606021
v 2.214025 -7.900000 6.656802
v 8.206306 -8.400000 -1.905881
v 9.267205 -7.900000 1.104732
v 9.583900 -8.400000 0.245654
v 8.435920 -8.400000 -1.816930
v 9.504979 -8.400000 0.606021
v 8.900621 -8.400000 1.518085
v 9.121715 -8.400000 1.284030
v 9.441812 -8.400000 0.779575
v 13.372705 7.899999 3.766986
v 8.546187 -8.400000 1.762027
v 8.755548 -8.400000 1.632396
v 7.775361 6.326269 8.258258
v 8.034848 -2.931279 8.938670
v 4.772023 4.254591 9.792987
v 2.115857 -0.837073 11.386096
v 8.292752 -8.400000 1.873416
v 11.010434 5.133538 7.540187
v 9.553697 7.899999 0.427867
v 13.371053 -7.900000 3.802402
v 13.210973 -7.900000 4.264705
v 13.580869 -7.900000 2.599078
v 13.473996 -7.900000 3.379283
v 13.600000 -8.090610 2.050357
v 13.600000 -7.900000 2.154582
v 11.425298 -6.492412 6.991428
v 13.600000 -8.277806 1.940067
v 10.735929 -6.592199 7.377887
v 1.945846 -10.831319 -4.462071
v 9.553697 8.399999 0.427867
v 12.122422 -4.183156 6.843082
v 10.970128 -5.520556 7.486835
v 2.214025 -7.900000 2.000003
v 11.890397 -4.073008 7.070171
v 12.787744 -8.556388 4.379031
v 8.989736 -7.900000 1.422443
v 11.310899 -2.636260 7.645663
v 12.791196 -8.598367 -2.675702
v 8.765693 -8.400000 -1.619992
v 12.125964 0.143247 7.104892
v 12.381250 -8.664506 -3.700528
v 11.562778 3.427350 7.415950
v 11.135985 2.679323 7.757327
v 13.533193 7.899999 3.036105
v 11.188764 5.250315 7.411517
v 11.799646 4.404609 7.096286
v 7.633611 0.150123 9.284610
v 8.603250 -5.539599 8.263629
v 4.992181 5.083898 9.459552
v 1.762231 2.330853 11.332431
v 7.600000 -8.400000 2.000003
v 10.285901 2.484867 8.179080
v 11.030858 4.777108 7.577197
v 9.576331 7.899999 0.306781
v 9.932582 5.133109 7.982074
v 10.129483 3.922920 8.096431
v 9.564794 6.773535 7.738910
v 9.727426 6.117998 7.851413
v 1.361972 -10.128797 -6.218648
v 1.691880 -9.713574 -6.814366
v 1.007251 -10.958509 -4.676450
v 1.793447 -10.322383 -5.706792
v 11.399320 -4.526400 7.383502
v 2.021875 -11.600056 -0.390256
v 1.666751 -11.214689 -3.487256
v 9.576331 8.399999 0.306781
v 1.920312 -11.601743 0.896335
v 3.401803 -11.222993 -0.102856
v 2.214025 -7.900000 -1.999997
v 10.678426 -4.230979 7.832233
v 12.791104 -8.601763 -2.492581
v 12.737756 -8.614717 2.475795
v 8.755548 -7.900000 1.632396
v 11.426150 -0.885576 7.654445
v 12.381250 -8.731358 -1.054959
v 12.791284 -8.594739 -2.858754
v 9.121987 -8.400000 -1.283688
v 11.274636 0.716422 7.776935
v 12.381250 -8.629058 -4.524213
v 12.586606 -8.602988 -4.193875
v 11.878747 1.709856 7.274112
v 13.600000 7.899999 2.154582
v 11.771875 -8.697362 -5.173352
v 12.381250 -8.606137 -4.980328
v 9.023374 -3.617900 8.500034
v 7.849500 2.111232 9.101756
v 4.357144 6.327860 9.127208
v 1.701230 3.356283 11.117908
v 13.594388 -8.269293 2.206653
v 11.975000 -8.690451 -4.774121
v 9.512130 -9.222837 4.311404
v 11.260221 6.214821 7.160846
v 9.595260 7.899999 0.123065
v 10.756250 -9.187428 0.077541
v 10.375390 -8.973756 4.891940
v 10.730859 -9.189297 -0.555783
v 10.756250 -9.187350 -0.111432
v 10.756250 -9.152322 -1.715779
v 11.060937 -9.080200 -1.456113
v 10.502343 -9.023553 4.256320
v 10.756250 -9.052970 -3.356717
v 10.350000 -9.299607 -0.064557
v 11.137109 -9.012132 2.596980
v 1.007791 -11.540732 -2.892789
v 9.595260 8.399999 0.092273
v 10.350000 -9.105789 -3.794621
v 10.350000 -9.273521 -1.393750
v 7.600000 -7.900000 -1.999997
v 12.153791 -2.642594 6.965701
v 10.654687 -9.014306 -4.041798
v 7.506250 -9.931727 -2.574658
v 12.790120 -8.623469 -0.475339
v 8.652864 -7.900000 1.700435
v 10.718164 -9.170486 1.509959
v 10.019950 -9.221854 3.354007
v 12.791375 -8.590880 -3.041745
v 9.401500 -8.400000 -0.862653
v 10.248437 -9.064208 -4.357884
v 9.943750 -9.384372 -1.353864
v 12.381250 -8.637571 -4.341443
v 2.214025 7.899999 -1.999997
v 9.804101 -9.050032 -5.076787
v 9.943750 -9.053502 -4.882771
v 8.640321 -1.515217 8.855571
v 8.101396 4.508328 8.649127
v 6.442906 -4.901612 9.065341
v 2.262704 -2.107822 11.186046
v 13.596700 -8.006050 2.289081
v 11.924218 -8.802506 -2.911740
v 8.915670 -9.672729 1.103336
v 9.537500 -9.500192 -1.217648
v 9.959479 7.077900 7.565082
v 9.599052 7.899999 -0.061589
v 8.115712 -9.854184 -1.729184
v 8.449388 -9.805959 -0.977719
v 8.191821 -9.596522 -3.736562
v 8.345990 -9.756924 -2.169347
v 7.811015 -9.942561 1.627856
v 8.523229 -9.177564 -5.559499
v 6.592187 -9.783125 4.572627
v 7.963294 -9.712376 -3.346753
v 7.620595 -9.655929 4.130641
v 7.506250 -9.595171 4.557063
v 1.007852 -11.589595 -2.683629
v 9.568799 8.399999 -0.336766
v 7.392041 -10.115114 -0.332783
v 7.747592 -9.795504 3.141177
v 7.981900 -7.900000 -1.958920
v 10.756250 -8.923716 -4.706906
v 6.185937 -10.270514 2.569995
v 8.001451 -9.831333 2.323489
v 12.790399 -8.620121 -1.048795
v 8.546187 -7.900000 1.762027
v 6.592187 -10.309722 1.068820
v 6.357324 -10.306841 1.887775
v 12.791608 -8.579465 -3.521664
v 9.529338 -8.400000 -0.516942
v 6.287500 -10.377559 -1.321873
v 6.185937 -10.424058 -1.023038
v 2.214025 7.899999 2.000003
v 6.185937 -10.337462 -2.047543
v 6.287500 -10.362087 -1.521764
v 13.444913 8.182001 3.387149
v 13.565057 8.337324 2.588298
v 4.640103 -4.047363 9.891238
v 2.724481 5.957028 9.768924
v 13.552457 -8.248496 2.730434
v 12.038581 -8.809731 1.764697
v 5.728906 -10.400108 -2.483823
v 5.475000 -9.743619 -5.450665
v 9.537608 -9.473036 -1.769559
v 10.411656 6.745024 7.480647
v 9.583900 7.899999 -0.245663
v 6.084375 -10.477181 -0.370641
v 5.881250 -10.525178 0.638004
v 5.678125 -10.566946 -0.954037
v 5.881250 -10.522611 -0.724667
v 5.982812 -10.428858 -1.690457
v 5.678125 -10.542355 -1.332417
v 6.185937 -9.757434 -4.965649
v 6.363671 -10.141155 -3.112325
v 5.674951 -10.261018 3.350856
v 5.475000 -10.072566 4.372073
v 1.210406 -11.782512 -1.089780
v 9.473395 8.399999 -0.692792
v 5.982812 -10.505629 0.284808
v 5.475000 -10.470086 2.455829
v 8.206306 -7.900000 -1.905881
v 5.475000 -10.514047 -2.141545
v 5.678125 -10.592098 -0.119664
v 7.404760 -10.100139 0.791537
v 12.790567 -8.617196 -1.392789
v 8.435920 -7.900000 1.816928
v 6.192285 -10.070555 -3.705289
v 5.475000 -10.374526 -3.038831
v 12.792134 -8.548907 -4.593823
v 9.576331 -8.400000 -0.306783
v 6.617578 -10.321491 -0.666852
v 7.600000 7.899999 2.000003
v 5.475000 -9.837476 -5.169171
v 5.576562 -10.024970 -4.464001
v 13.473573 8.031353 3.333583
v 13.515950 8.157726 3.035327
v 5.842961 -2.915992 9.728679
v 2.925698 -5.353570 9.986751
v 13.498967 -8.233516 3.107082
v 12.483182 -8.652125 3.405307
v 6.490625 -10.186512 -2.607915
v 3.646321 -11.146787 -0.512372
v 5.475000 -9.678195 -5.636800
v 9.081420 -9.551018 -2.349316
v 11.675769 7.103401 6.656802
v 9.553697 7.899999 -0.427869
v 3.418164 -10.916622 2.910068
v 3.442609 -11.193220 -0.747899
v 3.494462 -11.158762 1.041324
v 3.037585 -11.225815 1.652789
v 3.037631 -11.314337 -0.542485
v 3.037608 -11.315783 0.504932
v 3.037648 -11.256429 -1.378110
v 3.037635 -11.304585 -0.751752
v 2.542520 -11.342931 -1.781705
v 3.240066 -11.185141 -1.530438
v 1.210454 -11.809859 -0.715771
v 9.286752 8.399999 -1.062360
v 3.392163 -11.078950 -2.037305
v 3.037662 -11.179958 -2.001080
v 8.322484 -7.900000 -1.864941
v 3.646798 -9.809761 -6.080655
v 3.291318 -10.694682 -3.931897
v 7.252343 -10.112646 -1.360562
v 12.585954 -8.669308 -1.592267
v 8.130813 -7.900000 1.921451
v 2.225000 -11.486535 -1.286885
v 2.529779 -11.109796 -3.064580
v 12.381250 -8.609937 4.910289
v 9.595260 -8.400000 -0.092267
v 8.530557 7.899999 1.765575
v 2.225000 -11.530215 0.721584
v 2.631307 -11.432578 0.349918
v 12.854169 8.207300 4.891330
v 12.306485 7.907896 5.792285
v 5.118445 -1.927041 10.136417
v 2.943719 -1.807580 10.974292
v 13.435895 -8.260664 3.395015
v 11.848046 -8.716501 4.732913
v 6.490625 -9.873082 -4.284756
v 1.539628 -11.665775 1.348605
v 0.600000 -11.992843 0.414401
v 5.678125 -9.563366 -5.855984
v 9.892968 -9.305726 -2.821309
v 11.990716 5.961561 6.656802
v 9.523652 7.899999 -0.547330
v 13.253591 -8.471582 -3.890538
v 13.458371 -8.432460 -3.191151
v 12.644597 -8.556045 -5.090085
v 12.961064 -8.517713 -4.565587
v 0.600000 -8.400000 2.000003
v 0.600000 -8.400000 -1.999997
v 0.600000 -7.900000 -1.999997
v 0.600000 -7.900000 2.000003
v 0.600000 8.399999 -1.999997
v 0.600000 8.399999 2.000003
v 1.008498 -11.878140 -0.449055
v 9.035823 8.399999 -1.392270
v 0.600000 7.899999 2.000003
v 0.600000 7.899999 -1.999997
v 8.663753 -7.900000 -1.688672
v 0.600000 -11.531061 3.312412
v 0.600000 -11.276166 4.101871
v 7.100000 -10.033842 -2.588010
v 12.790746 -8.613001 -1.759564
v 7.723123 -7.900000 1.996204
v 0.600000 -11.897948 1.541507
v 0.600000 -11.716386 2.581409
v 12.381250 -8.634648 4.399951
v 9.003070 7.899999 1.414142
v 0.600000 -11.978631 0.715823
v 0.600000 -11.956844 1.016803
v 13.600000 8.184202 1.995212
v 13.297238 8.201906 3.891437
v 6.013503 0.282820 9.910190
v 2.578649 -4.095400 10.588092
v 13.407697 -8.292837 3.491794
v 11.721093 -8.792862 3.978465
v 5.678125 -9.846391 5.013232
v 1.768151 -11.471081 2.270107
v 0.600000 -10.421542 -5.949071
v 0.600000 -11.996854 -0.113583
v 3.202531 -10.369786 4.958575
v 9.537500 -9.378211 -2.982892
v 12.254403 4.483042 6.656802
v 9.464059 7.899999 -0.722134
v 0.600000 -10.109281 -6.465482
v 0.600000 -10.268659 -6.209241
v 0.600000 -9.593216 -7.209035
v 0.600000 -9.857482 -6.841580
v 13.060426 8.529905 -2.777264
v 0.600000 -9.408913 -7.447980
v 12.685861 8.577829 -4.352978
v 13.168355 8.515800 -1.373708
v 12.571675 8.591034 4.585429
v 12.768453 8.611009 2.126582
v 1.210546 -11.829245 -0.179890
v 8.789079 8.399999 -1.599957
v 1.437890 11.762544 -0.293546
v 1.006250 11.780084 -1.588925
v 8.968221 -7.900000 -1.455182
v 1.260156 11.667402 1.873386
v 1.006250 11.820684 1.262462
v 8.045823 -9.476803 -4.590962
v 12.790837 -8.610546 -1.942899
v 7.600000 -7.900000 2.000003
v 1.818750 10.861059 -4.459653
v 1.399804 11.086428 4.096492
v 9.374061 7.899999 0.917766
v 1.564843 11.699308 -0.880902
v 1.602929 11.215723 -3.541028
v 13.475465 -8.174781 -3.241315
v 13.592939 -8.159326 -2.306485
v 5.964776 2.340755 9.773074
v 3.083808 0.052259 11.040073
v 13.009938 -8.239437 4.592899
v 11.619531 -8.912625 -2.027013
v 5.881250 -10.084370 3.966731
v 7.779216 -9.348534 -5.365002
v 1.818750 11.662220 -0.079663
v 5.271875 10.515795 2.500858
v 0.600000 -11.961983 -0.942441
v 2.601087 -10.831192 4.004214
v 9.867578 -9.250669 -3.458707
v 12.421071 2.913149 6.656802
v 9.314197 7.899999 -1.025235
v 1.399804 11.565897 -2.292294
v 2.770898 11.376682 0.749774
v 2.834375 10.778118 -4.007527
v 1.945703 10.629043 -4.969388
v 2.935937 11.350138 0.228000
v 3.291406 11.108019 2.023952
v 2.935937 10.972938 -3.205281
v 2.694726 11.270304 -1.981587
v 3.443750 11.018755 2.344310
v 3.495607 10.299810 -4.982754
v 1.109754 -11.834389 0.758289
v 8.190290 8.399999 -1.906506
v 3.984403 10.581606 3.689502
v 3.126863 11.280500 -0.687207
v 9.157422 -7.900000 -1.253247
v 3.076171 9.904112 -6.081776
v 3.648267 10.753092 -3.383466
v 6.795312 -10.149880 2.279300
v 12.790925 -8.607853 -2.126179
v 7.600000 -8.400000 -1.999997
v 2.015527 11.311277 2.750339
v 3.622636 10.537472 -4.200650
v 4.504563 10.906336 -0.443448
v 4.891589 10.730604 1.567477
v 13.222020 -8.152960 -4.137135
v 13.562924 -8.205723 -2.656369
v 5.672416 3.327118 9.711261
v 2.919356 3.794454 10.551357
v 13.150579 -8.243146 4.274539
v 11.771875 -8.802482 -3.636502
v 5.678125 -10.553576 1.170062
v 13.029386 -8.507907 4.428577
v 1.666406 11.693270 0.457164
v 5.982812 10.490732 -0.774472
v 5.144921 10.731975 0.537601
v 0.600000 -11.918875 -1.392995
v 3.850000 -10.996957 1.738895
v 9.131250 -9.213231 4.846713
v 12.524484 0.327132 6.656802
v 9.196035 7.899999 -1.205266
v 5.932031 10.189394 -3.416653
v 5.906640 10.409864 -2.044362
v 6.084375 10.246431 -2.891576
v 6.300195 10.138222 3.194156
v 5.421083 9.644232 -5.751347
v 5.932031 10.065040 -3.993802
v 6.693750 10.261888 -1.379765
v 7.518945 10.057936 1.003940
v 6.490625 9.857103 -4.353558
v 6.858789 10.171839 -1.920483
v 1.110234 -11.512929 2.890781
v 7.600000 8.399999 -1.999997
v 6.909570 9.722254 4.522685
v 6.458886 9.699503 -4.985242
v 9.314197 -7.900000 -1.025235
v 3.953809 11.013361 -1.290738
v 3.940145 11.053636 0.725894
v 7.557164 -10.068987 0.420146
v 12.484571 -8.682799 -2.307629
v 8.087827 -8.400000 -1.939595
v 4.156301 10.905397 -1.793607
v 4.283109 9.644634 -6.212064
v 4.028903 10.862917 2.343509
v 12.949502 -8.280474 -4.681714
v 12.397058 -8.296545 -5.528363
v 6.086595 4.569121 9.273494
v 4.161920 -6.177519 9.255481
v 12.808622 -8.182229 4.982303
v 11.873437 -8.753641 -4.091985
v 13.244512 -8.473775 3.934573
v 2.326562 11.420973 1.617473
v 7.430078 10.100569 -0.470624
v 10.629296 9.219940 0.399219
v 4.764062 10.679266 -2.288907
v 0.600000 -11.880079 -1.692250
v 3.850000 -11.019975 1.533160
v 9.194909 -9.548933 1.980685
v 12.500661 -1.479208 6.656802
v 9.077317 7.899999 -1.346753
v 8.420312 9.417410 -4.495633
v 8.153710 9.851648 -1.616200
v 8.864648 9.710855 0.075763
v 8.826562 9.692873 1.181682
v 8.153710 9.250019 -5.515713
v 8.826562 9.411230 -4.027562
v 9.131250 9.291618 -4.380116
v 9.435937 9.456438 2.380298
v 10.058007 9.196178 3.554202
v 9.366113 9.392734 -3.226681
v 1.412500 -10.753504 -4.951268
v 11.788690 -7.900000 -6.316449
v 9.537500 9.199938 -4.417638
v 9.823144 9.435282 -0.724255
v 9.473395 -7.900000 -0.692792
v 10.350000 8.969187 4.951633
v 10.261132 9.035185 4.568843
v 10.223046 9.319326 1.010562
v 10.045312 9.339308 -1.714795
v 9.921533 9.000532 -5.250470
v 0.600000 11.349953 3.887927
v 2.214025 7.899999 6.656802
v 13.600000 -8.121651 -2.031720
v 7.862207 -4.611187 8.700336
v 3.065538 -2.870255 10.740649
v 12.407109 -8.171860 5.573413
v 11.568750 -8.777935 -4.612500
v 13.344735 -8.455156 3.641269
v 1.323632 11.330656 3.371005
v 7.734765 9.821146 -2.980206
v 12.178125 8.626936 -5.210835
v 10.629296 9.007273 -4.167165
v 5.678125 10.005441 4.460277
v 0.600000 -11.833772 -1.990437
v 3.850000 -11.099461 -0.122288
v 9.956445 -9.404169 0.515445
v 12.356443 -3.641133 6.656802
v 8.947391 7.899999 -1.478017
v 12.927144 8.552673 3.355518
v 11.517968 8.960655 -1.270825
v 11.245019 9.024473 1.665393
v 11.340234 8.958237 2.651828
v 11.848046 8.807869 -3.127042
v 12.739881 8.635816 0.314395
v 13.600000 8.400011 1.862239
v 11.975000 8.706503 -4.525265
v 13.574548 8.406395 2.432773
v 13.596608 8.400904 2.080661
v 1.210229 -11.564229 -2.545132
v 12.228238 -7.900000 -5.880338
v 13.320115 8.459932 3.706439
v 13.510572 8.421209 2.929721
v 9.568799 -7.900000 -0.336766
v 13.114453 8.495294 4.251369
v 12.930089 8.522306 4.628551
v 12.850621 8.532690 4.769901
v 12.795114 8.539516 4.862567
v 10.756250 8.879768 5.082927
v 0.600000 11.985737 0.565112
v 0.600000 11.668205 2.763744
v 12.433538 7.899999 5.639697
v 12.164613 7.899999 5.950816
v 6.909730 -2.146729 9.446002
v 3.568040 1.832510 10.726047
v 12.110646 -7.971416 5.986675
v 11.568750 -8.751735 -4.933286
v 13.374971 -8.449160 3.539157
v 1.412500 11.702673 1.345073
v 7.100000 9.919052 -3.362241
v 0.600000 11.999471 0.112712
v 12.420465 8.060156 -5.595929
v 11.010156 8.876379 4.712772
v 5.475000 10.155054 4.057208
v 0.600000 -11.779981 -2.287366
v 3.595664 -11.132274 -1.044736
v 8.751233 -9.740763 -0.180035
v 12.092580 -5.435851 6.656802
v 8.853849 7.899999 -1.558163
v 0.600000 10.707447 -5.417622
v 0.600000 10.933042 -4.940244
v 0.600000 10.421543 -5.949071
v 0.600000 10.567837 -5.685139
v 0.600000 9.983381 -6.653531
v 0.600000 10.268659 -6.209241
v 13.585397 8.192224 -2.413525
v 13.597756 8.232473 -2.141148
v 13.435781 8.265188 -3.393323
v 13.529088 8.210752 -2.890981
v 1.362626 -11.785753 0.221240
v 12.575891 -7.900000 -5.444081
v 13.370839 8.213035 -3.663251
v 13.287923 8.394766 -3.848309
v 9.599052 -7.900000 0.000003
v 12.996804 8.304359 -4.592259
v 13.214330 8.400484 -4.053311
v 13.189225 8.200212 -4.199277
v 10.756250 9.169294 1.229587
v 13.305162 7.985658 -3.979024
v 13.166558 8.487146 -4.135319
v 0.600000 11.868402 1.765872
v 12.557889 7.899999 5.476283
v 6.330228 -0.873366 9.770732
v 4.003526 -0.825471 10.660556
v 13.597711 -8.329457 2.085620
v 11.568750 -8.719556 -5.298734
v 13.475968 -8.427856 3.089618
v 1.628320 11.406956 -2.777676
v 7.100000 9.891155 -3.523648
v 0.600000 11.994238 -0.339871
v 13.369481 7.899999 -3.809636
v 11.950479 8.087602 -6.101659
v 11.162500 9.059397 1.222644
v 5.348046 10.338989 3.350131
v 0.600000 -11.718741 -2.582852
v 3.850000 -11.009503 -1.621426
v 9.791406 -9.451380 -0.358044
v 11.616452 -7.256892 6.656802
v 8.755548 7.899999 -1.632397
v 13.566552 7.899999 -2.783994
v 13.445958 7.899999 -3.505399
v 13.600000 7.899999 -2.154584
v 13.590982 7.899999 -2.491421
v 13.600000 8.153602 -2.014630
v 13.600000 8.027605 -2.086095
v 13.600000 8.400011 -1.862241
v 13.600000 8.277807 -1.940060
v 13.539189 8.414110 -2.755505
v 13.587205 8.403030 -2.222165
v 1.629159 -11.310808 3.154498
v 12.926332 -7.900000 -4.888158
v 13.348020 8.454405 -3.625302
v 13.485074 8.426081 -3.075131
v 9.591468 -7.900000 0.184535
v 13.205819 8.480604 -4.038472
v 13.243753 8.474027 -3.939366
v 13.079167 8.082973 -4.512463
v 12.546872 8.566091 -5.229268
v 13.070909 8.502100 -4.349499
v 0.600000 11.942171 1.166965
v 6.646951 1.611915 9.598041
v 3.784255 5.317123 9.743556
v 12.057666 -7.900000 6.063785
v 11.568750 -8.702673 -5.481015
v 13.567689 -8.407601 2.517246
v 1.361718 10.968811 -4.447614
v 7.925195 9.732250 3.282558
v 0.600000 11.961984 -0.942441
v 1.956195 -3.106951 -11.095441
v 3.623120 -7.900000 -8.403058
v 13.486726 8.048393 -3.248105
v 11.568750 8.959396 0.521754
v 4.034997 10.794992 -2.733487
v 0.600000 -11.650090 -2.876698
v 3.672200 -10.711383 -3.535809
v 9.131250 -9.266552 -4.530820
v 9.682897 -6.296529 7.820544
v 8.529817 7.899999 -1.763821
v 1.151469 -8.122554 -8.716237
v 1.467853 2.279194 -11.452069
v 1.019595 7.650366 -9.140683
v 1.410720 5.838342 -10.226041
v 1.900748 -4.154037 -10.803746
v 1.741151 -0.174162 -11.557492
v 1.404725 -1.577242 -11.583997
v 0.998616 -2.338919 -11.617963
v 1.484149 7.520513 -9.134091
v 1.680461 5.047833 -10.528432
v 1.192613 -11.042342 4.342456
v 13.088304 -7.900000 -4.567082
v 1.403226 0.980072 -11.649464
v 1.313314 6.816477 -9.677441
v 9.576331 -7.900000 0.306781
v 13.281118 8.467264 -3.835561
v 12.667394 8.316871 -5.145978
v 1.539971 -6.999314 -9.499295
v 0.600000 8.585878 -8.374814
v 12.838357 8.533686 -4.784680
v 5.743737 -7.900000 -8.015927
v 5.477592 -5.849953 9.033557
v 8.875012 3.172463 8.608600
v 12.448770 -7.900000 5.615314
v 12.376073 -8.738389 0.031596
v 13.590623 -8.402241 2.198779
v 1.412500 10.291075 -5.909200
v 7.690332 9.914730 2.287692
v 0.600000 11.899477 -1.542622
v 1.289336 4.181528 -10.996526
v 2.214025 -2.506118 -11.132237
v 2.214025 -7.900000 -8.683781
v 11.763352 7.899999 -6.334836
v 11.162500 8.865194 -4.508443
v 4.676122 10.387955 -3.861142
v 0.600000 -11.532404 -3.313741
v 3.621175 -10.312604 -4.876447
v 8.268102 -9.376971 4.856265
v 9.948306 -5.047863 7.991519
v 8.116984 7.899999 -1.929326
v 2.214025 0.435771 -11.367230
v 2.214025 -0.958629 -11.331670
v 2.214025 1.987776 -11.225911
v 2.214025 1.461792 -11.296246
v 2.214025 3.988193 -10.750531
v 2.214025 2.996042 -11.024792
v 2.214025 6.356966 -9.713734
v 2.214025 5.209505 -10.272603
v 2.214025 7.899999 -8.683781
v 2.214025 7.005220 -9.313000
v 2.123437 -10.594341 -4.969479
v 13.152845 -7.900000 -4.420384
v 6.169149 7.899999 -7.943043
v 5.601506 7.899999 -8.039159
v 9.553697 -7.900000 0.427867
v 5.203570 -8.111842 -7.981046
v 0.600000 7.851942 -9.073285
v 0.600000 9.218660 -7.682210
v 0.600000 7.269747 -9.547292
v 0.600000 7.506416 -9.362355
v 9.498277 0.949941 8.555682
v 12.673699 -7.900000 5.310161
v 11.568750 -8.952041 -1.095914
v 13.600000 -8.400010 1.862239
v 1.475976 9.926931 -6.519513
v 7.709375 9.658399 -4.028188
v 0.600000 11.762808 -2.360875
v 1.942708 4.321797 -10.732037
v 0.600000 7.028524 -9.726247
v 0.600000 -8.296128 -8.669003
v 2.214025 -7.310336 -9.114430
v 12.237203 7.899999 -5.864713
v 11.568750 8.753927 4.904865
v 5.982812 9.814630 4.916537
v 0.600000 -11.351226 -3.889325
v 3.850000 -9.594747 -6.460515
v 9.029885 -9.482738 -3.151379
v 10.192491 -3.428442 8.130618
v 7.600000 7.899999 -1.999997
v 0.600000 4.678368 -11.050465
v 0.600000 5.089470 -10.866223
v 0.600000 2.952783 -11.625485
v 0.600000 4.259941 -11.217412
v 0.600000 1.646654 -11.885541
v 0.600000 2.239339 -11.788251
v 0.600000 0.900243 -11.966183
v 0.600000 1.199446 -11.939908
v 0.600000 -0.300331 -11.996243
v 0.600000 0.225201 -11.995297
v 3.021417 -11.089715 -2.563092
v 13.255105 -7.900000 -4.155026
v 3.834651 7.899999 -8.362180
v 2.777232 7.899999 -8.568272
v 0.600000 -2.165241 -11.800412
v 0.600000 -1.273871 -11.929593
v 0.600000 -4.048059 -11.293858
v 0.600000 -7.471543 -9.378873
v 0.600000 -6.094532 -10.319852
v 12.808293 -7.900000 5.095447
v 10.959375 -9.051481 -2.671216
v 13.600000 -8.400010 -1.862241
v 2.504296 10.628897 4.668338
v 8.420312 9.831737 0.331928
v 0.600000 11.551409 -3.240735
v 1.942708 5.400965 -10.287869
v 0.600000 6.782898 -9.899106
v 7.371621 -8.886992 -6.503781
v 0.600000 -8.719529 -8.243008
v 2.214025 -6.118878 -9.835614
v 12.640123 7.899999 -5.356488
v 11.543359 8.809793 4.252292
v 6.185937 10.408977 1.239299
v 0.600000 -11.197361 -4.314984
v 3.481591 -11.053814 2.049518
v 9.093743 -9.375920 -3.868878
v 10.323815 -1.987827 8.198184
v 7.600000 8.399999 2.000003
v 7.371621 -8.007504 -7.584111
v 7.371621 -8.314783 -7.235608
v 3.667710 -8.531158 -7.926450
v 4.939130 -8.208512 -7.962468
v 3.540015 -9.435307 -6.834996
v 2.379563 -9.106595 -7.588818
v 4.413680 -9.493107 -6.498174
v 4.279845 -9.493855 -6.537030
v 5.127923 -9.467127 -6.321835
v 4.979596 -9.475063 -6.354840
v 1.818750 -11.596768 -1.293393
v 13.405568 -7.900000 -3.672520
v 0.600000 -0.600475 -11.984967
v 0.600000 -4.883919 -10.958340
v 0.600000 -3.297406 -11.533734
v 6.225034 -9.380829 -6.117963
v 5.902661 -9.410298 -6.171757
v 12.968988 -7.900000 4.811290
v 11.162500 -8.948099 -3.501920
v 13.572778 -8.406828 -2.456006
v 2.770898 10.973781 3.358699
v 8.528222 9.350694 4.728381
v 0.600000 11.400133 -3.746594
v 1.631383 -5.521276 -10.326154
v 0.600000 6.533022 -10.065762
v 9.119578 -9.038992 -5.755353
v 10.321250 -8.875036 -5.639622
v 0.600000 -9.023505 -7.910519
v 2.214025 -5.104909 -10.331845
v 12.961660 7.899999 -4.818295
v 11.568750 8.962259 -0.147885
v 6.363671 10.400616 0.129108
v 0.600000 -11.025796 -4.733823
v 3.443002 -11.133832 1.489169
v 8.727452 -9.344525 -4.551366
v 10.390439 -0.215920 8.230716
v 7.723123 8.399999 1.996204
v 12.363679 -8.582589 -5.465298
v 11.543725 -8.701620 -5.532651
v 10.988559 -7.900000 -6.796071
v 11.250276 -7.900000 -6.728139
v 7.371621 9.003269 -6.341977
v 6.738101 -7.900000 -7.850171
v 11.956889 8.295334 -6.017789
v 7.371621 8.484627 -7.031476
v 4.833850 -9.481697 -6.388936
v 4.620788 -9.488874 -6.442364
v 1.920312 -11.613743 -0.709088
v 5.568891 -9.436828 -6.233411
v 13.034234 -7.900000 4.681644
v 11.162500 -8.773335 -5.412503
v 13.528615 -8.417230 -2.832806
v 2.732812 11.330530 1.453403
v 8.585351 9.776251 -0.713551
v 0.600000 11.249842 -4.173520
v 1.037206 -3.391462 -11.342587
v 0.600000 6.051523 -10.357556
v 8.062928 -9.173401 -5.872632
v 9.516543 -8.985723 -5.715688
v 9.917499 -8.930982 -5.677121
v 0.600000 -9.218660 -7.682210
v 2.214025 -4.123644 -10.695966
v 13.270604 7.899999 -4.108258
v 11.314843 8.777691 -5.112592
v 5.881250 10.532673 -0.412640
v 0.600000 -10.738964 -5.349026
v 3.646405 -11.150562 0.397113
v 9.030339 -9.128066 -5.392895
v 10.375096 1.069055 8.223293
v 7.845777 8.399999 1.984843
v 11.133933 -8.760352 -5.567540
v 10.726609 -8.818150 -5.603146
v 11.574315 -8.063002 -6.439709
v 12.062284 -8.367665 -5.880887
v 8.363662 -7.900000 -7.456189
v 10.152196 -7.900000 -7.010281
v 7.371621 8.185888 -7.387372
v 7.371621 8.850050 -6.558873
usemtl Paint_-_Metal_Flake_(Aqua)
f 208 618 157
f 207 618 208
f 210 618 207
f 816 618 210
f 853 618 816
f 216 617 184
f 216 343 617
f 252 343 216
f 304 343 252
f 304 802 801
f 304 799 802
f 304 800 799
f 304 797 800
f 304 798 797
f 795 798 304
f 304 796 795
f 304 793 796
f 252 793 304
f 252 794 793
f 783 794 252
f 252 931 783
f 252 898 931
f 252 861 898
f 252 823 861
f 252 784 823
f 107 184 617
f 107 712 146
f 107 672 712
f 632 672 107
f 107 594 632
f 617 594 107
f 617 555 594
f 26 555 617
f 515 555 26
f 26 475 515
f 26 435 475
f 26 395 435
f 25 395 26
f 144 149 199
f 14 349 15
f 152 139 388
f 310 427 199
f 310 199 149
f 427 505 199
f 427 698 505
f 388 583 348
f 348 426 620
f 270 16 15
f 151 583 139
f 620 310 149
f 427 310 620
f 426 161 698
f 348 309 387
f 199 505 144
f 505 698 161
f 620 698 427
f 426 698 620
f 697 161 426
f 774 163 309
f 387 658 426
f 697 465 161
f 163 619 309
f 697 230 465
f 162 196 17
f 140 141 163
f 466 149 145
f 620 149 466
f 141 167 163
f 505 659 144
f 505 161 659
f 140 163 151
f 231 619 163
f 309 348 774
f 619 197 309
f 196 240 18
f 240 19 18
f 167 231 163
f 163 774 151
f 774 348 583
f 268 197 619
f 466 145 77
f 162 17 16
f 196 18 17
f 162 16 270
f 238 241 240
f 232 270 736
f 232 162 270
f 308 196 162
f 308 240 196
f 736 270 349
f 308 238 240
f 239 238 308
f 582 162 232
f 582 308 162
f 544 736 349
f 198 232 736
f 582 232 198
f 544 349 13
f 168 308 582
f 775 239 308
f 544 198 736
f 543 582 198
f 235 239 775
f 169 198 544
f 543 168 582
f 271 13 12
f 543 198 169
f 168 775 308
f 148 271 12
f 271 544 13
f 269 775 168
f 659 169 544
f 504 168 543
f 169 504 543
f 233 544 271
f 735 168 504
f 269 168 735
f 813 775 269
f 659 544 233
f 230 269 735
f 659 233 170
f 230 813 269
f 144 659 170
f 465 230 735
f 160 813 230
f 868 307 197
f 791 830 268
f 231 268 619
f 231 791 268
f 167 751 231
f 813 235 775
f 161 504 169
f 938 235 813
f 161 169 659
f 465 504 161
f 465 735 504
f 348 620 466
f 658 697 426
f 658 230 697
f 938 813 905
f 388 466 77
f 348 387 426
f 307 230 658
f 307 160 230
f 905 813 160
f 348 466 388
f 868 160 307
f 905 160 868
f 388 77 78
f 658 387 309
f 197 658 309
f 197 307 658
f 167 141 751
f 231 751 791
f 151 774 583
f 268 830 868
f 388 139 583
f 197 268 868
f 78 152 388
f 170 147 144
f 233 147 170
f 233 143 147
f 233 148 143
f 271 148 233
f 349 14 13
f 270 15 349
f 647 227 347
f 647 386 227
f 346 386 646
f 346 227 386
f 385 227 346
f 464 646 649
f 346 646 464
f 647 646 386
f 643 642 347
f 265 463 643
f 227 265 643
f 347 227 643
f 424 166 164
f 31 166 424
f 31 696 166
f 656 696 31
f 657 656 425
f 30 657 425
f 425 31 30
f 656 31 425
f 464 164 193
f 424 164 464
f 640 643 463
f 642 647 347
f 385 193 227
f 346 193 385
f 464 193 346
f 649 424 464
f 650 424 649
f 651 424 650
f 652 424 651
f 32 424 652
f 32 31 424
f 463 720 640
f 463 721 720
f 463 718 721
f 463 719 718
f 463 716 719
f 265 716 463
f 542 157 503
f 685 580 581
f 581 580 439
f 502 437 881
f 440 439 580
f 580 437 440
f 541 437 580
f 502 438 437
f 921 438 542
f 889 542 503
f 853 889 503
f 618 853 503
f 503 157 618
f 542 181 157
f 921 542 889
f 502 181 542
f 2 181 502
f 502 881 2
f 541 881 437
f 843 881 541
f 804 843 541
f 580 804 541
f 764 804 580
f 502 542 438
f 580 725 764
f 685 725 580
f 907 581 439
f 645 685 581
f 910 607 942
f 942 607 943
f 645 943 607
f 645 581 943
f 907 943 581
f 304 845 844
f 801 845 304
f 831 806 805
f 831 844 806
f 304 844 831
f 265 276 316
f 265 237 276
f 265 202 237
f 172 202 265
f 382 617 343
f 382 26 617
f 421 26 382
f 460 26 421
f 460 27 26
f 460 28 27
f 29 28 460
f 29 657 30
f 29 656 657
f 460 656 29
f 460 696 656
f 460 166 696
f 164 166 460
f 499 164 460
f 193 164 499
f 227 193 499
f 499 265 227
f 265 159 172
f 265 499 159
f 316 716 265
f 717 716 316
f 316 714 717
f 316 715 714
f 316 705 715
f 932 705 316
f 316 899 932
f 316 862 899
f 316 824 862
f 316 785 824
f 785 124 123
f 316 124 785
f 356 124 316
f 396 124 356
f 436 124 396
f 476 124 436
f 516 124 476
f 556 124 516
f 595 124 556
f 633 124 595
f 673 124 633
f 713 124 673
f 752 124 713
f 792 124 752
f 792 125 124
f 831 125 792
f 831 126 125
f 805 126 831
f 304 445 450
f 304 568 445
f 831 568 304
f 446 343 449
f 869 343 446
f 382 343 869
f 343 450 449
f 304 450 343
f 792 568 831
f 792 528 568
f 752 528 792
f 752 488 528
f 713 488 752
f 673 488 713
f 633 488 673
f 633 448 488
f 595 448 633
f 595 408 448
f 556 408 595
f 516 408 556
f 516 368 408
f 476 368 516
f 436 368 476
f 436 328 368
f 396 328 436
f 356 328 396
f 356 288 328
f 316 288 356
f 276 288 316
f 276 249 288
f 237 249 276
f 237 213 249
f 202 213 237
f 202 182 213
f 172 182 202
f 172 158 182
f 159 158 172
f 159 179 158
f 499 179 159
f 499 180 179
f 460 180 499
f 460 177 180
f 460 178 177
f 460 175 178
f 460 176 175
f 421 176 460
f 421 173 176
f 382 173 421
f 382 174 173
f 382 171 174
f 382 939 171
f 382 906 939
f 382 869 906
f 446 445 568
f 869 939 906
f 171 939 869
f 869 174 171
f 173 174 869
f 869 176 173
f 869 175 176
f 178 175 869
f 869 177 178
f 869 180 177
f 869 179 180
f 869 158 179
f 182 158 869
f 869 213 182
f 869 249 213
f 446 249 869
f 446 288 249
f 446 328 288
f 568 328 446
f 568 368 328
f 568 408 368
f 448 408 568
f 568 488 448
f 528 488 568
f 184 496 216
f 107 496 184
f 456 496 107
f 107 416 456
f 376 416 107
f 107 336 376
f 107 296 336
f 256 296 107
f 107 219 256
f 106 219 107
f 737 106 105
f 776 106 737
f 776 219 106
f 776 186 219
f 814 186 776
f 851 186 814
f 887 186 851
f 887 156 186
f 919 156 887
f 204 156 919
f 203 156 204
f 206 156 203
f 205 156 206
f 208 156 205
f 183 156 208
f 208 807 183
f 767 807 208
f 252 744 784
f 252 773 744
f 291 773 252
f 291 912 773
f 291 944 912
f 331 944 291
f 371 944 331
f 411 944 371
f 451 944 411
f 491 944 451
f 491 945 944
f 531 945 491
f 571 945 531
f 610 945 571
f 648 945 610
f 688 945 648
f 909 945 688
f 208 728 767
f 208 688 728
f 157 688 208
f 181 688 157
f 2 688 181
f 881 688 2
f 843 688 881
f 804 688 843
f 764 688 804
f 725 688 764
f 685 688 725
f 645 688 685
f 607 688 645
f 607 909 688
f 910 909 607
f 442 252 443
f 536 252 442
f 291 252 536
f 216 441 444
f 216 234 441
f 496 234 216
f 252 444 443
f 216 444 252
f 456 234 496
f 416 234 456
f 416 200 234
f 376 200 416
f 376 194 200
f 336 194 376
f 336 165 194
f 296 165 336
f 296 195 165
f 256 195 296
f 256 190 195
f 219 190 256
f 219 191 190
f 186 191 219
f 156 191 186
f 156 192 191
f 156 189 192
f 183 189 156
f 183 154 189
f 807 154 183
f 807 187 154
f 767 187 807
f 728 187 767
f 728 420 187
f 688 420 728
f 648 420 688
f 648 380 420
f 648 340 380
f 610 340 648
f 610 300 340
f 571 300 610
f 571 260 300
f 531 260 571
f 491 260 531
f 491 222 260
f 451 222 491
f 451 188 222
f 451 155 188
f 411 155 451
f 411 185 155
f 371 185 411
f 371 576 185
f 331 576 371
f 331 536 576
f 291 536 331
f 536 442 441
f 536 185 576
f 536 155 185
f 188 155 536
f 536 222 188
f 536 260 222
f 536 300 260
f 536 340 300
f 536 380 340
f 536 420 380
f 441 420 536
f 441 187 420
f 234 187 441
f 154 187 234
f 234 189 154
f 192 189 234
f 234 191 192
f 234 190 191
f 195 190 234
f 234 165 195
f 234 194 165
f 200 194 234
f 205 350 311
f 350 389 701
f 206 389 350
f 389 206 701
f 701 428 467
f 206 428 701
f 206 467 428
f 584 102 548
f 584 548 506
f 548 545 506
f 545 203 204
f 204 506 545
f 851 584 506
f 103 584 621
f 584 814 776
f 584 851 814
f 506 887 851
f 506 919 887
f 204 919 506
f 203 545 206
f 311 208 205
f 207 208 311
f 210 207 699
f 778 210 699
f 816 210 778
f 350 701 739
f 272 739 778
f 311 739 272
f 350 739 311
f 467 662 701
f 623 467 545
f 623 662 467
f 545 586 623
f 548 586 545
f 699 272 778
f 207 272 699
f 207 311 272
f 205 206 350
f 545 467 206
f 621 584 776
f 621 104 103
f 776 104 621
f 660 104 776
f 103 102 584
f 737 660 776
f 737 104 660
f 105 104 737
f 209 215 211
f 220 253 217
f 211 215 751
f 215 246 253
f 217 253 246
f 220 830 253
f 868 830 220
f 253 830 791
f 905 868 257
f 632 214 672
f 261 938 905
f 261 226 235
f 261 235 938
f 515 475 229
f 214 217 672
f 214 632 217
f 435 228 475
f 209 150 712
f 672 209 712
f 672 246 209
f 555 264 223
f 515 229 264
f 264 229 225
f 594 257 220
f 223 905 257
f 223 261 905
f 225 236 226
f 225 229 236
f 228 435 275
f 236 235 226
f 355 240 241
f 23 315 355
f 236 239 235
f 236 238 239
f 355 21 240
f 315 21 355
f 355 395 24
f 275 435 395
f 292 632 594
f 555 515 264
f 594 555 223
f 229 475 228
f 217 632 292
f 246 672 217
f 712 150 146
f 24 395 25
f 223 257 594
f 220 217 292
f 226 264 225
f 261 223 264
f 220 292 594
f 211 150 209
f 751 141 142
f 211 751 142
f 240 20 19
f 240 21 20
f 315 22 21
f 23 22 315
f 257 868 220
f 24 23 355
f 236 241 238
f 275 355 241
f 264 226 261
f 201 241 236
f 228 241 201
f 228 275 241
f 228 201 236
f 791 215 253
f 751 215 791
f 142 150 211
f 246 215 209
f 228 236 229
f 275 395 355
f 684 487 251
f 250 527 684
f 763 93 92
f 853 335 375
f 335 415 375
f 258 415 335
f 815 415 258
f 221 312 259
f 262 267 379
f 262 273 267
f 224 263 339
f 224 585 263
f 375 415 853
f 815 507 415
f 286 351 255
f 546 585 224
f 777 295 816
f 263 585 303
f 585 293 622
f 266 920 700
f 266 332 920
f 286 255 390
f 332 305 920
f 295 335 816
f 295 258 335
f 777 258 295
f 280 279 777
f 285 279 280
f 711 279 285
f 622 661 273
f 622 332 661
f 332 306 305
f 777 815 258
f 279 815 777
f 279 282 815
f 593 286 298
f 277 280 777
f 285 280 277
f 593 297 286
f 593 313 297
f 631 313 671
f 711 302 279
f 711 314 302
f 318 314 711
f 700 738 266
f 700 920 738
f 305 941 920
f 298 325 330
f 274 325 298
f 334 321 593
f 351 777 816
f 631 277 777
f 285 277 631
f 279 290 282
f 279 302 290
f 318 354 314
f 468 286 390
f 468 298 286
f 338 321 334
f 711 285 631
f 671 318 711
f 381 318 329
f 593 321 313
f 815 282 507
f 318 317 354
f 274 283 278
f 274 298 283
f 459 390 218
f 468 390 459
f 631 777 351
f 329 318 671
f 342 414 381
f 312 224 339
f 546 224 312
f 305 306 301
f 494 322 937
f 509 322 494
f 297 631 351
f 282 290 281
f 314 354 302
f 318 414 317
f 381 414 318
f 342 341 414
f 888 293 546
f 867 301 293
f 867 305 301
f 750 305 867
f 750 937 305
f 904 937 750
f 494 937 904
f 278 283 429
f 365 330 325
f 334 593 298
f 534 338 334
f 381 359 342
f 360 359 381
f 342 362 341
f 365 370 333
f 321 374 313
f 338 337 321
f 338 547 337
f 574 329 671
f 357 381 329
f 357 360 381
f 359 360 357
f 888 546 312
f 867 293 289
f 365 397 370
f 338 399 547
f 283 298 468
f 330 334 298
f 592 399 338
f 903 399 592
f 373 251 630
f 397 866 370
f 321 337 374
f 574 671 313
f 369 329 574
f 369 357 329
f 373 359 357
f 392 359 373
f 392 670 359
f 398 670 392
f 404 670 398
f 95 323 96
f 325 274 790
f 459 218 102
f 429 468 459
f 534 334 330
f 553 592 338
f 903 592 553
f 400 399 903
f 431 399 400
f 359 362 342
f 359 710 362
f 670 710 359
f 412 874 828
f 242 243 874
f 393 412 433
f 789 245 412
f 363 393 433
f 353 393 363
f 353 412 393
f 430 384 363
f 413 789 384
f 377 430 494
f 287 644 327
f 248 644 287
f 248 418 644
f 378 377 364
f 378 749 377
f 842 749 378
f 842 418 749
f 418 842 644
f 434 514 284
f 324 319 829
f 852 888 312
f 852 284 888
f 852 434 284
f 474 514 434
f 474 829 514
f 294 324 829
f 294 364 324
f 454 364 294
f 454 391 364
f 352 364 391
f 352 378 364
f 352 842 378
f 405 417 880
f 495 575 535
f 415 575 495
f 415 507 575
f 320 394 354
f 361 344 320
f 710 409 361
f 406 409 710
f 403 405 406
f 417 405 403
f 455 415 495
f 281 852 507
f 281 354 852
f 317 320 354
f 414 320 317
f 414 361 320
f 345 361 414
f 670 403 406
f 670 417 403
f 404 917 670
f 630 392 373
f 630 251 392
f 369 251 373
f 936 251 369
f 936 423 251
f 402 423 936
f 399 402 936
f 399 423 402
f 422 423 399
f 399 936 369
f 250 422 399
f 423 684 251
f 422 684 423
f 422 250 684
f 337 574 374
f 337 369 574
f 337 358 369
f 547 369 358
f 547 399 369
f 547 358 337
f 431 250 399
f 470 431 866
f 397 470 866
f 724 470 397
f 513 763 724
f 482 930 875
f 243 477 480
f 242 477 243
f 478 477 242
f 471 478 242
f 245 242 412
f 245 471 242
f 935 471 245
f 383 353 363
f 383 412 353
f 803 245 789
f 606 245 803
f 244 245 606
f 244 935 245
f 902 935 244
f 789 412 383
f 384 383 363
f 384 789 383
f 212 803 789
f 865 902 244
f 430 509 494
f 430 363 509
f 413 212 789
f 212 606 803
f 212 244 606
f 212 865 244
f 212 827 865
f 248 827 212
f 867 904 750
f 867 494 904
f 319 494 867
f 377 384 430
f 377 413 384
f 749 212 413
f 248 212 749
f 788 827 248
f 324 494 319
f 514 867 289
f 364 494 324
f 364 377 494
f 749 413 377
f 418 248 749
f 748 788 248
f 514 289 284
f 829 867 514
f 829 319 867
f 287 748 248
f 327 748 287
f 327 709 748
f 644 709 327
f 644 669 709
f 434 829 474
f 629 669 644
f 575 312 254
f 394 829 434
f 320 294 829
f 320 454 294
f 320 391 454
f 409 842 352
f 410 842 409
f 405 842 410
f 405 644 842
f 405 629 644
f 591 629 405
f 367 512 552
f 407 512 367
f 407 367 917
f 447 512 407
f 472 512 447
f 247 917 401
f 251 401 392
f 251 247 401
f 247 407 917
f 487 407 247
f 487 447 407
f 487 472 447
f 457 462 431
f 763 92 453
f 473 93 763
f 94 93 473
f 763 453 452
f 469 94 473
f 469 95 94
f 763 452 724
f 513 473 763
f 366 473 513
f 366 469 473
f 323 469 366
f 323 95 469
f 567 452 458
f 567 724 452
f 790 96 323
f 365 366 513
f 508 366 365
f 508 323 366
f 365 513 397
f 365 323 508
f 790 323 326
f 325 323 365
f 325 326 323
f 790 326 325
f 554 96 790
f 278 96 554
f 278 97 96
f 470 457 431
f 470 458 457
f 470 567 458
f 470 724 567
f 397 513 724
f 274 554 790
f 278 554 274
f 278 98 97
f 429 98 278
f 429 99 98
f 100 99 429
f 527 462 461
f 527 431 462
f 400 866 431
f 903 866 400
f 338 370 866
f 333 370 338
f 534 365 333
f 330 365 534
f 419 100 429
f 101 100 419
f 251 487 247
f 684 472 487
f 684 432 472
f 527 432 684
f 527 461 432
f 250 431 527
f 553 866 903
f 338 866 553
f 534 333 338
f 468 429 283
f 459 419 429
f 102 419 459
f 102 101 419
f 218 548 102
f 218 586 548
f 390 586 218
f 390 623 586
f 390 662 623
f 390 701 662
f 255 701 390
f 255 739 701
f 255 778 739
f 631 671 711
f 816 255 351
f 778 255 816
f 816 335 853
f 417 917 880
f 417 670 917
f 406 710 670
f 361 362 710
f 361 341 362
f 345 341 361
f 345 414 341
f 354 290 302
f 354 281 290
f 507 282 281
f 455 853 415
f 495 853 455
f 535 853 495
f 405 409 406
f 372 361 409
f 372 344 361
f 829 394 320
f 434 354 394
f 434 852 354
f 575 853 535
f 889 853 575
f 286 297 351
f 313 631 297
f 374 574 313
f 373 357 369
f 401 398 392
f 401 404 398
f 917 404 401
f 367 880 917
f 367 405 880
f 552 405 367
f 591 405 552
f 410 409 405
f 352 372 409
f 352 344 372
f 352 320 344
f 391 320 352
f 312 507 852
f 312 575 507
f 254 889 575
f 259 889 221
f 259 921 889
f 438 921 259
f 299 259 312
f 299 438 259
f 339 299 312
f 339 438 299
f 339 437 438
f 263 437 339
f 440 437 263
f 332 622 293
f 273 585 622
f 273 303 585
f 262 303 273
f 262 263 303
f 379 263 262
f 379 440 263
f 267 440 379
f 439 440 267
f 266 661 332
f 266 273 661
f 266 267 273
f 267 907 439
f 266 907 267
f 908 907 266
f 738 908 266
f 920 908 738
f 920 940 908
f 941 940 920
f 305 896 941
f 305 929 896
f 305 928 929
f 937 928 305
f 937 895 928
f 322 895 937
f 322 927 895
f 509 927 322
f 293 585 546
f 301 332 293
f 306 332 301
f 885 927 433
f 433 886 885
f 433 918 886
f 412 878 918
f 412 879 878
f 915 879 412
f 828 915 412
f 916 915 828
f 828 876 916
f 877 876 828
f 828 874 877
f 243 875 874
f 254 221 889
f 312 221 254
f 284 293 888
f 289 293 284
f 363 927 509
f 433 927 363
f 412 918 433
f 242 874 412
f 480 875 243
f 479 875 480
f 482 875 479
f 453 92 441
f 441 452 453
f 441 458 452
f 441 457 458
f 441 462 457
f 461 462 441
f 441 432 461
f 441 472 432
f 442 472 441
f 512 472 442
f 442 552 512
f 591 552 442
f 442 629 591
f 442 669 629
f 709 669 442
f 442 748 709
f 442 788 748
f 442 827 788
f 865 827 442
f 442 902 865
f 935 902 442
f 471 935 442
f 442 478 471
f 442 477 478
f 443 477 442
f 480 477 443
f 443 479 480
f 482 479 443
f 443 930 482
f 443 897 930
f 860 897 443
f 443 822 860
f 443 849 822
f 850 849 443
f 883 850 443
f 848 883 443
f 884 848 443
f 443 846 884
f 443 847 846
f 443 882 847
f 443 840 882
f 841 840 443
f 450 443 444
f 450 841 443
f 450 838 841
f 839 838 450
f 450 836 839
f 837 836 450
f 450 834 837
f 450 835 834
f 832 835 450
f 450 833 832
f 926 833 450
f 450 894 926
f 450 858 894
f 821 858 450
f 450 811 821
f 450 812 811
f 809 812 450
f 450 771 809
f 810 771 450
f 450 678 810
f 450 679 678
f 450 676 679
f 445 676 450
f 677 676 445
f 445 674 677
f 445 675 674
f 445 924 675
f 445 892 924
f 445 856 892
f 445 819 856
f 445 781 819
f 445 742 781
f 704 742 445
f 445 665 704
f 446 665 445
f 446 654 665
f 734 654 446
f 446 695 734
f 446 655 695
f 616 655 446
f 41 616 446
f 446 42 41
f 43 42 446
f 449 43 446
f 449 44 43
f 449 45 44
f 46 45 449
f 449 47 46
f 449 48 47
f 49 48 449
f 449 50 49
f 51 50 449
f 449 52 51
f 449 53 52
f 449 54 53
f 449 55 54
f 56 55 449
f 57 56 449
f 449 58 57
f 449 59 58
f 60 59 449
f 449 61 60
f 449 62 61
f 449 63 62
f 449 64 63
f 449 65 64
f 66 65 449
f 449 67 66
f 449 68 67
f 69 68 449
f 444 449 450
f 444 69 449
f 70 69 444
f 444 71 70
f 72 71 444
f 444 73 72
f 444 74 73
f 75 74 444
f 444 76 75
f 444 8 76
f 11 8 444
f 444 1 11
f 444 79 1
f 80 79 444
f 81 80 444
f 444 10 81
f 444 82 10
f 83 82 444
f 444 9 83
f 444 84 9
f 85 84 444
f 444 86 85
f 444 87 86
f 444 88 87
f 444 89 88
f 444 90 89
f 91 90 444
f 441 91 444
f 92 91 441
f 639 486 640
f 537 587 492
f 663 549 493
f 663 518 549
f 498 890 624
f 501 497 740
f 520 497 501
f 497 520 740
f 519 526 520
f 922 573 518
f 523 538 501
f 523 533 538
f 519 520 501
f 538 526 519
f 532 6 817
f 532 132 6
f 530 572 577
f 39 854 40
f 890 529 537
f 526 578 532
f 532 578 132
f 532 779 520
f 573 540 551
f 787 561 538
f 570 561 787
f 538 561 526
f 526 532 520
f 579 540 522
f 511 560 540
f 37 569 826
f 550 588 563
f 561 570 133
f 37 36 569
f 901 564 588
f 562 570 787
f 565 570 562
f 500 524 490
f 530 524 500
f 530 577 524
f 539 577 572
f 539 550 558
f 588 597 563
f 923 597 588
f 599 780 603
f 539 558 577
f 563 566 550
f 615 600 596
f 613 599 603
f 599 613 598
f 550 566 558
f 609 614 597
f 612 34 611
f 573 539 521
f 864 901 551
f 613 589 598
f 523 702 517
f 34 667 611
f 34 653 667
f 603 637 613
f 589 635 609
f 609 597 923
f 524 523 517
f 747 787 533
f 562 787 557
f 818 565 562
f 818 570 565
f 38 890 854
f 38 529 890
f 826 628 38
f 826 569 628
f 637 636 707
f 746 692 707
f 746 613 692
f 746 589 613
f 577 747 524
f 558 590 577
f 614 635 153
f 636 746 707
f 635 746 900
f 481 635 484
f 667 863 604
f 825 863 667
f 485 863 825
f 628 668 38
f 667 604 612
f 854 890 498
f 38 708 529
f 38 668 708
f 612 604 891
f 634 485 646
f 628 560 668
f 628 569 560
f 634 863 485
f 668 560 708
f 891 604 741
f 604 863 637
f 569 741 560
f 891 741 569
f 637 863 634
f 741 780 560
f 637 603 604
f 741 603 780
f 741 604 603
f 486 637 634
f 636 637 486
f 639 636 486
f 637 692 613
f 707 692 637
f 901 934 539
f 900 639 635
f 934 550 539
f 934 901 550
f 635 639 484
f 720 484 639
f 597 566 563
f 597 605 566
f 566 625 558
f 566 605 625
f 597 614 605
f 558 747 590
f 614 153 605
f 635 638 153
f 481 638 635
f 590 747 577
f 558 625 559
f 558 559 747
f 747 559 557
f 625 557 559
f 625 664 557
f 664 703 557
f 664 625 703
f 605 153 627
f 703 818 557
f 625 818 703
f 625 601 818
f 605 601 625
f 605 608 601
f 605 627 608
f 153 638 627
f 818 601 596
f 483 638 481
f 641 638 483
f 627 615 608
f 627 786 615
f 641 933 786
f 786 933 615
f 626 732 131
f 626 772 732
f 641 626 933
f 641 772 626
f 483 772 641
f 483 733 772
f 602 608 596
f 694 733 483
f 601 602 596
f 601 608 602
f 638 786 627
f 638 641 786
f 481 694 483
f 481 729 694
f 481 730 729
f 481 768 730
f 481 726 768
f 481 727 726
f 481 722 727
f 481 723 722
f 609 635 614
f 720 481 484
f 723 481 720
f 639 746 636
f 720 639 640
f 643 640 486
f 486 642 643
f 486 647 642
f 634 647 486
f 634 646 647
f 649 646 485
f 485 650 649
f 651 650 485
f 33 32 485
f 35 891 36
f 34 891 35
f 33 653 34
f 33 667 653
f 33 825 667
f 33 485 825
f 652 485 32
f 651 485 652
f 612 611 667
f 612 891 34
f 569 36 891
f 826 38 37
f 854 39 38
f 498 40 854
f 616 41 498
f 624 616 498
f 655 616 624
f 537 655 624
f 537 624 890
f 579 537 529
f 492 655 537
f 511 529 708
f 579 529 511
f 525 537 579
f 587 537 522
f 511 708 560
f 540 579 511
f 522 525 579
f 522 537 525
f 492 695 655
f 540 560 780
f 540 922 522
f 587 522 922
f 493 695 492
f 734 695 493
f 864 780 564
f 864 540 780
f 573 922 540
f 518 587 922
f 518 492 587
f 663 492 518
f 663 493 492
f 549 734 493
f 654 734 549
f 855 564 599
f 551 540 864
f 901 864 564
f 521 518 573
f 549 518 521
f 489 654 549
f 489 665 654
f 855 599 598
f 588 564 855
f 539 573 551
f 530 521 539
f 530 549 521
f 510 549 530
f 510 489 549
f 704 665 489
f 635 589 746
f 923 855 598
f 923 588 855
f 539 551 901
f 489 510 530
f 639 900 746
f 609 598 589
f 923 598 609
f 500 489 530
f 489 742 704
f 550 901 588
f 572 530 539
f 500 742 489
f 498 41 40
f 599 564 780
f 490 742 500
f 490 781 742
f 596 608 615
f 562 557 818
f 490 524 517
f 702 856 819
f 501 856 702
f 501 892 856
f 538 533 787
f 519 501 538
f 740 892 501
f 924 892 740
f 740 675 924
f 520 675 740
f 779 674 675
f 779 676 677
f 817 676 779
f 679 676 817
f 817 779 532
f 817 678 679
f 130 810 817
f 130 817 6
f 678 817 810
f 779 677 674
f 520 779 675
f 561 578 526
f 561 132 578
f 561 133 132
f 600 133 570
f 600 137 133
f 600 138 137
f 138 600 615
f 517 702 819
f 523 501 702
f 818 600 570
f 596 600 818
f 615 4 138
f 933 4 615
f 933 3 4
f 933 135 3
f 933 136 135
f 933 5 136
f 134 5 933
f 490 819 781
f 490 517 819
f 747 523 524
f 747 533 523
f 747 557 787
f 626 134 933
f 626 131 134
f 719 680 681
f 745 682 683
f 683 686 726
f 682 686 683
f 745 686 682
f 691 687 686
f 715 686 745
f 691 686 693
f 731 689 691
f 731 691 932
f 731 769 689
f 689 769 772
f 769 862 666
f 913 785 123
f 862 824 666
f 899 862 769
f 932 899 731
f 693 932 691
f 705 932 693
f 686 705 693
f 715 705 686
f 680 717 714
f 716 717 680
f 719 716 680
f 745 714 715
f 683 714 745
f 683 680 714
f 681 718 719
f 721 723 720
f 721 681 723
f 718 681 721
f 680 723 681
f 722 723 680
f 680 683 722
f 683 727 722
f 683 726 727
f 687 726 686
f 731 899 769
f 687 691 690
f 726 687 768
f 690 729 730
f 694 729 690
f 687 730 768
f 687 690 730
f 691 694 690
f 691 733 694
f 689 733 691
f 689 772 733
f 732 772 769
f 706 666 824
f 913 666 706
f 913 769 666
f 131 769 913
f 732 769 131
f 785 706 824
f 913 706 785
f 757 925 931
f 931 925 743
f 759 758 794
f 758 765 793
f 754 782 798
f 782 762 820
f 762 756 857
f 857 756 800
f 873 773 808
f 808 773 912
f 129 801 130
f 129 845 801
f 770 784 753
f 925 757 893
f 801 761 755
f 773 873 744
f 770 823 784
f 861 823 770
f 893 898 861
f 783 931 743
f 758 793 794
f 795 796 754
f 762 800 797
f 766 799 800
f 766 802 799
f 761 802 766
f 801 802 761
f 845 129 844
f 806 129 128
f 844 129 806
f 805 806 128
f 805 127 126
f 128 127 805
f 850 861 770
f 893 861 850
f 757 898 893
f 757 931 898
f 759 783 743
f 759 794 783
f 754 793 765
f 754 796 793
f 754 798 795
f 782 797 798
f 820 797 782
f 762 797 820
f 857 800 762
f 756 766 800
f 760 743 925
f 760 759 743
f 755 761 766
f 801 810 130
f 801 771 810
f 801 809 771
f 755 809 801
f 755 812 809
f 755 811 812
f 766 811 755
f 766 821 811
f 766 858 821
f 756 858 766
f 756 894 858
f 756 926 894
f 762 926 756
f 762 833 926
f 782 833 762
f 782 832 833
f 782 835 832
f 782 834 835
f 754 834 782
f 754 837 834
f 754 836 837
f 765 836 754
f 765 839 836
f 765 838 839
f 758 838 765
f 758 841 838
f 758 840 841
f 758 882 840
f 759 882 758
f 759 847 882
f 759 846 847
f 760 846 759
f 925 846 760
f 925 884 846
f 925 848 884
f 925 883 848
f 893 883 925
f 893 850 883
f 770 849 850
f 753 849 770
f 753 822 849
f 875 822 753
f 784 875 753
f 744 875 784
f 872 875 744
f 897 875 930
f 860 875 897
f 822 875 860
f 873 872 744
f 808 912 873
f 871 875 872
f 859 943 927
f 859 942 943
f 896 940 941
f 896 908 940
f 929 908 896
f 929 907 908
f 928 907 929
f 928 943 907
f 895 943 928
f 927 943 895
f 886 927 885
f 918 927 886
f 878 927 918
f 879 927 878
f 915 927 879
f 916 927 915
f 916 859 927
f 876 859 916
f 877 859 876
f 874 859 877
f 875 859 874
f 871 859 875
f 871 942 859
f 871 910 942
f 909 910 871
f 871 945 909
f 944 945 871
f 912 944 870
f 872 944 871
f 872 870 944
f 873 870 872
f 873 912 870
f 913 123 914
f 947 913 914
f 911 913 947
f 135 4 3
f 136 4 135
f 5 4 136
f 134 4 5
f 134 138 4
f 131 138 134
f 131 137 138
f 131 133 137
f 913 133 131
f 911 133 913
f 911 132 133
f 947 132 911
f 6 132 947
f 914 6 947
f 914 130 6
f 946 130 914
f 129 130 946
f 127 128 126
f 125 128 129
f 126 128 125
f 125 129 946
f 946 124 125
f 914 124 946
f 914 123 124
f 108 107 146
f 98 96 97
f 95 96 122
f 93 91 92
f 94 91 93
f 95 91 94
f 122 91 95
f 121 91 122
f 90 91 121
f 120 90 121
f 119 90 120
f 89 90 119
f 118 89 119
f 117 89 118
f 88 89 117
f 116 88 117
f 98 122 96
f 99 122 98
f 100 122 99
f 101 122 100
f 102 122 101
f 103 122 102
f 103 121 122
f 103 120 121
f 104 120 103
f 104 119 120
f 104 118 119
f 104 117 118
f 105 117 104
f 106 117 105
f 106 116 117
f 107 116 106
f 108 116 107
f 108 88 116
f 40 41 42
f 43 40 42
f 43 39 40
f 43 38 39
f 43 37 38
f 115 36 37
f 115 35 36
f 34 35 115
f 33 34 115
f 114 33 115
f 33 31 32
f 114 31 33
f 7 31 114
f 113 31 7
f 112 31 113
f 112 30 31
f 29 30 112
f 111 29 112
f 28 29 111
f 111 27 28
f 111 26 27
f 110 26 111
f 25 26 110
f 110 24 25
f 109 24 110
f 109 23 24
f 109 22 23
f 21 22 109
f 20 21 109
f 20 18 19
f 20 17 18
f 109 17 20
f 43 115 37
f 43 114 115
f 43 7 114
f 44 7 43
f 44 113 7
f 45 113 44
f 45 112 113
f 46 112 45
f 46 111 112
f 46 110 111
f 46 109 110
f 47 109 46
f 47 17 109
f 47 16 17
f 48 16 47
f 48 15 16
f 49 15 48
f 14 15 49
f 50 14 49
f 51 14 50
f 52 14 51
f 53 14 52
f 54 14 53
f 13 14 54
f 55 13 54
f 56 13 55
f 57 13 56
f 57 12 13
f 58 12 57
f 59 12 58
f 60 12 59
f 60 148 12
f 61 148 60
f 62 148 61
f 62 143 148
f 63 143 62
f 63 147 143
f 64 147 63
f 65 147 64
f 65 144 147
f 66 144 65
f 67 144 66
f 68 144 67
f 69 144 68
f 70 144 69
f 71 144 70
f 71 149 144
f 72 149 71
f 73 149 72
f 74 149 73
f 75 149 74
f 75 145 149
f 76 145 75
f 8 145 76
f 11 145 8
f 1 145 11
f 79 145 1
f 80 145 79
f 80 77 145
f 81 77 80
f 81 78 77
f 10 78 81
f 82 78 10
f 83 78 82
f 83 152 78
f 9 152 83
f 84 152 9
f 139 152 84
f 85 139 84
f 86 139 85
f 86 151 139
f 140 151 86
f 108 141 140
f 142 141 108
f 150 142 108
f 86 108 140
f 87 108 86
f 88 108 87
f 108 146 150
g Body1

v -0.000000 9.502796 -7.291832
v 0.600000 10.997049 4.802597
v 0.393442 9.192822 7.676376
v 0.283045 7.667824 9.215477
v 0.199099 5.958632 10.387444
v 0.118416 3.359653 11.515068
v 0.098183 2.076771 11.798050
v 0.090246 -1.324068 11.909081
v 0.116991 -3.257887 11.534996
v 0.155190 -4.776965 11.000969
v 0.244535 -6.941991 9.752975
v 0.387215 -9.125189 7.763123
v 0.600000 -10.997049 4.802597
v 0.600000 -9.459996 7.289658
v 0.600000 -7.151152 9.532623
v 0.600000 -4.865891 10.854927
v 0.600000 -2.518556 11.637955
v 0.600000 -0.685783 11.885696
v 0.600000 2.238132 11.671494
v 0.600000 4.970571 10.791580
v 0.600000 7.425676 9.334999
v 0.600000 9.142519 7.685097
v 0.600000 -11.652584 2.731064
v 0.600000 -11.969660 -0.267372
v 0.600000 -11.762771 -2.315575
v 0.600000 -10.760695 -5.178619
v 0.600000 -8.970272 -7.917870
v 0.600000 -7.074692 -9.674950
v 0.600000 -4.642305 -11.024918
v 0.600000 -2.200850 -11.780296
v 0.600000 0.113478 -11.985657
v 0.600000 2.273923 -11.760437
v 0.600000 4.633860 -11.029037
v 0.600000 7.184582 -9.569740
v 0.600000 9.425476 -7.363541
v 0.600000 11.169025 -4.306259
v 0.600000 11.821503 -1.980125
v 0.600000 11.966442 0.526581
v 0.600000 11.552929 3.174026
v -0.000000 -11.771535 -2.197220
v -0.000000 -11.248226 -4.147598
v -0.000000 -10.009300 -6.540642
v -0.000000 -7.461735 -9.337952
v -0.000000 -4.099833 -11.228737
v -0.000000 -1.187706 -11.915794
v -0.000000 1.908914 -11.821617
v -0.000000 5.074982 -10.823013
v -0.000000 7.644005 -9.217697
v -0.000000 10.926777 -4.893974
v -0.000000 11.806084 -1.877548
v 0.000000 11.901886 1.300186
v 0.000000 11.148718 4.331993
v 0.000000 10.107685 6.446693
v 0.000000 8.155952 8.756882
v 0.000000 5.908415 10.422859
v 0.000000 4.147739 11.248428
v 0.000000 2.087307 11.801453
v 0.000000 -0.931919 11.913742
v 0.000000 -4.127991 11.248970
v 0.000000 -6.207627 10.241852
v 0.000000 -8.464264 8.464539
v 0.000000 -10.398325 5.916580
v 0.000000 -11.611310 2.838623
v 0.000000 -11.992838 -0.113510
usemtl Paint_-_Metal_Flake_(Gold)
f 1001 1003 1002
f 1001 1004 1003
f 1005 1004 1001
f 1001 1006 1005
f 1001 1007 1006
f 1001 1008 1007
f 1000 1008 1001
f 1000 1009 1008
f 999 1009 1000
f 999 1010 1009
f 998 1010 999
f 998 1011 1010
f 991 993 992
f 991 994 993
f 990 994 991
f 990 995 994
f 990 948 995
f 989 948 990
f 989 996 948
f 988 996 989
f 988 997 996
f 987 997 988
f 1011 997 987
f 1011 998 997
f 959 1009 960
f 959 1008 1009
f 958 1008 959
f 958 1007 1008
f 957 1007 958
f 957 1006 1007
f 956 1006 957
f 956 1005 1006
f 955 1005 956
f 954 1005 955
f 954 1004 1005
f 953 1004 954
f 953 1003 1004
f 952 1003 953
f 952 1002 1003
f 952 1001 1002
f 951 1001 952
f 950 1001 951
f 950 1000 1001
f 949 1000 950
f 949 999 1000
f 986 999 949
f 986 998 999
f 985 998 986
f 985 997 998
f 984 997 985
f 983 997 984
f 983 996 997
f 982 996 983
f 982 948 996
f 982 995 948
f 981 995 982
f 981 994 995
f 980 994 981
f 980 993 994
f 979 993 980
f 978 993 979
f 978 992 993
f 977 992 978
f 977 991 992
f 976 991 977
f 976 990 991
f 975 990 976
f 974 990 975
f 974 989 990
f 973 989 974
f 973 988 989
f 973 987 988
f 972 987 973
f 971 987 972
f 971 1011 987
f 971 1010 1011
f 970 1010 971
f 970 1009 1010
f 960 1009 970
f 979 977 978
f 979 976 977
f 980 976 979
f 981 976 980
f 981 975 976
f 981 974 975
f 982 974 981
f 982 973 974
f 983 973 982
f 983 972 973
f 984 972 983
f 984 971 972
f 985 971 984
f 985 970 971
f 986 970 985
f 949 970 986
f 949 960 970
f 964 966 965
f 964 967 966
f 963 967 964
f 962 967 963
f 962 968 967
f 962 969 968
f 961 969 962
f 961 949 969
f 960 949 961
f 961 959 960
f 962 959 961
f 962 958 959
f 963 958 962
f 963 957 958
f 963 956 957
f 964 956 963
f 964 955 956
f 965 955 964
f 965 954 955
f 966 954 965
f 966 953 954
f 967 953 966
f 967 952 953
f 968 952 967
f 968 951 952
f 969 951 968
f 969 950 951
f 969 949 950
g Body2

v 7.600000 -8.400000 2.000000
v 7.600000 -7.900000 -2.000000
v 0.600000 -8.400000 2.000000
v 9.416700 -8.400000 -0.745163
v 9.397411 -8.400000 0.769135
v 9.150826 -7.900000 1.208755
v 7.600000 -7.900000 2.000000
v 0.600000 -7.900000 -2.000000
v 0.600000 -7.900000 2.000000
v 9.532452 -7.900000 -0.109695
v 7.600000 -8.400000 -2.000000
v 0.600000 -8.400000 -2.000000
usemtl Steel_-_Satin
f 1013 1023 1019
f 1022 1023 1013
f 1012 1020 1014
f 1018 1020 1012
f 1019 1014 1020
f 1023 1014 1019
f 1013 1019 1020
f 1020 1021 1013
f 1018 1021 1020
f 1017 1021 1018
f 1013 1015 1022
f 1021 1015 1013
f 1021 1016 1015
f 1017 1016 1021
f 1017 1012 1016
f 1018 1012 1017
f 1014 1023 1022
f 1014 1016 1012
f 1014 1015 1016
f 1022 1015 1014
g Body3

v 8.854723 7.900000 1.505936
v 9.379200 8.400000 -0.585251
v 7.600000 8.400000 2.000000
v 0.600000 8.400000 2.000000
v 7.600000 7.900000 2.000000
v 9.521729 7.900000 -0.010384
v 7.600000 7.900000 -2.000000
v 0.600000 7.900000 2.000000
v 0.600000 7.900000 -2.000000
v 7.600000 8.400000 -2.000000
v 0.600000 8.400000 -2.000000
v 9.041451 8.400000 1.268356
f 1033 1032 1034
f 1030 1032 1033
f 1028 1027 1031
f 1026 1027 1028
f 1034 1031 1027
f 1032 1031 1034
f 1031 1032 1030
f 1028 1029 1024
f 1031 1029 1028
f 1030 1029 1031
f 1028 1035 1026
f 1024 1035 1028
f 1029 1035 1024
f 1029 1025 1035
f 1030 1025 1029
f 1030 1033 1025
f 1033 1034 1027
f 1027 1025 1033
f 1026 1025 1027
f 1026 1035 1025
# 1035 vertices
# 0 texture params
# 0 normals
# 2062 facets

# 4 groups
