# WaveFront *.obj file (generated by Autodesk ATF)

mtllib shoulder_link_dexter_collision.mtl

g Body1

v -3.226605 -7.146446 -6.138412
v -6.366576 7.390880 -2.402672
v -6.338477 7.497049 -2.206985
v 4.561430 -7.631413 4.690918
v 1.713914 -7.667671 6.081123
v 1.713914 -7.800000 5.750000
v 2.294796 -7.740664 5.907242
v 3.066797 -7.305141 6.133469
v 3.031089 -6.800000 6.250000
v -1.713913 -7.300000 6.250000
v -1.713913 -7.759609 5.940422
v 0.571304 -7.693302 6.043304
v -0.571305 -7.725585 5.985321
v -3.031088 -6.800000 6.250000
v -2.895949 -7.455038 6.082748
v -2.146807 -7.763407 5.866135
v -2.195675 -7.626624 6.102577
v -3.264250 6.800001 6.192307
v -1.713913 7.300001 6.250000
v -1.713913 7.800001 5.750000
v -2.554257 7.653456 5.982254
v -3.022250 7.363169 6.120193
v 1.713914 7.300001 6.250000
v 1.713914 7.759609 5.940422
v -0.499892 7.602678 6.140686
v 3.264249 6.800001 6.192307
v 2.944418 7.429304 6.097076
v 2.119337 7.770496 5.858185
v 1.816732 7.798492 5.776405
v 3.165258 -0.463636 6.229279
v 3.181997 7.800001 5.075981
v 4.817321 7.800001 3.571976
v 5.776315 7.800001 1.598038
v 5.991994 7.800001 -0.156021
v 5.480993 7.800001 -2.400520
v 3.565046 7.800001 -4.804726
v 2.027284 7.800001 -5.644089
v 0.320491 7.800001 -5.972939
v -2.466822 7.800001 -5.464371
v -4.423342 7.800001 -4.049652
v -5.128893 7.800001 -3.113594
v -5.976385 7.800001 -0.364677
v -5.763174 7.800001 1.652374
v -5.100760 7.800001 3.123856
v -3.948422 7.800001 4.516357
v -3.348507 7.800001 4.973129
v -3.579653 -6.800000 6.014275
v -4.914126 -6.800000 4.983650
v -5.865076 -6.800000 3.815857
v -6.362242 -6.800000 2.919220
v -6.548369 -6.800000 2.473633
v -6.736109 -6.800000 1.900070
v -6.949927 -6.800000 0.835770
v -6.990240 -6.800000 -0.369545
v -6.914652 -6.800000 -1.089752
v -6.777556 -6.800000 -1.739166
v -6.453375 -6.800000 -2.711815
v -6.078833 -6.800000 -3.468895
v -5.236128 -6.800000 -4.644180
v -4.728300 -6.800000 -5.160294
v -3.822096 -6.800000 -5.861008
v -2.251690 -6.800000 -6.622467
v -0.362030 -6.800000 -6.989594
v 1.332956 -6.800000 -6.859741
v 3.564685 -6.800000 -6.018311
v 4.728300 -6.800000 -5.160294
v 5.595770 -6.800000 -4.197937
v 6.404687 -6.800000 -2.822304
v 6.713531 -6.800000 -1.971909
v 6.960729 -6.800000 -0.730515
v 6.990949 -6.800000 0.294174
v 6.809984 -6.800000 1.607498
v 6.524116 -6.800000 2.528999
v 6.054617 -6.800000 3.507355
v 5.402711 -6.800000 4.449280
v 4.556125 -6.800000 5.307434
v 3.579652 -6.800000 6.014275
v 2.940431 -7.800000 5.215744
v 5.425706 -7.800000 2.469223
v 5.985586 -7.800000 0.172203
v 5.246336 -7.800000 -2.891037
v 3.324628 -7.800000 -4.971077
v -0.362612 -7.800000 -5.968781
v -2.388346 -7.800000 -5.493942
v -5.290495 -7.800000 -2.796021
v -5.929709 -7.800000 0.663940
v -4.298186 -7.800000 4.137634
v -3.040936 -7.800000 5.166260
v -3.046347 -7.786839 -5.338303
v -2.988242 -7.638927 5.805206
v -3.531521 -7.058819 6.004372
v -3.611784 -7.674819 5.366043
v -3.736933 -7.058819 5.878731
v -3.704951 -7.222618 5.828415
v -4.103476 -7.516263 5.273140
v -4.249590 -7.160796 5.460373
v -3.946902 -7.767104 4.829453
v -4.911425 -7.408182 4.692261
v -4.669966 -7.741184 4.271935
v -5.218462 -7.272379 4.461441
v -5.185164 -7.752450 3.558548
v -5.782118 -7.406575 3.549759
v -6.062766 -7.307368 3.202972
v -6.196238 -7.261309 3.004318
v -5.754652 -7.695566 2.883698
v -5.891833 -7.715035 2.488060
v -5.562567 -7.791569 2.535698
v -6.379752 -7.355182 2.438370
v -6.064051 -7.708757 2.079758
v -6.697142 -7.256071 1.606140
v -6.220251 -7.703540 1.592545
v -6.155608 -7.770056 0.992271
v -6.883639 -7.028340 1.063553
v -6.585486 -7.542485 1.018303
v -6.318030 -7.731346 0.725571
v -6.935187 -7.100420 0.494690
v -6.859221 -7.289852 0.370316
v -6.908774 -7.206539 0.044525
v -6.992503 -6.887156 -0.227303
v -6.902663 -7.222618 -0.224388
v -6.362421 -7.722106 -0.455460
v -6.935389 -7.090019 -0.526024
v -6.825301 -7.207104 -1.056229
v -6.473627 -7.631361 -0.973434
v -6.733733 -7.367887 -1.072113
v -6.869540 -7.026880 -1.184570
v -6.591280 -7.428653 -1.552719
v -5.876551 -7.784808 -1.848236
v -6.677565 -7.279703 -1.633453
v -6.056410 -7.759368 -1.649567
v -6.636649 -7.110494 -2.056122
v -6.150595 -7.701273 -1.876343
v -6.431662 -7.407025 -2.176895
v -5.905505 -7.730452 -2.361603
v -6.216406 -7.343686 -2.835602
v -6.341612 -7.182319 -2.777023
v -6.297575 -6.973648 -3.021271
v -5.731009 -7.708757 -2.872917
v -5.492022 -7.780087 -2.856705
v -5.639895 -7.317170 -3.882668
v -5.610312 -7.549852 -3.582657
v -5.201968 -7.764286 -3.482162
v -5.400546 -7.528079 -3.927223
v -5.028387 -7.672754 -4.089661
v -5.097701 -7.589582 -4.201302
v -5.150687 -7.279703 -4.552856
v -4.991492 -7.268205 -4.729332
v -4.569586 -7.732869 -4.406982
v -4.627489 -7.382584 -4.991997
v -4.543333 -7.202469 -5.208771
v -4.177485 -7.671507 -4.959900
v -3.873709 -7.666072 -5.209404
v -4.098927 -7.564951 -5.222748
v -3.904097 -7.465381 -5.491875
v -3.487967 -7.564587 -5.650780
v -3.614354 -7.258679 -5.854233
v -2.993956 -7.595189 -5.881683
v 4.375316 -7.768808 4.440422
v 4.440765 -7.112932 5.340302
v 4.014604 -7.760635 4.806122
v 4.042579 -7.549852 5.288528
v 4.012085 -7.686167 5.064751
v 3.930750 -7.793348 4.664871
v 3.757034 -7.360804 5.690598
v 3.445966 -7.765007 5.218849
v 3.494218 -7.675657 5.443069
v 3.296852 -7.442532 5.889252
v 2.802053 -7.782812 5.489319
v 2.920354 -7.681122 5.764709
v 3.579652 6.800001 6.014275
v 3.985784 6.800001 5.753174
v 4.372949 6.800001 5.464684
v 4.739301 6.800001 5.150192
v 5.338014 6.800001 4.513107
v 5.766756 6.800001 3.967934
v 5.900190 6.800001 3.766663
v 6.086221 6.800001 3.455917
v 6.334230 6.800001 2.972778
v 6.548368 6.800001 2.473633
v 6.666563 6.800001 2.131287
v 6.768888 6.800001 1.783859
v 6.884021 6.800001 1.253067
v 6.949928 6.800001 0.835770
v 6.974620 6.800001 0.595551
v 6.995048 6.800001 0.233948
v 6.990306 6.800001 -0.309097
v 6.948127 6.800001 -0.850601
v 6.893802 6.800001 -1.208679
v 6.823068 6.800001 -1.563889
v 6.765066 6.800001 -1.798302
v 6.580110 6.800001 -2.372604
v 6.303527 6.800001 -3.041534
v 6.138675 6.800001 -3.364029
v 6.018987 6.800001 -3.573761
v 5.595770 6.800001 -4.197937
v 5.194536 6.800001 -4.687935
v 4.817323 6.800001 -5.078720
v 4.286584 6.800001 -5.525520
v 3.564685 6.800001 -6.018311
v 2.925575 6.800001 -6.358177
v 2.309484 6.800001 -6.605011
v 1.555450 6.800001 -6.819656
v 0.843061 6.800001 -6.947998
v -0.316561 6.800001 -6.984131
v -0.962923 6.800001 -6.933456
v -1.497088 6.800001 -6.835098
v -1.907540 6.800001 -6.735077
v -2.138716 6.800001 -6.665276
v -2.850737 6.800001 -6.375999
v -3.772398 6.800001 -5.895287
v -4.072895 6.800001 -5.693115
v -4.361277 6.800001 -5.473999
v -4.728300 6.800001 -5.160294
v -5.112883 6.800001 -4.776855
v -5.543860 6.800001 -4.272125
v -5.825209 6.800001 -3.879745
v -6.164946 6.800001 -3.309586
v -6.404684 6.800001 -2.822304
v -6.543074 6.800001 -2.487602
v -6.678511 6.800001 -2.087440
v -6.848009 6.800001 -1.445755
v -6.914652 6.800001 -1.089752
v -6.964957 6.800001 -0.670296
v -6.998953 6.800001 -0.007469
v -6.982817 6.800001 0.475082
v -6.949927 6.800001 0.835770
v -6.896368 6.800001 1.193970
v -6.826392 6.800001 1.549324
v -6.736109 6.800001 1.900070
v -6.629794 6.800001 2.246292
v -6.479533 6.800001 2.641129
v -6.036093 6.800001 3.531548
v -5.696608 6.800001 4.066208
v -5.402708 6.800001 4.449280
v -5.166102 6.800001 4.723495
v -4.869704 6.800001 5.024536
v -3.981043 6.800001 5.746323
v -5.785895 7.793348 1.957077
v -3.087866 7.748760 5.488701
v -3.248217 7.375078 5.987045
v -3.510918 7.566994 5.615982
v -3.670348 7.242721 5.829895
v -3.940066 7.727631 4.977448
v -3.901268 7.619152 5.290749
v -4.087618 7.550609 5.252327
v -4.168463 7.382841 5.379265
v -4.547945 7.169411 5.211891
v -4.512709 7.666572 4.643929
v -4.566885 7.459671 4.967201
v -4.870917 7.474947 4.653557
v -4.686583 7.507107 4.798042
v -4.798918 7.597446 4.526443
v -5.144537 7.381704 4.447342
v -5.149504 7.747532 3.642609
v -5.234709 7.606880 3.982040
v -5.603529 7.250320 4.000702
v -5.510641 7.688719 3.353210
v -5.418578 7.773464 3.006569
v -5.880343 7.263151 3.577515
v -5.733092 7.544241 3.363953
v -6.104247 7.215187 3.224899
v -5.884383 7.675672 2.697845
v -6.203749 7.241161 3.007957
v -6.254279 7.526821 2.351944
v -6.246470 7.396284 2.669266
v -6.008406 7.721126 2.121979
v -6.401736 7.380115 2.320572
v -6.399641 7.579323 1.711296
v -6.510409 7.415262 1.893494
v -6.623511 7.089367 2.113579
v -6.218066 7.695373 1.663559
v -6.124068 7.781822 0.714783
v -6.378779 7.619152 1.588417
v -6.738676 7.120569 1.678040
v -6.777823 6.973648 1.687790
v -6.349512 7.694511 1.066788
v -6.560549 7.551617 1.063492
v -6.819125 7.171825 1.175255
v -6.714022 7.335768 1.306534
v -6.414996 7.694511 0.569176
v -6.791144 7.354092 0.721054
v -6.565897 7.615600 0.184364
v -6.730650 7.468765 0.334732
v -6.224539 7.772087 0.120323
v -6.378035 7.722999 0.233810
v -6.884291 7.235447 0.371613
v -6.734984 7.459709 -0.320328
v -6.874434 7.279703 0.014252
v -6.963927 7.041946 -0.105995
v -6.356837 7.722294 -0.482712
v -6.567747 7.606518 -0.441864
v -6.893862 7.200046 -0.433670
v -6.902663 7.222618 -0.224388
v -6.095236 7.782467 -0.930450
v -6.471430 7.654308 -0.772888
v -6.804091 7.334747 -0.693909
v -6.482275 7.598507 -1.219467
v -6.817454 7.231487 -1.054443
v -6.690714 7.327045 -1.454102
v -6.810526 7.086519 -1.387283
v -6.661539 7.465012 -1.030701
v -6.431204 7.642589 -1.166046
v -6.229643 7.716740 -1.438942
v -6.277468 7.639660 -1.826263
v -6.521338 7.459709 -1.715034
v -5.629988 7.778683 -2.561455
v -6.050337 7.727241 -1.974930
v -6.430075 7.457645 -2.052956
v -6.502650 7.261310 -2.263687
v -6.630873 7.171192 -1.991547
v 3.583238 7.776079 -5.066864
v -4.286585 1.133333 -5.525520
v 6.306249 -0.000000 3.026276
v 3.782718 -0.000000 5.883728
v 6.995048 -0.000000 0.233948
v 6.589082 -0.000000 2.359962
v 4.556125 -0.000000 5.307434
v 6.543073 2.266667 -2.487602
v 6.977632 -0.000000 -0.489700
v 6.750484 -0.000000 1.841438
v 5.350370 0.566667 4.503830
v 3.781229 0.566667 -5.880989
v 6.297903 -0.000000 -3.038826
v 6.893802 -0.000000 -1.208679
v 6.896366 -0.000000 1.193970
v 5.897556 -0.000000 3.764984
v 0.180799 2.266667 -6.985428
v 1.875806 -1.133333 -6.733788
v 5.922098 -0.000000 -3.726753
v 6.728033 -0.000000 -1.913300
v 6.962274 -0.000000 0.715660
v -1.320080 -0.000000 -6.873337
v 2.477302 1.133333 -6.536964
v 5.229898 -0.000000 -4.638657
v 6.543073 -2.266667 -2.487602
v -3.772398 2.266667 -5.895287
v -3.922648 -2.266667 -5.794205
v -3.154116 -0.000000 -6.241562
v -0.466784 -1.133333 -6.970093
v 4.407167 -0.000000 -5.434776
v 1.022283 -0.566667 -6.922058
v -2.150126 -0.000000 -6.651505
v -4.903479 1.133333 -4.994125
v -5.279234 0.566667 -4.591652
v -6.299773 -0.000000 -3.039734
v -5.919470 1.700001 -3.729523
v -3.462922 2.266667 -6.083435
v -6.964957 -1.133333 -0.670296
v -6.794066 -0.000000 -1.681091
v -6.641520 -0.000000 -2.202301
v -6.481455 -0.000000 2.641937
v -6.996939 -0.000000 0.052872
v -6.920966 1.133333 -1.029640
v -3.683407 -2.266667 5.952522
v -6.083655 -0.000000 3.437241
v -6.956099 0.566667 0.775711
v 3.127716 7.680517 5.650864
v -3.527775 -0.000000 6.045151
v -5.688300 -0.070833 4.070518
v -6.876837 -0.000000 1.282379
v 4.072321 7.254946 5.546280
v 3.834312 7.062912 5.807526
v 2.843961 7.748733 5.626595
v -4.732588 0.566667 5.141388
v -6.607466 -1.133333 2.302460
v 3.969007 7.679676 5.102547
v 3.850929 7.739693 5.037811
v 3.601295 7.573065 5.560303
v 3.523033 7.099277 5.989944
v -3.886534 2.266667 5.821930
v 4.689867 7.731148 4.279388
v 4.754507 7.389788 4.867584
v 3.925062 7.773369 4.825798
v 3.506849 7.690338 5.413979
v 3.326055 7.294178 6.006775
v 5.631916 7.039654 4.094711
v 4.969064 7.686167 4.130005
v 4.991911 7.327591 4.687386
v 4.459898 7.261310 5.246765
v 3.390970 7.768904 5.235046
v 5.285841 7.779861 3.215073
v 5.038375 7.755169 3.763535
v 5.416114 7.259293 4.250076
v 4.516023 7.626980 4.745049
v 4.293901 7.476684 5.173828
v 6.377929 7.016233 2.824493
v 5.851776 7.589279 3.075623
v 5.764776 7.267551 3.740448
v 4.989484 7.573141 4.352287
v 5.104852 7.104517 4.711082
v 5.951347 7.686167 2.513458
v 6.402877 7.191591 2.607758
v 5.655683 7.678614 3.146439
v 5.522108 7.506046 3.786270
v 5.156728 7.681545 3.904861
v 6.569635 7.316387 1.940788
v 5.678308 7.765182 2.588631
v 6.216692 7.210726 3.005783
v 6.215431 7.036869 3.147247
v 5.453958 7.734627 3.253799
v 6.311166 7.699547 1.228180
v 6.378996 7.533304 1.959656
v 6.183845 7.672756 1.944450
v 6.347263 7.351776 2.520317
v 5.984197 7.501131 3.030319
v 6.819614 7.084164 1.357605
v 6.619432 7.450216 1.347397
v 6.109497 7.741253 1.640121
v 6.743902 6.973152 1.803749
v 6.109638 7.549852 2.643234
v 6.843082 7.241964 0.846237
v 6.536165 7.591869 0.952225
v 6.429113 7.598457 1.483276
v 6.626917 7.110821 2.083328
v 6.707059 7.285017 1.487068
v 6.072893 7.782879 1.060516
v 6.718969 7.432915 0.831429
v 6.870849 7.251236 0.489754
v 6.909778 7.068725 0.824486
v 6.768444 7.425484 0.365578
v 6.381460 7.722999 -0.042267
v 6.937357 7.142021 0.134308
v 6.369161 7.715877 0.565018
v 6.824770 7.331917 -0.517532
v 6.977064 6.989452 0.074646
v 6.757295 7.446503 -0.161171
v 6.889030 7.202469 -0.582611
v 6.340946 7.722999 -0.702103
v 6.853206 7.313320 0.073128
v 6.653692 7.550581 0.171700
v 6.499338 7.589279 -1.207718
v 6.276563 7.755169 -0.365555
v 6.508211 7.641809 -0.549484
v 6.196458 7.773840 0.476517
v 6.510044 7.651379 0.379623
v 6.040685 7.782934 -1.229935
v 6.765264 7.076404 -1.623909
v 6.840707 7.171593 -1.073112
v 6.645189 7.521841 -0.765091
v 6.941343 7.099848 -0.345940
v 6.450201 7.191994 -2.498489
v 6.456941 7.534836 -1.683441
v 6.323808 7.696237 -1.218063
v 6.623693 7.478660 -1.201431
v 6.769407 7.336243 -0.987427
v 5.886299 7.758909 -2.158203
v 6.104786 7.677380 -2.154175
v 6.149658 7.711704 -1.788567
v 6.196682 7.746250 -1.235367
v 6.741502 7.261310 -1.404083
v 6.016607 7.261310 -3.347992
v 6.205598 7.259554 -2.977150
v 6.325349 7.210285 -2.769897
v 6.651853 7.050547 -2.060516
v 6.672788 7.252394 -1.709152
v 5.589607 7.647625 -3.368973
v 5.973081 7.389723 -3.256973
v 5.671907 7.782577 -2.426987
v 6.170580 7.441564 -2.765137
v 6.517980 7.392223 -1.927521
v 5.335901 7.713972 -3.524109
v 5.268575 7.775871 -3.266907
v 5.837679 7.614273 -3.021843
v 6.149414 7.142021 -3.216217
v 6.206056 7.550217 -2.403473
v 4.922079 7.362076 -4.714211
v 4.886625 7.215649 -4.876076
v 5.471429 6.935150 -4.342873
v 5.919403 7.040600 -3.672752
v 5.782297 7.711258 -2.742744
v 4.125578 7.461815 -5.327301
v 4.584638 7.552135 -4.818871
v 4.822086 7.566046 -4.568817
v 5.493372 7.225038 -4.161392
v 5.722147 7.487652 -3.516228
v 4.146795 7.748485 -4.753296
v 4.354433 7.674923 -4.791290
v 4.852979 7.644110 -4.364166
v 5.356271 7.543213 -3.966934
v 3.549421 7.619152 -5.532951
v 3.553396 7.300133 -5.867760
v 3.748148 7.700409 -5.225723
v 4.503282 7.783813 -4.194221
v 4.801239 7.728123 -4.174606
v 4.414114 7.209774 -5.309227
v 3.891523 7.336788 -5.628235
v 3.245592 7.171640 -6.109100
v 3.249338 7.608047 -5.722572
v 3.099489 7.775732 -5.376823
v 3.487650 7.476362 -5.759583
v 3.937137 7.154800 -5.695801
v 2.911731 7.100420 -6.313744
v 3.017660 7.507107 -5.989906
v 2.940355 7.431858 -6.096611
v 1.391645 7.350029 -6.677467
v 3.064611 7.719173 -5.590271
v 2.612012 7.674450 -5.928864
v 0.950769 7.216810 -6.826935
v 1.793853 7.614941 -6.319839
v 2.322652 7.354715 -6.413208
v -0.029318 7.186306 -6.909782
v 1.068517 7.754818 -6.198227
v 1.504861 7.085680 -6.787262
v 2.584900 7.582994 -6.080269
v -0.797030 7.590525 -6.553864
v 0.326114 7.755760 -6.269249
v 0.816576 7.635336 -6.484879
v 1.494407 7.507107 -6.538506
v 2.256025 7.760982 -5.846176
v -1.353043 7.620132 -6.421722
v -1.045615 7.219442 -6.816467
v 0.028356 7.688921 -6.444214
v 0.464750 7.478428 -6.710152
v 1.394678 7.651630 -6.358322
v -2.381373 7.507107 -6.270119
v -1.673956 7.701427 -6.203056
v -1.448370 7.359970 -6.666702
v -0.523482 7.418503 -6.755020
v 0.355386 7.307369 -6.847618
v -2.899187 7.737341 -5.632172
v -2.290320 7.595814 -6.189590
v -1.341858 7.778093 -6.045044
v -0.464655 7.744236 -6.302094
v -1.045767 7.457645 -6.668350
v -2.730914 7.770187 -5.600571
v -2.930535 7.465839 -6.059921
v -2.280363 7.706308 -6.004166
v -2.256483 6.887155 -6.622314
v -1.652098 7.241964 -6.694359
v -4.067866 7.465755 -5.371262
v -3.700592 7.003120 -5.908112
v -3.153630 7.088465 -6.193489
v -2.077963 7.757269 -5.928497
v -2.207026 7.442535 -6.385071
v -4.465388 7.356117 -5.164146
v -3.781954 7.681320 -5.236885
v -3.737719 7.345650 -5.716812
v -2.664366 7.166845 -6.381401
v -2.526972 7.681532 -5.948196
v -4.192187 7.768595 -4.621033
v -4.241640 7.652660 -4.948288
v -4.068083 7.652660 -5.091934
v -3.548624 7.442964 -5.749588
v -3.243397 7.628696 -5.686142
v -5.178309 7.495155 -4.267746
v -5.089247 7.086845 -4.739052
v -4.084017 7.739693 -4.848610
v -3.500838 7.784359 -5.062607
v -3.613247 7.595554 -5.526443
v -5.020377 7.593681 -4.286057
v -4.786711 7.727934 -4.194336
v -4.909895 7.208858 -4.857834
v -4.862067 7.433311 -4.706696
v -4.365860 7.176269 -5.368423
v -4.769476 7.784359 -3.895958
v -5.361861 7.570473 -3.898987
v -5.298460 7.300001 -4.366760
v -4.584265 7.521477 -4.870132
v -4.575201 7.648559 -4.644196
v -5.538206 7.136005 -4.176102
v -5.487345 7.354092 -4.063820
v -5.188933 7.752809 -3.571899
v -5.284003 7.687429 -3.704376
v -5.990034 7.005588 -3.574905
v -5.822691 7.279703 -3.649048
v -5.888243 7.681744 -2.670265
v -5.964857 7.241161 -3.456024
v -5.473246 7.715315 -3.298256
v -6.226286 7.138344 -3.053574
v -5.557829 7.742077 -3.030487
v -5.846438 7.454800 -3.370926
v -6.055167 7.588915 -2.651428
v -6.122305 7.474947 -2.808075
v -5.691801 7.610954 -3.298370
v -6.561438 7.037033 -2.347733
v -6.367506 7.243341 -2.633408
v -3.073859 -7.342785 -6.101463
v 1.713914 -7.300000 6.250000
v -2.696951 -7.671250 -5.886452
v 1.974357 -7.787006 5.818604
v -2.238657 -7.757169 -5.858154
v 2.775764 -7.549446 6.047142
v -2.691523 -7.077256 -6.409996
v 3.264249 -6.800000 6.192307
v -2.520846 -7.400954 -6.306015
v 2.653730 -7.164379 6.250000
v -2.450955 -7.098385 -6.495483
v -1.713913 -7.603325 6.137161
v -2.369955 -7.536576 -6.240051
v -1.713913 -7.800000 5.750000
v -2.003714 -7.628696 -6.231934
v 0.571304 -7.786422 5.854370
v -2.227045 -7.789321 -5.714584
v -2.679097 -7.143048 6.250000
v -1.752825 -7.084413 -6.725235
v -3.264250 -6.800000 6.192307
v -1.846568 -7.429933 -6.501022
v -2.505604 -7.680207 5.967857
v -1.402487 -7.782447 -6.018944
v -2.093886 -7.696433 6.024147
v -1.447462 -7.244491 -6.735954
v -3.031088 6.800001 6.250000
v -1.522677 -7.729889 -6.169693
v -3.135844 4.945455 6.236328
v -1.200900 -7.662933 -6.380753
v -1.713913 7.668232 6.079323
v -1.193591 -7.416195 -6.668701
v -2.014563 7.780718 5.829803
v -0.469626 -7.718769 -6.366219
v -2.920031 7.456623 6.089798
v -0.291567 -7.783767 -6.150040
v -2.267903 7.259693 6.250000
v -0.472327 -7.351982 -6.808769
v 1.713914 7.613317 6.125885
v -0.474047 -7.557385 -6.622871
v 1.713914 7.800001 5.750000
v -0.179133 -7.217180 -6.898285
v 3.031089 6.800001 6.250000
v 0.295923 -7.315331 -6.836761
v 3.163005 7.164165 6.162132
v 0.597513 -7.164812 -6.896729
v 2.622438 7.631798 6.002007
v 0.832828 -7.217369 -6.849831
v 1.920658 7.793602 5.803810
v 0.761932 -7.403551 -6.751938
v 2.601751 7.428314 6.175369
v 0.802435 -7.555712 -6.599838
v 2.249769 7.800001 5.548775
v 0.334322 -7.654879 -6.485077
v 4.249860 7.800001 4.225166
v 0.622135 -7.759964 -6.244202
v 5.406753 7.800001 2.576065
v 0.636402 -7.788366 -6.111740
v 5.936803 7.800001 0.861313
v 1.161893 -7.443722 -6.657104
v 5.923692 7.800001 -0.920525
v 1.379285 -7.621623 -6.414810
v 4.726957 7.800001 -3.684486
v 1.340492 -7.722718 -6.233017
v 2.668771 7.800001 -5.368637
v 1.590969 -7.083755 -6.759598
v 1.493250 7.800001 -5.808258
v 1.524917 -7.785659 -5.954254
v -1.524853 7.800001 -5.790665
v 1.910627 -7.486611 -6.437378
v -3.754883 7.800001 -4.661980
v 2.087869 -7.698374 -6.071564
v -4.912657 7.800001 -3.439682
v 2.359262 -7.778144 -5.725601
v -5.581702 7.800001 -2.103058
v 2.403627 -7.119015 -6.499786
v -5.974493 7.800001 0.499954
v 2.384378 -7.666712 -6.038452
v -5.597853 7.800001 2.156746
v 3.278780 -7.121763 -6.109406
v -4.479758 7.800001 3.981369
v 3.200121 -7.657286 -5.661919
v -3.690468 7.800001 4.730797
v 2.747633 -7.757083 -5.639679
v -2.445349 7.800001 5.473373
v 2.905542 -7.479326 -6.053055
v -4.414912 -6.800000 5.420441
v 3.476446 -7.380115 -5.855049
v -5.455435 -6.800000 4.375443
v 3.536941 -7.471222 -5.727119
v -6.201804 -6.800000 3.243927
v 3.490827 -7.722122 -5.339478
v -6.459151 -6.800000 2.698036
v 3.225408 -7.788141 -5.224739
v -6.629794 -6.800000 2.246292
v 4.042612 -7.507401 -5.339211
v -6.861380 -6.800000 1.371643
v 3.946764 -7.662272 -5.166183
v -6.984801 -6.800000 0.384567
v 4.494718 -7.222618 -5.243530
v -6.960730 -6.800000 -0.730515
v 4.330194 -7.311500 -5.313087
v -6.872950 -6.800000 -1.327614
v 4.648534 -7.453010 -4.885391
v -6.584029 -6.800000 -2.374023
v 4.085683 -7.768363 -4.705200
v -6.303526 -6.800000 -3.041534
v 4.732900 -7.605096 -4.582741
v -5.684534 -6.800000 -4.075935
v 4.427560 -7.672323 -4.734444
v -4.989634 -6.800000 -4.909538
v 4.522466 -7.745904 -4.398651
v -4.361277 -6.800000 -5.473999
v 4.775705 -7.759368 -4.076088
v -3.141276 -6.800000 -6.249756
v 5.378275 -7.276692 -4.278244
v -1.111000 -6.800000 -6.903954
v 5.192913 -7.420002 -4.356567
v 0.181015 -6.800000 -6.994797
v 5.202182 -7.553536 -4.140274
v 2.477302 -6.800000 -6.536964
v 5.063882 -7.687826 -3.993652
v 4.312790 -6.800000 -5.509972
v 5.609579 -7.381137 -3.861076
v 5.112882 -6.800000 -4.776855
v 5.761425 -7.551249 -3.321327
v 6.164945 -6.800000 -3.309586
v 5.493135 -7.654307 -3.507446
v 6.543073 -6.800000 -2.487602
v 5.352565 -7.733732 -3.417427
v 6.881330 -6.800000 -1.267754
v 5.054746 -7.782583 -3.544189
v 6.994533 -6.800000 -0.248878
v 5.714323 -7.715878 -2.864838
v 6.933447 -6.800000 0.955383
v 5.509473 -7.774907 -2.849380
v 6.703329 -6.800000 2.016281
v 5.942451 -7.158443 -3.546844
v 6.310003 -6.800000 3.028076
v 6.163679 -7.318394 -2.990387
v 5.696607 -6.800000 4.066208
v 6.042600 -7.373576 -3.160347
v 5.083101 -6.800000 4.811188
v 5.759794 -7.666025 -3.012436
v 3.985784 -6.800000 5.753174
v 6.257307 -7.171919 -2.968704
v 2.084119 -7.800000 5.623352
v 6.015850 -7.635950 -2.572380
v 4.166875 -7.800000 4.280487
v 6.129930 -7.460655 -2.812035
v 5.888448 -7.800000 1.136566
v 6.410478 -7.256006 -2.498901
v 5.786432 -7.800000 -1.533112
v 6.235099 -7.542485 -2.354065
v 4.322605 -7.800000 -4.146957
v 6.017648 -7.712930 -2.182625
v 1.943145 -7.800000 -5.656891
v 5.889087 -7.773727 -1.991768
v -1.384703 -7.800000 -5.835083
v 6.703844 -7.105457 -1.825195
v -3.892023 -7.800000 -4.522591
v 6.612693 -7.309880 -1.799820
v -5.768179 -7.800000 -1.608032
v 6.372757 -7.520496 -2.034653
v -5.653403 -7.800000 1.983589
v 6.425087 -7.536576 -1.809189
v -3.601025 -7.800000 4.797928
v 6.185590 -7.692266 -1.779594
v -2.368876 -7.800000 5.507538
v 6.662002 -7.394386 -1.357559
v -2.602225 -7.760094 5.703918
v 6.495416 -7.557220 -1.410843
v -3.360693 -7.325546 5.945244
v 5.945900 -7.784114 -1.616867
v -3.375231 -7.549852 5.738647
v 6.380525 -7.652659 -1.328896
v -3.747061 -6.973648 5.894661
v 6.332861 -7.718827 -0.838821
v -3.722859 -7.142020 5.856590
v 6.807005 -7.192394 -1.234566
v -3.751923 -7.392854 5.657608
v 6.209833 -7.765007 -0.741219
v -3.506052 -7.767169 5.164101
v 6.894655 -7.052880 -0.975426
v -4.316985 -7.681131 4.819534
v 6.857118 -7.261309 -0.609695
v -4.671332 -7.372799 4.951675
v 6.741495 -7.394114 -0.894302
v -4.815264 -7.585551 4.521408
v 6.623106 -7.543214 -0.733124
v -4.682402 -7.790857 3.925842
v 6.484964 -7.651812 -0.632950
v -5.398493 -7.462540 4.031860
v 6.159338 -7.784808 -0.200127
v -5.323542 -7.652406 3.746880
v 6.945327 -7.026388 -0.587456
v -5.939120 -7.165725 3.560440
v 6.400989 -7.711274 -0.123993
v -6.400862 -6.991355 2.768387
v 6.832750 -7.345440 0.073059
v -5.872954 -7.582143 3.038567
v 6.759298 -7.437544 -0.308052
v -5.803465 -7.768286 2.303879
v 6.605325 -7.592598 -0.043404
v -6.180048 -7.467780 2.674477
v 6.932378 -7.145958 0.014496
v -6.535185 -7.193401 2.242172
v 6.957336 -6.984295 0.556778
v -6.199652 -7.630870 2.126480
v 6.667225 -7.529209 0.416916
v -6.440737 -7.467885 1.961761
v 6.502439 -7.652659 0.435669
v -6.393057 -7.605096 1.592285
v 6.302026 -7.751170 0.149704
v -6.388567 -7.676096 1.072647
v 6.895456 -7.126094 0.792648
v -5.975684 -7.772799 1.708847
v 6.310049 -7.734625 0.697845
v -6.742346 -7.349171 1.047958
v 6.176290 -7.775367 0.683334
v -6.531927 -7.529432 1.361359
v 6.830686 -7.308246 0.605782
v -6.530821 -7.629701 0.522324
v 6.532648 -7.599237 0.923203
v -6.732413 -7.466296 0.363289
v 6.385755 -7.676096 1.071808
v -6.419665 -7.704583 0.123604
v 6.893934 -6.984129 1.095734
v -6.661658 -7.543214 -0.159149
v 6.777578 -7.289376 1.107224
v -6.955016 -7.073639 -0.165695
v 6.661731 -7.491027 0.867371
v -6.527716 -7.642589 -0.325218
v 6.749673 -7.181917 1.526489
v -6.235968 -7.769007 0.120636
v 6.003320 -7.784808 1.412498
v -6.788458 -7.387387 -0.441299
v 6.797149 -7.005422 1.568375
v -6.642744 -7.521841 -0.793961
v 6.455099 -7.567177 1.533661
v -6.090014 -7.790501 -0.660500
v 6.232711 -7.686167 1.696396
v -6.216578 -7.756088 -0.933823
v 6.600404 -7.421159 1.553154
v -6.605360 -7.498394 -1.197617
v 6.085367 -7.754449 1.586472
v -6.294409 -7.702497 -1.281578
v 6.570737 -7.138688 2.222687
v -6.740939 -7.142020 -1.648956
v 6.481535 -7.409888 2.006294
v -6.354750 -7.616814 -1.671722
v 6.253790 -7.595917 2.115585
v -6.684081 -6.994941 -2.007523
v 6.538570 -6.989370 2.434250
v -6.456042 -7.507107 -1.817909
v 6.411785 -7.228868 2.546326
v -6.445113 -7.258389 -2.416611
v 6.245918 -7.417926 2.637581
v -6.239687 -7.591819 -2.171959
v 5.976741 -7.645129 2.631027
v -6.473696 -7.058819 -2.572037
v 6.014814 -7.691202 2.328415
v -6.015372 -7.645518 -2.541672
v 5.838155 -7.757728 2.318298
v -6.152159 -7.547290 -2.552284
v 6.141178 -7.118090 3.227142
v -5.969687 -7.501742 -3.056557
v 5.659744 -7.735818 2.864960
v -5.762129 -7.624232 -3.141479
v 6.117683 -7.308246 3.098251
v -6.040388 -7.098273 -3.430328
v 5.908926 -7.455142 3.254684
v -5.840727 -7.416288 -3.451202
v 5.688991 -7.674448 3.100037
v -5.420088 -7.689909 -3.494934
v 5.693506 -7.521624 3.498734
v -5.732287 -7.062992 -3.945862
v 5.620638 -7.789321 2.432175
v -5.105891 -7.714569 -3.848526
v 5.774988 -7.206263 3.793015
v -5.263132 -7.361245 -4.337646
v 5.405302 -7.650953 3.635742
v -5.263297 -7.074173 -4.552017
v 5.326971 -7.733433 3.465988
v -4.842410 -7.790033 -3.751114
v 5.249544 -7.774187 3.335098
v -4.771845 -7.619152 -4.521217
v 5.724439 -7.037526 3.975700
v -4.929922 -7.036706 -4.919449
v 5.550548 -7.208243 4.108887
v -4.703902 -7.583221 -4.652588
v 5.131202 -7.495543 4.320412
v -4.538466 -7.507107 -4.938385
v 5.168516 -7.642589 4.002007
v -4.253735 -7.787429 -4.430481
v 5.347051 -7.100420 4.444160
v -3.730971 -7.749530 -5.086197
v 4.925794 -7.710862 4.093582
v -3.914389 -7.259554 -5.661308
v 4.959348 -7.762908 3.822578
v -3.926093 -7.771628 -4.825821
v 4.965551 -7.286328 4.744202
v -3.380278 -7.695345 -5.475060
v 4.814100 -7.793348 3.743164
v -3.258646 -7.413235 -5.947319
v 4.384681 -7.392101 5.183838
v -2.911717 -7.765926 -5.539223
usemtl Paint_-_Metal_Flake_(Black)
f 354 47 358
f 662 47 354
f 364 662 354
f 48 662 364
f 664 48 364
f 359 664 364
f 49 664 359
f 355 49 359
f 666 49 355
f 50 666 355
f 668 50 355
f 351 668 355
f 51 668 351
f 365 51 351
f 670 51 365
f 52 670 365
f 360 52 365
f 672 52 360
f 53 672 360
f 356 53 360
f 674 53 356
f 352 674 356
f 54 674 352
f 348 54 352
f 676 54 348
f 55 676 348
f 353 55 348
f 678 55 353
f 56 678 353
f 349 56 353
f 350 56 349
f 680 56 350
f 57 680 350
f 345 57 350
f 682 57 345
f 58 682 345
f 346 58 345
f 684 58 346
f 344 684 346
f 59 684 344
f 686 59 344
f 60 686 344
f 343 60 344
f 312 60 343
f 688 60 312
f 61 688 312
f 337 61 312
f 690 61 337
f 338 690 337
f 342 690 338
f 62 690 342
f 692 62 342
f 332 692 342
f 339 692 332
f 63 692 339
f 694 63 339
f 64 694 339
f 341 64 339
f 328 64 341
f 696 64 328
f 333 696 328
f 65 696 333
f 322 65 333
f 698 65 322
f 340 698 322
f 66 698 340
f 334 66 340
f 700 66 334
f 67 700 334
f 329 67 334
f 702 67 329
f 323 702 329
f 68 702 323
f 704 68 323
f 335 704 323
f 69 704 335
f 330 69 335
f 706 69 330
f 324 706 330
f 70 706 324
f 319 70 324
f 708 70 319
f 71 708 319
f 315 71 319
f 331 71 315
f 710 71 331
f 325 710 331
f 72 710 325
f 320 72 325
f 712 72 320
f 73 712 320
f 316 73 320
f 313 73 316
f 714 73 313
f 74 714 313
f 326 74 313
f 716 74 326
f 321 716 326
f 75 716 321
f 718 75 321
f 76 718 321
f 317 76 321
f 720 76 317
f 314 720 317
f 77 720 314
f 584 77 314
f 358 364 354
f 370 364 358
f 336 337 312
f 336 338 337
f 347 338 336
f 327 341 339
f 318 335 323
f 318 330 335
f 26 584 314
f 314 170 26
f 314 171 170
f 314 172 171
f 317 172 314
f 317 173 172
f 317 174 173
f 321 174 317
f 321 175 174
f 326 175 321
f 326 176 175
f 326 177 176
f 313 177 326
f 313 178 177
f 313 179 178
f 316 179 313
f 316 180 179
f 320 180 316
f 320 181 180
f 320 182 181
f 325 182 320
f 325 183 182
f 331 183 325
f 331 184 183
f 331 185 184
f 315 185 331
f 315 186 185
f 319 186 315
f 319 187 186
f 319 188 187
f 324 188 319
f 324 189 188
f 330 189 324
f 330 190 189
f 330 191 190
f 318 191 330
f 323 191 318
f 323 192 191
f 323 193 192
f 323 194 193
f 329 194 323
f 329 195 194
f 334 195 329
f 334 196 195
f 334 197 196
f 334 198 197
f 340 198 334
f 322 198 340
f 322 199 198
f 322 200 199
f 333 200 322
f 333 201 200
f 333 202 201
f 328 202 333
f 341 202 328
f 341 203 202
f 327 203 341
f 327 204 203
f 339 204 327
f 339 205 204
f 339 206 205
f 332 206 339
f 342 206 332
f 342 207 206
f 342 208 207
f 342 209 208
f 338 209 342
f 347 209 338
f 347 210 209
f 336 210 347
f 336 211 210
f 312 211 336
f 312 212 211
f 312 213 212
f 343 213 312
f 343 214 213
f 344 214 343
f 344 215 214
f 344 216 215
f 346 216 344
f 346 217 216
f 345 217 346
f 345 218 217
f 345 219 218
f 350 219 345
f 350 220 219
f 349 220 350
f 349 221 220
f 353 221 349
f 353 222 221
f 353 223 222
f 348 223 353
f 348 224 223
f 352 224 348
f 352 225 224
f 356 225 352
f 356 226 225
f 356 227 226
f 360 227 356
f 360 228 227
f 360 229 228
f 365 229 360
f 365 230 229
f 365 231 230
f 351 231 365
f 355 231 351
f 355 232 231
f 355 233 232
f 359 233 355
f 359 234 233
f 359 235 234
f 359 236 235
f 364 236 359
f 364 237 236
f 370 237 364
f 358 237 370
f 358 18 237
f 358 596 18
f 47 596 358
f 28 363 628
f 366 373 367
f 371 630 373
f 384 373 366
f 371 373 384
f 382 630 371
f 382 32 630
f 382 371 377
f 381 32 382
f 395 382 377
f 395 381 382
f 400 381 395
f 397 632 381
f 397 381 400
f 397 400 393
f 421 428 432
f 636 432 436
f 436 432 428
f 449 436 428
f 443 449 428
f 446 436 449
f 446 35 436
f 458 35 446
f 448 449 443
f 448 446 449
f 447 446 448
f 470 446 447
f 470 458 446
f 462 458 470
f 462 35 458
f 37 640 489
f 496 37 489
f 509 37 496
f 642 37 509
f 509 496 497
f 504 509 497
f 502 642 509
f 506 642 502
f 506 38 642
f 506 502 507
f 521 527 533
f 533 539 525
f 527 539 533
f 520 525 539
f 548 39 525
f 544 525 520
f 536 525 544
f 536 548 525
f 540 646 548
f 547 548 536
f 540 548 547
f 542 547 536
f 555 646 540
f 541 547 542
f 559 547 541
f 540 547 559
f 551 540 559
f 551 555 540
f 290 294 303
f 42 294 290
f 284 42 290
f 272 42 284
f 282 284 290
f 285 284 282
f 272 284 285
f 280 272 285
f 276 272 280
f 174 383 390
f 174 376 383
f 176 177 376
f 180 414 179
f 180 409 414
f 184 425 419
f 187 188 438
f 190 454 437
f 192 453 191
f 468 474 195
f 197 485 467
f 199 481 491
f 199 487 481
f 199 200 492
f 214 552 213
f 214 546 552
f 215 560 546
f 216 560 215
f 217 569 564
f 220 310 575
f 220 300 310
f 221 300 220
f 223 292 222
f 223 289 292
f 275 274 228
f 275 270 274
f 229 270 275
f 233 234 253
f 362 172 361
f 171 172 362
f 177 388 376
f 177 399 388
f 399 392 398
f 386 392 399
f 179 392 386
f 414 392 179
f 409 406 414
f 419 422 418
f 425 422 419
f 425 440 422
f 187 427 440
f 187 438 427
f 188 437 438
f 454 455 437
f 191 441 454
f 191 453 441
f 192 452 453
f 192 464 452
f 192 193 464
f 195 474 469
f 197 466 468
f 197 467 466
f 198 491 485
f 199 492 487
f 200 500 492
f 200 201 500
f 204 519 203
f 204 501 519
f 204 511 501
f 211 537 531
f 211 554 537
f 212 554 211
f 213 552 554
f 216 567 560
f 564 567 216
f 564 569 567
f 218 576 569
f 219 576 218
f 219 575 576
f 222 298 300
f 222 292 298
f 225 286 289
f 225 278 286
f 226 278 225
f 227 278 226
f 228 278 227
f 228 274 278
f 232 263 231
f 232 261 263
f 232 259 261
f 232 233 259
f 233 253 256
f 236 253 234
f 253 236 247
f 620 369 375
f 172 379 361
f 173 379 172
f 376 388 383
f 399 398 388
f 414 396 392
f 414 415 396
f 406 415 414
f 406 411 415
f 419 411 406
f 419 418 411
f 422 429 418
f 422 440 429
f 437 450 438
f 437 455 450
f 454 441 455
f 464 451 452
f 193 451 464
f 193 469 451
f 468 466 474
f 492 494 487
f 492 500 494
f 503 500 201
f 503 498 495
f 205 529 511
f 206 529 205
f 206 534 529
f 207 534 206
f 207 538 534
f 560 567 565
f 575 309 576
f 575 310 309
f 292 296 298
f 289 293 292
f 289 288 293
f 289 286 288
f 278 274 279
f 270 267 269
f 270 265 267
f 231 265 270
f 233 256 259
f 369 361 375
f 362 361 369
f 361 379 385
f 173 378 372
f 390 378 173
f 390 383 378
f 392 404 398
f 440 424 429
f 427 424 440
f 427 445 424
f 438 445 427
f 438 450 445
f 441 460 455
f 451 457 452
f 469 475 451
f 485 466 467
f 485 471 466
f 491 490 486
f 481 490 491
f 503 495 500
f 203 513 498
f 203 519 513
f 511 518 501
f 529 517 511
f 532 526 538
f 532 543 526
f 531 543 532
f 531 537 543
f 554 535 530
f 552 535 554
f 546 553 552
f 546 557 553
f 560 557 546
f 560 561 557
f 560 571 561
f 565 571 560
f 300 299 310
f 300 298 299
f 293 288 292
f 278 281 286
f 274 269 279
f 274 270 269
f 247 249 253
f 247 237 246
f 173 385 379
f 173 372 385
f 392 396 404
f 415 407 396
f 411 417 415
f 418 417 411
f 418 420 417
f 418 429 420
f 429 424 426
f 450 444 445
f 450 460 444
f 455 460 450
f 441 459 460
f 453 459 441
f 453 452 459
f 451 475 457
f 469 474 475
f 491 471 485
f 491 486 471
f 511 524 518
f 511 517 524
f 529 534 517
f 554 530 537
f 557 545 553
f 557 561 545
f 567 571 565
f 569 571 567
f 569 576 571
f 309 2 576
f 309 308 2
f 309 305 308
f 310 305 309
f 299 305 310
f 298 301 299
f 298 296 301
f 292 287 296
f 292 288 287
f 286 283 288
f 263 265 231
f 263 261 265
f 259 256 260
f 247 246 249
f 237 241 246
f 242 241 237
f 361 368 375
f 378 389 372
f 383 389 378
f 383 394 389
f 388 394 383
f 388 398 394
f 398 404 405
f 404 396 402
f 415 417 407
f 429 426 420
f 452 457 459
f 486 490 471
f 481 488 490
f 487 488 481
f 487 494 488
f 500 504 494
f 501 513 519
f 501 518 513
f 538 526 534
f 552 553 535
f 576 573 571
f 576 2 573
f 2 308 3
f 288 283 287
f 286 281 283
f 278 277 281
f 279 277 278
f 259 260 261
f 256 255 260
f 256 253 255
f 253 249 250
f 240 237 18
f 240 242 237
f 368 374 357
f 389 395 377
f 394 395 389
f 394 393 395
f 387 393 394
f 387 391 393
f 410 391 387
f 410 403 391
f 402 413 403
f 412 401 413
f 412 423 401
f 412 435 423
f 431 443 433
f 442 443 431
f 442 448 443
f 442 447 448
f 465 470 447
f 465 463 470
f 463 456 470
f 475 461 456
f 479 461 475
f 479 478 461
f 472 477 478
f 471 482 477
f 471 496 482
f 480 496 471
f 488 496 480
f 504 496 488
f 504 497 496
f 513 512 507
f 526 520 539
f 526 544 520
f 549 536 544
f 558 559 541
f 550 563 551
f 556 563 550
f 574 568 563
f 572 566 574
f 572 304 566
f 297 302 304
f 297 295 302
f 277 280 282
f 277 276 280
f 277 271 276
f 273 271 277
f 268 271 273
f 264 271 268
f 264 266 271
f 264 262 266
f 252 254 255
f 245 243 248
f 244 239 243
f 241 239 244
f 385 366 368
f 385 384 366
f 405 410 387
f 402 403 410
f 430 435 412
f 430 433 435
f 439 431 433
f 465 447 442
f 475 456 463
f 473 472 478
f 471 477 472
f 488 480 471
f 495 507 514
f 534 516 510
f 534 521 516
f 526 539 521
f 530 536 549
f 530 542 536
f 558 542 530
f 558 541 542
f 545 556 550
f 556 574 563
f 3 304 572
f 305 304 3
f 305 297 304
f 301 295 297
f 291 295 301
f 268 273 277
f 265 262 264
f 260 262 265
f 260 255 257
f 245 244 243
f 245 241 244
f 248 656 254
f 248 243 656
f 243 46 658
f 239 46 243
f 239 660 46
f 239 21 608
f 243 45 656
f 243 658 45
f 660 239 608
f 236 237 247
f 234 235 236
f 229 230 231
f 289 224 225
f 223 224 289
f 531 210 211
f 209 210 531
f 532 209 531
f 208 209 528
f 207 208 528
f 468 196 197
f 195 196 468
f 193 194 195
f 185 186 425
f 182 183 184
f 181 182 409
f 180 181 409
f 177 178 399
f 173 174 390
f 170 171 362
f 622 27 357
f 363 622 357
f 28 622 363
f 628 624 28
f 628 616 29
f 624 628 29
f 380 31 363
f 357 380 363
f 374 380 357
f 373 380 374
f 373 31 380
f 630 31 373
f 367 373 374
f 366 367 374
f 381 632 32
f 408 632 397
f 33 632 408
f 391 397 393
f 408 397 391
f 416 33 408
f 403 408 391
f 416 634 33
f 401 416 408
f 434 634 416
f 434 34 634
f 423 416 401
f 434 416 423
f 421 434 423
f 432 434 421
f 432 34 434
f 432 636 34
f 436 35 636
f 462 638 35
f 461 462 470
f 483 638 462
f 456 461 470
f 484 462 461
f 483 462 484
f 36 638 483
f 476 484 478
f 476 483 484
f 477 476 478
f 311 483 476
f 311 36 483
f 489 36 311
f 489 640 36
f 482 311 476
f 496 311 482
f 489 311 496
f 512 506 507
f 523 38 506
f 523 644 38
f 522 644 523
f 523 506 512
f 516 522 523
f 533 522 516
f 533 644 522
f 39 644 533
f 521 533 516
f 525 39 533
f 548 646 39
f 555 40 646
f 648 40 555
f 563 555 551
f 562 555 563
f 562 648 555
f 41 648 562
f 568 41 562
f 306 41 568
f 306 650 41
f 568 562 563
f 570 306 568
f 566 306 570
f 307 306 566
f 307 650 306
f 294 650 307
f 42 650 294
f 303 294 307
f 272 652 42
f 272 43 652
f 271 272 276
f 266 272 271
f 266 43 272
f 238 43 266
f 654 43 238
f 258 238 266
f 258 654 238
f 258 44 654
f 262 258 266
f 254 44 258
f 260 258 262
f 656 44 254
f 257 258 260
f 254 258 257
f 255 254 257
f 608 20 660
f 368 366 374
f 389 371 384
f 389 377 371
f 393 400 395
f 413 408 403
f 413 401 408
f 435 421 423
f 433 421 435
f 433 428 421
f 433 443 428
f 478 484 461
f 477 482 476
f 499 509 504
f 499 502 509
f 499 514 502
f 514 507 502
f 505 523 512
f 510 523 505
f 510 516 523
f 539 527 521
f 550 551 559
f 574 570 568
f 574 566 570
f 304 307 566
f 304 303 307
f 302 303 304
f 302 290 303
f 295 290 302
f 291 290 295
f 291 282 290
f 282 280 285
f 252 248 254
f 241 21 239
f 27 368 357
f 361 385 368
f 405 387 394
f 404 402 410
f 407 413 402
f 407 412 413
f 417 430 412
f 426 433 430
f 439 433 426
f 444 431 439
f 444 442 431
f 459 463 465
f 457 463 459
f 475 463 457
f 466 478 479
f 466 473 478
f 466 472 473
f 490 488 471
f 493 504 488
f 494 504 493
f 508 514 499
f 518 512 513
f 518 505 512
f 524 510 505
f 517 510 524
f 517 534 510
f 515 526 521
f 543 549 544
f 553 559 558
f 553 550 559
f 571 574 556
f 571 572 574
f 573 572 571
f 308 305 3
f 287 282 291
f 283 282 287
f 283 277 282
f 269 268 277
f 269 264 268
f 250 252 253
f 251 252 250
f 251 248 252
f 249 248 251
f 249 245 248
f 246 241 245
f 610 21 241
f 375 368 27
f 372 384 385
f 372 389 384
f 398 405 394
f 404 410 405
f 396 407 402
f 417 412 407
f 420 430 417
f 426 430 420
f 424 439 426
f 445 439 424
f 445 444 439
f 460 442 444
f 460 465 442
f 459 465 460
f 474 479 475
f 474 466 479
f 466 471 472
f 494 493 488
f 500 499 504
f 500 508 499
f 495 508 500
f 495 514 508
f 498 507 495
f 498 513 507
f 518 524 505
f 534 515 521
f 534 526 515
f 526 543 544
f 537 549 543
f 537 530 549
f 535 558 530
f 553 558 535
f 553 545 550
f 561 556 545
f 571 556 561
f 2 572 573
f 2 3 572
f 299 297 305
f 299 301 297
f 296 291 301
f 296 287 291
f 281 277 283
f 279 269 277
f 267 264 269
f 265 264 267
f 261 260 265
f 253 252 255
f 249 251 250
f 246 245 249
f 240 241 242
f 240 610 241
f 240 22 610
f 240 18 22
f 363 31 628
f 620 375 27
f 170 620 26
f 170 369 620
f 170 362 369
f 175 376 174
f 175 176 376
f 178 386 399
f 178 179 386
f 182 406 409
f 182 419 406
f 182 184 419
f 185 425 184
f 186 440 425
f 186 187 440
f 189 437 188
f 189 190 437
f 191 454 190
f 195 469 193
f 197 198 485
f 198 199 491
f 202 503 201
f 202 498 503
f 202 203 498
f 205 511 204
f 528 538 207
f 209 538 528
f 209 532 538
f 212 213 554
f 214 215 546
f 217 564 216
f 217 218 569
f 219 220 575
f 222 300 221
f 229 275 228
f 231 270 229
f 732 734 83
f 732 84 734
f 82 84 732
f 82 736 84
f 730 736 82
f 730 85 736
f 81 85 730
f 728 85 81
f 728 738 85
f 80 738 728
f 80 86 738
f 726 86 80
f 726 740 86
f 79 740 726
f 79 87 740
f 724 87 79
f 724 742 87
f 78 742 724
f 78 88 742
f 78 744 88
f 722 744 78
f 722 590 744
f 6 590 722
f 722 168 580
f 722 78 168
f 168 78 165
f 78 163 165
f 165 162 166
f 165 160 162
f 163 158 160
f 160 158 4
f 580 168 7
f 163 160 165
f 158 873 4
f 875 859 873
f 859 849 857
f 859 843 849
f 843 839 837
f 839 821 837
f 821 817 837
f 853 726 811
f 821 801 817
f 821 793 801
f 726 795 811
f 726 80 795
f 80 769 795
f 793 773 787
f 793 789 773
f 80 728 769
f 773 753 767
f 773 757 753
f 769 728 757
f 811 795 821
f 795 789 793
f 769 789 795
f 769 757 789
f 753 751 767
f 753 743 751
f 733 731 743
f 711 709 731
f 707 689 697
f 730 681 687
f 681 673 685
f 82 669 681
f 669 82 659
f 667 659 657
f 82 649 659
f 730 689 707
f 730 687 689
f 669 667 681
f 659 647 653
f 611 83 599
f 83 734 599
f 734 581 599
f 603 581 591
f 734 593 581
f 581 579 591
f 593 84 581
f 84 89 581
f 611 599 609
f 599 581 603
f 89 882 581
f 878 872 152
f 872 151 152
f 872 876 151
f 876 148 151
f 148 854 144
f 860 85 139
f 85 128 139
f 85 738 128
f 134 130 132
f 130 822 132
f 738 816 128
f 818 121 822
f 139 142 860
f 128 134 139
f 128 130 134
f 128 818 130
f 816 818 128
f 816 121 818
f 121 810 802
f 115 111 790
f 101 99 770
f 99 97 764
f 107 101 778
f 766 101 107
f 766 99 101
f 766 97 99
f 97 760 764
f 97 92 760
f 97 758 92
f 160 4 162
f 873 867 4
f 873 857 869
f 859 857 873
f 843 835 849
f 843 837 835
f 793 787 801
f 709 723 731
f 709 719 723
f 705 703 709
f 705 697 703
f 687 683 697
f 687 685 683
f 667 673 681
f 659 653 657
f 639 627 637
f 629 627 639
f 609 615 629
f 850 138 844
f 134 838 138
f 134 834 838
f 132 834 134
f 822 826 132
f 822 124 826
f 121 124 822
f 121 808 124
f 121 802 808
f 115 798 802
f 115 790 798
f 111 788 790
f 109 106 784
f 106 105 776
f 101 770 105
f 99 764 770
f 92 746 90
f 166 167 169
f 162 161 166
f 162 4 161
f 849 851 857
f 837 827 835
f 837 815 827
f 817 815 837
f 801 815 817
f 801 799 815
f 801 787 799
f 773 779 787
f 773 767 779
f 743 747 751
f 731 729 743
f 731 723 729
f 719 701 723
f 709 701 719
f 709 703 701
f 703 695 701
f 697 695 703
f 673 671 685
f 667 657 673
f 653 647 661
f 639 637 647
f 605 607 609
f 603 597 605
f 603 591 597
f 579 878 157
f 878 152 155
f 151 153 152
f 148 866 151
f 148 862 866
f 144 862 148
f 144 143 145
f 854 143 144
f 854 141 143
f 850 141 854
f 850 844 141
f 138 838 844
f 132 826 834
f 802 804 808
f 802 798 804
f 790 114 798
f 790 796 114
f 790 788 796
f 111 784 788
f 109 784 111
f 105 770 776
f 760 95 764
f 760 92 95
f 92 750 756
f 92 90 750
f 869 867 873
f 869 857 867
f 849 847 851
f 849 835 847
f 787 785 799
f 787 779 785
f 767 765 779
f 767 747 765
f 751 747 767
f 743 741 747
f 743 739 741
f 743 729 739
f 723 701 725
f 697 683 695
f 685 679 683
f 685 671 679
f 673 657 671
f 657 661 665
f 657 653 661
f 637 645 647
f 609 607 615
f 579 589 591
f 157 155 880
f 878 155 157
f 152 154 155
f 152 153 154
f 144 866 862
f 144 145 866
f 838 842 844
f 838 840 842
f 838 834 840
f 124 820 826
f 124 804 814
f 808 804 124
f 784 786 788
f 784 780 786
f 106 780 784
f 106 776 780
f 770 764 768
f 92 756 95
f 90 748 750
f 166 164 167
f 166 161 164
f 4 881 161
f 857 851 867
f 835 833 847
f 827 833 835
f 827 825 833
f 815 825 827
f 799 807 815
f 785 807 799
f 779 777 785
f 779 765 777
f 723 725 729
f 683 679 695
f 657 665 671
f 647 645 661
f 637 627 635
f 629 625 627
f 629 619 625
f 629 615 619
f 605 597 607
f 591 589 585
f 579 585 589
f 579 157 585
f 157 880 577
f 151 868 153
f 151 149 868
f 866 149 151
f 844 842 141
f 834 133 840
f 834 830 133
f 826 830 834
f 826 127 830
f 826 820 127
f 124 814 820
f 798 800 804
f 798 114 800
f 788 786 796
f 770 102 776
f 770 768 102
f 764 95 762
f 161 881 164
f 4 867 881
f 815 819 825
f 807 819 815
f 785 775 807
f 785 777 775
f 765 763 777
f 765 745 763
f 747 745 765
f 747 737 745
f 741 737 747
f 741 739 737
f 729 727 739
f 729 725 727
f 695 699 701
f 695 693 699
f 695 679 693
f 665 661 663
f 661 645 651
f 637 635 645
f 627 625 635
f 615 617 619
f 615 613 617
f 591 585 597
f 157 577 585
f 155 156 880
f 155 154 156
f 153 149 154
f 868 149 153
f 866 147 149
f 145 856 866
f 145 143 856
f 141 140 143
f 141 848 140
f 842 848 141
f 830 127 133
f 814 125 820
f 814 812 125
f 804 812 814
f 804 800 812
f 114 794 800
f 114 796 794
f 764 98 100
f 764 762 98
f 750 748 756
f 867 877 881
f 851 865 867
f 851 847 855
f 833 845 847
f 807 805 819
f 807 797 805
f 807 775 797
f 739 727 737
f 725 715 727
f 701 717 725
f 701 699 713
f 671 677 679
f 671 665 677
f 661 655 663
f 615 607 613
f 154 874 156
f 866 146 147
f 866 856 146
f 143 140 856
f 842 135 848
f 840 135 842
f 840 133 135
f 127 125 129
f 820 125 127
f 800 794 117
f 786 108 782
f 780 108 786
f 776 103 780
f 776 102 103
f 102 768 772
f 764 100 768
f 867 865 877
f 851 855 865
f 833 831 845
f 833 825 831
f 819 809 825
f 819 805 809
f 777 761 775
f 763 761 777
f 717 715 725
f 717 713 715
f 701 713 717
f 693 691 699
f 645 635 641
f 635 623 641
f 625 623 635
f 625 621 623
f 625 619 621
f 607 595 601
f 597 595 607
f 585 583 587
f 135 133 832
f 133 127 832
f 125 812 123
f 812 117 118
f 800 117 812
f 796 110 794
f 786 110 796
f 786 782 110
f 780 103 104
f 98 762 100
f 95 96 762
f 756 96 95
f 881 877 159
f 847 841 855
f 847 845 841
f 845 831 841
f 825 823 831
f 825 809 823
f 797 791 805
f 775 781 797
f 775 761 781
f 763 755 761
f 745 755 763
f 745 737 755
f 737 727 735
f 715 721 727
f 715 713 721
f 699 691 713
f 693 700 691
f 679 700 693
f 679 66 700
f 679 675 66
f 677 675 679
f 665 655 677
f 665 663 655
f 619 617 694
f 585 587 597
f 880 1 577
f 880 156 1
f 154 688 874
f 154 150 688
f 149 150 154
f 149 864 150
f 149 147 864
f 848 846 140
f 135 846 848
f 135 136 846
f 135 832 136
f 127 131 832
f 127 129 131
f 125 123 129
f 118 120 812
f 108 774 782
f 780 774 108
f 780 104 774
f 102 772 103
f 768 100 772
f 756 748 94
f 877 718 159
f 877 871 718
f 865 871 877
f 805 791 809
f 797 781 791
f 761 771 781
f 761 759 771
f 761 755 759
f 737 735 755
f 675 677 66
f 661 651 655
f 645 696 651
f 645 641 696
f 613 63 617
f 613 692 63
f 607 692 613
f 607 601 692
f 597 587 595
f 585 690 583
f 585 1 690
f 577 1 585
f 146 858 147
f 856 858 146
f 140 858 856
f 140 852 858
f 140 846 852
f 129 824 131
f 129 123 824
f 812 122 123
f 812 806 122
f 120 806 812
f 120 118 806
f 117 116 118
f 117 113 116
f 794 113 117
f 794 110 113
f 110 782 52
f 104 103 774
f 762 48 100
f 756 754 96
f 94 754 756
f 94 748 754
f 865 75 871
f 865 863 75
f 855 863 865
f 855 74 863
f 841 74 855
f 831 829 841
f 831 823 829
f 809 813 823
f 809 803 813
f 809 791 803
f 791 781 783
f 755 706 759
f 755 735 706
f 721 68 727
f 713 702 721
f 691 700 67
f 677 698 66
f 677 65 698
f 655 65 677
f 595 692 601
f 156 690 1
f 874 688 156
f 150 60 688
f 150 864 60
f 147 858 864
f 136 57 846
f 136 836 57
f 832 836 136
f 832 680 836
f 832 131 680
f 131 678 828
f 824 678 131
f 824 126 678
f 123 126 824
f 123 122 126
f 110 52 113
f 103 666 774
f 103 49 666
f 772 49 103
f 100 664 772
f 762 96 48
f 754 93 96
f 754 91 93
f 748 91 754
f 748 596 91
f 871 75 718
f 863 74 716
f 841 829 714
f 823 712 829
f 823 813 712
f 791 783 803
f 781 771 708
f 735 69 706
f 727 69 735
f 727 68 69
f 721 702 68
f 691 67 713
f 651 696 655
f 617 63 694
f 587 62 595
f 156 61 690
f 688 61 156
f 858 59 864
f 858 852 684
f 846 58 852
f 846 57 137
f 836 680 57
f 131 828 680
f 122 676 126
f 122 54 676
f 806 54 122
f 118 674 806
f 116 674 118
f 116 113 674
f 52 672 113
f 782 51 52
f 782 774 51
f 100 48 664
f 96 662 48
f 93 752 96
f 93 47 752
f 91 47 93
f 91 596 47
f 863 716 75
f 841 714 74
f 829 73 714
f 813 803 72
f 783 710 803
f 783 71 710
f 783 708 71
f 781 708 783
f 771 70 708
f 771 706 70
f 759 706 771
f 713 67 702
f 655 696 65
f 641 623 64
f 619 694 621
f 587 690 62
f 583 690 587
f 858 684 59
f 846 682 58
f 137 682 846
f 137 57 682
f 828 56 680
f 828 678 56
f 126 55 678
f 126 676 55
f 54 806 119
f 774 666 668
f 772 664 49
f 96 47 662
f 752 47 96
f 744 16 746
f 88 744 746
f 92 88 746
f 758 88 92
f 742 88 758
f 97 742 758
f 87 742 97
f 766 87 97
f 107 87 766
f 107 740 87
f 792 740 107
f 792 107 778
f 112 740 792
f 86 740 112
f 810 86 112
f 816 86 810
f 738 86 816
f 121 816 810
f 736 85 860
f 854 860 142
f 870 860 148
f 870 736 860
f 736 870 876
f 89 736 876
f 84 736 89
f 734 84 593
f 633 83 611
f 631 633 611
f 643 83 633
f 643 633 631
f 732 83 643
f 639 643 631
f 649 732 643
f 82 732 649
f 681 730 82
f 81 730 707
f 711 707 705
f 711 81 707
f 749 81 711
f 749 728 81
f 733 749 711
f 757 728 749
f 853 79 726
f 839 811 821
f 853 811 839
f 861 853 843
f 879 853 861
f 879 79 853
f 724 79 879
f 875 879 861
f 158 879 875
f 163 879 158
f 163 724 879
f 163 78 724
f 722 580 6
f 720 77 584
f 167 584 8
f 164 584 167
f 720 584 164
f 159 76 720
f 167 8 582
f 881 720 164
f 159 720 881
f 169 167 582
f 90 598 15
f 746 598 90
f 16 598 746
f 15 748 90
f 596 748 15
f 50 668 666
f 51 774 668
f 670 52 51
f 53 113 672
f 674 113 53
f 674 119 806
f 54 119 674
f 684 852 58
f 686 864 59
f 686 60 864
f 692 595 62
f 64 621 694
f 64 623 621
f 64 696 641
f 704 69 68
f 72 803 710
f 72 712 813
f 73 829 712
f 159 718 76
f 582 7 169
f 168 169 7
f 165 169 168
f 165 166 169
f 875 873 158
f 861 859 875
f 861 843 859
f 839 843 853
f 795 793 821
f 757 773 789
f 749 753 757
f 749 743 753
f 733 743 749
f 733 711 731
f 711 705 709
f 707 697 705
f 689 687 697
f 681 685 687
f 669 659 667
f 649 647 659
f 643 647 649
f 643 639 647
f 631 629 639
f 611 629 631
f 611 609 629
f 599 605 609
f 599 603 605
f 882 579 581
f 882 878 579
f 89 878 882
f 89 872 878
f 876 872 89
f 870 148 876
f 860 854 148
f 142 850 854
f 142 138 850
f 139 138 142
f 139 134 138
f 818 822 130
f 810 115 802
f 112 115 810
f 112 111 115
f 112 792 111
f 792 109 111
f 778 109 792
f 778 106 109
f 778 105 106
f 778 101 105
f 590 16 744
f 10 14 594
f 602 14 10
f 23 9 618
f 9 578 586
f 23 578 9
f 10 612 602
f 10 19 612
f 10 23 19
f 578 23 10
f 644 642 38
f 644 37 642
f 39 37 644
f 39 640 37
f 646 640 39
f 646 36 640
f 40 36 646
f 40 638 36
f 648 638 40
f 648 35 638
f 41 35 648
f 650 35 41
f 650 636 35
f 42 636 650
f 42 34 636
f 652 34 42
f 652 634 34
f 652 33 634
f 43 33 652
f 43 632 33
f 654 632 43
f 44 632 654
f 44 32 632
f 656 32 44
f 656 630 32
f 45 630 656
f 45 31 630
f 658 31 45
f 46 31 658
f 46 628 31
f 660 628 46
f 20 628 660
f 20 616 628
f 618 30 26
f 30 618 9
f 30 9 584
f 30 584 26
f 620 618 26
f 618 620 27
f 626 28 23
f 28 626 622
f 626 23 618
f 28 614 23
f 27 626 618
f 29 614 28
f 29 24 614
f 27 622 626
f 616 24 29
f 624 29 28
f 614 25 23
f 614 24 25
f 20 24 616
f 606 24 20
f 606 25 24
f 19 25 606
f 19 23 25
f 602 610 18
f 22 18 610
f 602 612 610
f 610 612 21
f 612 606 21
f 608 606 20
f 606 608 21
f 612 19 606
f 18 14 604
f 604 602 18
f 14 18 596
f 602 604 14
f 596 594 14
f 594 598 10
f 598 17 10
f 16 11 600
f 16 17 598
f 16 600 17
f 594 596 15
f 600 10 17
f 600 588 10
f 598 594 15
f 11 588 600
f 590 11 16
f 592 13 590
f 592 12 13
f 12 578 13
f 588 578 10
f 588 13 578
f 11 13 588
f 11 590 13
f 6 592 590
f 5 592 6
f 5 12 592
f 578 12 5
f 9 8 584
f 586 582 8
f 586 5 7
f 5 580 7
f 5 6 580
f 578 5 586
f 7 582 586
f 586 8 9
g Body3

v -2.199999 4.191602 4.250687
v -2.199999 -0.717407 5.911377
v -2.199999 2.078632 5.558502
v -2.199999 5.434674 2.507019
v -2.199999 5.948226 0.456802
v -2.199999 5.598989 -2.020607
v -2.199999 4.681950 -3.720932
v -2.199999 3.188229 -5.032257
v -2.199999 0.938113 -5.885605
v -2.199999 -1.574164 -5.748688
v -2.199999 -3.350159 -4.951355
v -2.199999 -4.863139 -3.441124
v -2.199999 -5.865580 -0.990082
v -2.199999 -5.801064 1.401588
v -2.199999 -4.689220 3.657242
v -2.199999 -2.932823 5.200386
v -10.199999 -0.194603 5.981880
v -10.199999 -2.140641 5.565323
v -10.199999 -3.734770 4.676773
v -10.199999 -5.077136 3.118004
v -10.199999 -5.897033 0.925507
v -10.199999 -5.929453 -0.832199
v -10.199999 -5.459136 -2.426514
v -10.199999 -4.100643 -4.315720
v -10.199999 -2.299540 -5.515015
v -10.199999 -0.180513 -5.965332
v -10.199999 1.794216 -5.711487
v -10.199999 3.350159 -4.951355
v -10.199999 4.733732 -3.621338
v -10.199999 5.776853 -1.481445
v -10.199999 5.989641 0.194878
v -10.199999 5.622837 1.984650
v -10.199999 4.216688 4.157593
v -10.199999 1.918475 5.642853
v -6.199999 0.450546 5.955818
v -6.199999 2.415797 5.469696
v -6.199999 4.081796 4.356934
v -6.199999 5.402733 2.538116
v -6.199999 5.921738 0.887177
v -6.199999 5.897854 -0.897423
v -6.199999 5.157930 -3.004547
v -6.199999 3.985262 -4.456238
v -6.199999 2.316571 -5.520309
v -6.199999 0.145578 -5.946625
v -6.199999 -2.471755 -5.414551
v -6.199999 -4.528704 -3.846458
v -6.199999 -5.705088 -1.792587
v -6.199999 -5.951118 0.255447
v -6.199999 -5.222934 2.866524
v -6.199999 -3.973544 4.464188
v -6.199999 -2.817651 5.278625
v -6.199999 -1.309982 5.838287
f 912 911 910
f 910 913 912
f 914 913 910
f 910 915 914
f 910 916 915
f 909 916 910
f 908 916 909
f 908 899 916
f 903 905 904
f 902 905 903
f 902 906 905
f 901 906 902
f 901 907 906
f 900 907 901
f 900 908 907
f 899 908 900
f 895 897 896
f 894 897 895
f 893 897 894
f 893 898 897
f 892 898 893
f 892 884 898
f 891 884 892
f 888 890 889
f 887 890 888
f 886 890 887
f 883 890 886
f 885 890 883
f 885 891 890
f 884 891 885
f 899 934 917
f 900 934 899
f 900 933 934
f 901 933 900
f 901 932 933
f 902 932 901
f 902 931 932
f 903 931 902
f 903 930 931
f 904 930 903
f 904 929 930
f 905 929 904
f 905 928 929
f 906 928 905
f 906 927 928
f 907 927 906
f 908 927 907
f 908 926 927
f 909 926 908
f 909 925 926
f 910 925 909
f 910 924 925
f 911 924 910
f 911 923 924
f 912 923 911
f 912 922 923
f 913 922 912
f 913 921 922
f 914 921 913
f 914 920 921
f 915 920 914
f 915 919 920
f 915 918 919
f 916 918 915
f 916 917 918
f 899 917 916
f 885 917 884
f 885 918 917
f 885 919 918
f 883 919 885
f 883 920 919
f 886 920 883
f 887 920 886
f 887 921 920
f 887 922 921
f 888 922 887
f 888 923 922
f 889 923 888
f 889 924 923
f 890 924 889
f 890 925 924
f 891 925 890
f 891 926 925
f 892 926 891
f 892 927 926
f 893 927 892
f 893 928 927
f 894 928 893
f 894 929 928
f 895 929 894
f 895 930 929
f 896 930 895
f 896 931 930
f 897 931 896
f 897 932 931
f 898 932 897
f 898 933 932
f 898 934 933
f 884 934 898
f 884 917 934
# 934 vertices
# 0 texture params
# 0 normals
# 1860 facets

# 2 groups
