# WaveFront *.obj file (generated by Autodesk ATF)

mtllib thigh_sinister_collision.mtl

g Body4

v -0.437500 8.987154 -5.700056
v 3.000000 8.991585 -5.092339
v 8.000000 -0.061773 -20.297398
v 7.000000 -5.606197 -18.093853
v 5.499791 8.424524 -1.555146
v 3.972960 8.880028 -3.656710
v 1.565198 8.990452 -4.964319
v -0.093031 8.995821 -5.171322
v -1.622949 8.990013 -4.949982
v -3.272988 8.942352 -4.198819
v -5.052742 8.648895 -2.393991
v -5.682736 8.282948 -1.104421
v 8.000000 8.956346 -4.413233
v 8.000000 8.882821 -7.069004
v 8.000000 8.064033 -10.252932
v 8.000000 6.508722 -13.103722
v 7.501986 -6.428583 1.055765
v 7.673051 -6.105930 0.963506
v 7.832986 -5.752954 0.843914
v 7.914151 -5.260871 0.874977
v 7.757614 -5.092179 1.233822
v 7.524987 -5.710775 1.174759
v 8.000000 -5.679826 0.330976
v 7.000000 -5.593921 1.380983
v 7.000000 -4.634384 2.066627
v 7.386428 -10.147973 -0.720439
v 7.531714 -9.946817 -0.453350
v 7.843915 -9.650116 -0.558765
v 6.000000 4.023663 -2.948963
v 7.000000 4.931896 0.822436
v -7.000000 -8.652224 -0.207344
v -7.000000 5.411537 -14.462516
v -7.000000 7.511476 -11.484482
v -7.000000 8.550953 -8.783551
v -7.000000 8.988358 -5.047997
v -7.000000 -12.336233 -18.133322
v -6.693023 -13.033901 -18.010303
v -6.000000 -13.321041 -17.959673
v 7.475653 -13.190000 -17.982779
v 7.936363 -12.649289 -18.078121
v 8.000000 -6.884627 -19.094587
v 7.000000 -0.061968 -20.297606
v -6.000000 -6.399462 -18.626156
v -6.000000 -4.770143 -17.785011
v -6.000000 -3.020211 -17.753338
v -6.000000 -1.563672 -18.366341
v -6.000000 -0.309049 -19.763813
v -7.000000 -0.061773 -20.297398
v -7.000000 -0.950984 -18.888432
v -7.000000 -2.702610 -17.830063
v -7.000000 -3.385628 -17.694227
v 8.000000 -8.068301 0.117129
v 7.000000 -10.172638 -0.570621
v 7.000000 -9.603971 0.310740
v 7.000000 -9.150658 0.706604
v 7.000000 -8.346100 1.111838
v 7.000000 -7.419835 1.258506
v 7.300420 -6.939553 1.175460
v 7.605867 -6.965813 1.014359
v 7.968809 -7.054707 0.469008
v 7.980700 -10.890045 -8.888091
v 7.888759 -10.768794 -6.676766
v 7.415350 -11.804895 -9.925546
v 7.000000 -10.369022 -1.217942
v 7.459554 -10.253597 -1.238294
v 7.886167 -9.838515 -1.311484
v 8.000000 -9.384214 -1.391590
v 8.000000 -6.399462 -18.626156
v 8.000000 -4.770143 -17.785011
v 8.000000 -3.020211 -17.753338
v 8.000000 -1.563672 -18.366341
v 8.000000 -0.309049 -19.763813
v 7.894944 -7.510493 0.697525
v 7.733772 -7.458151 0.926430
v 7.431487 -7.800433 1.132630
v 7.632913 -8.106844 0.941105
v 7.299276 -8.674453 0.925598
v 7.567614 -8.999484 0.584685
v 7.796196 -9.222709 0.122230
v 7.406903 -9.810749 -0.094315
v 7.678967 -9.823231 -0.458215
v 7.982223 -9.326841 -0.704792
v 7.707124 -9.941667 -0.799525
v 7.000000 -5.037154 1.689920
v 7.000000 -6.174318 1.219705
v 7.284002 -5.582319 1.331457
v 7.516737 -5.128443 1.451016
v 7.278802 -5.184879 1.533040
v 7.558962 -4.836142 1.625896
v 7.268727 -5.959011 1.217417
v 7.932280 -6.272946 0.561741
v 7.837723 -6.507894 0.735762
v 8.000000 7.362049 -11.764971
v 8.000000 8.550953 -8.783551
v 8.000000 8.989883 -5.683567
v 8.000000 8.801224 -3.151961
v -5.497850 8.430554 -1.569562
v -4.226584 8.844938 -3.415653
v -2.383179 8.977872 -4.679477
v -0.834199 8.994765 -5.117452
v 0.747092 8.995039 -5.129834
v 2.696625 8.967398 -4.522452
v 4.957222 8.683468 -2.542782
v 5.682736 8.282948 -1.104421
v 7.884652 6.317172 -1.603594
v 6.000000 5.725888 -0.609321
v -7.000000 -6.417599 -18.638275
v -7.000000 -6.884627 -19.094587
v -7.000000 -5.606197 -18.093853
v -7.000000 -4.938508 -17.830128
v -7.000000 -4.190113 -17.691872
v -7.000000 -1.808614 -18.224388
v -7.000000 -0.498662 -19.445896
v -6.000000 -0.061773 -20.297398
v -6.000000 -0.866921 -18.988605
v -6.000000 -2.153718 -18.039408
v -6.000000 -3.994662 -17.680956
v -6.000000 -5.487389 -18.039505
v -6.000000 -0.061968 -20.297606
v 7.000000 -6.884627 -19.094587
v 8.000000 -12.336233 -18.133322
v 7.777864 -12.951012 -18.024918
v 7.000000 -13.321041 -17.959673
v -6.380865 -13.241752 -17.973654
v -6.934940 -12.659937 -18.076244
v -7.000000 8.864002 -3.584332
v -7.000000 8.914404 -6.752878
v -7.000000 8.053663 -10.291578
v -7.000000 6.874013 -12.583807
v -7.000000 -9.384214 -1.391590
v -7.000000 -7.901781 0.189391
v -7.000000 -7.092840 0.235062
v 7.000000 -0.061773 -20.297398
v 7.000000 -0.339072 -19.730829
v 7.000000 -0.950984 -18.888432
v 7.000000 -1.808614 -18.224388
v 7.000000 -2.702610 -17.830063
v 7.000000 -3.385628 -17.694227
v 7.000000 -4.190113 -17.691872
v 7.000000 -4.938508 -17.830128
v 7.000000 -6.417599 -18.638275
v 8.000000 -0.866921 -18.988605
v 8.000000 -2.153718 -18.039408
v 8.000000 -3.994662 -17.680956
v 8.000000 -5.487389 -18.039505
v 8.000000 5.411537 -14.462516
v 7.957530 -9.659101 -1.343120
v 7.733772 -10.046378 -1.274832
v 7.216234 -10.344763 -1.222219
v 7.167912 -11.992927 -10.521744
v 7.683627 -11.169250 -7.340400
v 7.925087 -11.723778 -12.487230
v 8.000000 -7.092840 0.235062
v 7.809352 -6.999512 0.807621
v 7.422618 -6.947034 1.129564
v 7.000000 -6.931961 1.222036
v 7.000000 -7.906766 1.215669
v 7.000000 -8.761978 0.936220
v 7.000000 -9.387270 0.520072
v 7.000000 -9.883848 -0.043471
v 8.000000 -8.935162 -0.447177
v 0.187500 8.891973 -7.041992
v 1.437500 8.702742 -8.161933
v 1.125000 5.896146 -13.907720
v -6.299276 -10.318977 -1.226766
v -6.736576 -10.048908 -1.274386
v -6.882794 -9.836786 -1.311789
v -6.883216 -11.261762 -9.391962
v -6.445959 -11.625937 -8.968118
v -6.151695 -6.934248 1.208002
v -6.829312 -7.003698 0.781936
v -6.000000 -10.269360 -0.824903
v -6.205010 -7.205364 1.226720
v -6.736576 -7.335623 0.931587
v -6.157101 -7.597564 1.237277
v -6.183553 -8.132257 1.147013
v -6.736576 -8.033189 0.853201
v -6.884686 -8.303871 0.542567
v -6.382319 -8.485264 0.976651
v -6.200016 -8.608462 0.984193
v -6.964383 -8.630820 0.149155
v -6.527116 -9.031055 0.598131
v -6.151695 -8.985914 0.798038
v -6.906670 -8.795696 0.235644
v -6.130402 -9.336214 0.547040
v -6.719417 -9.066216 0.373033
v -6.560359 -9.491800 0.169099
v -6.947730 -9.225310 -0.314318
v -6.236869 -9.635975 0.226140
v -6.828042 -9.604359 -0.430052
v -6.234434 -9.938783 -0.186125
v -6.968088 -9.485494 -0.898379
v -6.905015 -9.602425 -0.714632
v -6.549765 -10.061293 -0.733919
v -6.727807 -9.904632 -0.757140
v -6.196390 -5.119963 1.600691
v -6.707935 -5.161277 1.257126
v -6.869355 -5.192229 0.990408
v -6.236500 -5.541552 1.361178
v -6.777878 -5.991311 0.876349
v -6.557824 -5.701089 1.147474
v -6.916151 -6.286011 0.594087
v -6.141048 -6.303152 1.192022
v -5.606249 -10.369022 -1.217942
v -5.945927 -9.772362 0.116094
v -5.956738 7.498919 -1.262208
v -5.000000 8.227638 -2.495817
v -5.478372 8.094755 -1.607766
v -5.542786 8.059652 -8.080193
v -5.000000 8.227638 -8.080193
v -5.411739 8.136395 -4.853218
v -5.830081 7.775668 -4.853218
v -5.971655 7.443048 -4.638086
v 5.455178 8.102028 -8.080193
v 5.000000 8.227638 -8.080193
v 4.096485 8.227638 -3.556532
v 3.429423 8.227638 -4.096646
v 1.873513 8.227638 -4.872162
v 0.775804 8.227638 -5.119668
v -1.433985 8.227638 -4.993673
v -3.337135 8.227638 -4.151632
v -4.320883 8.227638 -3.325467
v 5.650891 7.986809 -1.195980
v 5.455335 8.102102 -1.651375
v 5.924523 7.598829 -4.853218
v 5.823453 7.790926 -4.853218
v 5.470982 8.108768 -5.713745
v 5.218320 8.199864 -4.907001
v 5.804324 -10.187073 -0.597055
v 5.606249 -10.369022 -1.217942
v 4.679282 -10.652386 -2.824976
v 3.701085 -10.822167 -3.787857
v 1.829709 -10.997049 -4.779661
v -0.404446 -11.046442 -5.059784
v -1.127207 -11.030724 -4.970634
v -2.896341 -10.917634 -4.329275
v -3.743544 -10.816281 -3.754475
v -5.122685 -10.538927 -2.181519
v 5.809663 -9.772362 -0.542521
v 4.488273 -9.772362 -3.035907
v 3.673980 -9.772362 -3.815319
v 1.620622 -9.772362 -4.850213
v -0.564089 -9.772362 -5.046880
v -1.439544 -9.772362 -4.902203
v -3.233279 -9.772362 -4.123653
v -4.044115 -9.772362 -3.503392
v -5.348660 -9.772362 -1.773826
v -5.813799 -9.772362 -0.515698
v 7.459554 -7.455821 1.142704
v -6.000000 -6.884627 -19.094587
v -6.141048 5.935898 -0.805518
v -6.759264 5.939974 -1.216302
v -6.573227 6.433551 -1.265413
v -6.948140 6.264273 -1.748094
v -6.191682 6.761257 -1.199147
v -6.486765 6.969102 -1.362874
v -6.780963 6.579635 -1.520952
v -6.836230 7.073045 -1.709136
v -6.703412 7.459052 -1.557383
v -6.215411 7.339189 -1.290849
v -6.548779 7.604262 -1.421565
v -6.983187 7.942568 -2.039414
v -6.913842 8.036372 -1.795666
v -6.334747 8.061164 -1.239652
v -6.765310 8.048889 -1.546462
v -6.519835 7.934319 -1.355681
v 7.344985 6.508888 -1.171927
v -0.750000 7.517952 -11.473972
v -0.125000 8.065845 -10.256999
v 0.500000 8.466196 -9.109415
v -6.854330 -7.792625 0.737780
v -6.450356 -7.682557 1.134807
v -6.543397 -7.382262 1.090141
v -6.966153 -7.870383 0.452647
v -6.000000 -10.121384 -0.447426
v -6.944463 -7.041267 0.551456
v -6.605867 -6.965813 1.014359
v -6.382319 -6.944348 1.146039
v -6.220490 -11.615427 -8.445510
v -6.687065 -11.543339 -9.492158
v -6.968547 -11.047891 -9.429673
v -6.554091 -10.200927 -1.247581
v -6.000000 -10.369022 -1.217942
v 0.343750 6.786329 -12.707300
v -4.754213 -9.772362 -2.732515
v -2.231646 -9.772362 -4.642504
v 0.483342 -9.772362 -5.049297
v 2.720329 -9.772362 -4.417832
v 5.358343 -9.772362 -1.748695
v -4.560375 -10.678276 -2.971805
v -2.035374 -10.985588 -4.714658
v 0.646484 -11.043019 -5.040371
v 2.896341 -10.917634 -4.329275
v 5.183635 -10.523160 -2.092102
v 5.945927 -9.772362 0.116094
v 5.656971 7.976818 -4.530520
v 5.990501 7.358040 -5.068350
v 5.881348 7.680690 -1.247380
v -2.352028 8.227638 -4.696095
v -0.241425 8.227638 -5.167653
v 2.692070 8.227638 -4.535968
v 5.000000 8.227638 -2.495817
v 5.789582 7.833506 -8.080193
v -5.615676 8.012089 -4.100257
v -5.200016 8.205139 -4.960784
v -5.839382 7.762383 -8.080193
v -5.650891 7.986809 -1.195980
v -5.852365 -10.093895 -0.396676
v -6.602426 -6.347643 0.995713
v -6.230686 -5.951800 1.226215
v -6.949207 -5.401904 0.703807
v -6.509255 -5.103881 1.465734
v -6.135643 -4.824246 1.851561
v -6.391102 -10.082177 -0.570307
v -6.628893 -9.803720 -0.331621
v -6.488665 -9.812832 -0.169381
v -6.876096 -9.204982 -0.029629
v -6.764587 -9.423064 -0.030759
v -6.356281 -9.324007 0.476631
v -6.421814 -8.849137 0.784615
v -6.742541 -8.691316 0.595745
v -6.563288 -8.457304 0.881364
v -6.534746 -8.012140 1.034658
v 7.247681 -10.049419 -0.380048
v 7.926229 -9.242817 -0.247138
v 7.771955 -9.525618 -0.169611
v 7.609613 -9.534123 0.065953
v 7.365953 -9.483998 0.322830
v 7.964908 -8.565939 0.188203
v 7.866484 -8.881950 0.274114
v 7.718157 -8.904066 0.497350
v 7.382319 -8.982294 0.722684
v 7.826749 -8.473764 0.581901
v 7.910843 -8.348710 0.473312
v 7.693365 -8.527542 0.737338
v 7.494450 -8.352852 0.962489
v 7.263404 -8.253532 1.095741
v 7.959039 -7.848191 0.488581
v 7.839382 -7.910392 0.744931
v 7.216234 -7.754914 1.212229
v 7.649604 -7.764209 0.994554
v 6.000000 4.931896 0.822436
v 7.542528 7.045295 -1.400340
v 7.299276 6.928098 -1.270872
v 7.957895 7.553521 -1.968462
v 7.902479 6.857365 -1.794571
v 7.673663 7.396224 -1.527895
v 7.825981 7.606938 -1.693255
v 7.460432 7.591730 -1.371626
v 7.684705 8.000975 -1.473319
v 7.908675 8.266736 -1.732922
v 7.479301 8.122526 -1.288502
v -7.000000 -4.968902 0.556787
v -6.892285 -4.871759 1.114533
v -6.584158 -4.692269 1.714223
v -6.154140 -4.447456 2.282785
v -6.000000 -4.353175 2.459648
v -6.000000 -4.739261 1.556677
v -6.000000 -4.972013 0.403631
v -6.000000 -4.928292 -0.771859
v -6.000000 -4.653420 -1.815826
v -6.000000 -4.254564 -2.604326
v -6.000000 -3.526435 -3.528185
v -6.000000 -2.452796 -4.340977
v -6.000000 -1.441354 -4.782681
v -6.000000 -0.672993 -4.949608
v -6.000000 0.112044 -4.993895
v -6.000000 1.181473 -4.846437
v -6.000000 2.020228 -4.568394
v -6.000000 2.951149 -4.021760
v -6.000000 3.734074 -3.315039
v -6.000000 4.367086 -2.410889
v -6.000000 4.730177 -1.605294
v -6.000000 4.923480 -0.843140
v -6.000000 4.990455 0.062870
v -6.000000 4.931896 0.822436
v -6.186438 4.964011 0.580630
v -6.667348 4.992225 -0.140818
v -7.000000 4.859672 -1.176260
v -7.000000 4.668178 -1.765043
v -7.000000 4.159799 -2.753299
v -7.000000 3.336535 -3.704833
v -7.000000 2.481402 -4.335144
v -7.000000 1.575150 -4.729864
v -7.000000 0.440522 -4.973706
v -7.000000 -0.375936 -4.980914
v -7.000000 -1.158472 -4.858886
v -7.000000 -2.000193 -4.569613
v -7.000000 -3.155946 -3.859827
v -7.000000 -4.121472 -2.805659
v -7.000000 -4.630530 -1.873240
v -7.000000 -4.868401 -1.117813
v -7.000000 -4.986281 -0.210369
v -6.000000 -4.694829 2.004854
v -6.000000 -5.316541 1.519390
v -6.000000 -6.089780 1.237669
v -6.000000 -6.931961 1.222036
v -6.000000 -8.028772 1.194860
v -6.000000 -8.623462 0.999457
v -6.000000 -9.381908 0.503034
v -6.000000 -9.772362 0.116094
v -6.000000 -9.772362 -8.080193
v -6.000000 7.227638 -8.080193
v -6.000000 7.227638 -1.260546
v -6.000000 6.160556 -0.922590
v -6.000000 5.572784 -0.467796
v -6.000000 5.241810 -0.022249
v -6.000000 7.563043 -1.256360
v -6.000000 7.993785 -1.191723
v -6.000000 8.282948 -1.104421
v -6.580232 8.346263 -1.295021
v -6.897725 8.455750 -1.647657
v -7.000000 8.571465 -2.063711
v -7.000000 6.714717 -2.138403
v -7.000000 5.529562 -1.692821
v -6.220448 6.293087 -1.039385
v -6.583554 5.158373 -0.258102
v -6.472206 5.471770 -0.536825
v -6.236663 5.340741 -0.234073
v -6.151860 5.161000 0.094710
v -6.811373 5.572606 -1.046981
v -6.932190 5.329647 -1.122958
v -6.513320 5.863187 -0.913343
v -6.251938 5.745781 -0.683785
v 6.000000 4.994791 -0.060096
v 6.000000 4.923480 -0.843140
v 6.000000 4.609323 -1.901168
v 6.000000 3.317170 -3.732181
v 6.000000 2.544771 -4.298335
v 6.000000 1.815211 -4.651645
v 6.000000 0.747773 -4.932249
v 6.000000 -0.133943 -4.995538
v 6.000000 -1.154937 -4.852829
v 6.000000 -1.995201 -4.579380
v 6.000000 -2.748573 -4.165806
v 6.000000 -3.460878 -3.601925
v 6.000000 -3.983221 -3.014215
v 6.000000 -4.406868 -2.351820
v 6.000000 -4.772950 -1.466882
v 6.000000 -4.969448 -0.406056
v 6.000000 -4.892262 0.962319
v 6.000000 -4.591136 1.973526
v 6.000000 -4.353175 2.459648
v 7.000000 -4.353175 2.459648
v 7.704241 -4.759989 1.516557
v 7.939212 -4.903518 0.970226
v 8.000000 -4.968902 0.556787
v 8.000000 -4.950868 -0.679599
v 8.000000 -4.716997 -1.614991
v 8.000000 -4.093364 -2.846511
v 8.000000 -3.155946 -3.859827
v 8.000000 -2.271709 -4.448615
v 8.000000 -1.228295 -4.832137
v 8.000000 -0.178048 -4.991907
v 8.000000 0.710320 -4.937366
v 8.000000 1.832713 -4.642028
v 8.000000 2.951298 -4.014200
v 8.000000 3.725675 -3.324327
v 8.000000 4.296907 -2.547042
v 8.000000 4.668178 -1.765043
v 8.000000 4.859672 -1.176260
v 7.846640 4.967103 -0.518187
v 7.493350 4.996565 0.156114
v 6.000000 5.241810 -0.022249
v 6.000000 6.341968 -1.025005
v 6.000000 7.227638 -1.260546
v 6.000000 7.227638 -8.080193
v 6.000000 -9.772362 -8.080193
v 6.000000 -9.772362 0.116094
v 6.000000 -9.455952 0.443670
v 6.000000 -8.691424 0.965767
v 6.000000 -8.065454 1.184716
v 6.000000 -6.931961 1.222036
v 6.000000 -6.311536 1.203820
v 6.000000 -5.770864 1.312465
v 6.000000 -5.267262 1.537222
v 6.000000 -4.780357 1.919636
v 8.000000 5.524053 -1.666844
v 8.000000 7.663371 -2.215588
v 8.000000 8.571465 -2.063711
v 7.902687 8.458730 -1.657761
v 7.675215 8.367416 -1.360013
v 7.363702 8.306786 -1.174831
v 7.000000 8.282948 -1.104421
v 7.000000 8.152526 -1.149717
v 7.000000 7.850783 -1.222308
v 7.000000 7.405022 -1.261572
v 7.000000 6.959042 -1.224873
v 7.000000 6.385989 -1.042590
v 7.000000 5.868138 -0.737691
v 7.000000 5.539164 -0.434342
v 7.000000 5.306778 -0.134804
v 7.000000 5.113193 0.230374
v 7.360344 5.092356 0.105582
v 7.532446 5.190862 -0.240274
v 7.917468 5.132895 -0.886167
v 7.698141 5.319617 -0.616712
v 7.337552 5.593843 -0.584182
v 7.777084 5.591132 -0.996636
v 7.488939 5.967554 -0.973944
v 7.821903 5.889650 -1.281371
v 7.608303 6.363606 -1.263662
v 7.741840 6.798189 -1.529212
usemtl Paint_-_Metal_Flake_(Black)
f 239 295 469
f 468 239 469
f 468 289 239
f 468 240 289
f 241 240 468
f 468 288 241
f 468 242 288
f 287 242 468
f 402 287 468
f 402 243 287
f 402 244 243
f 402 286 244
f 245 286 402
f 402 246 245
f 402 285 246
f 402 247 285
f 402 248 247
f 401 248 402
f 205 248 401
f 239 229 295
f 230 229 239
f 289 230 239
f 289 294 230
f 240 294 289
f 240 231 294
f 240 232 231
f 241 232 240
f 241 293 232
f 288 293 241
f 288 233 293
f 242 233 288
f 287 233 242
f 287 292 233
f 287 234 292
f 243 234 287
f 243 235 234
f 244 235 243
f 244 291 235
f 286 291 244
f 286 236 291
f 245 236 286
f 245 237 236
f 246 237 245
f 246 290 237
f 285 290 246
f 285 238 290
f 247 238 285
f 247 204 238
f 248 204 247
f 248 308 204
f 205 308 248
f 238 204 283
f 38 238 283
f 38 290 238
f 237 290 38
f 236 237 38
f 38 291 236
f 235 291 38
f 234 235 38
f 38 292 234
f 123 292 38
f 123 233 292
f 293 233 123
f 123 232 293
f 294 231 64
f 64 230 294
f 123 231 232
f 64 231 123
f 473 57 156
f 473 157 57
f 472 157 473
f 472 56 157
f 471 56 472
f 471 158 56
f 471 55 158
f 470 55 471
f 470 159 55
f 470 54 159
f 470 160 54
f 469 160 470
f 295 160 469
f 295 53 160
f 229 53 295
f 230 53 229
f 230 64 53
f 443 25 444
f 477 25 443
f 477 84 25
f 476 84 477
f 476 24 84
f 475 24 476
f 475 85 24
f 474 85 475
f 474 156 85
f 473 156 474
f 104 485 484
f 104 486 485
f 223 486 104
f 298 486 223
f 298 487 486
f 466 487 298
f 466 488 487
f 466 489 488
f 465 489 466
f 465 490 489
f 106 490 465
f 106 491 490
f 464 491 106
f 464 492 491
f 464 493 492
f 342 493 464
f 342 30 493
f 307 97 12
f 208 97 307
f 208 11 97
f 207 11 208
f 207 98 11
f 222 98 207
f 221 98 222
f 221 10 98
f 221 99 10
f 299 99 221
f 220 99 299
f 220 9 99
f 220 100 9
f 300 100 220
f 300 8 100
f 219 8 300
f 219 101 8
f 219 7 101
f 218 7 219
f 218 102 7
f 301 102 218
f 217 102 301
f 217 6 102
f 216 6 217
f 302 6 216
f 302 103 6
f 224 103 302
f 224 5 103
f 223 5 224
f 104 5 223
f 466 225 297
f 298 225 466
f 298 226 225
f 298 296 226
f 223 296 298
f 224 296 223
f 224 227 296
f 224 228 227
f 302 228 224
f 215 228 302
f 214 228 215
f 214 227 228
f 214 296 227
f 303 296 214
f 303 226 296
f 303 225 226
f 467 225 303
f 467 297 225
f 466 297 467
f 216 215 302
f 217 215 216
f 301 215 217
f 218 215 301
f 219 215 218
f 300 215 219
f 300 210 215
f 220 210 300
f 299 210 220
f 221 210 299
f 222 210 221
f 207 210 222
f 215 210 468
f 214 467 303
f 215 467 214
f 468 467 215
f 403 209 306
f 210 209 403
f 210 402 468
f 210 403 402
f 211 210 305
f 209 210 211
f 304 209 211
f 212 209 304
f 306 209 212
f 307 212 304
f 206 212 307
f 206 213 212
f 404 213 206
f 403 213 404
f 403 212 213
f 306 212 403
f 304 208 307
f 211 208 304
f 305 208 211
f 305 207 208
f 210 207 305
f 206 408 404
f 307 408 206
f 307 409 408
f 12 409 307
f 12 410 409
f 204 172 283
f 308 172 204
f 308 275 172
f 308 401 275
f 205 401 308
f 171 202 276
f 276 202 132
f 202 311 132
f 199 196 312
f 203 310 170
f 199 201 310
f 310 309 170
f 310 201 309
f 199 312 201
f 278 309 277
f 170 309 278
f 312 197 201
f 201 200 309
f 277 200 171
f 309 200 277
f 201 198 200
f 197 198 201
f 200 202 171
f 200 311 202
f 200 198 311
f 196 356 355
f 196 355 312
f 356 394 357
f 313 394 356
f 313 395 394
f 196 395 313
f 199 395 196
f 310 395 199
f 310 396 395
f 203 396 310
f 203 397 396
f 170 397 203
f 355 354 197
f 312 355 197
f 313 356 196
f 354 198 197
f 354 311 198
f 353 311 354
f 353 132 311
f 190 193 195
f 194 195 282
f 188 193 190
f 317 188 190
f 187 316 191
f 315 195 194
f 315 190 195
f 181 31 188
f 186 321 184
f 184 178 181
f 401 191 275
f 189 187 191
f 178 184 321
f 178 274 181
f 319 187 189
f 182 187 319
f 182 186 187
f 183 319 185
f 183 320 319
f 180 320 183
f 180 179 320
f 176 179 180
f 176 323 179
f 176 272 323
f 179 322 320
f 179 323 322
f 323 177 322
f 189 191 401
f 131 274 132
f 272 176 175
f 273 323 272
f 177 323 273
f 174 177 273
f 271 177 174
f 276 274 271
f 173 272 175
f 273 272 173
f 171 271 174
f 171 276 271
f 130 167 192
f 193 192 167
f 195 167 166
f 193 167 195
f 31 130 192
f 195 166 282
f 188 192 193
f 188 31 192
f 172 282 165
f 314 282 172
f 314 194 282
f 315 194 314
f 318 190 315
f 318 317 190
f 184 188 317
f 184 181 188
f 172 165 283
f 316 315 314
f 316 318 315
f 275 314 172
f 316 314 191
f 187 318 316
f 191 314 275
f 186 318 187
f 186 317 318
f 184 317 186
f 274 31 181
f 131 31 274
f 321 186 182
f 274 178 271
f 185 319 189
f 320 182 319
f 177 178 321
f 271 178 177
f 322 182 320
f 322 321 182
f 177 321 322
f 132 274 276
f 400 189 401
f 400 185 189
f 400 183 185
f 399 183 400
f 399 180 183
f 399 176 180
f 398 176 399
f 398 175 176
f 397 175 398
f 397 173 175
f 278 273 173
f 277 273 278
f 277 174 273
f 174 277 171
f 173 170 278
f 173 397 170
f 167 130 281
f 168 167 281
f 124 38 279
f 279 38 283
f 169 124 279
f 37 124 169
f 36 281 130
f 125 281 36
f 125 168 281
f 37 168 125
f 37 280 168
f 169 280 37
f 165 279 283
f 165 169 279
f 282 169 165
f 282 280 169
f 166 280 282
f 166 168 280
f 167 168 166
f 2 7 102
f 2 101 7
f 2 8 101
f 97 410 12
f 97 411 410
f 97 412 411
f 97 413 412
f 11 413 97
f 1 127 35
f 162 127 1
f 163 127 162
f 163 34 127
f 270 34 163
f 269 34 270
f 269 128 34
f 268 128 269
f 268 33 128
f 284 33 268
f 284 129 33
f 284 32 129
f 164 32 284
f 11 126 413
f 98 126 11
f 10 126 98
f 10 35 126
f 99 35 10
f 99 9 35
f 9 1 35
f 100 1 9
f 8 1 100
f 2 1 8
f 146 32 164
f 164 16 146
f 284 16 164
f 284 93 16
f 268 93 284
f 268 15 93
f 269 15 268
f 269 94 15
f 270 94 269
f 163 94 270
f 163 14 94
f 162 14 163
f 1 14 162
f 1 95 14
f 2 95 1
f 2 13 95
f 13 2 102
f 6 13 102
f 6 96 13
f 103 96 6
f 103 480 96
f 5 480 103
f 5 481 480
f 5 482 481
f 483 482 5
f 104 483 5
f 104 484 483
f 479 96 480
f 479 13 96
f 479 95 13
f 14 95 460
f 460 94 14
f 459 93 15
f 459 16 93
f 459 146 16
f 161 67 121
f 121 52 161
f 153 52 121
f 121 23 153
f 121 447 23
f 121 448 447
f 121 449 448
f 121 450 449
f 41 450 121
f 68 450 41
f 68 451 450
f 145 451 68
f 69 451 145
f 69 452 451
f 144 452 69
f 144 453 452
f 70 453 144
f 70 454 453
f 143 454 70
f 143 455 454
f 71 455 143
f 142 455 71
f 142 456 455
f 72 456 142
f 72 457 456
f 3 457 72
f 3 458 457
f 3 459 458
f 459 3 146
f 460 15 94
f 459 15 460
f 478 95 479
f 478 460 95
f 461 460 478
f 153 91 60
f 91 92 60
f 154 17 59
f 17 155 59
f 155 85 58
f 85 156 58
f 23 91 153
f 23 20 91
f 444 87 89
f 87 444 25
f 20 19 91
f 19 92 91
f 20 21 19
f 19 18 92
f 19 22 18
f 19 21 87
f 87 22 19
f 18 22 17
f 22 86 90
f 88 22 87
f 86 22 88
f 24 86 88
f 17 85 155
f 90 85 17
f 24 85 90
f 22 90 17
f 86 24 90
f 84 24 88
f 25 88 87
f 25 84 88
f 89 445 444
f 21 445 89
f 21 89 87
f 20 445 21
f 446 445 20
f 18 154 92
f 18 17 154
f 60 92 154
f 446 20 23
f 23 447 446
f 60 52 153
f 338 52 60
f 329 161 52
f 82 67 161
f 329 52 338
f 325 161 329
f 325 82 161
f 147 67 82
f 73 338 60
f 334 329 338
f 325 147 82
f 73 60 154
f 339 338 73
f 334 338 339
f 333 329 334
f 330 329 333
f 330 325 329
f 28 147 325
f 66 147 28
f 79 325 330
f 74 73 154
f 74 339 73
f 333 334 339
f 326 325 79
f 326 28 325
f 83 66 28
f 331 333 335
f 331 330 333
f 79 330 331
f 83 148 66
f 341 339 74
f 76 339 341
f 76 333 339
f 76 335 333
f 327 326 79
f 81 28 326
f 81 83 28
f 78 331 335
f 78 79 331
f 327 79 78
f 327 81 326
f 249 74 59
f 249 341 74
f 336 335 76
f 336 78 335
f 27 81 327
f 27 83 81
f 65 148 83
f 155 249 59
f 75 341 249
f 75 76 341
f 336 76 75
f 328 327 78
f 80 27 327
f 26 83 27
f 26 65 83
f 77 78 336
f 332 78 77
f 328 78 332
f 80 327 328
f 58 249 155
f 337 336 75
f 337 77 336
f 324 27 80
f 324 26 27
f 149 65 26
f 57 249 58
f 340 249 57
f 340 75 249
f 340 337 75
f 55 332 77
f 55 328 332
f 159 328 55
f 160 80 328
f 324 80 160
f 53 26 324
f 54 328 159
f 160 328 54
f 53 149 26
f 157 340 57
f 157 337 340
f 56 337 157
f 158 337 56
f 158 77 337
f 158 55 77
f 53 324 160
f 64 149 53
f 58 156 57
f 154 59 74
f 62 152 61
f 149 64 150
f 63 149 150
f 65 149 63
f 150 64 123
f 61 40 121
f 61 121 67
f 152 40 61
f 62 40 152
f 122 40 62
f 123 63 150
f 39 63 123
f 39 151 63
f 122 151 39
f 122 62 151
f 147 61 67
f 147 62 61
f 66 62 147
f 148 62 66
f 148 151 62
f 65 151 148
f 63 151 65
f 146 3 133
f 32 114 48
f 146 114 32
f 133 114 146
f 133 119 114
f 42 119 133
f 3 134 133
f 72 134 3
f 142 134 72
f 142 135 134
f 142 136 135
f 71 136 142
f 143 136 71
f 143 137 136
f 70 137 143
f 70 138 137
f 144 138 70
f 144 139 138
f 69 139 144
f 69 140 139
f 145 140 69
f 145 4 140
f 68 4 145
f 68 141 4
f 68 120 141
f 41 120 68
f 139 137 138
f 140 137 139
f 140 136 137
f 4 136 140
f 141 136 4
f 141 135 136
f 120 135 141
f 120 134 135
f 42 133 134
f 42 134 120
f 131 132 36
f 36 31 131
f 130 31 36
f 126 414 413
f 35 414 126
f 414 35 127
f 380 415 414
f 415 380 379
f 127 380 414
f 34 380 127
f 128 380 34
f 33 380 128
f 129 380 33
f 32 380 129
f 32 381 380
f 48 381 32
f 48 382 381
f 48 383 382
f 113 383 48
f 113 384 383
f 49 384 113
f 112 384 49
f 112 385 384
f 112 386 385
f 50 386 112
f 50 387 386
f 51 387 50
f 111 387 51
f 111 388 387
f 110 388 111
f 110 389 388
f 109 389 110
f 107 389 109
f 107 390 389
f 108 390 107
f 36 390 108
f 391 390 36
f 36 392 391
f 36 393 392
f 36 353 393
f 132 353 36
f 38 125 36
f 38 37 125
f 124 37 38
f 250 36 108
f 250 38 36
f 122 39 123
f 40 122 123
f 121 40 123
f 120 121 123
f 41 121 120
f 119 120 123
f 42 120 119
f 250 123 38
f 119 123 250
f 45 44 117
f 116 44 45
f 116 118 44
f 46 118 116
f 46 43 118
f 115 43 46
f 115 250 43
f 47 250 115
f 47 119 250
f 114 119 47
f 47 48 114
f 47 113 48
f 115 113 47
f 115 49 113
f 115 112 49
f 46 112 115
f 116 112 46
f 116 50 112
f 45 50 116
f 45 51 50
f 117 51 45
f 117 111 51
f 44 111 117
f 44 110 111
f 118 110 44
f 118 109 110
f 43 109 118
f 43 107 109
f 43 108 107
f 250 108 43
f 265 261 266
f 408 409 264
f 264 266 408
f 260 408 266
f 261 260 266
f 415 254 414
f 258 263 262
f 258 259 263
f 258 256 259
f 253 255 256
f 415 422 254
f 422 421 254
f 421 252 254
f 252 421 418
f 418 423 252
f 419 417 377
f 421 422 417
f 424 423 418
f 253 252 423
f 257 252 253
f 257 254 252
f 253 423 424
f 258 254 257
f 258 414 254
f 416 424 251
f 416 253 424
f 413 414 262
f 263 413 262
f 263 412 413
f 265 412 263
f 265 411 412
f 266 411 265
f 264 411 266
f 264 410 411
f 409 410 264
f 260 404 408
f 255 404 260
f 259 261 265
f 256 260 261
f 256 255 260
f 259 265 263
f 256 261 259
f 255 405 404
f 416 405 255
f 416 255 253
f 253 256 258
f 251 405 416
f 419 424 418
f 419 406 424
f 419 407 406
f 420 407 419
f 417 418 421
f 417 419 418
f 376 407 420
f 377 420 419
f 377 376 420
f 417 378 377
f 417 422 378
f 422 379 378
f 415 379 422
f 414 258 262
f 257 253 258
f 251 406 405
f 424 406 251
f 394 358 357
f 395 358 394
f 396 358 395
f 396 359 358
f 397 359 396
f 399 397 398
f 400 397 399
f 400 359 397
f 400 360 359
f 401 360 400
f 401 361 360
f 362 361 401
f 402 362 401
f 363 362 402
f 364 363 402
f 402 365 364
f 402 366 365
f 403 366 402
f 403 367 366
f 368 367 403
f 369 368 403
f 403 370 369
f 403 371 370
f 404 371 403
f 404 372 371
f 404 373 372
f 405 373 404
f 405 374 373
f 406 374 405
f 406 375 374
f 407 375 406
f 376 375 407
f 357 355 356
f 358 355 357
f 358 354 355
f 359 354 358
f 353 354 359
f 377 375 376
f 378 375 377
f 378 374 375
f 379 374 378
f 379 373 374
f 380 373 379
f 380 372 373
f 381 372 380
f 381 371 372
f 382 371 381
f 382 370 371
f 383 370 382
f 383 369 370
f 384 369 383
f 384 368 369
f 385 368 384
f 385 367 368
f 386 367 385
f 386 366 367
f 387 366 386
f 387 365 366
f 388 365 387
f 388 364 365
f 389 364 388
f 389 363 364
f 390 363 389
f 390 362 363
f 391 362 390
f 391 361 362
f 392 361 391
f 392 360 361
f 393 360 392
f 393 359 360
f 353 359 393
f 490 500 489
f 485 349 352
f 487 343 349
f 487 344 343
f 349 350 352
f 349 343 347
f 500 502 267
f 343 503 347
f 500 499 502
f 347 346 348
f 503 346 347
f 501 105 503
f 348 346 345
f 501 478 105
f 346 478 479
f 501 496 478
f 500 497 499
f 500 498 497
f 498 495 497
f 498 491 495
f 350 348 351
f 503 105 346
f 497 496 499
f 491 494 495
f 349 347 350
f 502 503 343
f 344 502 343
f 267 502 344
f 351 345 479
f 346 479 345
f 105 478 346
f 496 461 478
f 461 496 462
f 348 345 351
f 499 496 501
f 462 496 497
f 347 348 350
f 502 501 503
f 499 501 502
f 495 462 497
f 495 463 462
f 494 463 495
f 30 463 494
f 487 349 485
f 489 500 267
f 490 498 500
f 492 494 491
f 493 30 494
f 480 351 479
f 481 351 480
f 482 351 481
f 482 350 351
f 482 352 350
f 483 352 482
f 483 485 352
f 484 485 483
f 486 487 485
f 488 344 487
f 488 267 344
f 489 267 488
f 491 498 490
f 493 494 492
f 473 471 472
f 464 425 342
f 106 425 464
f 106 426 425
f 465 426 106
f 465 427 426
f 466 427 465
f 466 29 427
f 467 29 466
f 467 428 29
f 429 428 467
f 467 430 429
f 431 430 467
f 432 431 467
f 468 432 467
f 433 432 468
f 434 433 468
f 468 435 434
f 436 435 468
f 468 437 436
f 468 438 437
f 469 438 468
f 439 438 469
f 469 440 439
f 470 440 469
f 471 440 470
f 473 440 471
f 474 440 473
f 474 441 440
f 475 441 474
f 476 441 475
f 477 441 476
f 477 442 441
f 477 443 442
f 444 442 443
f 445 442 444
f 445 441 442
f 446 441 445
f 447 441 446
f 447 440 441
f 448 440 447
f 449 440 448
f 449 439 440
f 449 438 439
f 450 438 449
f 450 437 438
f 450 436 437
f 451 436 450
f 451 435 436
f 452 435 451
f 452 434 435
f 453 434 452
f 453 433 434
f 454 433 453
f 454 432 433
f 454 431 432
f 455 431 454
f 455 430 431
f 456 430 455
f 456 429 430
f 457 429 456
f 457 428 429
f 458 428 457
f 458 29 428
f 459 29 458
f 459 427 29
f 460 427 459
f 461 427 460
f 461 426 427
f 462 426 461
f 462 425 426
f 463 425 462
f 30 425 463
f 30 342 425
g Body5

v 7.000000 0.133968 -22.027702
v 7.000000 -2.067454 -25.213413
v 7.000000 -5.007195 -25.446316
v 7.000000 -7.273227 -23.604778
v 7.000000 -7.636463 -20.536913
v 7.000000 -5.516444 -18.086264
v 7.000000 -2.349246 -17.999607
v 7.000000 0.004033 -20.568989
v 8.000000 -0.664610 -19.253918
v 8.000000 -3.470122 -17.729084
v 8.000000 -7.128647 -19.455456
v 8.000000 -7.682660 -22.624660
v 8.000000 -6.334117 -24.736961
v 8.000000 -2.680845 -25.480350
v 8.000000 -1.163405 -24.602089
v 8.000000 0.158050 -21.577702
v 8.000000 -0.116946 -23.116562
v 8.000000 -4.272242 -25.591492
v 8.000000 -7.259653 -23.685173
v 8.000000 -7.743505 -21.109322
v 8.000000 -5.653920 -18.177162
v 8.000000 -1.833153 -18.216717
v 8.000000 -0.035412 -20.408087
v 7.000000 -0.728837 -19.178513
v 7.000000 -3.996475 -17.690159
v 7.000000 -6.976288 -19.253918
v 7.000000 -7.787985 -21.962690
v 7.000000 -6.361880 -24.736305
v 7.000000 -3.677239 -25.650101
v 7.000000 -0.506081 -23.815025
usemtl Paint_-_Metal_Flake_(Gold)
f 506 505 532
f 531 505 506
f 531 533 505
f 507 533 531
f 507 504 533
f 530 504 507
f 510 509 528
f 510 529 509
f 527 529 510
f 527 508 529
f 511 508 527
f 511 530 508
f 504 530 511
f 524 525 513
f 524 512 525
f 514 512 524
f 514 526 512
f 523 526 514
f 523 519 526
f 517 516 521
f 518 516 517
f 518 522 516
f 520 522 518
f 520 515 522
f 519 515 520
f 519 523 515
f 520 504 519
f 520 533 504
f 518 533 520
f 518 505 533
f 517 505 518
f 517 532 505
f 521 532 517
f 521 506 532
f 516 506 521
f 516 531 506
f 516 507 531
f 522 507 516
f 515 507 522
f 515 530 507
f 523 530 515
f 523 508 530
f 514 508 523
f 514 529 508
f 524 529 514
f 524 509 529
f 524 528 509
f 513 528 524
f 513 510 528
f 525 510 513
f 525 527 510
f 512 527 525
f 512 511 527
f 526 511 512
f 519 511 526
f 519 504 511
g Body6

v -7.000000 0.133968 -22.027702
v -7.000000 -2.067454 -25.213413
v -7.000000 -5.007195 -25.446316
v -7.000000 -7.273227 -23.604778
v -7.000000 -7.636463 -20.536913
v -7.000000 -5.516444 -18.086264
v -7.000000 -2.349246 -17.999607
v -7.000000 0.004033 -20.568989
v -6.000000 -1.355300 -18.584980
v -6.000000 -4.657510 -17.792599
v -6.000000 -7.190883 -19.533047
v -6.000000 -7.469935 -23.165911
v -6.000000 -4.790205 -25.527027
v -6.000000 -2.680845 -25.480350
v -6.000000 -1.163405 -24.602089
v -6.000000 0.135712 -21.337116
v -6.000000 -0.110386 -23.084057
v -6.000000 -3.754278 -25.655956
v -6.000000 -6.334117 -24.736961
v -6.000000 -7.742771 -21.120358
v -6.000000 -6.361612 -18.612925
v -6.000000 -2.958250 -17.782770
v -6.000000 -0.270007 -19.861752
v -7.000000 -0.728837 -19.178513
v -7.000000 -3.996475 -17.690159
v -7.000000 -6.976288 -19.253918
v -7.000000 -7.787985 -21.962690
v -7.000000 -6.361880 -24.736305
v -7.000000 -3.677239 -25.650101
v -7.000000 -0.506081 -23.815025
f 536 535 562
f 561 535 536
f 561 563 535
f 537 563 561
f 537 534 563
f 560 534 537
f 540 539 558
f 540 559 539
f 557 559 540
f 557 538 559
f 541 538 557
f 541 560 538
f 534 560 541
f 543 542 555
f 554 542 543
f 544 542 554
f 544 556 542
f 553 556 544
f 553 549 556
f 547 546 551
f 547 552 546
f 548 552 547
f 548 545 552
f 550 545 548
f 550 553 545
f 549 553 550
f 550 534 549
f 550 563 534
f 548 563 550
f 548 535 563
f 547 535 548
f 547 562 535
f 551 562 547
f 551 536 562
f 546 536 551
f 552 536 546
f 552 561 536
f 552 537 561
f 545 537 552
f 545 560 537
f 553 560 545
f 553 538 560
f 544 538 553
f 544 559 538
f 554 559 544
f 554 539 559
f 543 539 554
f 543 558 539
f 555 558 543
f 555 540 558
f 542 540 555
f 542 557 540
f 556 557 542
f 556 541 557
f 549 541 556
f 549 534 541
g Body7

v 8.000000 4.778234 -1.325268
v 8.000000 3.949056 -3.030092
v 8.000000 2.348564 -4.361383
v 8.000000 0.442162 -4.959859
v 8.000000 -1.455436 -4.726663
v 8.000000 -3.142975 -3.873604
v 8.000000 -4.130050 -2.781798
v 8.000000 -4.812034 -1.238608
v 8.000000 -4.848595 1.046044
v 8.000000 -4.024159 2.918095
v 8.000000 -2.966349 4.007517
v 8.000000 -1.580369 4.713122
v 8.000000 0.049193 4.979286
v 8.000000 1.738014 4.645234
v 8.000000 3.838577 3.114053
v 8.000000 4.869390 0.974344
v 6.000000 4.485415 2.150551
v 6.000000 3.323406 3.669015
v 6.000000 1.745968 4.664588
v 6.000000 -0.134449 4.958269
v 6.000000 -2.200258 4.448132
v 6.000000 -3.594590 3.455190
v 6.000000 -4.445423 2.226871
v 6.000000 -4.950379 0.564939
v 6.000000 -4.843626 -1.132741
v 6.000000 -4.280487 -2.556726
v 6.000000 -3.262385 -3.747888
v 6.000000 -1.965809 -4.584615
v 6.000000 -0.085242 -4.945174
v 6.000000 1.972690 -4.570011
v 6.000000 3.433030 -3.606939
v 6.000000 4.500269 -2.062590
v 6.000000 4.948672 0.330971
f 582 581 580
f 580 583 582
f 580 584 583
f 580 585 584
f 586 585 580
f 591 593 592
f 590 593 591
f 590 594 593
f 589 594 590
f 589 595 594
f 588 595 589
f 588 596 595
f 587 596 588
f 596 586 580
f 596 587 586
f 576 578 577
f 575 578 576
f 574 578 575
f 573 578 574
f 572 578 573
f 572 579 578
f 566 568 567
f 566 569 568
f 565 569 566
f 565 570 569
f 564 570 565
f 564 571 570
f 564 572 571
f 579 572 564
f 580 579 596
f 580 578 579
f 581 578 580
f 581 577 578
f 582 577 581
f 583 577 582
f 583 576 577
f 583 575 576
f 584 575 583
f 584 574 575
f 585 574 584
f 585 573 574
f 586 573 585
f 586 572 573
f 587 572 586
f 588 572 587
f 588 571 572
f 589 571 588
f 589 570 571
f 590 570 589
f 590 569 570
f 590 568 569
f 591 568 590
f 592 568 591
f 592 567 568
f 593 567 592
f 593 566 567
f 594 566 593
f 594 565 566
f 595 565 594
f 595 564 565
f 596 564 595
f 564 596 579
g Body8

v -6.000000 4.976854 -0.086151
v -6.000000 4.688128 -1.675952
v -6.000000 3.873904 -3.111702
v -6.000000 2.457211 -4.330066
v -6.000000 0.915486 -4.885998
v -6.000000 -0.663063 -4.941636
v -6.000000 -2.052286 -4.536941
v -6.000000 -3.618317 -3.359947
v -6.000000 -4.734708 -1.535919
v -6.000000 -4.965446 0.257590
v -6.000000 -4.265419 2.491500
v -6.000000 -2.807463 4.102345
v -6.000000 -1.385290 4.789613
v -6.000000 0.049193 4.979286
v -6.000000 1.738014 4.645234
v -6.000000 3.479109 3.548990
v -6.000000 4.577214 1.936143
v -7.000000 4.896935 0.892488
v -7.000000 4.241512 2.590194
v -7.000000 2.821768 4.079232
v -7.000000 0.903138 4.886120
v -7.000000 -1.201608 4.815102
v -7.000000 -2.762943 4.146270
v -7.000000 -3.856162 3.160606
v -7.000000 -4.636252 1.761834
v -7.000000 -4.917424 -0.467700
v -7.000000 -4.280487 -2.556726
v -7.000000 -3.262385 -3.747888
v -7.000000 -1.580369 -4.713122
v -7.000000 0.049193 -4.979286
v -7.000000 1.738014 -4.645234
v -7.000000 3.838577 -3.114053
v -7.000000 4.869679 -0.912194
f 617 616 615
f 615 618 617
f 619 618 615
f 615 620 619
f 625 627 626
f 624 627 625
f 624 628 627
f 623 628 624
f 623 629 628
f 622 629 623
f 615 621 620
f 614 621 615
f 614 622 621
f 629 622 614
f 611 613 612
f 610 613 611
f 609 613 610
f 608 613 609
f 607 613 608
f 606 613 607
f 606 597 613
f 601 603 602
f 600 603 601
f 600 604 603
f 599 604 600
f 598 604 599
f 598 605 604
f 597 605 598
f 597 606 605
f 614 613 597
f 615 613 614
f 615 612 613
f 616 612 615
f 616 611 612
f 617 611 616
f 617 610 611
f 618 610 617
f 618 609 610
f 618 608 609
f 619 608 618
f 620 608 619
f 620 607 608
f 621 607 620
f 621 606 607
f 622 606 621
f 622 605 606
f 623 605 622
f 623 604 605
f 624 604 623
f 624 603 604
f 625 603 624
f 625 602 603
f 626 602 625
f 626 601 602
f 627 601 626
f 627 600 601
f 628 600 627
f 628 599 600
f 628 598 599
f 629 598 628
f 629 597 598
f 597 629 614
g Body9

v -6.000000 0.083622 -22.500484
v 7.975787 -12.600046 -24.736956
v 7.000000 -7.211742 -23.786854
v 7.000000 0.083622 -22.500484
v 8.000000 -7.211742 -23.786854
v 7.848807 -12.931755 -24.795446
v 7.443326 -13.298925 -24.860188
v 7.810026 -12.945173 -20.933384
v 7.461723 -13.246790 -21.280340
v -5.963361 -13.371565 -22.068417
v -6.595624 -13.162930 -21.067684
v -6.971311 -12.609213 -22.193039
v -6.915429 -12.768634 -21.745440
v 6.971231 -13.372768 -22.140457
v 7.990973 -12.464058 -21.034285
v -6.215590 -13.333798 -21.060921
v -7.000000 -10.537635 -21.064587
v 8.000000 -6.884627 -19.094587
v 7.928472 -12.677676 -18.073116
v 7.549515 -13.155382 -17.988884
v -6.090836 -13.314528 -17.960823
v -6.834667 -12.873095 -18.038658
v 7.310458 -13.267448 -17.969124
v -7.000000 -12.263666 -18.146118
v -6.000000 -6.884627 -19.094587
v 7.000000 -0.061968 -20.297606
v -7.000000 -7.211742 -23.786854
v -6.874260 -12.891636 -24.788372
v -6.499613 -13.269617 -24.855021
v -5.941720 -13.407866 -24.879396
v 7.692544 -13.128236 -24.830091
v 7.057634 -13.403543 -24.878635
v -6.241865 -13.374830 -24.873573
v -6.740070 -13.082109 -24.821957
v -6.988255 -12.538655 -24.726131
v -6.000000 -7.211742 -23.786854
v -6.000000 -0.061968 -20.297606
v -7.000000 -6.884627 -19.094587
v -6.955163 -12.604766 -18.085972
v -6.622480 -13.098254 -17.998957
v -6.322083 -13.266665 -17.969261
v 7.044430 -13.318875 -17.960056
v 7.764891 -12.964083 -18.022614
v 7.995029 -12.375143 -18.126461
v 7.000000 -6.884627 -19.094587
v -6.805552 -12.956317 -21.392887
v 0.500000 -13.359026 -20.987053
v 7.872405 -12.866473 -22.562023
v -6.995721 -12.426456 -21.755779
v -6.705867 -13.066208 -20.999453
v -6.388181 -13.279664 -21.190342
v 7.070256 -13.350986 -20.915520
v 7.309163 -13.305356 -20.846943
v 7.649574 -13.129544 -22.058516
v 7.955772 -12.654133 -21.285925
f 665 666 630
f 654 666 665
f 667 665 656
f 654 665 667
f 640 679 675
f 637 683 677
f 644 631 634
f 684 631 644
f 684 635 631
f 677 635 684
f 677 660 635
f 683 660 677
f 683 636 660
f 638 636 683
f 682 636 638
f 681 636 682
f 661 636 681
f 643 661 681
f 676 661 643
f 676 659 661
f 639 659 676
f 639 662 659
f 645 662 639
f 680 662 645
f 680 658 662
f 640 658 680
f 663 658 640
f 675 663 640
f 675 657 663
f 642 657 675
f 641 657 642
f 664 657 641
f 678 664 641
f 664 678 646
f 644 634 647
f 664 646 656
f 653 646 678
f 667 646 653
f 678 668 653
f 641 668 678
f 642 668 641
f 675 668 642
f 675 651 668
f 679 651 675
f 679 669 651
f 640 669 679
f 680 669 640
f 680 670 669
f 645 670 680
f 645 650 670
f 639 650 645
f 676 650 639
f 671 650 676
f 681 671 676
f 681 652 671
f 682 652 681
f 638 652 682
f 638 649 652
f 683 649 638
f 683 672 649
f 637 672 683
f 637 648 672
f 677 648 637
f 684 648 677
f 644 648 684
f 644 673 648
f 646 667 656
f 643 681 676
f 673 644 647
f 674 634 632
f 647 634 674
f 655 632 633
f 674 632 655
f 666 633 630
f 655 633 666
f 673 672 648
f 673 649 672
f 673 652 649
f 673 671 652
f 674 673 647
f 671 673 674
f 653 670 650
f 653 669 670
f 653 651 669
f 653 668 651
f 654 667 653
f 650 654 653
f 671 654 650
f 674 654 671
f 674 666 654
f 655 666 674
f 664 663 657
f 664 658 663
f 664 662 658
f 664 659 662
f 665 664 656
f 665 659 664
f 661 659 665
f 632 634 631
f 660 631 635
f 636 631 660
f 661 631 636
f 661 632 631
f 665 632 661
f 665 633 632
f 630 633 665
# 684 vertices
# 0 texture params
# 0 normals
# 1344 facets

# 6 groups
