# WaveFront *.obj file (generated by Autodesk ATF)

mtllib thigh_dexter_collision.mtl

g Body6

v -7.674389 -7.710360 0.973557
v -7.945917 -7.916861 0.508780
v -7.466146 -7.708413 1.119908
v -7.279127 -7.530830 1.214495
v -7.000000 -7.344492 1.257690
v -7.000000 -8.381289 1.098348
v -7.000000 -9.414374 0.493888
v -7.000000 -10.041500 -0.299784
v -8.000000 -8.316787 0.022593
v -7.971655 -7.058185 0.447667
v -7.792598 -6.994996 0.835322
v -7.459554 -6.950817 1.106357
v -7.000000 -6.931961 1.222036
v -7.352582 -12.209429 -12.041966
v -7.692238 -11.166762 -7.370808
v -7.921957 -11.054714 -8.649271
v -8.000000 -9.384214 -1.391590
v -7.804317 -9.965042 -1.289174
v -7.536788 -10.214003 -1.245276
v -7.000000 -10.369022 -1.217942
v -8.000000 -0.061773 -20.297398
v -8.000000 -0.950984 -18.888432
v -8.000000 -2.702610 -17.830063
v -8.000000 -4.190113 -17.691872
v -8.000000 -5.606197 -18.093853
v -7.000000 -0.357508 -19.691299
v -7.000000 -1.749956 -18.253311
v -7.000000 -3.712058 -17.684265
v -7.000000 -5.429575 -18.008871
v -7.000000 -6.616023 -18.808495
v 7.000000 8.977400 -4.849630
v 7.000000 8.550953 -8.783551
v 7.000000 7.511476 -11.484482
v 7.000000 5.411537 -14.462516
v 7.000000 -8.655361 -0.178871
v 7.000000 -7.092840 0.235062
v -7.000000 -6.884627 -19.094587
v -8.000000 -12.336233 -18.133322
v -7.529655 -13.154993 -17.988953
v 6.000000 -13.321041 -17.959673
v 6.876156 -12.797325 -18.052017
v 6.000000 -0.061968 -20.297606
v 7.000000 -5.404803 -18.011469
v 7.000000 -3.385628 -17.694227
v 7.000000 -1.749956 -18.253311
v 7.000000 -0.309049 -19.763813
v -7.000000 4.931896 0.822436
v -8.000000 4.665514 -1.790509
v -8.000000 8.064033 -10.252932
v -8.000000 8.882821 -7.069004
v -8.000000 8.956346 -4.413233
v -7.609035 -6.378508 0.990204
v -7.506823 -5.994689 1.105360
v -7.703416 -5.202388 1.238688
v -7.388483 -5.707727 1.247552
v -7.545413 -4.872501 1.601717
v -7.000000 -4.971481 1.746104
v -7.000000 -5.803192 1.300134
v -8.000000 -5.903435 0.276772
v -7.901635 -9.570897 -0.642098
v -7.247681 -10.106414 -0.497758
v -7.346407 -9.852943 -0.110047
v -7.595528 -9.576942 0.033117
v -7.371919 -9.523818 0.285824
v -7.831922 -9.290267 -0.024358
v -7.678631 -9.064783 0.436499
v -7.907532 -8.857078 0.191176
v -7.401340 -8.712791 0.862133
v -7.791090 -8.805367 0.457282
v -7.964317 -8.635596 0.147107
v -7.549016 -8.309663 0.940812
v -7.268727 -7.890670 1.178678
v -7.842588 -7.845493 0.752582
v -7.757584 -8.187630 0.790159
v -7.237034 -8.389246 1.062953
v -7.887822 -8.413748 0.502218
v -7.247681 -8.814022 0.874604
v -7.641564 -8.664831 0.721003
v -7.278555 -9.116161 0.674511
v -7.499049 -9.144348 0.541471
v -7.589176 -9.342128 0.294706
v -7.967094 -9.205256 -0.413396
v -7.730103 -9.715916 -0.384028
v -7.493975 -9.900379 -0.315844
v -7.590060 -10.046305 -0.776823
v -7.387156 -10.155096 -0.737516
v -7.000000 -6.311536 1.203820
v -7.000000 -5.418143 1.453149
v -7.000000 -4.610460 2.091624
v -7.335033 -5.272513 1.459739
v -7.812561 -5.806264 0.867265
v -7.918280 -5.101619 0.931202
v -7.920863 -6.411782 0.582443
v -8.000000 8.776331 -3.035375
v -8.000000 8.989883 -5.683567
v -8.000000 8.550953 -8.783551
v -8.000000 6.581951 -13.009651
v -5.122148 8.630316 -2.301086
v -2.054458 8.983793 -4.803432
v 1.558772 8.990787 -4.970335
v 5.123306 8.627335 -2.293247
v -3.000000 8.991182 -5.012071
v -0.500000 8.669203 -8.297406
v -0.500000 7.911845 -10.646149
v -6.000000 -5.740064 1.329324
v -7.939717 5.891584 -1.551820
v 6.000000 -6.884627 -19.094587
v 7.000000 -6.884627 -19.094587
v 6.340071 8.053608 -1.242988
v -7.000000 -0.061773 -20.297398
v 6.000000 -5.606197 -18.093853
v 6.000000 -4.938508 -17.830128
v 6.000000 -4.190113 -17.691872
v 6.000000 -3.385628 -17.694227
v 6.000000 -2.456306 -17.917679
v 6.000000 -1.620097 -18.333216
v 6.000000 -0.950984 -18.888432
v 6.000000 -0.339072 -19.730829
v 6.000000 -0.061773 -20.297398
v 7.000000 -0.061773 -20.297398
v 7.000000 -0.866921 -18.988605
v 7.000000 -2.599691 -17.865999
v 7.000000 -4.255085 -17.698032
v 7.000000 -6.399462 -18.626156
v 7.000000 -12.336233 -18.133322
v 6.605867 -13.113820 -17.996212
v -7.000000 -13.321041 -17.959673
v -7.839382 -12.862854 -18.040462
v -8.000000 -6.884627 -19.094587
v -7.000000 -0.061968 -20.297606
v 7.000000 -7.880733 0.164347
v 7.000000 -9.384214 -1.391590
v 7.000000 6.874013 -12.583807
v 7.000000 8.053663 -10.291578
v 7.000000 8.914404 -6.752878
v 7.000000 8.851344 -3.465792
v -7.000000 -6.164251 -18.432499
v -7.000000 -4.705627 -17.774117
v -7.000000 -2.599691 -17.865999
v -7.000000 -0.950984 -18.888432
v -8.000000 -6.417599 -18.638275
v -8.000000 -4.938508 -17.830128
v -8.000000 -3.385628 -17.694227
v -8.000000 -1.808614 -18.224388
v -8.000000 -0.498662 -19.445896
v -8.000000 5.411537 -14.462516
v -7.267584 -10.326855 -1.225377
v -7.674947 -10.109600 -1.263685
v -7.949183 -9.678944 -1.339621
v -7.983412 -11.046044 -9.849567
v -7.839735 -11.462733 -10.075785
v -7.495659 -11.621485 -9.088779
v -7.133105 -11.671326 -8.660422
v -7.258819 -6.937443 1.188406
v -7.674947 -6.974340 0.962043
v -7.886167 -7.018625 0.690362
v -8.000000 -7.092840 0.235062
v -7.000000 -10.231397 -0.709338
v -7.000000 -9.727030 0.168219
v -7.000000 -8.910018 0.854254
v -7.000000 -7.906766 1.215669
v -0.500000 7.499666 -11.509394
v -0.500000 6.965582 -12.443560
v -1.750000 5.756884 -14.078329
v 6.874448 -9.856630 -1.308290
v 6.449153 -10.256826 -1.237725
v 6.000000 -10.369022 -1.217942
v 6.521007 -11.293026 -7.333560
v 6.747856 -11.120173 -7.438961
v 6.958381 -11.474728 -11.692007
v 6.624262 -6.967698 1.002794
v 6.215411 -6.936521 1.194061
v 6.162506 -7.578712 1.235433
v 6.733772 -7.460853 0.930128
v 6.563288 -7.779999 1.055340
v 6.431487 -8.034050 1.090896
v 6.843915 -8.018776 0.713056
v 6.972416 -7.721327 0.448079
v 6.151860 -8.887856 0.853777
v 6.921957 -8.110164 0.533655
v 6.765361 -8.528375 0.646206
v 6.162506 -9.231531 0.626553
v 6.536788 -8.816994 0.728526
v 6.973597 -8.505018 0.193689
v 6.907928 -8.741343 0.272684
v 6.130402 -9.555880 0.342695
v 6.351042 -9.334379 0.471649
v 6.508246 -9.347511 0.364597
v 6.279373 -9.706976 0.127657
v 6.761268 -9.403558 -0.002957
v 6.629199 -9.566689 0.001266
v 6.346570 -9.971291 -0.306006
v 6.601269 -9.887535 -0.444460
v 6.939538 -9.418447 -0.559071
v 6.547112 -10.051485 -0.719766
v 6.253003 -10.238337 -0.845851
v 6.162506 -5.086565 1.636924
v 6.666296 -5.338835 1.205884
v 6.949849 -5.267826 0.743923
v 6.742913 -5.001856 1.296892
v 6.454955 -4.948868 1.617274
v 6.380865 -5.738092 1.236125
v 6.220611 -6.020451 1.215473
v 6.628588 -5.804510 1.066380
v 6.576234 -6.312834 1.014081
v 6.199276 -6.395406 1.171888
v 5.858191 -10.066723 -0.358196
v 5.606249 -10.369022 -1.217942
v 5.524892 8.072645 -1.508524
v 5.000000 8.227638 -2.495817
v 5.338360 8.156549 -8.080193
v 5.882794 7.687192 -8.080193
v 5.678967 7.960530 -5.283481
v 5.189164 8.206573 -5.068350
v 5.842702 7.758058 -4.530520
v -5.000000 8.227638 -8.080193
v -5.642299 7.976151 -8.080193
v 4.679583 8.227638 -2.926698
v 4.096485 8.227638 -3.556532
v 2.692070 8.227638 -4.535968
v 0.775804 8.227638 -5.119668
v -0.241425 8.227638 -5.167653
v -2.352028 8.227638 -4.696095
v -3.337135 8.227638 -4.151632
v -4.679583 8.227638 -2.926698
v -5.000000 8.227638 -2.495817
v -5.862912 7.704237 -1.243154
v -5.524892 8.072645 -1.508524
v -5.866072 7.721375 -4.638086
v -5.971655 7.443048 -4.853218
v -5.157018 8.212238 -4.691869
v -5.606249 -10.369022 -1.217942
v -5.945927 -9.772362 0.116094
v 4.560375 -10.678276 -2.971805
v 3.743544 -10.816281 -3.754475
v 2.035374 -10.985588 -4.714658
v 1.127207 -11.030724 -4.970634
v -0.646484 -11.043019 -5.040371
v -1.829709 -10.997049 -4.779661
v -3.701085 -10.822167 -3.787857
v -4.740123 -10.636651 -2.735739
v 5.348660 -9.772362 -1.773826
v 4.044115 -9.772362 -3.503392
v 3.233279 -9.772362 -4.123653
v 1.122366 -9.772362 -4.962719
v 0.161495 -9.772362 -5.075358
v -1.620622 -9.772362 -4.850213
v -2.720329 -9.772362 -4.417832
v -4.488273 -9.772362 -3.035907
v -5.358343 -9.772362 -1.748695
v 6.000000 -6.417599 -18.638275
v -7.806755 7.007302 -1.647463
v -7.623716 6.934805 -1.445000
v -7.482239 7.310123 -1.393949
v -7.856870 6.528947 -1.616279
v -7.937458 6.637498 -1.825577
v -7.734473 7.540459 -1.584242
v -7.943699 7.758507 -1.904372
v -7.854598 8.098598 -1.666740
v -7.595616 7.887570 -1.416241
v -7.455358 8.050854 -1.292794
v 6.000000 -4.353175 2.459648
v 6.294047 -4.528837 2.113369
v 6.685493 -4.749012 1.555591
v 6.919106 -4.890843 1.023007
v 7.000000 -4.968902 0.556787
v 7.000000 -4.921165 -0.800238
v 6.611045 7.964309 -1.408035
v -5.809663 -9.772362 -0.542521
v -3.673980 -9.772362 -3.815319
v -0.564089 -9.772362 -5.046880
v 2.231646 -9.772362 -4.642504
v 4.754213 -9.772362 -2.732515
v 5.734519 -9.772362 -0.828706
v -2.896341 -10.917634 -4.329275
v 0.404446 -11.046442 -5.059784
v 2.896341 -10.917634 -4.329275
v 5.122685 -10.538927 -2.181519
v -5.870315 -10.027231 -0.293083
v -5.483461 8.097451 -4.530520
v -5.716812 7.921340 -4.100257
v -5.650891 7.986809 -1.195980
v -4.096485 8.227638 -3.556532
v -1.433985 8.227638 -4.993673
v 1.873513 8.227638 -4.872162
v 3.429423 8.227638 -4.096646
v -5.934940 7.556334 -8.080193
v 5.972367 7.437643 -4.315389
v 5.447061 8.115865 -4.530520
v 5.672379 7.961411 -8.080193
v 5.000000 8.227638 -8.080193
v 5.650891 7.986809 -1.195980
v 5.945927 -9.772362 0.116094
v 6.836864 -6.118099 0.762869
v 6.804410 -5.582546 0.941357
v 6.162506 -4.732534 1.932098
v 6.162506 -5.489958 1.401214
v 6.413600 -5.391354 1.363307
v 6.991213 -9.272495 -0.733384
v 6.798609 -9.718998 -0.557264
v 6.847624 -9.484689 -0.296245
v 6.456235 -9.701922 0.018005
v 6.909468 -9.062084 0.004595
v 6.673968 -9.042919 0.451992
v 6.811734 -8.878614 0.381903
v 6.341044 -8.912270 0.784953
v 6.341370 -8.601578 0.945518
v 6.566287 -8.347663 0.917755
v 6.736576 -7.952354 0.874800
v 6.162506 -8.394175 1.077692
v -0.500000 8.981041 -5.869625
v -3.000000 8.969642 -4.535138
v 5.682736 8.282948 -1.104421
v 5.491299 8.434085 -1.582452
v 4.516751 8.796495 -3.112827
v 3.543741 8.923340 -4.009480
v 2.503572 8.973969 -4.619627
v 0.602646 8.995258 -5.142159
v -0.128242 8.995882 -5.175235
v -0.921359 8.994402 -5.102284
v -3.029281 8.956026 -4.353319
v -3.820955 8.899462 -3.796871
v -4.562589 8.786425 -3.058207
v -5.499791 8.424524 -1.555146
v -5.682736 8.282948 -1.104421
v -8.000000 7.362049 -11.764971
v 6.215411 -8.013062 1.170213
v 6.904152 -7.568845 0.673982
v 6.351769 -7.548427 1.190427
v 6.000000 -10.070473 -0.349153
v 6.461309 -6.950274 1.109686
v 6.804317 -6.997955 0.817168
v 6.929559 -7.034679 0.591872
v 6.835126 -11.904287 -12.545308
v 6.592496 -12.368958 -13.692111
v 6.214843 -11.879161 -9.942419
v 6.720496 -10.063418 -1.271828
v 6.952809 -9.680070 -1.339422
v -0.500000 6.379157 -13.297850
v -0.500000 8.269164 -9.716032
v 0.750000 8.882788 -7.121210
v 6.154034 4.959977 0.624158
v 6.586057 4.995559 0.002767
v 6.878647 4.965216 -0.574895
v 7.000000 4.859672 -1.176260
v 7.000000 4.645471 -1.835875
v 7.000000 4.184233 -2.710150
v 7.000000 3.336535 -3.704833
v 7.000000 2.481402 -4.335144
v 7.000000 1.575150 -4.729864
v 7.000000 0.440522 -4.973706
v 7.000000 -0.375936 -4.980914
v 7.000000 -1.158472 -4.858886
v 7.000000 -2.000193 -4.569613
v 7.000000 -3.155946 -3.859827
v 7.000000 -4.121472 -2.805659
v 7.000000 -4.630530 -1.873240
v -6.000000 4.931896 0.822436
v 6.809241 7.945129 -1.625031
v 6.926279 7.983067 -1.828207
v 6.350717 7.480711 -1.327313
v 6.215411 7.173225 -1.280876
v 6.572799 7.462006 -1.450926
v 6.850447 7.289964 -1.745928
v 6.530420 6.884064 -1.370376
v 6.714799 6.773010 -1.496778
v 6.884274 6.580807 -1.685257
v 6.545440 6.410310 -1.236530
v 6.178230 6.293229 -1.023831
v 6.921186 5.974301 -1.534401
v 6.750320 6.080704 -1.282278
v 6.497013 5.912899 -0.939863
v 6.707096 5.785213 -1.047098
v 6.307708 5.779048 -0.733484
v 6.912014 5.406612 -1.124709
v 6.828626 5.255976 -0.774933
v 6.199482 5.446080 -0.352658
v 6.469666 5.321329 -0.352764
v 6.698236 5.238763 -0.524203
v 6.246421 5.127941 0.106160
v 6.270018 6.669319 -1.198358
v 6.000000 8.009334 -1.184418
v 6.000000 8.282948 -1.104421
v 6.389006 8.310390 -1.185641
v 6.684479 8.370035 -1.368237
v 6.897725 8.455750 -1.647657
v 7.000000 8.571465 -2.063711
v 7.000000 7.884252 -2.215541
v 7.000000 6.463049 -2.113312
v 7.000000 5.543622 -1.712111
v 6.000000 -5.227648 1.571535
v 6.000000 -5.853860 1.288976
v 6.000000 -6.449423 1.195553
v 6.000000 -6.931961 1.222036
v 6.000000 -7.821774 1.224160
v 6.000000 -8.623462 0.999457
v 6.000000 -9.381908 0.503034
v 6.000000 -9.772362 0.116094
v 6.000000 -9.772362 -8.080193
v 6.000000 7.227638 -8.080193
v 6.000000 7.227638 -1.260546
v 6.000000 6.748734 -1.175585
v 6.000000 6.144352 -0.916219
v 6.000000 5.517853 -0.400350
v 6.000000 5.175206 0.099785
v 6.000000 -4.829505 1.275702
v 6.000000 -4.970397 0.477432
v 6.000000 -4.933459 -0.698196
v 6.000000 -4.653420 -1.815826
v 6.000000 -4.254564 -2.604326
v 6.000000 -3.526435 -3.528185
v 6.000000 -2.452796 -4.340977
v 6.000000 -1.441354 -4.782681
v 6.000000 -0.672993 -4.949608
v 6.000000 0.112044 -4.993895
v 6.000000 1.181473 -4.846437
v 6.000000 2.020228 -4.568394
v 6.000000 2.951149 -4.021760
v 6.000000 3.734074 -3.315039
v 6.000000 4.367086 -2.410889
v 6.000000 4.730177 -1.605294
v 6.000000 4.923480 -0.843140
v 6.000000 4.990455 0.062870
v 6.000000 4.931896 0.822436
v -7.702385 6.255778 -1.307528
v -7.450194 6.621396 -1.252447
v -7.435484 6.026568 -0.973440
v -7.588018 5.739604 -0.881725
v -7.941867 5.165693 -1.011194
v -7.869825 5.522715 -1.116436
v -7.263180 5.111127 0.144141
v -7.379252 5.537871 -0.548817
v -7.651131 5.152707 -0.337302
v -7.338417 5.283441 -0.208892
v -7.772842 5.353348 -0.779004
v -8.000000 6.114201 -1.962937
v -8.000000 8.136819 -2.170394
v -8.000000 8.571465 -2.063711
v -7.902687 8.458730 -1.657761
v -7.691784 8.372854 -1.377265
v -7.357718 8.306353 -1.173559
v -7.000000 8.282948 -1.104421
v -7.000000 8.086164 -1.168731
v -7.000000 7.680054 -1.245572
v -7.000000 7.267063 -1.261969
v -7.000000 6.858048 -1.202496
v -7.000000 6.367702 -1.041365
v -7.000000 5.979298 -0.819132
v -7.000000 5.634079 -0.534406
v -7.000000 5.366611 -0.219273
v -7.000000 5.108038 0.246844
v -6.000000 5.315107 -0.140384
v -6.000000 5.711253 -0.599307
v -6.000000 6.408053 -1.046825
v -6.000000 7.227638 -1.260546
v -6.000000 7.227638 -8.080193
v -6.000000 -9.772362 -8.080193
v -6.000000 -9.772362 0.116094
v -6.000000 -9.428164 0.469658
v -6.000000 -8.691424 0.965767
v -6.000000 -8.065454 1.184716
v -6.000000 -6.931961 1.222036
v -6.000000 -6.449423 1.195553
v -6.000000 -5.150093 1.610386
v -6.000000 -4.727094 1.964226
v -6.000000 4.988224 0.038123
v -6.000000 4.923480 -0.843140
v -6.000000 4.609323 -1.901168
v -6.000000 4.023663 -2.948963
v -6.000000 3.317170 -3.732181
v -6.000000 2.544771 -4.298335
v -6.000000 1.815211 -4.651645
v -6.000000 0.747773 -4.932249
v -6.000000 -0.133943 -4.995538
v -6.000000 -1.154937 -4.852829
v -6.000000 -1.995201 -4.579380
v -6.000000 -2.748573 -4.165806
v -6.000000 -3.460878 -3.601925
v -6.000000 -3.983221 -3.014215
v -6.000000 -4.406868 -2.351820
v -6.000000 -4.772950 -1.466882
v -6.000000 -4.969448 -0.406056
v -6.000000 -4.892262 0.962319
v -6.000000 -4.591136 1.973526
v -6.000000 -4.353175 2.459648
v -7.000000 -4.353175 2.459648
v -7.690374 -4.752597 1.533038
v -8.000000 -4.968902 0.556787
v -8.000000 -4.974011 -0.408008
v -8.000000 -4.716997 -1.614991
v -8.000000 -4.093364 -2.846511
v -8.000000 -3.155946 -3.859827
v -8.000000 -2.271709 -4.448615
v -8.000000 -1.228295 -4.832137
v -8.000000 -0.178048 -4.991907
v -8.000000 0.710320 -4.937366
v -8.000000 1.832713 -4.642028
v -8.000000 2.951298 -4.014200
v -8.000000 3.725675 -3.324327
v -8.000000 4.307821 -2.524774
v -8.000000 4.859672 -1.176260
v -7.857403 4.971890 -0.517002
v -7.596562 4.996464 -0.012020
usemtl Paint_-_Metal_Flake_(Black)
f 269 458 233
f 269 457 458
f 250 457 269
f 249 457 250
f 270 457 249
f 248 457 270
f 247 457 248
f 271 457 247
f 246 457 271
f 246 399 457
f 245 399 246
f 272 399 245
f 244 399 272
f 243 399 244
f 273 399 243
f 242 399 273
f 274 399 242
f 274 398 399
f 293 398 274
f 274 207 293
f 208 207 274
f 279 269 233
f 232 269 279
f 232 250 269
f 241 250 232
f 241 249 250
f 240 249 241
f 240 270 249
f 275 270 240
f 275 248 270
f 239 248 275
f 239 247 248
f 239 271 247
f 238 271 239
f 276 271 238
f 276 246 271
f 276 245 246
f 237 245 276
f 236 245 237
f 236 272 245
f 277 272 236
f 277 244 272
f 235 244 277
f 235 243 244
f 234 243 235
f 234 273 243
f 278 273 234
f 278 242 273
f 208 242 278
f 208 274 242
f 241 232 20
f 240 241 127
f 275 240 127
f 127 239 275
f 127 238 239
f 40 276 238
f 40 237 276
f 40 236 237
f 277 236 40
f 40 235 277
f 40 234 235
f 167 208 278
f 40 278 234
f 167 278 40
f 40 238 127
f 127 241 20
f 279 233 458
f 232 158 20
f 279 158 232
f 279 8 158
f 279 159 8
f 458 159 279
f 459 159 458
f 459 7 159
f 459 160 7
f 460 160 459
f 460 6 160
f 461 6 460
f 461 161 6
f 462 161 461
f 462 5 161
f 462 13 5
f 463 13 462
f 463 87 13
f 105 87 463
f 105 58 87
f 105 88 58
f 464 88 105
f 464 57 88
f 465 57 464
f 465 89 57
f 485 89 465
f 485 486 89
f 358 451 47
f 452 451 358
f 452 450 451
f 452 449 450
f 453 449 452
f 453 448 449
f 454 448 453
f 454 447 448
f 454 446 447
f 455 446 454
f 455 445 446
f 455 444 445
f 227 444 455
f 227 443 444
f 282 443 227
f 282 442 443
f 325 442 282
f 282 324 325
f 228 324 282
f 226 324 228
f 226 98 324
f 226 323 98
f 225 323 226
f 283 323 225
f 283 322 323
f 224 322 283
f 224 321 322
f 223 321 224
f 223 99 321
f 284 99 223
f 284 320 99
f 222 320 284
f 222 319 320
f 222 318 319
f 221 318 222
f 221 100 318
f 285 100 221
f 285 317 100
f 220 317 285
f 286 317 220
f 286 316 317
f 219 316 286
f 219 315 316
f 218 315 219
f 218 101 315
f 210 101 218
f 210 314 101
f 209 314 210
f 292 314 209
f 313 314 292
f 280 228 281
f 280 226 228
f 231 226 280
f 231 216 226
f 280 216 231
f 280 217 216
f 281 217 280
f 229 217 281
f 229 287 217
f 230 287 229
f 230 456 287
f 230 455 456
f 230 227 455
f 229 227 230
f 281 227 229
f 281 282 227
f 228 282 281
f 216 225 226
f 283 225 216
f 216 224 283
f 216 223 224
f 216 284 223
f 216 222 284
f 291 222 216
f 291 221 222
f 285 221 291
f 291 220 285
f 286 220 291
f 291 219 286
f 291 218 219
f 210 218 291
f 287 456 457
f 287 216 217
f 457 216 287
f 457 291 216
f 399 291 457
f 400 291 399
f 400 211 291
f 400 290 211
f 212 290 400
f 215 292 213
f 215 401 292
f 288 401 215
f 288 400 401
f 288 212 400
f 215 212 288
f 215 290 212
f 213 290 215
f 289 290 213
f 289 211 290
f 214 211 289
f 214 291 211
f 210 291 214
f 289 210 214
f 289 209 210
f 213 209 289
f 213 292 209
f 313 382 383
f 292 382 313
f 292 401 382
f 207 398 293
f 207 330 398
f 207 167 330
f 208 167 207
f 332 205 171
f 171 205 331
f 331 206 172
f 205 206 331
f 201 263 296
f 199 294 36
f 199 295 294
f 199 200 295
f 294 205 332
f 294 204 205
f 295 204 294
f 295 198 204
f 198 295 200
f 198 298 204
f 204 202 205
f 298 202 204
f 298 198 201
f 205 202 203
f 298 297 202
f 202 297 203
f 297 298 197
f 206 392 393
f 203 392 206
f 203 206 205
f 297 392 203
f 297 391 392
f 201 198 200
f 391 297 197
f 296 391 197
f 262 391 296
f 296 197 201
f 263 262 296
f 201 264 263
f 200 264 201
f 200 265 264
f 298 201 197
f 265 200 199
f 294 333 36
f 294 332 333
f 393 172 206
f 394 172 393
f 199 266 265
f 36 266 199
f 299 132 35
f 184 35 131
f 178 184 131
f 303 35 184
f 194 35 303
f 194 299 35
f 338 299 194
f 338 132 299
f 328 178 333
f 180 178 328
f 180 184 178
f 185 184 180
f 185 303 184
f 165 338 194
f 332 328 333
f 177 180 328
f 181 180 177
f 181 185 180
f 305 303 185
f 301 194 303
f 300 194 301
f 300 165 194
f 174 328 332
f 174 177 328
f 305 185 181
f 190 303 305
f 190 301 303
f 309 177 174
f 181 177 309
f 304 190 305
f 300 301 190
f 337 165 300
f 174 332 171
f 308 181 309
f 304 305 181
f 195 300 193
f 195 337 300
f 175 309 174
f 308 309 175
f 191 190 304
f 191 300 190
f 193 300 191
f 331 174 171
f 175 174 331
f 183 181 308
f 183 304 181
f 188 191 304
f 166 337 195
f 176 308 175
f 187 304 183
f 187 188 304
f 302 191 188
f 302 193 191
f 329 175 331
f 176 175 329
f 307 183 308
f 306 183 307
f 306 187 183
f 192 193 302
f 192 195 193
f 329 331 172
f 327 176 329
f 307 308 176
f 187 302 188
f 189 302 187
f 192 302 189
f 196 195 192
f 196 166 195
f 173 329 172
f 173 327 329
f 310 176 327
f 310 307 176
f 179 187 306
f 182 187 179
f 330 196 192
f 179 307 310
f 179 306 307
f 186 187 182
f 186 189 187
f 398 192 189
f 330 192 398
f 167 166 196
f 186 398 189
f 167 196 330
f 186 397 398
f 182 397 186
f 179 397 182
f 179 396 397
f 310 396 179
f 310 395 396
f 327 395 310
f 173 395 327
f 173 394 395
f 172 394 173
f 178 36 333
f 131 36 178
f 168 335 169
f 166 167 336
f 336 167 40
f 168 166 336
f 170 125 132
f 41 125 170
f 334 41 170
f 40 168 336
f 40 335 168
f 126 335 40
f 126 169 335
f 126 334 169
f 41 334 126
f 338 170 132
f 165 170 338
f 165 334 170
f 165 169 334
f 337 169 165
f 337 168 169
f 166 168 337
f 384 313 383
f 384 314 313
f 385 314 384
f 386 314 385
f 387 314 386
f 387 101 314
f 387 315 101
f 136 315 387
f 136 316 315
f 31 316 136
f 31 317 316
f 100 317 31
f 311 318 100
f 311 319 318
f 102 319 311
f 102 320 319
f 102 99 320
f 31 311 100
f 135 311 31
f 135 341 311
f 135 103 341
f 32 103 135
f 32 340 103
f 134 340 32
f 134 104 340
f 33 104 134
f 33 162 104
f 33 163 162
f 133 163 33
f 133 339 163
f 34 339 133
f 34 164 339
f 146 164 34
f 146 339 164
f 97 339 146
f 97 163 339
f 326 163 97
f 326 162 163
f 49 162 326
f 49 104 162
f 49 340 104
f 96 340 49
f 96 103 340
f 50 103 96
f 50 341 103
f 50 311 341
f 95 311 50
f 95 102 311
f 51 102 95
f 51 99 102
f 99 312 321
f 51 312 99
f 51 321 312
f 51 322 321
f 94 322 51
f 94 323 322
f 98 323 94
f 438 98 94
f 441 442 325
f 324 441 325
f 324 440 441
f 324 439 440
f 324 438 439
f 438 324 98
f 38 157 59
f 9 157 38
f 38 17 9
f 94 437 438
f 51 437 94
f 51 436 437
f 95 436 51
f 436 48 501
f 48 436 500
f 95 500 436
f 50 500 95
f 96 500 50
f 49 500 96
f 326 500 49
f 97 500 326
f 146 500 97
f 21 500 146
f 21 499 500
f 21 498 499
f 145 498 21
f 145 497 498
f 22 497 145
f 22 496 497
f 144 496 22
f 144 495 496
f 23 495 144
f 23 494 495
f 143 494 23
f 24 494 143
f 24 493 494
f 142 493 24
f 142 492 493
f 25 492 142
f 141 492 25
f 141 491 492
f 129 491 141
f 38 491 129
f 490 491 38
f 38 489 490
f 488 489 38
f 59 488 38
f 156 93 10
f 13 12 154
f 13 87 12
f 10 93 157
f 93 59 157
f 93 91 59
f 58 55 87
f 91 92 59
f 87 53 12
f 87 55 53
f 58 90 55
f 53 52 12
f 55 54 53
f 90 54 55
f 90 56 54
f 12 52 155
f 53 91 52
f 54 91 53
f 52 11 155
f 52 91 11
f 11 93 156
f 11 91 93
f 54 92 91
f 90 57 56
f 56 487 54
f 56 486 487
f 89 56 57
f 89 486 56
f 57 90 88
f 487 92 54
f 488 92 487
f 488 59 92
f 88 90 58
f 20 158 147
f 8 61 158
f 158 86 147
f 61 86 158
f 86 19 147
f 86 85 19
f 19 85 148
f 85 83 148
f 83 18 148
f 18 60 149
f 60 82 149
f 82 17 149
f 70 17 82
f 70 9 17
f 2 157 9
f 10 157 2
f 70 2 9
f 67 70 82
f 2 70 76
f 156 10 2
f 65 82 60
f 67 82 65
f 76 70 67
f 69 67 65
f 73 2 76
f 73 156 2
f 83 65 60
f 69 76 67
f 74 76 69
f 74 73 76
f 11 156 73
f 66 69 65
f 1 73 74
f 1 11 73
f 63 65 83
f 66 65 81
f 78 74 69
f 155 11 1
f 63 81 65
f 78 69 66
f 71 74 78
f 71 1 74
f 84 63 83
f 80 66 81
f 80 78 66
f 68 78 80
f 68 71 78
f 3 1 71
f 3 155 1
f 12 155 3
f 62 63 84
f 64 63 62
f 64 81 63
f 64 80 81
f 79 68 80
f 62 84 61
f 79 80 64
f 77 68 79
f 75 71 68
f 75 3 71
f 72 3 75
f 4 3 72
f 4 12 3
f 159 64 62
f 7 79 64
f 154 12 4
f 8 62 61
f 159 62 8
f 159 7 64
f 75 68 77
f 161 72 75
f 160 79 7
f 160 77 79
f 160 75 77
f 6 75 160
f 6 161 75
f 161 4 72
f 5 4 161
f 5 154 4
f 13 154 5
f 84 86 61
f 84 85 86
f 83 85 84
f 60 18 83
f 149 17 150
f 150 17 38
f 16 149 150
f 18 149 16
f 151 18 16
f 14 127 153
f 39 127 14
f 153 127 20
f 152 39 14
f 38 16 150
f 128 16 38
f 128 151 16
f 128 15 151
f 39 15 128
f 39 152 15
f 147 153 20
f 147 14 153
f 147 152 14
f 19 152 147
f 19 15 152
f 148 15 19
f 18 15 148
f 18 151 15
f 34 120 119
f 146 110 21
f 34 110 146
f 119 110 34
f 119 130 110
f 42 130 119
f 26 21 110
f 26 145 21
f 26 22 145
f 140 22 26
f 140 144 22
f 27 144 140
f 139 144 27
f 139 23 144
f 139 143 23
f 28 143 139
f 28 24 143
f 138 24 28
f 138 142 24
f 29 142 138
f 29 25 142
f 137 25 29
f 137 141 25
f 30 141 137
f 30 129 141
f 37 129 30
f 139 138 28
f 139 29 138
f 27 29 139
f 27 137 29
f 140 137 27
f 140 30 137
f 140 37 30
f 26 37 140
f 26 130 37
f 110 130 26
f 388 136 387
f 389 136 388
f 389 31 136
f 346 32 135
f 33 134 347
f 347 133 33
f 347 34 133
f 35 132 125
f 125 131 35
f 36 131 125
f 125 266 36
f 267 266 125
f 125 357 267
f 125 356 357
f 108 356 125
f 124 356 108
f 124 355 356
f 43 355 124
f 43 354 355
f 123 354 43
f 123 353 354
f 44 353 123
f 122 353 44
f 122 352 353
f 122 351 352
f 45 351 122
f 45 350 351
f 121 350 45
f 46 350 121
f 46 349 350
f 120 349 46
f 120 348 349
f 120 347 348
f 347 120 34
f 346 134 32
f 347 134 346
f 389 135 31
f 389 346 135
f 390 346 389
f 390 345 346
f 129 128 38
f 129 39 128
f 129 127 39
f 37 127 129
f 40 41 126
f 125 41 40
f 107 125 40
f 108 125 107
f 37 40 127
f 37 107 40
f 130 107 37
f 42 107 130
f 113 115 114
f 112 115 113
f 111 115 112
f 111 116 115
f 251 116 111
f 251 117 116
f 107 117 251
f 107 118 117
f 42 119 118
f 42 118 107
f 120 118 119
f 46 118 120
f 121 118 46
f 121 117 118
f 121 116 117
f 45 116 121
f 45 115 116
f 122 115 45
f 122 114 115
f 44 114 122
f 44 113 114
f 123 113 44
f 123 112 113
f 43 112 123
f 43 111 112
f 124 111 43
f 124 251 111
f 124 107 251
f 108 107 124
f 382 361 109
f 401 361 382
f 401 362 361
f 362 365 361
f 381 365 362
f 369 372 381
f 363 268 109
f 361 366 363
f 365 366 361
f 372 373 368
f 368 366 365
f 368 371 366
f 371 367 366
f 367 388 364
f 374 378 372
f 372 379 373
f 364 388 360
f 367 389 388
f 370 389 367
f 375 390 370
f 374 377 378
f 366 367 364
f 371 370 367
f 371 375 370
f 373 375 371
f 376 375 373
f 368 373 371
f 378 379 372
f 378 343 379
f 377 380 378
f 381 368 365
f 381 372 368
f 380 343 378
f 405 424 342
f 380 405 342
f 380 404 405
f 377 404 380
f 377 403 404
f 374 403 377
f 369 403 374
f 369 402 403
f 381 402 369
f 362 402 381
f 362 401 402
f 370 390 389
f 345 390 375
f 375 344 345
f 359 364 360
f 376 344 375
f 344 376 379
f 343 344 379
f 268 364 359
f 363 364 268
f 366 364 363
f 379 376 373
f 361 363 109
f 374 372 369
f 342 343 380
f 386 388 387
f 386 360 388
f 386 359 360
f 385 359 386
f 385 268 359
f 384 268 385
f 384 109 268
f 383 109 384
f 382 109 383
f 394 396 395
f 397 396 394
f 405 423 424
f 404 423 405
f 404 422 423
f 403 422 404
f 403 421 422
f 402 421 403
f 402 420 421
f 401 420 402
f 401 419 420
f 400 419 401
f 418 419 400
f 417 418 400
f 400 416 417
f 400 415 416
f 400 414 415
f 399 414 400
f 413 414 399
f 399 412 413
f 399 411 412
f 399 410 411
f 398 410 399
f 398 409 410
f 408 409 398
f 397 408 398
f 394 408 397
f 394 407 408
f 393 407 394
f 392 407 393
f 392 406 407
f 391 406 392
f 391 262 406
f 423 342 424
f 423 343 342
f 423 344 343
f 422 344 423
f 422 345 344
f 421 345 422
f 421 346 345
f 420 346 421
f 420 347 346
f 419 347 420
f 419 348 347
f 418 348 419
f 418 349 348
f 417 349 418
f 417 350 349
f 416 350 417
f 416 351 350
f 415 351 416
f 415 352 351
f 414 352 415
f 414 353 352
f 413 353 414
f 413 354 353
f 412 354 413
f 412 355 354
f 411 355 412
f 411 356 355
f 410 356 411
f 410 357 356
f 409 357 410
f 409 267 357
f 408 267 409
f 408 266 267
f 407 266 408
f 265 266 407
f 406 265 407
f 406 264 265
f 262 264 406
f 262 263 264
f 261 444 443
f 260 444 261
f 254 444 260
f 253 254 257
f 426 254 253
f 447 446 426
f 258 257 259
f 429 430 106
f 106 425 255
f 430 425 106
f 430 435 425
f 435 428 425
f 451 450 431
f 450 434 431
f 431 47 451
f 434 433 431
f 432 434 450
f 435 429 502
f 428 435 432
f 106 436 429
f 427 428 432
f 256 106 255
f 256 436 106
f 427 425 428
f 448 432 449
f 437 436 256
f 448 427 432
f 258 437 256
f 426 425 427
f 258 256 255
f 426 427 448
f 253 255 425
f 252 255 253
f 258 255 252
f 258 438 437
f 258 439 438
f 259 439 258
f 259 440 439
f 260 440 259
f 261 440 260
f 261 441 440
f 443 441 261
f 443 442 441
f 445 444 254
f 254 260 257
f 426 445 254
f 446 445 426
f 252 257 258
f 252 253 257
f 448 447 426
f 450 449 432
f 433 432 435
f 434 432 433
f 431 503 47
f 433 503 431
f 433 502 503
f 433 435 502
f 429 501 502
f 436 501 429
f 259 257 260
f 425 426 253
f 430 429 435
f 465 484 485
f 464 484 465
f 464 483 484
f 105 483 464
f 463 483 105
f 463 482 483
f 462 482 463
f 460 462 461
f 460 482 462
f 459 482 460
f 458 482 459
f 481 482 458
f 458 480 481
f 457 480 458
f 479 480 457
f 457 478 479
f 457 477 478
f 457 476 477
f 457 475 476
f 457 474 475
f 456 474 457
f 456 473 474
f 456 472 473
f 471 472 456
f 456 470 471
f 469 470 456
f 455 469 456
f 455 468 469
f 454 468 455
f 454 467 468
f 453 467 454
f 453 466 467
f 452 466 453
f 358 466 452
f 484 486 485
f 484 487 486
f 483 487 484
f 483 488 487
f 482 488 483
f 482 489 488
f 482 490 489
f 481 490 482
f 480 490 481
f 480 491 490
f 479 491 480
f 478 491 479
f 478 492 491
f 477 492 478
f 477 493 492
f 476 493 477
f 476 494 493
f 475 494 476
f 475 495 494
f 474 495 475
f 473 495 474
f 473 496 495
f 472 496 473
f 472 497 496
f 471 497 472
f 471 498 497
f 470 498 471
f 470 499 498
f 469 499 470
f 469 500 499
f 468 500 469
f 468 48 500
f 468 501 48
f 467 501 468
f 467 502 501
f 466 502 467
f 466 503 502
f 466 47 503
f 358 47 466
g Body7

v -7.000000 0.033225 -20.743202
v -7.000000 -2.569988 -17.902987
v -7.000000 -5.305018 -17.966642
v -7.000000 -7.584250 -20.427286
v -7.000000 -7.485798 -23.231773
v -7.000000 -5.012569 -25.425726
v -7.000000 -1.160499 -24.597382
v -8.000000 0.070634 -22.540789
v -8.000000 -1.374445 -24.792976
v -8.000000 -4.062387 -25.636446
v -8.000000 -7.168215 -23.738758
v -8.000000 -7.370891 -19.861752
v -8.000000 -4.703895 -17.787548
v -8.000000 -1.838960 -18.204250
v -8.000000 -0.874354 -18.999155
v -8.000000 0.133968 -21.237465
v -8.000000 -0.133445 -20.138577
v -8.000000 -3.164654 -17.750309
v -8.000000 -6.420625 -18.679478
v -8.000000 -7.763680 -21.480076
v -8.000000 -5.607618 -25.206886
v -8.000000 -2.711032 -25.494112
v -8.000000 -0.360284 -23.633564
v -7.000000 -0.016348 -22.723255
v -7.000000 -2.942288 -25.522644
v -7.000000 -6.652066 -24.435390
v -7.000000 -7.787985 -21.962690
v -7.000000 -6.511672 -18.757395
v -7.000000 -4.106869 -17.690159
v -7.000000 -0.948680 -18.948935
usemtl Paint_-_Metal_Flake_(Gold)
f 506 505 532
f 506 533 505
f 531 533 506
f 507 533 531
f 507 504 533
f 530 504 507
f 510 509 528
f 510 529 509
f 510 508 529
f 527 508 510
f 527 530 508
f 504 530 527
f 524 525 513
f 524 512 525
f 514 512 524
f 514 526 512
f 514 511 526
f 523 511 514
f 523 519 511
f 517 516 521
f 517 522 516
f 518 522 517
f 518 515 522
f 520 515 518
f 520 523 515
f 519 523 520
f 520 504 519
f 520 533 504
f 518 533 520
f 517 533 518
f 517 505 533
f 521 505 517
f 521 532 505
f 516 532 521
f 516 506 532
f 522 506 516
f 522 531 506
f 515 531 522
f 515 507 531
f 523 507 515
f 523 530 507
f 523 508 530
f 514 508 523
f 514 529 508
f 524 529 514
f 524 509 529
f 513 509 524
f 513 528 509
f 525 528 513
f 512 528 525
f 512 510 528
f 526 510 512
f 526 527 510
f 511 527 526
f 519 527 511
f 519 504 527
g Body8

v 7.000000 0.033225 -20.743202
v 7.000000 -2.569988 -17.902987
v 7.000000 -5.305018 -17.966642
v 7.000000 -7.584250 -20.427286
v 7.000000 -7.485798 -23.231773
v 7.000000 -5.012569 -25.425726
v 7.000000 -1.160499 -24.597382
v 6.000000 -0.089416 -23.068111
v 6.000000 -1.938363 -25.175404
v 6.000000 -4.705688 -25.550526
v 6.000000 -7.137545 -23.791229
v 6.000000 -7.601707 -20.489868
v 6.000000 -5.473299 -18.076559
v 6.000000 -2.295213 -18.011259
v 6.000000 -0.728837 -19.178513
v 6.000000 0.160492 -21.864140
v 6.000000 -0.004435 -20.536913
v 6.000000 -3.666200 -17.686264
v 6.000000 -6.785616 -19.011684
v 6.000000 -7.788718 -22.040035
v 6.000000 -5.863647 -25.079659
v 6.000000 -3.252035 -25.591341
v 6.000000 -0.787428 -24.233019
v 7.000000 -0.016348 -22.723255
v 7.000000 -2.942288 -25.522644
v 7.000000 -6.652066 -24.435390
v 7.000000 -7.787985 -21.962690
v 7.000000 -6.511672 -18.757395
v 7.000000 -4.106869 -17.690159
v 7.000000 -0.948680 -18.948935
f 536 535 562
f 536 563 535
f 561 563 536
f 537 563 561
f 537 534 563
f 560 534 537
f 540 539 558
f 540 559 539
f 540 538 559
f 557 538 540
f 557 560 538
f 534 560 557
f 543 542 555
f 554 542 543
f 554 556 542
f 544 556 554
f 544 541 556
f 553 541 544
f 553 549 541
f 547 546 551
f 547 552 546
f 548 552 547
f 548 545 552
f 550 545 548
f 549 545 550
f 549 553 545
f 550 534 549
f 548 534 550
f 548 563 534
f 547 563 548
f 547 535 563
f 551 535 547
f 551 562 535
f 546 562 551
f 546 536 562
f 546 561 536
f 552 561 546
f 552 537 561
f 545 537 552
f 545 560 537
f 553 560 545
f 553 538 560
f 544 538 553
f 544 559 538
f 554 559 544
f 554 539 559
f 543 539 554
f 555 539 543
f 555 558 539
f 542 558 555
f 542 540 558
f 556 540 542
f 556 557 540
f 541 557 556
f 549 557 541
f 549 534 557
g Body9

v -6.000000 4.869679 0.912194
v -6.000000 4.129880 2.766798
v -6.000000 3.165254 3.861804
v -6.000000 1.972690 4.570011
v -6.000000 0.097872 4.971033
v -6.000000 -1.385290 4.789613
v -6.000000 -2.721995 4.173266
v -6.000000 -3.957172 2.990632
v -6.000000 -4.917424 0.467700
v -6.000000 -4.636252 -1.761834
v -6.000000 -3.856162 -3.160606
v -6.000000 -2.762943 -4.146270
v -6.000000 -1.201608 -4.815102
v -6.000000 0.903138 -4.886120
v -6.000000 2.821768 -4.079232
v -6.000000 4.241512 -2.590194
v -6.000000 4.896935 -0.892488
v -8.000000 4.583014 -1.912142
v -8.000000 3.316658 -3.660758
v -8.000000 1.550901 -4.741333
v -8.000000 -0.098593 -4.971018
v -8.000000 -1.597710 -4.725508
v -8.000000 -3.017294 -3.951795
v -8.000000 -4.130050 -2.781798
v -8.000000 -4.848595 -1.046044
v -8.000000 -4.849791 1.134161
v -8.000000 -4.150842 2.737016
v -8.000000 -2.597631 4.205273
v -8.000000 -0.663063 4.941636
v -8.000000 1.186573 4.808623
v -8.000000 3.566856 3.419248
v -8.000000 4.971009 -0.012346
v -8.000000 4.641203 1.789708
f 567 565 566
f 568 565 567
f 569 565 568
f 570 565 569
f 571 565 570
f 571 564 565
f 572 564 571
f 578 576 577
f 578 575 576
f 578 574 575
f 579 574 578
f 579 573 574
f 580 573 579
f 580 572 573
f 564 572 580
f 592 593 594
f 594 591 592
f 590 591 594
f 585 583 584
f 586 583 585
f 586 582 583
f 587 582 586
f 587 581 582
f 588 581 587
f 588 595 581
f 596 590 594
f 596 589 590
f 595 589 596
f 595 588 589
f 580 581 595
f 579 581 580
f 579 582 581
f 578 582 579
f 578 583 582
f 577 583 578
f 577 584 583
f 576 584 577
f 576 585 584
f 576 586 585
f 575 586 576
f 574 586 575
f 574 587 586
f 573 587 574
f 573 588 587
f 572 588 573
f 572 589 588
f 572 590 589
f 571 590 572
f 571 591 590
f 570 591 571
f 569 591 570
f 569 592 591
f 568 592 569
f 568 593 592
f 567 593 568
f 567 594 593
f 566 594 567
f 565 594 566
f 565 596 594
f 564 596 565
f 564 595 596
f 595 564 580
g Body10

v 7.000000 4.869679 0.912194
v 7.000000 3.838577 3.114053
v 7.000000 1.972690 4.570011
v 7.000000 0.097872 4.971033
v 7.000000 -1.385290 4.789613
v 7.000000 -2.721995 4.173266
v 7.000000 -3.957172 2.990632
v 7.000000 -4.917424 0.467700
v 7.000000 -4.636252 -1.761834
v 7.000000 -3.856162 -3.160606
v 7.000000 -2.239205 -4.417786
v 7.000000 -0.576769 -4.945169
v 7.000000 1.025676 -4.872750
v 7.000000 2.821768 -4.079232
v 7.000000 4.241512 -2.590194
v 7.000000 4.896935 -0.892488
v 6.000000 4.869679 -0.912194
v 6.000000 3.838577 -3.114053
v 6.000000 1.738014 -4.645234
v 6.000000 0.049193 -4.979286
v 6.000000 -1.385290 -4.789613
v 6.000000 -2.848684 -4.075169
v 6.000000 -3.935074 -3.066060
v 6.000000 -4.595764 -1.916940
v 6.000000 -4.965446 -0.257590
v 6.000000 -4.734708 1.535919
v 6.000000 -3.588375 3.399169
v 6.000000 -2.052286 4.536941
v 6.000000 -0.663063 4.941636
v 6.000000 0.915486 4.885998
v 6.000000 2.457211 4.330066
v 6.000000 4.896935 0.892488
v 6.000000 4.021919 2.870618
f 600 598 599
f 601 598 600
f 602 598 601
f 603 598 602
f 603 597 598
f 604 597 603
f 609 607 608
f 610 607 609
f 610 606 607
f 611 606 610
f 611 605 606
f 612 605 611
f 612 604 605
f 597 604 612
f 626 627 629
f 625 626 629
f 629 624 625
f 623 624 629
f 617 615 616
f 618 615 617
f 618 614 615
f 619 614 618
f 620 614 619
f 620 613 614
f 621 613 620
f 629 622 623
f 628 622 629
f 628 621 622
f 613 621 628
f 611 613 612
f 611 614 613
f 610 614 611
f 610 615 614
f 609 615 610
f 609 616 615
f 608 616 609
f 608 617 616
f 607 617 608
f 607 618 617
f 606 618 607
f 606 619 618
f 605 619 606
f 605 620 619
f 605 621 620
f 604 621 605
f 604 622 621
f 603 622 604
f 603 623 622
f 602 623 603
f 602 624 623
f 601 624 602
f 601 625 624
f 600 625 601
f 600 626 625
f 599 626 600
f 599 627 626
f 598 627 599
f 598 629 627
f 597 629 598
f 597 628 629
f 613 597 612
f 628 597 613
g Body11

v -7.000000 0.083622 -22.500484
v 6.000000 0.083622 -22.500484
v 6.983907 -12.557348 -24.729427
v 6.000000 -7.211742 -23.786854
v 6.856772 -12.922737 -24.793856
v 7.000000 -7.211742 -23.786854
v -7.879609 -12.842960 -21.682299
v 6.692926 -13.091007 -21.852358
v -7.998829 -12.355341 -20.882418
v 6.253165 -13.320591 -20.846180
v -7.791349 -12.994993 -22.874477
v -7.482618 -13.262465 -23.320883
v 6.018840 -13.366902 -21.888474
v 6.943661 -12.695965 -21.655910
v -7.368782 -13.278934 -20.723499
v -0.500000 -13.359026 -20.987053
v 6.000000 -6.884627 -19.094587
v 6.994192 -12.443446 -21.426868
v 6.974127 -12.517385 -18.101379
v 6.727245 -13.009340 -18.014635
v -7.085261 -13.315565 -17.960640
v -7.813265 -12.905910 -18.032871
v 6.478369 -13.195514 -17.981806
v -8.000000 -6.884627 -19.094587
v 6.000000 -0.061968 -20.297606
v -7.931519 -12.681758 -18.072395
v -8.000000 -7.211742 -23.786854
v -7.829355 -12.967129 -24.801682
v -7.068669 -13.402069 -24.878376
v 6.643169 -13.172232 -24.837849
v -7.586507 -13.211643 -24.844799
v 6.452075 -13.297817 -24.859993
v 6.042809 -13.401276 -24.878235
v -7.358636 -13.339933 -24.867418
v -7.963145 -12.654194 -24.746506
v -7.000000 -7.211742 -23.786854
v -7.000000 -0.061968 -20.297606
v -7.000000 -6.884627 -19.094587
v -7.994071 -12.377838 -18.125984
v -7.569471 -13.142322 -17.991186
v -7.334510 -13.259379 -17.970547
v 6.111437 -13.309401 -17.961727
v 6.864859 -12.825993 -18.046963
v 7.000000 -6.884627 -19.094587
v -7.948091 -12.670774 -20.698303
v -7.594590 -13.156069 -20.498032
v 7.000000 -11.400177 -20.527859
v 6.806772 -12.950049 -21.040707
v 6.595832 -13.183861 -22.779354
v -7.089488 -13.352958 -21.258266
v -7.695016 -13.076292 -21.145586
v -7.985425 -12.534389 -21.913475
v 6.451240 -13.257967 -21.745150
v 6.583547 -13.153578 -19.711386
v 6.888115 -12.819084 -20.938309
f 654 633 631
f 646 633 654
f 646 635 633
f 673 635 646
f 676 632 635
f 647 632 676
f 643 632 647
f 634 632 643
f 684 634 643
f 677 634 684
f 677 659 634
f 637 659 677
f 678 659 637
f 682 659 678
f 682 661 659
f 639 661 682
f 639 662 661
f 642 662 639
f 645 662 642
f 645 658 662
f 679 658 645
f 644 658 679
f 644 663 658
f 641 663 644
f 641 660 663
f 680 660 641
f 640 660 680
f 657 660 640
f 636 657 640
f 636 664 657
f 674 664 636
f 681 664 674
f 638 664 681
f 676 635 673
f 680 641 675
f 664 638 656
f 668 653 638
f 681 668 638
f 674 668 681
f 655 668 674
f 636 655 674
f 636 651 655
f 680 651 636
f 669 651 680
f 675 669 680
f 644 669 675
f 644 670 669
f 679 670 644
f 679 650 670
f 650 679 645
f 671 650 645
f 642 671 645
f 639 671 642
f 639 652 671
f 682 652 639
f 683 652 682
f 683 649 652
f 637 649 683
f 677 649 637
f 677 672 649
f 684 672 677
f 684 648 672
f 643 648 684
f 647 648 643
f 648 647 676
f 638 653 656
f 640 680 636
f 641 644 675
f 678 683 682
f 678 637 683
f 648 676 673
f 653 665 656
f 667 665 653
f 665 666 630
f 667 666 665
f 666 631 630
f 654 631 666
f 649 672 648
f 648 652 649
f 671 652 648
f 646 648 673
f 671 648 646
f 668 670 650
f 668 669 670
f 651 669 668
f 668 655 651
f 667 653 668
f 650 667 668
f 671 667 650
f 646 667 671
f 646 666 667
f 654 666 646
f 664 656 665
f 664 660 657
f 664 663 660
f 658 663 664
f 665 658 664
f 633 635 632
f 659 632 634
f 661 632 659
f 662 632 661
f 662 633 632
f 658 633 662
f 665 633 658
f 665 631 633
f 630 631 665
# 684 vertices
# 0 texture params
# 0 normals
# 1344 facets

# 6 groups
