# WaveFront *.obj file (generated by Autodesk ATF)

mtllib torso_lower_collision.mtl

g Torso_Lower

v -13.000000 9.456857 0.000000
v -12.917801 9.500000 0.000000
v -3.979087 12.000000 -9.020913
v 13.000000 9.542920 -0.000000
v 2.929132 12.000000 0.000000
v -10.350443 -11.358078 0.000000
v 7.343146 -12.000000 0.000000
v 13.000000 -8.000000 -0.000000
v 1.686300 12.000000 -11.313700
v 0.536119 -10.393212 -11.313700
v -0.000000 -12.000000 -7.343146
v -5.749190 -11.233829 -4.906041
v -6.436318 -9.761030 -5.973070
v 6.754887 -10.146479 -5.341885
v 4.123981 12.000000 -8.876019
v 9.864949 10.970287 -3.135050
v 4.319316 -11.885700 -4.235970
v 5.788929 -11.260813 -4.755828
v 6.670268 -8.724519 -6.207019
v -6.477171 -8.792984 -6.393824
v -6.640887 -10.555014 -5.037933
v -4.666544 -11.696766 -4.773148
v -4.760572 -11.974953 -3.157619
v -0.675152 -10.251101 -11.313700
v -0.000000 -10.849096 -11.313700
v 1.686300 -8.000000 -11.313700
v -1.686300 -8.000000 -11.313700
v -1.686300 12.000000 -11.313700
v 11.938905 -10.288692 -0.000000
v 10.142307 -11.418715 -0.000000
v -7.343146 -12.000000 0.000000
v -11.938905 -10.288692 0.000000
v -13.000000 -8.000000 0.000000
v 7.237661 11.555006 -0.000000
v 10.728827 10.523310 -0.000000
v -9.786362 10.944899 -3.213639
v -2.764733 12.000000 0.000000
v -8.729605 11.153992 0.000000
v -12.927553 9.500000 -0.072447
usemtl Paint_-_Metal_Flake_(Black)
f 16 35 4
f 16 34 35
f 15 34 16
f 15 5 34
f 28 3 37
f 37 9 28
f 37 15 9
f 5 15 37
f 8 16 4
f 26 16 8
f 26 15 16
f 9 15 26
f 19 26 8
f 17 30 7
f 18 30 17
f 18 29 30
f 14 29 18
f 14 8 29
f 19 8 14
f 11 17 7
f 11 18 17
f 25 18 11
f 10 18 25
f 10 14 18
f 26 14 10
f 26 19 14
f 7 31 11
f 20 33 27
f 31 22 23
f 6 22 31
f 6 12 22
f 6 21 12
f 32 21 6
f 32 13 21
f 33 13 32
f 33 20 13
f 27 13 20
f 24 13 27
f 24 21 13
f 25 21 24
f 25 12 21
f 25 22 12
f 11 22 25
f 11 23 22
f 31 23 11
f 10 24 9
f 25 24 10
f 26 10 9
f 9 24 28
f 28 24 27
f 27 3 28
f 27 36 3
f 33 36 27
f 39 36 33
f 1 39 33
f 8 30 29
f 7 30 8
f 33 2 1
f 33 38 2
f 33 37 38
f 6 33 32
f 31 33 6
f 31 37 33
f 7 37 31
f 5 37 7
f 8 5 7
f 8 34 5
f 8 35 34
f 4 35 8
f 36 37 3
f 36 38 37
f 36 2 38
f 39 2 36
f 1 2 39
g Body2

v -14.723921 9.500000 -25.402786
v -6.456836 11.874380 -11.719782
v -14.523701 9.734131 -25.541647
v -9.522096 11.370236 -11.862459
v -12.406820 10.470654 -12.584749
v 9.673279 11.606258 -19.958807
v -15.960076 9.500000 -22.599764
v -15.245291 10.008500 -24.974752
v 0.082200 11.575764 -19.952360
v -9.067019 11.679272 -19.572443
v -12.986895 10.806990 -23.000000
v -12.986895 10.222818 -24.455774
v -12.986895 9.500000 -26.000000
v 13.151294 9.500000 -26.000000
v 13.151294 10.168313 -24.580883
v -4.910192 12.000000 -15.937695
v -12.917801 9.500000 0.000000
v -8.325697 11.255260 0.000000
v -2.764733 12.000000 0.000000
v 6.519975 11.889772 -11.733413
v 13.137960 10.185724 -11.397839
v 10.226684 11.255260 -12.900360
v 15.409690 10.008500 -24.974752
v 16.124475 9.500000 -22.599764
v 13.082199 9.500000 0.000000
v 8.558325 11.242098 -0.000000
v 2.929132 12.000000 0.000000
v 5.074591 12.000000 -15.937695
v 13.151294 10.806990 -23.000000
v -15.687897 9.500000 -24.252678
v 14.356178 9.643126 -25.723457
v 15.570779 9.500000 -24.648994
f 40 46 69
f 52 46 40
f 53 46 52
f 63 46 53
f 63 56 46
f 64 56 63
f 71 63 53
f 70 71 53
f 62 71 70
f 71 62 63
f 54 70 53
f 54 62 70
f 54 68 62
f 42 51 52
f 47 51 42
f 50 51 47
f 40 42 52
f 40 47 42
f 69 47 40
f 69 46 47
f 58 55 41
f 41 57 58
f 43 57 41
f 44 57 43
f 44 56 57
f 49 41 55
f 49 43 41
f 50 43 49
f 50 44 43
f 47 44 50
f 46 44 47
f 56 44 46
f 67 48 55
f 45 48 67
f 68 48 45
f 68 51 48
f 54 51 68
f 52 54 53
f 51 54 52
f 50 48 51
f 49 48 50
f 55 48 49
f 58 67 55
f 66 67 58
f 57 66 58
f 57 65 66
f 56 65 57
f 56 64 65
f 60 64 63
f 65 64 60
f 61 65 60
f 66 65 61
f 59 66 61
f 66 59 67
f 59 45 67
f 61 45 59
f 61 68 45
f 62 60 63
f 68 60 62
f 68 61 60
# 71 vertices
# 0 texture params
# 0 normals
# 134 facets

# 2 groups
