# WaveFront *.obj file (generated by Autodesk ATF)

mtllib torso_mid_collision.mtl

g Torso_Mid

v -13.000000 12.000000 -0.000000
v -13.000000 12.000000 10.000000
v -13.000000 -10.226017 1.121342
v -13.000000 -8.000000 0.000000
v -13.000000 -12.000000 10.000000
v 13.000000 12.000000 10.000000
v 13.000000 -12.000000 10.000000
v 13.000000 -12.000000 5.656854
v 13.000000 -8.000000 -0.000000
v 11.846289 -10.392111 -0.000000
v 7.343146 -12.000000 0.000000
v -7.343146 -12.000000 0.000000
v -11.139136 -11.689137 1.860864
v 11.037605 -11.733879 1.962394
v -13.000000 -12.000000 5.656854
v 13.000000 12.000000 -0.000000
v 13.000000 -10.569221 1.379845
v 10.092175 -11.428524 -0.000000
v -10.981457 -10.952047 0.000000
v 11.915917 -11.148734 1.084083
usemtl Rubber_-_Soft
f 7 2 5
f 6 2 7
f 17 8 20
f 9 17 10
f 11 18 14
f 17 18 10
f 20 18 17
f 8 18 20
f 8 14 18
f 11 14 8
f 13 19 12
f 15 13 12
f 15 19 13
f 3 19 15
f 3 4 19
f 7 5 15
f 15 8 7
f 15 11 8
f 12 11 15
f 4 12 19
f 18 9 10
f 11 9 18
f 11 16 9
f 12 16 11
f 4 16 12
f 1 16 4
f 9 8 17
f 16 8 9
f 7 8 6
f 6 8 16
f 16 2 6
f 1 2 16
f 2 15 5
f 4 3 15
f 4 15 1
f 1 15 2
# 20 vertices
# 0 texture params
# 0 normals
# 36 facets

# 1 groups
