# WaveFront *.obj file (generated by Autodesk ATF)

mtllib torso_upper_collision.mtl

g Torso_Upper

v 3.082200 9.012842 22.608968
v -2.917801 -9.012843 22.608968
v 3.082200 -9.012843 22.608968
v -2.917801 9.012842 22.608968
v 3.082200 -3.985445 25.957563
v 3.082200 -0.705928 26.630766
v 3.082200 2.853607 26.310293
v 3.082200 5.791570 25.160940
v -2.917801 6.400036 24.777136
v -2.917801 2.484756 26.342794
v -2.917801 -1.997034 26.489187
v -2.917801 -4.618452 25.716787
v 13.000000 12.000000 -0.000002
v 13.000000 -12.000000 -0.000002
v -13.000000 -12.000000 -0.000002
v -13.000000 12.000000 -0.000002
v -13.000000 -12.000000 2.686300
v -13.000000 12.000000 2.686300
v 13.000000 -12.000000 2.686300
v 11.000000 -12.000000 14.686300
v -11.000000 -12.000000 14.686300
v 13.000000 12.000000 2.686300
v 9.156817 -4.365890 25.745397
v -10.254063 -11.100710 19.161916
v -11.000000 12.000000 14.686300
v 11.000000 12.000000 14.686300
v -9.623644 -8.594087 22.944433
v -9.107964 -3.488299 26.038519
v -9.008230 -1.020196 26.636923
v -9.000359 0.000000 26.684149
v -9.011805 1.246229 26.615469
v -9.161448 4.292583 25.717611
v -9.621859 8.627769 22.955137
v -10.305359 11.168344 18.854162
v 9.713160 -9.029284 22.407339
v 9.017739 0.228283 26.579862
v 9.220017 5.403397 25.366201
v 9.551676 8.210058 23.376241
v 10.135921 10.748617 19.870779
v 0.916667 9.751472 21.637754
v -0.916667 -11.617976 17.302808
v 0.458333 -10.167491 20.964178
v 0.458333 11.119152 19.075582
v 0.000000 11.913755 15.975012
usemtl Paint_-_Metal_Flake_(Black)
f 19 35 20
f 23 37 36
f 23 38 37
f 35 38 23
f 35 39 38
f 26 39 35
f 26 19 22
f 26 35 19
f 28 27 2
f 30 29 11
f 31 30 10
f 40 34 33
f 43 34 40
f 44 34 43
f 44 25 34
f 43 26 44
f 39 26 43
f 40 39 43
f 38 39 40
f 3 42 35
f 2 42 3
f 3 35 23
f 3 23 5
f 6 23 36
f 6 5 23
f 6 36 7
f 7 36 37
f 7 37 8
f 8 37 38
f 1 8 38
f 1 38 40
f 25 44 26
f 24 42 27
f 24 41 42
f 21 41 24
f 20 41 21
f 20 42 41
f 35 42 20
f 2 27 42
f 2 12 28
f 11 28 12
f 11 29 28
f 10 30 11
f 10 32 31
f 9 32 10
f 9 33 32
f 4 33 9
f 4 40 33
f 1 40 4
f 25 18 17
f 30 28 29
f 31 28 30
f 32 28 31
f 32 27 28
f 33 27 32
f 34 27 33
f 25 27 34
f 17 27 25
f 17 24 27
f 21 24 17
f 26 18 25
f 22 18 26
f 13 18 22
f 16 18 13
f 19 13 22
f 14 13 19
f 20 21 17
f 17 19 20
f 17 14 19
f 15 14 17
f 18 15 17
f 16 15 18
f 13 15 16
f 14 15 13
f 12 10 11
f 12 9 10
f 2 9 12
f 2 4 9
f 7 5 6
f 8 5 7
f 8 3 5
f 1 3 8
f 4 3 1
f 2 3 4
# 44 vertices
# 0 texture params
# 0 normals
# 84 facets

# 1 groups
