# WaveFront *.obj file (generated by Autodesk ATF)

mtllib wrist_ball_dexter_collision.mtl

g Body2

v 0.000000 5.930114 0.728846
v -0.000000 -1.323846 5.833110
v -0.000000 -2.866721 5.247736
v -0.000000 -5.576068 2.143141
v -0.000000 -5.868023 -1.134696
v -0.000000 -3.534761 -4.795735
v -0.000000 -0.051453 -5.961171
v 0.000000 2.168335 -5.569520
v 0.000000 3.531635 -4.834733
v 0.000000 2.791202 5.296818
v -5.000000 0.759165 2.858661
v -5.000000 2.786763 1.076257
v -5.000000 2.070083 -2.096171
v -5.000000 -2.014686 -2.164827
v -5.000000 -2.928273 0.473441
v -5.000000 -0.643390 2.911393
v -2.500000 -3.064319 -3.282367
v -2.500000 -0.394551 4.471872
v -2.500000 -1.457117 4.247446
v -2.500000 -3.601267 2.678441
v -2.500000 -0.547135 -4.451276
v -2.500000 2.617565 -3.648608
v -2.500000 4.396999 0.820549
v -2.500000 1.084533 4.343512
v -0.000000 -5.160601 -2.994059
v -0.000000 -4.419480 4.003934
v 0.000000 4.377720 4.051333
v -5.000000 2.920173 -0.399584
v -5.000000 -1.621931 2.508728
v -2.500000 -4.013431 -1.962564
v -2.500000 -4.461443 -0.316144
v -2.500000 4.323772 -1.069726
v 0.000000 5.774820 -1.454795
v 0.000000 5.415717 2.549142
v 0.000000 0.700526 5.913240
v -0.000000 -5.958093 0.590099
v -0.000000 -1.894046 -5.679760
v -2.500000 2.598688 3.622295
v -2.500000 3.502343 -2.784645
v -2.500000 0.481254 -4.467900
v -2.500000 -4.249702 1.397320
v -2.500000 -2.568986 3.663664
v -2.500000 1.446084 -4.245239
v -2.500000 3.839931 2.316926
v -2.500000 -2.052844 -3.977720
v -5.000000 -2.424043 1.728104
v -5.000000 -2.799215 -1.013273
v -5.000000 -0.643390 -2.911393
v -5.000000 0.605362 -2.906403
v -5.000000 2.203004 1.999185
v 0.000000 4.699014 -3.686767
usemtl Paint_-_Metal_Flake_(Black)
f 2 35 18
f 38 11 24
f 50 11 38
f 44 50 38
f 12 50 44
f 23 12 44
f 23 28 12
f 32 28 23
f 13 28 32
f 39 13 32
f 22 13 39
f 43 13 22
f 49 13 43
f 40 49 43
f 21 49 40
f 48 49 21
f 45 48 21
f 45 14 48
f 17 14 45
f 30 14 17
f 47 14 30
f 31 47 30
f 15 47 31
f 41 15 31
f 46 15 41
f 20 46 41
f 42 46 20
f 29 46 42
f 19 29 42
f 19 16 29
f 10 24 35
f 10 38 24
f 27 38 10
f 27 44 38
f 34 44 27
f 34 23 44
f 1 23 34
f 1 32 23
f 33 32 1
f 33 39 32
f 51 39 33
f 9 39 51
f 9 22 39
f 8 22 9
f 8 43 22
f 7 43 8
f 7 40 43
f 7 21 40
f 37 21 7
f 37 45 21
f 6 45 37
f 6 17 45
f 25 17 6
f 25 30 17
f 5 30 25
f 5 31 30
f 36 31 5
f 36 41 31
f 4 41 36
f 4 20 41
f 26 20 4
f 26 42 20
f 3 42 26
f 3 19 42
f 2 19 3
f 18 19 2
f 18 16 19
f 24 18 35
f 11 18 24
f 16 18 11
f 13 12 28
f 13 50 12
f 13 11 50
f 49 11 13
f 46 47 15
f 46 14 47
f 29 14 46
f 29 48 14
f 16 48 29
f 16 49 48
f 11 49 16
f 27 1 34
f 27 33 1
f 51 33 27
f 27 9 51
f 5 4 36
f 25 4 5
f 25 26 4
f 6 26 25
f 6 3 26
f 37 3 6
f 37 2 3
f 7 2 37
f 7 35 2
f 10 9 27
f 10 8 9
f 35 8 10
f 35 7 8
# 51 vertices
# 0 texture params
# 0 normals
# 98 facets

# 1 groups
