# WaveFront *.obj file (generated by Autodesk ATF)

mtllib wrist_rot_link_sinister_collision.mtl

g Body1

v 3.000000 3.051663 5.134251
v 3.000000 5.118574 3.101023
v 3.000000 5.985465 0.278185
v 3.000000 5.244573 -2.867851
v 3.000000 1.932076 -5.652644
v 3.000000 -1.599146 -5.772318
v 3.000000 -4.235526 -4.235541
v 3.000000 -5.759933 -1.608649
v 3.000000 -5.893125 1.017673
v 3.000000 -3.792568 4.592477
v 3.000000 0.012665 5.974567
v 5.500000 -4.216748 4.181034
v 5.500000 -5.972665 0.239564
v 5.500000 -4.271022 -4.145889
v 5.500000 0.478123 -5.947966
v 5.500000 4.216748 -4.181034
v 5.500000 5.972665 -0.239564
v 5.500000 4.271022 4.145889
v 5.500000 -0.478123 5.947966
v 0.500000 3.626342 4.767508
v 0.500000 5.655745 1.946431
v 0.500000 5.702602 -1.815619
v 0.500000 3.301922 -4.987320
v 0.500000 -0.566737 -5.948607
v 0.500000 -4.694001 -3.697583
v 0.500000 -5.964549 0.075865
v 0.500000 -4.732192 3.631522
v 0.500000 -3.301922 4.987320
v 0.500000 0.566737 5.948607
v 0.500000 -1.614281 5.731803
v 0.500000 -5.702602 1.815619
v 0.500000 -5.655745 -1.946431
v 0.500000 -2.951592 -5.148739
v 0.500000 1.614281 -5.731803
v 0.500000 4.732192 -3.631522
v 0.500000 5.964549 -0.075865
v 0.500000 4.694001 3.697583
v 0.500000 2.276842 5.529971
v 5.500000 1.803874 5.666962
v 5.500000 5.645872 1.849768
v 5.500000 5.518758 -2.286201
v 5.500000 2.276842 -5.529971
v 5.500000 -1.803874 -5.666962
v 5.500000 -5.645872 -1.849768
v 5.500000 -5.518758 2.286201
v 5.500000 -2.276842 5.529971
v 3.000000 -1.932076 5.652644
v 3.000000 -5.244573 2.867851
v 3.000000 -5.985465 -0.278185
v 3.000000 -5.118574 -3.101023
v 3.000000 -3.051663 -5.134251
v 3.000000 -0.012665 -5.974567
v 3.000000 3.792568 -4.592477
v 3.000000 5.893125 -1.017673
v 3.000000 5.759933 1.608649
v 3.000000 4.235526 4.235541
v 3.000000 1.599146 5.772318
usemtl Paint_-_Metal_Flake_(Aqua)
f 22 21 36
f 35 21 22
f 35 37 21
f 35 20 37
f 23 20 35
f 23 38 20
f 34 38 23
f 34 29 38
f 24 29 34
f 31 32 26
f 27 32 31
f 27 25 32
f 27 33 25
f 28 33 27
f 30 33 28
f 30 24 33
f 29 24 30
f 44 45 13
f 44 12 45
f 14 12 44
f 14 46 12
f 43 46 14
f 43 19 46
f 15 19 43
f 40 41 17
f 40 16 41
f 18 16 40
f 18 42 16
f 39 42 18
f 39 15 42
f 19 15 39
f 39 11 19
f 39 57 11
f 39 1 57
f 18 1 39
f 18 56 1
f 18 2 56
f 40 2 18
f 40 55 2
f 40 3 55
f 17 3 40
f 17 54 3
f 41 54 17
f 41 4 54
f 16 4 41
f 16 53 4
f 42 53 16
f 42 5 53
f 15 5 42
f 15 52 5
f 43 52 15
f 43 6 52
f 43 51 6
f 14 51 43
f 14 7 51
f 14 50 7
f 44 50 14
f 44 8 50
f 44 49 8
f 13 49 44
f 13 9 49
f 45 9 13
f 45 48 9
f 12 48 45
f 12 10 48
f 46 10 12
f 46 47 10
f 19 47 46
f 19 11 47
f 30 11 29
f 30 47 11
f 28 47 30
f 28 10 47
f 27 10 28
f 27 48 10
f 31 48 27
f 31 9 48
f 26 9 31
f 26 49 9
f 26 8 49
f 32 8 26
f 32 50 8
f 25 50 32
f 25 7 50
f 33 7 25
f 33 51 7
f 33 6 51
f 24 6 33
f 24 52 6
f 34 52 24
f 34 5 52
f 23 5 34
f 23 53 5
f 35 53 23
f 35 4 53
f 22 4 35
f 22 54 4
f 36 54 22
f 36 3 54
f 36 55 3
f 21 55 36
f 21 2 55
f 37 2 21
f 37 56 2
f 20 56 37
f 20 1 56
f 38 1 20
f 38 57 1
f 29 57 38
f 29 11 57
g Body2

v 0.000000 1.886948 5.676642
v 0.000000 4.694001 3.697583
v -0.000000 5.953451 0.126058
v -0.000000 4.552376 -3.857936
v -0.000000 1.421586 -5.793159
v -0.000000 -3.343410 -4.958447
v 0.000000 -5.588291 -2.137175
v 0.000000 -5.610509 2.050754
v 0.000000 -3.253827 5.028871
v 0.500000 1.614281 5.731803
v 0.500000 4.732192 3.631522
v 0.500000 5.964549 0.075865
v 0.500000 4.694001 -3.697583
v 0.500000 2.276842 -5.529971
v 0.500000 -1.614281 -5.731803
v 0.500000 -4.732192 -3.631522
v 0.500000 -5.964549 -0.075865
v 0.500000 -4.694001 3.697583
v 0.500000 -3.626342 4.767508
v 0.500000 -0.566737 5.948607
v 0.500000 -2.276842 5.529971
v 0.500000 -5.655745 1.946431
v 0.500000 -5.702602 -1.815619
v 0.500000 -3.301922 -4.987320
v 0.500000 0.566737 -5.948607
v 0.500000 3.626342 -4.767508
v 0.500000 5.655745 -1.946431
v 0.500000 5.702602 1.815619
v 0.500000 3.301922 4.987320
v 0.000000 -1.421586 5.793159
v 0.000000 -4.552376 3.857936
v 0.000000 -5.953451 -0.126058
v -0.000000 -4.694001 -3.697583
v -0.000000 -1.158221 -5.824435
v -0.000000 3.253827 -5.028871
v -0.000000 5.610509 -2.050754
v -0.000000 5.588291 2.137175
v 0.000000 3.343410 4.958447
v 0.000000 0.429494 5.972228
usemtl Paint_-_Metal_Flake_(Gold)
f 93 94 60
f 93 59 94
f 61 59 93
f 61 95 59
f 92 95 61
f 92 58 95
f 62 58 92
f 62 96 58
f 91 96 62
f 65 64 89
f 65 90 64
f 88 90 65
f 88 63 90
f 66 63 88
f 66 91 63
f 87 91 66
f 96 91 87
f 67 96 77
f 67 58 96
f 67 95 58
f 86 95 67
f 68 95 86
f 68 59 95
f 68 94 59
f 85 94 68
f 85 60 94
f 69 60 85
f 69 93 60
f 84 93 69
f 70 93 84
f 70 61 93
f 83 61 70
f 83 92 61
f 71 92 83
f 71 62 92
f 82 62 71
f 82 91 62
f 72 91 82
f 72 63 91
f 81 63 72
f 73 63 81
f 73 90 63
f 73 64 90
f 80 64 73
f 80 89 64
f 74 89 80
f 74 65 89
f 79 65 74
f 75 65 79
f 75 88 65
f 76 88 75
f 76 66 88
f 78 66 76
f 78 87 66
f 77 87 78
f 77 96 87
f 80 79 74
f 73 79 80
f 73 75 79
f 73 76 75
f 81 76 73
f 81 78 76
f 72 78 81
f 72 77 78
f 82 77 72
f 85 84 69
f 68 84 85
f 68 70 84
f 68 83 70
f 86 83 68
f 86 71 83
f 67 71 86
f 67 82 71
f 77 82 67
# 96 vertices
# 0 texture params
# 0 normals
# 184 facets

# 2 groups
