# WaveFront *.obj file (generated by Autodesk ATF)

mtllib ankle_link_dexter.mtl

g Body1

v -0.000000 -0.065000 0.040000
v 0.004644 -0.065000 0.039730
v 0.009225 -0.065000 0.038922
v 0.013681 -0.065000 0.037588
v 0.017952 -0.065000 0.035745
v 0.021980 -0.065000 0.033420
v 0.025712 -0.065000 0.030642
v 0.029095 -0.065000 0.027450
v 0.032085 -0.065000 0.023886
v 0.034641 -0.065000 0.020000
v 0.036729 -0.065000 0.015843
v 0.038320 -0.065000 0.011472
v 0.039392 -0.065000 0.006946
v 0.039932 -0.065000 0.002326
v 0.039932 -0.065000 -0.002326
v 0.039392 -0.065000 -0.006946
v 0.038320 -0.065000 -0.011472
v 0.036729 -0.065000 -0.015843
v 0.034641 -0.065000 -0.020000
v 0.032085 -0.065000 -0.023886
v 0.029095 -0.065000 -0.027450
v 0.025712 -0.065000 -0.030642
v 0.021980 -0.065000 -0.033420
v 0.017952 -0.065000 -0.035745
v 0.013681 -0.065000 -0.037588
v 0.009225 -0.065000 -0.038922
v 0.004644 -0.065000 -0.039730
v 0.000000 -0.065000 -0.040000
v -0.004644 -0.065000 -0.039730
v -0.009225 -0.065000 -0.038922
v -0.013681 -0.065000 -0.037588
v -0.017952 -0.065000 -0.035745
v -0.021980 -0.065000 -0.033420
v -0.025712 -0.065000 -0.030642
v -0.029095 -0.065000 -0.027450
v -0.032085 -0.065000 -0.023886
v -0.034641 -0.065000 -0.020000
v -0.036729 -0.065000 -0.015843
v -0.038320 -0.065000 -0.011472
v -0.039392 -0.065000 -0.006946
v -0.039932 -0.065000 -0.002326
v -0.039932 -0.065000 0.002326
v -0.039392 -0.065000 0.006946
v -0.038320 -0.065000 0.011472
v -0.036729 -0.065000 0.015843
v -0.034641 -0.065000 0.020000
v -0.032085 -0.065000 0.023886
v -0.029095 -0.065000 0.027450
v -0.025712 -0.065000 0.030642
v -0.021980 -0.065000 0.033420
v -0.017952 -0.065000 0.035745
v -0.013681 -0.065000 0.037588
v -0.009225 -0.065000 0.038922
v -0.004644 -0.065000 0.039730
v -0.000000 0.065000 0.040000
v -0.004644 0.065000 0.039730
v -0.009225 0.065000 0.038922
v -0.013681 0.065000 0.037588
v -0.017952 0.065000 0.035745
v -0.021980 0.065000 0.033420
v -0.025712 0.065000 0.030642
v -0.029095 0.065000 0.027450
v -0.032085 0.065000 0.023886
v -0.034641 0.065000 0.020000
v -0.036729 0.065000 0.015843
v -0.038320 0.065000 0.011472
v -0.039392 0.065000 0.006946
v -0.039932 0.065000 0.002326
v -0.039932 0.065000 -0.002326
v -0.039392 0.065000 -0.006946
v -0.038320 0.065000 -0.011472
v -0.036729 0.065000 -0.015843
v -0.034641 0.065000 -0.020000
v -0.032085 0.065000 -0.023886
v -0.029095 0.065000 -0.027450
v -0.025712 0.065000 -0.030642
v -0.021980 0.065000 -0.033420
v -0.017952 0.065000 -0.035745
v -0.013681 0.065000 -0.037588
v -0.009225 0.065000 -0.038922
v -0.004644 0.065000 -0.039730
v 0.000000 0.065000 -0.040000
v 0.004644 0.065000 -0.039730
v 0.009225 0.065000 -0.038922
v 0.013681 0.065000 -0.037588
v 0.017952 0.065000 -0.035745
v 0.021980 0.065000 -0.033420
v 0.025712 0.065000 -0.030642
v 0.029095 0.065000 -0.027450
v 0.032085 0.065000 -0.023886
v 0.034641 0.065000 -0.020000
v 0.036729 0.065000 -0.015843
v 0.038320 0.065000 -0.011472
v 0.039392 0.065000 -0.006946
v 0.039932 0.065000 -0.002326
v 0.039932 0.065000 0.002326
v 0.039392 0.065000 0.006946
v 0.038320 0.065000 0.011472
v 0.036729 0.065000 0.015843
v 0.034641 0.065000 0.020000
v 0.032085 0.065000 0.023886
v 0.029095 0.065000 0.027450
v 0.025712 0.065000 0.030642
v 0.021980 0.065000 0.033420
v 0.017952 0.065000 0.035745
v 0.013681 0.065000 0.037588
v 0.009225 0.065000 0.038922
v 0.004644 0.065000 0.039730
v 0.000000 -0.000000 -0.040000
v 0.004644 -0.000000 0.039730
v -0.000000 -0.000000 0.040000
v 0.009225 -0.000000 0.038922
v 0.013681 -0.000000 0.037588
v 0.017952 -0.000000 0.035745
v 0.021980 -0.000000 0.033420
v 0.025712 -0.000000 0.030642
v 0.029095 -0.000000 0.027450
v 0.032085 -0.000000 0.023886
v 0.034641 -0.000000 0.020000
v 0.036729 -0.000000 0.015843
v 0.038320 -0.000000 0.011472
v 0.039392 -0.000000 0.006946
v 0.039932 -0.000000 0.002326
v 0.039932 -0.000000 -0.002326
v 0.039392 -0.000000 -0.006946
v 0.038320 -0.000000 -0.011472
v 0.036729 -0.000000 -0.015843
v 0.034641 -0.000000 -0.020000
v 0.032085 -0.000000 -0.023886
v 0.029095 -0.000000 -0.027450
v 0.025712 -0.000000 -0.030642
v 0.021980 -0.000000 -0.033420
v 0.017952 -0.000000 -0.035745
v 0.013681 -0.000000 -0.037588
v 0.009225 -0.000000 -0.038922
v 0.004644 -0.000000 -0.039730
v -0.004644 -0.000000 -0.039730
v -0.009225 -0.000000 -0.038922
v -0.013681 -0.000000 -0.037588
v -0.017952 -0.000000 -0.035745
v -0.021980 -0.000000 -0.033420
v -0.025712 -0.000000 -0.030642
v -0.029095 -0.000000 -0.027450
v -0.032085 -0.000000 -0.023886
v -0.034641 -0.000000 -0.020000
v -0.036729 -0.000000 -0.015843
v -0.038320 -0.000000 -0.011472
v -0.039392 -0.000000 -0.006946
v -0.039932 -0.000000 -0.002326
v -0.039932 -0.000000 0.002326
v -0.039392 -0.000000 0.006946
v -0.038320 -0.000000 0.011472
v -0.036729 -0.000000 0.015843
v -0.034641 -0.000000 0.020000
v -0.032085 -0.000000 0.023886
v -0.029095 -0.000000 0.027450
v -0.025712 -0.000000 0.030642
v -0.021980 -0.000000 0.033420
v -0.017952 -0.000000 0.035745
v -0.013681 -0.000000 0.037588
v -0.009225 -0.000000 0.038922
v -0.004644 -0.000000 0.039730
vt 6.500000 0.465421 0.000000
vt 0.000000 0.465421 0.000000
vt 6.500000 0.000000 0.000000
vt 0.000000 -0.000000 0.000000
vt 6.500000 -0.465421 0.000000
vt 0.000000 -0.465421 0.000000
vt 6.500000 -0.930842 0.000000
vt 0.000000 -0.930842 0.000000
vt 6.500000 -1.396263 0.000000
vt 0.000000 -1.396263 0.000000
vt 6.500000 -1.861685 0.000000
vt 0.000000 -1.861685 0.000000
vt 6.500000 -2.327106 0.000000
vt 0.000000 -2.327106 0.000000
vt 6.500000 -2.792527 0.000000
vt 0.000000 -2.792527 0.000000
vt 6.500000 -3.257948 0.000000
vt 0.000000 -3.257948 0.000000
vt 6.500000 -3.723369 0.000000
vt 0.000000 -3.723369 0.000000
vt 6.500000 -4.188790 0.000000
vt 0.000000 -4.188790 0.000000
vt 6.500000 -4.654211 0.000000
vt 0.000000 -4.654211 0.000000
vt 6.500000 -5.119632 0.000000
vt 0.000000 -5.119632 0.000000
vt 6.500000 -5.585054 0.000000
vt 0.000000 -5.585054 0.000000
vt 6.500000 -6.050475 0.000000
vt 0.000000 -6.050475 0.000000
vt 6.500000 -6.515896 0.000000
vt 0.000000 -6.515896 0.000000
vt 6.500000 -6.981317 0.000000
vt 0.000000 -6.981317 0.000000
vt 6.500000 -7.446738 0.000000
vt 0.000000 -7.446738 0.000000
vt 6.500000 -7.912159 0.000000
vt 0.000000 -7.912159 0.000000
vt 6.500000 -8.377580 0.000000
vt 0.000000 -8.377580 0.000000
vt 6.500000 -8.843002 0.000000
vt 0.000000 -8.843002 0.000000
vt 6.500000 -9.308423 0.000000
vt 0.000000 -9.308423 0.000000
vt 6.500000 -9.773844 0.000000
vt 0.000000 -9.773844 0.000000
vt 6.500000 -10.239265 0.000000
vt 0.000000 -10.239265 0.000000
vt 6.500000 -10.704686 0.000000
vt 0.000000 -10.704686 0.000000
vt 6.500000 -11.170107 0.000000
vt 0.000000 -11.170107 0.000000
vt 6.500000 -11.635528 0.000000
vt 0.000000 -11.635528 0.000000
vt 6.500000 -12.100949 0.000000
vt 0.000000 -12.100949 0.000000
vt 6.500000 -12.566371 0.000000
vt 0.000000 -12.566371 0.000000
vt 6.500000 12.566371 0.000000
vt 0.000000 12.566371 0.000000
vt 6.500000 12.100949 0.000000
vt 0.000000 12.100949 0.000000
vt 6.500000 11.635528 0.000000
vt 0.000000 11.635528 0.000000
vt 6.500000 11.170107 0.000000
vt 0.000000 11.170107 0.000000
vt 6.500000 10.704686 0.000000
vt 0.000000 10.704686 0.000000
vt 6.500000 10.239265 0.000000
vt 0.000000 10.239265 0.000000
vt 6.500000 9.773844 0.000000
vt 0.000000 9.773844 0.000000
vt 6.500000 9.308423 0.000000
vt 0.000000 9.308423 0.000000
vt 6.500000 8.843002 0.000000
vt 0.000000 8.843002 0.000000
vt 6.500000 8.377580 0.000000
vt 0.000000 8.377580 0.000000
vt 6.500000 7.912159 0.000000
vt 0.000000 7.912159 0.000000
vt 6.500000 7.446738 0.000000
vt 0.000000 7.446738 0.000000
vt 6.500000 6.981317 0.000000
vt 0.000000 6.981317 0.000000
vt 6.500000 6.515896 0.000000
vt 0.000000 6.515896 0.000000
vt 6.500000 6.050475 0.000000
vt 0.000000 6.050475 0.000000
vt 6.500000 5.585054 0.000000
vt 0.000000 5.585054 0.000000
vt 6.500000 5.119632 0.000000
vt 0.000000 5.119632 0.000000
vt 6.500000 4.654211 0.000000
vt 0.000000 4.654211 0.000000
vt 6.500000 4.188790 0.000000
vt 0.000000 4.188790 0.000000
vt 6.500000 3.723369 0.000000
vt 0.000000 3.723369 0.000000
vt 6.500000 3.257948 0.000000
vt 0.000000 3.257948 0.000000
vt 6.500000 2.792527 0.000000
vt 0.000000 2.792527 0.000000
vt 6.500000 2.327106 0.000000
vt 0.000000 2.327106 0.000000
vt 6.500000 1.861685 0.000000
vt 0.000000 1.861685 0.000000
vt 6.500000 1.396263 0.000000
vt 0.000000 1.396263 0.000000
vt 6.500000 0.930842 0.000000
vt 0.000000 0.930842 0.000000
vt -6.500000 -0.465421 0.000000
vt -6.500000 -0.000000 0.000000
vt -6.500000 0.465421 0.000000
vt -6.500000 0.930842 0.000000
vt -6.500000 1.396263 0.000000
vt -6.500000 1.861685 0.000000
vt -6.500000 2.327106 0.000000
vt -6.500000 2.792527 0.000000
vt -6.500000 3.257948 0.000000
vt -6.500000 3.723369 0.000000
vt -6.500000 4.188790 0.000000
vt -6.500000 4.654211 0.000000
vt -6.500000 5.119632 0.000000
vt -6.500000 5.585054 0.000000
vt -6.500000 6.050475 0.000000
vt -6.500000 6.515896 0.000000
vt -6.500000 6.981317 0.000000
vt -6.500000 7.446738 0.000000
vt -6.500000 7.912159 0.000000
vt -6.500000 8.377580 0.000000
vt -6.500000 8.843002 0.000000
vt -6.500000 9.308423 0.000000
vt -6.500000 9.773844 0.000000
vt -6.500000 10.239265 0.000000
vt -6.500000 10.704686 0.000000
vt -6.500000 11.170107 0.000000
vt -6.500000 11.635528 0.000000
vt -6.500000 12.100949 0.000000
vt -6.500000 12.566371 0.000000
vt -6.500000 -12.566371 0.000000
vt -6.500000 -12.100949 0.000000
vt -6.500000 -11.635528 0.000000
vt -6.500000 -11.170107 0.000000
vt -6.500000 -10.704686 0.000000
vt -6.500000 -10.239265 0.000000
vt -6.500000 -9.773844 0.000000
vt -6.500000 -9.308423 0.000000
vt -6.500000 -8.843002 0.000000
vt -6.500000 -8.377580 0.000000
vt -6.500000 -7.912159 0.000000
vt -6.500000 -7.446738 0.000000
vt -6.500000 -6.981317 0.000000
vt -6.500000 -6.515896 0.000000
vt -6.500000 -6.050475 0.000000
vt -6.500000 -5.585054 0.000000
vt -6.500000 -5.119632 0.000000
vt -6.500000 -4.654211 0.000000
vt -6.500000 -4.188790 0.000000
vt -6.500000 -3.723369 0.000000
vt -6.500000 -3.257948 0.000000
vt -6.500000 -2.792527 0.000000
vt -6.500000 -2.327106 0.000000
vt -6.500000 -1.861685 0.000000
vt -6.500000 -1.396263 0.000000
vt -6.500000 -0.930842 0.000000
vt -3.972953 -0.464372 0.000000
vt 3.972953 -0.464372 0.000000
vt -4.000000 -0.000000 0.000000
vt 4.000000 -0.000000 0.000000
vt -3.972953 0.464372 0.000000
vt 3.972953 0.464372 0.000000
vt -3.892179 0.922463 0.000000
vt 3.892179 0.922463 0.000000
vt -3.758770 1.368081 0.000000
vt 3.758770 1.368081 0.000000
vt -3.574531 1.795197 0.000000
vt 3.574531 1.795197 0.000000
vt -3.341951 2.198036 0.000000
vt 3.341951 2.198036 0.000000
vt -3.064178 2.571150 0.000000
vt 3.064178 2.571150 0.000000
vt -2.744967 2.909495 0.000000
vt 2.744967 2.909495 0.000000
vt -2.388634 3.208493 0.000000
vt 2.388634 3.208493 0.000000
vt -2.000000 3.464102 0.000000
vt 2.000000 3.464102 0.000000
vt -1.584319 3.672864 0.000000
vt 1.584319 3.672864 0.000000
vt -1.147213 3.831958 0.000000
vt 1.147213 3.831958 0.000000
vt -0.694593 3.939231 0.000000
vt 0.694593 3.939231 0.000000
vt -0.232579 3.993233 0.000000
vt 0.232579 3.993233 0.000000
vt 3.892179 -0.922463 0.000000
vt -3.892179 -0.922463 0.000000
vt 3.758770 -1.368081 0.000000
vt -3.758770 -1.368081 0.000000
vt 3.574531 -1.795197 0.000000
vt -3.574531 -1.795197 0.000000
vt 3.341951 -2.198036 0.000000
vt -3.341951 -2.198036 0.000000
vt 3.064178 -2.571150 0.000000
vt -3.064178 -2.571150 0.000000
vt 2.744967 -2.909495 0.000000
vt -2.744967 -2.909495 0.000000
vt 2.388634 -3.208493 0.000000
vt -2.388634 -3.208493 0.000000
vt 2.000000 -3.464102 0.000000
vt -2.000000 -3.464102 0.000000
vt 1.584319 -3.672864 0.000000
vt -1.584319 -3.672864 0.000000
vt 1.147213 -3.831958 0.000000
vt -1.147213 -3.831958 0.000000
vt 0.694593 -3.939231 0.000000
vt -0.694593 -3.939231 0.000000
vt 0.232579 -3.993233 0.000000
vt -0.232579 -3.993233 0.000000
vt 3.972953 0.464372 0.000000
vt -3.972953 0.464372 0.000000
vt 4.000000 -0.000000 0.000000
vt -4.000000 0.000000 0.000000
vt 3.972953 -0.464372 0.000000
vt -3.972953 -0.464372 0.000000
vt 3.892179 -0.922463 0.000000
vt -3.892179 -0.922463 0.000000
vt 3.758770 -1.368081 0.000000
vt -3.758770 -1.368081 0.000000
vt 3.574531 -1.795197 0.000000
vt -3.574531 -1.795197 0.000000
vt 3.341951 -2.198036 0.000000
vt -3.341951 -2.198036 0.000000
vt 3.064178 -2.571150 0.000000
vt -3.064178 -2.571150 0.000000
vt 2.744967 -2.909495 0.000000
vt -2.744967 -2.909495 0.000000
vt 2.388634 -3.208493 0.000000
vt -2.388634 -3.208493 0.000000
vt 2.000000 -3.464102 0.000000
vt -2.000000 -3.464102 0.000000
vt 1.584319 -3.672864 0.000000
vt -1.584319 -3.672864 0.000000
vt 1.147213 -3.831958 0.000000
vt -1.147213 -3.831958 0.000000
vt 0.694593 -3.939231 0.000000
vt -0.694593 -3.939231 0.000000
vt 0.232579 -3.993233 0.000000
vt -0.232579 -3.993233 0.000000
vt -3.892179 0.922463 0.000000
vt 3.892179 0.922463 0.000000
vt -3.758770 1.368081 0.000000
vt 3.758770 1.368081 0.000000
vt -3.574531 1.795197 0.000000
vt 3.574531 1.795197 0.000000
vt -3.341951 2.198036 0.000000
vt 3.341951 2.198036 0.000000
vt -3.064178 2.571150 0.000000
vt 3.064178 2.571150 0.000000
vt -2.744967 2.909495 0.000000
vt 2.744967 2.909495 0.000000
vt -2.388634 3.208493 0.000000
vt 2.388634 3.208493 0.000000
vt -2.000000 3.464102 0.000000
vt 2.000000 3.464102 0.000000
vt -1.584319 3.672864 0.000000
vt 1.584319 3.672864 0.000000
vt -1.147213 3.831958 0.000000
vt 1.147213 3.831958 0.000000
vt -0.694593 3.939231 0.000000
vt 0.694593 3.939231 0.000000
vt -0.232579 3.993233 0.000000
vt 0.232579 3.993233 0.000000
vn 11.609291 0.000000 99.323836
vn 11.609291 0.000000 99.323836
vn -0.000000 0.000000 100.000000
vn -0.000000 0.000000 100.000000
vn -11.609291 0.000000 99.323836
vn -11.609291 0.000000 99.323836
vn -23.061587 0.000000 97.304487
vn -23.061587 0.000000 97.304487
vn -34.202014 0.000000 93.969262
vn -34.202014 0.000000 93.969262
vn -44.879918 0.000000 89.363264
vn -44.879918 0.000000 89.363264
vn -54.950898 0.000000 83.548781
vn -54.950898 0.000000 83.548781
vn -64.278761 0.000000 76.604444
vn -64.278761 0.000000 76.604444
vn -72.737364 0.000000 68.624164
vn -72.737364 0.000000 68.624164
vn -80.212319 0.000000 59.715859
vn -80.212319 0.000000 59.715859
vn -86.602540 0.000000 50.000000
vn -86.602540 0.000000 50.000000
vn -91.821611 0.000000 39.607977
vn -91.821611 0.000000 39.607977
vn -95.798951 0.000000 28.680323
vn -95.798951 0.000000 28.680323
vn -98.480775 0.000000 17.364818
vn -98.480775 0.000000 17.364818
vn -99.830816 0.000000 5.814483
vn -99.830816 0.000000 5.814483
vn -99.830816 0.000000 -5.814483
vn -99.830816 0.000000 -5.814483
vn -98.480775 0.000000 -17.364818
vn -98.480775 0.000000 -17.364818
vn -95.798951 0.000000 -28.680323
vn -95.798951 0.000000 -28.680323
vn -91.821611 -0.000000 -39.607977
vn -91.821611 -0.000000 -39.607977
vn -86.602540 -0.000000 -50.000000
vn -86.602540 -0.000000 -50.000000
vn -80.212319 -0.000000 -59.715859
vn -80.212319 -0.000000 -59.715859
vn -72.737364 -0.000000 -68.624164
vn -72.737364 -0.000000 -68.624164
vn -64.278761 -0.000000 -76.604444
vn -64.278761 -0.000000 -76.604444
vn -54.950898 -0.000000 -83.548781
vn -54.950898 -0.000000 -83.548781
vn -44.879918 -0.000000 -89.363264
vn -44.879918 -0.000000 -89.363264
vn -34.202014 -0.000000 -93.969262
vn -34.202014 -0.000000 -93.969262
vn -23.061587 -0.000000 -97.304487
vn -23.061587 -0.000000 -97.304487
vn -11.609291 -0.000000 -99.323836
vn -11.609291 -0.000000 -99.323836
vn 0.000000 -0.000000 -100.000000
vn 0.000000 -0.000000 -100.000000
vn 11.609291 -0.000000 -99.323836
vn 11.609291 -0.000000 -99.323836
vn 23.061587 -0.000000 -97.304487
vn 23.061587 -0.000000 -97.304487
vn 34.202014 -0.000000 -93.969262
vn 34.202014 -0.000000 -93.969262
vn 44.879918 -0.000000 -89.363264
vn 44.879918 -0.000000 -89.363264
vn 54.950898 -0.000000 -83.548781
vn 54.950898 -0.000000 -83.548781
vn 64.278761 -0.000000 -76.604444
vn 64.278761 -0.000000 -76.604444
vn 72.737364 -0.000000 -68.624164
vn 72.737364 -0.000000 -68.624164
vn 80.212319 -0.000000 -59.715859
vn 80.212319 -0.000000 -59.715859
vn 86.602540 -0.000000 -50.000000
vn 86.602540 -0.000000 -50.000000
vn 91.821611 -0.000000 -39.607977
vn 91.821611 -0.000000 -39.607977
vn 95.798951 -0.000000 -28.680323
vn 95.798951 -0.000000 -28.680323
vn 98.480775 -0.000000 -17.364818
vn 98.480775 -0.000000 -17.364818
vn 99.830816 -0.000000 -5.814483
vn 99.830816 -0.000000 -5.814483
vn 99.830816 -0.000000 5.814483
vn 99.830816 -0.000000 5.814483
vn 98.480775 -0.000000 17.364818
vn 98.480775 -0.000000 17.364818
vn 95.798951 -0.000000 28.680323
vn 95.798951 -0.000000 28.680323
vn 91.821611 0.000000 39.607977
vn 91.821611 0.000000 39.607977
vn 86.602540 0.000000 50.000000
vn 86.602540 0.000000 50.000000
vn 80.212319 0.000000 59.715859
vn 80.212319 0.000000 59.715859
vn 72.737364 0.000000 68.624164
vn 72.737364 0.000000 68.624164
vn 64.278761 0.000000 76.604444
vn 64.278761 0.000000 76.604444
vn 54.950898 0.000000 83.548781
vn 54.950898 0.000000 83.548781
vn 44.879918 0.000000 89.363264
vn 44.879918 0.000000 89.363264
vn 34.202014 0.000000 93.969262
vn 34.202014 0.000000 93.969262
vn 23.061587 0.000000 97.304487
vn 23.061587 0.000000 97.304487
vn -11.609291 0.000000 99.323836
vn -0.000000 0.000000 100.000000
vn 11.609291 0.000000 99.323836
vn 23.061587 0.000000 97.304487
vn 34.202014 0.000000 93.969262
vn 44.879918 0.000000 89.363264
vn 54.950898 0.000000 83.548781
vn 64.278761 0.000000 76.604444
vn 72.737364 0.000000 68.624164
vn 80.212319 0.000000 59.715859
vn 86.602540 0.000000 50.000000
vn 91.821611 0.000000 39.607977
vn 95.798951 -0.000000 28.680323
vn 98.480775 -0.000000 17.364818
vn 99.830816 -0.000000 5.814483
vn 99.830816 -0.000000 -5.814483
vn 98.480775 -0.000000 -17.364818
vn 95.798951 -0.000000 -28.680323
vn 91.821611 -0.000000 -39.607977
vn 86.602540 -0.000000 -50.000000
vn 80.212319 -0.000000 -59.715859
vn 72.737364 -0.000000 -68.624164
vn 64.278761 -0.000000 -76.604444
vn 54.950898 -0.000000 -83.548781
vn 44.879918 -0.000000 -89.363264
vn 34.202014 -0.000000 -93.969262
vn 23.061587 -0.000000 -97.304487
vn 11.609291 -0.000000 -99.323836
vn 0.000000 -0.000000 -100.000000
vn -11.609291 -0.000000 -99.323836
vn -23.061587 -0.000000 -97.304487
vn -34.202014 -0.000000 -93.969262
vn -44.879918 -0.000000 -89.363264
vn -54.950898 -0.000000 -83.548781
vn -64.278761 -0.000000 -76.604444
vn -72.737364 -0.000000 -68.624164
vn -80.212319 -0.000000 -59.715859
vn -86.602540 -0.000000 -50.000000
vn -91.821611 -0.000000 -39.607977
vn -95.798951 0.000000 -28.680323
vn -98.480775 0.000000 -17.364818
vn -99.830816 0.000000 -5.814483
vn -99.830816 0.000000 5.814483
vn -98.480775 0.000000 17.364818
vn -95.798951 0.000000 28.680323
vn -91.821611 0.000000 39.607977
vn -86.602540 0.000000 50.000000
vn -80.212319 0.000000 59.715859
vn -72.737364 0.000000 68.624164
vn -64.278761 0.000000 76.604444
vn -54.950898 0.000000 83.548781
vn -44.879918 0.000000 89.363264
vn -34.202014 0.000000 93.969262
vn -23.061587 0.000000 97.304487
vn -0.000000 -100.000000 0.000000
vn -0.000000 -100.000000 0.000000
vn -0.000000 -100.000000 0.000000
vn -0.000000 -100.000000 0.000000
vn -0.000000 -100.000000 0.000000
vn -0.000000 -100.000000 0.000000
vn -0.000000 -100.000000 0.000000
vn -0.000000 -100.000000 0.000000
vn -0.000000 -100.000000 0.000000
vn -0.000000 -100.000000 0.000000
vn -0.000000 -100.000000 0.000000
vn -0.000000 -100.000000 0.000000
vn -0.000000 -100.000000 0.000000
vn -0.000000 -100.000000 0.000000
vn -0.000000 -100.000000 0.000000
vn -0.000000 -100.000000 0.000000
vn -0.000000 -100.000000 0.000000
vn -0.000000 -100.000000 0.000000
vn -0.000000 -100.000000 0.000000
vn -0.000000 -100.000000 0.000000
vn -0.000000 -100.000000 0.000000
vn -0.000000 -100.000000 0.000000
vn -0.000000 -100.000000 0.000000
vn -0.000000 -100.000000 0.000000
vn -0.000000 -100.000000 0.000000
vn -0.000000 -100.000000 0.000000
vn -0.000000 -100.000000 0.000000
vn -0.000000 -100.000000 0.000000
vn -0.000000 -100.000000 0.000000
vn -0.000000 -100.000000 0.000000
vn -0.000000 -100.000000 0.000000
vn -0.000000 -100.000000 0.000000
vn -0.000000 -100.000000 0.000000
vn -0.000000 -100.000000 0.000000
vn -0.000000 -100.000000 0.000000
vn -0.000000 -100.000000 0.000000
vn -0.000000 -100.000000 0.000000
vn -0.000000 -100.000000 0.000000
vn -0.000000 -100.000000 0.000000
vn -0.000000 -100.000000 0.000000
vn -0.000000 -100.000000 0.000000
vn -0.000000 -100.000000 0.000000
vn -0.000000 -100.000000 0.000000
vn -0.000000 -100.000000 0.000000
vn -0.000000 -100.000000 0.000000
vn -0.000000 -100.000000 0.000000
vn -0.000000 -100.000000 0.000000
vn -0.000000 -100.000000 0.000000
vn -0.000000 -100.000000 0.000000
vn -0.000000 -100.000000 0.000000
vn -0.000000 -100.000000 0.000000
vn -0.000000 -100.000000 0.000000
vn -0.000000 -100.000000 0.000000
vn -0.000000 -100.000000 0.000000
vn 0.000000 100.000000 -0.000000
vn 0.000000 100.000000 -0.000000
vn 0.000000 100.000000 -0.000000
vn 0.000000 100.000000 -0.000000
vn 0.000000 100.000000 -0.000000
vn 0.000000 100.000000 -0.000000
vn 0.000000 100.000000 -0.000000
vn 0.000000 100.000000 -0.000000
vn 0.000000 100.000000 -0.000000
vn 0.000000 100.000000 -0.000000
vn 0.000000 100.000000 -0.000000
vn 0.000000 100.000000 -0.000000
vn 0.000000 100.000000 -0.000000
vn 0.000000 100.000000 -0.000000
vn 0.000000 100.000000 -0.000000
vn 0.000000 100.000000 -0.000000
vn 0.000000 100.000000 -0.000000
vn 0.000000 100.000000 -0.000000
vn 0.000000 100.000000 -0.000000
vn 0.000000 100.000000 -0.000000
vn 0.000000 100.000000 -0.000000
vn 0.000000 100.000000 -0.000000
vn 0.000000 100.000000 -0.000000
vn 0.000000 100.000000 -0.000000
vn 0.000000 100.000000 -0.000000
vn 0.000000 100.000000 -0.000000
vn 0.000000 100.000000 -0.000000
vn 0.000000 100.000000 -0.000000
vn 0.000000 100.000000 -0.000000
vn 0.000000 100.000000 -0.000000
vn 0.000000 100.000000 -0.000000
vn 0.000000 100.000000 -0.000000
vn 0.000000 100.000000 -0.000000
vn 0.000000 100.000000 -0.000000
vn 0.000000 100.000000 -0.000000
vn 0.000000 100.000000 -0.000000
vn 0.000000 100.000000 -0.000000
vn 0.000000 100.000000 -0.000000
vn 0.000000 100.000000 -0.000000
vn 0.000000 100.000000 -0.000000
vn 0.000000 100.000000 -0.000000
vn 0.000000 100.000000 -0.000000
vn 0.000000 100.000000 -0.000000
vn 0.000000 100.000000 -0.000000
vn 0.000000 100.000000 -0.000000
vn 0.000000 100.000000 -0.000000
vn 0.000000 100.000000 -0.000000
vn 0.000000 100.000000 -0.000000
vn 0.000000 100.000000 -0.000000
vn 0.000000 100.000000 -0.000000
vn 0.000000 100.000000 -0.000000
vn 0.000000 100.000000 -0.000000
vn 0.000000 100.000000 -0.000000
vn 0.000000 100.000000 -0.000000
usemtl Paint_-_Metal_Flake_(Aqua)
f 2/1/1 110/2/2 1/3/3
f 1/3/3 110/2/2 111/4/4
f 1/3/3 111/4/4 54/5/5
f 54/5/5 111/4/4 162/6/6
f 54/5/5 162/6/6 53/7/7
f 53/7/7 162/6/6 161/8/8
f 53/7/7 161/8/8 52/9/9
f 52/9/9 161/8/8 160/10/10
f 52/9/9 160/10/10 51/11/11
f 51/11/11 160/10/10 159/12/12
f 51/11/11 159/12/12 50/13/13
f 50/13/13 159/12/12 158/14/14
f 50/13/13 158/14/14 49/15/15
f 49/15/15 158/14/14 157/16/16
f 49/15/15 157/16/16 48/17/17
f 48/17/17 157/16/16 156/18/18
f 48/17/17 156/18/18 47/19/19
f 47/19/19 156/18/18 155/20/20
f 47/19/19 155/20/20 46/21/21
f 46/21/21 155/20/20 154/22/22
f 46/21/21 154/22/22 45/23/23
f 45/23/23 154/22/22 153/24/24
f 45/23/23 153/24/24 44/25/25
f 44/25/25 153/24/24 152/26/26
f 44/25/25 152/26/26 43/27/27
f 43/27/27 152/26/26 151/28/28
f 43/27/27 151/28/28 42/29/29
f 42/29/29 151/28/28 150/30/30
f 42/29/29 150/30/30 41/31/31
f 41/31/31 150/30/30 149/32/32
f 41/31/31 149/32/32 40/33/33
f 40/33/33 149/32/32 148/34/34
f 40/33/33 148/34/34 39/35/35
f 39/35/35 148/34/34 147/36/36
f 39/35/35 147/36/36 38/37/37
f 38/37/37 147/36/36 146/38/38
f 38/37/37 146/38/38 37/39/39
f 37/39/39 146/38/38 145/40/40
f 37/39/39 145/40/40 36/41/41
f 36/41/41 145/40/40 144/42/42
f 36/41/41 144/42/42 35/43/43
f 35/43/43 144/42/42 143/44/44
f 35/43/43 143/44/44 34/45/45
f 34/45/45 143/44/44 142/46/46
f 34/45/45 142/46/46 33/47/47
f 33/47/47 142/46/46 141/48/48
f 33/47/47 141/48/48 32/49/49
f 32/49/49 141/48/48 140/50/50
f 32/49/49 140/50/50 31/51/51
f 31/51/51 140/50/50 139/52/52
f 31/51/51 139/52/52 30/53/53
f 30/53/53 139/52/52 138/54/54
f 30/53/53 138/54/54 29/55/55
f 29/55/55 138/54/54 137/56/56
f 29/55/55 137/56/56 28/57/57
f 28/57/57 137/56/56 109/58/58
f 28/59/57 109/60/58 27/61/59
f 27/61/59 109/60/58 136/62/60
f 27/61/59 136/62/60 26/63/61
f 26/63/61 136/62/60 135/64/62
f 26/63/61 135/64/62 25/65/63
f 25/65/63 135/64/62 134/66/64
f 25/65/63 134/66/64 24/67/65
f 24/67/65 134/66/64 133/68/66
f 24/67/65 133/68/66 23/69/67
f 23/69/67 133/68/66 132/70/68
f 23/69/67 132/70/68 22/71/69
f 22/71/69 132/70/68 131/72/70
f 22/71/69 131/72/70 21/73/71
f 21/73/71 131/72/70 130/74/72
f 21/73/71 130/74/72 20/75/73
f 20/75/73 130/74/72 129/76/74
f 20/75/73 129/76/74 19/77/75
f 19/77/75 129/76/74 128/78/76
f 19/77/75 128/78/76 18/79/77
f 18/79/77 128/78/76 127/80/78
f 18/79/77 127/80/78 17/81/79
f 17/81/79 127/80/78 126/82/80
f 17/81/79 126/82/80 16/83/81
f 16/83/81 126/82/80 125/84/82
f 16/83/81 125/84/82 15/85/83
f 15/85/83 125/84/82 124/86/84
f 15/85/83 124/86/84 14/87/85
f 14/87/85 124/86/84 123/88/86
f 14/87/85 123/88/86 13/89/87
f 13/89/87 123/88/86 122/90/88
f 13/89/87 122/90/88 12/91/89
f 12/91/89 122/90/88 121/92/90
f 12/91/89 121/92/90 11/93/91
f 11/93/91 121/92/90 120/94/92
f 11/93/91 120/94/92 10/95/93
f 10/95/93 120/94/92 119/96/94
f 10/95/93 119/96/94 9/97/95
f 9/97/95 119/96/94 118/98/96
f 9/97/95 118/98/96 8/99/97
f 8/99/97 118/98/96 117/100/98
f 8/99/97 117/100/98 7/101/99
f 7/101/99 117/100/98 116/102/100
f 7/101/99 116/102/100 6/103/101
f 6/103/101 116/102/100 115/104/102
f 6/103/101 115/104/102 5/105/103
f 5/105/103 115/104/102 114/106/104
f 5/105/103 114/106/104 4/107/105
f 4/107/105 114/106/104 113/108/106
f 4/107/105 113/108/106 3/109/107
f 3/109/107 113/108/106 112/110/108
f 3/109/107 112/110/108 2/1/1
f 2/1/1 112/110/108 110/2/2
f 56/111/109 162/6/6 55/112/110
f 55/112/110 162/6/6 111/4/4
f 55/112/110 111/4/4 108/113/111
f 108/113/111 111/4/4 110/2/2
f 108/113/111 110/2/2 107/114/112
f 107/114/112 110/2/2 112/110/108
f 107/114/112 112/110/108 106/115/113
f 106/115/113 112/110/108 113/108/106
f 106/115/113 113/108/106 105/116/114
f 105/116/114 113/108/106 114/106/104
f 105/116/114 114/106/104 104/117/115
f 104/117/115 114/106/104 115/104/102
f 104/117/115 115/104/102 103/118/116
f 103/118/116 115/104/102 116/102/100
f 103/118/116 116/102/100 102/119/117
f 102/119/117 116/102/100 117/100/98
f 102/119/117 117/100/98 101/120/118
f 101/120/118 117/100/98 118/98/96
f 101/120/118 118/98/96 100/121/119
f 100/121/119 118/98/96 119/96/94
f 100/121/119 119/96/94 99/122/120
f 99/122/120 119/96/94 120/94/92
f 99/122/120 120/94/92 98/123/121
f 98/123/121 120/94/92 121/92/90
f 98/123/121 121/92/90 97/124/122
f 97/124/122 121/92/90 122/90/88
f 97/124/122 122/90/88 96/125/123
f 96/125/123 122/90/88 123/88/86
f 96/125/123 123/88/86 95/126/124
f 95/126/124 123/88/86 124/86/84
f 95/126/124 124/86/84 94/127/125
f 94/127/125 124/86/84 125/84/82
f 94/127/125 125/84/82 93/128/126
f 93/128/126 125/84/82 126/82/80
f 93/128/126 126/82/80 92/129/127
f 92/129/127 126/82/80 127/80/78
f 92/129/127 127/80/78 91/130/128
f 91/130/128 127/80/78 128/78/76
f 91/130/128 128/78/76 90/131/129
f 90/131/129 128/78/76 129/76/74
f 90/131/129 129/76/74 89/132/130
f 89/132/130 129/76/74 130/74/72
f 89/132/130 130/74/72 88/133/131
f 88/133/131 130/74/72 131/72/70
f 88/133/131 131/72/70 87/134/132
f 87/134/132 131/72/70 132/70/68
f 87/134/132 132/70/68 86/135/133
f 86/135/133 132/70/68 133/68/66
f 86/135/133 133/68/66 85/136/134
f 85/136/134 133/68/66 134/66/64
f 85/136/134 134/66/64 84/137/135
f 84/137/135 134/66/64 135/64/62
f 84/137/135 135/64/62 83/138/136
f 83/138/136 135/64/62 136/62/60
f 83/138/136 136/62/60 82/139/137
f 82/139/137 136/62/60 109/60/58
f 82/140/137 109/58/58 81/141/138
f 81/141/138 109/58/58 137/56/56
f 81/141/138 137/56/56 80/142/139
f 80/142/139 137/56/56 138/54/54
f 80/142/139 138/54/54 79/143/140
f 79/143/140 138/54/54 139/52/52
f 79/143/140 139/52/52 78/144/141
f 78/144/141 139/52/52 140/50/50
f 78/144/141 140/50/50 77/145/142
f 77/145/142 140/50/50 141/48/48
f 77/145/142 141/48/48 76/146/143
f 76/146/143 141/48/48 142/46/46
f 76/146/143 142/46/46 75/147/144
f 75/147/144 142/46/46 143/44/44
f 75/147/144 143/44/44 74/148/145
f 74/148/145 143/44/44 144/42/42
f 74/148/145 144/42/42 73/149/146
f 73/149/146 144/42/42 145/40/40
f 73/149/146 145/40/40 72/150/147
f 72/150/147 145/40/40 146/38/38
f 72/150/147 146/38/38 71/151/148
f 71/151/148 146/38/38 147/36/36
f 71/151/148 147/36/36 70/152/149
f 70/152/149 147/36/36 148/34/34
f 70/152/149 148/34/34 69/153/150
f 69/153/150 148/34/34 149/32/32
f 69/153/150 149/32/32 68/154/151
f 68/154/151 149/32/32 150/30/30
f 68/154/151 150/30/30 67/155/152
f 67/155/152 150/30/30 151/28/28
f 67/155/152 151/28/28 66/156/153
f 66/156/153 151/28/28 152/26/26
f 66/156/153 152/26/26 65/157/154
f 65/157/154 152/26/26 153/24/24
f 65/157/154 153/24/24 64/158/155
f 64/158/155 153/24/24 154/22/22
f 64/158/155 154/22/22 63/159/156
f 63/159/156 154/22/22 155/20/20
f 63/159/156 155/20/20 62/160/157
f 62/160/157 155/20/20 156/18/18
f 62/160/157 156/18/18 61/161/158
f 61/161/158 156/18/18 157/16/16
f 61/161/158 157/16/16 60/162/159
f 60/162/159 157/16/16 158/14/14
f 60/162/159 158/14/14 59/163/160
f 59/163/160 158/14/14 159/12/12
f 59/163/160 159/12/12 58/164/161
f 58/164/161 159/12/12 160/10/10
f 58/164/161 160/10/10 57/165/162
f 57/165/162 160/10/10 161/8/8
f 57/165/162 161/8/8 56/111/109
f 56/111/109 161/8/8 162/6/6
f 54/166/163 29/167/164 1/168/165
f 1/168/165 29/167/164 28/169/166
f 1/168/165 28/169/166 2/170/167
f 2/170/167 28/169/166 27/171/168
f 2/170/167 27/171/168 3/172/169
f 3/172/169 27/171/168 26/173/170
f 3/172/169 26/173/170 4/174/171
f 4/174/171 26/173/170 25/175/172
f 4/174/171 25/175/172 5/176/173
f 5/176/173 25/175/172 24/177/174
f 5/176/173 24/177/174 6/178/175
f 6/178/175 24/177/174 23/179/176
f 6/178/175 23/179/176 7/180/177
f 7/180/177 23/179/176 22/181/178
f 7/180/177 22/181/178 8/182/179
f 8/182/179 22/181/178 21/183/180
f 8/182/179 21/183/180 9/184/181
f 9/184/181 21/183/180 20/185/182
f 9/184/181 20/185/182 10/186/183
f 10/186/183 20/185/182 19/187/184
f 10/186/183 19/187/184 11/188/185
f 11/188/185 19/187/184 18/189/186
f 11/188/185 18/189/186 12/190/187
f 12/190/187 18/189/186 17/191/188
f 12/190/187 17/191/188 13/192/189
f 13/192/189 17/191/188 16/193/190
f 13/192/189 16/193/190 14/194/191
f 14/194/191 16/193/190 15/195/192
f 29/167/164 54/166/163 30/196/193
f 30/196/193 54/166/163 53/197/194
f 30/196/193 53/197/194 31/198/195
f 31/198/195 53/197/194 52/199/196
f 31/198/195 52/199/196 32/200/197
f 32/200/197 52/199/196 51/201/198
f 32/200/197 51/201/198 33/202/199
f 33/202/199 51/201/198 50/203/200
f 33/202/199 50/203/200 34/204/201
f 34/204/201 50/203/200 49/205/202
f 34/204/201 49/205/202 35/206/203
f 35/206/203 49/205/202 48/207/204
f 35/206/203 48/207/204 36/208/205
f 36/208/205 48/207/204 47/209/206
f 36/208/205 47/209/206 37/210/207
f 37/210/207 47/209/206 46/211/208
f 37/210/207 46/211/208 38/212/209
f 38/212/209 46/211/208 45/213/210
f 38/212/209 45/213/210 39/214/211
f 39/214/211 45/213/210 44/215/212
f 39/214/211 44/215/212 40/216/213
f 40/216/213 44/215/212 43/217/214
f 40/216/213 43/217/214 41/218/215
f 41/218/215 43/217/214 42/219/216
f 108/220/217 83/221/218 55/222/219
f 55/222/219 83/221/218 82/223/220
f 55/222/219 82/223/220 56/224/221
f 56/224/221 82/223/220 81/225/222
f 56/224/221 81/225/222 57/226/223
f 57/226/223 81/225/222 80/227/224
f 57/226/223 80/227/224 58/228/225
f 58/228/225 80/227/224 79/229/226
f 58/228/225 79/229/226 59/230/227
f 59/230/227 79/229/226 78/231/228
f 59/230/227 78/231/228 60/232/229
f 60/232/229 78/231/228 77/233/230
f 60/232/229 77/233/230 61/234/231
f 61/234/231 77/233/230 76/235/232
f 61/234/231 76/235/232 62/236/233
f 62/236/233 76/235/232 75/237/234
f 62/236/233 75/237/234 63/238/235
f 63/238/235 75/237/234 74/239/236
f 63/238/235 74/239/236 64/240/237
f 64/240/237 74/239/236 73/241/238
f 64/240/237 73/241/238 65/242/239
f 65/242/239 73/241/238 72/243/240
f 65/242/239 72/243/240 66/244/241
f 66/244/241 72/243/240 71/245/242
f 66/244/241 71/245/242 67/246/243
f 67/246/243 71/245/242 70/247/244
f 67/246/243 70/247/244 68/248/245
f 68/248/245 70/247/244 69/249/246
f 83/221/218 108/220/217 84/250/247
f 84/250/247 108/220/217 107/251/248
f 84/250/247 107/251/248 85/252/249
f 85/252/249 107/251/248 106/253/250
f 85/252/249 106/253/250 86/254/251
f 86/254/251 106/253/250 105/255/252
f 86/254/251 105/255/252 87/256/253
f 87/256/253 105/255/252 104/257/254
f 87/256/253 104/257/254 88/258/255
f 88/258/255 104/257/254 103/259/256
f 88/258/255 103/259/256 89/260/257
f 89/260/257 103/259/256 102/261/258
f 89/260/257 102/261/258 90/262/259
f 90/262/259 102/261/258 101/263/260
f 90/262/259 101/263/260 91/264/261
f 91/264/261 101/263/260 100/265/262
f 91/264/261 100/265/262 92/266/263
f 92/266/263 100/265/262 99/267/264
f 92/266/263 99/267/264 93/268/265
f 93/268/265 99/267/264 98/269/266
f 93/268/265 98/269/266 94/270/267
f 94/270/267 98/269/266 97/271/268
f 94/270/267 97/271/268 95/272/269
f 95/272/269 97/271/268 96/273/270
g Body2

v 0.065000 -0.006946 0.039392
v 0.065000 -0.002326 0.039932
v 0.065000 0.002326 0.039932
v 0.065000 0.006946 0.039392
v 0.065000 0.011472 0.038320
v 0.065000 0.015843 0.036729
v 0.065000 0.020000 0.034641
v 0.065000 0.023886 0.032085
v 0.065000 0.027450 0.029095
v 0.065000 0.030642 0.025712
v 0.065000 0.033420 0.021980
v 0.065000 0.035745 0.017952
v 0.065000 0.037588 0.013681
v 0.065000 0.038922 0.009225
v 0.065000 0.039730 0.004644
v 0.065000 0.040000 0.000000
v 0.065000 0.039730 -0.004644
v 0.065000 0.038922 -0.009225
v 0.065000 0.037588 -0.013681
v 0.065000 0.035745 -0.017952
v 0.065000 0.033420 -0.021980
v 0.065000 0.030642 -0.025712
v 0.065000 0.027450 -0.029095
v 0.065000 0.023886 -0.032085
v 0.065000 0.020000 -0.034641
v 0.065000 0.015843 -0.036729
v 0.065000 0.011472 -0.038320
v 0.065000 0.006946 -0.039392
v 0.065000 0.002326 -0.039932
v 0.065000 -0.002326 -0.039932
v 0.065000 -0.006946 -0.039392
v 0.065000 -0.011472 -0.038320
v 0.065000 -0.015843 -0.036729
v 0.065000 -0.020000 -0.034641
v 0.065000 -0.023886 -0.032085
v 0.065000 -0.027450 -0.029095
v 0.065000 -0.030642 -0.025712
v 0.065000 -0.033420 -0.021980
v 0.065000 -0.035745 -0.017952
v 0.065000 -0.037588 -0.013681
v 0.065000 -0.038922 -0.009225
v 0.065000 -0.039730 -0.004644
v 0.065000 -0.040000 0.000000
v 0.065000 -0.039730 0.004644
v 0.065000 -0.038922 0.009225
v 0.065000 -0.037588 0.013681
v 0.065000 -0.035745 0.017952
v 0.065000 -0.033420 0.021980
v 0.065000 -0.030642 0.025712
v 0.065000 -0.027450 0.029095
v 0.065000 -0.023886 0.032085
v 0.065000 -0.020000 0.034641
v 0.065000 -0.015843 0.036729
v 0.065000 -0.011472 0.038320
v -0.065000 -0.006946 0.039392
v -0.065000 -0.011472 0.038320
v -0.065000 -0.015843 0.036729
v -0.065000 -0.020000 0.034641
v -0.065000 -0.023886 0.032085
v -0.065000 -0.027450 0.029095
v -0.065000 -0.030642 0.025712
v -0.065000 -0.033420 0.021980
v -0.065000 -0.035745 0.017952
v -0.065000 -0.037588 0.013681
v -0.065000 -0.038922 0.009225
v -0.065000 -0.039730 0.004644
v -0.065000 -0.040000 -0.000000
v -0.065000 -0.039730 -0.004644
v -0.065000 -0.038922 -0.009225
v -0.065000 -0.037588 -0.013681
v -0.065000 -0.035745 -0.017952
v -0.065000 -0.033420 -0.021980
v -0.065000 -0.030642 -0.025712
v -0.065000 -0.027450 -0.029095
v -0.065000 -0.023886 -0.032085
v -0.065000 -0.020000 -0.034641
v -0.065000 -0.015843 -0.036729
v -0.065000 -0.011472 -0.038320
v -0.065000 -0.006946 -0.039392
v -0.065000 -0.002326 -0.039932
v -0.065000 0.002326 -0.039932
v -0.065000 0.006946 -0.039392
v -0.065000 0.011472 -0.038320
v -0.065000 0.015843 -0.036729
v -0.065000 0.020000 -0.034641
v -0.065000 0.023886 -0.032085
v -0.065000 0.027450 -0.029095
v -0.065000 0.030642 -0.025712
v -0.065000 0.033420 -0.021980
v -0.065000 0.035745 -0.017952
v -0.065000 0.037588 -0.013681
v -0.065000 0.038922 -0.009225
v -0.065000 0.039730 -0.004644
v -0.065000 0.040000 -0.000000
v -0.065000 0.039730 0.004644
v -0.065000 0.038922 0.009225
v -0.065000 0.037588 0.013681
v -0.065000 0.035745 0.017952
v -0.065000 0.033420 0.021980
v -0.065000 0.030642 0.025712
v -0.065000 0.027450 0.029095
v -0.065000 0.023886 0.032085
v -0.065000 0.020000 0.034641
v -0.065000 0.015843 0.036729
v -0.065000 0.011472 0.038320
v -0.065000 0.006946 0.039392
v -0.065000 0.002326 0.039932
v -0.065000 -0.002326 0.039932
v 0.000000 0.006946 -0.039392
v -0.000000 -0.002326 0.039932
v -0.000000 -0.006946 0.039392
v -0.000000 0.002326 0.039932
v -0.000000 0.006946 0.039392
v -0.000000 0.011472 0.038320
v -0.000000 0.015843 0.036729
v -0.000000 0.020000 0.034641
v -0.000000 0.023886 0.032085
v -0.000000 0.027450 0.029095
v -0.000000 0.030642 0.025712
v -0.000000 0.033420 0.021980
v -0.000000 0.035745 0.017952
v -0.000000 0.037588 0.013681
v -0.000000 0.038922 0.009225
v -0.000000 0.039730 0.004644
v 0.000000 0.040000 -0.000000
v 0.000000 0.039730 -0.004644
v 0.000000 0.038922 -0.009225
v 0.000000 0.037588 -0.013681
v 0.000000 0.035745 -0.017952
v 0.000000 0.033420 -0.021980
v 0.000000 0.030642 -0.025712
v 0.000000 0.027450 -0.029095
v 0.000000 0.023886 -0.032085
v 0.000000 0.020000 -0.034641
v 0.000000 0.015843 -0.036729
v 0.000000 0.011472 -0.038320
v 0.000000 0.002326 -0.039932
v 0.000000 -0.002326 -0.039932
v 0.000000 -0.006946 -0.039392
v 0.000000 -0.011472 -0.038320
v 0.000000 -0.015843 -0.036729
v 0.000000 -0.020000 -0.034641
v 0.000000 -0.023886 -0.032085
v 0.000000 -0.027450 -0.029095
v 0.000000 -0.030642 -0.025712
v 0.000000 -0.033420 -0.021980
v 0.000000 -0.035745 -0.017952
v 0.000000 -0.037588 -0.013681
v 0.000000 -0.038922 -0.009225
v 0.000000 -0.039730 -0.004644
v 0.000000 -0.040000 -0.000000
v -0.000000 -0.039730 0.004644
v -0.000000 -0.038922 0.009225
v -0.000000 -0.037588 0.013681
v -0.000000 -0.035745 0.017952
v -0.000000 -0.033420 0.021980
v -0.000000 -0.030642 0.025712
v -0.000000 -0.027450 0.029095
v -0.000000 -0.023886 0.032085
v -0.000000 -0.020000 0.034641
v -0.000000 -0.015843 0.036729
v -0.000000 -0.011472 0.038320
vt 6.500000 0.465421 0.000000
vt -0.000000 0.465421 0.000000
vt 6.500000 -0.000000 0.000000
vt -0.000000 -0.000000 0.000000
vt 6.500000 -0.465421 0.000000
vt -0.000000 -0.465421 0.000000
vt 6.500000 -0.930842 0.000000
vt -0.000000 -0.930842 0.000000
vt 6.500000 -1.396263 0.000000
vt -0.000000 -1.396263 0.000000
vt 6.500000 -1.861685 0.000000
vt -0.000000 -1.861685 0.000000
vt 6.500000 -2.327106 0.000000
vt -0.000000 -2.327106 0.000000
vt 6.500000 -2.792527 0.000000
vt -0.000000 -2.792527 0.000000
vt 6.500000 -3.257948 0.000000
vt -0.000000 -3.257948 0.000000
vt 6.500000 -3.723369 0.000000
vt -0.000000 -3.723369 0.000000
vt 6.500000 -4.188790 0.000000
vt -0.000000 -4.188790 0.000000
vt 6.500000 -4.654211 0.000000
vt -0.000000 -4.654211 0.000000
vt 6.500000 -5.119632 0.000000
vt -0.000000 -5.119632 0.000000
vt 6.500000 -5.585054 0.000000
vt -0.000000 -5.585054 0.000000
vt 6.500000 -6.050475 0.000000
vt -0.000000 -6.050475 0.000000
vt 6.500000 -6.515896 0.000000
vt -0.000000 -6.515896 0.000000
vt 6.500000 -6.981317 0.000000
vt -0.000000 -6.981317 0.000000
vt 6.500000 -7.446738 0.000000
vt -0.000000 -7.446738 0.000000
vt 6.500000 -7.912159 0.000000
vt -0.000000 -7.912159 0.000000
vt 6.500000 -8.377580 0.000000
vt -0.000000 -8.377580 0.000000
vt 6.500000 -8.843002 0.000000
vt -0.000000 -8.843002 0.000000
vt 6.500000 -9.308423 0.000000
vt -0.000000 -9.308423 0.000000
vt 6.500000 -9.773844 0.000000
vt -0.000000 -9.773844 0.000000
vt 6.500000 -10.239265 0.000000
vt -0.000000 -10.239265 0.000000
vt 6.500000 -10.704686 0.000000
vt -0.000000 -10.704686 0.000000
vt 6.500000 -11.170107 0.000000
vt -0.000000 -11.170107 0.000000
vt 6.500000 -11.635528 0.000000
vt -0.000000 -11.635528 0.000000
vt 6.500000 -12.100949 0.000000
vt -0.000000 -12.100949 0.000000
vt 6.500000 -12.566371 0.000000
vt -0.000000 -12.566371 0.000000
vt 6.500000 12.566371 0.000000
vt -0.000000 12.566371 0.000000
vt 6.500000 12.100949 0.000000
vt -0.000000 12.100949 0.000000
vt 6.500000 11.635528 0.000000
vt -0.000000 11.635528 0.000000
vt 6.500000 11.170107 0.000000
vt -0.000000 11.170107 0.000000
vt 6.500000 10.704686 0.000000
vt -0.000000 10.704686 0.000000
vt 6.500000 10.239265 0.000000
vt -0.000000 10.239265 0.000000
vt 6.500000 9.773844 0.000000
vt -0.000000 9.773844 0.000000
vt 6.500000 9.308423 0.000000
vt -0.000000 9.308423 0.000000
vt 6.500000 8.843002 0.000000
vt -0.000000 8.843002 0.000000
vt 6.500000 8.377580 0.000000
vt -0.000000 8.377580 0.000000
vt 6.500000 7.912159 0.000000
vt -0.000000 7.912159 0.000000
vt 6.500000 7.446738 0.000000
vt -0.000000 7.446738 0.000000
vt 6.500000 6.981317 0.000000
vt -0.000000 6.981317 0.000000
vt 6.500000 6.515896 0.000000
vt -0.000000 6.515896 0.000000
vt 6.500000 6.050475 0.000000
vt -0.000000 6.050475 0.000000
vt 6.500000 5.585054 0.000000
vt -0.000000 5.585054 0.000000
vt 6.500000 5.119632 0.000000
vt -0.000000 5.119632 0.000000
vt 6.500000 4.654211 0.000000
vt -0.000000 4.654211 0.000000
vt 6.500000 4.188790 0.000000
vt -0.000000 4.188790 0.000000
vt 6.500000 3.723369 0.000000
vt -0.000000 3.723369 0.000000
vt 6.500000 3.257948 0.000000
vt -0.000000 3.257948 0.000000
vt 6.500000 2.792527 0.000000
vt -0.000000 2.792527 0.000000
vt 6.500000 2.327106 0.000000
vt -0.000000 2.327106 0.000000
vt 6.500000 1.861685 0.000000
vt -0.000000 1.861685 0.000000
vt 6.500000 1.396263 0.000000
vt -0.000000 1.396263 0.000000
vt 6.500000 0.930842 0.000000
vt -0.000000 0.930842 0.000000
vt -6.500000 -0.465421 0.000000
vt -6.500000 -0.000000 0.000000
vt -6.500000 0.465421 0.000000
vt -6.500000 0.930842 0.000000
vt -6.500000 1.396263 0.000000
vt -6.500000 1.861685 0.000000
vt -6.500000 2.327106 0.000000
vt -6.500000 2.792527 0.000000
vt -6.500000 3.257948 0.000000
vt -6.500000 3.723369 0.000000
vt -6.500000 4.188790 0.000000
vt -6.500000 4.654211 0.000000
vt -6.500000 5.119632 0.000000
vt -6.500000 5.585054 0.000000
vt -6.500000 6.050475 0.000000
vt -6.500000 6.515896 0.000000
vt -6.500000 6.981317 0.000000
vt -6.500000 7.446738 0.000000
vt -6.500000 7.912159 0.000000
vt -6.500000 8.377580 0.000000
vt -6.500000 8.843002 0.000000
vt -6.500000 9.308423 0.000000
vt -6.500000 9.773844 0.000000
vt -6.500000 10.239265 0.000000
vt -6.500000 10.704686 0.000000
vt -6.500000 11.170107 0.000000
vt -6.500000 11.635528 0.000000
vt -6.500000 12.100949 0.000000
vt -6.500000 12.566371 0.000000
vt -6.500000 -12.566371 0.000000
vt -6.500000 -12.100949 0.000000
vt -6.500000 -11.635528 0.000000
vt -6.500000 -11.170107 0.000000
vt -6.500000 -10.704686 0.000000
vt -6.500000 -10.239265 0.000000
vt -6.500000 -9.773844 0.000000
vt -6.500000 -9.308423 0.000000
vt -6.500000 -8.843002 0.000000
vt -6.500000 -8.377580 0.000000
vt -6.500000 -7.912159 0.000000
vt -6.500000 -7.446738 0.000000
vt -6.500000 -6.981317 0.000000
vt -6.500000 -6.515896 0.000000
vt -6.500000 -6.050475 0.000000
vt -6.500000 -5.585054 0.000000
vt -6.500000 -5.119632 0.000000
vt -6.500000 -4.654211 0.000000
vt -6.500000 -4.188790 0.000000
vt -6.500000 -3.723369 0.000000
vt -6.500000 -3.257948 0.000000
vt -6.500000 -2.792527 0.000000
vt -6.500000 -2.327106 0.000000
vt -6.500000 -1.861685 0.000000
vt -6.500000 -1.396263 0.000000
vt -6.500000 -0.930842 0.000000
vt -3.972953 -0.464372 0.000000
vt 3.972953 -0.464372 0.000000
vt -4.000000 -0.000000 0.000000
vt 4.000000 -0.000000 0.000000
vt -3.972953 0.464372 0.000000
vt 3.972953 0.464372 0.000000
vt -3.892179 0.922463 0.000000
vt 3.892179 0.922463 0.000000
vt -3.758770 1.368081 0.000000
vt 3.758770 1.368081 0.000000
vt -3.574531 1.795197 0.000000
vt 3.574531 1.795197 0.000000
vt -3.341951 2.198036 0.000000
vt 3.341951 2.198036 0.000000
vt -3.064178 2.571150 0.000000
vt 3.064178 2.571150 0.000000
vt -2.744967 2.909495 0.000000
vt 2.744967 2.909495 0.000000
vt -2.388634 3.208493 0.000000
vt 2.388634 3.208493 0.000000
vt -2.000000 3.464102 0.000000
vt 2.000000 3.464102 0.000000
vt -1.584319 3.672864 0.000000
vt 1.584319 3.672864 0.000000
vt -1.147213 3.831958 0.000000
vt 1.147213 3.831958 0.000000
vt -0.694593 3.939231 0.000000
vt 0.694593 3.939231 0.000000
vt -0.232579 3.993233 0.000000
vt 0.232579 3.993233 0.000000
vt 3.892179 -0.922463 0.000000
vt -3.892179 -0.922463 0.000000
vt 3.758770 -1.368081 0.000000
vt -3.758770 -1.368081 0.000000
vt 3.574531 -1.795197 0.000000
vt -3.574531 -1.795197 0.000000
vt 3.341951 -2.198036 0.000000
vt -3.341951 -2.198036 0.000000
vt 3.064178 -2.571150 0.000000
vt -3.064178 -2.571150 0.000000
vt 2.744967 -2.909495 0.000000
vt -2.744967 -2.909495 0.000000
vt 2.388634 -3.208493 0.000000
vt -2.388634 -3.208493 0.000000
vt 2.000000 -3.464102 0.000000
vt -2.000000 -3.464102 0.000000
vt 1.584319 -3.672864 0.000000
vt -1.584319 -3.672864 0.000000
vt 1.147213 -3.831958 0.000000
vt -1.147213 -3.831958 0.000000
vt 0.694593 -3.939231 0.000000
vt -0.694593 -3.939231 0.000000
vt 0.232579 -3.993233 0.000000
vt -0.232579 -3.993233 0.000000
vt 3.972953 0.464372 0.000000
vt -3.972953 0.464372 0.000000
vt 4.000000 -0.000000 0.000000
vt -4.000000 0.000000 0.000000
vt 3.972953 -0.464372 0.000000
vt -3.972953 -0.464372 0.000000
vt 3.892179 -0.922463 0.000000
vt -3.892179 -0.922463 0.000000
vt 3.758770 -1.368081 0.000000
vt -3.758770 -1.368081 0.000000
vt 3.574531 -1.795197 0.000000
vt -3.574531 -1.795197 0.000000
vt 3.341951 -2.198036 0.000000
vt -3.341951 -2.198036 0.000000
vt 3.064178 -2.571150 0.000000
vt -3.064178 -2.571150 0.000000
vt 2.744967 -2.909495 0.000000
vt -2.744967 -2.909495 0.000000
vt 2.388634 -3.208493 0.000000
vt -2.388634 -3.208493 0.000000
vt 2.000000 -3.464102 0.000000
vt -2.000000 -3.464102 0.000000
vt 1.584319 -3.672864 0.000000
vt -1.584319 -3.672864 0.000000
vt 1.147213 -3.831958 0.000000
vt -1.147213 -3.831958 0.000000
vt 0.694593 -3.939231 0.000000
vt -0.694593 -3.939231 0.000000
vt 0.232579 -3.993233 0.000000
vt -0.232579 -3.993233 0.000000
vt -3.892179 0.922463 0.000000
vt 3.892179 0.922463 0.000000
vt -3.758770 1.368081 0.000000
vt 3.758770 1.368081 0.000000
vt -3.574531 1.795197 0.000000
vt 3.574531 1.795197 0.000000
vt -3.341951 2.198036 0.000000
vt 3.341951 2.198036 0.000000
vt -3.064178 2.571150 0.000000
vt 3.064178 2.571150 0.000000
vt -2.744967 2.909495 0.000000
vt 2.744967 2.909495 0.000000
vt -2.388634 3.208493 0.000000
vt 2.388634 3.208493 0.000000
vt -2.000000 3.464102 0.000000
vt 2.000000 3.464102 0.000000
vt -1.584319 3.672864 0.000000
vt 1.584319 3.672864 0.000000
vt -1.147213 3.831958 0.000000
vt 1.147213 3.831958 0.000000
vt -0.694593 3.939231 0.000000
vt 0.694593 3.939231 0.000000
vt -0.232579 3.993233 0.000000
vt 0.232579 3.993233 0.000000
vn -0.000000 -5.814483 99.830816
vn -0.000000 -5.814483 99.830816
vn -0.000000 -17.364818 98.480775
vn -0.000000 -17.364818 98.480775
vn -0.000000 -28.680323 95.798951
vn -0.000000 -28.680323 95.798951
vn -0.000000 -39.607977 91.821611
vn -0.000000 -39.607977 91.821611
vn -0.000000 -50.000000 86.602540
vn -0.000000 -50.000000 86.602540
vn -0.000000 -59.715859 80.212319
vn -0.000000 -59.715859 80.212319
vn -0.000000 -68.624164 72.737364
vn -0.000000 -68.624164 72.737364
vn -0.000000 -76.604444 64.278761
vn -0.000000 -76.604444 64.278761
vn -0.000000 -83.548781 54.950898
vn -0.000000 -83.548781 54.950898
vn -0.000000 -89.363264 44.879918
vn -0.000000 -89.363264 44.879918
vn -0.000000 -93.969262 34.202014
vn -0.000000 -93.969262 34.202014
vn -0.000000 -97.304487 23.061587
vn -0.000000 -97.304487 23.061587
vn -0.000000 -99.323836 11.609291
vn -0.000000 -99.323836 11.609291
vn 0.000000 -100.000000 -0.000000
vn 0.000000 -100.000000 -0.000000
vn 0.000000 -99.323836 -11.609291
vn 0.000000 -99.323836 -11.609291
vn 0.000000 -97.304487 -23.061587
vn 0.000000 -97.304487 -23.061587
vn 0.000000 -93.969262 -34.202014
vn 0.000000 -93.969262 -34.202014
vn 0.000000 -89.363264 -44.879918
vn 0.000000 -89.363264 -44.879918
vn 0.000000 -83.548781 -54.950898
vn 0.000000 -83.548781 -54.950898
vn 0.000000 -76.604444 -64.278761
vn 0.000000 -76.604444 -64.278761
vn 0.000000 -68.624164 -72.737364
vn 0.000000 -68.624164 -72.737364
vn 0.000000 -59.715859 -80.212319
vn 0.000000 -59.715859 -80.212319
vn 0.000000 -50.000000 -86.602540
vn 0.000000 -50.000000 -86.602540
vn 0.000000 -39.607977 -91.821611
vn 0.000000 -39.607977 -91.821611
vn 0.000000 -28.680323 -95.798951
vn 0.000000 -28.680323 -95.798951
vn 0.000000 -17.364818 -98.480775
vn 0.000000 -17.364818 -98.480775
vn 0.000000 -5.814483 -99.830816
vn 0.000000 -5.814483 -99.830816
vn 0.000000 5.814483 -99.830816
vn 0.000000 5.814483 -99.830816
vn 0.000000 17.364818 -98.480775
vn 0.000000 17.364818 -98.480775
vn 0.000000 28.680323 -95.798951
vn 0.000000 28.680323 -95.798951
vn 0.000000 39.607977 -91.821611
vn 0.000000 39.607977 -91.821611
vn 0.000000 50.000000 -86.602540
vn 0.000000 50.000000 -86.602540
vn 0.000000 59.715859 -80.212319
vn 0.000000 59.715859 -80.212319
vn 0.000000 68.624164 -72.737364
vn 0.000000 68.624164 -72.737364
vn 0.000000 76.604444 -64.278761
vn 0.000000 76.604444 -64.278761
vn 0.000000 83.548781 -54.950898
vn 0.000000 83.548781 -54.950898
vn 0.000000 89.363264 -44.879918
vn 0.000000 89.363264 -44.879918
vn 0.000000 93.969262 -34.202014
vn 0.000000 93.969262 -34.202014
vn 0.000000 97.304487 -23.061587
vn 0.000000 97.304487 -23.061587
vn 0.000000 99.323836 -11.609291
vn 0.000000 99.323836 -11.609291
vn -0.000000 100.000000 0.000000
vn -0.000000 100.000000 0.000000
vn -0.000000 99.323836 11.609291
vn -0.000000 99.323836 11.609291
vn -0.000000 97.304487 23.061587
vn -0.000000 97.304487 23.061587
vn -0.000000 93.969262 34.202014
vn -0.000000 93.969262 34.202014
vn -0.000000 89.363264 44.879918
vn -0.000000 89.363264 44.879918
vn -0.000000 83.548781 54.950898
vn -0.000000 83.548781 54.950898
vn -0.000000 76.604444 64.278761
vn -0.000000 76.604444 64.278761
vn -0.000000 68.624164 72.737364
vn -0.000000 68.624164 72.737364
vn -0.000000 59.715859 80.212319
vn -0.000000 59.715859 80.212319
vn -0.000000 50.000000 86.602540
vn -0.000000 50.000000 86.602540
vn -0.000000 39.607977 91.821611
vn -0.000000 39.607977 91.821611
vn -0.000000 28.680323 95.798951
vn -0.000000 28.680323 95.798951
vn -0.000000 17.364818 98.480775
vn -0.000000 17.364818 98.480775
vn -0.000000 5.814483 99.830816
vn -0.000000 5.814483 99.830816
vn -0.000000 -28.680323 95.798951
vn -0.000000 -17.364818 98.480775
vn -0.000000 -5.814483 99.830816
vn -0.000000 5.814483 99.830816
vn -0.000000 17.364818 98.480775
vn -0.000000 28.680323 95.798951
vn -0.000000 39.607977 91.821611
vn -0.000000 50.000000 86.602540
vn -0.000000 59.715859 80.212319
vn -0.000000 68.624164 72.737364
vn -0.000000 76.604444 64.278761
vn -0.000000 83.548781 54.950898
vn -0.000000 89.363264 44.879918
vn -0.000000 93.969262 34.202014
vn -0.000000 97.304487 23.061587
vn -0.000000 99.323836 11.609291
vn -0.000000 100.000000 0.000000
vn 0.000000 99.323836 -11.609291
vn 0.000000 97.304487 -23.061587
vn 0.000000 93.969262 -34.202014
vn 0.000000 89.363264 -44.879918
vn 0.000000 83.548781 -54.950898
vn 0.000000 76.604444 -64.278761
vn 0.000000 68.624164 -72.737364
vn 0.000000 59.715859 -80.212319
vn 0.000000 50.000000 -86.602540
vn 0.000000 39.607977 -91.821611
vn 0.000000 28.680323 -95.798951
vn 0.000000 17.364818 -98.480775
vn 0.000000 5.814483 -99.830816
vn 0.000000 -5.814483 -99.830816
vn 0.000000 -17.364818 -98.480775
vn 0.000000 -28.680323 -95.798951
vn 0.000000 -39.607977 -91.821611
vn 0.000000 -50.000000 -86.602540
vn 0.000000 -59.715859 -80.212319
vn 0.000000 -68.624164 -72.737364
vn 0.000000 -76.604444 -64.278761
vn 0.000000 -83.548781 -54.950898
vn 0.000000 -89.363264 -44.879918
vn 0.000000 -93.969262 -34.202014
vn 0.000000 -97.304487 -23.061587
vn 0.000000 -99.323836 -11.609291
vn 0.000000 -100.000000 -0.000000
vn -0.000000 -99.323836 11.609291
vn -0.000000 -97.304487 23.061587
vn -0.000000 -93.969262 34.202014
vn -0.000000 -89.363264 44.879918
vn -0.000000 -83.548781 54.950898
vn -0.000000 -76.604444 64.278761
vn -0.000000 -68.624164 72.737364
vn -0.000000 -59.715859 80.212319
vn -0.000000 -50.000000 86.602540
vn -0.000000 -39.607977 91.821611
vn 100.000000 0.000000 0.000000
vn 100.000000 0.000000 0.000000
vn 100.000000 0.000000 0.000000
vn 100.000000 0.000000 0.000000
vn 100.000000 0.000000 0.000000
vn 100.000000 0.000000 0.000000
vn 100.000000 0.000000 0.000000
vn 100.000000 0.000000 0.000000
vn 100.000000 0.000000 0.000000
vn 100.000000 0.000000 0.000000
vn 100.000000 0.000000 0.000000
vn 100.000000 0.000000 0.000000
vn 100.000000 0.000000 0.000000
vn 100.000000 0.000000 0.000000
vn 100.000000 0.000000 0.000000
vn 100.000000 0.000000 0.000000
vn 100.000000 0.000000 0.000000
vn 100.000000 0.000000 0.000000
vn 100.000000 0.000000 0.000000
vn 100.000000 0.000000 0.000000
vn 100.000000 0.000000 0.000000
vn 100.000000 0.000000 0.000000
vn 100.000000 0.000000 0.000000
vn 100.000000 0.000000 0.000000
vn 100.000000 0.000000 0.000000
vn 100.000000 0.000000 0.000000
vn 100.000000 0.000000 0.000000
vn 100.000000 0.000000 0.000000
vn 100.000000 0.000000 0.000000
vn 100.000000 0.000000 0.000000
vn 100.000000 0.000000 0.000000
vn 100.000000 0.000000 0.000000
vn 100.000000 0.000000 0.000000
vn 100.000000 0.000000 0.000000
vn 100.000000 0.000000 0.000000
vn 100.000000 0.000000 0.000000
vn 100.000000 0.000000 0.000000
vn 100.000000 0.000000 0.000000
vn 100.000000 0.000000 0.000000
vn 100.000000 0.000000 0.000000
vn 100.000000 0.000000 0.000000
vn 100.000000 0.000000 0.000000
vn 100.000000 0.000000 0.000000
vn 100.000000 0.000000 0.000000
vn 100.000000 0.000000 0.000000
vn 100.000000 0.000000 0.000000
vn 100.000000 0.000000 0.000000
vn 100.000000 0.000000 0.000000
vn 100.000000 0.000000 0.000000
vn 100.000000 0.000000 0.000000
vn 100.000000 0.000000 0.000000
vn 100.000000 0.000000 0.000000
vn 100.000000 0.000000 0.000000
vn 100.000000 0.000000 0.000000
vn -100.000000 -0.000000 -0.000000
vn -100.000000 -0.000000 -0.000000
vn -100.000000 -0.000000 -0.000000
vn -100.000000 -0.000000 -0.000000
vn -100.000000 -0.000000 -0.000000
vn -100.000000 -0.000000 -0.000000
vn -100.000000 -0.000000 -0.000000
vn -100.000000 -0.000000 -0.000000
vn -100.000000 -0.000000 -0.000000
vn -100.000000 -0.000000 -0.000000
vn -100.000000 -0.000000 -0.000000
vn -100.000000 -0.000000 -0.000000
vn -100.000000 -0.000000 -0.000000
vn -100.000000 -0.000000 -0.000000
vn -100.000000 -0.000000 -0.000000
vn -100.000000 -0.000000 -0.000000
vn -100.000000 -0.000000 -0.000000
vn -100.000000 -0.000000 -0.000000
vn -100.000000 -0.000000 -0.000000
vn -100.000000 -0.000000 -0.000000
vn -100.000000 -0.000000 -0.000000
vn -100.000000 -0.000000 -0.000000
vn -100.000000 -0.000000 -0.000000
vn -100.000000 -0.000000 -0.000000
vn -100.000000 -0.000000 -0.000000
vn -100.000000 -0.000000 -0.000000
vn -100.000000 -0.000000 -0.000000
vn -100.000000 -0.000000 -0.000000
vn -100.000000 -0.000000 -0.000000
vn -100.000000 -0.000000 -0.000000
vn -100.000000 -0.000000 -0.000000
vn -100.000000 -0.000000 -0.000000
vn -100.000000 -0.000000 -0.000000
vn -100.000000 -0.000000 -0.000000
vn -100.000000 -0.000000 -0.000000
vn -100.000000 -0.000000 -0.000000
vn -100.000000 -0.000000 -0.000000
vn -100.000000 -0.000000 -0.000000
vn -100.000000 -0.000000 -0.000000
vn -100.000000 -0.000000 -0.000000
vn -100.000000 -0.000000 -0.000000
vn -100.000000 -0.000000 -0.000000
vn -100.000000 -0.000000 -0.000000
vn -100.000000 -0.000000 -0.000000
vn -100.000000 -0.000000 -0.000000
vn -100.000000 -0.000000 -0.000000
vn -100.000000 -0.000000 -0.000000
vn -100.000000 -0.000000 -0.000000
vn -100.000000 -0.000000 -0.000000
vn -100.000000 -0.000000 -0.000000
vn -100.000000 -0.000000 -0.000000
vn -100.000000 -0.000000 -0.000000
vn -100.000000 -0.000000 -0.000000
vn -100.000000 -0.000000 -0.000000
f 164/274/271 272/275/272 163/276/273
f 163/276/273 272/275/272 273/277/274
f 163/276/273 273/277/274 216/278/275
f 216/278/275 273/277/274 324/279/276
f 216/278/275 324/279/276 215/280/277
f 215/280/277 324/279/276 323/281/278
f 215/280/277 323/281/278 214/282/279
f 214/282/279 323/281/278 322/283/280
f 214/282/279 322/283/280 213/284/281
f 213/284/281 322/283/280 321/285/282
f 213/284/281 321/285/282 212/286/283
f 212/286/283 321/285/282 320/287/284
f 212/286/283 320/287/284 211/288/285
f 211/288/285 320/287/284 319/289/286
f 211/288/285 319/289/286 210/290/287
f 210/290/287 319/289/286 318/291/288
f 210/290/287 318/291/288 209/292/289
f 209/292/289 318/291/288 317/293/290
f 209/292/289 317/293/290 208/294/291
f 208/294/291 317/293/290 316/295/292
f 208/294/291 316/295/292 207/296/293
f 207/296/293 316/295/292 315/297/294
f 207/296/293 315/297/294 206/298/295
f 206/298/295 315/297/294 314/299/296
f 206/298/295 314/299/296 205/300/297
f 205/300/297 314/299/296 313/301/298
f 205/300/297 313/301/298 204/302/299
f 204/302/299 313/301/298 312/303/300
f 204/302/299 312/303/300 203/304/301
f 203/304/301 312/303/300 311/305/302
f 203/304/301 311/305/302 202/306/303
f 202/306/303 311/305/302 310/307/304
f 202/306/303 310/307/304 201/308/305
f 201/308/305 310/307/304 309/309/306
f 201/308/305 309/309/306 200/310/307
f 200/310/307 309/309/306 308/311/308
f 200/310/307 308/311/308 199/312/309
f 199/312/309 308/311/308 307/313/310
f 199/312/309 307/313/310 198/314/311
f 198/314/311 307/313/310 306/315/312
f 198/314/311 306/315/312 197/316/313
f 197/316/313 306/315/312 305/317/314
f 197/316/313 305/317/314 196/318/315
f 196/318/315 305/317/314 304/319/316
f 196/318/315 304/319/316 195/320/317
f 195/320/317 304/319/316 303/321/318
f 195/320/317 303/321/318 194/322/319
f 194/322/319 303/321/318 302/323/320
f 194/322/319 302/323/320 193/324/321
f 193/324/321 302/323/320 301/325/322
f 193/324/321 301/325/322 192/326/323
f 192/326/323 301/325/322 300/327/324
f 192/326/323 300/327/324 191/328/325
f 191/328/325 300/327/324 299/329/326
f 191/328/325 299/329/326 190/330/327
f 190/330/327 299/329/326 271/331/328
f 190/332/327 271/333/328 189/334/329
f 189/334/329 271/333/328 298/335/330
f 189/334/329 298/335/330 188/336/331
f 188/336/331 298/335/330 297/337/332
f 188/336/331 297/337/332 187/338/333
f 187/338/333 297/337/332 296/339/334
f 187/338/333 296/339/334 186/340/335
f 186/340/335 296/339/334 295/341/336
f 186/340/335 295/341/336 185/342/337
f 185/342/337 295/341/336 294/343/338
f 185/342/337 294/343/338 184/344/339
f 184/344/339 294/343/338 293/345/340
f 184/344/339 293/345/340 183/346/341
f 183/346/341 293/345/340 292/347/342
f 183/346/341 292/347/342 182/348/343
f 182/348/343 292/347/342 291/349/344
f 182/348/343 291/349/344 181/350/345
f 181/350/345 291/349/344 290/351/346
f 181/350/345 290/351/346 180/352/347
f 180/352/347 290/351/346 289/353/348
f 180/352/347 289/353/348 179/354/349
f 179/354/349 289/353/348 288/355/350
f 179/354/349 288/355/350 178/356/351
f 178/356/351 288/355/350 287/357/352
f 178/356/351 287/357/352 177/358/353
f 177/358/353 287/357/352 286/359/354
f 177/358/353 286/359/354 176/360/355
f 176/360/355 286/359/354 285/361/356
f 176/360/355 285/361/356 175/362/357
f 175/362/357 285/361/356 284/363/358
f 175/362/357 284/363/358 174/364/359
f 174/364/359 284/363/358 283/365/360
f 174/364/359 283/365/360 173/366/361
f 173/366/361 283/365/360 282/367/362
f 173/366/361 282/367/362 172/368/363
f 172/368/363 282/367/362 281/369/364
f 172/368/363 281/369/364 171/370/365
f 171/370/365 281/369/364 280/371/366
f 171/370/365 280/371/366 170/372/367
f 170/372/367 280/371/366 279/373/368
f 170/372/367 279/373/368 169/374/369
f 169/374/369 279/373/368 278/375/370
f 169/374/369 278/375/370 168/376/371
f 168/376/371 278/375/370 277/377/372
f 168/376/371 277/377/372 167/378/373
f 167/378/373 277/377/372 276/379/374
f 167/378/373 276/379/374 166/380/375
f 166/380/375 276/379/374 275/381/376
f 166/380/375 275/381/376 165/382/377
f 165/382/377 275/381/376 274/383/378
f 165/382/377 274/383/378 164/274/271
f 164/274/271 274/383/378 272/275/272
f 218/384/379 324/279/276 217/385/380
f 217/385/380 324/279/276 273/277/274
f 217/385/380 273/277/274 270/386/381
f 270/386/381 273/277/274 272/275/272
f 270/386/381 272/275/272 269/387/382
f 269/387/382 272/275/272 274/383/378
f 269/387/382 274/383/378 268/388/383
f 268/388/383 274/383/378 275/381/376
f 268/388/383 275/381/376 267/389/384
f 267/389/384 275/381/376 276/379/374
f 267/389/384 276/379/374 266/390/385
f 266/390/385 276/379/374 277/377/372
f 266/390/385 277/377/372 265/391/386
f 265/391/386 277/377/372 278/375/370
f 265/391/386 278/375/370 264/392/387
f 264/392/387 278/375/370 279/373/368
f 264/392/387 279/373/368 263/393/388
f 263/393/388 279/373/368 280/371/366
f 263/393/388 280/371/366 262/394/389
f 262/394/389 280/371/366 281/369/364
f 262/394/389 281/369/364 261/395/390
f 261/395/390 281/369/364 282/367/362
f 261/395/390 282/367/362 260/396/391
f 260/396/391 282/367/362 283/365/360
f 260/396/391 283/365/360 259/397/392
f 259/397/392 283/365/360 284/363/358
f 259/397/392 284/363/358 258/398/393
f 258/398/393 284/363/358 285/361/356
f 258/398/393 285/361/356 257/399/394
f 257/399/394 285/361/356 286/359/354
f 257/399/394 286/359/354 256/400/395
f 256/400/395 286/359/354 287/357/352
f 256/400/395 287/357/352 255/401/396
f 255/401/396 287/357/352 288/355/350
f 255/401/396 288/355/350 254/402/397
f 254/402/397 288/355/350 289/353/348
f 254/402/397 289/353/348 253/403/398
f 253/403/398 289/353/348 290/351/346
f 253/403/398 290/351/346 252/404/399
f 252/404/399 290/351/346 291/349/344
f 252/404/399 291/349/344 251/405/400
f 251/405/400 291/349/344 292/347/342
f 251/405/400 292/347/342 250/406/401
f 250/406/401 292/347/342 293/345/340
f 250/406/401 293/345/340 249/407/402
f 249/407/402 293/345/340 294/343/338
f 249/407/402 294/343/338 248/408/403
f 248/408/403 294/343/338 295/341/336
f 248/408/403 295/341/336 247/409/404
f 247/409/404 295/341/336 296/339/334
f 247/409/404 296/339/334 246/410/405
f 246/410/405 296/339/334 297/337/332
f 246/410/405 297/337/332 245/411/406
f 245/411/406 297/337/332 298/335/330
f 245/411/406 298/335/330 244/412/407
f 244/412/407 298/335/330 271/333/328
f 244/413/407 271/331/328 243/414/408
f 243/414/408 271/331/328 299/329/326
f 243/414/408 299/329/326 242/415/409
f 242/415/409 299/329/326 300/327/324
f 242/415/409 300/327/324 241/416/410
f 241/416/410 300/327/324 301/325/322
f 241/416/410 301/325/322 240/417/411
f 240/417/411 301/325/322 302/323/320
f 240/417/411 302/323/320 239/418/412
f 239/418/412 302/323/320 303/321/318
f 239/418/412 303/321/318 238/419/413
f 238/419/413 303/321/318 304/319/316
f 238/419/413 304/319/316 237/420/414
f 237/420/414 304/319/316 305/317/314
f 237/420/414 305/317/314 236/421/415
f 236/421/415 305/317/314 306/315/312
f 236/421/415 306/315/312 235/422/416
f 235/422/416 306/315/312 307/313/310
f 235/422/416 307/313/310 234/423/417
f 234/423/417 307/313/310 308/311/308
f 234/423/417 308/311/308 233/424/418
f 233/424/418 308/311/308 309/309/306
f 233/424/418 309/309/306 232/425/419
f 232/425/419 309/309/306 310/307/304
f 232/425/419 310/307/304 231/426/420
f 231/426/420 310/307/304 311/305/302
f 231/426/420 311/305/302 230/427/421
f 230/427/421 311/305/302 312/303/300
f 230/427/421 312/303/300 229/428/422
f 229/428/422 312/303/300 313/301/298
f 229/428/422 313/301/298 228/429/423
f 228/429/423 313/301/298 314/299/296
f 228/429/423 314/299/296 227/430/424
f 227/430/424 314/299/296 315/297/294
f 227/430/424 315/297/294 226/431/425
f 226/431/425 315/297/294 316/295/292
f 226/431/425 316/295/292 225/432/426
f 225/432/426 316/295/292 317/293/290
f 225/432/426 317/293/290 224/433/427
f 224/433/427 317/293/290 318/291/288
f 224/433/427 318/291/288 223/434/428
f 223/434/428 318/291/288 319/289/286
f 223/434/428 319/289/286 222/435/429
f 222/435/429 319/289/286 320/287/284
f 222/435/429 320/287/284 221/436/430
f 221/436/430 320/287/284 321/285/282
f 221/436/430 321/285/282 220/437/431
f 220/437/431 321/285/282 322/283/280
f 220/437/431 322/283/280 219/438/432
f 219/438/432 322/283/280 323/281/278
f 219/438/432 323/281/278 218/384/379
f 218/384/379 323/281/278 324/279/276
f 216/439/433 191/440/434 163/441/435
f 163/441/435 191/440/434 190/442/436
f 163/441/435 190/442/436 164/443/437
f 164/443/437 190/442/436 189/444/438
f 164/443/437 189/444/438 165/445/439
f 165/445/439 189/444/438 188/446/440
f 165/445/439 188/446/440 166/447/441
f 166/447/441 188/446/440 187/448/442
f 166/447/441 187/448/442 167/449/443
f 167/449/443 187/448/442 186/450/444
f 167/449/443 186/450/444 168/451/445
f 168/451/445 186/450/444 185/452/446
f 168/451/445 185/452/446 169/453/447
f 169/453/447 185/452/446 184/454/448
f 169/453/447 184/454/448 170/455/449
f 170/455/449 184/454/448 183/456/450
f 170/455/449 183/456/450 171/457/451
f 171/457/451 183/456/450 182/458/452
f 171/457/451 182/458/452 172/459/453
f 172/459/453 182/458/452 181/460/454
f 172/459/453 181/460/454 173/461/455
f 173/461/455 181/460/454 180/462/456
f 173/461/455 180/462/456 174/463/457
f 174/463/457 180/462/456 179/464/458
f 174/463/457 179/464/458 175/465/459
f 175/465/459 179/464/458 178/466/460
f 175/465/459 178/466/460 176/467/461
f 176/467/461 178/466/460 177/468/462
f 191/440/434 216/439/433 192/469/463
f 192/469/463 216/439/433 215/470/464
f 192/469/463 215/470/464 193/471/465
f 193/471/465 215/470/464 214/472/466
f 193/471/465 214/472/466 194/473/467
f 194/473/467 214/472/466 213/474/468
f 194/473/467 213/474/468 195/475/469
f 195/475/469 213/474/468 212/476/470
f 195/475/469 212/476/470 196/477/471
f 196/477/471 212/476/470 211/478/472
f 196/477/471 211/478/472 197/479/473
f 197/479/473 211/478/472 210/480/474
f 197/479/473 210/480/474 198/481/475
f 198/481/475 210/480/474 209/482/476
f 198/481/475 209/482/476 199/483/477
f 199/483/477 209/482/476 208/484/478
f 199/483/477 208/484/478 200/485/479
f 200/485/479 208/484/478 207/486/480
f 200/485/479 207/486/480 201/487/481
f 201/487/481 207/486/480 206/488/482
f 201/487/481 206/488/482 202/489/483
f 202/489/483 206/488/482 205/490/484
f 202/489/483 205/490/484 203/491/485
f 203/491/485 205/490/484 204/492/486
f 270/493/487 245/494/488 217/495/489
f 217/495/489 245/494/488 244/496/490
f 217/495/489 244/496/490 218/497/491
f 218/497/491 244/496/490 243/498/492
f 218/497/491 243/498/492 219/499/493
f 219/499/493 243/498/492 242/500/494
f 219/499/493 242/500/494 220/501/495
f 220/501/495 242/500/494 241/502/496
f 220/501/495 241/502/496 221/503/497
f 221/503/497 241/502/496 240/504/498
f 221/503/497 240/504/498 222/505/499
f 222/505/499 240/504/498 239/506/500
f 222/505/499 239/506/500 223/507/501
f 223/507/501 239/506/500 238/508/502
f 223/507/501 238/508/502 224/509/503
f 224/509/503 238/508/502 237/510/504
f 224/509/503 237/510/504 225/511/505
f 225/511/505 237/510/504 236/512/506
f 225/511/505 236/512/506 226/513/507
f 226/513/507 236/512/506 235/514/508
f 226/513/507 235/514/508 227/515/509
f 227/515/509 235/514/508 234/516/510
f 227/515/509 234/516/510 228/517/511
f 228/517/511 234/516/510 233/518/512
f 228/517/511 233/518/512 229/519/513
f 229/519/513 233/518/512 232/520/514
f 229/519/513 232/520/514 230/521/515
f 230/521/515 232/520/514 231/522/516
f 245/494/488 270/493/487 246/523/517
f 246/523/517 270/493/487 269/524/518
f 246/523/517 269/524/518 247/525/519
f 247/525/519 269/524/518 268/526/520
f 247/525/519 268/526/520 248/527/521
f 248/527/521 268/526/520 267/528/522
f 248/527/521 267/528/522 249/529/523
f 249/529/523 267/528/522 266/530/524
f 249/529/523 266/530/524 250/531/525
f 250/531/525 266/530/524 265/532/526
f 250/531/525 265/532/526 251/533/527
f 251/533/527 265/532/526 264/534/528
f 251/533/527 264/534/528 252/535/529
f 252/535/529 264/534/528 263/536/530
f 252/535/529 263/536/530 253/537/531
f 253/537/531 263/536/530 262/538/532
f 253/537/531 262/538/532 254/539/533
f 254/539/533 262/538/532 261/540/534
f 254/539/533 261/540/534 255/541/535
f 255/541/535 261/540/534 260/542/536
f 255/541/535 260/542/536 256/543/537
f 256/543/537 260/542/536 259/544/538
f 256/543/537 259/544/538 257/545/539
f 257/545/539 259/544/538 258/546/540
# 324 vertices
# 546 texture params
# 540 normals
# 640 facets

# 2 groups
