# WaveFront *.obj file (generated by Autodesk ATF)

mtllib neck.mtl

g Body1

v 0.035355 -0.035355 0.026182
v 0.039668 -0.030438 0.026182
v 0.043301 -0.025000 0.026182
v 0.046194 -0.019134 0.026182
v 0.048296 -0.012941 0.026182
v 0.049572 -0.006526 0.026182
v 0.050000 -0.000000 0.026182
v 0.049572 0.006526 0.026182
v 0.048296 0.012941 0.026182
v 0.046194 0.019134 0.026182
v 0.043301 0.025000 0.026182
v 0.039668 0.030438 0.026182
v 0.035355 0.035355 0.026182
v 0.030438 0.039668 0.026182
v 0.025000 0.043301 0.026182
v 0.019134 0.046194 0.026182
v 0.012941 0.048296 0.026182
v 0.006526 0.049572 0.026182
v -0.000000 0.050000 0.026182
v -0.006526 0.049572 0.026182
v -0.012941 0.048296 0.026182
v -0.019134 0.046194 0.026182
v -0.025000 0.043301 0.026182
v -0.030438 0.039668 0.026182
v -0.035355 0.035355 0.026182
v -0.039668 0.030438 0.026182
v -0.043301 0.025000 0.026182
v -0.046194 0.019134 0.026182
v -0.048296 0.012941 0.026182
v -0.049572 0.006526 0.026182
v -0.050000 -0.000000 0.026182
v -0.049572 -0.006526 0.026182
v -0.048296 -0.012941 0.026182
v -0.046194 -0.019134 0.026182
v -0.043301 -0.025000 0.026182
v -0.039668 -0.030438 0.026182
v -0.035355 -0.035355 0.026182
v -0.030438 -0.039668 0.026182
v -0.025000 -0.043301 0.026182
v -0.019134 -0.046194 0.026182
v -0.012941 -0.048296 0.026182
v -0.006526 -0.049572 0.026182
v -0.000000 -0.050000 0.026182
v 0.006526 -0.049572 0.026182
v 0.012941 -0.048296 0.026182
v 0.019134 -0.046194 0.026182
v 0.025000 -0.043301 0.026182
v 0.030438 -0.039668 0.026182
v 0.030000 -0.030000 0.010000
v 0.030000 0.000000 0.010000
v 0.030000 0.030000 0.010000
v 0.031339 0.031339 0.014045
v 0.032678 0.032678 0.018091
v 0.034017 0.034017 0.022136
v 0.034017 -0.034017 0.022136
v 0.032678 -0.032678 0.018091
v 0.031339 -0.031339 0.014045
v 0.030956 0.028122 0.012023
v 0.031220 0.025556 0.012023
v 0.031682 0.020375 0.012023
v 0.031916 0.017202 0.012023
v 0.032112 0.014012 0.012023
v 0.032269 0.010807 0.012023
v 0.032386 0.007591 0.012023
v 0.032462 0.004367 0.012023
v 0.032497 0.001139 0.012023
v 0.032491 -0.002091 0.012023
v 0.032443 -0.005318 0.012023
v 0.032355 -0.008540 0.012023
v 0.032226 -0.011753 0.012023
v 0.032058 -0.014954 0.012023
v 0.031851 -0.018139 0.012023
v 0.031606 -0.021307 0.012023
v 0.031327 -0.024452 0.012023
v 0.031014 -0.027574 0.012023
v 0.032867 0.029489 0.016068
v 0.033661 0.026914 0.016068
v 0.035047 0.021616 0.016068
v 0.035748 0.018317 0.016068
v 0.036335 0.014965 0.016068
v 0.036806 0.011570 0.016068
v 0.037157 0.008141 0.016068
v 0.037386 0.004689 0.016068
v 0.037492 0.001223 0.016068
v 0.037473 -0.002246 0.016068
v 0.037330 -0.005709 0.016068
v 0.037065 -0.009155 0.016068
v 0.036679 -0.012575 0.016068
v 0.036174 -0.015958 0.016068
v 0.035552 -0.019295 0.016068
v 0.034819 -0.022577 0.016068
v 0.033981 -0.025796 0.016068
v 0.033042 -0.028942 0.016068
v 0.032028 -0.028258 0.014045
v 0.032654 -0.025124 0.014045
v 0.033213 -0.021942 0.014045
v 0.033701 -0.018717 0.014045
v 0.034116 -0.015456 0.014045
v 0.034453 -0.012164 0.014045
v 0.034710 -0.008848 0.014045
v 0.034887 -0.005513 0.014045
v 0.034982 -0.002168 0.014045
v 0.034995 0.001181 0.014045
v 0.034924 0.004528 0.014045
v 0.034771 0.007866 0.014045
v 0.034537 0.011188 0.014045
v 0.034223 0.014488 0.014045
v 0.033832 0.017760 0.014045
v 0.033365 0.020996 0.014045
v 0.032441 0.026235 0.014045
v 0.031911 0.028805 0.014045
v 0.034778 0.030856 0.020114
v 0.036102 0.028272 0.020114
v 0.038412 0.022857 0.020114
v 0.039579 0.019432 0.020114
v 0.040558 0.015919 0.020114
v 0.041343 0.012333 0.020114
v 0.041928 0.008692 0.020114
v 0.042311 0.005011 0.020114
v 0.042487 0.001308 0.020114
v 0.042454 -0.002401 0.020114
v 0.042216 -0.006099 0.020114
v 0.041775 -0.009770 0.020114
v 0.041132 -0.013397 0.020114
v 0.040290 -0.016963 0.020114
v 0.039254 -0.020451 0.020114
v 0.038032 -0.023848 0.020114
v 0.036635 -0.027139 0.020114
v 0.035070 -0.030310 0.020114
v 0.034056 -0.029626 0.018091
v 0.035308 -0.026468 0.018091
v 0.036426 -0.023213 0.018091
v 0.037403 -0.019873 0.018091
v 0.038232 -0.016460 0.018091
v 0.038905 -0.012986 0.018091
v 0.039420 -0.009463 0.018091
v 0.039773 -0.005904 0.018091
v 0.039964 -0.002323 0.018091
v 0.039989 0.001266 0.018091
v 0.039849 0.004850 0.018091
v 0.039542 0.008417 0.018091
v 0.039074 0.011951 0.018091
v 0.038447 0.015442 0.018091
v 0.037663 0.018874 0.018091
v 0.036729 0.022237 0.018091
v 0.034882 0.027593 0.018091
v 0.033822 0.030172 0.018091
v 0.036084 -0.030994 0.022136
v 0.037962 -0.027811 0.022136
v 0.039639 -0.024484 0.022136
v 0.041104 -0.021029 0.022136
v 0.042348 -0.017465 0.022136
v 0.043358 -0.013808 0.022136
v 0.044130 -0.010078 0.022136
v 0.044660 -0.006295 0.022136
v 0.044945 -0.002479 0.022136
v 0.044984 0.001350 0.022136
v 0.044773 0.005172 0.022136
v 0.044314 0.008967 0.022136
v 0.043611 0.012715 0.022136
v 0.042670 0.016395 0.022136
v 0.041495 0.019989 0.022136
v 0.040094 0.023478 0.022136
v 0.037322 0.028951 0.022136
v 0.035733 0.031539 0.022136
v -0.030000 -0.030000 0.010000
v 0.000000 -0.030000 0.010000
v -0.034017 -0.034017 0.022136
v -0.032678 -0.032678 0.018091
v -0.031339 -0.031339 0.014045
v 0.028122 -0.030956 0.012023
v 0.025556 -0.031220 0.012023
v 0.020375 -0.031682 0.012023
v 0.017202 -0.031916 0.012023
v 0.014012 -0.032112 0.012023
v 0.010807 -0.032269 0.012023
v 0.007591 -0.032386 0.012023
v 0.004367 -0.032462 0.012023
v 0.001139 -0.032497 0.012023
v -0.002091 -0.032491 0.012023
v -0.005318 -0.032443 0.012023
v -0.008540 -0.032355 0.012023
v -0.011753 -0.032226 0.012023
v -0.014954 -0.032058 0.012023
v -0.018139 -0.031851 0.012023
v -0.021307 -0.031606 0.012023
v -0.024452 -0.031327 0.012023
v -0.027574 -0.031014 0.012023
v 0.029489 -0.032867 0.016068
v 0.026914 -0.033661 0.016068
v 0.021616 -0.035047 0.016068
v 0.018317 -0.035748 0.016068
v 0.014965 -0.036335 0.016068
v 0.011570 -0.036806 0.016068
v 0.008141 -0.037157 0.016068
v 0.004689 -0.037386 0.016068
v 0.001223 -0.037492 0.016068
v -0.002246 -0.037473 0.016068
v -0.005709 -0.037330 0.016068
v -0.009155 -0.037065 0.016068
v -0.012575 -0.036679 0.016068
v -0.015958 -0.036174 0.016068
v -0.019295 -0.035552 0.016068
v -0.022577 -0.034819 0.016068
v -0.025796 -0.033981 0.016068
v -0.028942 -0.033042 0.016068
v -0.028258 -0.032028 0.014045
v -0.025124 -0.032654 0.014045
v -0.021942 -0.033213 0.014045
v -0.018717 -0.033701 0.014045
v -0.015456 -0.034116 0.014045
v -0.012164 -0.034453 0.014045
v -0.008848 -0.034710 0.014045
v -0.005513 -0.034887 0.014045
v -0.002168 -0.034982 0.014045
v 0.001181 -0.034995 0.014045
v 0.004528 -0.034924 0.014045
v 0.007866 -0.034771 0.014045
v 0.011188 -0.034537 0.014045
v 0.014488 -0.034223 0.014045
v 0.017760 -0.033832 0.014045
v 0.020996 -0.033365 0.014045
v 0.026235 -0.032441 0.014045
v 0.028805 -0.031911 0.014045
v 0.030856 -0.034778 0.020114
v 0.028272 -0.036102 0.020114
v 0.022857 -0.038412 0.020114
v 0.019432 -0.039579 0.020114
v 0.015919 -0.040558 0.020114
v 0.012333 -0.041343 0.020114
v 0.008692 -0.041928 0.020114
v 0.005011 -0.042311 0.020114
v 0.001308 -0.042487 0.020114
v -0.002401 -0.042454 0.020114
v -0.006099 -0.042216 0.020114
v -0.009770 -0.041775 0.020114
v -0.013397 -0.041132 0.020114
v -0.016963 -0.040290 0.020114
v -0.020451 -0.039254 0.020114
v -0.023848 -0.038032 0.020114
v -0.027139 -0.036635 0.020114
v -0.030310 -0.035070 0.020114
v -0.029626 -0.034056 0.018091
v -0.026468 -0.035308 0.018091
v -0.023213 -0.036426 0.018091
v -0.019873 -0.037403 0.018091
v -0.016460 -0.038232 0.018091
v -0.012986 -0.038905 0.018091
v -0.009463 -0.039420 0.018091
v -0.005904 -0.039773 0.018091
v -0.002323 -0.039964 0.018091
v 0.001266 -0.039989 0.018091
v 0.004850 -0.039849 0.018091
v 0.008417 -0.039542 0.018091
v 0.011951 -0.039074 0.018091
v 0.015442 -0.038447 0.018091
v 0.018874 -0.037663 0.018091
v 0.022237 -0.036729 0.018091
v 0.027593 -0.034882 0.018091
v 0.030172 -0.033822 0.018091
v -0.030994 -0.036084 0.022136
v -0.027811 -0.037962 0.022136
v -0.024484 -0.039639 0.022136
v -0.021029 -0.041104 0.022136
v -0.017465 -0.042348 0.022136
v -0.013808 -0.043358 0.022136
v -0.010078 -0.044130 0.022136
v -0.006295 -0.044660 0.022136
v -0.002479 -0.044945 0.022136
v 0.001350 -0.044984 0.022136
v 0.005172 -0.044773 0.022136
v 0.008967 -0.044314 0.022136
v 0.012715 -0.043611 0.022136
v 0.016395 -0.042670 0.022136
v 0.019989 -0.041495 0.022136
v 0.023478 -0.040094 0.022136
v 0.028951 -0.037322 0.022136
v 0.031539 -0.035733 0.022136
v -0.030000 0.030000 0.010000
v -0.030000 0.000000 0.010000
v -0.034017 0.034017 0.022136
v -0.032678 0.032678 0.018091
v -0.031339 0.031339 0.014045
v -0.030956 -0.028122 0.012023
v -0.031220 -0.025556 0.012023
v -0.031682 -0.020375 0.012023
v -0.031916 -0.017202 0.012023
v -0.032112 -0.014012 0.012023
v -0.032269 -0.010807 0.012023
v -0.032386 -0.007591 0.012023
v -0.032462 -0.004367 0.012023
v -0.032497 -0.001139 0.012023
v -0.032491 0.002091 0.012023
v -0.032443 0.005318 0.012023
v -0.032355 0.008540 0.012023
v -0.032226 0.011753 0.012023
v -0.032058 0.014954 0.012023
v -0.031851 0.018139 0.012023
v -0.031606 0.021307 0.012023
v -0.031327 0.024452 0.012023
v -0.031014 0.027574 0.012023
v -0.032867 -0.029489 0.016068
v -0.033661 -0.026914 0.016068
v -0.035047 -0.021616 0.016068
v -0.035748 -0.018317 0.016068
v -0.036335 -0.014965 0.016068
v -0.036806 -0.011570 0.016068
v -0.037157 -0.008141 0.016068
v -0.037386 -0.004689 0.016068
v -0.037492 -0.001223 0.016068
v -0.037473 0.002246 0.016068
v -0.037330 0.005709 0.016068
v -0.037065 0.009155 0.016068
v -0.036679 0.012575 0.016068
v -0.036174 0.015958 0.016068
v -0.035552 0.019295 0.016068
v -0.034819 0.022577 0.016068
v -0.033981 0.025796 0.016068
v -0.033042 0.028942 0.016068
v -0.032028 0.028258 0.014045
v -0.032654 0.025124 0.014045
v -0.033213 0.021942 0.014045
v -0.033701 0.018717 0.014045
v -0.034116 0.015456 0.014045
v -0.034453 0.012164 0.014045
v -0.034710 0.008848 0.014045
v -0.034887 0.005513 0.014045
v -0.034982 0.002168 0.014045
v -0.034995 -0.001181 0.014045
v -0.034924 -0.004528 0.014045
v -0.034771 -0.007866 0.014045
v -0.034537 -0.011188 0.014045
v -0.034223 -0.014488 0.014045
v -0.033832 -0.017760 0.014045
v -0.033365 -0.020996 0.014045
v -0.032441 -0.026235 0.014045
v -0.031911 -0.028805 0.014045
v -0.034778 -0.030856 0.020114
v -0.036102 -0.028272 0.020114
v -0.038412 -0.022857 0.020114
v -0.039579 -0.019432 0.020114
v -0.040558 -0.015919 0.020114
v -0.041343 -0.012333 0.020114
v -0.041928 -0.008692 0.020114
v -0.042311 -0.005011 0.020114
v -0.042487 -0.001308 0.020114
v -0.042454 0.002401 0.020114
v -0.042216 0.006099 0.020114
v -0.041775 0.009770 0.020114
v -0.041132 0.013397 0.020114
v -0.040290 0.016963 0.020114
v -0.039254 0.020451 0.020114
v -0.038032 0.023848 0.020114
v -0.036635 0.027139 0.020114
v -0.035070 0.030310 0.020114
v -0.034056 0.029626 0.018091
v -0.035308 0.026468 0.018091
v -0.036426 0.023213 0.018091
v -0.037403 0.019873 0.018091
v -0.038232 0.016460 0.018091
v -0.038905 0.012986 0.018091
v -0.039420 0.009463 0.018091
v -0.039773 0.005904 0.018091
v -0.039964 0.002323 0.018091
v -0.039989 -0.001266 0.018091
v -0.039849 -0.004850 0.018091
v -0.039542 -0.008417 0.018091
v -0.039074 -0.011951 0.018091
v -0.038447 -0.015442 0.018091
v -0.037664 -0.018874 0.018091
v -0.036729 -0.022237 0.018091
v -0.034882 -0.027593 0.018091
v -0.033822 -0.030172 0.018091
v -0.036084 0.030994 0.022136
v -0.037962 0.027811 0.022136
v -0.039639 0.024484 0.022136
v -0.041104 0.021029 0.022136
v -0.042348 0.017465 0.022136
v -0.043358 0.013808 0.022136
v -0.044130 0.010078 0.022136
v -0.044660 0.006295 0.022136
v -0.044945 0.002479 0.022136
v -0.044984 -0.001350 0.022136
v -0.044773 -0.005172 0.022136
v -0.044314 -0.008967 0.022136
v -0.043611 -0.012715 0.022136
v -0.042670 -0.016395 0.022136
v -0.041495 -0.019989 0.022136
v -0.040094 -0.023478 0.022136
v -0.037322 -0.028951 0.022136
v -0.035733 -0.031539 0.022136
v 0.000000 0.030000 0.010000
v -0.028122 0.030956 0.012023
v -0.025556 0.031220 0.012023
v -0.020375 0.031682 0.012023
v -0.017202 0.031916 0.012023
v -0.014012 0.032112 0.012023
v -0.010807 0.032269 0.012023
v -0.007591 0.032386 0.012023
v -0.004367 0.032462 0.012023
v -0.001139 0.032497 0.012023
v 0.002091 0.032491 0.012023
v 0.005318 0.032443 0.012023
v 0.008540 0.032355 0.012023
v 0.011753 0.032226 0.012023
v 0.014954 0.032058 0.012023
v 0.018139 0.031851 0.012023
v 0.021307 0.031606 0.012023
v 0.024452 0.031327 0.012023
v 0.027574 0.031014 0.012023
v -0.029489 0.032867 0.016068
v -0.026914 0.033661 0.016068
v -0.021616 0.035047 0.016068
v -0.018317 0.035748 0.016068
v -0.014965 0.036335 0.016068
v -0.011570 0.036806 0.016068
v -0.008141 0.037157 0.016068
v -0.004689 0.037386 0.016068
v -0.001223 0.037492 0.016068
v 0.002246 0.037473 0.016068
v 0.005709 0.037330 0.016068
v 0.009155 0.037065 0.016068
v 0.012575 0.036679 0.016068
v 0.015958 0.036174 0.016068
v 0.019295 0.035552 0.016068
v 0.022577 0.034819 0.016068
v 0.025796 0.033981 0.016068
v 0.028942 0.033042 0.016068
v 0.028258 0.032028 0.014045
v 0.025124 0.032654 0.014045
v 0.021942 0.033213 0.014045
v 0.018717 0.033701 0.014045
v 0.015456 0.034116 0.014045
v 0.012164 0.034453 0.014045
v 0.008848 0.034710 0.014045
v 0.005513 0.034887 0.014045
v 0.002168 0.034982 0.014045
v -0.001181 0.034995 0.014045
v -0.004528 0.034924 0.014045
v -0.007866 0.034771 0.014045
v -0.011188 0.034537 0.014045
v -0.014488 0.034223 0.014045
v -0.017760 0.033832 0.014045
v -0.020996 0.033365 0.014045
v -0.026235 0.032441 0.014045
v -0.028805 0.031911 0.014045
v -0.030856 0.034778 0.020114
v -0.028272 0.036102 0.020114
v -0.022857 0.038412 0.020114
v -0.019432 0.039579 0.020114
v -0.015919 0.040558 0.020114
v -0.012333 0.041343 0.020114
v -0.008692 0.041928 0.020114
v -0.005011 0.042311 0.020114
v -0.001308 0.042487 0.020114
v 0.002401 0.042454 0.020114
v 0.006099 0.042216 0.020114
v 0.009770 0.041775 0.020114
v 0.013397 0.041132 0.020114
v 0.016963 0.040290 0.020114
v 0.020451 0.039254 0.020114
v 0.023848 0.038032 0.020114
v 0.027139 0.036635 0.020114
v 0.030310 0.035070 0.020114
v 0.029626 0.034056 0.018091
v 0.026468 0.035308 0.018091
v 0.023213 0.036426 0.018091
v 0.019873 0.037403 0.018091
v 0.016460 0.038232 0.018091
v 0.012986 0.038905 0.018091
v 0.009463 0.039420 0.018091
v 0.005904 0.039773 0.018091
v 0.002323 0.039964 0.018091
v -0.001266 0.039989 0.018091
v -0.004850 0.039849 0.018091
v -0.008417 0.039542 0.018091
v -0.011951 0.039074 0.018091
v -0.015442 0.038447 0.018091
v -0.018874 0.037663 0.018091
v -0.022237 0.036729 0.018091
v -0.027593 0.034882 0.018091
v -0.030172 0.033822 0.018091
v 0.030994 0.036084 0.022136
v 0.027811 0.037962 0.022136
v 0.024484 0.039639 0.022136
v 0.021029 0.041104 0.022136
v 0.017465 0.042348 0.022136
v 0.013808 0.043358 0.022136
v 0.010078 0.044130 0.022136
v 0.006295 0.044660 0.022136
v 0.002479 0.044945 0.022136
v -0.001350 0.044984 0.022136
v -0.005172 0.044773 0.022136
v -0.008967 0.044314 0.022136
v -0.012715 0.043611 0.022136
v -0.016395 0.042670 0.022136
v -0.019989 0.041495 0.022136
v -0.023478 0.040094 0.022136
v -0.028951 0.037322 0.022136
v -0.031539 0.035733 0.022136
v -0.030000 0.030000 0.000000
v 0.030000 0.030000 0.000000
v 0.030000 -0.030000 0.000000
v -0.030000 -0.030000 0.000000
vt 3.966767 -3.043807 0.000000
vt -3.966767 -3.043807 0.000000
vt 3.535534 -3.535534 0.000000
vt -3.535534 -3.535534 0.000000
vt 3.043807 -3.966767 0.000000
vt -3.043807 -3.966767 0.000000
vt 2.500000 -4.330127 0.000000
vt -2.500000 -4.330127 0.000000
vt 1.913417 -4.619398 0.000000
vt -1.913417 -4.619398 0.000000
vt 1.294095 -4.829629 0.000000
vt -1.294095 -4.829629 0.000000
vt 0.652631 -4.957224 0.000000
vt -0.652631 -4.957224 0.000000
vt 0.000000 -5.000000 0.000000
vt -4.330127 -2.500000 0.000000
vt 4.330127 -2.500000 0.000000
vt -4.619398 -1.913417 0.000000
vt 4.619398 -1.913417 0.000000
vt -4.829629 -1.294095 0.000000
vt 4.829629 -1.294095 0.000000
vt -4.957224 -0.652631 0.000000
vt 4.957224 -0.652631 0.000000
vt -5.000000 -0.000000 0.000000
vt 5.000000 0.000000 0.000000
vt -4.957224 0.652631 0.000000
vt 4.957224 0.652631 0.000000
vt -4.829629 1.294095 0.000000
vt 4.829629 1.294095 0.000000
vt -4.619398 1.913417 0.000000
vt 4.619398 1.913417 0.000000
vt -4.330127 2.500000 0.000000
vt 4.330127 2.500000 0.000000
vt -3.966767 3.043807 0.000000
vt 3.966767 3.043807 0.000000
vt -3.535534 3.535534 0.000000
vt 3.535534 3.535534 0.000000
vt -3.043807 3.966767 0.000000
vt 3.043807 3.966767 0.000000
vt -2.500000 4.330127 0.000000
vt 2.500000 4.330127 0.000000
vt -1.913417 4.619398 0.000000
vt 1.913417 4.619398 0.000000
vt -1.294095 4.829629 0.000000
vt 1.294095 4.829629 0.000000
vt -0.652631 4.957224 0.000000
vt 0.652631 4.957224 0.000000
vt 0.000000 5.000000 0.000000
vt -3.463495 0.000000 0.000000
vt -5.490962 0.321582 0.000000
vt -6.926991 0.000000 0.000000
vt -5.849969 0.321582 0.000000
vt -6.208976 0.321582 0.000000
vt -6.208976 0.643164 0.000000
vt -6.567983 0.643164 0.000000
vt -6.567983 0.964746 0.000000
vt -6.926991 0.643164 0.000000
vt -6.926991 1.286328 0.000000
vt -6.567983 1.286328 0.000000
vt -6.567983 1.607910 0.000000
vt -6.208976 1.286328 0.000000
vt -6.208976 1.607910 0.000000
vt -5.849969 1.286328 0.000000
vt -5.849969 1.607910 0.000000
vt -5.490962 1.286328 0.000000
vt -5.490962 1.607910 0.000000
vt -5.131954 1.286328 0.000000
vt -5.131954 1.607910 0.000000
vt -4.772947 1.286328 0.000000
vt -4.772947 1.607910 0.000000
vt -4.413940 1.286328 0.000000
vt -4.413940 1.607910 0.000000
vt -4.054932 1.286328 0.000000
vt -4.054932 1.607910 0.000000
vt -3.695925 1.286328 0.000000
vt -3.695925 1.607910 0.000000
vt -3.336918 1.286328 0.000000
vt -3.336918 1.607910 0.000000
vt -2.977910 1.286328 0.000000
vt -2.977910 1.607910 0.000000
vt -2.618903 1.286328 0.000000
vt -2.618903 1.607910 0.000000
vt -2.259896 1.286328 0.000000
vt -2.259896 1.607910 0.000000
vt -1.900888 1.286328 0.000000
vt -1.900888 1.607910 0.000000
vt -1.541881 1.286328 0.000000
vt -1.541881 1.607910 0.000000
vt -1.182874 1.286328 0.000000
vt -1.182874 1.607910 0.000000
vt -0.591437 1.286328 0.000000
vt -0.591437 1.607910 0.000000
vt -0.295718 1.286328 0.000000
vt -0.295718 1.607910 0.000000
vt -0.000000 1.286328 0.000000
vt -0.000000 1.929492 0.000000
vt -0.000000 0.000000 0.000000
vt -1.900888 0.321582 0.000000
vt -2.259896 0.321582 0.000000
vt -2.618903 0.321582 0.000000
vt -2.618903 0.643164 0.000000
vt -2.977910 0.643164 0.000000
vt -2.977910 0.964746 0.000000
vt -3.336918 0.964746 0.000000
vt -0.000000 0.643164 0.000000
vt -0.295718 0.321582 0.000000
vt -0.591437 0.321582 0.000000
vt -1.182874 0.321582 0.000000
vt -1.182874 0.643164 0.000000
vt -1.541881 0.643164 0.000000
vt -1.541881 0.964746 0.000000
vt -1.900888 0.964746 0.000000
vt -0.295718 0.964746 0.000000
vt -0.295718 0.643164 0.000000
vt -0.591437 0.643164 0.000000
vt -0.295718 1.929492 0.000000
vt -0.000000 2.572656 0.000000
vt -0.577262 2.572656 0.000000
vt -0.591437 1.929492 0.000000
vt -1.154487 2.572656 0.000000
vt -1.182874 1.929492 0.000000
vt -1.731747 2.572656 0.000000
vt -1.541881 1.929492 0.000000
vt -2.308999 2.572656 0.000000
vt -1.900888 1.929492 0.000000
vt -2.259896 1.929492 0.000000
vt -2.886244 2.572656 0.000000
vt -2.618903 1.929492 0.000000
vt -2.977910 1.929492 0.000000
vt -3.463513 2.572656 0.000000
vt -3.336918 1.929492 0.000000
vt -3.695925 1.929492 0.000000
vt -4.040746 2.572656 0.000000
vt -4.054932 1.929492 0.000000
vt -4.413940 1.929492 0.000000
vt -4.617974 2.572656 0.000000
vt -4.772947 1.929492 0.000000
vt -5.195248 2.572656 0.000000
vt -5.131954 1.929492 0.000000
vt -5.490962 1.929492 0.000000
vt -5.772505 2.572656 0.000000
vt -5.849969 1.929492 0.000000
vt -6.208976 1.929492 0.000000
vt -6.349723 2.572656 0.000000
vt -6.567983 1.929492 0.000000
vt -6.926991 2.572656 0.000000
vt -6.926991 1.929492 0.000000
vt -6.567983 0.321582 0.000000
vt -0.591437 0.964746 0.000000
vt -1.182874 0.964746 0.000000
vt -1.541881 0.321582 0.000000
vt -1.900888 0.643164 0.000000
vt -2.259896 0.643164 0.000000
vt -2.259896 0.964746 0.000000
vt -2.977910 0.321582 0.000000
vt -3.336918 0.321582 0.000000
vt -3.695925 0.321582 0.000000
vt -3.695925 0.643164 0.000000
vt -4.054932 0.643164 0.000000
vt -4.054932 0.964746 0.000000
vt -4.413940 0.964746 0.000000
vt -3.336918 0.643164 0.000000
vt -4.054932 0.321582 0.000000
vt -4.413940 0.321582 0.000000
vt -4.772947 0.321582 0.000000
vt -4.772947 0.643164 0.000000
vt -5.131954 0.643164 0.000000
vt -5.131954 0.964746 0.000000
vt -5.490962 0.964746 0.000000
vt -4.413940 0.643164 0.000000
vt -5.131954 0.321582 0.000000
vt -5.490962 0.643164 0.000000
vt -5.849969 0.643164 0.000000
vt -5.849969 0.964746 0.000000
vt -2.618903 0.964746 0.000000
vt -3.695925 0.964746 0.000000
vt -4.772947 0.964746 0.000000
vt -6.208976 0.964746 0.000000
vt -3.463495 0.000000 0.000000
vt -5.490962 0.321582 0.000000
vt -6.926991 0.000000 0.000000
vt -5.849969 0.321582 0.000000
vt -6.208976 0.321582 0.000000
vt -6.208976 0.643164 0.000000
vt -6.567983 0.643164 0.000000
vt -6.567983 0.964746 0.000000
vt -6.926991 0.643164 0.000000
vt -6.926991 1.286328 0.000000
vt -6.567983 1.286328 0.000000
vt -6.567983 1.607910 0.000000
vt -6.208976 1.286328 0.000000
vt -6.208976 1.607910 0.000000
vt -5.849969 1.286328 0.000000
vt -5.849969 1.607910 0.000000
vt -5.490962 1.286328 0.000000
vt -5.490962 1.607910 0.000000
vt -5.131954 1.286328 0.000000
vt -5.131954 1.607910 0.000000
vt -4.772947 1.286328 0.000000
vt -4.772947 1.607910 0.000000
vt -4.413940 1.286328 0.000000
vt -4.413940 1.607910 0.000000
vt -4.054932 1.286328 0.000000
vt -4.054932 1.607910 0.000000
vt -3.695925 1.286328 0.000000
vt -3.695925 1.607910 0.000000
vt -3.336918 1.286328 0.000000
vt -3.336918 1.607910 0.000000
vt -2.977910 1.286328 0.000000
vt -2.977910 1.607910 0.000000
vt -2.618903 1.286328 0.000000
vt -2.618903 1.607910 0.000000
vt -2.259896 1.286328 0.000000
vt -2.259896 1.607910 0.000000
vt -1.900888 1.286328 0.000000
vt -1.900888 1.607910 0.000000
vt -1.541881 1.286328 0.000000
vt -1.541881 1.607910 0.000000
vt -1.182874 1.286328 0.000000
vt -1.182874 1.607910 0.000000
vt -0.591437 1.286328 0.000000
vt -0.591437 1.607910 0.000000
vt -0.295718 1.286328 0.000000
vt -0.295718 1.607910 0.000000
vt -0.000000 1.286328 0.000000
vt -0.000000 1.929492 0.000000
vt -0.000000 0.000000 0.000000
vt -1.900888 0.321582 0.000000
vt -2.259896 0.321582 0.000000
vt -2.618903 0.321582 0.000000
vt -2.618903 0.643164 0.000000
vt -2.977910 0.643164 0.000000
vt -2.977910 0.964746 0.000000
vt -3.336918 0.964746 0.000000
vt -0.000000 0.643164 0.000000
vt -0.295718 0.321582 0.000000
vt -0.591437 0.321582 0.000000
vt -1.182874 0.321582 0.000000
vt -1.182874 0.643164 0.000000
vt -1.541881 0.643164 0.000000
vt -1.541881 0.964746 0.000000
vt -1.900888 0.964746 0.000000
vt -0.295718 0.964746 0.000000
vt -0.295718 0.643164 0.000000
vt -0.591437 0.643164 0.000000
vt -0.295718 1.929492 0.000000
vt -0.000000 2.572656 0.000000
vt -0.577262 2.572656 0.000000
vt -0.591437 1.929492 0.000000
vt -1.154487 2.572656 0.000000
vt -1.182874 1.929492 0.000000
vt -1.731747 2.572656 0.000000
vt -1.541881 1.929492 0.000000
vt -2.308999 2.572656 0.000000
vt -1.900888 1.929492 0.000000
vt -2.259896 1.929492 0.000000
vt -2.886244 2.572656 0.000000
vt -2.618903 1.929492 0.000000
vt -2.977910 1.929492 0.000000
vt -3.463513 2.572656 0.000000
vt -3.336918 1.929492 0.000000
vt -3.695925 1.929492 0.000000
vt -4.040746 2.572656 0.000000
vt -4.054932 1.929492 0.000000
vt -4.413940 1.929492 0.000000
vt -4.617974 2.572656 0.000000
vt -4.772947 1.929492 0.000000
vt -5.195248 2.572656 0.000000
vt -5.131954 1.929492 0.000000
vt -5.490962 1.929492 0.000000
vt -5.772505 2.572656 0.000000
vt -5.849969 1.929492 0.000000
vt -6.208976 1.929492 0.000000
vt -6.349723 2.572656 0.000000
vt -6.567983 1.929492 0.000000
vt -6.926991 2.572656 0.000000
vt -6.926991 1.929492 0.000000
vt -6.567983 0.321582 0.000000
vt -0.591437 0.964746 0.000000
vt -1.182874 0.964746 0.000000
vt -1.541881 0.321582 0.000000
vt -1.900888 0.643164 0.000000
vt -2.259896 0.643164 0.000000
vt -2.259896 0.964746 0.000000
vt -2.977910 0.321582 0.000000
vt -3.336918 0.321582 0.000000
vt -3.695925 0.321582 0.000000
vt -3.695925 0.643164 0.000000
vt -4.054932 0.643164 0.000000
vt -4.054932 0.964746 0.000000
vt -4.413940 0.964746 0.000000
vt -3.336918 0.643164 0.000000
vt -4.054932 0.321582 0.000000
vt -4.413940 0.321582 0.000000
vt -4.772947 0.321582 0.000000
vt -4.772947 0.643164 0.000000
vt -5.131954 0.643164 0.000000
vt -5.131954 0.964746 0.000000
vt -5.490962 0.964746 0.000000
vt -4.413940 0.643164 0.000000
vt -5.131954 0.321582 0.000000
vt -5.490962 0.643164 0.000000
vt -5.849969 0.643164 0.000000
vt -5.849969 0.964746 0.000000
vt -2.618903 0.964746 0.000000
vt -3.695925 0.964746 0.000000
vt -4.772947 0.964746 0.000000
vt -6.208976 0.964746 0.000000
vt -3.463495 0.000000 0.000000
vt -5.490962 0.321582 0.000000
vt -6.926991 0.000000 0.000000
vt -5.849969 0.321582 0.000000
vt -6.208976 0.321582 0.000000
vt -6.208976 0.643164 0.000000
vt -6.567983 0.643164 0.000000
vt -6.567983 0.964746 0.000000
vt -6.926991 0.643164 0.000000
vt -6.926991 1.286328 0.000000
vt -6.567983 1.286328 0.000000
vt -6.567983 1.607910 0.000000
vt -6.208976 1.286328 0.000000
vt -6.208976 1.607910 0.000000
vt -5.849969 1.286328 0.000000
vt -5.849969 1.607910 0.000000
vt -5.490962 1.286328 0.000000
vt -5.490962 1.607910 0.000000
vt -5.131954 1.286328 0.000000
vt -5.131954 1.607910 0.000000
vt -4.772947 1.286328 0.000000
vt -4.772947 1.607910 0.000000
vt -4.413940 1.286328 0.000000
vt -4.413940 1.607910 0.000000
vt -4.054932 1.286328 0.000000
vt -4.054932 1.607910 0.000000
vt -3.695925 1.286328 0.000000
vt -3.695925 1.607910 0.000000
vt -3.336918 1.286328 0.000000
vt -3.336918 1.607910 0.000000
vt -2.977910 1.286328 0.000000
vt -2.977910 1.607910 0.000000
vt -2.618903 1.286328 0.000000
vt -2.618903 1.607910 0.000000
vt -2.259896 1.286328 0.000000
vt -2.259896 1.607910 0.000000
vt -1.900888 1.286328 0.000000
vt -1.900888 1.607910 0.000000
vt -1.541881 1.286328 0.000000
vt -1.541881 1.607910 0.000000
vt -1.182874 1.286328 0.000000
vt -1.182874 1.607910 0.000000
vt -0.591437 1.286328 0.000000
vt -0.591437 1.607910 0.000000
vt -0.295718 1.286328 0.000000
vt -0.295718 1.607910 0.000000
vt -0.000000 1.286328 0.000000
vt -0.000000 1.929492 0.000000
vt -0.000000 0.000000 0.000000
vt -1.900888 0.321582 0.000000
vt -2.259896 0.321582 0.000000
vt -2.618903 0.321582 0.000000
vt -2.618903 0.643164 0.000000
vt -2.977910 0.643164 0.000000
vt -2.977910 0.964746 0.000000
vt -3.336918 0.964746 0.000000
vt -0.000000 0.643164 0.000000
vt -0.295718 0.321582 0.000000
vt -0.591437 0.321582 0.000000
vt -1.182874 0.321582 0.000000
vt -1.182874 0.643164 0.000000
vt -1.541881 0.643164 0.000000
vt -1.541881 0.964746 0.000000
vt -1.900888 0.964746 0.000000
vt -0.295718 0.964746 0.000000
vt -0.295718 0.643164 0.000000
vt -0.591437 0.643164 0.000000
vt -0.295718 1.929492 0.000000
vt -0.000000 2.572657 0.000000
vt -0.577262 2.572657 0.000000
vt -0.591437 1.929492 0.000000
vt -1.154487 2.572657 0.000000
vt -1.182874 1.929492 0.000000
vt -1.731747 2.572657 0.000000
vt -1.541881 1.929492 0.000000
vt -2.308999 2.572657 0.000000
vt -1.900888 1.929492 0.000000
vt -2.259896 1.929492 0.000000
vt -2.886244 2.572657 0.000000
vt -2.618903 1.929492 0.000000
vt -2.977910 1.929492 0.000000
vt -3.463513 2.572657 0.000000
vt -3.336918 1.929492 0.000000
vt -3.695925 1.929492 0.000000
vt -4.040746 2.572657 0.000000
vt -4.054932 1.929492 0.000000
vt -4.413940 1.929492 0.000000
vt -4.617974 2.572657 0.000000
vt -4.772947 1.929492 0.000000
vt -5.195248 2.572657 0.000000
vt -5.131954 1.929492 0.000000
vt -5.490962 1.929492 0.000000
vt -5.772505 2.572657 0.000000
vt -5.849969 1.929492 0.000000
vt -6.208976 1.929492 0.000000
vt -6.349723 2.572657 0.000000
vt -6.567983 1.929492 0.000000
vt -6.926991 2.572657 0.000000
vt -6.926991 1.929492 0.000000
vt -6.567983 0.321582 0.000000
vt -0.591437 0.964746 0.000000
vt -1.182874 0.964746 0.000000
vt -1.541881 0.321582 0.000000
vt -1.900888 0.643164 0.000000
vt -2.259896 0.643164 0.000000
vt -2.259896 0.964746 0.000000
vt -2.977910 0.321582 0.000000
vt -3.336918 0.321582 0.000000
vt -3.695925 0.321582 0.000000
vt -3.695925 0.643164 0.000000
vt -4.054932 0.643164 0.000000
vt -4.054932 0.964746 0.000000
vt -4.413940 0.964746 0.000000
vt -3.336918 0.643164 0.000000
vt -4.054932 0.321582 0.000000
vt -4.413940 0.321582 0.000000
vt -4.772947 0.321582 0.000000
vt -4.772947 0.643164 0.000000
vt -5.131954 0.643164 0.000000
vt -5.131954 0.964746 0.000000
vt -5.490962 0.964746 0.000000
vt -4.413940 0.643164 0.000000
vt -5.131954 0.321582 0.000000
vt -5.490962 0.643164 0.000000
vt -5.849969 0.643164 0.000000
vt -5.849969 0.964746 0.000000
vt -2.618903 0.964746 0.000000
vt -3.695925 0.964746 0.000000
vt -4.772947 0.964746 0.000000
vt -6.208976 0.964746 0.000000
vt -3.463495 0.000000 0.000000
vt -5.490962 0.321582 0.000000
vt -6.926991 0.000000 0.000000
vt -5.849969 0.321582 0.000000
vt -6.208976 0.321582 0.000000
vt -6.208976 0.643164 0.000000
vt -6.567983 0.643164 0.000000
vt -6.567983 0.964746 0.000000
vt -6.926991 0.643164 0.000000
vt -6.926991 1.286328 0.000000
vt -6.567983 1.286328 0.000000
vt -6.567983 1.607910 0.000000
vt -6.208976 1.286328 0.000000
vt -6.208976 1.607910 0.000000
vt -5.849969 1.286328 0.000000
vt -5.849969 1.607910 0.000000
vt -5.490962 1.286328 0.000000
vt -5.490962 1.607910 0.000000
vt -5.131954 1.286328 0.000000
vt -5.131954 1.607910 0.000000
vt -4.772947 1.286328 0.000000
vt -4.772947 1.607910 0.000000
vt -4.413940 1.286328 0.000000
vt -4.413940 1.607910 0.000000
vt -4.054932 1.286328 0.000000
vt -4.054932 1.607910 0.000000
vt -3.695925 1.286328 0.000000
vt -3.695925 1.607910 0.000000
vt -3.336918 1.286328 0.000000
vt -3.336918 1.607910 0.000000
vt -2.977910 1.286328 0.000000
vt -2.977910 1.607910 0.000000
vt -2.618903 1.286328 0.000000
vt -2.618903 1.607910 0.000000
vt -2.259896 1.286328 0.000000
vt -2.259896 1.607910 0.000000
vt -1.900888 1.286328 0.000000
vt -1.900888 1.607910 0.000000
vt -1.541881 1.286328 0.000000
vt -1.541881 1.607910 0.000000
vt -1.182874 1.286328 0.000000
vt -1.182874 1.607910 0.000000
vt -0.591437 1.286328 0.000000
vt -0.591437 1.607910 0.000000
vt -0.295718 1.286328 0.000000
vt -0.295718 1.607910 0.000000
vt -0.000000 1.286328 0.000000
vt -0.000000 1.929492 0.000000
vt -0.000000 0.000000 0.000000
vt -1.900888 0.321582 0.000000
vt -2.259896 0.321582 0.000000
vt -2.618903 0.321582 0.000000
vt -2.618903 0.643164 0.000000
vt -2.977910 0.643164 0.000000
vt -2.977910 0.964746 0.000000
vt -3.336918 0.964746 0.000000
vt -0.000000 0.643164 0.000000
vt -0.295718 0.321582 0.000000
vt -0.591437 0.321582 0.000000
vt -1.182874 0.321582 0.000000
vt -1.182874 0.643164 0.000000
vt -1.541881 0.643164 0.000000
vt -1.541881 0.964746 0.000000
vt -1.900888 0.964746 0.000000
vt -0.295718 0.964746 0.000000
vt -0.295718 0.643164 0.000000
vt -0.591437 0.643164 0.000000
vt -0.295718 1.929492 0.000000
vt -0.000000 2.572656 0.000000
vt -0.577262 2.572656 0.000000
vt -0.591437 1.929492 0.000000
vt -1.154487 2.572656 0.000000
vt -1.182874 1.929492 0.000000
vt -1.731747 2.572656 0.000000
vt -1.541881 1.929492 0.000000
vt -2.308999 2.572656 0.000000
vt -1.900888 1.929492 0.000000
vt -2.259896 1.929492 0.000000
vt -2.886244 2.572656 0.000000
vt -2.618903 1.929492 0.000000
vt -2.977910 1.929492 0.000000
vt -3.463513 2.572656 0.000000
vt -3.336918 1.929492 0.000000
vt -3.695925 1.929492 0.000000
vt -4.040746 2.572656 0.000000
vt -4.054932 1.929492 0.000000
vt -4.413940 1.929492 0.000000
vt -4.617974 2.572656 0.000000
vt -4.772947 1.929492 0.000000
vt -5.195248 2.572656 0.000000
vt -5.131954 1.929492 0.000000
vt -5.490962 1.929492 0.000000
vt -5.772505 2.572656 0.000000
vt -5.849969 1.929492 0.000000
vt -6.208976 1.929492 0.000000
vt -6.349723 2.572656 0.000000
vt -6.567983 1.929492 0.000000
vt -6.926991 2.572656 0.000000
vt -6.926991 1.929492 0.000000
vt -6.567983 0.321582 0.000000
vt -0.591437 0.964746 0.000000
vt -1.182874 0.964746 0.000000
vt -1.541881 0.321582 0.000000
vt -1.900888 0.643164 0.000000
vt -2.259896 0.643164 0.000000
vt -2.259896 0.964746 0.000000
vt -2.977910 0.321582 0.000000
vt -3.336918 0.321582 0.000000
vt -3.695925 0.321582 0.000000
vt -3.695925 0.643164 0.000000
vt -4.054932 0.643164 0.000000
vt -4.054932 0.964746 0.000000
vt -4.413940 0.964746 0.000000
vt -3.336918 0.643164 0.000000
vt -4.054932 0.321582 0.000000
vt -4.413940 0.321582 0.000000
vt -4.772947 0.321582 0.000000
vt -4.772947 0.643164 0.000000
vt -5.131954 0.643164 0.000000
vt -5.131954 0.964746 0.000000
vt -5.490962 0.964746 0.000000
vt -4.413940 0.643164 0.000000
vt -5.131954 0.321582 0.000000
vt -5.490962 0.643164 0.000000
vt -5.849969 0.643164 0.000000
vt -5.849969 0.964746 0.000000
vt -2.618903 0.964746 0.000000
vt -3.695925 0.964746 0.000000
vt -4.772947 0.964746 0.000000
vt -6.208976 0.964746 0.000000
vt 3.000000 3.000000 0.000000
vt -3.000000 3.000000 0.000000
vt 3.000000 -3.000000 0.000000
vt -3.000000 -3.000000 0.000000
vt 0.500000 -3.000000 0.000000
vt 0.500000 -0.000000 0.000000
vt -0.500000 -3.000000 0.000000
vt -0.500000 3.000000 0.000000
vt 0.500000 3.000000 0.000000
vt -0.500000 3.000000 0.000000
vt -0.500000 0.000000 0.000000
vt 0.500000 3.000000 0.000000
vt 0.500000 -3.000000 0.000000
vt -0.500000 -3.000000 0.000000
vt -0.500000 3.000000 0.000000
vt -0.500000 -0.000000 0.000000
vt 0.500000 3.000000 0.000000
vt 0.500000 -3.000000 0.000000
vt -0.500000 -3.000000 0.000000
vt 0.500000 -3.000000 0.000000
vt 0.500000 0.000000 0.000000
vt -0.500000 -3.000000 0.000000
vt -0.500000 3.000000 0.000000
vt 0.500000 3.000000 0.000000
vn 0.000000 0.000000 100.000000
vn 0.000000 0.000000 100.000000
vn 0.000000 0.000000 100.000000
vn 0.000000 0.000000 100.000000
vn 0.000000 0.000000 100.000000
vn 0.000000 0.000000 100.000000
vn 0.000000 0.000000 100.000000
vn 0.000000 0.000000 100.000000
vn 0.000000 0.000000 100.000000
vn 0.000000 0.000000 100.000000
vn 0.000000 0.000000 100.000000
vn 0.000000 0.000000 100.000000
vn 0.000000 0.000000 100.000000
vn 0.000000 0.000000 100.000000
vn 0.000000 0.000000 100.000000
vn 0.000000 0.000000 100.000000
vn 0.000000 0.000000 100.000000
vn 0.000000 0.000000 100.000000
vn 0.000000 0.000000 100.000000
vn 0.000000 0.000000 100.000000
vn 0.000000 0.000000 100.000000
vn 0.000000 0.000000 100.000000
vn 0.000000 0.000000 100.000000
vn 0.000000 0.000000 100.000000
vn 0.000000 0.000000 100.000000
vn 0.000000 0.000000 100.000000
vn 0.000000 0.000000 100.000000
vn 0.000000 0.000000 100.000000
vn 0.000000 0.000000 100.000000
vn 0.000000 0.000000 100.000000
vn 0.000000 0.000000 100.000000
vn 0.000000 0.000000 100.000000
vn 0.000000 0.000000 100.000000
vn 0.000000 0.000000 100.000000
vn 0.000000 0.000000 100.000000
vn 0.000000 0.000000 100.000000
vn 0.000000 0.000000 100.000000
vn 0.000000 0.000000 100.000000
vn 0.000000 0.000000 100.000000
vn 0.000000 0.000000 100.000000
vn 0.000000 0.000000 100.000000
vn 0.000000 0.000000 100.000000
vn 0.000000 0.000000 100.000000
vn 0.000000 0.000000 100.000000
vn 0.000000 0.000000 100.000000
vn 0.000000 0.000000 100.000000
vn 0.000000 0.000000 100.000000
vn 0.000000 0.000000 100.000000
vn 62.903337 0.000000 -77.737830
vn 72.935407 -5.189783 -68.216512
vn 94.936138 0.000000 -31.418619
vn 77.156637 -6.408175 -63.291300
vn 82.157428 -7.772863 -56.477780
vn 80.288652 -15.073137 -57.676103
vn 85.341098 -18.069915 -48.891463
vn 82.437848 -26.188481 -50.181319
vn 90.429925 -21.322086 -36.983745
vn 82.445580 -39.630066 -40.400299
vn 79.182287 -33.546330 -51.037331
vn 75.733091 -40.115042 -51.529431
vn 75.740978 -28.000158 -58.985553
vn 73.252152 -33.591080 -59.209472
vn 72.539135 -23.061355 -64.855592
vn 70.801219 -27.738055 -64.944497
vn 69.764524 -18.673285 -69.168054
vn 68.597552 -22.504126 -69.194943
vn 67.481198 -14.732586 -72.313476
vn 66.740218 -17.779844 -72.316115
vn 65.690685 -11.150303 -74.568121
vn 65.259056 -13.469696 -74.564220
vn 64.360020 -7.886111 -76.128819
vn 64.141581 -9.532613 -76.124811
vn 63.466150 -4.836211 -77.127550
vn 63.383500 -5.848230 -77.125418
vn 62.991611 -1.903214 -77.642995
vn 62.978841 -2.301938 -77.642557
vn 62.927331 1.003525 -77.711930
vn 62.923711 1.213796 -77.711861
vn 63.274533 3.960756 -77.334635
vn 63.219037 4.789943 -77.333109
vn 64.043085 6.988819 -76.482937
vn 63.871383 8.449132 -76.479139
vn 65.246542 10.179161 -75.095096
vn 64.885780 12.299161 -75.090387
vn 66.904851 13.634633 -73.060507
vn 66.266693 16.460076 -73.060189
vn 69.039145 17.462978 -70.204279
vn 68.011970 21.055282 -70.221415
vn 71.669386 21.714388 -66.272049
vn 70.116857 26.134661 -66.337063
vn 76.938565 29.891365 -56.453198
vn 74.135091 35.821381 -56.752241
vn 79.784632 34.589160 -49.376133
vn 76.142954 41.336265 -49.935595
vn 82.445580 39.630066 -40.400299
vn 73.120676 53.760201 -41.990566
vn 94.936138 0.000000 -31.418619
vn 68.676183 3.789431 -72.589408
vn 66.259338 2.828858 -74.844490
vn 64.528881 1.942145 -76.369180
vn 64.374346 3.746116 -76.432390
vn 63.381926 2.122581 -77.318989
vn 63.329050 3.073653 -77.330357
vn 62.930893 0.778693 -77.711623
vn 90.429925 21.322086 -36.983745
vn 88.717766 9.564611 -45.140627
vn 84.072693 8.291697 -53.507289
vn 75.824632 6.034508 -64.916946
vn 74.567366 11.671656 -65.600918
vn 70.979748 9.376531 -69.813724
vn 70.035508 13.575533 -70.076619
vn 67.526867 10.591727 -72.992722
vn 83.214006 27.009036 -48.434918
vn 86.255581 18.631190 -47.040976
vn 82.023754 16.096490 -54.890862
vn 72.433341 47.270846 -50.188428
vn 64.043408 64.043408 -42.389666
vn 65.673123 50.349283 -56.142592
vn 71.282738 41.124626 -56.811411
vn 65.448251 37.819086 -65.469407
vn 68.540989 30.179037 -66.267327
vn 64.600213 26.767312 -71.486526
vn 66.971033 24.371141 -70.149328
vn 63.726232 17.068401 -75.150762
vn 65.621071 19.084093 -73.004606
vn 64.521325 14.276206 -75.054570
vn 63.113222 8.322013 -77.119811
vn 63.698115 9.814657 -76.460595
vn 63.163078 5.566551 -77.326833
vn 62.903332 -0.042401 -77.737822
vn 62.920065 1.410874 -77.711485
vn 62.965962 -2.675598 -77.641025
vn 63.122964 -8.313044 -77.112805
vn 63.300147 -6.795726 -77.116208
vn 63.921108 -11.071235 -76.102035
vn 63.736274 -17.031615 -75.150592
vn 64.822852 -15.630466 -74.523059
vn 64.594378 -26.787767 -71.484137
vn 65.990181 -20.605411 -72.254502
vn 67.414347 -26.032107 -69.120440
vn 65.451511 -37.818632 -65.466410
vn 69.036372 -32.003260 -64.882745
vn 70.721137 -38.620997 -59.219417
vn 65.680194 -50.341271 -56.141505
vn 72.220483 -45.915339 -51.729909
vn 64.043408 -64.043408 -42.389666
vn 73.120676 -53.760201 -41.990566
vn 87.717043 -9.284475 -47.111770
vn 79.604415 23.313335 -55.853607
vn 73.166263 16.897712 -66.039119
vn 71.845814 4.853497 -69.387482
vn 68.121829 7.315215 -72.841637
vn 65.939256 5.458205 -74.981481
vn 65.599454 7.903425 -75.061625
vn 63.432321 1.100651 -77.298960
vn 62.937674 0.278862 -77.709533
vn 63.027940 -0.528873 -77.635038
vn 63.016330 -1.019852 -77.639565
vn 63.625979 -2.591863 -77.103937
vn 63.547310 -3.753194 -77.121028
vn 64.574139 -6.121496 -76.109841
vn 62.934358 0.537736 -77.710857
vn 63.700881 -1.343933 -77.073936
vn 64.977036 -2.191522 -75.981459
vn 66.899045 -3.098769 -74.262476
vn 66.518071 -5.979749 -74.428414
vn 68.890630 -7.905815 -72.052614
vn 68.202463 -11.446742 -72.231545
vn 70.894599 -14.520264 -69.015345
vn 64.781035 -4.227456 -76.062777
vn 69.529153 -4.094539 -71.756057
vn 71.962004 -10.029188 -68.708699
vn 75.769533 -12.400017 -64.071971
vn 74.211285 -17.952306 -64.578633
vn 64.211478 5.424551 -76.468689
vn 63.004157 -1.476837 -77.642097
vn 66.112544 -8.658516 -74.526248
vn 78.115898 -21.826903 -58.493528
vn -0.000000 -62.903336 -77.737831
vn -5.189783 -72.935405 -68.216514
vn -0.000000 -94.936137 -31.418623
vn -6.408175 -77.156635 -63.291303
vn -7.772863 -82.157426 -56.477783
vn -15.073137 -80.288650 -57.676107
vn -18.069914 -85.341096 -48.891466
vn -26.188481 -82.437845 -50.181323
vn -21.322086 -90.429923 -36.983750
vn -39.630065 -82.445578 -40.400304
vn -33.546329 -79.182285 -51.037335
vn -40.115040 -75.733089 -51.529436
vn -28.000158 -75.740976 -58.985556
vn -33.591079 -73.252150 -59.209476
vn -23.061354 -72.539133 -64.855594
vn -27.738055 -70.801216 -64.944500
vn -18.673285 -69.764522 -69.168056
vn -22.504125 -68.597550 -69.194945
vn -14.732586 -67.481196 -72.313478
vn -17.779843 -66.740216 -72.316117
vn -11.150302 -65.690683 -74.568122
vn -13.469696 -65.259054 -74.564222
vn -7.886111 -64.360018 -76.128820
vn -9.532612 -64.141579 -76.124813
vn -4.836211 -63.466148 -77.127551
vn -5.848230 -63.383498 -77.125420
vn -1.903214 -62.991609 -77.642997
vn -2.301938 -62.978839 -77.642559
vn 1.003525 -62.927329 -77.711931
vn 1.213796 -62.923709 -77.711862
vn 3.960755 -63.274532 -77.334637
vn 4.789943 -63.219036 -77.333110
vn 6.988819 -64.043083 -76.482939
vn 8.449132 -63.871381 -76.479140
vn 10.179161 -65.246541 -75.095097
vn 12.299161 -64.885779 -75.090388
vn 13.634633 -66.904850 -73.060508
vn 16.460076 -66.266692 -73.060190
vn 17.462978 -69.039144 -70.204281
vn 21.055282 -68.011969 -70.221416
vn 21.714388 -71.669385 -66.272051
vn 26.134660 -70.116856 -66.337064
vn 29.891365 -76.938564 -56.453199
vn 35.821381 -74.135090 -56.752243
vn 34.589159 -79.784631 -49.376134
vn 41.336265 -76.142954 -49.935597
vn 39.630066 -82.445580 -40.400301
vn 53.760201 -73.120675 -41.990566
vn 0.000000 -94.936137 -31.418623
vn 3.789431 -68.676181 -72.589409
vn 2.828858 -66.259337 -74.844491
vn 1.942145 -64.528879 -76.369181
vn 3.746116 -64.374345 -76.432391
vn 2.122581 -63.381924 -77.318991
vn 3.073652 -63.329048 -77.330358
vn 0.778693 -62.930892 -77.711624
vn 21.322086 -90.429924 -36.983748
vn 9.564611 -88.717764 -45.140631
vn 8.291697 -84.072692 -53.507292
vn 6.034508 -75.824630 -64.916948
vn 11.671656 -74.567364 -65.600919
vn 9.376531 -70.979747 -69.813725
vn 13.575533 -70.035507 -70.076620
vn 10.591727 -67.526866 -72.992724
vn 27.009036 -83.214004 -48.434920
vn 18.631190 -86.255580 -47.040979
vn 16.096490 -82.023753 -54.890864
vn 47.270846 -72.433340 -50.188429
vn 50.349283 -65.673123 -56.142593
vn 41.124626 -71.282737 -56.811412
vn 37.819085 -65.448250 -65.469407
vn 30.179036 -68.540988 -66.267328
vn 26.767311 -64.600213 -71.486527
vn 24.371140 -66.971032 -70.149329
vn 17.068401 -63.726231 -75.150763
vn 19.084093 -65.621070 -73.004607
vn 14.276206 -64.521324 -75.054571
vn 8.322013 -63.113221 -77.119812
vn 9.814657 -63.698114 -76.460596
vn 5.566550 -63.163077 -77.326834
vn -0.042401 -62.903331 -77.737823
vn 1.410874 -62.920063 -77.711486
vn -2.675598 -62.965961 -77.641026
vn -8.313044 -63.122963 -77.112806
vn -6.795726 -63.300145 -77.116209
vn -11.071235 -63.921106 -76.102037
vn -17.031614 -63.736272 -75.150594
vn -15.630466 -64.822850 -74.523061
vn -26.787767 -64.594376 -71.484140
vn -20.605410 -65.990179 -72.254504
vn -26.032107 -67.414345 -69.120442
vn -37.818630 -65.451509 -65.466413
vn -32.003259 -69.036370 -64.882748
vn -38.620995 -70.721135 -59.219421
vn -50.341269 -65.680191 -56.141509
vn -45.915338 -72.220481 -51.729913
vn -64.043406 -64.043406 -42.389671
vn -53.760200 -73.120674 -41.990571
vn -9.284475 -87.717041 -47.111774
vn 23.313334 -79.604414 -55.853609
vn 16.897712 -73.166262 -66.039120
vn 4.853497 -71.845812 -69.387483
vn 7.315215 -68.121828 -72.841638
vn 5.458205 -65.939255 -74.981482
vn 7.903425 -65.599453 -75.061626
vn 1.100651 -63.432320 -77.298961
vn 0.278862 -62.937672 -77.709534
vn -0.528873 -63.027938 -77.635039
vn -1.019852 -63.016328 -77.639567
vn -2.591863 -63.625977 -77.103938
vn -3.753194 -63.547308 -77.121029
vn -6.121496 -64.574137 -76.109842
vn 0.537736 -62.934357 -77.710859
vn -1.343933 -63.700880 -77.073937
vn -2.191522 -64.977034 -75.981460
vn -3.098769 -66.899043 -74.262478
vn -5.979749 -66.518070 -74.428415
vn -7.905815 -68.890628 -72.052616
vn -11.446742 -68.202461 -72.231547
vn -14.520263 -70.894597 -69.015347
vn -4.227456 -64.781033 -76.062779
vn -4.094539 -69.529151 -71.756059
vn -10.029188 -71.962002 -68.708701
vn -12.400017 -75.769531 -64.071973
vn -17.952306 -74.211283 -64.578636
vn 5.424551 -64.211476 -76.468690
vn -1.476837 -63.004155 -77.642098
vn -8.658516 -66.112543 -74.526249
vn -21.826902 -78.115896 -58.493531
vn -62.903334 0.000000 -77.737832
vn -72.935404 5.189783 -68.216516
vn -94.936136 0.000000 -31.418627
vn -77.156633 6.408175 -63.291305
vn -82.157424 7.772863 -56.477786
vn -80.288648 15.073137 -57.676109
vn -85.341095 18.069914 -48.891469
vn -82.437844 26.188480 -50.181325
vn -90.429922 21.322085 -36.983753
vn -82.445578 39.630065 -40.400306
vn -79.182284 33.546329 -51.037336
vn -75.733088 40.115040 -51.529437
vn -75.740974 28.000157 -58.985557
vn -73.252149 33.591078 -59.209477
vn -72.539132 23.061354 -64.855596
vn -70.801215 27.738054 -64.944501
vn -69.764520 18.673284 -69.168057
vn -68.597549 22.504125 -69.194947
vn -67.481195 14.732586 -72.313479
vn -66.740215 17.779843 -72.316118
vn -65.690682 11.150302 -74.568124
vn -65.259053 13.469696 -74.564223
vn -64.360017 7.886111 -76.128821
vn -64.141578 9.532612 -76.124814
vn -63.466147 4.836211 -77.127552
vn -63.383497 5.848230 -77.125421
vn -62.991608 1.903214 -77.642998
vn -62.978838 2.301938 -77.642560
vn -62.927328 -1.003525 -77.711932
vn -62.923708 -1.213796 -77.711864
vn -63.274530 -3.960755 -77.334638
vn -63.219034 -4.789943 -77.333112
vn -64.043081 -6.988819 -76.482940
vn -63.871380 -8.449132 -76.479141
vn -65.246539 -10.179161 -75.095099
vn -64.885777 -12.299160 -75.090389
vn -66.904848 -13.634633 -73.060510
vn -66.266690 -16.460075 -73.060192
vn -69.039142 -17.462977 -70.204283
vn -68.011966 -21.055281 -70.221418
vn -71.669382 -21.714387 -66.272053
vn -70.116854 -26.134659 -66.337067
vn -76.938562 -29.891364 -56.453203
vn -74.135088 -35.821380 -56.752246
vn -79.784629 -34.589158 -49.376139
vn -76.142951 -41.336264 -49.935601
vn -82.445578 -39.630065 -40.400306
vn -73.120673 -53.760199 -41.990571
vn -94.936136 0.000000 -31.418627
vn -68.676179 -3.789431 -72.589411
vn -66.259335 -2.828858 -74.844493
vn -64.528877 -1.942145 -76.369183
vn -64.374343 -3.746115 -76.432392
vn -63.381923 -2.122581 -77.318992
vn -63.329047 -3.073652 -77.330360
vn -62.930890 -0.778692 -77.711625
vn -90.429922 -21.322085 -36.983753
vn -88.717762 -9.564611 -45.140634
vn -84.072690 -8.291697 -53.507295
vn -75.824628 -6.034508 -64.916951
vn -74.567362 -11.671656 -65.600922
vn -70.979745 -9.376531 -69.813727
vn -70.035505 -13.575533 -70.076622
vn -67.526864 -10.591727 -72.992725
vn -83.214002 -27.009035 -48.434924
vn -86.255578 -18.631189 -47.040983
vn -82.023751 -16.096489 -54.890868
vn -72.433338 -47.270845 -50.188433
vn -65.673120 -50.349281 -56.142597
vn -71.282735 -41.124624 -56.811416
vn -65.448248 -37.819084 -65.469410
vn -68.540986 -30.179035 -66.267330
vn -64.600210 -26.767310 -71.486530
vn -66.971030 -24.371140 -70.149331
vn -63.726229 -17.068401 -75.150765
vn -65.621068 -19.084092 -73.004609
vn -64.521322 -14.276206 -75.054573
vn -63.113219 -8.322013 -77.119814
vn -63.698112 -9.814657 -76.460598
vn -63.163075 -5.566550 -77.326835
vn -62.903329 0.042401 -77.737825
vn -62.920062 -1.410874 -77.711487
vn -62.965959 2.675598 -77.641028
vn -63.122961 8.313044 -77.112807
vn -63.300144 6.795726 -77.116210
vn -63.921105 11.071234 -76.102038
vn -63.736271 17.031614 -75.150595
vn -64.822849 15.630465 -74.523062
vn -64.594375 26.787766 -71.484140
vn -65.990178 20.605410 -72.254505
vn -67.414344 26.032106 -69.120443
vn -65.451508 37.818630 -65.466413
vn -69.036369 32.003259 -64.882749
vn -70.721134 38.620995 -59.219422
vn -65.680191 50.341269 -56.141510
vn -72.220480 45.915337 -51.729914
vn -64.043406 64.043406 -42.389671
vn -73.120673 53.760199 -41.990571
vn -87.717039 9.284474 -47.111777
vn -79.604412 -23.313334 -55.853613
vn -73.166260 -16.897711 -66.039123
vn -71.845810 -4.853497 -69.387485
vn -68.121826 -7.315215 -72.841640
vn -65.939253 -5.458205 -74.981484
vn -65.599451 -7.903425 -75.061627
vn -63.432318 -1.100651 -77.298962
vn -62.937671 -0.278862 -77.709535
vn -63.027937 0.528873 -77.635040
vn -63.016327 1.019851 -77.639568
vn -63.625976 2.591863 -77.103939
vn -63.547307 3.753194 -77.121031
vn -64.574136 6.121496 -76.109843
vn -62.934355 -0.537736 -77.710860
vn -63.700878 1.343933 -77.073938
vn -64.977033 2.191522 -75.981461
vn -66.899042 3.098769 -74.262479
vn -66.518068 5.979749 -74.428417
vn -68.890627 7.905814 -72.052617
vn -68.202460 11.446741 -72.231549
vn -70.894595 14.520263 -69.015348
vn -64.781032 4.227456 -76.062780
vn -69.529149 4.094539 -71.756060
vn -71.962001 10.029187 -68.708703
vn -75.769530 12.400016 -64.071975
vn -74.211282 17.952305 -64.578637
vn -64.211475 -5.424551 -76.468692
vn -63.004154 1.476836 -77.642099
vn -66.112541 8.658516 -74.526250
vn -78.115895 21.826902 -58.493533
vn -0.000000 62.903336 -77.737831
vn 5.189783 72.935406 -68.216514
vn -0.000000 94.936137 -31.418623
vn 6.408175 77.156635 -63.291303
vn 7.772863 82.157426 -56.477783
vn 15.073137 80.288650 -57.676106
vn 18.069914 85.341097 -48.891465
vn 26.188481 82.437846 -50.181321
vn 21.322086 90.429924 -36.983748
vn 39.630066 82.445580 -40.400301
vn 33.546329 79.182287 -51.037332
vn 40.115041 75.733091 -51.529433
vn 28.000158 75.740977 -58.985554
vn 33.591080 73.252151 -59.209474
vn 23.061354 72.539134 -64.855593
vn 27.738055 70.801218 -64.944498
vn 18.673285 69.764522 -69.168055
vn 22.504126 68.597551 -69.194944
vn 14.732586 67.481197 -72.313477
vn 17.779844 66.740217 -72.316116
vn 11.150302 65.690684 -74.568122
vn 13.469696 65.259055 -74.564221
vn 7.886111 64.360019 -76.128820
vn 9.532612 64.141580 -76.124812
vn 4.836211 63.466148 -77.127551
vn 5.848230 63.383499 -77.125419
vn 1.903214 62.991609 -77.642997
vn 2.301938 62.978839 -77.642559
vn -1.003525 62.927329 -77.711931
vn -1.213796 62.923709 -77.711862
vn -3.960755 63.274532 -77.334637
vn -4.789943 63.219036 -77.333110
vn -6.988819 64.043083 -76.482939
vn -8.449132 63.871381 -76.479140
vn -10.179161 65.246540 -75.095097
vn -12.299161 64.885778 -75.090388
vn -13.634633 66.904849 -73.060509
vn -16.460076 66.266691 -73.060191
vn -17.462977 69.039143 -70.204282
vn -21.055281 68.011968 -70.221417
vn -21.714387 71.669384 -66.272052
vn -26.134660 70.116855 -66.337065
vn -29.891364 76.938563 -56.453201
vn -35.821380 74.135089 -56.752245
vn -34.589159 79.784630 -49.376137
vn -41.336264 76.142952 -49.935600
vn -39.630065 82.445578 -40.400304
vn -53.760200 73.120674 -41.990571
vn -0.000000 94.936137 -31.418623
vn -3.789431 68.676181 -72.589410
vn -2.828858 66.259336 -74.844491
vn -1.942145 64.528879 -76.369181
vn -3.746115 64.374344 -76.432391
vn -2.122581 63.381924 -77.318991
vn -3.073652 63.329048 -77.330358
vn -0.778693 62.930892 -77.711624
vn -21.322086 90.429923 -36.983750
vn -9.564611 88.717764 -45.140631
vn -8.291697 84.072691 -53.507292
vn -6.034508 75.824630 -64.916949
vn -11.671656 74.567364 -65.600920
vn -9.376531 70.979746 -69.813726
vn -13.575533 70.035506 -70.076621
vn -10.591727 67.526865 -72.992724
vn -27.009035 83.214003 -48.434922
vn -18.631189 86.255579 -47.040980
vn -16.096490 82.023752 -54.890865
vn -47.270845 72.433338 -50.188432
vn -50.349281 65.673121 -56.142596
vn -41.124625 71.282736 -56.811415
vn -37.819084 65.448249 -65.469410
vn -30.179036 68.540987 -66.267329
vn -26.767311 64.600211 -71.486529
vn -24.371140 66.971031 -70.149330
vn -17.068401 63.726230 -75.150764
vn -19.084093 65.621069 -73.004608
vn -14.276206 64.521323 -75.054572
vn -8.322013 63.113220 -77.119813
vn -9.814657 63.698113 -76.460597
vn -5.566550 63.163077 -77.326834
vn 0.042401 62.903331 -77.737823
vn -1.410874 62.920063 -77.711486
vn 2.675598 62.965961 -77.641026
vn 8.313044 63.122963 -77.112806
vn 6.795726 63.300146 -77.116209
vn 11.071235 63.921106 -76.102036
vn 17.031615 63.736273 -75.150593
vn 15.630466 64.822851 -74.523061
vn 26.787767 64.594377 -71.484138
vn 20.605410 65.990180 -72.254503
vn 26.032107 67.414346 -69.120441
vn 37.818631 65.451511 -65.466411
vn 32.003260 69.036371 -64.882746
vn 38.620996 70.721136 -59.219418
vn 50.341271 65.680193 -56.141506
vn 45.915339 72.220482 -51.729910
vn 53.760201 73.120675 -41.990566
vn 9.284475 87.717041 -47.111773
vn -23.313334 79.604413 -55.853611
vn -16.897712 73.166261 -66.039121
vn -4.853497 71.845812 -69.387484
vn -7.315215 68.121827 -72.841638
vn -5.458205 65.939254 -74.981483
vn -7.903425 65.599452 -75.061626
vn -1.100651 63.432320 -77.298961
vn -0.278862 62.937672 -77.709534
vn 0.528873 63.027938 -77.635039
vn 1.019852 63.016328 -77.639567
vn 2.591863 63.625977 -77.103938
vn 3.753194 63.547308 -77.121029
vn 6.121496 64.574138 -76.109842
vn -0.537736 62.934357 -77.710859
vn 1.343933 63.700880 -77.073937
vn 2.191522 64.977034 -75.981460
vn 3.098769 66.899043 -74.262478
vn 5.979749 66.518070 -74.428415
vn 7.905815 68.890628 -72.052616
vn 11.446742 68.202462 -72.231547
vn 14.520263 70.894597 -69.015346
vn 4.227456 64.781034 -76.062779
vn 4.094539 69.529151 -71.756058
vn 10.029188 71.962003 -68.708701
vn 12.400017 75.769532 -64.071972
vn 17.952306 74.211284 -64.578635
vn -5.424551 64.211476 -76.468690
vn 1.476837 63.004155 -77.642098
vn 8.658516 66.112543 -74.526249
vn 21.826902 78.115897 -58.493530
vn 0.000000 -0.000000 -100.000000
vn 0.000000 -0.000000 -100.000000
vn 0.000000 -0.000000 -100.000000
vn 0.000000 -0.000000 -100.000000
vn -100.000000 -0.000000 -0.000000
vn -100.000000 -0.000000 -0.000000
vn -100.000000 -0.000000 -0.000000
vn -100.000000 -0.000000 -0.000000
vn -100.000000 -0.000000 -0.000000
vn 0.000000 -100.000000 0.000000
vn 0.000000 -100.000000 0.000000
vn 0.000000 -100.000000 0.000000
vn 0.000000 -100.000000 0.000000
vn 0.000000 -100.000000 0.000000
vn 100.000000 0.000000 0.000000
vn 100.000000 0.000000 0.000000
vn 100.000000 0.000000 0.000000
vn 100.000000 0.000000 0.000000
vn 100.000000 0.000000 0.000000
vn -0.000000 100.000000 -0.000000
vn -0.000000 100.000000 -0.000000
vn -0.000000 100.000000 -0.000000
vn -0.000000 100.000000 -0.000000
vn -0.000000 100.000000 -0.000000
usemtl Paint_-_Metal_Flake_(Black)
f 2/1/1 36/2/2 1/3/3
f 1/3/3 36/2/2 37/4/4
f 1/3/3 37/4/4 48/5/5
f 48/5/5 37/4/4 38/6/6
f 48/5/5 38/6/6 47/7/7
f 47/7/7 38/6/6 39/8/8
f 47/7/7 39/8/8 46/9/9
f 46/9/9 39/8/8 40/10/10
f 46/9/9 40/10/10 45/11/11
f 45/11/11 40/10/10 41/12/12
f 45/11/11 41/12/12 44/13/13
f 44/13/13 41/12/12 42/14/14
f 44/13/13 42/14/14 43/15/15
f 36/2/2 2/1/1 35/16/16
f 35/16/16 2/1/1 3/17/17
f 35/16/16 3/17/17 34/18/18
f 34/18/18 3/17/17 4/19/19
f 34/18/18 4/19/19 33/20/20
f 33/20/20 4/19/19 5/21/21
f 33/20/20 5/21/21 32/22/22
f 32/22/22 5/21/21 6/23/23
f 32/22/22 6/23/23 31/24/24
f 31/24/24 6/23/23 7/25/25
f 31/24/24 7/25/25 30/26/26
f 30/26/26 7/25/25 8/27/27
f 30/26/26 8/27/27 29/28/28
f 29/28/28 8/27/27 9/29/29
f 29/28/28 9/29/29 28/30/30
f 28/30/30 9/29/29 10/31/31
f 28/30/30 10/31/31 27/32/32
f 27/32/32 10/31/31 11/33/33
f 27/32/32 11/33/33 26/34/34
f 26/34/34 11/33/33 12/35/35
f 26/34/34 12/35/35 25/36/36
f 25/36/36 12/35/35 13/37/37
f 25/36/36 13/37/37 24/38/38
f 24/38/38 13/37/37 14/39/39
f 24/38/38 14/39/39 23/40/40
f 23/40/40 14/39/39 15/41/41
f 23/40/40 15/41/41 22/42/42
f 22/42/42 15/41/41 16/43/43
f 22/42/42 16/43/43 21/44/44
f 21/44/44 16/43/43 17/45/45
f 21/44/44 17/45/45 20/46/46
f 20/46/46 17/45/45 18/47/47
f 20/46/46 18/47/47 19/48/48
f 50/49/49 72/50/50 49/51/51
f 49/51/51 72/50/50 73/52/52
f 49/51/51 73/52/52 74/53/53
f 74/53/53 73/52/52 95/54/54
f 74/53/53 95/54/54 94/55/55
f 94/55/55 95/54/54 93/56/56
f 94/55/55 93/56/56 57/57/57
f 57/57/57 93/56/56 56/58/58
f 56/58/58 93/56/56 130/59/59
f 56/58/58 130/59/59 129/60/60
f 129/60/60 130/59/59 131/61/61
f 129/60/60 131/61/61 128/62/62
f 128/62/62 131/61/61 132/63/63
f 128/62/62 132/63/63 127/64/64
f 127/64/64 132/63/63 133/65/65
f 127/64/64 133/65/65 126/66/66
f 126/66/66 133/65/65 134/67/67
f 126/66/66 134/67/67 125/68/68
f 125/68/68 134/67/67 135/69/69
f 125/68/68 135/69/69 124/70/70
f 124/70/70 135/69/69 136/71/71
f 124/70/70 136/71/71 123/72/72
f 123/72/72 136/71/71 137/73/73
f 123/72/72 137/73/73 122/74/74
f 122/74/74 137/73/73 138/75/75
f 122/74/74 138/75/75 121/76/76
f 121/76/76 138/75/75 139/77/77
f 121/76/76 139/77/77 120/78/78
f 120/78/78 139/77/77 140/79/79
f 120/78/78 140/79/79 119/80/80
f 119/80/80 140/79/79 141/81/81
f 119/80/80 141/81/81 118/82/82
f 118/82/82 141/81/81 142/83/83
f 118/82/82 142/83/83 117/84/84
f 117/84/84 142/83/83 143/85/85
f 117/84/84 143/85/85 116/86/86
f 116/86/86 143/85/85 144/87/87
f 116/86/86 144/87/87 115/88/88
f 115/88/88 144/87/87 145/89/89
f 115/88/88 145/89/89 114/90/90
f 114/90/90 145/89/89 146/91/91
f 114/90/90 146/91/91 113/92/92
f 113/92/92 146/91/91 147/93/93
f 113/92/92 147/93/93 112/94/94
f 112/94/94 147/93/93 53/95/95
f 112/94/94 53/95/95 54/96/96
f 51/97/97 62/98/98 50/49/49
f 50/49/49 62/98/98 63/99/99
f 50/49/49 63/99/99 64/100/100
f 64/100/100 63/99/99 105/101/101
f 64/100/100 105/101/101 104/102/102
f 104/102/102 105/101/101 83/103/103
f 104/102/102 83/103/103 84/104/104
f 84/104/104 83/103/103 139/77/77
f 84/104/104 139/77/77 138/75/75
f 52/105/105 58/106/106 51/97/97
f 51/97/97 58/106/106 59/107/107
f 51/97/97 59/107/107 60/108/108
f 60/108/108 59/107/107 109/109/109
f 60/108/108 109/109/109 108/110/110
f 108/110/110 109/109/109 79/111/111
f 108/110/110 79/111/111 80/112/112
f 80/112/112 79/111/111 143/85/85
f 80/112/112 143/85/85 142/83/83
f 53/95/95 76/113/113 52/105/105
f 52/105/105 76/113/113 111/114/114
f 52/105/105 111/114/114 58/106/106
f 58/106/106 111/114/114 110/115/115
f 58/106/106 110/115/115 59/107/107
f 59/107/107 110/115/115 109/109/109
f 112/94/94 54/96/96 165/116/116
f 165/116/116 54/96/96 13/117/117
f 165/116/116 13/117/117 12/118/118
f 165/116/116 12/118/118 164/119/119
f 164/119/119 12/118/118 11/120/120
f 164/119/119 11/120/120 163/121/121
f 163/121/121 11/120/120 10/122/122
f 163/121/121 10/122/122 162/123/123
f 162/123/123 10/122/122 9/124/124
f 162/123/123 9/124/124 161/125/125
f 161/125/125 9/124/124 160/126/126
f 161/125/125 160/126/126 116/86/86
f 116/86/86 160/126/126 117/84/84
f 9/124/124 8/127/127 160/126/126
f 160/126/126 8/127/127 159/128/128
f 160/126/126 159/128/128 117/84/84
f 117/84/84 159/128/128 118/82/82
f 159/128/128 8/127/127 158/129/129
f 158/129/129 8/127/127 7/130/130
f 158/129/129 7/130/130 157/131/131
f 157/131/131 7/130/130 156/132/132
f 157/131/131 156/132/132 120/78/78
f 120/78/78 156/132/132 121/76/76
f 7/130/130 6/133/133 156/132/132
f 156/132/132 6/133/133 155/134/134
f 156/132/132 155/134/134 121/76/76
f 121/76/76 155/134/134 122/74/74
f 155/134/134 6/133/133 154/135/135
f 154/135/135 6/133/133 5/136/136
f 154/135/135 5/136/136 153/137/137
f 153/137/137 5/136/136 4/138/138
f 153/137/137 4/138/138 152/139/139
f 152/139/139 4/138/138 151/140/140
f 152/139/139 151/140/140 125/68/68
f 125/68/68 151/140/140 126/66/66
f 4/138/138 3/141/141 151/140/140
f 151/140/140 3/141/141 150/142/142
f 151/140/140 150/142/142 126/66/66
f 126/66/66 150/142/142 127/64/64
f 150/142/142 3/141/141 149/143/143
f 149/143/143 3/141/141 2/144/144
f 149/143/143 2/144/144 148/145/145
f 148/145/145 2/144/144 1/146/146
f 148/145/145 1/146/146 55/147/147
f 148/145/145 55/147/147 129/60/60
f 129/60/60 55/147/147 56/58/58
f 94/55/55 57/57/57 75/148/148
f 75/148/148 57/57/57 49/51/51
f 75/148/148 49/51/51 74/53/53
f 53/95/95 147/93/93 76/113/113
f 76/113/113 147/93/93 146/91/91
f 76/113/113 146/91/91 77/149/149
f 77/149/149 146/91/91 145/89/89
f 77/149/149 145/89/89 78/150/150
f 78/150/150 145/89/89 144/87/87
f 78/150/150 144/87/87 79/111/111
f 79/111/111 144/87/87 143/85/85
f 62/98/98 51/97/97 61/151/151
f 61/151/151 51/97/97 60/108/108
f 61/151/151 60/108/108 108/110/110
f 62/98/98 61/151/151 107/152/152
f 107/152/152 61/151/151 108/110/110
f 107/152/152 108/110/110 80/112/112
f 63/99/99 62/98/98 106/153/153
f 106/153/153 62/98/98 107/152/152
f 106/153/153 107/152/152 81/154/154
f 81/154/154 107/152/152 80/112/112
f 81/154/154 80/112/112 142/83/83
f 64/100/100 65/155/155 50/49/49
f 50/49/49 65/155/155 66/156/156
f 50/49/49 66/156/156 67/157/157
f 67/157/157 66/156/156 102/158/158
f 67/157/157 102/158/158 101/159/159
f 101/159/159 102/158/158 86/160/160
f 101/159/159 86/160/160 87/161/161
f 87/161/161 86/160/160 136/71/71
f 87/161/161 136/71/71 135/69/69
f 64/100/100 104/102/102 65/155/155
f 65/155/155 104/102/102 103/162/162
f 65/155/155 103/162/162 66/156/156
f 66/156/156 103/162/162 102/158/158
f 67/157/157 68/163/163 50/49/49
f 50/49/49 68/163/163 69/164/164
f 50/49/49 69/164/164 70/165/165
f 70/165/165 69/164/164 99/166/166
f 70/165/165 99/166/166 98/167/167
f 98/167/167 99/166/166 89/168/168
f 98/167/167 89/168/168 90/169/169
f 90/169/169 89/168/168 133/65/65
f 90/169/169 133/65/65 132/63/63
f 67/157/157 101/159/159 68/163/163
f 68/163/163 101/159/159 100/170/170
f 68/163/163 100/170/170 69/164/164
f 69/164/164 100/170/170 99/166/166
f 72/50/50 50/49/49 71/171/171
f 71/171/171 50/49/49 70/165/165
f 71/171/171 70/165/165 98/167/167
f 72/50/50 71/171/171 97/172/172
f 97/172/172 71/171/171 98/167/167
f 97/172/172 98/167/167 90/169/169
f 73/52/52 72/50/50 96/173/173
f 96/173/173 72/50/50 97/172/172
f 96/173/173 97/172/172 91/174/174
f 91/174/174 97/172/172 90/169/169
f 91/174/174 90/169/169 132/63/63
f 94/55/55 75/148/148 74/53/53
f 110/115/115 111/114/114 77/149/149
f 77/149/149 111/114/114 76/113/113
f 109/109/109 110/115/115 78/150/150
f 78/150/150 110/115/115 77/149/149
f 78/150/150 79/111/111 109/109/109
f 81/154/154 82/175/175 106/153/153
f 106/153/153 82/175/175 105/101/101
f 106/153/153 105/101/101 63/99/99
f 105/101/101 82/175/175 83/103/103
f 83/103/103 82/175/175 140/79/79
f 83/103/103 140/79/79 139/77/77
f 142/83/83 141/81/81 81/154/154
f 81/154/154 141/81/81 82/175/175
f 103/162/162 104/102/102 84/104/104
f 141/81/81 140/79/79 82/175/175
f 102/158/158 103/162/162 85/176/176
f 85/176/176 103/162/162 84/104/104
f 85/176/176 84/104/104 138/75/75
f 102/158/158 85/176/176 86/160/160
f 86/160/160 85/176/176 137/73/73
f 86/160/160 137/73/73 136/71/71
f 137/73/73 85/176/176 138/75/75
f 100/170/170 101/159/159 87/161/161
f 99/166/166 100/170/170 88/177/177
f 88/177/177 100/170/170 87/161/161
f 88/177/177 87/161/161 135/69/69
f 99/166/166 88/177/177 89/168/168
f 89/168/168 88/177/177 134/67/67
f 89/168/168 134/67/67 133/65/65
f 134/67/67 88/177/177 135/69/69
f 91/174/174 92/178/178 96/173/173
f 96/173/173 92/178/178 95/54/54
f 96/173/173 95/54/54 73/52/52
f 130/59/59 93/56/56 92/178/178
f 92/178/178 93/56/56 95/54/54
f 132/63/63 131/61/61 91/174/174
f 91/174/174 131/61/61 92/178/178
f 131/61/61 130/59/59 92/178/178
f 165/116/116 164/119/119 112/94/94
f 112/94/94 164/119/119 113/92/92
f 164/119/119 163/121/121 113/92/92
f 113/92/92 163/121/121 114/90/90
f 161/125/125 116/86/86 115/88/88
f 163/121/121 162/123/123 114/90/90
f 114/90/90 162/123/123 115/88/88
f 162/123/123 161/125/125 115/88/88
f 157/131/131 120/78/78 119/80/80
f 159/128/128 158/129/129 118/82/82
f 118/82/82 158/129/129 119/80/80
f 158/129/129 157/131/131 119/80/80
f 155/134/134 154/135/135 122/74/74
f 122/74/74 154/135/135 123/72/72
f 152/139/139 125/68/68 124/70/70
f 154/135/135 153/137/137 123/72/72
f 123/72/72 153/137/137 124/70/70
f 153/137/137 152/139/139 124/70/70
f 148/145/145 129/60/60 128/62/62
f 150/142/142 149/143/143 127/64/64
f 127/64/64 149/143/143 128/62/62
f 149/143/143 148/145/145 128/62/62
f 167/179/179 185/180/180 166/181/181
f 166/181/181 185/180/180 186/182/182
f 166/181/181 186/182/182 187/183/183
f 187/183/183 186/182/182 208/184/184
f 187/183/183 208/184/184 207/185/185
f 207/185/185 208/184/184 206/186/186
f 207/185/185 206/186/186 170/187/187
f 170/187/187 206/186/186 169/188/188
f 169/188/188 206/186/186 243/189/189
f 169/188/188 243/189/189 242/190/190
f 242/190/190 243/189/189 244/191/191
f 242/190/190 244/191/191 241/192/192
f 241/192/192 244/191/191 245/193/193
f 241/192/192 245/193/193 240/194/194
f 240/194/194 245/193/193 246/195/195
f 240/194/194 246/195/195 239/196/196
f 239/196/196 246/195/195 247/197/197
f 239/196/196 247/197/197 238/198/198
f 238/198/198 247/197/197 248/199/199
f 238/198/198 248/199/199 237/200/200
f 237/200/200 248/199/199 249/201/201
f 237/200/200 249/201/201 236/202/202
f 236/202/202 249/201/201 250/203/203
f 236/202/202 250/203/203 235/204/204
f 235/204/204 250/203/203 251/205/205
f 235/204/204 251/205/205 234/206/206
f 234/206/206 251/205/205 252/207/207
f 234/206/206 252/207/207 233/208/208
f 233/208/208 252/207/207 253/209/209
f 233/208/208 253/209/209 232/210/210
f 232/210/210 253/209/209 254/211/211
f 232/210/210 254/211/211 231/212/212
f 231/212/212 254/211/211 255/213/213
f 231/212/212 255/213/213 230/214/214
f 230/214/214 255/213/213 256/215/215
f 230/214/214 256/215/215 229/216/216
f 229/216/216 256/215/215 257/217/217
f 229/216/216 257/217/217 228/218/218
f 228/218/218 257/217/217 258/219/219
f 228/218/218 258/219/219 227/220/220
f 227/220/220 258/219/219 259/221/221
f 227/220/220 259/221/221 226/222/222
f 226/222/222 259/221/221 260/223/223
f 226/222/222 260/223/223 225/224/224
f 225/224/224 260/223/223 56/225/225
f 225/224/224 56/225/225 55/226/226
f 49/227/227 175/228/228 167/179/179
f 167/179/179 175/228/228 176/229/229
f 167/179/179 176/229/229 177/230/230
f 177/230/230 176/229/229 218/231/231
f 177/230/230 218/231/231 217/232/232
f 217/232/232 218/231/231 196/233/233
f 217/232/232 196/233/233 197/234/234
f 197/234/234 196/233/233 252/207/207
f 197/234/234 252/207/207 251/205/205
f 57/235/235 171/236/236 49/227/227
f 49/227/227 171/236/236 172/237/237
f 49/227/227 172/237/237 173/238/238
f 173/238/238 172/237/237 222/239/239
f 173/238/238 222/239/239 221/240/240
f 221/240/240 222/239/239 192/241/241
f 221/240/240 192/241/241 193/242/242
f 193/242/242 192/241/241 256/215/215
f 193/242/242 256/215/215 255/213/213
f 56/225/225 189/243/243 57/235/235
f 57/235/235 189/243/243 224/244/244
f 57/235/235 224/244/244 171/236/236
f 171/236/236 224/244/244 223/245/245
f 171/236/236 223/245/245 172/237/237
f 172/237/237 223/245/245 222/239/239
f 225/224/224 55/226/226 278/246/246
f 278/246/246 55/226/226 1/247/146
f 278/246/246 1/247/146 48/248/247
f 278/246/246 48/248/247 277/249/248
f 277/249/248 48/248/247 47/250/249
f 277/249/248 47/250/249 276/251/250
f 276/251/250 47/250/249 46/252/251
f 276/251/250 46/252/251 275/253/252
f 275/253/252 46/252/251 45/254/253
f 275/253/252 45/254/253 274/255/254
f 274/255/254 45/254/253 273/256/255
f 274/255/254 273/256/255 229/216/216
f 229/216/216 273/256/255 230/214/214
f 45/254/253 44/257/256 273/256/255
f 273/256/255 44/257/256 272/258/257
f 273/256/255 272/258/257 230/214/214
f 230/214/214 272/258/257 231/212/212
f 272/258/257 44/257/256 271/259/258
f 271/259/258 44/257/256 43/260/259
f 271/259/258 43/260/259 270/261/260
f 270/261/260 43/260/259 269/262/261
f 270/261/260 269/262/261 233/208/208
f 233/208/208 269/262/261 234/206/206
f 43/260/259 42/263/262 269/262/261
f 269/262/261 42/263/262 268/264/263
f 269/262/261 268/264/263 234/206/206
f 234/206/206 268/264/263 235/204/204
f 268/264/263 42/263/262 267/265/264
f 267/265/264 42/263/262 41/266/265
f 267/265/264 41/266/265 266/267/266
f 266/267/266 41/266/265 40/268/267
f 266/267/266 40/268/267 265/269/268
f 265/269/268 40/268/267 264/270/269
f 265/269/268 264/270/269 238/198/198
f 238/198/198 264/270/269 239/196/196
f 40/268/267 39/271/270 264/270/269
f 264/270/269 39/271/270 263/272/271
f 264/270/269 263/272/271 239/196/196
f 239/196/196 263/272/271 240/194/194
f 263/272/271 39/271/270 262/273/272
f 262/273/272 39/271/270 38/274/273
f 262/273/272 38/274/273 261/275/274
f 261/275/274 38/274/273 37/276/275
f 261/275/274 37/276/275 168/277/276
f 261/275/274 168/277/276 242/190/190
f 242/190/190 168/277/276 169/188/188
f 207/185/185 170/187/187 188/278/277
f 188/278/277 170/187/187 166/181/181
f 188/278/277 166/181/181 187/183/183
f 56/225/225 260/223/223 189/243/243
f 189/243/243 260/223/223 259/221/221
f 189/243/243 259/221/221 190/279/278
f 190/279/278 259/221/221 258/219/219
f 190/279/278 258/219/219 191/280/279
f 191/280/279 258/219/219 257/217/217
f 191/280/279 257/217/217 192/241/241
f 192/241/241 257/217/217 256/215/215
f 175/228/228 49/227/227 174/281/280
f 174/281/280 49/227/227 173/238/238
f 174/281/280 173/238/238 221/240/240
f 175/228/228 174/281/280 220/282/281
f 220/282/281 174/281/280 221/240/240
f 220/282/281 221/240/240 193/242/242
f 176/229/229 175/228/228 219/283/282
f 219/283/282 175/228/228 220/282/281
f 219/283/282 220/282/281 194/284/283
f 194/284/283 220/282/281 193/242/242
f 194/284/283 193/242/242 255/213/213
f 177/230/230 178/285/284 167/179/179
f 167/179/179 178/285/284 179/286/285
f 167/179/179 179/286/285 180/287/286
f 180/287/286 179/286/285 215/288/287
f 180/287/286 215/288/287 214/289/288
f 214/289/288 215/288/287 199/290/289
f 214/289/288 199/290/289 200/291/290
f 200/291/290 199/290/289 249/201/201
f 200/291/290 249/201/201 248/199/199
f 177/230/230 217/232/232 178/285/284
f 178/285/284 217/232/232 216/292/291
f 178/285/284 216/292/291 179/286/285
f 179/286/285 216/292/291 215/288/287
f 180/287/286 181/293/292 167/179/179
f 167/179/179 181/293/292 182/294/293
f 167/179/179 182/294/293 183/295/294
f 183/295/294 182/294/293 212/296/295
f 183/295/294 212/296/295 211/297/296
f 211/297/296 212/296/295 202/298/297
f 211/297/296 202/298/297 203/299/298
f 203/299/298 202/298/297 246/195/195
f 203/299/298 246/195/195 245/193/193
f 180/287/286 214/289/288 181/293/292
f 181/293/292 214/289/288 213/300/299
f 181/293/292 213/300/299 182/294/293
f 182/294/293 213/300/299 212/296/295
f 185/180/180 167/179/179 184/301/300
f 184/301/300 167/179/179 183/295/294
f 184/301/300 183/295/294 211/297/296
f 185/180/180 184/301/300 210/302/301
f 210/302/301 184/301/300 211/297/296
f 210/302/301 211/297/296 203/299/298
f 186/182/182 185/180/180 209/303/302
f 209/303/302 185/180/180 210/302/301
f 209/303/302 210/302/301 204/304/303
f 204/304/303 210/302/301 203/299/298
f 204/304/303 203/299/298 245/193/193
f 207/185/185 188/278/277 187/183/183
f 223/245/245 224/244/244 190/279/278
f 190/279/278 224/244/244 189/243/243
f 222/239/239 223/245/245 191/280/279
f 191/280/279 223/245/245 190/279/278
f 191/280/279 192/241/241 222/239/239
f 194/284/283 195/305/304 219/283/282
f 219/283/282 195/305/304 218/231/231
f 219/283/282 218/231/231 176/229/229
f 218/231/231 195/305/304 196/233/233
f 196/233/233 195/305/304 253/209/209
f 196/233/233 253/209/209 252/207/207
f 255/213/213 254/211/211 194/284/283
f 194/284/283 254/211/211 195/305/304
f 216/292/291 217/232/232 197/234/234
f 254/211/211 253/209/209 195/305/304
f 215/288/287 216/292/291 198/306/305
f 198/306/305 216/292/291 197/234/234
f 198/306/305 197/234/234 251/205/205
f 215/288/287 198/306/305 199/290/289
f 199/290/289 198/306/305 250/203/203
f 199/290/289 250/203/203 249/201/201
f 250/203/203 198/306/305 251/205/205
f 213/300/299 214/289/288 200/291/290
f 212/296/295 213/300/299 201/307/306
f 201/307/306 213/300/299 200/291/290
f 201/307/306 200/291/290 248/199/199
f 212/296/295 201/307/306 202/298/297
f 202/298/297 201/307/306 247/197/197
f 202/298/297 247/197/197 246/195/195
f 247/197/197 201/307/306 248/199/199
f 204/304/303 205/308/307 209/303/302
f 209/303/302 205/308/307 208/184/184
f 209/303/302 208/184/184 186/182/182
f 243/189/189 206/186/186 205/308/307
f 205/308/307 206/186/186 208/184/184
f 245/193/193 244/191/191 204/304/303
f 204/304/303 244/191/191 205/308/307
f 244/191/191 243/189/189 205/308/307
f 278/246/246 277/249/248 225/224/224
f 225/224/224 277/249/248 226/222/222
f 277/249/248 276/251/250 226/222/222
f 226/222/222 276/251/250 227/220/220
f 274/255/254 229/216/216 228/218/218
f 276/251/250 275/253/252 227/220/220
f 227/220/220 275/253/252 228/218/218
f 275/253/252 274/255/254 228/218/218
f 270/261/260 233/208/208 232/210/210
f 272/258/257 271/259/258 231/212/212
f 231/212/212 271/259/258 232/210/210
f 271/259/258 270/261/260 232/210/210
f 268/264/263 267/265/264 235/204/204
f 235/204/204 267/265/264 236/202/202
f 265/269/268 238/198/198 237/200/200
f 267/265/264 266/267/266 236/202/202
f 236/202/202 266/267/266 237/200/200
f 266/267/266 265/269/268 237/200/200
f 261/275/274 242/190/190 241/192/192
f 263/272/271 262/273/272 240/194/194
f 240/194/194 262/273/272 241/192/192
f 262/273/272 261/275/274 241/192/192
f 280/309/308 298/310/309 279/311/310
f 279/311/310 298/310/309 299/312/311
f 279/311/310 299/312/311 300/313/312
f 300/313/312 299/312/311 321/314/313
f 300/313/312 321/314/313 320/315/314
f 320/315/314 321/314/313 319/316/315
f 320/315/314 319/316/315 283/317/316
f 283/317/316 319/316/315 282/318/317
f 282/318/317 319/316/315 356/319/318
f 282/318/317 356/319/318 355/320/319
f 355/320/319 356/319/318 357/321/320
f 355/320/319 357/321/320 354/322/321
f 354/322/321 357/321/320 358/323/322
f 354/322/321 358/323/322 353/324/323
f 353/324/323 358/323/322 359/325/324
f 353/324/323 359/325/324 352/326/325
f 352/326/325 359/325/324 360/327/326
f 352/326/325 360/327/326 351/328/327
f 351/328/327 360/327/326 361/329/328
f 351/328/327 361/329/328 350/330/329
f 350/330/329 361/329/328 362/331/330
f 350/330/329 362/331/330 349/332/331
f 349/332/331 362/331/330 363/333/332
f 349/332/331 363/333/332 348/334/333
f 348/334/333 363/333/332 364/335/334
f 348/334/333 364/335/334 347/336/335
f 347/336/335 364/335/334 365/337/336
f 347/336/335 365/337/336 346/338/337
f 346/338/337 365/337/336 366/339/338
f 346/338/337 366/339/338 345/340/339
f 345/340/339 366/339/338 367/341/340
f 345/340/339 367/341/340 344/342/341
f 344/342/341 367/341/340 368/343/342
f 344/342/341 368/343/342 343/344/343
f 343/344/343 368/343/342 369/345/344
f 343/344/343 369/345/344 342/346/345
f 342/346/345 369/345/344 370/347/346
f 342/346/345 370/347/346 341/348/347
f 341/348/347 370/347/346 371/349/348
f 341/348/347 371/349/348 340/350/349
f 340/350/349 371/349/348 372/351/350
f 340/350/349 372/351/350 339/352/351
f 339/352/351 372/351/350 373/353/352
f 339/352/351 373/353/352 338/354/353
f 338/354/353 373/353/352 169/355/354
f 338/354/353 169/355/354 168/356/355
f 166/357/356 288/358/357 280/309/308
f 280/309/308 288/358/357 289/359/358
f 280/309/308 289/359/358 290/360/359
f 290/360/359 289/359/358 331/361/360
f 290/360/359 331/361/360 330/362/361
f 330/362/361 331/361/360 309/363/362
f 330/362/361 309/363/362 310/364/363
f 310/364/363 309/363/362 365/337/336
f 310/364/363 365/337/336 364/335/334
f 170/365/364 284/366/365 166/357/356
f 166/357/356 284/366/365 285/367/366
f 166/357/356 285/367/366 286/368/367
f 286/368/367 285/367/366 335/369/368
f 286/368/367 335/369/368 334/370/369
f 334/370/369 335/369/368 305/371/370
f 334/370/369 305/371/370 306/372/371
f 306/372/371 305/371/370 369/345/344
f 306/372/371 369/345/344 368/343/342
f 169/355/354 302/373/372 170/365/364
f 170/365/364 302/373/372 337/374/373
f 170/365/364 337/374/373 284/366/365
f 284/366/365 337/374/373 336/375/374
f 284/366/365 336/375/374 285/367/366
f 285/367/366 336/375/374 335/369/368
f 338/354/353 168/356/355 391/376/375
f 391/376/375 168/356/355 37/377/275
f 391/376/375 37/377/275 36/378/376
f 391/376/375 36/378/376 390/379/377
f 390/379/377 36/378/376 35/380/378
f 390/379/377 35/380/378 389/381/379
f 389/381/379 35/380/378 34/382/380
f 389/381/379 34/382/380 388/383/381
f 388/383/381 34/382/380 33/384/382
f 388/383/381 33/384/382 387/385/383
f 387/385/383 33/384/382 386/386/384
f 387/385/383 386/386/384 342/346/345
f 342/346/345 386/386/384 343/344/343
f 33/384/382 32/387/385 386/386/384
f 386/386/384 32/387/385 385/388/386
f 386/386/384 385/388/386 343/344/343
f 343/344/343 385/388/386 344/342/341
f 385/388/386 32/387/385 384/389/387
f 384/389/387 32/387/385 31/390/388
f 384/389/387 31/390/388 383/391/389
f 383/391/389 31/390/388 382/392/390
f 383/391/389 382/392/390 346/338/337
f 346/338/337 382/392/390 347/336/335
f 31/390/388 30/393/391 382/392/390
f 382/392/390 30/393/391 381/394/392
f 382/392/390 381/394/392 347/336/335
f 347/336/335 381/394/392 348/334/333
f 381/394/392 30/393/391 380/395/393
f 380/395/393 30/393/391 29/396/394
f 380/395/393 29/396/394 379/397/395
f 379/397/395 29/396/394 28/398/396
f 379/397/395 28/398/396 378/399/397
f 378/399/397 28/398/396 377/400/398
f 378/399/397 377/400/398 351/328/327
f 351/328/327 377/400/398 352/326/325
f 28/398/396 27/401/399 377/400/398
f 377/400/398 27/401/399 376/402/400
f 377/400/398 376/402/400 352/326/325
f 352/326/325 376/402/400 353/324/323
f 376/402/400 27/401/399 375/403/401
f 375/403/401 27/401/399 26/404/402
f 375/403/401 26/404/402 374/405/403
f 374/405/403 26/404/402 25/406/404
f 374/405/403 25/406/404 281/407/405
f 374/405/403 281/407/405 355/320/319
f 355/320/319 281/407/405 282/318/317
f 320/315/314 283/317/316 301/408/406
f 301/408/406 283/317/316 279/311/310
f 301/408/406 279/311/310 300/313/312
f 169/355/354 373/353/352 302/373/372
f 302/373/372 373/353/352 372/351/350
f 302/373/372 372/351/350 303/409/407
f 303/409/407 372/351/350 371/349/348
f 303/409/407 371/349/348 304/410/408
f 304/410/408 371/349/348 370/347/346
f 304/410/408 370/347/346 305/371/370
f 305/371/370 370/347/346 369/345/344
f 288/358/357 166/357/356 287/411/409
f 287/411/409 166/357/356 286/368/367
f 287/411/409 286/368/367 334/370/369
f 288/358/357 287/411/409 333/412/410
f 333/412/410 287/411/409 334/370/369
f 333/412/410 334/370/369 306/372/371
f 289/359/358 288/358/357 332/413/411
f 332/413/411 288/358/357 333/412/410
f 332/413/411 333/412/410 307/414/412
f 307/414/412 333/412/410 306/372/371
f 307/414/412 306/372/371 368/343/342
f 290/360/359 291/415/413 280/309/308
f 280/309/308 291/415/413 292/416/414
f 280/309/308 292/416/414 293/417/415
f 293/417/415 292/416/414 328/418/416
f 293/417/415 328/418/416 327/419/417
f 327/419/417 328/418/416 312/420/418
f 327/419/417 312/420/418 313/421/419
f 313/421/419 312/420/418 362/331/330
f 313/421/419 362/331/330 361/329/328
f 290/360/359 330/362/361 291/415/413
f 291/415/413 330/362/361 329/422/420
f 291/415/413 329/422/420 292/416/414
f 292/416/414 329/422/420 328/418/416
f 293/417/415 294/423/421 280/309/308
f 280/309/308 294/423/421 295/424/422
f 280/309/308 295/424/422 296/425/423
f 296/425/423 295/424/422 325/426/424
f 296/425/423 325/426/424 324/427/425
f 324/427/425 325/426/424 315/428/426
f 324/427/425 315/428/426 316/429/427
f 316/429/427 315/428/426 359/325/324
f 316/429/427 359/325/324 358/323/322
f 293/417/415 327/419/417 294/423/421
f 294/423/421 327/419/417 326/430/428
f 294/423/421 326/430/428 295/424/422
f 295/424/422 326/430/428 325/426/424
f 298/310/309 280/309/308 297/431/429
f 297/431/429 280/309/308 296/425/423
f 297/431/429 296/425/423 324/427/425
f 298/310/309 297/431/429 323/432/430
f 323/432/430 297/431/429 324/427/425
f 323/432/430 324/427/425 316/429/427
f 299/312/311 298/310/309 322/433/431
f 322/433/431 298/310/309 323/432/430
f 322/433/431 323/432/430 317/434/432
f 317/434/432 323/432/430 316/429/427
f 317/434/432 316/429/427 358/323/322
f 320/315/314 301/408/406 300/313/312
f 336/375/374 337/374/373 303/409/407
f 303/409/407 337/374/373 302/373/372
f 335/369/368 336/375/374 304/410/408
f 304/410/408 336/375/374 303/409/407
f 304/410/408 305/371/370 335/369/368
f 307/414/412 308/435/433 332/413/411
f 332/413/411 308/435/433 331/361/360
f 332/413/411 331/361/360 289/359/358
f 331/361/360 308/435/433 309/363/362
f 309/363/362 308/435/433 366/339/338
f 309/363/362 366/339/338 365/337/336
f 368/343/342 367/341/340 307/414/412
f 307/414/412 367/341/340 308/435/433
f 329/422/420 330/362/361 310/364/363
f 367/341/340 366/339/338 308/435/433
f 328/418/416 329/422/420 311/436/434
f 311/436/434 329/422/420 310/364/363
f 311/436/434 310/364/363 364/335/334
f 328/418/416 311/436/434 312/420/418
f 312/420/418 311/436/434 363/333/332
f 312/420/418 363/333/332 362/331/330
f 363/333/332 311/436/434 364/335/334
f 326/430/428 327/419/417 313/421/419
f 325/426/424 326/430/428 314/437/435
f 314/437/435 326/430/428 313/421/419
f 314/437/435 313/421/419 361/329/328
f 325/426/424 314/437/435 315/428/426
f 315/428/426 314/437/435 360/327/326
f 315/428/426 360/327/326 359/325/324
f 360/327/326 314/437/435 361/329/328
f 317/434/432 318/438/436 322/433/431
f 322/433/431 318/438/436 321/314/313
f 322/433/431 321/314/313 299/312/311
f 356/319/318 319/316/315 318/438/436
f 318/438/436 319/316/315 321/314/313
f 358/323/322 357/321/320 317/434/432
f 317/434/432 357/321/320 318/438/436
f 357/321/320 356/319/318 318/438/436
f 391/376/375 390/379/377 338/354/353
f 338/354/353 390/379/377 339/352/351
f 390/379/377 389/381/379 339/352/351
f 339/352/351 389/381/379 340/350/349
f 387/385/383 342/346/345 341/348/347
f 389/381/379 388/383/381 340/350/349
f 340/350/349 388/383/381 341/348/347
f 388/383/381 387/385/383 341/348/347
f 383/391/389 346/338/337 345/340/339
f 385/388/386 384/389/387 344/342/341
f 344/342/341 384/389/387 345/340/339
f 384/389/387 383/391/389 345/340/339
f 381/394/392 380/395/393 348/334/333
f 348/334/333 380/395/393 349/332/331
f 378/399/397 351/328/327 350/330/329
f 380/395/393 379/397/395 349/332/331
f 349/332/331 379/397/395 350/330/329
f 379/397/395 378/399/397 350/330/329
f 374/405/403 355/320/319 354/322/321
f 376/402/400 375/403/401 353/324/323
f 353/324/323 375/403/401 354/322/321
f 375/403/401 374/405/403 354/322/321
f 392/439/437 407/440/438 51/441/439
f 51/441/439 407/440/438 408/442/440
f 51/441/439 408/442/440 409/443/441
f 409/443/441 408/442/440 430/444/442
f 409/443/441 430/444/442 429/445/443
f 429/445/443 430/444/442 428/446/444
f 429/445/443 428/446/444 52/447/445
f 52/447/445 428/446/444 53/448/446
f 53/448/446 428/446/444 465/449/447
f 53/448/446 465/449/447 464/450/448
f 464/450/448 465/449/447 466/451/449
f 464/450/448 466/451/449 463/452/450
f 463/452/450 466/451/449 467/453/451
f 463/452/450 467/453/451 462/454/452
f 462/454/452 467/453/451 468/455/453
f 462/454/452 468/455/453 461/456/454
f 461/456/454 468/455/453 469/457/455
f 461/456/454 469/457/455 460/458/456
f 460/458/456 469/457/455 470/459/457
f 460/458/456 470/459/457 459/460/458
f 459/460/458 470/459/457 471/461/459
f 459/460/458 471/461/459 458/462/460
f 458/462/460 471/461/459 472/463/461
f 458/462/460 472/463/461 457/464/462
f 457/464/462 472/463/461 473/465/463
f 457/464/462 473/465/463 456/466/464
f 456/466/464 473/465/463 474/467/465
f 456/466/464 474/467/465 455/468/466
f 455/468/466 474/467/465 475/469/467
f 455/468/466 475/469/467 454/470/468
f 454/470/468 475/469/467 476/471/469
f 454/470/468 476/471/469 453/472/470
f 453/472/470 476/471/469 477/473/471
f 453/472/470 477/473/471 452/474/472
f 452/474/472 477/473/471 478/475/473
f 452/474/472 478/475/473 451/476/474
f 451/476/474 478/475/473 479/477/475
f 451/476/474 479/477/475 450/478/476
f 450/478/476 479/477/475 480/479/477
f 450/478/476 480/479/477 449/480/478
f 449/480/478 480/479/477 481/481/479
f 449/480/478 481/481/479 448/482/480
f 448/482/480 481/481/479 482/483/481
f 448/482/480 482/483/481 447/484/482
f 447/484/482 482/483/481 282/485/483
f 447/484/482 282/485/483 281/486/484
f 279/487/485 397/488/486 392/439/437
f 392/439/437 397/488/486 398/489/487
f 392/439/437 398/489/487 399/490/488
f 399/490/488 398/489/487 440/491/489
f 399/490/488 440/491/489 439/492/490
f 439/492/490 440/491/489 418/493/491
f 439/492/490 418/493/491 419/494/492
f 419/494/492 418/493/491 474/467/465
f 419/494/492 474/467/465 473/465/463
f 283/495/493 393/496/494 279/487/485
f 279/487/485 393/496/494 394/497/495
f 279/487/485 394/497/495 395/498/496
f 395/498/496 394/497/495 444/499/497
f 395/498/496 444/499/497 443/500/498
f 443/500/498 444/499/497 414/501/499
f 443/500/498 414/501/499 415/502/500
f 415/502/500 414/501/499 478/475/473
f 415/502/500 478/475/473 477/473/471
f 282/485/483 411/503/501 283/495/493
f 283/495/493 411/503/501 446/504/502
f 283/495/493 446/504/502 393/496/494
f 393/496/494 446/504/502 445/505/503
f 393/496/494 445/505/503 394/497/495
f 394/497/495 445/505/503 444/499/497
f 447/484/482 281/486/484 500/506/504
f 500/506/504 281/486/484 25/507/404
f 500/506/504 25/507/404 24/508/505
f 500/506/504 24/508/505 499/509/506
f 499/509/506 24/508/505 23/510/507
f 499/509/506 23/510/507 498/511/508
f 498/511/508 23/510/507 22/512/509
f 498/511/508 22/512/509 497/513/510
f 497/513/510 22/512/509 21/514/511
f 497/513/510 21/514/511 496/515/512
f 496/515/512 21/514/511 495/516/513
f 496/515/512 495/516/513 451/476/474
f 451/476/474 495/516/513 452/474/472
f 21/514/511 20/517/514 495/516/513
f 495/516/513 20/517/514 494/518/515
f 495/516/513 494/518/515 452/474/472
f 452/474/472 494/518/515 453/472/470
f 494/518/515 20/517/514 493/519/516
f 493/519/516 20/517/514 19/520/517
f 493/519/516 19/520/517 492/521/518
f 492/521/518 19/520/517 491/522/519
f 492/521/518 491/522/519 455/468/466
f 455/468/466 491/522/519 456/466/464
f 19/520/517 18/523/520 491/522/519
f 491/522/519 18/523/520 490/524/521
f 491/522/519 490/524/521 456/466/464
f 456/466/464 490/524/521 457/464/462
f 490/524/521 18/523/520 489/525/522
f 489/525/522 18/523/520 17/526/523
f 489/525/522 17/526/523 488/527/524
f 488/527/524 17/526/523 16/528/525
f 488/527/524 16/528/525 487/529/526
f 487/529/526 16/528/525 486/530/527
f 487/529/526 486/530/527 460/458/456
f 460/458/456 486/530/527 461/456/454
f 16/528/525 15/531/528 486/530/527
f 486/530/527 15/531/528 485/532/529
f 486/530/527 485/532/529 461/456/454
f 461/456/454 485/532/529 462/454/452
f 485/532/529 15/531/528 484/533/530
f 484/533/530 15/531/528 14/534/531
f 484/533/530 14/534/531 483/535/532
f 483/535/532 14/534/531 13/536/117
f 483/535/532 13/536/117 54/537/533
f 483/535/532 54/537/533 464/450/448
f 464/450/448 54/537/533 53/448/446
f 429/445/443 52/447/445 410/538/534
f 410/538/534 52/447/445 51/441/439
f 410/538/534 51/441/439 409/443/441
f 282/485/483 482/483/481 411/503/501
f 411/503/501 482/483/481 481/481/479
f 411/503/501 481/481/479 412/539/535
f 412/539/535 481/481/479 480/479/477
f 412/539/535 480/479/477 413/540/536
f 413/540/536 480/479/477 479/477/475
f 413/540/536 479/477/475 414/501/499
f 414/501/499 479/477/475 478/475/473
f 397/488/486 279/487/485 396/541/537
f 396/541/537 279/487/485 395/498/496
f 396/541/537 395/498/496 443/500/498
f 397/488/486 396/541/537 442/542/538
f 442/542/538 396/541/537 443/500/498
f 442/542/538 443/500/498 415/502/500
f 398/489/487 397/488/486 441/543/539
f 441/543/539 397/488/486 442/542/538
f 441/543/539 442/542/538 416/544/540
f 416/544/540 442/542/538 415/502/500
f 416/544/540 415/502/500 477/473/471
f 399/490/488 400/545/541 392/439/437
f 392/439/437 400/545/541 401/546/542
f 392/439/437 401/546/542 402/547/543
f 402/547/543 401/546/542 437/548/544
f 402/547/543 437/548/544 436/549/545
f 436/549/545 437/548/544 421/550/546
f 436/549/545 421/550/546 422/551/547
f 422/551/547 421/550/546 471/461/459
f 422/551/547 471/461/459 470/459/457
f 399/490/488 439/492/490 400/545/541
f 400/545/541 439/492/490 438/552/548
f 400/545/541 438/552/548 401/546/542
f 401/546/542 438/552/548 437/548/544
f 402/547/543 403/553/549 392/439/437
f 392/439/437 403/553/549 404/554/550
f 392/439/437 404/554/550 405/555/551
f 405/555/551 404/554/550 434/556/552
f 405/555/551 434/556/552 433/557/553
f 433/557/553 434/556/552 424/558/554
f 433/557/553 424/558/554 425/559/555
f 425/559/555 424/558/554 468/455/453
f 425/559/555 468/455/453 467/453/451
f 402/547/543 436/549/545 403/553/549
f 403/553/549 436/549/545 435/560/556
f 403/553/549 435/560/556 404/554/550
f 404/554/550 435/560/556 434/556/552
f 407/440/438 392/439/437 406/561/557
f 406/561/557 392/439/437 405/555/551
f 406/561/557 405/555/551 433/557/553
f 407/440/438 406/561/557 432/562/558
f 432/562/558 406/561/557 433/557/553
f 432/562/558 433/557/553 425/559/555
f 408/442/440 407/440/438 431/563/559
f 431/563/559 407/440/438 432/562/558
f 431/563/559 432/562/558 426/564/560
f 426/564/560 432/562/558 425/559/555
f 426/564/560 425/559/555 467/453/451
f 429/445/443 410/538/534 409/443/441
f 445/505/503 446/504/502 412/539/535
f 412/539/535 446/504/502 411/503/501
f 444/499/497 445/505/503 413/540/536
f 413/540/536 445/505/503 412/539/535
f 413/540/536 414/501/499 444/499/497
f 416/544/540 417/565/561 441/543/539
f 441/543/539 417/565/561 440/491/489
f 441/543/539 440/491/489 398/489/487
f 440/491/489 417/565/561 418/493/491
f 418/493/491 417/565/561 475/469/467
f 418/493/491 475/469/467 474/467/465
f 477/473/471 476/471/469 416/544/540
f 416/544/540 476/471/469 417/565/561
f 438/552/548 439/492/490 419/494/492
f 476/471/469 475/469/467 417/565/561
f 437/548/544 438/552/548 420/566/562
f 420/566/562 438/552/548 419/494/492
f 420/566/562 419/494/492 473/465/463
f 437/548/544 420/566/562 421/550/546
f 421/550/546 420/566/562 472/463/461
f 421/550/546 472/463/461 471/461/459
f 472/463/461 420/566/562 473/465/463
f 435/560/556 436/549/545 422/551/547
f 434/556/552 435/560/556 423/567/563
f 423/567/563 435/560/556 422/551/547
f 423/567/563 422/551/547 470/459/457
f 434/556/552 423/567/563 424/558/554
f 424/558/554 423/567/563 469/457/455
f 424/558/554 469/457/455 468/455/453
f 469/457/455 423/567/563 470/459/457
f 426/564/560 427/568/564 431/563/559
f 431/563/559 427/568/564 430/444/442
f 431/563/559 430/444/442 408/442/440
f 465/449/447 428/446/444 427/568/564
f 427/568/564 428/446/444 430/444/442
f 467/453/451 466/451/449 426/564/560
f 426/564/560 466/451/449 427/568/564
f 466/451/449 465/449/447 427/568/564
f 500/506/504 499/509/506 447/484/482
f 447/484/482 499/509/506 448/482/480
f 499/509/506 498/511/508 448/482/480
f 448/482/480 498/511/508 449/480/478
f 496/515/512 451/476/474 450/478/476
f 498/511/508 497/513/510 449/480/478
f 449/480/478 497/513/510 450/478/476
f 497/513/510 496/515/512 450/478/476
f 492/521/518 455/468/466 454/470/468
f 494/518/515 493/519/516 453/472/470
f 453/472/470 493/519/516 454/470/468
f 493/519/516 492/521/518 454/470/468
f 490/524/521 489/525/522 457/464/462
f 457/464/462 489/525/522 458/462/460
f 487/529/526 460/458/456 459/460/458
f 489/525/522 488/527/524 458/462/460
f 458/462/460 488/527/524 459/460/458
f 488/527/524 487/529/526 459/460/458
f 483/535/532 464/450/448 463/452/450
f 485/532/529 484/533/530 462/454/452
f 462/454/452 484/533/530 463/452/450
f 484/533/530 483/535/532 463/452/450
f 502/569/565 503/570/566 501/571/567
f 501/571/567 503/570/566 504/572/568
f 166/573/569 280/574/570 504/575/571
f 504/575/571 280/574/570 501/576/572
f 501/576/572 280/574/570 279/577/573
f 49/578/574 167/579/575 503/580/576
f 503/580/576 167/579/575 504/581/577
f 504/581/577 167/579/575 166/582/578
f 51/583/579 50/584/580 502/585/581
f 502/585/581 50/584/580 503/586/582
f 503/586/582 50/584/580 49/587/583
f 279/588/584 392/589/585 501/590/586
f 501/590/586 392/589/585 502/591/587
f 502/591/587 392/589/585 51/592/588
# 504 vertices
# 592 texture params
# 588 normals
# 1004 facets

# 1 groups
