# WaveFront *.obj file (generated by Autodesk ATF)

mtllib torso_mid.mtl

g Torso_Mid

v -0.130000 0.120000 0.100000
v -0.130000 0.120000 -0.000000
v -0.130000 -0.080000 0.000000
v -0.130000 -0.083921 0.000272
v -0.130000 -0.087804 0.001087
v -0.130000 -0.091611 0.002436
v -0.130000 -0.095307 0.004306
v -0.130000 -0.098856 0.006680
v -0.130000 -0.102223 0.009534
v -0.130000 -0.105376 0.012840
v -0.130000 -0.108284 0.016569
v -0.130000 -0.110920 0.020682
v -0.130000 -0.113259 0.025141
v -0.130000 -0.115277 0.029902
v -0.130000 -0.116955 0.034921
v -0.130000 -0.118278 0.040148
v -0.130000 -0.119231 0.045533
v -0.130000 -0.119807 0.051024
v -0.130000 -0.120000 0.056569
v -0.130000 -0.120000 0.100000
v 0.130000 0.120000 0.100000
v 0.130000 0.120000 -0.000000
v 0.130000 -0.120000 0.100000
v 0.130000 -0.120000 0.056569
v 0.130000 -0.119807 0.051024
v 0.130000 -0.119231 0.045533
v 0.130000 -0.118278 0.040148
v 0.130000 -0.116955 0.034921
v 0.130000 -0.115277 0.029902
v 0.130000 -0.113259 0.025141
v 0.130000 -0.110920 0.020682
v 0.130000 -0.108284 0.016569
v 0.130000 -0.105376 0.012840
v 0.130000 -0.102223 0.009534
v 0.130000 -0.098856 0.006680
v 0.130000 -0.095307 0.004306
v 0.130000 -0.091611 0.002436
v 0.130000 -0.087804 0.001087
v 0.130000 -0.083921 0.000272
v 0.130000 -0.080000 -0.000000
v 0.129728 -0.083921 -0.000000
v 0.128913 -0.087804 -0.000000
v 0.127564 -0.091611 -0.000000
v 0.125694 -0.095307 -0.000000
v 0.123320 -0.098856 -0.000000
v 0.120466 -0.102223 -0.000000
v 0.117160 -0.105376 -0.000000
v 0.113431 -0.108284 -0.000000
v 0.109318 -0.110920 -0.000000
v 0.104859 -0.113259 -0.000000
v 0.100098 -0.115277 -0.000000
v 0.095079 -0.116955 -0.000000
v 0.089852 -0.118278 -0.000000
v 0.084467 -0.119231 -0.000000
v 0.078976 -0.119807 -0.000000
v 0.073431 -0.120000 0.000000
v -0.073431 -0.120000 0.000000
v -0.078976 -0.119807 0.000000
v -0.084467 -0.119231 0.000000
v -0.089852 -0.118278 0.000000
v -0.095079 -0.116955 0.000000
v -0.100098 -0.115277 0.000000
v -0.104859 -0.113259 0.000000
v -0.109318 -0.110920 0.000000
v -0.113431 -0.108284 0.000000
v -0.117160 -0.105376 0.000000
v -0.120466 -0.102223 0.000000
v -0.123320 -0.098856 0.000000
v -0.125694 -0.095307 0.000000
v -0.127564 -0.091611 0.000000
v -0.128913 -0.087804 0.000000
v -0.129728 -0.083921 0.000000
vt 12.000000 10.686300 0.000000
vt -11.923141 6.133043 0.000000
vt 12.000000 0.686300 0.000000
vt -11.980739 5.583914 0.000000
vt -12.000000 5.029446 0.000000
vt -8.000000 10.686300 0.000000
vt -11.527685 7.696068 0.000000
vt -11.695518 7.194230 0.000000
vt -11.827761 6.671544 0.000000
vt -8.392069 10.659061 0.000000
vt -8.780361 10.577605 0.000000
vt -9.161139 10.442718 0.000000
vt -9.530734 10.255698 0.000000
vt -9.885587 10.018346 0.000000
vt -10.222281 9.732948 0.000000
vt -10.537573 9.402253 0.000000
vt -10.828427 9.029446 0.000000
vt -11.092042 8.618116 0.000000
vt -11.325878 8.172226 0.000000
vt -12.000000 0.686300 0.000000
vt 10.686300 20.000000 0.000000
vt 0.686300 20.000000 0.000000
vt 10.686300 -6.000000 0.000000
vt 0.686300 -6.000000 0.000000
vt -12.000000 0.686300 0.000000
vt 11.923141 6.133043 0.000000
vt -12.000000 10.686300 0.000000
vt 11.827761 6.671544 0.000000
vt 11.695518 7.194230 0.000000
vt 12.000000 0.686300 0.000000
vt 12.000000 5.029446 0.000000
vt 11.980739 5.583914 0.000000
vt 11.527685 7.696068 0.000000
vt 8.000000 10.686300 0.000000
vt 11.325878 8.172226 0.000000
vt 11.092042 8.618116 0.000000
vt 10.828427 9.029446 0.000000
vt 10.537573 9.402253 0.000000
vt 10.222281 9.732948 0.000000
vt 9.885587 10.018346 0.000000
vt 9.530734 10.255698 0.000000
vt 9.161139 10.442718 0.000000
vt 8.780361 10.577605 0.000000
vt 8.392069 10.659061 0.000000
vt 13.000000 12.000000 0.000000
vt -13.000000 12.000000 0.000000
vt 13.000000 -8.000000 0.000000
vt 7.343146 -12.000000 0.000000
vt 7.897614 -11.980739 0.000000
vt -7.343146 -12.000000 0.000000
vt -13.000000 -8.000000 0.000000
vt -7.897614 -11.980739 0.000000
vt -8.446743 -11.923141 0.000000
vt -8.985244 -11.827761 0.000000
vt -9.507930 -11.695518 0.000000
vt -10.009768 -11.527685 0.000000
vt -10.485926 -11.325878 0.000000
vt -10.931816 -11.092042 0.000000
vt -11.343146 -10.828427 0.000000
vt -11.715953 -10.537573 0.000000
vt -12.046648 -10.222281 0.000000
vt -12.332046 -9.885587 0.000000
vt -12.569398 -9.530734 0.000000
vt -12.756418 -9.161139 0.000000
vt -12.891305 -8.780361 0.000000
vt -12.972761 -8.392069 0.000000
vt 8.446743 -11.923141 0.000000
vt 8.985244 -11.827761 0.000000
vt 9.507930 -11.695518 0.000000
vt 10.009768 -11.527685 0.000000
vt 10.485926 -11.325878 0.000000
vt 10.931816 -11.092042 0.000000
vt 11.343146 -10.828427 0.000000
vt 11.715953 -10.537573 0.000000
vt 12.046648 -10.222281 0.000000
vt 12.332046 -9.885587 0.000000
vt 12.569398 -9.530734 0.000000
vt 12.756418 -9.161139 0.000000
vt 12.891305 -8.780361 0.000000
vt 12.972761 -8.392069 0.000000
vt -10.686300 14.343146 0.000000
vt -10.686300 -0.343146 0.000000
vt -5.029446 20.000000 0.000000
vt -5.029446 -6.000000 0.000000
vt -0.686300 -6.000000 0.000000
vt -0.686300 20.000000 0.000000
vt -7.292887 -3.141593 0.000000
vt -7.273626 -2.748894 0.000000
vt -7.312148 -2.748894 0.000000
vt -7.216028 -2.356194 0.000000
vt -7.369746 -2.356194 0.000000
vt -7.465126 -1.963495 0.000000
vt -7.120649 -1.963495 0.000000
vt -6.988405 -1.570796 0.000000
vt -7.597369 -1.570796 0.000000
vt -6.820572 -1.178097 0.000000
vt -7.765202 -1.178097 0.000000
vt -7.967009 -0.785398 0.000000
vt -6.618766 -0.785398 0.000000
vt -6.384929 -0.392699 0.000000
vt -6.121314 -0.000000 0.000000
vt -8.464460 0.000000 0.000000
vt -8.200845 -0.392699 0.000000
vt -8.755314 0.392699 0.000000
vt -5.830460 0.392699 0.000000
vt -5.515168 0.785398 0.000000
vt -5.178474 1.178097 0.000000
vt -9.407300 1.178097 0.000000
vt -9.070606 0.785398 0.000000
vt -4.823621 1.570796 0.000000
vt -9.762153 1.570796 0.000000
vt -4.454026 1.963495 0.000000
vt -10.131749 1.963495 0.000000
vt -10.512526 2.356194 0.000000
vt -4.073248 2.356194 0.000000
vt -3.684956 2.748894 0.000000
vt -3.292887 3.141593 0.000000
vt -11.292887 3.141593 0.000000
vt -10.900819 2.748894 0.000000
vt 6.343140 3.141593 0.000000
vt -1.656860 3.141593 0.000000
vt 5.951071 2.748894 0.000000
vt -1.264792 2.748894 0.000000
vt -0.876499 2.356194 0.000000
vt -0.495722 1.963495 0.000000
vt 5.182001 1.963495 0.000000
vt 5.562778 2.356194 0.000000
vt -0.126127 1.570796 0.000000
vt 4.812406 1.570796 0.000000
vt 0.228727 1.178097 0.000000
vt 4.457553 1.178097 0.000000
vt 4.120859 0.785398 0.000000
vt 0.565421 0.785398 0.000000
vt 0.880713 0.392699 0.000000
vt 1.171567 -0.000000 0.000000
vt 3.514713 -0.000000 0.000000
vt 3.805567 0.392699 0.000000
vt 3.251098 -0.392699 0.000000
vt 1.435182 -0.392699 0.000000
vt 1.669018 -0.785398 0.000000
vt 1.870825 -1.178097 0.000000
vt 2.815455 -1.178097 0.000000
vt 3.017261 -0.785398 0.000000
vt 2.038658 -1.570796 0.000000
vt 2.647622 -1.570796 0.000000
vt 2.170901 -1.963495 0.000000
vt 2.515378 -1.963495 0.000000
vt 2.419999 -2.356194 0.000000
vt 2.266281 -2.356194 0.000000
vt 2.323879 -2.748894 0.000000
vt 2.343140 -3.141593 0.000000
vt 2.362401 -2.748894 0.000000
vt 13.000000 12.000000 0.000000
vt -13.000000 12.000000 0.000000
vt 13.000000 -12.000000 0.000000
vt -13.000000 -12.000000 0.000000
vn -100.000000 -0.000000 -0.000000
vn -100.000000 -0.000000 -0.000000
vn -100.000000 -0.000000 -0.000000
vn -100.000000 -0.000000 -0.000000
vn -100.000000 -0.000000 -0.000000
vn -100.000000 -0.000000 -0.000000
vn -100.000000 -0.000000 -0.000000
vn -100.000000 -0.000000 -0.000000
vn -100.000000 -0.000000 -0.000000
vn -100.000000 -0.000000 -0.000000
vn -100.000000 -0.000000 -0.000000
vn -100.000000 -0.000000 -0.000000
vn -100.000000 -0.000000 -0.000000
vn -100.000000 -0.000000 -0.000000
vn -100.000000 -0.000000 -0.000000
vn -100.000000 -0.000000 -0.000000
vn -100.000000 -0.000000 -0.000000
vn -100.000000 -0.000000 -0.000000
vn -100.000000 -0.000000 -0.000000
vn -100.000000 -0.000000 -0.000000
vn -0.000000 100.000000 -0.000000
vn -0.000000 100.000000 -0.000000
vn -0.000000 100.000000 -0.000000
vn -0.000000 100.000000 -0.000000
vn 100.000000 0.000000 0.000000
vn 100.000000 0.000000 0.000000
vn 100.000000 0.000000 0.000000
vn 100.000000 0.000000 0.000000
vn 100.000000 0.000000 0.000000
vn 100.000000 0.000000 0.000000
vn 100.000000 0.000000 0.000000
vn 100.000000 0.000000 0.000000
vn 100.000000 0.000000 0.000000
vn 100.000000 0.000000 0.000000
vn 100.000000 0.000000 0.000000
vn 100.000000 0.000000 0.000000
vn 100.000000 0.000000 0.000000
vn 100.000000 0.000000 0.000000
vn 100.000000 0.000000 0.000000
vn 100.000000 0.000000 0.000000
vn 100.000000 0.000000 0.000000
vn 100.000000 0.000000 0.000000
vn 100.000000 0.000000 0.000000
vn 100.000000 0.000000 0.000000
vn -0.000000 -0.000000 -100.000000
vn -0.000000 -0.000000 -100.000000
vn -0.000000 -0.000000 -100.000000
vn -0.000000 -0.000000 -100.000000
vn -0.000000 -0.000000 -100.000000
vn -0.000000 -0.000000 -100.000000
vn -0.000000 -0.000000 -100.000000
vn -0.000000 -0.000000 -100.000000
vn -0.000000 -0.000000 -100.000000
vn -0.000000 -0.000000 -100.000000
vn -0.000000 -0.000000 -100.000000
vn -0.000000 -0.000000 -100.000000
vn -0.000000 -0.000000 -100.000000
vn -0.000000 -0.000000 -100.000000
vn -0.000000 -0.000000 -100.000000
vn -0.000000 -0.000000 -100.000000
vn -0.000000 -0.000000 -100.000000
vn -0.000000 -0.000000 -100.000000
vn -0.000000 -0.000000 -100.000000
vn -0.000000 -0.000000 -100.000000
vn -0.000000 -0.000000 -100.000000
vn -0.000000 -0.000000 -100.000000
vn -0.000000 -0.000000 -100.000000
vn -0.000000 -0.000000 -100.000000
vn -0.000000 -0.000000 -100.000000
vn -0.000000 -0.000000 -100.000000
vn -0.000000 -0.000000 -100.000000
vn -0.000000 -0.000000 -100.000000
vn -0.000000 -0.000000 -100.000000
vn -0.000000 -0.000000 -100.000000
vn -0.000000 -0.000000 -100.000000
vn -0.000000 -0.000000 -100.000000
vn -0.000000 -0.000000 -100.000000
vn -0.000000 -0.000000 -100.000000
vn -0.000000 -0.000000 -100.000000
vn -0.000000 -0.000000 -100.000000
vn 0.000000 -100.000000 0.000000
vn 0.000000 -100.000000 0.000000
vn 0.000000 -100.000000 0.000000
vn 0.000000 -100.000000 0.000000
vn 0.000000 -100.000000 0.000000
vn 0.000000 -100.000000 0.000000
vn -70.710678 -0.000000 -70.710678
vn -70.370187 -9.801714 -70.370187
vn -70.370187 -9.801714 -70.370187
vn -69.351992 -19.509032 -69.351992
vn -69.351992 -19.509032 -69.351992
vn -67.665900 -29.028468 -67.665900
vn -67.665900 -29.028468 -67.665900
vn -65.328148 -38.268343 -65.328148
vn -65.328148 -38.268343 -65.328148
vn -62.361251 -47.139674 -62.361251
vn -62.361251 -47.139674 -62.361251
vn -58.793780 -55.557023 -58.793780
vn -58.793780 -55.557023 -58.793780
vn -54.660093 -63.439328 -54.660093
vn -50.000000 -70.710678 -50.000000
vn -50.000000 -70.710678 -50.000000
vn -54.660093 -63.439328 -54.660093
vn -44.858379 -77.301045 -44.858379
vn -44.858379 -77.301045 -44.858379
vn -39.284748 -83.146961 -39.284748
vn -33.332783 -88.192126 -33.332783
vn -33.332783 -88.192126 -33.332783
vn -39.284748 -83.146961 -39.284748
vn -27.059805 -92.387953 -27.059805
vn -27.059805 -92.387953 -27.059805
vn -20.526226 -95.694034 -20.526226
vn -20.526226 -95.694034 -20.526226
vn -13.794969 -98.078528 -13.794969
vn -13.794969 -98.078528 -13.794969
vn -6.930858 -99.518473 -6.930858
vn -6.930858 -99.518473 -6.930858
vn 6.930858 -99.518473 -6.930858
vn 6.930858 -99.518473 -6.930858
vn 13.794969 -98.078528 -13.794969
vn 20.526226 -95.694034 -20.526226
vn 20.526226 -95.694034 -20.526226
vn 13.794969 -98.078528 -13.794969
vn 27.059805 -92.387953 -27.059805
vn 27.059805 -92.387953 -27.059805
vn 33.332783 -88.192126 -33.332783
vn 33.332783 -88.192126 -33.332783
vn 39.284748 -83.146961 -39.284748
vn 39.284748 -83.146961 -39.284748
vn 44.858379 -77.301045 -44.858379
vn 50.000000 -70.710678 -50.000000
vn 50.000000 -70.710678 -50.000000
vn 44.858379 -77.301045 -44.858379
vn 54.660093 -63.439328 -54.660093
vn 54.660093 -63.439328 -54.660093
vn 58.793780 -55.557023 -58.793780
vn 62.361251 -47.139674 -62.361251
vn 62.361251 -47.139674 -62.361251
vn 58.793780 -55.557023 -58.793780
vn 65.328148 -38.268343 -65.328148
vn 65.328148 -38.268343 -65.328148
vn 67.665900 -29.028468 -67.665900
vn 67.665900 -29.028468 -67.665900
vn 69.351992 -19.509032 -69.351992
vn 69.351992 -19.509032 -69.351992
vn 70.370187 -9.801714 -70.370187
vn 70.710678 -0.000000 -70.710678
vn 70.370187 -9.801714 -70.370187
vn 0.000000 0.000000 100.000000
vn 0.000000 0.000000 100.000000
vn 0.000000 0.000000 100.000000
vn 0.000000 0.000000 100.000000
usemtl Rubber_-_Soft
f 2/1/1 17/2/2 1/3/3
f 1/3/3 17/2/2 18/4/4
f 1/3/3 18/4/4 19/5/5
f 3/6/6 14/7/7 2/1/1
f 2/1/1 14/7/7 15/8/8
f 2/1/1 15/8/8 16/9/9
f 4/10/10 5/11/11 3/6/6
f 3/6/6 5/11/11 6/12/12
f 3/6/6 6/12/12 7/13/13
f 7/13/13 8/14/14 3/6/6
f 3/6/6 8/14/14 9/15/15
f 3/6/6 9/15/15 10/16/16
f 10/16/16 11/17/17 3/6/6
f 3/6/6 11/17/17 12/18/18
f 3/6/6 12/18/18 13/19/19
f 13/19/19 14/7/7 3/6/6
f 16/9/9 17/2/2 2/1/1
f 19/5/5 20/20/20 1/3/3
f 2/21/21 1/22/22 22/23/23
f 22/23/23 1/22/22 21/24/24
f 21/25/25 26/26/26 22/27/27
f 22/27/27 26/26/26 27/28/28
f 22/27/27 27/28/28 28/29/29
f 23/30/30 24/31/31 21/25/25
f 21/25/25 24/31/31 25/32/32
f 21/25/25 25/32/32 26/26/26
f 28/29/29 29/33/33 22/27/27
f 22/27/27 29/33/33 40/34/34
f 40/34/34 29/33/33 30/35/35
f 40/34/34 30/35/35 31/36/36
f 31/36/36 32/37/37 40/34/34
f 40/34/34 32/37/37 33/38/38
f 40/34/34 33/38/38 34/39/39
f 34/39/39 35/40/40 40/34/34
f 40/34/34 35/40/40 36/41/41
f 40/34/34 36/41/41 37/42/42
f 37/42/42 38/43/43 40/34/34
f 40/34/34 38/43/43 39/44/44
f 2/45/45 22/46/46 3/47/47
f 3/47/47 22/46/46 57/48/48
f 3/47/47 57/48/48 58/49/49
f 57/48/48 22/46/46 56/50/50
f 56/50/50 22/46/46 40/51/51
f 56/50/50 40/51/51 55/52/52
f 55/52/52 40/51/51 54/53/53
f 54/53/53 40/51/51 53/54/54
f 53/54/54 40/51/51 52/55/55
f 52/55/55 40/51/51 51/56/56
f 51/56/56 40/51/51 50/57/57
f 50/57/57 40/51/51 49/58/58
f 49/58/58 40/51/51 48/59/59
f 48/59/59 40/51/51 47/60/60
f 47/60/60 40/51/51 46/61/61
f 46/61/61 40/51/51 45/62/62
f 45/62/62 40/51/51 44/63/63
f 44/63/63 40/51/51 43/64/64
f 43/64/64 40/51/51 42/65/65
f 42/65/65 40/51/51 41/66/66
f 58/49/49 59/67/67 3/47/47
f 3/47/47 59/67/67 60/68/68
f 3/47/47 60/68/68 61/69/69
f 61/69/69 62/70/70 3/47/47
f 3/47/47 62/70/70 63/71/71
f 3/47/47 63/71/71 64/72/72
f 64/72/72 65/73/73 3/47/47
f 3/47/47 65/73/73 66/74/74
f 3/47/47 66/74/74 67/75/75
f 67/75/75 68/76/76 3/47/47
f 3/47/47 68/76/76 69/77/77
f 3/47/47 69/77/77 70/78/78
f 70/78/78 71/79/79 3/47/47
f 3/47/47 71/79/79 72/80/80
f 57/81/81 56/82/82 19/83/83
f 19/83/83 56/82/82 24/84/84
f 19/83/83 24/84/84 23/85/85
f 23/85/85 20/86/86 19/83/83
f 3/87/87 72/88/88 4/89/89
f 4/89/89 72/88/88 71/90/90
f 4/89/89 71/90/90 5/91/91
f 5/91/91 71/90/90 6/92/92
f 6/92/92 71/90/90 70/93/93
f 6/92/92 70/93/93 69/94/94
f 6/92/92 69/94/94 7/95/95
f 7/95/95 69/94/94 68/96/96
f 7/95/95 68/96/96 8/97/97
f 8/97/97 68/96/96 9/98/98
f 9/98/98 68/96/96 67/99/99
f 9/98/98 67/99/99 66/100/100
f 65/101/101 11/102/102 66/100/100
f 66/100/100 11/102/102 10/103/103
f 66/100/100 10/103/103 9/98/98
f 11/102/102 65/101/101 12/104/104
f 12/104/104 65/101/101 64/105/105
f 12/104/104 64/105/105 63/106/106
f 62/107/107 14/108/108 63/106/106
f 63/106/106 14/108/108 13/109/109
f 63/106/106 13/109/109 12/104/104
f 62/107/107 61/110/110 14/108/108
f 14/108/108 61/110/110 15/111/111
f 15/111/111 61/110/110 60/112/112
f 15/111/111 60/112/112 16/113/113
f 16/113/113 60/112/112 17/114/114
f 17/114/114 60/112/112 59/115/115
f 17/114/114 59/115/115 58/116/116
f 57/117/81 19/118/83 58/116/116
f 58/116/116 19/118/83 18/119/117
f 58/116/116 18/119/117 17/114/114
f 24/120/84 56/121/82 25/122/118
f 25/122/118 56/121/82 55/123/119
f 25/122/118 55/123/119 54/124/120
f 53/125/121 27/126/122 54/124/120
f 54/124/120 27/126/122 26/127/123
f 54/124/120 26/127/123 25/122/118
f 53/125/121 52/128/124 27/126/122
f 27/126/122 52/128/124 28/129/125
f 28/129/125 52/128/124 51/130/126
f 28/129/125 51/130/126 29/131/127
f 29/131/127 51/130/126 30/132/128
f 30/132/128 51/130/126 50/133/129
f 30/132/128 50/133/129 49/134/130
f 48/135/131 32/136/132 49/134/130
f 49/134/130 32/136/132 31/137/133
f 49/134/130 31/137/133 30/132/128
f 32/136/132 48/135/131 33/138/134
f 33/138/134 48/135/131 47/139/135
f 33/138/134 47/139/135 46/140/136
f 45/141/137 35/142/138 46/140/136
f 46/140/136 35/142/138 34/143/139
f 46/140/136 34/143/139 33/138/134
f 45/141/137 44/144/140 35/142/138
f 35/142/138 44/144/140 36/145/141
f 36/145/141 44/144/140 43/146/142
f 36/145/141 43/146/142 37/147/143
f 37/147/143 43/146/142 38/148/144
f 38/148/144 43/146/142 42/149/145
f 38/148/144 42/149/145 41/150/146
f 40/151/147 39/152/148 41/150/146
f 41/150/146 39/152/148 38/148/144
f 21/153/149 1/154/150 23/155/151
f 23/155/151 1/154/150 20/156/152
# 72 vertices
# 156 texture params
# 152 normals
# 140 facets

# 1 groups
