# WaveFront *.obj file (generated by Autodesk ATF)

mtllib torso_lower.mtl

g Torso_Lower

v -0.130000 0.094569 -0.000000
v -0.129178 0.095000 0.000000
v -0.129276 0.095000 -0.000724
v -0.115604 0.101536 0.000000
v -0.101605 0.107120 0.000000
v -0.087247 0.111727 0.000000
v -0.072601 0.115333 0.000000
v -0.057738 0.117922 0.000000
v -0.042729 0.119480 0.000000
v -0.027647 0.120000 0.000000
v -0.039791 0.120000 -0.090209
v -0.051424 0.119602 -0.078576
v -0.063014 0.118408 -0.066986
v -0.074518 0.116424 -0.055482
v -0.085893 0.113656 -0.044107
v -0.097098 0.110116 -0.032902
v -0.108090 0.105815 -0.021910
v -0.118829 0.100770 -0.011171
v 0.130000 0.095429 -0.000000
v 0.116520 0.101854 -0.000000
v 0.102624 0.107344 -0.000000
v 0.088381 0.111871 -0.000000
v 0.073856 0.115415 -0.000000
v 0.059119 0.117958 -0.000000
v 0.044241 0.119489 -0.000000
v 0.029291 0.120000 0.000000
v -0.130000 -0.080000 0.000000
v -0.129728 -0.083921 0.000000
v -0.128913 -0.087804 0.000000
v -0.127564 -0.091611 0.000000
v -0.125694 -0.095307 0.000000
v -0.123320 -0.098856 0.000000
v -0.120466 -0.102223 0.000000
v -0.117160 -0.105376 0.000000
v -0.113431 -0.108284 0.000000
v -0.109318 -0.110920 0.000000
v -0.104859 -0.113259 0.000000
v -0.100098 -0.115277 0.000000
v -0.095079 -0.116955 0.000000
v -0.089852 -0.118278 0.000000
v -0.084467 -0.119231 0.000000
v -0.078976 -0.119807 0.000000
v -0.073431 -0.120000 0.000000
v 0.073431 -0.120000 0.000000
v 0.078976 -0.119807 -0.000000
v 0.084467 -0.119231 -0.000000
v 0.089852 -0.118278 -0.000000
v 0.095079 -0.116955 -0.000000
v 0.100098 -0.115277 -0.000000
v 0.104859 -0.113259 -0.000000
v 0.109318 -0.110920 -0.000000
v 0.113431 -0.108284 -0.000000
v 0.117160 -0.105376 -0.000000
v 0.120466 -0.102223 -0.000000
v 0.123320 -0.098856 -0.000000
v 0.125694 -0.095307 -0.000000
v 0.127564 -0.091611 -0.000000
v 0.128913 -0.087804 -0.000000
v 0.129728 -0.083921 -0.000000
v 0.130000 -0.080000 -0.000000
v -0.016863 0.120000 -0.113137
v -0.016863 -0.080000 -0.113137
v 0.016863 0.120000 -0.113137
v 0.016863 -0.080000 -0.113137
v 0.016585 -0.083957 -0.113137
v 0.015756 -0.087876 -0.113137
v 0.014382 -0.091717 -0.113137
v 0.012477 -0.095443 -0.113137
v 0.010061 -0.099017 -0.113137
v 0.007156 -0.102405 -0.113137
v 0.003791 -0.105574 -0.113137
v -0.000000 -0.108491 -0.113137
v -0.003791 -0.105574 -0.113137
v -0.007156 -0.102405 -0.113137
v -0.010061 -0.099017 -0.113137
v -0.012477 -0.095443 -0.113137
v -0.014382 -0.091717 -0.113137
v -0.015756 -0.087876 -0.113137
v -0.016585 -0.083957 -0.113137
v -0.000000 -0.111083 -0.109037
v -0.000000 -0.113381 -0.104600
v -0.000000 -0.115363 -0.099869
v -0.000000 -0.117011 -0.094887
v -0.000000 -0.118309 -0.089703
v -0.000000 -0.119246 -0.084366
v -0.000000 -0.119811 -0.078925
v -0.000000 -0.120000 -0.073431
v -0.045356 -0.119508 -0.036925
v -0.049672 -0.118042 -0.041240
v -0.053772 -0.115640 -0.045341
v -0.057557 -0.112361 -0.049125
v -0.060931 -0.108284 -0.052500
v -0.063814 -0.103511 -0.055382
v -0.066133 -0.098160 -0.057701
v -0.067831 -0.092361 -0.059400
v -0.068868 -0.086257 -0.060436
v 0.067831 -0.092361 -0.059400
v 0.068868 -0.086257 -0.060436
v 0.066133 -0.098160 -0.057701
v 0.063814 -0.103511 -0.055382
v 0.060931 -0.108284 -0.052500
v 0.057557 -0.112361 -0.049125
v 0.053772 -0.115640 -0.045341
v 0.049672 -0.118042 -0.041240
v 0.045356 -0.119508 -0.036925
v 0.041240 0.120000 -0.088760
v 0.052771 0.119609 -0.077229
v 0.064260 0.118436 -0.065740
v 0.075665 0.116486 -0.054335
v 0.086945 0.113767 -0.043055
v 0.098058 0.110287 -0.031942
v 0.108965 0.106061 -0.021035
v 0.119625 0.101102 -0.010375
vt 11.274823 1.624223 0.000000
vt 11.271782 1.717007 0.000000
vt 11.199516 1.705999 0.000000
vt 12.065729 0.000000 0.000000
vt 12.138829 0.000000 0.000000
vt 11.169807 1.308926 0.000000
vt 12.319921 1.495916 0.000000
vt 10.248768 2.617853 0.000000
vt 12.506691 2.991832 0.000000
vt 9.306025 3.926779 0.000000
vt 12.698235 4.487748 0.000000
vt 8.345071 5.235706 0.000000
vt 12.893628 5.983664 0.000000
vt 7.369466 6.544632 0.000000
vt 13.091922 7.479579 0.000000
vt 6.382826 7.853558 0.000000
vt 13.292160 8.975495 0.000000
vt 5.388806 9.162485 0.000000
vt 13.493370 10.471411 0.000000
vt 4.391089 10.471411 0.000000
vt 13.000000 9.542920 0.000000
vt 11.651956 10.185441 0.000000
vt 13.000000 -8.000000 0.000000
vt 10.262441 10.734370 0.000000
vt 8.838061 11.187098 0.000000
vt 7.385587 11.541471 0.000000
vt 5.911925 11.795805 0.000000
vt 4.424082 11.948890 0.000000
vt 2.929132 12.000000 0.000000
vt 7.343146 -12.000000 0.000000
vt 7.897614 -11.980739 0.000000
vt -2.764733 12.000000 0.000000
vt -7.343146 -12.000000 0.000000
vt -13.000000 -8.000000 0.000000
vt -7.897614 -11.980739 0.000000
vt -8.446743 -11.923141 0.000000
vt -8.985244 -11.827761 0.000000
vt -9.507930 -11.695518 0.000000
vt -10.009768 -11.527685 0.000000
vt -10.485926 -11.325878 0.000000
vt -10.931816 -11.092042 0.000000
vt -11.343146 -10.828427 0.000000
vt -11.715953 -10.537573 0.000000
vt -12.046648 -10.222281 0.000000
vt -12.332046 -9.885587 0.000000
vt -12.569398 -9.530734 0.000000
vt -12.756418 -9.161139 0.000000
vt -12.891305 -8.780361 0.000000
vt -12.972761 -8.392069 0.000000
vt -4.272924 11.947980 0.000000
vt -5.773818 11.792172 0.000000
vt -7.260150 11.533329 0.000000
vt -8.724728 11.172704 0.000000
vt -10.160465 10.712043 0.000000
vt -11.560414 10.153574 0.000000
vt -12.917801 9.500000 0.000000
vt -13.000000 9.456857 0.000000
vt 8.446743 -11.923141 0.000000
vt 8.985244 -11.827761 0.000000
vt 9.507930 -11.695518 0.000000
vt 10.009768 -11.527685 0.000000
vt 10.485926 -11.325878 0.000000
vt 10.931816 -11.092042 0.000000
vt 11.343146 -10.828427 0.000000
vt 11.715953 -10.537573 0.000000
vt 12.046648 -10.222281 0.000000
vt 12.332046 -9.885587 0.000000
vt 12.569398 -9.530734 0.000000
vt 12.756418 -9.161139 0.000000
vt 12.891305 -8.780361 0.000000
vt 12.972761 -8.392069 0.000000
vt 7.999994 9.456857 0.000000
vt 7.897538 9.500000 0.000000
vt 7.999994 -8.000000 0.000000
vt 6.420215 10.077018 0.000000
vt 4.901475 10.581498 0.000000
vt 3.346945 11.011570 0.000000
vt 1.762387 11.365642 0.000000
vt -7.999994 -8.000000 0.000000
vt 0.153671 11.642400 0.000000
vt -1.473243 11.840821 0.000000
vt -3.112326 11.960168 0.000000
vt -4.757504 12.000000 0.000000
vt -7.999994 12.000000 0.000000
vt -12.000000 8.686300 0.000000
vt 9.901738 8.006069 0.000000
vt 8.000000 8.686300 0.000000
vt 9.544276 8.247724 0.000000
vt 9.171662 8.438181 0.000000
vt -12.000000 5.313700 0.000000
vt 10.557365 7.379132 0.000000
vt 10.240543 7.715589 0.000000
vt 8.000000 5.313700 0.000000
vt 9.901738 5.993931 0.000000
vt 10.240543 6.284411 0.000000
vt 10.557365 6.620868 0.000000
vt 8.395718 5.341450 0.000000
vt 8.787554 5.424428 0.000000
vt 9.171662 5.561819 0.000000
vt 9.544276 5.752276 0.000000
vt 10.849096 7.000000 0.000000
vt 8.787554 8.575572 0.000000
vt 8.395718 8.658550 0.000000
vt -3.684956 2.748894 0.000000
vt 1.303304 2.513274 0.000000
vt -3.292887 3.141593 0.000000
vt 7.480308 2.752561 0.000000
vt 7.091889 3.141593 0.000000
vt -4.073248 2.356194 0.000000
vt 1.303304 1.884956 0.000000
vt 7.865055 2.363529 0.000000
vt 8.242495 1.974497 0.000000
vt 8.609060 1.585466 0.000000
vt 1.303304 1.256637 0.000000
vt 8.961285 1.196434 0.000000
vt 9.295841 0.807402 0.000000
vt 1.303304 0.628319 0.000000
vt 9.609566 0.418370 0.000000
vt 1.303304 -0.000000 0.000000
vt 9.899495 0.029338 0.000000
vt 9.631408 -0.367028 0.000000
vt 1.303304 -0.628319 0.000000
vt 9.393497 -0.763394 0.000000
vt 1.303304 -1.256637 0.000000
vt 9.188097 -1.159761 0.000000
vt 9.017221 -1.556127 0.000000
vt 1.303304 -1.884956 0.000000
vt 8.882548 -1.952493 0.000000
vt 8.785397 -2.348860 0.000000
vt 1.303304 -2.513274 0.000000
vt 8.726723 -2.745226 0.000000
vt 8.707101 -3.141593 0.000000
vt -7.273626 -2.748894 0.000000
vt -7.292887 -3.141593 0.000000
vt -4.454026 1.963495 0.000000
vt -4.823621 1.570796 0.000000
vt -5.178474 1.178097 0.000000
vt -5.515168 0.785398 0.000000
vt -5.830460 0.392699 0.000000
vt -6.121314 -0.000000 0.000000
vt -6.384929 -0.392699 0.000000
vt -6.618766 -0.785398 0.000000
vt -6.820572 -1.178097 0.000000
vt -6.988405 -1.570796 0.000000
vt -7.120649 -1.963495 0.000000
vt -7.216028 -2.356194 0.000000
vt -10.686300 -0.343146 0.000000
vt -10.686300 14.343146 0.000000
vt -18.029446 7.000000 0.000000
vt 2.323879 -2.748894 0.000000
vt -6.253051 -2.513274 0.000000
vt 2.343140 -3.141593 0.000000
vt -13.676470 -2.745226 0.000000
vt -13.656848 -3.141593 0.000000
vt 2.266281 -2.356194 0.000000
vt -6.253051 -1.884956 0.000000
vt -13.735145 -2.348860 0.000000
vt -13.832295 -1.952493 0.000000
vt -13.966969 -1.556127 0.000000
vt -6.253051 -1.256637 0.000000
vt -14.137844 -1.159761 0.000000
vt -14.343245 -0.763394 0.000000
vt -6.253051 -0.628319 0.000000
vt -14.581156 -0.367028 0.000000
vt -6.253051 -0.000000 0.000000
vt -14.849242 0.029338 0.000000
vt -14.559314 0.418370 0.000000
vt -6.253051 0.628319 0.000000
vt -14.245588 0.807402 0.000000
vt -6.253051 1.256637 0.000000
vt -13.911032 1.196434 0.000000
vt -13.558807 1.585466 0.000000
vt -6.253051 1.884956 0.000000
vt -13.192243 1.974497 0.000000
vt -12.814803 2.363529 0.000000
vt -6.253051 2.513274 0.000000
vt -12.430055 2.752561 0.000000
vt -12.041637 3.141593 0.000000
vt -1.264792 2.748894 0.000000
vt -1.656860 3.141593 0.000000
vt 2.170901 -1.963495 0.000000
vt 2.038658 -1.570796 0.000000
vt 1.870825 -1.178097 0.000000
vt 1.669018 -0.785398 0.000000
vt 1.435182 -0.392699 0.000000
vt 1.171567 -0.000000 0.000000
vt 0.880713 0.392699 0.000000
vt 0.565421 0.785398 0.000000
vt 0.228727 1.178097 0.000000
vt -0.126127 1.570796 0.000000
vt -0.495722 1.963495 0.000000
vt -0.876499 2.356194 0.000000
vt 7.999994 12.000000 0.000000
vt 4.552593 12.000000 0.000000
vt 7.999994 -8.000000 0.000000
vt 2.921864 11.960866 0.000000
vt 1.297071 11.843605 0.000000
vt -0.315871 11.648645 0.000000
vt -1.911089 11.376695 0.000000
vt -7.999994 -8.000000 0.000000
vt -3.482776 11.028745 0.000000
vt -5.025212 10.606063 0.000000
vt -6.532781 10.110186 0.000000
vt -7.999994 9.542920 0.000000
vt 10.686300 4.070868 0.000000
vt 19.562319 2.876019 0.000000
vt 10.686300 9.764733 0.000000
vt 22.000000 5.313700 0.000000
vt 22.000000 8.686300 0.000000
vt 19.707213 10.979087 0.000000
vt -4.526323 10.471411 0.000000
vt -13.482404 10.471411 0.000000
vt -5.515278 9.173995 0.000000
vt -13.282960 8.988650 0.000000
vt -6.500632 7.876578 0.000000
vt -13.084464 7.505888 0.000000
vt -7.478799 6.579162 0.000000
vt -12.887859 6.023126 0.000000
vt -8.446218 5.281745 0.000000
vt -12.694082 4.540365 0.000000
vt -9.399366 3.984329 0.000000
vt -12.504052 3.057603 0.000000
vt -10.334775 2.686912 0.000000
vt -12.318674 1.574841 0.000000
vt -11.249039 1.389496 0.000000
vt -12.138829 0.092080 0.000000
vn -46.383049 88.372093 6.243872
vn -46.383049 88.372093 6.243872
vn -46.383049 88.372093 6.243872
vn -40.968387 91.055897 5.514975
vn -40.181997 91.411972 5.409115
vn -35.401926 93.402314 4.765644
vn -33.786501 94.009502 4.548183
vn -29.704291 95.402651 3.998655
vn -27.227509 96.152113 3.665242
vn -23.896595 97.049496 3.216849
vn -20.536762 97.829436 2.764564
vn -18.000354 98.336746 2.423125
vn -13.746636 99.033356 1.850509
vn -12.037418 99.259633 1.620422
vn -6.889988 99.758046 0.927498
vn -6.029880 99.814737 0.811715
vn -0.000000 100.000000 0.000000
vn -0.000000 100.000000 -0.000000
vn 0.000000 0.000000 100.000000
vn 0.000000 0.000000 100.000000
vn 0.000000 0.000000 100.000000
vn 0.000000 0.000000 100.000000
vn 0.000000 0.000000 100.000000
vn 0.000000 0.000000 100.000000
vn 0.000000 0.000000 100.000000
vn 0.000000 0.000000 100.000000
vn 0.000000 0.000000 100.000000
vn 0.000000 0.000000 100.000000
vn 0.000000 0.000000 100.000000
vn 0.000000 0.000000 100.000000
vn 0.000000 0.000000 100.000000
vn 0.000000 0.000000 100.000000
vn 0.000000 0.000000 100.000000
vn 0.000000 0.000000 100.000000
vn 0.000000 0.000000 100.000000
vn 0.000000 0.000000 100.000000
vn 0.000000 0.000000 100.000000
vn 0.000000 0.000000 100.000000
vn 0.000000 0.000000 100.000000
vn 0.000000 0.000000 100.000000
vn 0.000000 0.000000 100.000000
vn 0.000000 0.000000 100.000000
vn 0.000000 0.000000 100.000000
vn 0.000000 0.000000 100.000000
vn 0.000000 0.000000 100.000000
vn 0.000000 0.000000 100.000000
vn 0.000000 0.000000 100.000000
vn 0.000000 0.000000 100.000000
vn 0.000000 0.000000 100.000000
vn 0.000000 0.000000 100.000000
vn 0.000000 0.000000 100.000000
vn 0.000000 0.000000 100.000000
vn 0.000000 0.000000 100.000000
vn 0.000000 0.000000 100.000000
vn 0.000000 0.000000 100.000000
vn 0.000000 0.000000 100.000000
vn 0.000000 0.000000 100.000000
vn 0.000000 0.000000 100.000000
vn 0.000000 0.000000 100.000000
vn 0.000000 0.000000 100.000000
vn 0.000000 0.000000 100.000000
vn 0.000000 0.000000 100.000000
vn 0.000000 0.000000 100.000000
vn 0.000000 0.000000 100.000000
vn 0.000000 0.000000 100.000000
vn 0.000000 0.000000 100.000000
vn 0.000000 0.000000 100.000000
vn 0.000000 0.000000 100.000000
vn 0.000000 0.000000 100.000000
vn -70.710678 -0.000000 -70.710678
vn -70.710678 -0.000000 -70.710678
vn -70.710678 -0.000000 -70.710678
vn -70.710678 -0.000000 -70.710678
vn -70.710678 -0.000000 -70.710678
vn -70.710678 -0.000000 -70.710678
vn -70.710678 -0.000000 -70.710678
vn -70.710678 -0.000000 -70.710678
vn -70.710678 -0.000000 -70.710678
vn -70.710678 -0.000000 -70.710678
vn -70.710678 -0.000000 -70.710678
vn -70.710678 -0.000000 -70.710678
vn -70.710678 -0.000000 -70.710678
vn 0.000000 -0.000000 -100.000000
vn 0.000000 -0.000000 -100.000000
vn 0.000000 -0.000000 -100.000000
vn 0.000000 -0.000000 -100.000000
vn 0.000000 -0.000000 -100.000000
vn 0.000000 -0.000000 -100.000000
vn 0.000000 -0.000000 -100.000000
vn 0.000000 -0.000000 -100.000000
vn 0.000000 -0.000000 -100.000000
vn 0.000000 -0.000000 -100.000000
vn 0.000000 -0.000000 -100.000000
vn 0.000000 -0.000000 -100.000000
vn 0.000000 -0.000000 -100.000000
vn 0.000000 -0.000000 -100.000000
vn 0.000000 -0.000000 -100.000000
vn 0.000000 -0.000000 -100.000000
vn 0.000000 -0.000000 -100.000000
vn 0.000000 -0.000000 -100.000000
vn 0.000000 -0.000000 -100.000000
vn -6.930858 -99.518473 -6.930858
vn -11.061587 -98.768834 -11.061587
vn -0.000000 -100.000000 -0.000000
vn -6.866338 -99.527417 -6.866338
vn -0.000000 -100.000000 -0.000000
vn -13.794969 -98.078528 -13.794969
vn -21.850801 -95.105652 -21.850801
vn -13.667778 -98.114136 -13.667778
vn -20.340035 -95.773514 -20.340035
vn -26.820045 -92.527673 -26.820045
vn -32.101976 -89.100652 -32.101976
vn -33.046562 -88.407293 -33.046562
vn -38.960733 -83.451318 -38.960733
vn -41.562694 -80.901699 -41.562694
vn -44.506661 -77.706590 -44.506661
vn -50.000000 -70.710678 -50.000000
vn -49.631928 -71.227406 -49.631928
vn -54.371078 -63.934120 -54.371078
vn -57.206140 -58.778525 -57.206140
vn -58.576788 -56.013568 -58.576788
vn -63.003676 -45.399050 -63.003676
vn -62.207794 -47.543461 -62.207794
vn -65.228473 -38.606900 -65.228473
vn -67.249851 -30.901699 -67.249851
vn -67.609187 -29.291562 -67.609187
vn -69.326581 -19.688841 -69.326581
vn -69.840112 -15.643447 -69.840112
vn -70.363803 -9.892951 -70.363803
vn -70.370187 -9.801714 -70.370187
vn -20.526226 -95.694034 -20.526226
vn -27.059805 -92.387953 -27.059805
vn -33.332783 -88.192126 -33.332783
vn -39.284748 -83.146961 -39.284748
vn -44.858379 -77.301045 -44.858379
vn -50.000000 -70.710678 -50.000000
vn -54.660093 -63.439328 -54.660093
vn -58.793780 -55.557023 -58.793780
vn -62.361251 -47.139674 -62.361251
vn -65.328148 -38.268343 -65.328148
vn -67.665900 -29.028468 -67.665900
vn -69.351992 -19.509032 -69.351992
vn 0.000000 -100.000000 0.000000
vn 70.370187 -9.801714 -70.370187
vn 69.840112 -15.643447 -69.840112
vn 70.710678 -0.000000 -70.710678
vn 70.363803 -9.892951 -70.363803
vn 70.710678 0.000000 -70.710678
vn 69.351992 -19.509032 -69.351992
vn 67.249851 -30.901699 -67.249851
vn 69.326581 -19.688841 -69.326581
vn 67.609187 -29.291562 -67.609187
vn 65.228473 -38.606900 -65.228473
vn 63.003676 -45.399050 -63.003676
vn 62.207794 -47.543461 -62.207794
vn 58.576788 -56.013568 -58.576788
vn 57.206140 -58.778525 -57.206140
vn 54.371078 -63.934120 -54.371078
vn 50.000000 -70.710678 -50.000000
vn 49.631928 -71.227406 -49.631928
vn 44.506661 -77.706590 -44.506661
vn 41.562694 -80.901699 -41.562694
vn 38.960733 -83.451318 -38.960733
vn 32.101976 -89.100652 -32.101976
vn 33.046562 -88.407293 -33.046562
vn 26.820045 -92.527673 -26.820045
vn 21.850801 -95.105652 -21.850801
vn 20.340035 -95.773514 -20.340035
vn 13.667778 -98.114136 -13.667778
vn 11.061587 -98.768834 -11.061587
vn 6.866338 -99.527417 -6.866338
vn 6.930858 -99.518473 -6.930858
vn 67.665900 -29.028468 -67.665900
vn 65.328148 -38.268343 -65.328148
vn 62.361251 -47.139674 -62.361251
vn 58.793780 -55.557023 -58.793780
vn 54.660093 -63.439328 -54.660093
vn 50.000000 -70.710678 -50.000000
vn 44.858379 -77.301045 -44.858379
vn 39.284748 -83.146961 -39.284748
vn 33.332783 -88.192126 -33.332783
vn 27.059805 -92.387953 -27.059805
vn 20.526226 -95.694034 -20.526226
vn 13.794969 -98.078528 -13.794969
vn 70.710678 -0.000000 -70.710678
vn 70.710678 -0.000000 -70.710678
vn 70.710678 -0.000000 -70.710678
vn 70.710678 -0.000000 -70.710678
vn 70.710678 -0.000000 -70.710678
vn 70.710678 -0.000000 -70.710678
vn 70.710678 -0.000000 -70.710678
vn 70.710678 -0.000000 -70.710678
vn 70.710678 -0.000000 -70.710678
vn 70.710678 -0.000000 -70.710678
vn -0.000000 100.000000 -0.000000
vn -0.000000 100.000000 -0.000000
vn -0.000000 100.000000 -0.000000
vn -0.000000 100.000000 -0.000000
vn 5.976922 99.817980 0.804586
vn 6.829498 99.762281 0.919356
vn 11.932085 99.272581 1.606242
vn 13.626527 99.050255 1.834340
vn 17.843810 98.365790 2.402051
vn 20.358769 97.867306 2.740604
vn 23.690577 97.100907 3.189116
vn 26.994219 96.219059 3.633837
vn 29.451101 95.482537 3.964571
vn 33.501327 94.113351 4.509794
vn 35.104410 93.516572 4.725594
vn 39.849158 91.560192 5.364310
vn 40.629925 91.210168 5.469413
vn 46.007531 88.571722 6.193321
usemtl Paint_-_Metal_Flake_(Black)
f 1/1/1 2/2/2 3/3/3
f 3/4/3 2/5/2 18/6/4
f 18/6/4 2/5/2 4/7/5
f 18/6/4 4/7/5 17/8/6
f 17/8/6 4/7/5 5/9/7
f 17/8/6 5/9/7 16/10/8
f 16/10/8 5/9/7 6/11/9
f 16/10/8 6/11/9 15/12/10
f 15/12/10 6/11/9 7/13/11
f 15/12/10 7/13/11 14/14/12
f 14/14/12 7/13/11 8/15/13
f 14/14/12 8/15/13 13/16/14
f 13/16/14 8/15/13 9/17/15
f 13/16/14 9/17/15 12/18/16
f 12/18/16 9/17/15 10/19/17
f 12/18/16 10/19/17 11/20/18
f 19/21/19 20/22/20 60/23/21
f 60/23/21 20/22/20 21/24/22
f 60/23/21 21/24/22 22/25/23
f 22/25/23 23/26/24 60/23/21
f 60/23/21 23/26/24 24/27/25
f 60/23/21 24/27/25 25/28/26
f 25/28/26 26/29/27 60/23/21
f 60/23/21 26/29/27 44/30/28
f 60/23/21 44/30/28 45/31/29
f 26/29/27 10/32/30 44/30/28
f 44/30/28 10/32/30 43/33/31
f 43/33/31 10/32/30 27/34/32
f 43/33/31 27/34/32 42/35/33
f 42/35/33 27/34/32 41/36/34
f 41/36/34 27/34/32 40/37/35
f 40/37/35 27/34/32 39/38/36
f 39/38/36 27/34/32 38/39/37
f 38/39/37 27/34/32 37/40/38
f 37/40/38 27/34/32 36/41/39
f 36/41/39 27/34/32 35/42/40
f 35/42/40 27/34/32 34/43/41
f 34/43/41 27/34/32 33/44/42
f 33/44/42 27/34/32 32/45/43
f 32/45/43 27/34/32 31/46/44
f 31/46/44 27/34/32 30/47/45
f 30/47/45 27/34/32 29/48/46
f 29/48/46 27/34/32 28/49/47
f 10/32/30 9/50/48 27/34/32
f 27/34/32 9/50/48 8/51/49
f 27/34/32 8/51/49 7/52/50
f 7/52/50 6/53/51 27/34/32
f 27/34/32 6/53/51 5/54/52
f 27/34/32 5/54/52 4/55/53
f 4/55/53 2/56/54 27/34/32
f 27/34/32 2/56/54 1/57/55
f 45/31/29 46/58/56 60/23/21
f 60/23/21 46/58/56 47/59/57
f 60/23/21 47/59/57 48/60/58
f 48/60/58 49/61/59 60/23/21
f 60/23/21 49/61/59 50/62/60
f 60/23/21 50/62/60 51/63/61
f 51/63/61 52/64/62 60/23/21
f 60/23/21 52/64/62 53/65/63
f 60/23/21 53/65/63 54/66/64
f 54/66/64 55/67/65 60/23/21
f 60/23/21 55/67/65 56/68/66
f 60/23/21 56/68/66 57/69/67
f 57/69/67 58/70/68 60/23/21
f 60/23/21 58/70/68 59/71/69
f 1/72/70 3/73/71 27/74/72
f 27/74/72 3/73/71 18/75/73
f 27/74/72 18/75/73 17/76/74
f 17/76/74 16/77/75 27/74/72
f 27/74/72 16/77/75 15/78/76
f 27/74/72 15/78/76 62/79/77
f 62/79/77 15/78/76 14/80/78
f 62/79/77 14/80/78 13/81/79
f 13/81/79 12/82/80 62/79/77
f 62/79/77 12/82/80 11/83/81
f 62/79/77 11/83/81 61/84/82
f 61/85/83 75/86/84 62/87/85
f 62/87/85 75/86/84 76/88/86
f 62/87/85 76/88/86 77/89/87
f 63/90/88 73/91/89 61/85/83
f 61/85/83 73/91/89 74/92/90
f 61/85/83 74/92/90 75/86/84
f 64/93/91 69/94/92 63/90/88
f 63/90/88 69/94/92 70/95/93
f 63/90/88 70/95/93 71/96/94
f 65/97/95 66/98/96 64/93/91
f 64/93/91 66/98/96 67/99/97
f 64/93/91 67/99/97 68/100/98
f 68/100/98 69/94/92 64/93/91
f 71/96/94 72/101/99 63/90/88
f 63/90/88 72/101/99 73/91/89
f 77/89/87 78/102/100 62/87/85
f 62/87/85 78/102/100 79/103/101
f 42/104/102 88/105/103 43/106/104
f 43/106/104 88/105/103 86/107/105
f 43/106/104 86/107/105 87/108/106
f 42/104/102 41/109/107 88/105/103
f 88/105/103 41/109/107 89/110/108
f 88/105/103 89/110/108 85/111/109
f 85/111/109 89/110/108 84/112/110
f 84/112/110 89/110/108 83/113/111
f 83/113/111 89/110/108 90/114/112
f 83/113/111 90/114/112 82/115/113
f 82/115/113 90/114/112 81/116/114
f 81/116/114 90/114/112 91/117/115
f 81/116/114 91/117/115 80/118/116
f 80/118/116 91/117/115 92/119/117
f 80/118/116 92/119/117 72/120/118
f 72/120/118 92/119/117 73/121/119
f 73/121/119 92/119/117 93/122/120
f 73/121/119 93/122/120 74/123/121
f 74/123/121 93/122/120 94/124/122
f 74/123/121 94/124/122 75/125/123
f 75/125/123 94/124/122 76/126/124
f 76/126/124 94/124/122 95/127/125
f 76/126/124 95/127/125 77/128/126
f 77/128/126 95/127/125 78/129/127
f 78/129/127 95/127/125 96/130/128
f 78/129/127 96/130/128 79/131/129
f 79/131/129 96/130/128 62/132/77
f 62/132/77 96/130/128 28/133/130
f 62/132/77 28/133/130 27/134/72
f 41/109/107 40/135/131 89/110/108
f 89/110/108 40/135/131 39/136/132
f 89/110/108 39/136/132 90/114/112
f 90/114/112 39/136/132 38/137/133
f 90/114/112 38/137/133 37/138/134
f 90/114/112 37/138/134 91/117/115
f 91/117/115 37/138/134 36/139/135
f 91/117/115 36/139/135 92/119/117
f 92/119/117 36/139/135 35/140/136
f 92/119/117 35/140/136 34/141/137
f 92/119/117 34/141/137 93/122/120
f 93/122/120 34/141/137 33/142/138
f 93/122/120 33/142/138 94/124/122
f 94/124/122 33/142/138 32/143/139
f 94/124/122 32/143/139 31/144/140
f 94/124/122 31/144/140 95/127/125
f 95/127/125 31/144/140 30/145/141
f 95/127/125 30/145/141 29/146/142
f 95/127/125 29/146/142 96/130/128
f 96/130/128 29/146/142 28/133/130
f 85/111/109 86/107/105 88/105/103
f 44/147/143 43/148/104 87/149/106
f 59/150/144 98/151/145 60/152/146
f 60/152/146 98/151/145 65/153/147
f 60/152/146 65/153/147 64/154/148
f 59/150/144 58/155/149 98/151/145
f 98/151/145 58/155/149 97/156/150
f 98/151/145 97/156/150 66/157/151
f 66/157/151 97/156/150 67/158/152
f 67/158/152 97/156/150 68/159/153
f 68/159/153 97/156/150 99/160/154
f 68/159/153 99/160/154 69/161/155
f 69/161/155 99/160/154 70/162/156
f 70/162/156 99/160/154 100/163/157
f 70/162/156 100/163/157 71/164/158
f 71/164/158 100/163/157 101/165/159
f 71/164/158 101/165/159 72/166/160
f 72/166/160 101/165/159 80/167/161
f 80/167/161 101/165/159 102/168/162
f 80/167/161 102/168/162 81/169/163
f 81/169/163 102/168/162 103/170/164
f 81/169/163 103/170/164 82/171/165
f 82/171/165 103/170/164 83/172/166
f 83/172/166 103/170/164 104/173/167
f 83/172/166 104/173/167 84/174/168
f 84/174/168 104/173/167 85/175/169
f 85/175/169 104/173/167 105/176/170
f 85/175/169 105/176/170 86/177/171
f 86/177/171 105/176/170 87/178/106
f 87/178/106 105/176/170 45/179/172
f 87/178/106 45/179/172 44/180/143
f 58/155/149 57/181/173 97/156/150
f 97/156/150 57/181/173 56/182/174
f 97/156/150 56/182/174 99/160/154
f 99/160/154 56/182/174 55/183/175
f 99/160/154 55/183/175 54/184/176
f 99/160/154 54/184/176 100/163/157
f 100/163/157 54/184/176 53/185/177
f 100/163/157 53/185/177 101/165/159
f 101/165/159 53/185/177 52/186/178
f 101/165/159 52/186/178 51/187/179
f 101/165/159 51/187/179 102/168/162
f 102/168/162 51/187/179 50/188/180
f 102/168/162 50/188/180 103/170/164
f 103/170/164 50/188/180 49/189/181
f 103/170/164 49/189/181 48/190/182
f 103/170/164 48/190/182 104/173/167
f 104/173/167 48/190/182 47/191/183
f 104/173/167 47/191/183 46/192/184
f 104/173/167 46/192/184 105/176/170
f 105/176/170 46/192/184 45/179/172
f 66/157/151 65/153/147 98/151/145
f 63/193/185 106/194/186 64/195/148
f 64/195/148 106/194/186 107/196/187
f 64/195/148 107/196/187 108/197/188
f 108/197/188 109/198/189 64/195/148
f 64/195/148 109/198/189 110/199/190
f 64/195/148 110/199/190 60/200/146
f 60/200/146 110/199/190 111/201/191
f 60/200/146 111/201/191 112/202/192
f 112/202/192 113/203/193 60/200/146
f 60/200/146 113/203/193 19/204/194
f 26/205/195 106/206/196 10/207/17
f 10/207/17 106/206/196 63/208/197
f 10/207/17 63/208/197 61/209/198
f 61/209/198 11/210/18 10/207/17
f 106/211/196 26/212/195 107/213/199
f 107/213/199 26/212/195 25/214/200
f 107/213/199 25/214/200 108/215/201
f 108/215/201 25/214/200 24/216/202
f 108/215/201 24/216/202 109/217/203
f 109/217/203 24/216/202 23/218/204
f 109/217/203 23/218/204 110/219/205
f 110/219/205 23/218/204 22/220/206
f 110/219/205 22/220/206 111/221/207
f 111/221/207 22/220/206 21/222/208
f 111/221/207 21/222/208 112/223/209
f 112/223/209 21/222/208 20/224/210
f 112/223/209 20/224/210 113/225/211
f 113/225/211 20/224/210 19/226/212
g Body2

v 0.131513 0.108070 -0.230000
v 0.121729 0.110846 -0.221445
v 0.111821 0.113262 -0.212781
v 0.101806 0.115313 -0.204024
v 0.091702 0.116996 -0.195189
v 0.081526 0.118309 -0.186291
v 0.071296 0.119248 -0.177346
v 0.061030 0.119812 -0.168369
v 0.050746 0.120000 -0.159377
v 0.029291 0.120000 0.000000
v 0.044373 0.119480 -0.000000
v 0.059382 0.117922 -0.000000
v 0.074245 0.115333 -0.000000
v 0.088891 0.111727 -0.000000
v 0.103249 0.107120 -0.000000
v 0.117248 0.101536 -0.000000
v 0.130822 0.095000 0.000000
v 0.161245 0.095000 -0.225998
v 0.161501 0.095091 -0.229186
v 0.161413 0.095366 -0.232445
v 0.160966 0.095824 -0.235701
v 0.160168 0.096449 -0.238881
v 0.159041 0.097220 -0.241924
v 0.157624 0.098104 -0.244772
v 0.155970 0.099064 -0.247374
v 0.154097 0.100085 -0.249748
v 0.142918 0.104322 -0.239973
v -0.027647 0.120000 0.000000
v -0.042729 0.119480 0.000000
v -0.057738 0.117922 0.000000
v -0.072601 0.115333 0.000000
v -0.087247 0.111727 0.000000
v -0.101605 0.107120 0.000000
v -0.115604 0.101536 0.000000
v -0.129178 0.095000 0.000000
v -0.049102 0.120000 -0.159377
v 0.131513 0.104223 -0.240217
v 0.131513 0.099863 -0.250226
v 0.131513 0.095000 -0.260000
v -0.129869 0.095000 -0.260000
v -0.129869 0.099863 -0.250226
v -0.129869 0.104223 -0.240217
v -0.129869 0.108070 -0.230000
v -0.120085 0.110846 -0.221445
v -0.110177 0.113262 -0.212781
v -0.100162 0.115313 -0.204024
v -0.090058 0.116996 -0.195189
v -0.079882 0.118309 -0.186291
v -0.069652 0.119248 -0.177346
v -0.059386 0.119812 -0.168369
v -0.141274 0.104322 -0.239973
v -0.152453 0.100085 -0.249748
v -0.154326 0.099064 -0.247374
v -0.155980 0.098104 -0.244772
v -0.157397 0.097220 -0.241924
v -0.158524 0.096449 -0.238881
v -0.159322 0.095824 -0.235701
v -0.159769 0.095366 -0.232445
v -0.159857 0.095091 -0.229186
v -0.159601 0.095000 -0.225998
v -0.150350 0.099064 -0.251921
v -0.147992 0.098104 -0.253907
v -0.145359 0.097220 -0.255691
v -0.142493 0.096449 -0.257214
v -0.139448 0.095824 -0.258429
v -0.136282 0.095366 -0.259307
v -0.133063 0.095091 -0.259829
v -0.135517 0.095000 -0.259464
v -0.140963 0.095000 -0.257873
v -0.146012 0.095000 -0.255286
v -0.150484 0.095000 -0.251795
v -0.154219 0.095000 -0.247524
v -0.157083 0.095000 -0.242626
v -0.158973 0.095000 -0.237276
v -0.159823 0.095000 -0.231667
v 0.151994 0.099064 -0.251921
v 0.149636 0.098104 -0.253907
v 0.147003 0.097220 -0.255691
v 0.144137 0.096449 -0.257214
v 0.141092 0.095824 -0.258429
v 0.137926 0.095366 -0.259307
v 0.134707 0.095091 -0.259829
v 0.161467 0.095000 -0.231667
v 0.160617 0.095000 -0.237276
v 0.158727 0.095000 -0.242626
v 0.155863 0.095000 -0.247524
v 0.152128 0.095000 -0.251795
v 0.147656 0.095000 -0.255286
v 0.142607 0.095000 -0.257873
v 0.137161 0.095000 -0.259464
vt 11.816264 2.210034 0.000000
vt 10.675750 3.275509 0.000000
vt -12.495724 2.991832 0.000000
vt 9.697361 4.174997 0.000000
vt -12.687269 4.487748 0.000000
vt 8.706549 5.074484 0.000000
vt -12.882661 5.983664 0.000000
vt 7.705049 5.973972 0.000000
vt 6.694613 6.873460 0.000000
vt -13.080956 7.479579 0.000000
vt 5.677010 7.772948 0.000000
vt 4.654020 8.672436 0.000000
vt -13.281193 8.975495 0.000000
vt 3.627434 9.571923 0.000000
vt -13.482404 10.471411 0.000000
vt 2.599048 10.471411 0.000000
vt -12.308954 1.495916 0.000000
vt 12.934147 1.144559 0.000000
vt 12.723874 0.904434 0.000000
vt 12.488070 0.683868 0.000000
vt -12.127863 -0.000000 0.000000
vt 12.224737 0.484693 0.000000
vt 11.938161 0.314021 0.000000
vt 11.633649 0.177365 0.000000
vt 11.317014 0.078396 0.000000
vt 10.995194 0.019360 0.000000
vt 10.675750 -0.000000 0.000000
vt -2.250000 12.917800 0.000000
vt -2.250000 -13.082200 0.000000
vt -1.596426 11.560414 0.000000
vt -1.596426 -11.724814 0.000000
vt -1.037957 -10.324864 0.000000
vt -1.037957 10.160465 0.000000
vt -0.577296 -8.889127 0.000000
vt -0.577296 8.724728 0.000000
vt -0.216671 -7.424549 0.000000
vt -0.216671 7.260149 0.000000
vt 0.042172 -5.938217 0.000000
vt 0.042172 5.773817 0.000000
vt 0.250000 -2.929132 0.000000
vt 0.250000 2.764733 0.000000
vt 0.197980 -4.437323 0.000000
vt 0.197980 4.272924 0.000000
vt -13.000000 -2.929132 0.000000
vt 2.937694 -5.074591 0.000000
vt -13.000000 2.764733 0.000000
vt 2.937694 4.910192 0.000000
vt 4.910192 10.471411 0.000000
vt -5.074591 10.471411 0.000000
vt 5.938578 9.571923 0.000000
vt -6.102977 9.571923 0.000000
vt -7.129563 8.672436 0.000000
vt -8.152553 7.772948 0.000000
vt 7.988154 7.772948 0.000000
vt 6.965164 8.672436 0.000000
vt -9.170156 6.873460 0.000000
vt 9.005757 6.873460 0.000000
vt 10.016193 5.973972 0.000000
vt -10.180592 5.973972 0.000000
vt 11.017693 5.074484 0.000000
vt -11.182092 5.074484 0.000000
vt -12.172904 4.174997 0.000000
vt -13.151294 3.275509 0.000000
vt 12.986894 3.275509 0.000000
vt 12.008505 4.174997 0.000000
vt -13.151294 2.183673 0.000000
vt 12.986894 2.183673 0.000000
vt -13.151294 1.091836 0.000000
vt 12.986894 1.091836 0.000000
vt 12.986894 -0.000000 0.000000
vt -13.151294 0.000000 0.000000
vt 12.319921 1.495916 0.000000
vt -12.477103 0.683868 0.000000
vt 12.138829 0.000000 0.000000
vt -12.213771 0.484693 0.000000
vt -11.927194 0.314021 0.000000
vt 12.506691 2.991832 0.000000
vt -11.805298 2.210034 0.000000
vt -12.923180 1.144559 0.000000
vt -12.712908 0.904434 0.000000
vt 12.698235 4.487748 0.000000
vt -9.686395 4.174997 0.000000
vt -10.664784 3.275509 0.000000
vt -8.695583 5.074484 0.000000
vt 12.893628 5.983664 0.000000
vt -7.694083 5.973972 0.000000
vt -6.683647 6.873460 0.000000
vt 13.091922 7.479579 0.000000
vt -5.666043 7.772948 0.000000
vt -4.643053 8.672436 0.000000
vt 13.292160 8.975495 0.000000
vt -3.616467 9.571923 0.000000
vt 13.493370 10.471411 0.000000
vt -2.588081 10.471411 0.000000
vt -11.622683 0.177365 0.000000
vt -11.306048 0.078396 0.000000
vt -10.984228 0.019360 0.000000
vt -10.664784 0.000000 0.000000
vt -2.250000 -2.556911 0.000000
vt -2.240942 -2.236855 0.000000
vt -2.250000 -1.988709 0.000000
vt -2.213435 -1.910659 0.000000
vt -2.167635 -1.581927 0.000000
vt -2.250000 -1.420506 0.000000
vt -2.105066 -1.253908 0.000000
vt -2.250000 -0.852304 0.000000
vt -2.028005 -0.929222 0.000000
vt -1.939610 -0.610948 0.000000
vt -2.250000 -0.284101 0.000000
vt -1.843646 -0.302519 0.000000
vt -1.741500 -0.000000 0.000000
vt -2.250000 0.284101 0.000000
vt -1.843646 0.302519 0.000000
vt -1.939610 0.610948 0.000000
vt -2.250000 0.852304 0.000000
vt -2.028005 0.929222 0.000000
vt -2.105066 1.253908 0.000000
vt -2.250000 1.420506 0.000000
vt -2.167635 1.581927 0.000000
vt -2.213435 1.910659 0.000000
vt -2.250000 1.988709 0.000000
vt -2.240942 2.236855 0.000000
vt -2.250000 2.556911 0.000000
vt 15.035018 0.904434 0.000000
vt 15.245291 1.144559 0.000000
vt 12.986894 1.091836 0.000000
vt 14.127408 2.210034 0.000000
vt 12.986894 2.183673 0.000000
vt 12.986894 3.275509 0.000000
vt 12.986894 -0.000000 0.000000
vt 14.535881 0.484693 0.000000
vt 14.799214 0.683868 0.000000
vt 13.306338 0.019360 0.000000
vt 13.628158 0.078396 0.000000
vt 13.944793 0.177365 0.000000
vt 14.249305 0.314021 0.000000
vt -13.151294 3.275509 0.000000
vt -14.291808 2.210034 0.000000
vt -13.151294 2.183673 0.000000
vt -15.409690 1.144559 0.000000
vt -13.151294 1.091836 0.000000
vt -15.199417 0.904434 0.000000
vt -14.963613 0.683868 0.000000
vt -14.700280 0.484693 0.000000
vt -13.151294 0.000000 0.000000
vt -14.413704 0.314021 0.000000
vt -14.109192 0.177365 0.000000
vt -13.792557 0.078396 0.000000
vt -13.470737 0.019360 0.000000
vt -1.843646 0.302519 0.000000
vt -2.250000 0.284101 0.000000
vt -1.741500 0.000000 0.000000
vt -2.250000 -0.284101 0.000000
vt -1.843646 -0.302519 0.000000
vt -1.939610 -0.610948 0.000000
vt -2.250000 -0.852304 0.000000
vt -2.028005 -0.929222 0.000000
vt -2.105066 -1.253908 0.000000
vt -2.250000 -1.420506 0.000000
vt -2.167635 -1.581927 0.000000
vt -2.250000 -1.988709 0.000000
vt -2.213435 -1.910659 0.000000
vt -2.240942 -2.236855 0.000000
vt -2.250000 -2.556911 0.000000
vt -1.939610 0.610948 0.000000
vt -2.250000 0.852304 0.000000
vt -2.028005 0.929222 0.000000
vt -2.105066 1.253908 0.000000
vt -2.250000 1.420506 0.000000
vt -2.167635 1.581927 0.000000
vt -2.213435 1.910659 0.000000
vt -2.250000 1.988709 0.000000
vt -2.240942 2.236855 0.000000
vt -2.250000 2.556911 0.000000
vt -12.946352 -13.716105 0.000000
vt -12.787325 -14.260715 0.000000
vt -13.000000 -13.151294 0.000000
vt -12.528609 -14.765647 0.000000
vt -12.179455 -15.212840 0.000000
vt -11.752352 -15.586301 0.000000
vt -11.262575 -15.872672 0.000000
vt -10.727642 -16.061712 0.000000
vt -10.166684 -16.146659 0.000000
vt -9.599764 -16.124475 0.000000
vt -9.599764 15.960076 0.000000
vt 13.000000 12.917800 0.000000
vt 13.000000 -13.082200 0.000000
vt -13.000000 12.986894 0.000000
vt -10.166684 15.982260 0.000000
vt -10.727642 15.897313 0.000000
vt -11.262575 15.708273 0.000000
vt -11.752352 15.421902 0.000000
vt -12.179455 15.048441 0.000000
vt -12.528609 14.601248 0.000000
vt -12.787325 14.096316 0.000000
vt -12.946352 13.551706 0.000000
vn 37.151299 92.707980 5.001136
vn 32.554296 94.451115 4.382309
vn 33.786501 94.009502 4.548183
vn 28.610759 95.742315 3.851448
vn 27.227509 96.152113 3.665242
vn 24.617151 96.865960 3.313847
vn 20.536762 97.829436 2.764564
vn 20.580463 97.820086 2.770447
vn 16.507758 98.603021 2.222198
vn 13.746636 99.033356 1.850509
vn 12.406163 99.213396 1.670060
vn 8.282857 99.650143 1.115000
vn 6.889988 99.758046 0.927498
vn 4.145056 99.912498 0.557988
vn 0.000000 100.000000 0.000000
vn -0.000000 100.000000 0.000000
vn 40.181997 91.411972 5.409115
vn 41.657082 90.737211 5.607684
vn 42.658811 90.262114 5.742532
vn 43.574260 89.815793 5.865766
vn 46.383049 88.372093 6.243872
vn 44.396993 89.404632 5.976518
vn 45.098955 89.046208 6.071013
vn 45.658969 88.755170 6.146400
vn 46.063389 88.542158 6.200841
vn 46.304166 88.414200 6.233253
vn 46.383049 88.372093 6.243872
vn 0.000000 0.000000 100.000000
vn 0.000000 0.000000 100.000000
vn 0.000000 0.000000 100.000000
vn 0.000000 0.000000 100.000000
vn 0.000000 0.000000 100.000000
vn 0.000000 0.000000 100.000000
vn 0.000000 0.000000 100.000000
vn 0.000000 0.000000 100.000000
vn 0.000000 0.000000 100.000000
vn 0.000000 0.000000 100.000000
vn 0.000000 0.000000 100.000000
vn 0.000000 0.000000 100.000000
vn 0.000000 0.000000 100.000000
vn 0.000000 0.000000 100.000000
vn 0.000000 0.000000 100.000000
vn 0.000000 0.000000 100.000000
vn -0.000000 100.000000 -0.000000
vn -0.000000 100.000000 -0.000000
vn -0.000000 99.912498 -4.182444
vn -0.000000 99.912498 -4.182444
vn -0.000000 99.650143 -8.357568
vn -0.000000 99.213396 -12.518066
vn -0.000000 99.213396 -12.518066
vn -0.000000 99.650143 -8.357568
vn -0.000000 98.603021 -16.656657
vn -0.000000 98.603021 -16.656657
vn -0.000000 97.820086 -20.766098
vn -0.000000 97.820086 -20.766098
vn -0.000000 96.865960 -24.839197
vn -0.000000 96.865960 -24.839197
vn -0.000000 95.742315 -28.868827
vn -0.000000 94.451115 -32.847934
vn -0.000000 94.451115 -32.847934
vn -0.000000 95.742315 -28.868827
vn -0.000000 92.661948 -37.600045
vn -0.000000 92.661948 -37.600045
vn -0.000000 90.633864 -42.255209
vn -0.000000 90.633864 -42.255209
vn -0.000000 88.372093 -46.801423
vn -0.000000 88.372093 -46.801423
vn -40.181997 91.411972 5.409115
vn -43.574260 89.815793 5.865766
vn -46.383049 88.372093 6.243872
vn -44.396993 89.404632 5.976518
vn -45.098955 89.046208 6.071013
vn -33.786501 94.009502 4.548183
vn -37.151299 92.707980 5.001136
vn -41.657082 90.737211 5.607684
vn -42.658811 90.262114 5.742532
vn -27.227509 96.152113 3.665242
vn -28.610759 95.742315 3.851448
vn -32.554296 94.451115 4.382309
vn -24.617151 96.865960 3.313847
vn -20.536762 97.829436 2.764564
vn -20.580463 97.820086 2.770447
vn -16.507758 98.603021 2.222198
vn -13.746636 99.033356 1.850509
vn -12.406163 99.213396 1.670060
vn -8.282857 99.650143 1.115000
vn -6.889988 99.758046 0.927498
vn -4.145056 99.912498 0.557988
vn -45.658969 88.755170 6.146400
vn -46.063389 88.542158 6.200841
vn -46.304166 88.414200 6.233253
vn -46.383049 88.372093 6.243872
vn -99.106066 -0.000000 13.341201
vn -99.963213 -0.000000 2.712220
vn -99.845528 -0.000000 -5.556121
vn -99.667205 -0.000000 -8.151582
vn -98.178000 -0.000000 -19.002114
vn -97.013959 -0.000000 -24.254725
vn -95.518166 -0.000000 -29.602026
vn -90.712632 -0.000000 -42.085845
vn -91.761758 -0.000000 -39.746442
vn -87.036992 -0.000000 -49.239841
vn -81.166917 -0.000000 -58.411742
vn -81.523987 -0.000000 -57.912343
vn -75.279878 -0.000000 -65.825071
vn -68.718221 -0.000000 -72.648510
vn -68.270924 -0.000000 -73.069014
vn -60.411450 -0.000000 -79.689753
vn -53.811781 -0.000000 -84.286964
vn -51.633256 -0.000000 -85.638816
vn -42.080674 -0.000000 -90.715031
vn -36.980731 -0.000000 -92.910847
vn -31.930372 -0.000000 -94.765243
vn -21.375514 -0.000000 -97.688727
vn -18.827046 -0.000000 -98.211722
vn -10.648319 -0.000000 -99.431450
vn -0.000000 -0.000000 -100.000000
vn -0.000000 90.262114 -43.043592
vn -0.000000 90.737211 -42.032828
vn -0.000000 92.707980 -37.486403
vn -0.000000 89.404632 -44.797453
vn -0.000000 89.815793 -43.967298
vn -0.000000 88.414200 -46.721828
vn -0.000000 88.542158 -46.478880
vn -0.000000 88.755170 -46.070812
vn -0.000000 89.046208 -45.505746
vn -0.000000 92.707980 -37.486403
vn -0.000000 90.737211 -42.032828
vn -0.000000 90.262114 -43.043592
vn -0.000000 89.815793 -43.967298
vn -0.000000 89.404632 -44.797453
vn -0.000000 89.046208 -45.505746
vn -0.000000 88.755170 -46.070812
vn -0.000000 88.542158 -46.478880
vn -0.000000 88.414200 -46.721828
vn 81.523987 0.000000 -57.912343
vn 81.166917 0.000000 -58.411742
vn 75.279878 0.000000 -65.825071
vn 68.718221 0.000000 -72.648510
vn 68.270924 0.000000 -73.069014
vn 60.411450 0.000000 -79.689753
vn 53.811781 0.000000 -84.286964
vn 51.633256 0.000000 -85.638816
vn 42.080674 0.000000 -90.715031
vn 36.980731 0.000000 -92.910847
vn 31.930372 0.000000 -94.765243
vn 18.827046 0.000000 -98.211722
vn 21.375514 0.000000 -97.688727
vn 10.648319 0.000000 -99.431450
vn -0.000000 -0.000000 -100.000000
vn 87.036992 0.000000 -49.239841
vn 90.712632 0.000000 -42.085845
vn 91.761758 0.000000 -39.746442
vn 95.518166 0.000000 -29.602026
vn 97.013959 0.000000 -24.254725
vn 98.178000 0.000000 -19.002114
vn 99.667205 0.000000 -8.151582
vn 99.845528 0.000000 -5.556121
vn 99.963213 0.000000 2.712220
vn 99.106066 0.000000 13.341201
vn 0.000000 -100.000000 0.000000
vn 0.000000 -100.000000 0.000000
vn 0.000000 -100.000000 0.000000
vn 0.000000 -100.000000 0.000000
vn 0.000000 -100.000000 0.000000
vn 0.000000 -100.000000 0.000000
vn 0.000000 -100.000000 0.000000
vn 0.000000 -100.000000 0.000000
vn 0.000000 -100.000000 0.000000
vn 0.000000 -100.000000 0.000000
vn 0.000000 -100.000000 0.000000
vn 0.000000 -100.000000 0.000000
vn 0.000000 -100.000000 0.000000
vn 0.000000 -100.000000 0.000000
vn 0.000000 -100.000000 0.000000
vn 0.000000 -100.000000 0.000000
vn 0.000000 -100.000000 0.000000
vn 0.000000 -100.000000 0.000000
vn 0.000000 -100.000000 0.000000
vn 0.000000 -100.000000 0.000000
vn 0.000000 -100.000000 0.000000
vn 0.000000 -100.000000 0.000000
f 140/227/213 114/228/214 128/229/215
f 128/229/215 114/228/214 115/230/216
f 128/229/215 115/230/216 127/231/217
f 127/231/217 115/230/216 116/232/218
f 127/231/217 116/232/218 126/233/219
f 126/233/219 116/232/218 117/234/220
f 126/233/219 117/234/220 118/235/221
f 126/233/219 118/235/221 125/236/222
f 125/236/222 118/235/221 119/237/223
f 125/236/222 119/237/223 120/238/224
f 125/236/222 120/238/224 124/239/225
f 124/239/225 120/238/224 121/240/226
f 124/239/225 121/240/226 123/241/227
f 123/241/227 121/240/226 122/242/228
f 128/229/215 129/243/229 140/227/213
f 140/227/213 129/243/229 139/244/230
f 139/244/230 129/243/229 138/245/231
f 138/245/231 129/243/229 137/246/232
f 137/246/232 129/243/229 130/247/233
f 137/246/232 130/247/233 136/248/234
f 136/248/234 130/247/233 135/249/235
f 135/249/235 130/247/233 134/250/236
f 134/250/236 130/247/233 133/251/237
f 133/251/237 130/247/233 132/252/238
f 132/252/238 130/247/233 131/253/239
f 148/254/240 130/255/241 147/256/242
f 147/256/242 130/255/241 129/257/243
f 147/256/242 129/257/243 128/258/244
f 147/256/242 128/258/244 146/259/245
f 146/259/245 128/258/244 127/260/246
f 146/259/245 127/260/246 145/261/247
f 145/261/247 127/260/246 126/262/248
f 145/261/247 126/262/248 144/263/249
f 144/263/249 126/262/248 125/264/250
f 144/263/249 125/264/250 143/265/251
f 143/265/251 125/264/250 123/266/252
f 143/265/251 123/266/252 141/267/253
f 125/264/250 124/268/254 123/266/252
f 141/267/253 142/269/255 143/265/251
f 123/270/227 122/271/228 141/272/256
f 141/272/256 122/271/228 149/273/257
f 149/274/257 122/275/228 163/276/258
f 163/276/258 122/275/228 121/277/259
f 163/276/258 121/277/259 120/278/260
f 119/279/261 161/280/262 120/278/260
f 120/278/260 161/280/262 162/281/263
f 120/278/260 162/281/263 163/276/258
f 119/279/261 118/282/264 161/280/262
f 161/280/262 118/282/264 160/283/265
f 160/283/265 118/282/264 159/284/266
f 159/284/266 118/282/264 117/285/267
f 159/284/266 117/285/267 158/286/268
f 158/286/268 117/285/267 116/287/269
f 158/286/268 116/287/269 115/288/270
f 114/289/271 156/290/272 115/288/270
f 115/288/270 156/290/272 157/291/273
f 115/288/270 157/291/273 158/286/268
f 114/289/271 150/292/274 156/290/272
f 156/290/272 150/292/274 155/293/275
f 155/293/275 150/292/274 151/294/276
f 155/293/275 151/294/276 154/295/277
f 154/295/277 151/294/276 153/296/278
f 153/296/278 151/294/276 152/297/279
f 147/298/280 167/299/281 148/300/282
f 148/300/282 167/299/281 168/301/283
f 148/300/282 168/301/283 169/302/284
f 146/303/285 164/304/286 147/298/280
f 147/298/280 164/304/286 165/305/287
f 147/298/280 165/305/287 166/306/288
f 145/307/289 157/308/290 146/303/285
f 146/303/285 157/308/290 156/309/291
f 146/303/285 156/309/291 164/304/286
f 157/308/290 145/307/289 158/310/292
f 158/310/292 145/307/289 144/311/293
f 158/310/292 144/311/293 159/312/294
f 159/312/294 144/311/293 160/313/295
f 160/313/295 144/311/293 143/314/296
f 160/313/295 143/314/296 161/315/297
f 161/315/297 143/314/296 162/316/298
f 162/316/298 143/314/296 142/317/299
f 162/316/298 142/317/299 163/318/300
f 163/318/300 142/317/299 141/319/256
f 163/318/300 141/319/256 149/320/257
f 166/306/288 167/299/281 147/298/280
f 169/302/284 170/321/301 148/300/282
f 148/300/282 170/321/301 171/322/302
f 148/300/282 171/322/302 172/323/303
f 172/323/303 173/324/304 148/300/282
f 173/325/305 172/326/306 188/327/307
f 188/327/307 172/326/306 171/328/308
f 188/327/307 171/328/308 170/329/309
f 188/327/307 170/329/309 187/330/310
f 187/330/310 170/329/309 169/331/311
f 187/330/310 169/331/311 186/332/312
f 186/332/312 169/331/311 168/333/313
f 186/332/312 168/333/313 167/334/314
f 186/332/312 167/334/314 185/335/315
f 185/335/315 167/334/314 166/336/316
f 185/335/315 166/336/316 165/337/317
f 185/335/315 165/337/317 184/338/318
f 184/338/318 165/337/317 174/339/319
f 184/338/318 174/339/319 175/340/320
f 184/338/318 175/340/320 183/341/321
f 183/341/321 175/340/320 176/342/322
f 183/341/321 176/342/322 177/343/323
f 183/341/321 177/343/323 182/344/324
f 182/344/324 177/343/323 178/345/325
f 182/344/324 178/345/325 179/346/326
f 182/344/324 179/346/326 181/347/327
f 181/347/327 179/346/326 180/348/328
f 181/347/327 180/348/328 153/349/329
f 174/350/330 165/351/331 154/352/277
f 154/352/277 165/351/331 164/353/332
f 154/352/277 164/353/332 155/354/275
f 155/354/275 164/353/332 156/355/272
f 153/356/278 176/357/333 154/352/277
f 154/352/277 176/357/333 175/358/334
f 154/352/277 175/358/334 174/350/330
f 180/359/335 179/360/336 153/356/278
f 153/356/278 179/360/336 178/361/337
f 153/356/278 178/361/337 177/362/338
f 177/362/338 176/357/333 153/356/278
f 114/363/271 140/364/339 150/365/274
f 150/365/274 140/364/339 139/366/340
f 150/365/274 139/366/340 151/367/276
f 151/367/276 139/366/340 189/368/341
f 151/367/276 189/368/341 190/369/342
f 190/369/342 191/370/343 151/367/276
f 151/367/276 191/370/343 152/371/279
f 152/371/279 191/370/343 192/372/344
f 152/371/279 192/372/344 193/373/345
f 193/373/345 194/374/346 152/371/279
f 152/371/279 194/374/346 195/375/347
f 138/376/348 199/377/349 139/378/350
f 139/378/350 199/377/349 200/379/351
f 139/378/350 200/379/351 189/380/352
f 189/380/352 200/379/351 190/381/353
f 190/381/353 200/379/351 201/382/354
f 190/381/353 201/382/354 191/383/355
f 191/383/355 201/382/354 192/384/356
f 192/384/356 201/382/354 202/385/357
f 192/384/356 202/385/357 193/386/358
f 193/386/358 202/385/357 203/387/359
f 193/386/358 203/387/359 194/388/360
f 194/388/360 203/387/359 195/389/361
f 195/389/361 203/387/359 152/390/362
f 138/376/348 137/391/363 199/377/349
f 199/377/349 137/391/363 198/392/364
f 198/392/364 137/391/363 136/393/365
f 198/392/364 136/393/365 135/394/366
f 198/392/364 135/394/366 197/395/367
f 197/395/367 135/394/366 134/396/368
f 197/395/367 134/396/368 133/397/369
f 197/395/367 133/397/369 196/398/370
f 196/398/370 133/397/369 132/399/371
f 196/398/370 132/399/371 131/400/372
f 203/401/373 202/402/374 152/403/375
f 152/403/375 202/402/374 201/404/376
f 152/403/375 201/404/376 200/405/377
f 200/405/377 199/406/378 152/403/375
f 152/403/375 199/406/378 198/407/379
f 152/403/375 198/407/379 197/408/380
f 197/408/380 196/409/381 152/403/375
f 152/403/375 196/409/381 131/410/382
f 152/403/375 131/410/382 173/411/383
f 173/411/383 131/410/382 148/412/384
f 148/412/384 131/410/382 130/413/385
f 152/403/375 173/411/383 153/414/386
f 153/414/386 173/411/383 188/415/387
f 153/414/386 188/415/387 187/416/388
f 187/416/388 186/417/389 153/414/386
f 153/414/386 186/417/389 185/418/390
f 153/414/386 185/418/390 184/419/391
f 184/419/391 183/420/392 153/414/386
f 153/414/386 183/420/392 182/421/393
f 153/414/386 182/421/393 181/422/394
# 203 vertices
# 422 texture params
# 394 normals
# 398 facets

# 2 groups
