# WaveFront *.obj file (generated by Autodesk ATF)

mtllib hip_motor_link_dexter.mtl

g Body1

v 0.000000 0.000000 -0.050000
v -0.004901 -0.004901 -0.049759
v -0.009755 -0.009755 -0.049039
v -0.014514 -0.014514 -0.047847
v -0.019134 -0.019134 -0.046194
v -0.023570 -0.023570 -0.044096
v -0.027779 -0.027779 -0.041573
v -0.031720 -0.031720 -0.038651
v -0.035355 -0.035355 -0.035355
v -0.038651 -0.038651 -0.031720
v -0.041573 -0.041573 -0.027779
v -0.044096 -0.044096 -0.023570
v -0.046194 -0.046194 -0.019134
v -0.047847 -0.047847 -0.014514
v -0.048502 -0.048502 -0.012149
v -0.049039 -0.049039 -0.009755
v -0.049459 -0.049459 -0.007337
v -0.049759 -0.049759 -0.004901
v -0.049940 -0.049940 -0.002453
v -0.050000 -0.050000 0.000000
v -0.049940 -0.049940 0.002453
v -0.049759 -0.049759 0.004901
v -0.049459 -0.049459 0.007337
v -0.049039 -0.049039 0.009755
v -0.048502 -0.048502 0.012149
v -0.047847 -0.047847 0.014514
v -0.046194 -0.046194 0.019134
v -0.044096 -0.044096 0.023570
v -0.041573 -0.041573 0.027779
v -0.038651 -0.038651 0.031720
v -0.035355 -0.035355 0.035355
v -0.031720 -0.031720 0.038651
v -0.027779 -0.027779 0.041573
v -0.023570 -0.023570 0.044096
v -0.019134 -0.019134 0.046194
v -0.014514 -0.014514 0.047847
v -0.009755 -0.009755 0.049039
v -0.004901 -0.004901 0.049759
v 0.000000 0.000000 0.050000
v -0.004901 0.004901 0.049759
v -0.009755 0.009755 0.049039
v -0.014514 0.014514 0.047847
v -0.019134 0.019134 0.046194
v -0.023570 0.023570 0.044096
v -0.027779 0.027779 0.041573
v -0.031720 0.031720 0.038651
v -0.035355 0.035355 0.035355
v -0.038651 0.038651 0.031720
v -0.041573 0.041573 0.027779
v -0.044096 0.044096 0.023570
v -0.046194 0.046194 0.019134
v -0.047847 0.047847 0.014514
v -0.048502 0.048502 0.012149
v -0.049039 0.049039 0.009755
v -0.049459 0.049459 0.007337
v -0.049759 0.049759 0.004901
v -0.049940 0.049940 0.002453
v -0.050000 0.050000 0.000000
v -0.049940 0.049940 -0.002453
v -0.049759 0.049759 -0.004901
v -0.049459 0.049459 -0.007337
v -0.049039 0.049039 -0.009755
v -0.048502 0.048502 -0.012149
v -0.047847 0.047847 -0.014514
v -0.046194 0.046194 -0.019134
v -0.044096 0.044096 -0.023570
v -0.041573 0.041573 -0.027779
v -0.038651 0.038651 -0.031720
v -0.035355 0.035355 -0.035355
v -0.031720 0.031720 -0.038651
v -0.027779 0.027779 -0.041573
v -0.023570 0.023570 -0.044096
v -0.019134 0.019134 -0.046194
v -0.014514 0.014514 -0.047847
v -0.009755 0.009755 -0.049039
v -0.004901 0.004901 -0.049759
v -0.060000 -0.050000 0.000000
v -0.060000 -0.049674 -0.005700
v -0.060000 -0.048701 -0.011325
v -0.060000 -0.047092 -0.016802
v -0.060000 -0.044870 -0.022061
v -0.060000 -0.042063 -0.027032
v -0.060000 -0.038707 -0.031651
v -0.060000 -0.034847 -0.035857
v -0.060000 -0.030532 -0.039595
v -0.060000 -0.025820 -0.042817
v -0.060000 -0.020771 -0.045482
v -0.060000 -0.015451 -0.047553
v -0.060000 -0.009930 -0.049004
v -0.060000 -0.004279 -0.049817
v -0.060000 0.001428 -0.049980
v -0.060000 0.007116 -0.049491
v -0.060000 0.012711 -0.048357
v -0.060000 0.018140 -0.046593
v -0.060000 0.023333 -0.044222
v -0.060000 0.028222 -0.041274
v -0.060000 0.032743 -0.037787
v -0.060000 0.036837 -0.033809
v -0.060000 0.040451 -0.029389
v -0.060000 0.043537 -0.024587
v -0.060000 0.046056 -0.019464
v -0.060000 0.047975 -0.014087
v -0.060000 0.049268 -0.008526
v -0.060000 0.049918 -0.002854
v -0.060000 0.049918 0.002854
v -0.060000 0.049268 0.008526
v -0.060000 0.047975 0.014087
v -0.060000 0.046056 0.019464
v -0.060000 0.043537 0.024587
v -0.060000 0.040451 0.029389
v -0.060000 0.036837 0.033809
v -0.060000 0.032743 0.037787
v -0.060000 0.028222 0.041274
v -0.060000 0.023333 0.044222
v -0.060000 0.018140 0.046593
v -0.060000 0.012711 0.048357
v -0.060000 0.007116 0.049491
v -0.060000 0.001428 0.049980
v -0.060000 -0.004279 0.049817
v -0.060000 -0.009930 0.049004
v -0.060000 -0.015451 0.047553
v -0.060000 -0.020771 0.045482
v -0.060000 -0.025820 0.042817
v -0.060000 -0.030532 0.039595
v -0.060000 -0.034847 0.035857
v -0.060000 -0.038707 0.031651
v -0.060000 -0.042063 0.027032
v -0.060000 -0.044870 0.022061
v -0.060000 -0.047092 0.016802
v -0.060000 -0.048701 0.011325
v -0.060000 -0.049674 0.005700
v 0.060000 -0.050000 0.000000
v 0.060000 -0.049674 0.005700
v 0.060000 -0.048701 0.011325
v 0.060000 -0.047092 0.016802
v 0.060000 -0.044870 0.022061
v 0.060000 -0.042063 0.027032
v 0.060000 -0.038707 0.031651
v 0.060000 -0.034847 0.035857
v 0.060000 -0.030532 0.039595
v 0.060000 -0.025820 0.042817
v 0.060000 -0.020771 0.045482
v 0.060000 -0.015451 0.047553
v 0.060000 -0.009930 0.049004
v 0.060000 -0.004279 0.049817
v 0.060000 0.001428 0.049980
v 0.060000 0.007116 0.049491
v 0.060000 0.012711 0.048357
v 0.060000 0.018140 0.046593
v 0.060000 0.023333 0.044222
v 0.060000 0.028222 0.041274
v 0.060000 0.032743 0.037787
v 0.060000 0.036837 0.033809
v 0.060000 0.040451 0.029389
v 0.060000 0.043537 0.024587
v 0.060000 0.046056 0.019464
v 0.060000 0.047975 0.014087
v 0.060000 0.049268 0.008526
v 0.060000 0.049918 0.002854
v 0.060000 0.049918 -0.002854
v 0.060000 0.049268 -0.008526
v 0.060000 0.047975 -0.014087
v 0.060000 0.046056 -0.019464
v 0.060000 0.043537 -0.024587
v 0.060000 0.040451 -0.029389
v 0.060000 0.036837 -0.033809
v 0.060000 0.032743 -0.037787
v 0.060000 0.028222 -0.041274
v 0.060000 0.023333 -0.044222
v 0.060000 0.018140 -0.046593
v 0.060000 0.012711 -0.048357
v 0.060000 0.007116 -0.049491
v 0.060000 0.001428 -0.049980
v 0.060000 -0.004279 -0.049817
v 0.060000 -0.009930 -0.049004
v 0.060000 -0.015451 -0.047553
v 0.060000 -0.020771 -0.045482
v 0.060000 -0.025820 -0.042817
v 0.060000 -0.030532 -0.039595
v 0.060000 -0.034847 -0.035857
v 0.060000 -0.038707 -0.031651
v 0.060000 -0.042063 -0.027032
v 0.060000 -0.044870 -0.022061
v 0.060000 -0.047092 -0.016802
v 0.060000 -0.048701 -0.011325
v 0.060000 -0.049674 -0.005700
v 0.004901 0.004901 -0.049759
v 0.009755 0.009755 -0.049039
v 0.014514 0.014514 -0.047847
v 0.019134 0.019134 -0.046194
v 0.023570 0.023570 -0.044096
v 0.027779 0.027779 -0.041573
v 0.031720 0.031720 -0.038651
v 0.035355 0.035355 -0.035355
v 0.038651 0.038651 -0.031720
v 0.041573 0.041573 -0.027779
v 0.044096 0.044096 -0.023570
v 0.046194 0.046194 -0.019134
v 0.047847 0.047847 -0.014514
v 0.048502 0.048502 -0.012149
v 0.049039 0.049039 -0.009755
v 0.049459 0.049459 -0.007337
v 0.049759 0.049759 -0.004901
v 0.049940 0.049940 -0.002453
v 0.050000 0.050000 0.000000
v 0.049940 0.049940 0.002453
v 0.049759 0.049759 0.004901
v 0.049459 0.049459 0.007337
v 0.049039 0.049039 0.009755
v 0.048502 0.048502 0.012149
v 0.047847 0.047847 0.014514
v 0.046194 0.046194 0.019134
v 0.044096 0.044096 0.023570
v 0.041573 0.041573 0.027779
v 0.038651 0.038651 0.031720
v 0.035355 0.035355 0.035355
v 0.031720 0.031720 0.038651
v 0.027779 0.027779 0.041573
v 0.023570 0.023570 0.044096
v 0.019134 0.019134 0.046194
v 0.014514 0.014514 0.047847
v 0.009755 0.009755 0.049039
v 0.004901 0.004901 0.049759
v 0.004901 -0.004901 0.049759
v 0.009755 -0.009755 0.049039
v 0.014514 -0.014514 0.047847
v 0.019134 -0.019134 0.046194
v 0.023570 -0.023570 0.044096
v 0.027779 -0.027779 0.041573
v 0.031720 -0.031720 0.038651
v 0.035355 -0.035355 0.035355
v 0.038651 -0.038651 0.031720
v 0.041573 -0.041573 0.027779
v 0.044096 -0.044096 0.023570
v 0.046194 -0.046194 0.019134
v 0.047847 -0.047847 0.014514
v 0.048502 -0.048502 0.012149
v 0.049039 -0.049039 0.009755
v 0.049459 -0.049459 0.007337
v 0.049759 -0.049759 0.004901
v 0.049940 -0.049940 0.002453
v 0.050000 -0.050000 0.000000
v 0.049940 -0.049940 -0.002453
v 0.049759 -0.049759 -0.004901
v 0.049459 -0.049459 -0.007337
v 0.049039 -0.049039 -0.009755
v 0.048502 -0.048502 -0.012149
v 0.047847 -0.047847 -0.014514
v 0.046194 -0.046194 -0.019134
v 0.044096 -0.044096 -0.023570
v 0.041573 -0.041573 -0.027779
v 0.038651 -0.038651 -0.031720
v 0.035355 -0.035355 -0.035355
v 0.031720 -0.031720 -0.038651
v 0.027779 -0.027779 -0.041573
v 0.023570 -0.023570 -0.044096
v 0.019134 -0.019134 -0.046194
v 0.014514 -0.014514 -0.047847
v 0.009755 -0.009755 -0.049039
v 0.004901 -0.004901 -0.049759
v 0.050000 -0.070000 0.000000
v 0.049674 -0.070000 -0.005700
v 0.048701 -0.070000 -0.011325
v 0.047092 -0.070000 -0.016802
v 0.044870 -0.070000 -0.022061
v 0.042063 -0.070000 -0.027032
v 0.038707 -0.070000 -0.031651
v 0.034847 -0.070000 -0.035857
v 0.030532 -0.070000 -0.039595
v 0.025820 -0.070000 -0.042817
v 0.020771 -0.070000 -0.045482
v 0.015451 -0.070000 -0.047553
v 0.009930 -0.070000 -0.049004
v 0.004279 -0.070000 -0.049817
v -0.001428 -0.070000 -0.049980
v -0.007116 -0.070000 -0.049491
v -0.012711 -0.070000 -0.048357
v -0.018140 -0.070000 -0.046593
v -0.023333 -0.070000 -0.044222
v -0.028222 -0.070000 -0.041274
v -0.032743 -0.070000 -0.037787
v -0.036837 -0.070000 -0.033809
v -0.040451 -0.070000 -0.029389
v -0.043537 -0.070000 -0.024587
v -0.046056 -0.070000 -0.019464
v -0.047975 -0.070000 -0.014087
v -0.049268 -0.070000 -0.008526
v -0.049918 -0.070000 -0.002854
v -0.049918 -0.070000 0.002854
v -0.049268 -0.070000 0.008526
v -0.047975 -0.070000 0.014087
v -0.046056 -0.070000 0.019464
v -0.043537 -0.070000 0.024587
v -0.040451 -0.070000 0.029389
v -0.036837 -0.070000 0.033809
v -0.032743 -0.070000 0.037787
v -0.028222 -0.070000 0.041274
v -0.023333 -0.070000 0.044222
v -0.018140 -0.070000 0.046593
v -0.012711 -0.070000 0.048357
v -0.007116 -0.070000 0.049491
v -0.001428 -0.070000 0.049980
v 0.004279 -0.070000 0.049817
v 0.009930 -0.070000 0.049004
v 0.015451 -0.070000 0.047553
v 0.020771 -0.070000 0.045482
v 0.025820 -0.070000 0.042817
v 0.030532 -0.070000 0.039595
v 0.034847 -0.070000 0.035857
v 0.038707 -0.070000 0.031651
v 0.042063 -0.070000 0.027032
v 0.044870 -0.070000 0.022061
v 0.047092 -0.070000 0.016802
v 0.048701 -0.070000 0.011325
v 0.049674 -0.070000 0.005700
v 0.050000 0.070000 0.000000
v 0.049674 0.070000 0.005700
v 0.048701 0.070000 0.011325
v 0.047092 0.070000 0.016802
v 0.044870 0.070000 0.022061
v 0.042063 0.070000 0.027032
v 0.038707 0.070000 0.031651
v 0.034847 0.070000 0.035857
v 0.030532 0.070000 0.039595
v 0.025820 0.070000 0.042817
v 0.020771 0.070000 0.045482
v 0.015451 0.070000 0.047553
v 0.009930 0.070000 0.049004
v 0.004279 0.070000 0.049817
v -0.001428 0.070000 0.049980
v -0.007116 0.070000 0.049491
v -0.012711 0.070000 0.048357
v -0.018140 0.070000 0.046593
v -0.023333 0.070000 0.044222
v -0.028222 0.070000 0.041274
v -0.032743 0.070000 0.037787
v -0.036837 0.070000 0.033809
v -0.040451 0.070000 0.029389
v -0.043537 0.070000 0.024587
v -0.046056 0.070000 0.019464
v -0.047975 0.070000 0.014087
v -0.049268 0.070000 0.008526
v -0.049918 0.070000 0.002854
v -0.049918 0.070000 -0.002854
v -0.049268 0.070000 -0.008526
v -0.047975 0.070000 -0.014087
v -0.046056 0.070000 -0.019464
v -0.043537 0.070000 -0.024587
v -0.040451 0.070000 -0.029389
v -0.036837 0.070000 -0.033809
v -0.032743 0.070000 -0.037787
v -0.028222 0.070000 -0.041274
v -0.023333 0.070000 -0.044222
v -0.018140 0.070000 -0.046593
v -0.012711 0.070000 -0.048357
v -0.007116 0.070000 -0.049491
v -0.001428 0.070000 -0.049980
v 0.004279 0.070000 -0.049817
v 0.009930 0.070000 -0.049004
v 0.015451 0.070000 -0.047553
v 0.020771 0.070000 -0.045482
v 0.025820 0.070000 -0.042817
v 0.030532 0.070000 -0.039595
v 0.034847 0.070000 -0.035857
v 0.038707 0.070000 -0.031651
v 0.042063 0.070000 -0.027032
v 0.044870 0.070000 -0.022061
v 0.047092 0.070000 -0.016802
v 0.048701 0.070000 -0.011325
v 0.049674 0.070000 -0.005700
vt 0.490086 7.363108 0.000000
vt 6.000000 7.425583 0.000000
vt -0.000000 7.853982 0.000000
vt 6.000000 7.996781 0.000000
vt 0.490086 8.344855 0.000000
vt 6.000000 8.567980 0.000000
vt 0.975452 8.835729 0.000000
vt 6.000000 9.139179 0.000000
vt 1.451423 9.326603 0.000000
vt 6.000000 9.710377 0.000000
vt 1.913417 9.817477 0.000000
vt 6.000000 10.281576 0.000000
vt 2.356984 10.308351 0.000000
vt 2.777851 10.799225 0.000000
vt 6.000000 10.852775 0.000000
vt 3.171966 11.290099 0.000000
vt 6.000000 11.423973 0.000000
vt 3.535534 11.780972 0.000000
vt 6.000000 11.995172 0.000000
vt 3.865052 12.271846 0.000000
vt 6.000000 12.566371 0.000000
vt 4.157348 12.762720 0.000000
vt 6.000000 13.137569 0.000000
vt 4.409606 13.253594 0.000000
vt 6.000000 13.708768 0.000000
vt 4.619398 13.744468 0.000000
vt 4.784702 14.235342 0.000000
vt 6.000000 14.279967 0.000000
vt 4.850156 14.480779 0.000000
vt 6.000000 14.851165 0.000000
vt 4.903926 14.726216 0.000000
vt 4.945883 14.971652 0.000000
vt 4.975924 15.217089 0.000000
vt 6.000000 15.422364 0.000000
vt 4.993977 15.462526 0.000000
vt 5.000000 15.707963 0.000000
vt 5.000000 -15.707963 0.000000
vt 6.000000 -15.993563 0.000000
vt 6.000000 -15.422364 0.000000
vt 4.993977 -15.462526 0.000000
vt 4.975924 -15.217089 0.000000
vt 6.000000 -14.851165 0.000000
vt 4.945883 -14.971652 0.000000
vt 4.903926 -14.726216 0.000000
vt 4.850156 -14.480779 0.000000
vt 6.000000 -14.279967 0.000000
vt 4.784702 -14.235342 0.000000
vt 6.000000 -13.708768 0.000000
vt 4.619398 -13.744468 0.000000
vt 4.409606 -13.253594 0.000000
vt 6.000000 -13.137569 0.000000
vt 4.157348 -12.762720 0.000000
vt 6.000000 -12.566371 0.000000
vt 3.865052 -12.271846 0.000000
vt 6.000000 -11.995172 0.000000
vt 3.535534 -11.780972 0.000000
vt 6.000000 -11.423973 0.000000
vt 3.171966 -11.290099 0.000000
vt 6.000000 -10.852775 0.000000
vt 2.777851 -10.799225 0.000000
vt 6.000000 -10.281576 0.000000
vt 2.356984 -10.308351 0.000000
vt 1.913417 -9.817477 0.000000
vt 6.000000 -9.710377 0.000000
vt 1.451423 -9.326603 0.000000
vt 6.000000 -9.139179 0.000000
vt 0.975452 -8.835729 0.000000
vt 6.000000 -8.567980 0.000000
vt 0.490086 -8.344855 0.000000
vt 6.000000 -7.996781 0.000000
vt 0.000000 -7.853982 0.000000
vt 6.000000 -7.425583 0.000000
vt 0.490086 -7.363108 0.000000
vt 6.000000 -6.854384 0.000000
vt 0.975452 -6.872234 0.000000
vt 1.451423 -6.381360 0.000000
vt 6.000000 -6.283185 0.000000
vt 1.913417 -5.890486 0.000000
vt 6.000000 -5.711987 0.000000
vt 2.356984 -5.399612 0.000000
vt 6.000000 -5.140788 0.000000
vt 2.777851 -4.908739 0.000000
vt 6.000000 -4.569589 0.000000
vt 3.171966 -4.417865 0.000000
vt 6.000000 -3.998391 0.000000
vt 3.535534 -3.926991 0.000000
vt 6.000000 -3.427192 0.000000
vt 3.865052 -3.436117 0.000000
vt 4.157348 -2.945243 0.000000
vt 6.000000 -2.855993 0.000000
vt 4.409606 -2.454369 0.000000
vt 6.000000 -2.284795 0.000000
vt 4.619398 -1.963495 0.000000
vt 6.000000 -1.713596 0.000000
vt 4.784702 -1.472622 0.000000
vt 6.000000 -1.142397 0.000000
vt 4.850156 -1.227185 0.000000
vt 4.903926 -0.981748 0.000000
vt 4.945883 -0.736311 0.000000
vt 6.000000 -0.571199 0.000000
vt 4.975924 -0.490874 0.000000
vt 4.993977 -0.245437 0.000000
vt 6.000000 -0.000000 0.000000
vt 5.000000 -0.000000 0.000000
vt 4.993977 0.245437 0.000000
vt 6.000000 0.571199 0.000000
vt 4.975924 0.490874 0.000000
vt 4.945883 0.736311 0.000000
vt 6.000000 1.142397 0.000000
vt 4.903926 0.981748 0.000000
vt 4.850156 1.227185 0.000000
vt 4.784702 1.472622 0.000000
vt 6.000000 1.713596 0.000000
vt 4.619398 1.963495 0.000000
vt 6.000000 2.284795 0.000000
vt 4.409606 2.454369 0.000000
vt 6.000000 2.855993 0.000000
vt 4.157348 2.945243 0.000000
vt 6.000000 3.427192 0.000000
vt 3.865052 3.436117 0.000000
vt 3.535534 3.926991 0.000000
vt 6.000000 3.998391 0.000000
vt 3.171966 4.417865 0.000000
vt 6.000000 4.569589 0.000000
vt 2.777851 4.908739 0.000000
vt 6.000000 5.140788 0.000000
vt 2.356984 5.399612 0.000000
vt 6.000000 5.711987 0.000000
vt 1.913417 5.890486 0.000000
vt 6.000000 6.283185 0.000000
vt 1.451423 6.381360 0.000000
vt 6.000000 6.854384 0.000000
vt 0.975452 6.872234 0.000000
vt -6.000000 -0.571199 0.000000
vt -4.993977 -0.245437 0.000000
vt -6.000000 0.000000 0.000000
vt -5.000000 0.000000 0.000000
vt -4.993977 0.245437 0.000000
vt -6.000000 -1.142397 0.000000
vt -4.945883 -0.736311 0.000000
vt -4.975924 -0.490874 0.000000
vt -6.000000 -1.713596 0.000000
vt -4.784702 -1.472622 0.000000
vt -4.850156 -1.227185 0.000000
vt -4.903926 -0.981748 0.000000
vt -4.619398 -1.963495 0.000000
vt -6.000000 -2.284795 0.000000
vt -4.409606 -2.454369 0.000000
vt -6.000000 -2.855993 0.000000
vt -4.157348 -2.945243 0.000000
vt -6.000000 -3.427192 0.000000
vt -3.865052 -3.436117 0.000000
vt -3.535534 -3.926991 0.000000
vt -6.000000 -3.998391 0.000000
vt -3.171966 -4.417865 0.000000
vt -6.000000 -4.569589 0.000000
vt -2.777851 -4.908739 0.000000
vt -6.000000 -5.140788 0.000000
vt -2.356984 -5.399612 0.000000
vt -6.000000 -5.711987 0.000000
vt -1.913417 -5.890486 0.000000
vt -6.000000 -6.283185 0.000000
vt -1.451423 -6.381360 0.000000
vt -6.000000 -6.854384 0.000000
vt -0.975452 -6.872234 0.000000
vt -6.000000 -7.425583 0.000000
vt -0.490086 -7.363108 0.000000
vt 0.000000 -7.853982 0.000000
vt -6.000000 -7.996781 0.000000
vt -0.490086 -8.344855 0.000000
vt -6.000000 -8.567980 0.000000
vt -0.975452 -8.835729 0.000000
vt -6.000000 -9.139179 0.000000
vt -1.451423 -9.326603 0.000000
vt -6.000000 -9.710377 0.000000
vt -1.913417 -9.817477 0.000000
vt -6.000000 -10.281576 0.000000
vt -2.356984 -10.308351 0.000000
vt -2.777851 -10.799225 0.000000
vt -6.000000 -10.852775 0.000000
vt -3.171966 -11.290099 0.000000
vt -6.000000 -11.423973 0.000000
vt -3.535534 -11.780972 0.000000
vt -6.000000 -11.995172 0.000000
vt -3.865052 -12.271846 0.000000
vt -6.000000 -12.566371 0.000000
vt -4.157348 -12.762720 0.000000
vt -6.000000 -13.137569 0.000000
vt -4.409606 -13.253594 0.000000
vt -6.000000 -13.708768 0.000000
vt -4.619398 -13.744468 0.000000
vt -4.784702 -14.235342 0.000000
vt -6.000000 -14.279967 0.000000
vt -4.850156 -14.480779 0.000000
vt -6.000000 -14.851165 0.000000
vt -4.903926 -14.726216 0.000000
vt -4.945883 -14.971652 0.000000
vt -4.975924 -15.217089 0.000000
vt -6.000000 -15.422364 0.000000
vt -4.993977 -15.462526 0.000000
vt -4.993977 15.953400 0.000000
vt -6.000000 15.993563 0.000000
vt -5.000000 15.707963 0.000000
vt -6.000000 15.422364 0.000000
vt -4.993977 15.462526 0.000000
vt -4.975924 15.217089 0.000000
vt -6.000000 14.851165 0.000000
vt -4.945883 14.971652 0.000000
vt -4.903926 14.726216 0.000000
vt -4.850156 14.480779 0.000000
vt -6.000000 14.279967 0.000000
vt -4.784702 14.235342 0.000000
vt -6.000000 13.708768 0.000000
vt -4.619398 13.744468 0.000000
vt -4.409606 13.253594 0.000000
vt -6.000000 13.137569 0.000000
vt -4.157348 12.762720 0.000000
vt -6.000000 12.566371 0.000000
vt -3.865052 12.271846 0.000000
vt -6.000000 11.995172 0.000000
vt -3.535534 11.780972 0.000000
vt -6.000000 11.423973 0.000000
vt -3.171966 11.290099 0.000000
vt -6.000000 10.852775 0.000000
vt -2.777851 10.799225 0.000000
vt -6.000000 10.281576 0.000000
vt -2.356984 10.308351 0.000000
vt -1.913417 9.817477 0.000000
vt -6.000000 9.710377 0.000000
vt -1.451423 9.326603 0.000000
vt -6.000000 9.139179 0.000000
vt -0.975452 8.835729 0.000000
vt -6.000000 8.567980 0.000000
vt -0.490086 8.344855 0.000000
vt -6.000000 7.996781 0.000000
vt -0.000000 7.853982 0.000000
vt -6.000000 7.425583 0.000000
vt -0.490086 7.363108 0.000000
vt -6.000000 6.854384 0.000000
vt -0.975452 6.872234 0.000000
vt -1.451423 6.381360 0.000000
vt -6.000000 6.283185 0.000000
vt -1.913417 5.890486 0.000000
vt -6.000000 5.711987 0.000000
vt -2.356984 5.399612 0.000000
vt -6.000000 5.140788 0.000000
vt -2.777851 4.908739 0.000000
vt -6.000000 4.569589 0.000000
vt -3.171966 4.417865 0.000000
vt -6.000000 3.998391 0.000000
vt -3.535534 3.926991 0.000000
vt -6.000000 3.427192 0.000000
vt -3.865052 3.436117 0.000000
vt -4.157348 2.945243 0.000000
vt -6.000000 2.855993 0.000000
vt -4.409606 2.454369 0.000000
vt -6.000000 2.284795 0.000000
vt -4.619398 1.963495 0.000000
vt -6.000000 1.713596 0.000000
vt -4.784702 1.472622 0.000000
vt -6.000000 1.142397 0.000000
vt -4.850156 1.227185 0.000000
vt -4.903926 0.981748 0.000000
vt -4.945883 0.736311 0.000000
vt -6.000000 0.571199 0.000000
vt -4.975924 0.490874 0.000000
vt -5.000000 -0.000000 0.000000
vt -4.967409 -0.569957 0.000000
vt -4.967409 0.569957 0.000000
vt -4.870060 1.132484 0.000000
vt -4.709222 1.680247 0.000000
vt -4.486992 2.206106 0.000000
vt -4.206268 2.703204 0.000000
vt -3.870708 3.165062 0.000000
vt -3.484688 3.585659 0.000000
vt -3.053239 3.959511 0.000000
vt -2.581987 4.281745 0.000000
vt -2.077075 4.548160 0.000000
vt -1.545085 4.755283 0.000000
vt -0.992952 4.900413 0.000000
vt -0.427875 4.981659 0.000000
vt 0.142780 4.997961 0.000000
vt 0.711574 4.949107 0.000000
vt 1.271092 4.835734 0.000000
vt 1.814039 4.659320 0.000000
vt -4.870060 -1.132484 0.000000
vt 2.333337 4.422165 0.000000
vt 2.822216 4.127359 0.000000
vt 3.274304 3.778748 0.000000
vt 3.683706 3.380875 0.000000
vt 4.045085 2.938926 0.000000
vt 4.353730 2.458665 0.000000
vt 4.605618 1.946351 0.000000
vt 4.797465 1.408663 0.000000
vt 4.926769 0.852611 0.000000
vt 4.991846 0.285444 0.000000
vt 4.991846 -0.285444 0.000000
vt 4.926769 -0.852611 0.000000
vt 4.797465 -1.408663 0.000000
vt -4.709222 -1.680247 0.000000
vt 4.605618 -1.946351 0.000000
vt -4.486992 -2.206106 0.000000
vt 4.353730 -2.458665 0.000000
vt -4.206268 -2.703204 0.000000
vt 4.045085 -2.938926 0.000000
vt -3.870708 -3.165062 0.000000
vt 3.683706 -3.380875 0.000000
vt -3.484688 -3.585659 0.000000
vt 3.274304 -3.778748 0.000000
vt -3.053239 -3.959511 0.000000
vt 2.822216 -4.127359 0.000000
vt -2.581987 -4.281745 0.000000
vt 2.333337 -4.422165 0.000000
vt -2.077075 -4.548160 0.000000
vt 1.814039 -4.659320 0.000000
vt -1.545085 -4.755283 0.000000
vt 1.271092 -4.835734 0.000000
vt -0.992952 -4.900413 0.000000
vt 0.711574 -4.949107 0.000000
vt -0.427875 -4.981659 0.000000
vt 0.142780 -4.997961 0.000000
vt 5.000000 0.000000 0.000000
vt 4.967409 0.569957 0.000000
vt 4.967409 -0.569957 0.000000
vt 4.870060 1.132484 0.000000
vt 4.709222 1.680247 0.000000
vt 4.486992 2.206106 0.000000
vt 4.206268 2.703204 0.000000
vt 3.870708 3.165062 0.000000
vt 3.484688 3.585659 0.000000
vt 3.053239 3.959511 0.000000
vt 2.581987 4.281745 0.000000
vt 2.077075 4.548160 0.000000
vt 1.545085 4.755283 0.000000
vt 0.992952 4.900413 0.000000
vt 0.427875 4.981659 0.000000
vt -0.142780 4.997961 0.000000
vt -0.711574 4.949107 0.000000
vt -1.271092 4.835734 0.000000
vt -1.814039 4.659320 0.000000
vt 4.870060 -1.132484 0.000000
vt -2.333337 4.422165 0.000000
vt -2.822216 4.127359 0.000000
vt -3.274304 3.778748 0.000000
vt -3.683706 3.380875 0.000000
vt -4.045085 2.938926 0.000000
vt -4.353730 2.458665 0.000000
vt -4.605618 1.946351 0.000000
vt -4.797465 1.408663 0.000000
vt -4.926769 0.852611 0.000000
vt -4.991846 0.285444 0.000000
vt -4.991846 -0.285444 0.000000
vt -4.926769 -0.852611 0.000000
vt -4.797465 -1.408663 0.000000
vt 4.709222 -1.680247 0.000000
vt -4.605618 -1.946351 0.000000
vt 4.486992 -2.206106 0.000000
vt -4.353730 -2.458665 0.000000
vt 4.206268 -2.703204 0.000000
vt -4.045085 -2.938926 0.000000
vt 3.870708 -3.165062 0.000000
vt -3.683706 -3.380875 0.000000
vt 3.484688 -3.585659 0.000000
vt -3.274304 -3.778748 0.000000
vt 3.053239 -3.959511 0.000000
vt -2.822216 -4.127359 0.000000
vt 2.581987 -4.281745 0.000000
vt -2.333337 -4.422165 0.000000
vt 2.077075 -4.548160 0.000000
vt -1.814039 -4.659320 0.000000
vt 1.545085 -4.755283 0.000000
vt -1.271092 -4.835734 0.000000
vt 0.992952 -4.900413 0.000000
vt -0.711574 -4.949107 0.000000
vt 0.427875 -4.981659 0.000000
vt -0.142780 -4.997961 0.000000
vt 7.000000 0.571199 0.000000
vt 4.993977 0.245437 0.000000
vt 7.000000 0.000000 0.000000
vt 5.000000 0.000000 0.000000
vt 4.993977 -0.245437 0.000000
vt 7.000000 1.142397 0.000000
vt 4.945883 0.736311 0.000000
vt 4.975924 0.490874 0.000000
vt 7.000000 1.713596 0.000000
vt 4.784702 1.472622 0.000000
vt 4.850156 1.227185 0.000000
vt 4.903926 0.981748 0.000000
vt 4.619398 1.963495 0.000000
vt 7.000000 2.284795 0.000000
vt 4.409606 2.454369 0.000000
vt 7.000000 2.855993 0.000000
vt 4.157348 2.945243 0.000000
vt 7.000000 3.427192 0.000000
vt 3.865052 3.436117 0.000000
vt 3.535534 3.926991 0.000000
vt 7.000000 3.998391 0.000000
vt 3.171966 4.417865 0.000000
vt 7.000000 4.569589 0.000000
vt 2.777851 4.908739 0.000000
vt 7.000000 5.140788 0.000000
vt 2.356984 5.399612 0.000000
vt 7.000000 5.711987 0.000000
vt 1.913417 5.890486 0.000000
vt 7.000000 6.283185 0.000000
vt 1.451423 6.381360 0.000000
vt 7.000000 6.854384 0.000000
vt 0.975452 6.872234 0.000000
vt 7.000000 7.425583 0.000000
vt 0.490086 7.363108 0.000000
vt 0.000000 7.853982 0.000000
vt 7.000000 7.996781 0.000000
vt 0.490086 8.344855 0.000000
vt 7.000000 8.567980 0.000000
vt 0.975452 8.835729 0.000000
vt 7.000000 9.139179 0.000000
vt 1.451423 9.326603 0.000000
vt 7.000000 9.710377 0.000000
vt 1.913417 9.817477 0.000000
vt 7.000000 10.281576 0.000000
vt 2.356984 10.308351 0.000000
vt 2.777851 10.799225 0.000000
vt 7.000000 10.852775 0.000000
vt 3.171966 11.290099 0.000000
vt 7.000000 11.423973 0.000000
vt 3.535534 11.780972 0.000000
vt 7.000000 11.995172 0.000000
vt 3.865052 12.271846 0.000000
vt 7.000000 12.566371 0.000000
vt 4.157348 12.762720 0.000000
vt 7.000000 13.137569 0.000000
vt 4.409606 13.253594 0.000000
vt 7.000000 13.708768 0.000000
vt 4.619398 13.744468 0.000000
vt 4.784702 14.235342 0.000000
vt 7.000000 14.279967 0.000000
vt 4.850156 14.480779 0.000000
vt 7.000000 14.851165 0.000000
vt 4.903926 14.726216 0.000000
vt 4.945883 14.971652 0.000000
vt 4.975924 15.217089 0.000000
vt 7.000000 15.422364 0.000000
vt 4.993977 15.462526 0.000000
vt 5.000000 15.707963 0.000000
vt 5.000000 -15.707963 0.000000
vt 7.000000 -15.993563 0.000000
vt 7.000000 -15.422364 0.000000
vt 4.993977 -15.462526 0.000000
vt 4.975924 -15.217089 0.000000
vt 7.000000 -14.851165 0.000000
vt 4.945883 -14.971652 0.000000
vt 4.903926 -14.726216 0.000000
vt 4.850156 -14.480779 0.000000
vt 7.000000 -14.279967 0.000000
vt 4.784702 -14.235342 0.000000
vt 7.000000 -13.708768 0.000000
vt 4.619398 -13.744468 0.000000
vt 4.409606 -13.253594 0.000000
vt 7.000000 -13.137569 0.000000
vt 4.157348 -12.762720 0.000000
vt 7.000000 -12.566371 0.000000
vt 3.865052 -12.271846 0.000000
vt 7.000000 -11.995172 0.000000
vt 3.535534 -11.780972 0.000000
vt 7.000000 -11.423973 0.000000
vt 3.171966 -11.290099 0.000000
vt 7.000000 -10.852775 0.000000
vt 2.777851 -10.799225 0.000000
vt 7.000000 -10.281576 0.000000
vt 2.356984 -10.308351 0.000000
vt 1.913417 -9.817477 0.000000
vt 7.000000 -9.710377 0.000000
vt 1.451423 -9.326603 0.000000
vt 7.000000 -9.139179 0.000000
vt 0.975452 -8.835729 0.000000
vt 7.000000 -8.567980 0.000000
vt 0.490086 -8.344855 0.000000
vt 7.000000 -7.996781 0.000000
vt 0.000000 -7.853982 0.000000
vt 7.000000 -7.425583 0.000000
vt 0.490086 -7.363108 0.000000
vt 7.000000 -6.854384 0.000000
vt 0.975452 -6.872234 0.000000
vt 1.451423 -6.381360 0.000000
vt 7.000000 -6.283185 0.000000
vt 1.913417 -5.890486 0.000000
vt 7.000000 -5.711987 0.000000
vt 2.356984 -5.399612 0.000000
vt 7.000000 -5.140788 0.000000
vt 2.777851 -4.908739 0.000000
vt 7.000000 -4.569589 0.000000
vt 3.171966 -4.417865 0.000000
vt 7.000000 -3.998391 0.000000
vt 3.535534 -3.926991 0.000000
vt 7.000000 -3.427192 0.000000
vt 3.865052 -3.436117 0.000000
vt 4.157348 -2.945243 0.000000
vt 7.000000 -2.855993 0.000000
vt 4.409606 -2.454369 0.000000
vt 7.000000 -2.284795 0.000000
vt 4.619398 -1.963495 0.000000
vt 7.000000 -1.713596 0.000000
vt 4.784702 -1.472622 0.000000
vt 7.000000 -1.142397 0.000000
vt 4.850156 -1.227185 0.000000
vt 4.903926 -0.981748 0.000000
vt 4.945883 -0.736311 0.000000
vt 7.000000 -0.571199 0.000000
vt 4.975924 -0.490874 0.000000
vt -0.490086 -7.363108 0.000000
vt -7.000000 -7.425583 0.000000
vt 0.000000 -7.853982 0.000000
vt -7.000000 -7.996781 0.000000
vt -0.490086 -8.344855 0.000000
vt -7.000000 -8.567980 0.000000
vt -0.975452 -8.835729 0.000000
vt -7.000000 -9.139179 0.000000
vt -1.451423 -9.326603 0.000000
vt -7.000000 -9.710377 0.000000
vt -1.913417 -9.817477 0.000000
vt -7.000000 -10.281576 0.000000
vt -2.356984 -10.308351 0.000000
vt -2.777851 -10.799225 0.000000
vt -7.000000 -10.852775 0.000000
vt -3.171966 -11.290099 0.000000
vt -7.000000 -11.423973 0.000000
vt -3.535534 -11.780972 0.000000
vt -7.000000 -11.995172 0.000000
vt -3.865052 -12.271846 0.000000
vt -7.000000 -12.566371 0.000000
vt -4.157348 -12.762720 0.000000
vt -7.000000 -13.137569 0.000000
vt -4.409606 -13.253594 0.000000
vt -7.000000 -13.708768 0.000000
vt -4.619398 -13.744468 0.000000
vt -4.784702 -14.235342 0.000000
vt -7.000000 -14.279967 0.000000
vt -4.850156 -14.480779 0.000000
vt -7.000000 -14.851165 0.000000
vt -4.903926 -14.726216 0.000000
vt -4.945883 -14.971652 0.000000
vt -4.975924 -15.217089 0.000000
vt -7.000000 -15.422364 0.000000
vt -4.993977 -15.462526 0.000000
vt -4.993977 15.953400 0.000000
vt -7.000000 15.993563 0.000000
vt -5.000000 15.707963 0.000000
vt -7.000000 15.422364 0.000000
vt -4.993977 15.462526 0.000000
vt -4.975924 15.217089 0.000000
vt -7.000000 14.851165 0.000000
vt -4.945883 14.971652 0.000000
vt -4.903926 14.726216 0.000000
vt -4.850156 14.480779 0.000000
vt -7.000000 14.279967 0.000000
vt -4.784702 14.235342 0.000000
vt -7.000000 13.708768 0.000000
vt -4.619398 13.744468 0.000000
vt -4.409606 13.253594 0.000000
vt -7.000000 13.137569 0.000000
vt -4.157348 12.762720 0.000000
vt -7.000000 12.566371 0.000000
vt -3.865052 12.271846 0.000000
vt -7.000000 11.995172 0.000000
vt -3.535534 11.780972 0.000000
vt -7.000000 11.423973 0.000000
vt -3.171966 11.290099 0.000000
vt -7.000000 10.852775 0.000000
vt -2.777851 10.799225 0.000000
vt -7.000000 10.281576 0.000000
vt -2.356984 10.308351 0.000000
vt -1.913417 9.817477 0.000000
vt -7.000000 9.710377 0.000000
vt -1.451423 9.326603 0.000000
vt -7.000000 9.139179 0.000000
vt -0.975452 8.835729 0.000000
vt -7.000000 8.567980 0.000000
vt -0.490086 8.344855 0.000000
vt -7.000000 7.996781 0.000000
vt 0.000000 7.853982 0.000000
vt -7.000000 7.425583 0.000000
vt -0.490086 7.363108 0.000000
vt -7.000000 6.854384 0.000000
vt -0.975452 6.872234 0.000000
vt -1.451423 6.381360 0.000000
vt -7.000000 6.283185 0.000000
vt -1.913417 5.890486 0.000000
vt -7.000000 5.711987 0.000000
vt -2.356984 5.399612 0.000000
vt -7.000000 5.140788 0.000000
vt -2.777851 4.908739 0.000000
vt -7.000000 4.569589 0.000000
vt -3.171966 4.417865 0.000000
vt -7.000000 3.998391 0.000000
vt -3.535534 3.926991 0.000000
vt -7.000000 3.427192 0.000000
vt -3.865052 3.436117 0.000000
vt -4.157348 2.945243 0.000000
vt -7.000000 2.855993 0.000000
vt -4.409606 2.454369 0.000000
vt -7.000000 2.284795 0.000000
vt -4.619398 1.963495 0.000000
vt -7.000000 1.713596 0.000000
vt -4.784702 1.472622 0.000000
vt -7.000000 1.142397 0.000000
vt -4.850156 1.227185 0.000000
vt -4.903926 0.981748 0.000000
vt -4.945883 0.736311 0.000000
vt -7.000000 0.571199 0.000000
vt -4.975924 0.490874 0.000000
vt -4.993977 0.245437 0.000000
vt -7.000000 -0.000000 0.000000
vt -5.000000 -0.000000 0.000000
vt -4.993977 -0.245437 0.000000
vt -7.000000 -0.571199 0.000000
vt -4.975924 -0.490874 0.000000
vt -4.945883 -0.736311 0.000000
vt -7.000000 -1.142397 0.000000
vt -4.903926 -0.981748 0.000000
vt -4.850156 -1.227185 0.000000
vt -4.784702 -1.472622 0.000000
vt -7.000000 -1.713596 0.000000
vt -4.619398 -1.963495 0.000000
vt -7.000000 -2.284795 0.000000
vt -4.409606 -2.454369 0.000000
vt -7.000000 -2.855993 0.000000
vt -4.157348 -2.945243 0.000000
vt -7.000000 -3.427192 0.000000
vt -3.865052 -3.436117 0.000000
vt -3.535534 -3.926991 0.000000
vt -7.000000 -3.998391 0.000000
vt -3.171966 -4.417865 0.000000
vt -7.000000 -4.569589 0.000000
vt -2.777851 -4.908739 0.000000
vt -7.000000 -5.140788 0.000000
vt -2.356984 -5.399612 0.000000
vt -7.000000 -5.711987 0.000000
vt -1.913417 -5.890486 0.000000
vt -7.000000 -6.283185 0.000000
vt -1.451423 -6.381360 0.000000
vt -7.000000 -6.854384 0.000000
vt -0.975452 -6.872234 0.000000
vt -5.000000 -0.000000 0.000000
vt -4.967409 -0.569957 0.000000
vt -4.967409 0.569957 0.000000
vt -4.870060 1.132484 0.000000
vt -4.709222 1.680247 0.000000
vt -4.486992 2.206106 0.000000
vt -4.206268 2.703204 0.000000
vt -3.870708 3.165062 0.000000
vt -3.484688 3.585659 0.000000
vt -3.053239 3.959511 0.000000
vt -2.581987 4.281745 0.000000
vt -2.077075 4.548160 0.000000
vt -1.545085 4.755283 0.000000
vt -0.992952 4.900413 0.000000
vt -0.427875 4.981659 0.000000
vt 0.142780 4.997961 0.000000
vt 0.711574 4.949107 0.000000
vt 1.271092 4.835734 0.000000
vt 1.814039 4.659320 0.000000
vt -4.870060 -1.132484 0.000000
vt 2.333337 4.422165 0.000000
vt 2.822216 4.127359 0.000000
vt 3.274304 3.778748 0.000000
vt 3.683706 3.380875 0.000000
vt 4.045085 2.938926 0.000000
vt 4.353730 2.458665 0.000000
vt 4.605618 1.946351 0.000000
vt 4.797465 1.408663 0.000000
vt 4.926769 0.852611 0.000000
vt 4.991846 0.285444 0.000000
vt 4.991846 -0.285444 0.000000
vt 4.926769 -0.852611 0.000000
vt 4.797465 -1.408663 0.000000
vt -4.709222 -1.680247 0.000000
vt 4.605618 -1.946351 0.000000
vt -4.486992 -2.206106 0.000000
vt 4.353730 -2.458665 0.000000
vt -4.206268 -2.703204 0.000000
vt 4.045085 -2.938926 0.000000
vt -3.870708 -3.165062 0.000000
vt 3.683706 -3.380875 0.000000
vt -3.484688 -3.585659 0.000000
vt 3.274304 -3.778748 0.000000
vt -3.053239 -3.959511 0.000000
vt 2.822216 -4.127359 0.000000
vt -2.581987 -4.281745 0.000000
vt 2.333337 -4.422165 0.000000
vt -2.077075 -4.548160 0.000000
vt 1.814039 -4.659320 0.000000
vt -1.545085 -4.755283 0.000000
vt 1.271092 -4.835734 0.000000
vt -0.992952 -4.900413 0.000000
vt 0.711574 -4.949107 0.000000
vt -0.427875 -4.981659 0.000000
vt 0.142780 -4.997961 0.000000
vt 5.000000 0.000000 0.000000
vt 4.967409 0.569957 0.000000
vt 4.967409 -0.569957 0.000000
vt 4.870060 1.132484 0.000000
vt 4.709222 1.680247 0.000000
vt 4.486992 2.206106 0.000000
vt 4.206268 2.703204 0.000000
vt 3.870708 3.165062 0.000000
vt 3.484688 3.585659 0.000000
vt 3.053239 3.959511 0.000000
vt 2.581987 4.281745 0.000000
vt 2.077075 4.548160 0.000000
vt 1.545085 4.755283 0.000000
vt 0.992952 4.900413 0.000000
vt 0.427875 4.981659 0.000000
vt -0.142780 4.997961 0.000000
vt -0.711574 4.949107 0.000000
vt -1.271092 4.835734 0.000000
vt -1.814039 4.659320 0.000000
vt 4.870060 -1.132484 0.000000
vt -2.333337 4.422165 0.000000
vt -2.822216 4.127359 0.000000
vt -3.274304 3.778748 0.000000
vt -3.683706 3.380875 0.000000
vt -4.045085 2.938926 0.000000
vt -4.353730 2.458665 0.000000
vt -4.605618 1.946351 0.000000
vt -4.797465 1.408663 0.000000
vt -4.926769 0.852611 0.000000
vt -4.991846 0.285444 0.000000
vt -4.991846 -0.285444 0.000000
vt -4.926769 -0.852611 0.000000
vt -4.797465 -1.408663 0.000000
vt 4.709222 -1.680247 0.000000
vt -4.605618 -1.946351 0.000000
vt 4.486992 -2.206106 0.000000
vt -4.353730 -2.458665 0.000000
vt 4.206268 -2.703204 0.000000
vt -4.045085 -2.938926 0.000000
vt 3.870708 -3.165062 0.000000
vt -3.683706 -3.380875 0.000000
vt 3.484688 -3.585659 0.000000
vt -3.274304 -3.778748 0.000000
vt 3.053239 -3.959511 0.000000
vt -2.822216 -4.127359 0.000000
vt 2.581987 -4.281745 0.000000
vt -2.333337 -4.422165 0.000000
vt 2.077075 -4.548160 0.000000
vt -1.814039 -4.659320 0.000000
vt 1.545085 -4.755283 0.000000
vt -1.271092 -4.835734 0.000000
vt 0.992952 -4.900413 0.000000
vt -0.711574 -4.949107 0.000000
vt 0.427875 -4.981659 0.000000
vt -0.142780 -4.997961 0.000000
vn -0.000000 -9.801714 -99.518473
vn -0.000000 -8.557501 -99.633173
vn -0.000000 -0.000000 -100.000000
vn -0.000000 2.855605 -99.959219
vn -0.000000 9.801714 -99.518473
vn -0.000000 14.231484 -98.982144
vn -0.000000 19.509032 -98.078528
vn -0.000000 25.421833 -96.714685
vn -0.000000 29.028468 -95.694034
vn -0.000000 36.280771 -93.186403
vn -0.000000 38.268343 -92.387953
vn -0.000000 46.666732 -88.443293
vn -0.000000 47.139674 -88.192126
vn -0.000000 55.557023 -83.146961
vn -0.000000 56.444322 -82.547190
vn -0.000000 63.439328 -77.301045
vn -0.000000 65.486073 -75.574957
vn -0.000000 70.710678 -70.710678
vn 0.000000 73.674114 -67.617490
vn 0.000000 77.301045 -63.439328
vn 0.000000 80.901699 -58.778525
vn 0.000000 83.146961 -55.557023
vn 0.000000 87.074608 -49.173292
vn 0.000000 88.192126 -47.139674
vn 0.000000 92.112365 -38.927011
vn 0.000000 92.387953 -38.268343
vn 0.000000 95.694034 -29.028468
vn 0.000000 95.949297 -28.173256
vn 0.000000 97.003125 -24.298018
vn 0.000000 98.535384 -17.052219
vn 0.000000 98.078528 -19.509032
vn 0.000000 98.917651 -14.673047
vn 0.000000 99.518473 -9.801714
vn 0.000000 99.836910 -5.708881
vn 0.000000 99.879546 -4.906767
vn 0.000000 100.000000 -0.000000
vn 0.000000 99.836910 5.708881
vn 0.000000 99.879546 4.906767
vn 0.000000 99.518473 9.801714
vn 0.000000 98.535384 17.052219
vn 0.000000 98.917651 14.673047
vn 0.000000 98.078528 19.509032
vn 0.000000 97.003125 24.298018
vn 0.000000 95.949297 28.173256
vn 0.000000 95.694034 29.028468
vn 0.000000 92.112365 38.927011
vn 0.000000 92.387953 38.268343
vn 0.000000 88.192126 47.139674
vn 0.000000 87.074608 49.173292
vn 0.000000 83.146961 55.557023
vn 0.000000 80.901699 58.778525
vn 0.000000 77.301045 63.439328
vn 0.000000 73.674114 67.617490
vn 0.000000 70.710678 70.710678
vn 0.000000 65.486073 75.574957
vn 0.000000 63.439328 77.301045
vn 0.000000 56.444322 82.547190
vn 0.000000 55.557023 83.146961
vn 0.000000 46.666732 88.443293
vn 0.000000 47.139674 88.192126
vn 0.000000 38.268343 92.387953
vn 0.000000 36.280771 93.186403
vn 0.000000 29.028468 95.694034
vn 0.000000 25.421833 96.714685
vn 0.000000 19.509032 98.078528
vn 0.000000 14.231484 98.982144
vn 0.000000 9.801714 99.518473
vn 0.000000 2.855605 99.959219
vn 0.000000 0.000000 100.000000
vn 0.000000 -8.557501 99.633173
vn 0.000000 -9.801714 99.518473
vn 0.000000 -19.859047 98.008256
vn 0.000000 -19.509032 98.078528
vn 0.000000 -29.028468 95.694034
vn 0.000000 -30.901699 95.105652
vn 0.000000 -38.268343 92.387953
vn 0.000000 -41.541501 90.963200
vn 0.000000 -47.139674 88.192126
vn 0.000000 -51.639746 85.634903
vn 0.000000 -55.557023 83.146961
vn 0.000000 -61.064788 79.190225
vn 0.000000 -63.439328 77.301045
vn 0.000000 -69.693757 71.713180
vn 0.000000 -70.710678 70.710678
vn -0.000000 -77.414161 63.301245
vn -0.000000 -77.301045 63.439328
vn -0.000000 -83.146961 55.557023
vn -0.000000 -84.125353 54.064082
vn -0.000000 -88.192126 47.139674
vn -0.000000 -89.739843 44.122110
vn -0.000000 -92.387953 38.268343
vn -0.000000 -94.184436 33.604939
vn -0.000000 -95.694034 29.028468
vn -0.000000 -97.401192 22.649677
vn -0.000000 -97.003125 24.298018
vn -0.000000 -98.078528 19.509032
vn -0.000000 -98.917651 14.673047
vn -0.000000 -99.348174 11.399141
vn -0.000000 -99.518473 9.801714
vn -0.000000 -99.879546 4.906767
vn -0.000000 -100.000000 0.000000
vn -0.000000 -100.000000 0.000000
vn -0.000000 -99.879546 -4.906767
vn -0.000000 -99.348174 -11.399141
vn -0.000000 -99.518473 -9.801714
vn -0.000000 -98.917651 -14.673047
vn -0.000000 -97.401192 -22.649677
vn -0.000000 -98.078528 -19.509032
vn -0.000000 -97.003125 -24.298018
vn -0.000000 -95.694034 -29.028468
vn -0.000000 -94.184436 -33.604939
vn -0.000000 -92.387953 -38.268343
vn -0.000000 -89.739843 -44.122110
vn -0.000000 -88.192126 -47.139674
vn -0.000000 -84.125353 -54.064082
vn -0.000000 -83.146961 -55.557023
vn -0.000000 -77.414161 -63.301245
vn -0.000000 -77.301045 -63.439328
vn -0.000000 -70.710678 -70.710678
vn -0.000000 -69.693757 -71.713180
vn -0.000000 -63.439328 -77.301045
vn -0.000000 -61.064788 -79.190225
vn -0.000000 -55.557023 -83.146961
vn -0.000000 -51.639746 -85.634903
vn -0.000000 -47.139674 -88.192126
vn -0.000000 -41.541501 -90.963200
vn -0.000000 -38.268343 -92.387953
vn -0.000000 -30.901699 -95.105652
vn -0.000000 -29.028468 -95.694034
vn -0.000000 -19.859047 -98.008256
vn -0.000000 -19.509032 -98.078528
vn -0.000000 -99.348174 11.399141
vn -0.000000 -99.879546 4.906767
vn -0.000000 -100.000000 -0.000000
vn -0.000000 -100.000000 0.000000
vn -0.000000 -99.879546 -4.906767
vn -0.000000 -97.401192 22.649677
vn -0.000000 -98.917651 14.673047
vn -0.000000 -99.518473 9.801714
vn -0.000000 -94.184436 33.604939
vn -0.000000 -95.694034 29.028468
vn -0.000000 -97.003125 24.298018
vn -0.000000 -98.078528 19.509032
vn -0.000000 -92.387953 38.268343
vn -0.000000 -89.739843 44.122110
vn -0.000000 -88.192126 47.139674
vn -0.000000 -84.125353 54.064082
vn -0.000000 -83.146961 55.557023
vn -0.000000 -77.414161 63.301245
vn -0.000000 -77.301045 63.439328
vn 0.000000 -70.710678 70.710678
vn 0.000000 -69.693757 71.713180
vn 0.000000 -63.439328 77.301045
vn 0.000000 -61.064788 79.190225
vn 0.000000 -55.557023 83.146961
vn 0.000000 -51.639746 85.634903
vn 0.000000 -47.139674 88.192126
vn 0.000000 -41.541501 90.963200
vn 0.000000 -38.268343 92.387953
vn 0.000000 -30.901699 95.105652
vn 0.000000 -29.028468 95.694034
vn 0.000000 -19.859047 98.008256
vn 0.000000 -19.509032 98.078528
vn 0.000000 -8.557501 99.633173
vn 0.000000 -9.801714 99.518473
vn 0.000000 2.855605 99.959219
vn 0.000000 9.801714 99.518473
vn 0.000000 14.231484 98.982144
vn 0.000000 19.509032 98.078528
vn 0.000000 25.421833 96.714685
vn 0.000000 29.028468 95.694034
vn 0.000000 36.280771 93.186403
vn 0.000000 38.268343 92.387953
vn 0.000000 46.666732 88.443293
vn 0.000000 47.139674 88.192126
vn 0.000000 55.557023 83.146961
vn 0.000000 56.444322 82.547190
vn 0.000000 63.439328 77.301045
vn 0.000000 65.486073 75.574957
vn 0.000000 70.710678 70.710678
vn 0.000000 73.674114 67.617490
vn 0.000000 77.301045 63.439328
vn 0.000000 80.901699 58.778525
vn 0.000000 83.146961 55.557023
vn 0.000000 87.074608 49.173292
vn 0.000000 88.192126 47.139674
vn 0.000000 92.112365 38.927011
vn 0.000000 92.387953 38.268343
vn 0.000000 95.694034 29.028468
vn 0.000000 95.949297 28.173256
vn 0.000000 97.003125 24.298018
vn 0.000000 98.535384 17.052219
vn 0.000000 98.078528 19.509032
vn 0.000000 98.917651 14.673047
vn 0.000000 99.518473 9.801714
vn 0.000000 99.836910 5.708881
vn 0.000000 99.879546 4.906767
vn 0.000000 100.000000 -0.000000
vn 0.000000 99.836910 -5.708881
vn 0.000000 99.879546 -4.906767
vn 0.000000 99.518473 -9.801714
vn 0.000000 98.535384 -17.052219
vn 0.000000 98.917651 -14.673047
vn 0.000000 98.078528 -19.509032
vn 0.000000 97.003125 -24.298018
vn 0.000000 95.949297 -28.173256
vn 0.000000 95.694034 -29.028468
vn 0.000000 92.112365 -38.927011
vn 0.000000 92.387953 -38.268343
vn 0.000000 88.192126 -47.139674
vn 0.000000 87.074608 -49.173292
vn 0.000000 83.146961 -55.557023
vn 0.000000 80.901699 -58.778525
vn 0.000000 77.301045 -63.439328
vn 0.000000 73.674114 -67.617490
vn -0.000000 70.710678 -70.710678
vn -0.000000 65.486073 -75.574957
vn -0.000000 63.439328 -77.301045
vn -0.000000 56.444322 -82.547190
vn -0.000000 55.557023 -83.146961
vn -0.000000 46.666732 -88.443293
vn -0.000000 47.139674 -88.192126
vn -0.000000 38.268343 -92.387953
vn -0.000000 36.280771 -93.186403
vn -0.000000 29.028468 -95.694034
vn -0.000000 25.421833 -96.714685
vn -0.000000 19.509032 -98.078528
vn -0.000000 14.231484 -98.982144
vn -0.000000 9.801714 -99.518473
vn -0.000000 2.855605 -99.959219
vn -0.000000 -8.557501 -99.633173
vn -0.000000 -9.801714 -99.518473
vn -0.000000 -19.859047 -98.008256
vn -0.000000 -19.509032 -98.078528
vn -0.000000 -29.028468 -95.694034
vn -0.000000 -30.901699 -95.105652
vn -0.000000 -38.268343 -92.387953
vn -0.000000 -41.541501 -90.963200
vn -0.000000 -47.139674 -88.192126
vn -0.000000 -51.639746 -85.634903
vn -0.000000 -55.557023 -83.146961
vn -0.000000 -61.064788 -79.190225
vn -0.000000 -63.439328 -77.301045
vn -0.000000 -69.693757 -71.713180
vn -0.000000 -70.710678 -70.710678
vn -0.000000 -77.414161 -63.301245
vn -0.000000 -77.301045 -63.439328
vn -0.000000 -83.146961 -55.557023
vn -0.000000 -84.125353 -54.064082
vn -0.000000 -88.192126 -47.139674
vn -0.000000 -89.739843 -44.122110
vn -0.000000 -92.387953 -38.268343
vn -0.000000 -94.184436 -33.604939
vn -0.000000 -95.694034 -29.028468
vn -0.000000 -97.401192 -22.649677
vn -0.000000 -97.003125 -24.298018
vn -0.000000 -98.078528 -19.509032
vn -0.000000 -98.917651 -14.673047
vn -0.000000 -99.348174 -11.399141
vn -0.000000 -99.518473 -9.801714
vn -100.000000 0.000000 0.000000
vn -100.000000 0.000000 0.000000
vn -100.000000 0.000000 0.000000
vn -100.000000 0.000000 0.000000
vn -100.000000 0.000000 0.000000
vn -100.000000 0.000000 0.000000
vn -100.000000 0.000000 0.000000
vn -100.000000 0.000000 0.000000
vn -100.000000 0.000000 0.000000
vn -100.000000 0.000000 0.000000
vn -100.000000 0.000000 0.000000
vn -100.000000 0.000000 0.000000
vn -100.000000 0.000000 0.000000
vn -100.000000 0.000000 0.000000
vn -100.000000 0.000000 0.000000
vn -100.000000 0.000000 0.000000
vn -100.000000 0.000000 0.000000
vn -100.000000 0.000000 0.000000
vn -100.000000 0.000000 0.000000
vn -100.000000 0.000000 0.000000
vn -100.000000 0.000000 0.000000
vn -100.000000 0.000000 0.000000
vn -100.000000 0.000000 0.000000
vn -100.000000 0.000000 0.000000
vn -100.000000 0.000000 0.000000
vn -100.000000 0.000000 0.000000
vn -100.000000 0.000000 0.000000
vn -100.000000 0.000000 0.000000
vn -100.000000 0.000000 0.000000
vn -100.000000 0.000000 0.000000
vn -100.000000 0.000000 0.000000
vn -100.000000 0.000000 0.000000
vn -100.000000 0.000000 0.000000
vn -100.000000 0.000000 0.000000
vn -100.000000 0.000000 0.000000
vn -100.000000 0.000000 0.000000
vn -100.000000 0.000000 0.000000
vn -100.000000 0.000000 0.000000
vn -100.000000 0.000000 0.000000
vn -100.000000 0.000000 0.000000
vn -100.000000 0.000000 0.000000
vn -100.000000 0.000000 0.000000
vn -100.000000 0.000000 0.000000
vn -100.000000 0.000000 0.000000
vn -100.000000 0.000000 0.000000
vn -100.000000 0.000000 0.000000
vn -100.000000 0.000000 0.000000
vn -100.000000 0.000000 0.000000
vn -100.000000 0.000000 0.000000
vn -100.000000 0.000000 0.000000
vn -100.000000 0.000000 0.000000
vn -100.000000 0.000000 0.000000
vn -100.000000 0.000000 0.000000
vn -100.000000 0.000000 0.000000
vn -100.000000 0.000000 0.000000
vn 100.000000 -0.000000 -0.000000
vn 100.000000 -0.000000 -0.000000
vn 100.000000 -0.000000 -0.000000
vn 100.000000 -0.000000 -0.000000
vn 100.000000 -0.000000 -0.000000
vn 100.000000 -0.000000 -0.000000
vn 100.000000 -0.000000 -0.000000
vn 100.000000 -0.000000 -0.000000
vn 100.000000 -0.000000 -0.000000
vn 100.000000 -0.000000 -0.000000
vn 100.000000 -0.000000 -0.000000
vn 100.000000 -0.000000 -0.000000
vn 100.000000 -0.000000 -0.000000
vn 100.000000 -0.000000 -0.000000
vn 100.000000 -0.000000 -0.000000
vn 100.000000 -0.000000 -0.000000
vn 100.000000 -0.000000 -0.000000
vn 100.000000 -0.000000 -0.000000
vn 100.000000 -0.000000 -0.000000
vn 100.000000 -0.000000 -0.000000
vn 100.000000 -0.000000 -0.000000
vn 100.000000 -0.000000 -0.000000
vn 100.000000 -0.000000 -0.000000
vn 100.000000 -0.000000 -0.000000
vn 100.000000 -0.000000 -0.000000
vn 100.000000 -0.000000 -0.000000
vn 100.000000 -0.000000 -0.000000
vn 100.000000 -0.000000 -0.000000
vn 100.000000 -0.000000 -0.000000
vn 100.000000 -0.000000 -0.000000
vn 100.000000 -0.000000 -0.000000
vn 100.000000 -0.000000 -0.000000
vn 100.000000 -0.000000 -0.000000
vn 100.000000 -0.000000 -0.000000
vn 100.000000 -0.000000 -0.000000
vn 100.000000 -0.000000 -0.000000
vn 100.000000 -0.000000 -0.000000
vn 100.000000 -0.000000 -0.000000
vn 100.000000 -0.000000 -0.000000
vn 100.000000 -0.000000 -0.000000
vn 100.000000 -0.000000 -0.000000
vn 100.000000 -0.000000 -0.000000
vn 100.000000 -0.000000 -0.000000
vn 100.000000 -0.000000 -0.000000
vn 100.000000 -0.000000 -0.000000
vn 100.000000 -0.000000 -0.000000
vn 100.000000 -0.000000 -0.000000
vn 100.000000 -0.000000 -0.000000
vn 100.000000 -0.000000 -0.000000
vn 100.000000 -0.000000 -0.000000
vn 100.000000 -0.000000 -0.000000
vn 100.000000 -0.000000 -0.000000
vn 100.000000 -0.000000 -0.000000
vn 100.000000 -0.000000 -0.000000
vn 100.000000 -0.000000 -0.000000
vn 99.348174 -0.000000 -11.399141
vn 99.879546 -0.000000 -4.906767
vn 100.000000 -0.000000 -0.000000
vn 100.000000 -0.000000 -0.000000
vn 99.879546 0.000000 4.906767
vn 97.401192 -0.000000 -22.649677
vn 98.917651 -0.000000 -14.673047
vn 99.518473 -0.000000 -9.801714
vn 94.184436 -0.000000 -33.604939
vn 95.694034 -0.000000 -29.028468
vn 97.003125 -0.000000 -24.298018
vn 98.078528 -0.000000 -19.509032
vn 92.387953 -0.000000 -38.268343
vn 89.739843 -0.000000 -44.122110
vn 88.192126 -0.000000 -47.139674
vn 84.125353 -0.000000 -54.064082
vn 83.146961 -0.000000 -55.557023
vn 77.414161 -0.000000 -63.301245
vn 77.301045 -0.000000 -63.439328
vn 70.710678 -0.000000 -70.710678
vn 69.693757 -0.000000 -71.713180
vn 63.439328 -0.000000 -77.301045
vn 61.064788 -0.000000 -79.190225
vn 55.557023 -0.000000 -83.146961
vn 51.639746 -0.000000 -85.634903
vn 47.139674 -0.000000 -88.192126
vn 41.541501 -0.000000 -90.963200
vn 38.268343 -0.000000 -92.387953
vn 30.901699 -0.000000 -95.105652
vn 29.028468 -0.000000 -95.694034
vn 19.859047 -0.000000 -98.008256
vn 19.509032 -0.000000 -98.078528
vn 8.557501 -0.000000 -99.633173
vn 9.801714 -0.000000 -99.518473
vn -2.855605 -0.000000 -99.959219
vn -9.801714 -0.000000 -99.518473
vn -14.231484 -0.000000 -98.982144
vn -19.509032 -0.000000 -98.078528
vn -25.421833 -0.000000 -96.714685
vn -29.028468 -0.000000 -95.694034
vn -36.280771 -0.000000 -93.186403
vn -38.268343 -0.000000 -92.387953
vn -46.666732 -0.000000 -88.443293
vn -47.139674 -0.000000 -88.192126
vn -55.557023 -0.000000 -83.146961
vn -56.444322 -0.000000 -82.547190
vn -63.439328 -0.000000 -77.301045
vn -65.486073 -0.000000 -75.574957
vn -70.710678 -0.000000 -70.710678
vn -73.674114 -0.000000 -67.617490
vn -77.301045 -0.000000 -63.439328
vn -80.901699 -0.000000 -58.778525
vn -83.146961 -0.000000 -55.557023
vn -87.074608 -0.000000 -49.173292
vn -88.192126 -0.000000 -47.139674
vn -92.112365 -0.000000 -38.927011
vn -92.387953 -0.000000 -38.268343
vn -95.694034 -0.000000 -29.028468
vn -95.949297 -0.000000 -28.173256
vn -97.003125 -0.000000 -24.298018
vn -98.535384 -0.000000 -17.052219
vn -98.078528 -0.000000 -19.509032
vn -98.917651 -0.000000 -14.673047
vn -99.518473 -0.000000 -9.801714
vn -99.836910 -0.000000 -5.708881
vn -99.879546 -0.000000 -4.906767
vn -100.000000 -0.000000 -0.000000
vn -99.836910 0.000000 5.708881
vn -99.879546 0.000000 4.906767
vn -99.518473 0.000000 9.801714
vn -98.535384 0.000000 17.052219
vn -98.917651 0.000000 14.673047
vn -98.078528 0.000000 19.509032
vn -97.003125 0.000000 24.298018
vn -95.949297 0.000000 28.173256
vn -95.694034 0.000000 29.028468
vn -92.112365 0.000000 38.927011
vn -92.387953 0.000000 38.268343
vn -88.192126 0.000000 47.139674
vn -87.074608 0.000000 49.173292
vn -83.146961 0.000000 55.557023
vn -80.901699 0.000000 58.778525
vn -77.301045 0.000000 63.439328
vn -73.674114 0.000000 67.617490
vn -70.710678 0.000000 70.710678
vn -65.486073 0.000000 75.574957
vn -63.439328 0.000000 77.301045
vn -56.444322 0.000000 82.547190
vn -55.557023 0.000000 83.146961
vn -46.666732 0.000000 88.443293
vn -47.139674 0.000000 88.192126
vn -38.268343 0.000000 92.387953
vn -36.280771 0.000000 93.186403
vn -29.028468 0.000000 95.694034
vn -25.421833 0.000000 96.714685
vn -19.509032 0.000000 98.078528
vn -14.231484 0.000000 98.982144
vn -9.801714 0.000000 99.518473
vn -2.855605 0.000000 99.959219
vn 8.557501 0.000000 99.633173
vn 9.801714 0.000000 99.518473
vn 19.859047 0.000000 98.008256
vn 19.509032 0.000000 98.078528
vn 29.028468 0.000000 95.694034
vn 30.901699 0.000000 95.105652
vn 38.268343 0.000000 92.387953
vn 41.541501 0.000000 90.963200
vn 47.139674 0.000000 88.192126
vn 51.639746 0.000000 85.634903
vn 55.557023 0.000000 83.146961
vn 61.064788 0.000000 79.190225
vn 63.439328 0.000000 77.301045
vn 69.693757 0.000000 71.713180
vn 70.710678 0.000000 70.710678
vn 77.414161 0.000000 63.301245
vn 77.301045 0.000000 63.439328
vn 83.146961 0.000000 55.557023
vn 84.125353 0.000000 54.064082
vn 88.192126 0.000000 47.139674
vn 89.739843 0.000000 44.122110
vn 92.387953 0.000000 38.268343
vn 94.184436 0.000000 33.604939
vn 95.694034 0.000000 29.028468
vn 97.401192 0.000000 22.649677
vn 97.003125 0.000000 24.298018
vn 98.078528 0.000000 19.509032
vn 98.917651 0.000000 14.673047
vn 99.348174 0.000000 11.399141
vn 99.518473 0.000000 9.801714
vn 9.801714 0.000000 99.518473
vn 8.557501 0.000000 99.633173
vn -2.855605 0.000000 99.959219
vn -9.801714 0.000000 99.518473
vn -14.231484 0.000000 98.982144
vn -19.509032 0.000000 98.078528
vn -25.421833 0.000000 96.714685
vn -29.028468 0.000000 95.694034
vn -36.280771 0.000000 93.186403
vn -38.268343 0.000000 92.387953
vn -46.666732 0.000000 88.443293
vn -47.139674 0.000000 88.192126
vn -55.557023 0.000000 83.146961
vn -56.444322 0.000000 82.547190
vn -63.439328 0.000000 77.301045
vn -65.486073 0.000000 75.574957
vn -70.710678 0.000000 70.710678
vn -73.674114 0.000000 67.617490
vn -77.301045 0.000000 63.439328
vn -80.901699 0.000000 58.778525
vn -83.146961 0.000000 55.557023
vn -87.074608 0.000000 49.173292
vn -88.192126 0.000000 47.139674
vn -92.112365 0.000000 38.927011
vn -92.387953 0.000000 38.268343
vn -95.694034 0.000000 29.028468
vn -95.949297 0.000000 28.173256
vn -97.003125 0.000000 24.298018
vn -98.535384 0.000000 17.052219
vn -98.078528 0.000000 19.509032
vn -98.917651 0.000000 14.673047
vn -99.518473 0.000000 9.801714
vn -99.836910 0.000000 5.708881
vn -99.879546 0.000000 4.906767
vn -100.000000 -0.000000 -0.000000
vn -99.836910 -0.000000 -5.708881
vn -99.879546 -0.000000 -4.906767
vn -99.518473 -0.000000 -9.801714
vn -98.535384 -0.000000 -17.052219
vn -98.917651 -0.000000 -14.673047
vn -98.078528 -0.000000 -19.509032
vn -97.003125 -0.000000 -24.298018
vn -95.949297 -0.000000 -28.173256
vn -95.694034 -0.000000 -29.028468
vn -92.112365 -0.000000 -38.927011
vn -92.387953 -0.000000 -38.268343
vn -88.192126 -0.000000 -47.139674
vn -87.074608 -0.000000 -49.173292
vn -83.146961 -0.000000 -55.557023
vn -80.901699 -0.000000 -58.778525
vn -77.301045 -0.000000 -63.439328
vn -73.674114 -0.000000 -67.617490
vn -70.710678 -0.000000 -70.710678
vn -65.486073 -0.000000 -75.574957
vn -63.439328 -0.000000 -77.301045
vn -56.444322 -0.000000 -82.547190
vn -55.557023 -0.000000 -83.146961
vn -46.666732 -0.000000 -88.443293
vn -47.139674 -0.000000 -88.192126
vn -38.268343 -0.000000 -92.387953
vn -36.280771 -0.000000 -93.186403
vn -29.028468 -0.000000 -95.694034
vn -25.421833 -0.000000 -96.714685
vn -19.509032 -0.000000 -98.078528
vn -14.231484 -0.000000 -98.982144
vn -9.801714 -0.000000 -99.518473
vn -2.855605 -0.000000 -99.959219
vn 8.557501 -0.000000 -99.633173
vn 9.801714 -0.000000 -99.518473
vn 19.859047 -0.000000 -98.008256
vn 19.509032 -0.000000 -98.078528
vn 29.028468 -0.000000 -95.694034
vn 30.901699 -0.000000 -95.105652
vn 38.268343 -0.000000 -92.387953
vn 41.541501 -0.000000 -90.963200
vn 47.139674 -0.000000 -88.192126
vn 51.639746 -0.000000 -85.634903
vn 55.557023 -0.000000 -83.146961
vn 61.064788 -0.000000 -79.190225
vn 63.439328 -0.000000 -77.301045
vn 69.693757 -0.000000 -71.713180
vn 70.710678 -0.000000 -70.710678
vn 77.414161 -0.000000 -63.301245
vn 77.301045 -0.000000 -63.439328
vn 83.146961 -0.000000 -55.557023
vn 84.125353 -0.000000 -54.064082
vn 88.192126 -0.000000 -47.139674
vn 89.739843 -0.000000 -44.122110
vn 92.387953 -0.000000 -38.268343
vn 94.184436 -0.000000 -33.604939
vn 95.694034 -0.000000 -29.028468
vn 97.401192 -0.000000 -22.649677
vn 97.003125 -0.000000 -24.298018
vn 98.078528 -0.000000 -19.509032
vn 98.917651 -0.000000 -14.673047
vn 99.348174 -0.000000 -11.399141
vn 99.518473 -0.000000 -9.801714
vn 99.879546 -0.000000 -4.906767
vn 100.000000 0.000000 0.000000
vn 100.000000 0.000000 0.000000
vn 99.879546 0.000000 4.906767
vn 99.348174 0.000000 11.399141
vn 99.518473 0.000000 9.801714
vn 98.917651 0.000000 14.673047
vn 97.401192 0.000000 22.649677
vn 98.078528 0.000000 19.509032
vn 97.003125 0.000000 24.298018
vn 95.694034 0.000000 29.028468
vn 94.184436 0.000000 33.604939
vn 92.387953 0.000000 38.268343
vn 89.739843 0.000000 44.122110
vn 88.192126 0.000000 47.139674
vn 84.125353 0.000000 54.064082
vn 83.146961 0.000000 55.557023
vn 77.414161 0.000000 63.301245
vn 77.301045 0.000000 63.439328
vn 70.710678 0.000000 70.710678
vn 69.693757 0.000000 71.713180
vn 63.439328 0.000000 77.301045
vn 61.064788 0.000000 79.190225
vn 55.557023 0.000000 83.146961
vn 51.639746 0.000000 85.634903
vn 47.139674 0.000000 88.192126
vn 41.541501 0.000000 90.963200
vn 38.268343 0.000000 92.387953
vn 30.901699 0.000000 95.105652
vn 29.028468 0.000000 95.694034
vn 19.859047 0.000000 98.008256
vn 19.509032 0.000000 98.078528
vn 0.000000 -100.000000 0.000000
vn 0.000000 -100.000000 0.000000
vn 0.000000 -100.000000 0.000000
vn 0.000000 -100.000000 0.000000
vn 0.000000 -100.000000 0.000000
vn 0.000000 -100.000000 0.000000
vn 0.000000 -100.000000 0.000000
vn 0.000000 -100.000000 0.000000
vn 0.000000 -100.000000 0.000000
vn 0.000000 -100.000000 0.000000
vn 0.000000 -100.000000 0.000000
vn 0.000000 -100.000000 0.000000
vn 0.000000 -100.000000 0.000000
vn 0.000000 -100.000000 0.000000
vn 0.000000 -100.000000 0.000000
vn 0.000000 -100.000000 0.000000
vn 0.000000 -100.000000 0.000000
vn 0.000000 -100.000000 0.000000
vn 0.000000 -100.000000 0.000000
vn 0.000000 -100.000000 0.000000
vn 0.000000 -100.000000 0.000000
vn 0.000000 -100.000000 0.000000
vn 0.000000 -100.000000 0.000000
vn 0.000000 -100.000000 0.000000
vn 0.000000 -100.000000 0.000000
vn 0.000000 -100.000000 0.000000
vn 0.000000 -100.000000 0.000000
vn 0.000000 -100.000000 0.000000
vn 0.000000 -100.000000 0.000000
vn 0.000000 -100.000000 0.000000
vn 0.000000 -100.000000 0.000000
vn 0.000000 -100.000000 0.000000
vn 0.000000 -100.000000 0.000000
vn 0.000000 -100.000000 0.000000
vn 0.000000 -100.000000 0.000000
vn 0.000000 -100.000000 0.000000
vn 0.000000 -100.000000 0.000000
vn 0.000000 -100.000000 0.000000
vn 0.000000 -100.000000 0.000000
vn 0.000000 -100.000000 0.000000
vn 0.000000 -100.000000 0.000000
vn 0.000000 -100.000000 0.000000
vn 0.000000 -100.000000 0.000000
vn 0.000000 -100.000000 0.000000
vn 0.000000 -100.000000 0.000000
vn 0.000000 -100.000000 0.000000
vn 0.000000 -100.000000 0.000000
vn 0.000000 -100.000000 0.000000
vn 0.000000 -100.000000 0.000000
vn 0.000000 -100.000000 0.000000
vn 0.000000 -100.000000 0.000000
vn 0.000000 -100.000000 0.000000
vn 0.000000 -100.000000 0.000000
vn 0.000000 -100.000000 0.000000
vn 0.000000 -100.000000 0.000000
vn 0.000000 100.000000 -0.000000
vn 0.000000 100.000000 -0.000000
vn 0.000000 100.000000 -0.000000
vn 0.000000 100.000000 -0.000000
vn 0.000000 100.000000 -0.000000
vn 0.000000 100.000000 -0.000000
vn 0.000000 100.000000 -0.000000
vn 0.000000 100.000000 -0.000000
vn 0.000000 100.000000 -0.000000
vn 0.000000 100.000000 -0.000000
vn 0.000000 100.000000 -0.000000
vn 0.000000 100.000000 -0.000000
vn 0.000000 100.000000 -0.000000
vn 0.000000 100.000000 -0.000000
vn 0.000000 100.000000 -0.000000
vn 0.000000 100.000000 -0.000000
vn 0.000000 100.000000 -0.000000
vn 0.000000 100.000000 -0.000000
vn 0.000000 100.000000 -0.000000
vn 0.000000 100.000000 -0.000000
vn 0.000000 100.000000 -0.000000
vn 0.000000 100.000000 -0.000000
vn 0.000000 100.000000 -0.000000
vn 0.000000 100.000000 -0.000000
vn 0.000000 100.000000 -0.000000
vn 0.000000 100.000000 -0.000000
vn 0.000000 100.000000 -0.000000
vn 0.000000 100.000000 -0.000000
vn 0.000000 100.000000 -0.000000
vn 0.000000 100.000000 -0.000000
vn 0.000000 100.000000 -0.000000
vn 0.000000 100.000000 -0.000000
vn 0.000000 100.000000 -0.000000
vn 0.000000 100.000000 -0.000000
vn 0.000000 100.000000 -0.000000
vn 0.000000 100.000000 -0.000000
vn 0.000000 100.000000 -0.000000
vn 0.000000 100.000000 -0.000000
vn 0.000000 100.000000 -0.000000
vn 0.000000 100.000000 -0.000000
vn 0.000000 100.000000 -0.000000
vn 0.000000 100.000000 -0.000000
vn 0.000000 100.000000 -0.000000
vn 0.000000 100.000000 -0.000000
vn 0.000000 100.000000 -0.000000
vn 0.000000 100.000000 -0.000000
vn 0.000000 100.000000 -0.000000
vn 0.000000 100.000000 -0.000000
vn 0.000000 100.000000 -0.000000
vn 0.000000 100.000000 -0.000000
vn 0.000000 100.000000 -0.000000
vn 0.000000 100.000000 -0.000000
vn 0.000000 100.000000 -0.000000
vn 0.000000 100.000000 -0.000000
vn 0.000000 100.000000 -0.000000
usemtl Paint_-_Metal_Flake_(Aqua)
f 2/1/1 90/2/2 1/3/3
f 1/3/3 90/2/2 91/4/4
f 1/3/3 91/4/4 76/5/5
f 76/5/5 91/4/4 92/6/6
f 76/5/5 92/6/6 75/7/7
f 75/7/7 92/6/6 93/8/8
f 75/7/7 93/8/8 74/9/9
f 74/9/9 93/8/8 94/10/10
f 74/9/9 94/10/10 73/11/11
f 73/11/11 94/10/10 95/12/12
f 73/11/11 95/12/12 72/13/13
f 72/13/13 95/12/12 71/14/14
f 71/14/14 95/12/12 96/15/15
f 71/14/14 96/15/15 70/16/16
f 70/16/16 96/15/15 97/17/17
f 70/16/16 97/17/17 69/18/18
f 69/18/18 97/17/17 98/19/19
f 69/18/18 98/19/19 68/20/20
f 68/20/20 98/19/19 99/21/21
f 68/20/20 99/21/21 67/22/22
f 67/22/22 99/21/21 100/23/23
f 67/22/22 100/23/23 66/24/24
f 66/24/24 100/23/23 101/25/25
f 66/24/24 101/25/25 65/26/26
f 65/26/26 101/25/25 64/27/27
f 64/27/27 101/25/25 102/28/28
f 64/27/27 102/28/28 63/29/29
f 63/29/29 102/28/28 103/30/30
f 63/29/29 103/30/30 62/31/31
f 62/31/31 103/30/30 61/32/32
f 61/32/32 103/30/30 60/33/33
f 60/33/33 103/30/30 104/34/34
f 60/33/33 104/34/34 59/35/35
f 59/35/35 104/34/34 58/36/36
f 58/37/36 104/38/34 105/39/37
f 58/37/36 105/39/37 57/40/38
f 57/40/38 105/39/37 56/41/39
f 56/41/39 105/39/37 106/42/40
f 56/41/39 106/42/40 55/43/41
f 55/43/41 106/42/40 54/44/42
f 54/44/42 106/42/40 53/45/43
f 53/45/43 106/42/40 107/46/44
f 53/45/43 107/46/44 52/47/45
f 52/47/45 107/46/44 108/48/46
f 52/47/45 108/48/46 51/49/47
f 51/49/47 108/48/46 50/50/48
f 50/50/48 108/48/46 109/51/49
f 50/50/48 109/51/49 49/52/50
f 49/52/50 109/51/49 110/53/51
f 49/52/50 110/53/51 48/54/52
f 48/54/52 110/53/51 111/55/53
f 48/54/52 111/55/53 47/56/54
f 47/56/54 111/55/53 112/57/55
f 47/56/54 112/57/55 46/58/56
f 46/58/56 112/57/55 113/59/57
f 46/58/56 113/59/57 45/60/58
f 45/60/58 113/59/57 114/61/59
f 45/60/58 114/61/59 44/62/60
f 44/62/60 114/61/59 43/63/61
f 43/63/61 114/61/59 115/64/62
f 43/63/61 115/64/62 42/65/63
f 42/65/63 115/64/62 116/66/64
f 42/65/63 116/66/64 41/67/65
f 41/67/65 116/66/64 117/68/66
f 41/67/65 117/68/66 40/69/67
f 40/69/67 117/68/66 118/70/68
f 40/69/67 118/70/68 39/71/69
f 39/71/69 118/70/68 119/72/70
f 39/71/69 119/72/70 38/73/71
f 38/73/71 119/72/70 120/74/72
f 38/73/71 120/74/72 37/75/73
f 37/75/73 120/74/72 36/76/74
f 36/76/74 120/74/72 121/77/75
f 36/76/74 121/77/75 35/78/76
f 35/78/76 121/77/75 122/79/77
f 35/78/76 122/79/77 34/80/78
f 34/80/78 122/79/77 123/81/79
f 34/80/78 123/81/79 33/82/80
f 33/82/80 123/81/79 124/83/81
f 33/82/80 124/83/81 32/84/82
f 32/84/82 124/83/81 125/85/83
f 32/84/82 125/85/83 31/86/84
f 31/86/84 125/85/83 126/87/85
f 31/86/84 126/87/85 30/88/86
f 30/88/86 126/87/85 29/89/87
f 29/89/87 126/87/85 127/90/88
f 29/89/87 127/90/88 28/91/89
f 28/91/89 127/90/88 128/92/90
f 28/91/89 128/92/90 27/93/91
f 27/93/91 128/92/90 129/94/92
f 27/93/91 129/94/92 26/95/93
f 26/95/93 129/94/92 130/96/94
f 26/95/93 130/96/94 25/97/95
f 25/97/95 130/96/94 24/98/96
f 24/98/96 130/96/94 23/99/97
f 23/99/97 130/96/94 131/100/98
f 23/99/97 131/100/98 22/101/99
f 22/101/99 131/100/98 21/102/100
f 21/102/100 131/100/98 77/103/101
f 21/102/100 77/103/101 20/104/102
f 20/104/102 77/103/101 19/105/103
f 19/105/103 77/103/101 78/106/104
f 19/105/103 78/106/104 18/107/105
f 18/107/105 78/106/104 17/108/106
f 17/108/106 78/106/104 79/109/107
f 17/108/106 79/109/107 16/110/108
f 16/110/108 79/109/107 15/111/109
f 15/111/109 79/109/107 14/112/110
f 14/112/110 79/109/107 80/113/111
f 14/112/110 80/113/111 13/114/112
f 13/114/112 80/113/111 81/115/113
f 13/114/112 81/115/113 12/116/114
f 12/116/114 81/115/113 82/117/115
f 12/116/114 82/117/115 11/118/116
f 11/118/116 82/117/115 83/119/117
f 11/118/116 83/119/117 10/120/118
f 10/120/118 83/119/117 9/121/119
f 9/121/119 83/119/117 84/122/120
f 9/121/119 84/122/120 8/123/121
f 8/123/121 84/122/120 85/124/122
f 8/123/121 85/124/122 7/125/123
f 7/125/123 85/124/122 86/126/124
f 7/125/123 86/126/124 6/127/125
f 6/127/125 86/126/124 87/128/126
f 6/127/125 87/128/126 5/129/127
f 5/129/127 87/128/126 88/130/128
f 5/129/127 88/130/128 4/131/129
f 4/131/129 88/130/128 89/132/130
f 4/131/129 89/132/130 3/133/131
f 3/133/131 89/132/130 90/2/2
f 3/133/131 90/2/2 2/1/1
f 133/134/132 241/135/133 132/136/134
f 132/136/134 241/135/133 242/137/135
f 132/136/134 242/137/135 243/138/136
f 134/139/137 239/140/138 133/134/132
f 133/134/132 239/140/138 240/141/139
f 133/134/132 240/141/139 241/135/133
f 135/142/140 236/143/141 134/139/137
f 134/139/137 236/143/141 237/144/142
f 134/139/137 237/144/142 238/145/143
f 236/143/141 135/142/140 235/146/144
f 235/146/144 135/142/140 136/147/145
f 235/146/144 136/147/145 234/148/146
f 234/148/146 136/147/145 137/149/147
f 234/148/146 137/149/147 233/150/148
f 233/150/148 137/149/147 138/151/149
f 233/150/148 138/151/149 232/152/150
f 232/152/150 138/151/149 231/153/151
f 231/153/151 138/151/149 139/154/152
f 231/153/151 139/154/152 230/155/153
f 230/155/153 139/154/152 140/156/154
f 230/155/153 140/156/154 229/157/155
f 229/157/155 140/156/154 141/158/156
f 229/157/155 141/158/156 228/159/157
f 228/159/157 141/158/156 142/160/158
f 228/159/157 142/160/158 227/161/159
f 227/161/159 142/160/158 143/162/160
f 227/161/159 143/162/160 226/163/161
f 226/163/161 143/162/160 144/164/162
f 226/163/161 144/164/162 225/165/163
f 225/165/163 144/164/162 145/166/164
f 225/165/163 145/166/164 224/167/165
f 224/167/165 145/166/164 39/168/69
f 39/168/69 145/166/164 146/169/166
f 39/168/69 146/169/166 223/170/167
f 223/170/167 146/169/166 147/171/168
f 223/170/167 147/171/168 222/172/169
f 222/172/169 147/171/168 148/173/170
f 222/172/169 148/173/170 221/174/171
f 221/174/171 148/173/170 149/175/172
f 221/174/171 149/175/172 220/176/173
f 220/176/173 149/175/172 150/177/174
f 220/176/173 150/177/174 219/178/175
f 219/178/175 150/177/174 218/179/176
f 218/179/176 150/177/174 151/180/177
f 218/179/176 151/180/177 217/181/178
f 217/181/178 151/180/177 152/182/179
f 217/181/178 152/182/179 216/183/180
f 216/183/180 152/182/179 153/184/181
f 216/183/180 153/184/181 215/185/182
f 215/185/182 153/184/181 154/186/183
f 215/185/182 154/186/183 214/187/184
f 214/187/184 154/186/183 155/188/185
f 214/187/184 155/188/185 213/189/186
f 213/189/186 155/188/185 156/190/187
f 213/189/186 156/190/187 212/191/188
f 212/191/188 156/190/187 211/192/189
f 211/192/189 156/190/187 157/193/190
f 211/192/189 157/193/190 210/194/191
f 210/194/191 157/193/190 158/195/192
f 210/194/191 158/195/192 209/196/193
f 209/196/193 158/195/192 208/197/194
f 208/197/194 158/195/192 207/198/195
f 207/198/195 158/195/192 159/199/196
f 207/198/195 159/199/196 206/200/197
f 206/201/197 159/202/196 205/203/198
f 205/203/198 159/202/196 160/204/199
f 205/203/198 160/204/199 204/205/200
f 204/205/200 160/204/199 203/206/201
f 203/206/201 160/204/199 161/207/202
f 203/206/201 161/207/202 202/208/203
f 202/208/203 161/207/202 201/209/204
f 201/209/204 161/207/202 200/210/205
f 200/210/205 161/207/202 162/211/206
f 200/210/205 162/211/206 199/212/207
f 199/212/207 162/211/206 163/213/208
f 199/212/207 163/213/208 198/214/209
f 198/214/209 163/213/208 197/215/210
f 197/215/210 163/213/208 164/216/211
f 197/215/210 164/216/211 196/217/212
f 196/217/212 164/216/211 165/218/213
f 196/217/212 165/218/213 195/219/214
f 195/219/214 165/218/213 166/220/215
f 195/219/214 166/220/215 194/221/216
f 194/221/216 166/220/215 167/222/217
f 194/221/216 167/222/217 193/223/218
f 193/223/218 167/222/217 168/224/219
f 193/223/218 168/224/219 192/225/220
f 192/225/220 168/224/219 169/226/221
f 192/225/220 169/226/221 191/227/222
f 191/227/222 169/226/221 190/228/223
f 190/228/223 169/226/221 170/229/224
f 190/228/223 170/229/224 189/230/225
f 189/230/225 170/229/224 171/231/226
f 189/230/225 171/231/226 188/232/227
f 188/232/227 171/231/226 172/233/228
f 188/232/227 172/233/228 187/234/229
f 187/234/229 172/233/228 173/235/230
f 187/234/229 173/235/230 1/236/3
f 1/236/3 173/235/230 174/237/231
f 1/236/3 174/237/231 260/238/232
f 260/238/232 174/237/231 175/239/233
f 260/238/232 175/239/233 259/240/234
f 259/240/234 175/239/233 258/241/235
f 258/241/235 175/239/233 176/242/236
f 258/241/235 176/242/236 257/243/237
f 257/243/237 176/242/236 177/244/238
f 257/243/237 177/244/238 256/245/239
f 256/245/239 177/244/238 178/246/240
f 256/245/239 178/246/240 255/247/241
f 255/247/241 178/246/240 179/248/242
f 255/247/241 179/248/242 254/249/243
f 254/249/243 179/248/242 180/250/244
f 254/249/243 180/250/244 253/251/245
f 253/251/245 180/250/244 181/252/246
f 253/251/245 181/252/246 252/253/247
f 252/253/247 181/252/246 251/254/248
f 251/254/248 181/252/246 182/255/249
f 251/254/248 182/255/249 250/256/250
f 250/256/250 182/255/249 183/257/251
f 250/256/250 183/257/251 249/258/252
f 249/258/252 183/257/251 184/259/253
f 249/258/252 184/259/253 248/260/254
f 248/260/254 184/259/253 185/261/255
f 248/260/254 185/261/255 247/262/256
f 247/262/256 185/261/255 246/263/257
f 246/263/257 185/261/255 245/264/258
f 245/264/258 185/261/255 186/265/259
f 245/264/258 186/265/259 244/266/260
f 244/266/260 186/265/259 243/138/136
f 243/138/136 186/265/259 132/136/134
f 238/145/143 239/140/138 134/139/137
f 77/267/261 131/268/262 78/269/263
f 78/269/263 131/268/262 79/270/264
f 79/270/264 131/268/262 80/271/265
f 80/271/265 131/268/262 81/272/266
f 81/272/266 131/268/262 82/273/267
f 82/273/267 131/268/262 83/274/268
f 83/274/268 131/268/262 84/275/269
f 84/275/269 131/268/262 85/276/270
f 85/276/270 131/268/262 86/277/271
f 86/277/271 131/268/262 87/278/272
f 87/278/272 131/268/262 88/279/273
f 88/279/273 131/268/262 89/280/274
f 89/280/274 131/268/262 90/281/275
f 90/281/275 131/268/262 91/282/276
f 91/282/276 131/268/262 92/283/277
f 92/283/277 131/268/262 93/284/278
f 93/284/278 131/268/262 94/285/279
f 94/285/279 131/268/262 130/286/280
f 94/285/279 130/286/280 95/287/281
f 95/287/281 130/286/280 96/288/282
f 96/288/282 130/286/280 97/289/283
f 97/289/283 130/286/280 98/290/284
f 98/290/284 130/286/280 99/291/285
f 99/291/285 130/286/280 100/292/286
f 100/292/286 130/286/280 101/293/287
f 101/293/287 130/286/280 102/294/288
f 102/294/288 130/286/280 103/295/289
f 103/295/289 130/286/280 104/296/290
f 104/296/290 130/286/280 105/297/291
f 105/297/291 130/286/280 106/298/292
f 106/298/292 130/286/280 107/299/293
f 107/299/293 130/286/280 129/300/294
f 107/299/293 129/300/294 108/301/295
f 108/301/295 129/300/294 128/302/296
f 108/301/295 128/302/296 109/303/297
f 109/303/297 128/302/296 127/304/298
f 109/303/297 127/304/298 110/305/299
f 110/305/299 127/304/298 126/306/300
f 110/305/299 126/306/300 111/307/301
f 111/307/301 126/306/300 125/308/302
f 111/307/301 125/308/302 112/309/303
f 112/309/303 125/308/302 124/310/304
f 112/309/303 124/310/304 113/311/305
f 113/311/305 124/310/304 123/312/306
f 113/311/305 123/312/306 114/313/307
f 114/313/307 123/312/306 122/314/308
f 114/313/307 122/314/308 115/315/309
f 115/315/309 122/314/308 121/316/310
f 115/315/309 121/316/310 116/317/311
f 116/317/311 121/316/310 120/318/312
f 116/317/311 120/318/312 117/319/313
f 117/319/313 120/318/312 119/320/314
f 117/319/313 119/320/314 118/321/315
f 132/322/316 186/323/317 133/324/318
f 133/324/318 186/323/317 185/325/319
f 133/324/318 185/325/319 184/326/320
f 184/326/320 183/327/321 133/324/318
f 133/324/318 183/327/321 182/328/322
f 133/324/318 182/328/322 181/329/323
f 181/329/323 180/330/324 133/324/318
f 133/324/318 180/330/324 179/331/325
f 133/324/318 179/331/325 178/332/326
f 178/332/326 177/333/327 133/324/318
f 133/324/318 177/333/327 176/334/328
f 133/324/318 176/334/328 175/335/329
f 175/335/329 174/336/330 133/324/318
f 133/324/318 174/336/330 173/337/331
f 133/324/318 173/337/331 172/338/332
f 172/338/332 171/339/333 133/324/318
f 133/324/318 171/339/333 170/340/334
f 133/324/318 170/340/334 134/341/335
f 134/341/335 170/340/334 169/342/336
f 134/341/335 169/342/336 168/343/337
f 168/343/337 167/344/338 134/341/335
f 134/341/335 167/344/338 166/345/339
f 134/341/335 166/345/339 165/346/340
f 165/346/340 164/347/341 134/341/335
f 134/341/335 164/347/341 163/348/342
f 134/341/335 163/348/342 162/349/343
f 162/349/343 161/350/344 134/341/335
f 134/341/335 161/350/344 160/351/345
f 134/341/335 160/351/345 159/352/346
f 159/352/346 158/353/347 134/341/335
f 134/341/335 158/353/347 157/354/348
f 134/341/335 157/354/348 135/355/349
f 135/355/349 157/354/348 156/356/350
f 135/355/349 156/356/350 136/357/351
f 136/357/351 156/356/350 155/358/352
f 136/357/351 155/358/352 137/359/353
f 137/359/353 155/358/352 154/360/354
f 137/359/353 154/360/354 138/361/355
f 138/361/355 154/360/354 153/362/356
f 138/361/355 153/362/356 139/363/357
f 139/363/357 153/362/356 152/364/358
f 139/363/357 152/364/358 140/365/359
f 140/365/359 152/364/358 151/366/360
f 140/365/359 151/366/360 141/367/361
f 141/367/361 151/366/360 150/368/362
f 141/367/361 150/368/362 142/369/363
f 142/369/363 150/368/362 149/370/364
f 142/369/363 149/370/364 143/371/365
f 143/371/365 149/370/364 148/372/366
f 143/371/365 148/372/366 144/373/367
f 144/373/367 148/372/366 147/374/368
f 144/373/367 147/374/368 145/375/369
f 145/375/369 147/374/368 146/376/370
f 262/377/371 243/378/372 261/379/373
f 261/379/373 243/378/372 242/380/374
f 261/379/373 242/380/374 241/381/375
f 263/382/376 245/383/377 262/377/371
f 262/377/371 245/383/377 244/384/378
f 262/377/371 244/384/378 243/378/372
f 264/385/379 248/386/380 263/382/376
f 263/382/376 248/386/380 247/387/381
f 263/382/376 247/387/381 246/388/382
f 248/386/380 264/385/379 249/389/383
f 249/389/383 264/385/379 265/390/384
f 249/389/383 265/390/384 250/391/385
f 250/391/385 265/390/384 266/392/386
f 250/391/385 266/392/386 251/393/387
f 251/393/387 266/392/386 267/394/388
f 251/393/387 267/394/388 252/395/389
f 252/395/389 267/394/388 253/396/390
f 253/396/390 267/394/388 268/397/391
f 253/396/390 268/397/391 254/398/392
f 254/398/392 268/397/391 269/399/393
f 254/398/392 269/399/393 255/400/394
f 255/400/394 269/399/393 270/401/395
f 255/400/394 270/401/395 256/402/396
f 256/402/396 270/401/395 271/403/397
f 256/402/396 271/403/397 257/404/398
f 257/404/398 271/403/397 272/405/399
f 257/404/398 272/405/399 258/406/400
f 258/406/400 272/405/399 273/407/401
f 258/406/400 273/407/401 259/408/402
f 259/408/402 273/407/401 274/409/403
f 259/408/402 274/409/403 260/410/404
f 260/410/404 274/409/403 1/411/3
f 1/411/3 274/409/403 275/412/405
f 1/411/3 275/412/405 2/413/406
f 2/413/406 275/412/405 276/414/407
f 2/413/406 276/414/407 3/415/408
f 3/415/408 276/414/407 277/416/409
f 3/415/408 277/416/409 4/417/410
f 4/417/410 277/416/409 278/418/411
f 4/417/410 278/418/411 5/419/412
f 5/419/412 278/418/411 279/420/413
f 5/419/412 279/420/413 6/421/414
f 6/421/414 279/420/413 7/422/415
f 7/422/415 279/420/413 280/423/416
f 7/422/415 280/423/416 8/424/417
f 8/424/417 280/423/416 281/425/418
f 8/424/417 281/425/418 9/426/419
f 9/426/419 281/425/418 282/427/420
f 9/426/419 282/427/420 10/428/421
f 10/428/421 282/427/420 283/429/422
f 10/428/421 283/429/422 11/430/423
f 11/430/423 283/429/422 284/431/424
f 11/430/423 284/431/424 12/432/425
f 12/432/425 284/431/424 285/433/426
f 12/432/425 285/433/426 13/434/427
f 13/434/427 285/433/426 14/435/428
f 14/435/428 285/433/426 286/436/429
f 14/435/428 286/436/429 15/437/430
f 15/437/430 286/436/429 287/438/431
f 15/437/430 287/438/431 16/439/432
f 16/439/432 287/438/431 17/440/433
f 17/440/433 287/438/431 18/441/434
f 18/441/434 287/438/431 288/442/435
f 18/441/434 288/442/435 19/443/436
f 19/443/436 288/442/435 20/444/437
f 20/445/437 288/446/435 289/447/438
f 20/445/437 289/447/438 21/448/439
f 21/448/439 289/447/438 22/449/440
f 22/449/440 289/447/438 290/450/441
f 22/449/440 290/450/441 23/451/442
f 23/451/442 290/450/441 24/452/443
f 24/452/443 290/450/441 25/453/444
f 25/453/444 290/450/441 291/454/445
f 25/453/444 291/454/445 26/455/446
f 26/455/446 291/454/445 292/456/447
f 26/455/446 292/456/447 27/457/448
f 27/457/448 292/456/447 28/458/449
f 28/458/449 292/456/447 293/459/450
f 28/458/449 293/459/450 29/460/451
f 29/460/451 293/459/450 294/461/452
f 29/460/451 294/461/452 30/462/453
f 30/462/453 294/461/452 295/463/454
f 30/462/453 295/463/454 31/464/455
f 31/464/455 295/463/454 296/465/456
f 31/464/455 296/465/456 32/466/457
f 32/466/457 296/465/456 297/467/458
f 32/466/457 297/467/458 33/468/459
f 33/468/459 297/467/458 298/469/460
f 33/468/459 298/469/460 34/470/461
f 34/470/461 298/469/460 35/471/462
f 35/471/462 298/469/460 299/472/463
f 35/471/462 299/472/463 36/473/464
f 36/473/464 299/472/463 300/474/465
f 36/473/464 300/474/465 37/475/466
f 37/475/466 300/474/465 301/476/467
f 37/475/466 301/476/467 38/477/468
f 38/477/468 301/476/467 302/478/469
f 38/477/468 302/478/469 39/479/69
f 39/479/69 302/478/469 303/480/470
f 39/479/69 303/480/470 224/481/471
f 224/481/471 303/480/470 304/482/472
f 224/481/471 304/482/472 225/483/473
f 225/483/473 304/482/472 226/484/474
f 226/484/474 304/482/472 305/485/475
f 226/484/474 305/485/475 227/486/476
f 227/486/476 305/485/475 306/487/477
f 227/486/476 306/487/477 228/488/478
f 228/488/478 306/487/477 307/489/479
f 228/488/478 307/489/479 229/490/480
f 229/490/480 307/489/479 308/491/481
f 229/490/480 308/491/481 230/492/482
f 230/492/482 308/491/481 309/493/483
f 230/492/482 309/493/483 231/494/484
f 231/494/484 309/493/483 310/495/485
f 231/494/484 310/495/485 232/496/486
f 232/496/486 310/495/485 233/497/487
f 233/497/487 310/495/485 311/498/488
f 233/497/487 311/498/488 234/499/489
f 234/499/489 311/498/488 312/500/490
f 234/499/489 312/500/490 235/501/491
f 235/501/491 312/500/490 313/502/492
f 235/501/491 313/502/492 236/503/493
f 236/503/493 313/502/492 314/504/494
f 236/503/493 314/504/494 237/505/495
f 237/505/495 314/504/494 238/506/496
f 238/506/496 314/504/494 239/507/497
f 239/507/497 314/504/494 315/508/498
f 239/507/497 315/508/498 240/509/499
f 240/509/499 315/508/498 241/381/375
f 241/381/375 315/508/498 261/379/373
f 246/388/382 245/383/377 263/382/376
f 223/510/500 329/511/501 39/512/69
f 39/512/69 329/511/501 330/513/502
f 39/512/69 330/513/502 40/514/503
f 40/514/503 330/513/502 331/515/504
f 40/514/503 331/515/504 41/516/505
f 41/516/505 331/515/504 332/517/506
f 41/516/505 332/517/506 42/518/507
f 42/518/507 332/517/506 333/519/508
f 42/518/507 333/519/508 43/520/509
f 43/520/509 333/519/508 334/521/510
f 43/520/509 334/521/510 44/522/511
f 44/522/511 334/521/510 45/523/512
f 45/523/512 334/521/510 335/524/513
f 45/523/512 335/524/513 46/525/514
f 46/525/514 335/524/513 336/526/515
f 46/525/514 336/526/515 47/527/516
f 47/527/516 336/526/515 337/528/517
f 47/527/516 337/528/517 48/529/518
f 48/529/518 337/528/517 338/530/519
f 48/529/518 338/530/519 49/531/520
f 49/531/520 338/530/519 339/532/521
f 49/531/520 339/532/521 50/533/522
f 50/533/522 339/532/521 340/534/523
f 50/533/522 340/534/523 51/535/524
f 51/535/524 340/534/523 52/536/525
f 52/536/525 340/534/523 341/537/526
f 52/536/525 341/537/526 53/538/527
f 53/538/527 341/537/526 342/539/528
f 53/538/527 342/539/528 54/540/529
f 54/540/529 342/539/528 55/541/530
f 55/541/530 342/539/528 56/542/531
f 56/542/531 342/539/528 343/543/532
f 56/542/531 343/543/532 57/544/533
f 57/545/533 343/546/532 58/547/534
f 58/547/534 343/546/532 344/548/535
f 58/547/534 344/548/535 59/549/536
f 59/549/536 344/548/535 60/550/537
f 60/550/537 344/548/535 345/551/538
f 60/550/537 345/551/538 61/552/539
f 61/552/539 345/551/538 62/553/540
f 62/553/540 345/551/538 63/554/541
f 63/554/541 345/551/538 346/555/542
f 63/554/541 346/555/542 64/556/543
f 64/556/543 346/555/542 347/557/544
f 64/556/543 347/557/544 65/558/545
f 65/558/545 347/557/544 66/559/546
f 66/559/546 347/557/544 348/560/547
f 66/559/546 348/560/547 67/561/548
f 67/561/548 348/560/547 349/562/549
f 67/561/548 349/562/549 68/563/550
f 68/563/550 349/562/549 350/564/551
f 68/563/550 350/564/551 69/565/552
f 69/565/552 350/564/551 351/566/553
f 69/565/552 351/566/553 70/567/554
f 70/567/554 351/566/553 352/568/555
f 70/567/554 352/568/555 71/569/556
f 71/569/556 352/568/555 353/570/557
f 71/569/556 353/570/557 72/571/558
f 72/571/558 353/570/557 73/572/559
f 73/572/559 353/570/557 354/573/560
f 73/572/559 354/573/560 74/574/561
f 74/574/561 354/573/560 355/575/562
f 74/574/561 355/575/562 75/576/563
f 75/576/563 355/575/562 356/577/564
f 75/576/563 356/577/564 76/578/565
f 76/578/565 356/577/564 357/579/566
f 76/578/565 357/579/566 1/580/3
f 1/580/3 357/579/566 358/581/567
f 1/580/3 358/581/567 187/582/568
f 187/582/568 358/581/567 359/583/569
f 187/582/568 359/583/569 188/584/570
f 188/584/570 359/583/569 189/585/571
f 189/585/571 359/583/569 360/586/572
f 189/585/571 360/586/572 190/587/573
f 190/587/573 360/586/572 361/588/574
f 190/587/573 361/588/574 191/589/575
f 191/589/575 361/588/574 362/590/576
f 191/589/575 362/590/576 192/591/577
f 192/591/577 362/590/576 363/592/578
f 192/591/577 363/592/578 193/593/579
f 193/593/579 363/592/578 364/594/580
f 193/593/579 364/594/580 194/595/581
f 194/595/581 364/594/580 365/596/582
f 194/595/581 365/596/582 195/597/583
f 195/597/583 365/596/582 196/598/584
f 196/598/584 365/596/582 366/599/585
f 196/598/584 366/599/585 197/600/586
f 197/600/586 366/599/585 367/601/587
f 197/600/586 367/601/587 198/602/588
f 198/602/588 367/601/587 368/603/589
f 198/602/588 368/603/589 199/604/590
f 199/604/590 368/603/589 369/605/591
f 199/604/590 369/605/591 200/606/592
f 200/606/592 369/605/591 201/607/593
f 201/607/593 369/605/591 202/608/594
f 202/608/594 369/605/591 370/609/595
f 202/608/594 370/609/595 203/610/596
f 203/610/596 370/609/595 204/611/597
f 204/611/597 370/609/595 316/612/598
f 204/611/597 316/612/598 205/613/599
f 205/613/599 316/612/598 206/614/600
f 206/614/600 316/612/598 317/615/601
f 206/614/600 317/615/601 207/616/602
f 207/616/602 317/615/601 208/617/603
f 208/617/603 317/615/601 318/618/604
f 208/617/603 318/618/604 209/619/605
f 209/619/605 318/618/604 210/620/606
f 210/620/606 318/618/604 211/621/607
f 211/621/607 318/618/604 319/622/608
f 211/621/607 319/622/608 212/623/609
f 212/623/609 319/622/608 320/624/610
f 212/623/609 320/624/610 213/625/611
f 213/625/611 320/624/610 321/626/612
f 213/625/611 321/626/612 214/627/613
f 214/627/613 321/626/612 322/628/614
f 214/627/613 322/628/614 215/629/615
f 215/629/615 322/628/614 216/630/616
f 216/630/616 322/628/614 323/631/617
f 216/630/616 323/631/617 217/632/618
f 217/632/618 323/631/617 324/633/619
f 217/632/618 324/633/619 218/634/620
f 218/634/620 324/633/619 325/635/621
f 218/634/620 325/635/621 219/636/622
f 219/636/622 325/635/621 326/637/623
f 219/636/622 326/637/623 220/638/624
f 220/638/624 326/637/623 327/639/625
f 220/638/624 327/639/625 221/640/626
f 221/640/626 327/639/625 328/641/627
f 221/640/626 328/641/627 222/642/628
f 222/642/628 328/641/627 329/511/501
f 222/642/628 329/511/501 223/510/500
f 261/643/629 315/644/630 262/645/631
f 262/645/631 315/644/630 263/646/632
f 263/646/632 315/644/630 264/647/633
f 264/647/633 315/644/630 265/648/634
f 265/648/634 315/644/630 266/649/635
f 266/649/635 315/644/630 267/650/636
f 267/650/636 315/644/630 268/651/637
f 268/651/637 315/644/630 269/652/638
f 269/652/638 315/644/630 270/653/639
f 270/653/639 315/644/630 271/654/640
f 271/654/640 315/644/630 272/655/641
f 272/655/641 315/644/630 273/656/642
f 273/656/642 315/644/630 274/657/643
f 274/657/643 315/644/630 275/658/644
f 275/658/644 315/644/630 276/659/645
f 276/659/645 315/644/630 277/660/646
f 277/660/646 315/644/630 278/661/647
f 278/661/647 315/644/630 314/662/648
f 278/661/647 314/662/648 279/663/649
f 279/663/649 314/662/648 280/664/650
f 280/664/650 314/662/648 281/665/651
f 281/665/651 314/662/648 282/666/652
f 282/666/652 314/662/648 283/667/653
f 283/667/653 314/662/648 284/668/654
f 284/668/654 314/662/648 285/669/655
f 285/669/655 314/662/648 286/670/656
f 286/670/656 314/662/648 287/671/657
f 287/671/657 314/662/648 288/672/658
f 288/672/658 314/662/648 289/673/659
f 289/673/659 314/662/648 290/674/660
f 290/674/660 314/662/648 291/675/661
f 291/675/661 314/662/648 313/676/662
f 291/675/661 313/676/662 292/677/663
f 292/677/663 313/676/662 312/678/664
f 292/677/663 312/678/664 293/679/665
f 293/679/665 312/678/664 311/680/666
f 293/679/665 311/680/666 294/681/667
f 294/681/667 311/680/666 310/682/668
f 294/681/667 310/682/668 295/683/669
f 295/683/669 310/682/668 309/684/670
f 295/683/669 309/684/670 296/685/671
f 296/685/671 309/684/670 308/686/672
f 296/685/671 308/686/672 297/687/673
f 297/687/673 308/686/672 307/688/674
f 297/687/673 307/688/674 298/689/675
f 298/689/675 307/688/674 306/690/676
f 298/689/675 306/690/676 299/691/677
f 299/691/677 306/690/676 305/692/678
f 299/691/677 305/692/678 300/693/679
f 300/693/679 305/692/678 304/694/680
f 300/693/679 304/694/680 301/695/681
f 301/695/681 304/694/680 303/696/682
f 301/695/681 303/696/682 302/697/683
f 316/698/684 370/699/685 317/700/686
f 317/700/686 370/699/685 369/701/687
f 317/700/686 369/701/687 368/702/688
f 368/702/688 367/703/689 317/700/686
f 317/700/686 367/703/689 366/704/690
f 317/700/686 366/704/690 365/705/691
f 365/705/691 364/706/692 317/700/686
f 317/700/686 364/706/692 363/707/693
f 317/700/686 363/707/693 362/708/694
f 362/708/694 361/709/695 317/700/686
f 317/700/686 361/709/695 360/710/696
f 317/700/686 360/710/696 359/711/697
f 359/711/697 358/712/698 317/700/686
f 317/700/686 358/712/698 357/713/699
f 317/700/686 357/713/699 356/714/700
f 356/714/700 355/715/701 317/700/686
f 317/700/686 355/715/701 354/716/702
f 317/700/686 354/716/702 318/717/703
f 318/717/703 354/716/702 353/718/704
f 318/717/703 353/718/704 352/719/705
f 352/719/705 351/720/706 318/717/703
f 318/717/703 351/720/706 350/721/707
f 318/717/703 350/721/707 349/722/708
f 349/722/708 348/723/709 318/717/703
f 318/717/703 348/723/709 347/724/710
f 318/717/703 347/724/710 346/725/711
f 346/725/711 345/726/712 318/717/703
f 318/717/703 345/726/712 344/727/713
f 318/717/703 344/727/713 343/728/714
f 343/728/714 342/729/715 318/717/703
f 318/717/703 342/729/715 341/730/716
f 318/717/703 341/730/716 319/731/717
f 319/731/717 341/730/716 340/732/718
f 319/731/717 340/732/718 320/733/719
f 320/733/719 340/732/718 339/734/720
f 320/733/719 339/734/720 321/735/721
f 321/735/721 339/734/720 338/736/722
f 321/735/721 338/736/722 322/737/723
f 322/737/723 338/736/722 337/738/724
f 322/737/723 337/738/724 323/739/725
f 323/739/725 337/738/724 336/740/726
f 323/739/725 336/740/726 324/741/727
f 324/741/727 336/740/726 335/742/728
f 324/741/727 335/742/728 325/743/729
f 325/743/729 335/742/728 334/744/730
f 325/743/729 334/744/730 326/745/731
f 326/745/731 334/744/730 333/746/732
f 326/745/731 333/746/732 327/747/733
f 327/747/733 333/746/732 332/748/734
f 327/747/733 332/748/734 328/749/735
f 328/749/735 332/748/734 331/750/736
f 328/749/735 331/750/736 329/751/737
f 329/751/737 331/750/736 330/752/738
# 370 vertices
# 752 texture params
# 738 normals
# 736 facets

# 1 groups
