# WaveFront *.obj file (generated by Autodesk ATF)

mtllib neck_connection.mtl

g Body1

v 0.030000 -0.090128 -0.000000
v -0.030000 -0.090128 -0.000000
v -0.030000 0.090128 -0.000000
v 0.030000 0.090128 -0.000000
v 0.030000 0.084297 0.006178
v 0.030000 0.078044 0.011928
v 0.030000 0.071400 0.017221
v 0.030000 0.064397 0.022030
v 0.030000 0.057072 0.026333
v 0.030000 0.049461 0.030106
v 0.030000 0.041602 0.033331
v 0.030000 0.033535 0.035992
v 0.030000 0.025299 0.038076
v 0.030000 0.016937 0.039572
v 0.030000 0.008490 0.040473
v 0.030000 0.000000 0.040773
v 0.030000 -0.008490 0.040473
v 0.030000 -0.016937 0.039572
v 0.030000 -0.025299 0.038076
v 0.030000 -0.033535 0.035992
v 0.030000 -0.041602 0.033331
v 0.030000 -0.049461 0.030106
v 0.030000 -0.057072 0.026333
v 0.030000 -0.064397 0.022030
v 0.030000 -0.071400 0.017221
v 0.030000 -0.078044 0.011928
v 0.030000 -0.084297 0.006178
v -0.030000 0.084297 0.006178
v -0.030000 0.078044 0.011928
v -0.030000 0.071400 0.017221
v -0.030000 0.064397 0.022030
v -0.030000 0.057072 0.026333
v -0.030000 0.049461 0.030106
v -0.030000 0.041602 0.033331
v -0.030000 0.033535 0.035992
v -0.030000 0.025299 0.038076
v -0.030000 0.016937 0.039572
v -0.030000 0.008490 0.040473
v -0.030000 0.000000 0.040773
v -0.030000 -0.008490 0.040473
v -0.030000 -0.016937 0.039572
v -0.030000 -0.025299 0.038076
v -0.030000 -0.033535 0.035992
v -0.030000 -0.041602 0.033331
v -0.030000 -0.049461 0.030106
v -0.030000 -0.057072 0.026333
v -0.030000 -0.064397 0.022030
v -0.030000 -0.071400 0.017221
v -0.030000 -0.078044 0.011928
v -0.030000 -0.084297 0.006178
vt 3.000000 8.508468 0.000000
vt -3.000000 8.508468 0.000000
vt 3.000000 -9.517218 0.000000
vt -3.000000 -9.517218 0.000000
vt -7.922668 9.012843 0.000000
vt -8.540453 8.429749 0.000000
vt -7.922668 -9.012843 0.000000
vt -8.540453 -8.429749 0.000000
vt -9.115438 -7.804409 0.000000
vt -9.115438 7.804409 0.000000
vt -9.644740 -7.139957 0.000000
vt -9.644740 7.139957 0.000000
vt -10.125708 -6.439724 0.000000
vt -10.125708 6.439724 0.000000
vt -10.555931 -5.707217 0.000000
vt -10.555931 5.707217 0.000000
vt -10.933252 -4.946109 0.000000
vt -10.933252 4.946109 0.000000
vt -11.255782 -4.160213 0.000000
vt -11.255782 4.160213 0.000000
vt -11.521903 -3.353469 0.000000
vt -11.521903 3.353469 0.000000
vt -11.730282 -2.529918 0.000000
vt -11.730282 2.529918 0.000000
vt -11.879874 -1.693689 0.000000
vt -11.879874 1.693689 0.000000
vt -11.969931 -0.848972 0.000000
vt -11.969931 0.848972 0.000000
vt -12.000000 0.000000 0.000000
vt 3.000000 -27.502932 0.000000
vt -3.000000 -27.502932 0.000000
vt 3.000000 -28.352614 0.000000
vt -3.000000 -28.352614 0.000000
vt 3.000000 -29.202296 0.000000
vt -3.000000 -29.202296 0.000000
vt 3.000000 -30.051977 0.000000
vt -3.000000 -30.051977 0.000000
vt 3.000000 -30.901659 0.000000
vt -3.000000 -30.901659 0.000000
vt 3.000000 -31.751341 0.000000
vt -3.000000 -31.751341 0.000000
vt 3.000000 -32.601022 0.000000
vt -3.000000 -32.601022 0.000000
vt 3.000000 -33.450704 0.000000
vt -3.000000 -33.450704 0.000000
vt 3.000000 -34.300385 0.000000
vt -3.000000 -34.300385 0.000000
vt 3.000000 -35.150067 0.000000
vt -3.000000 -35.150067 0.000000
vt 3.000000 -35.999749 0.000000
vt -3.000000 -35.999749 0.000000
vt 3.000000 -36.849430 0.000000
vt -3.000000 -36.849430 0.000000
vt 3.000000 -37.699112 0.000000
vt -3.000000 -37.699112 0.000000
vt 3.000000 -38.548793 0.000000
vt -3.000000 -38.548793 0.000000
vt 3.000000 -39.398475 0.000000
vt -3.000000 -39.398475 0.000000
vt 3.000000 -40.248157 0.000000
vt -3.000000 -40.248157 0.000000
vt 3.000000 -41.097838 0.000000
vt -3.000000 -41.097838 0.000000
vt 3.000000 -41.947520 0.000000
vt -3.000000 -41.947520 0.000000
vt 3.000000 -42.797202 0.000000
vt -3.000000 -42.797202 0.000000
vt 3.000000 -43.646883 0.000000
vt -3.000000 -43.646883 0.000000
vt 3.000000 -44.496565 0.000000
vt -3.000000 -44.496565 0.000000
vt 3.000000 -45.346246 0.000000
vt -3.000000 -45.346246 0.000000
vt 3.000000 -46.195928 0.000000
vt -3.000000 -46.195928 0.000000
vt 3.000000 -47.045610 0.000000
vt -3.000000 -47.045610 0.000000
vt 3.000000 -47.895291 0.000000
vt -3.000000 -47.895291 0.000000
vt 7.922668 9.012843 0.000000
vt 7.922668 -9.012843 0.000000
vt 8.540453 8.429749 0.000000
vt 8.540453 -8.429749 0.000000
vt 9.115438 -7.804409 0.000000
vt 9.115438 7.804409 0.000000
vt 9.644740 -7.139957 0.000000
vt 9.644740 7.139957 0.000000
vt 10.125708 -6.439724 0.000000
vt 10.125708 6.439724 0.000000
vt 10.555931 -5.707217 0.000000
vt 10.555931 5.707217 0.000000
vt 10.933252 -4.946109 0.000000
vt 10.933252 4.946109 0.000000
vt 11.255782 -4.160213 0.000000
vt 11.255782 4.160213 0.000000
vt 11.521903 -3.353469 0.000000
vt 11.521903 3.353469 0.000000
vt 11.730282 -2.529918 0.000000
vt 11.730282 2.529918 0.000000
vt 11.879874 -1.693689 0.000000
vt 11.879874 1.693689 0.000000
vt 11.969931 -0.848972 0.000000
vt 11.969931 0.848972 0.000000
vt 12.000000 -0.000000 0.000000
vn -0.000000 0.000000 -100.000000
vn -0.000000 0.000000 -100.000000
vn -0.000000 0.000000 -100.000000
vn -0.000000 0.000000 -100.000000
vn 100.000000 0.000000 -0.000000
vn 100.000000 0.000000 -0.000000
vn 100.000000 0.000000 -0.000000
vn 100.000000 0.000000 -0.000000
vn 100.000000 0.000000 -0.000000
vn 100.000000 0.000000 -0.000000
vn 100.000000 0.000000 -0.000000
vn 100.000000 0.000000 -0.000000
vn 100.000000 0.000000 -0.000000
vn 100.000000 0.000000 -0.000000
vn 100.000000 0.000000 -0.000000
vn 100.000000 0.000000 -0.000000
vn 100.000000 0.000000 -0.000000
vn 100.000000 0.000000 -0.000000
vn 100.000000 0.000000 -0.000000
vn 100.000000 0.000000 -0.000000
vn 100.000000 0.000000 -0.000000
vn 100.000000 0.000000 -0.000000
vn 100.000000 0.000000 -0.000000
vn 100.000000 0.000000 -0.000000
vn 100.000000 0.000000 -0.000000
vn 100.000000 0.000000 -0.000000
vn 100.000000 0.000000 -0.000000
vn 100.000000 0.000000 -0.000000
vn 100.000000 0.000000 -0.000000
vn 0.000000 -75.107024 66.022231
vn 0.000000 -75.107024 66.022231
vn 0.000000 -70.247907 71.170441
vn 0.000000 -70.247907 71.170441
vn 0.000000 -65.036741 75.961979
vn 0.000000 -65.036741 75.961979
vn 0.000000 -59.499643 80.372834
vn 0.000000 -59.499643 80.372834
vn 0.000000 -53.664363 84.380899
vn 0.000000 -53.664363 84.380899
vn 0.000000 -47.560143 87.966089
vn 0.000000 -47.560143 87.966089
vn 0.000000 -41.217575 91.110436
vn 0.000000 -41.217575 91.110436
vn 0.000000 -34.668444 93.798182
vn 0.000000 -34.668444 93.798182
vn 0.000000 -27.945573 96.015858
vn 0.000000 -27.945573 96.015858
vn 0.000000 -21.082652 97.752349
vn 0.000000 -21.082652 97.752349
vn 0.000000 -14.114075 98.998954
vn 0.000000 -14.114075 98.998954
vn 0.000000 -7.074765 99.749425
vn 0.000000 -7.074765 99.749425
vn 0.000000 -0.000000 100.000000
vn 0.000000 -0.000000 100.000000
vn 0.000000 7.074765 99.749425
vn 0.000000 7.074765 99.749425
vn 0.000000 14.114075 98.998954
vn 0.000000 14.114075 98.998954
vn 0.000000 21.082652 97.752349
vn 0.000000 21.082652 97.752349
vn 0.000000 27.945573 96.015858
vn 0.000000 27.945573 96.015858
vn 0.000000 34.668444 93.798182
vn 0.000000 34.668444 93.798182
vn 0.000000 41.217575 91.110436
vn 0.000000 41.217575 91.110436
vn 0.000000 47.560143 87.966089
vn 0.000000 47.560143 87.966089
vn 0.000000 53.664363 84.380899
vn 0.000000 53.664363 84.380899
vn 0.000000 59.499643 80.372834
vn 0.000000 59.499643 80.372834
vn 0.000000 65.036741 75.961979
vn 0.000000 65.036741 75.961979
vn 0.000000 70.247907 71.170441
vn 0.000000 70.247907 71.170441
vn 0.000000 75.107024 66.022231
vn 0.000000 75.107024 66.022231
vn -100.000000 -0.000000 0.000000
vn -100.000000 -0.000000 0.000000
vn -100.000000 -0.000000 0.000000
vn -100.000000 -0.000000 0.000000
vn -100.000000 -0.000000 0.000000
vn -100.000000 -0.000000 0.000000
vn -100.000000 -0.000000 0.000000
vn -100.000000 -0.000000 0.000000
vn -100.000000 -0.000000 0.000000
vn -100.000000 -0.000000 0.000000
vn -100.000000 -0.000000 0.000000
vn -100.000000 -0.000000 0.000000
vn -100.000000 -0.000000 0.000000
vn -100.000000 -0.000000 0.000000
vn -100.000000 -0.000000 0.000000
vn -100.000000 -0.000000 0.000000
vn -100.000000 -0.000000 0.000000
vn -100.000000 -0.000000 0.000000
vn -100.000000 -0.000000 0.000000
vn -100.000000 -0.000000 0.000000
vn -100.000000 -0.000000 0.000000
vn -100.000000 -0.000000 0.000000
vn -100.000000 -0.000000 0.000000
vn -100.000000 -0.000000 0.000000
vn -100.000000 -0.000000 0.000000
usemtl Leather_-_Matte_(Black)
f 1/1/1 2/2/2 4/3/3
f 4/3/3 2/2/2 3/4/4
f 4/5/5 5/6/6 1/7/7
f 1/7/7 5/6/6 27/8/8
f 27/8/8 5/6/6 26/9/9
f 26/9/9 5/6/6 6/10/10
f 26/9/9 6/10/10 25/11/11
f 25/11/11 6/10/10 7/12/12
f 25/11/11 7/12/12 24/13/13
f 24/13/13 7/12/12 8/14/14
f 24/13/13 8/14/14 23/15/15
f 23/15/15 8/14/14 9/16/16
f 23/15/15 9/16/16 22/17/17
f 22/17/17 9/16/16 10/18/18
f 22/17/17 10/18/18 21/19/19
f 21/19/19 10/18/18 11/20/20
f 21/19/19 11/20/20 20/21/21
f 20/21/21 11/20/20 12/22/22
f 20/21/21 12/22/22 19/23/23
f 19/23/23 12/22/22 13/24/24
f 19/23/23 13/24/24 18/25/25
f 18/25/25 13/24/24 14/26/26
f 18/25/25 14/26/26 17/27/27
f 17/27/27 14/26/26 15/28/28
f 17/27/27 15/28/28 16/29/29
f 2/30/30 1/31/31 50/32/32
f 50/32/32 1/31/31 27/33/33
f 50/32/32 27/33/33 49/34/34
f 49/34/34 27/33/33 26/35/35
f 49/34/34 26/35/35 48/36/36
f 48/36/36 26/35/35 25/37/37
f 48/36/36 25/37/37 47/38/38
f 47/38/38 25/37/37 24/39/39
f 47/38/38 24/39/39 46/40/40
f 46/40/40 24/39/39 23/41/41
f 46/40/40 23/41/41 45/42/42
f 45/42/42 23/41/41 22/43/43
f 45/42/42 22/43/43 44/44/44
f 44/44/44 22/43/43 21/45/45
f 44/44/44 21/45/45 43/46/46
f 43/46/46 21/45/45 20/47/47
f 43/46/46 20/47/47 42/48/48
f 42/48/48 20/47/47 19/49/49
f 42/48/48 19/49/49 41/50/50
f 41/50/50 19/49/49 18/51/51
f 41/50/50 18/51/51 40/52/52
f 40/52/52 18/51/51 17/53/53
f 40/52/52 17/53/53 39/54/54
f 39/54/54 17/53/53 16/55/55
f 39/54/54 16/55/55 38/56/56
f 38/56/56 16/55/55 15/57/57
f 38/56/56 15/57/57 37/58/58
f 37/58/58 15/57/57 14/59/59
f 37/58/58 14/59/59 36/60/60
f 36/60/60 14/59/59 13/61/61
f 36/60/60 13/61/61 35/62/62
f 35/62/62 13/61/61 12/63/63
f 35/62/62 12/63/63 34/64/64
f 34/64/64 12/63/63 11/65/65
f 34/64/64 11/65/65 33/66/66
f 33/66/66 11/65/65 10/67/67
f 33/66/66 10/67/67 32/68/68
f 32/68/68 10/67/67 9/69/69
f 32/68/68 9/69/69 31/70/70
f 31/70/70 9/69/69 8/71/71
f 31/70/70 8/71/71 30/72/72
f 30/72/72 8/71/71 7/73/73
f 30/72/72 7/73/73 29/74/74
f 29/74/74 7/73/73 6/75/75
f 29/74/74 6/75/75 28/76/76
f 28/76/76 6/75/75 5/77/77
f 28/76/76 5/77/77 3/78/78
f 3/78/78 5/77/77 4/79/79
f 3/80/80 2/81/81 28/82/82
f 28/82/82 2/81/81 50/83/83
f 28/82/82 50/83/83 49/84/84
f 28/82/82 49/84/84 29/85/85
f 29/85/85 49/84/84 48/86/86
f 29/85/85 48/86/86 30/87/87
f 30/87/87 48/86/86 47/88/88
f 30/87/87 47/88/88 31/89/89
f 31/89/89 47/88/88 46/90/90
f 31/89/89 46/90/90 32/91/91
f 32/91/91 46/90/90 45/92/92
f 32/91/91 45/92/92 33/93/93
f 33/93/93 45/92/92 44/94/94
f 33/93/93 44/94/94 34/95/95
f 34/95/95 44/94/94 43/96/96
f 34/95/95 43/96/96 35/97/97
f 35/97/97 43/96/96 42/98/98
f 35/97/97 42/98/98 36/99/99
f 36/99/99 42/98/98 41/100/100
f 36/99/99 41/100/100 37/101/101
f 37/101/101 41/100/100 40/102/102
f 37/101/101 40/102/102 38/103/103
f 38/103/103 40/102/102 39/104/104
# 50 vertices
# 104 texture params
# 104 normals
# 96 facets

# 1 groups
