# WaveFront *.obj file (generated by Autodesk ATF)

mtllib realsense.mtl

g Body1

v 0.036500 -0.080000 0.213750
v 0.039899 -0.080000 0.213212
v 0.042966 -0.080000 0.211649
v 0.045399 -0.080000 0.209216
v 0.046962 -0.080000 0.206149
v 0.047500 -0.080000 0.202750
v 0.046962 -0.080000 0.199351
v 0.045399 -0.080000 0.196284
v 0.042966 -0.080000 0.193851
v 0.039899 -0.080000 0.192288
v 0.036500 -0.080000 0.191750
v -0.036500 -0.080000 0.191750
v -0.039899 -0.080000 0.192288
v -0.042966 -0.080000 0.193851
v -0.045399 -0.080000 0.196284
v -0.046962 -0.080000 0.199351
v -0.047500 -0.080000 0.202750
v -0.046962 -0.080000 0.206149
v -0.045399 -0.080000 0.209216
v -0.042966 -0.080000 0.211649
v -0.039899 -0.080000 0.213212
v -0.036500 -0.080000 0.213750
v 0.036500 -0.099000 0.213750
v 0.039899 -0.099000 0.213212
v 0.042966 -0.099000 0.211649
v 0.045399 -0.099000 0.209216
v 0.046962 -0.099000 0.206149
v 0.047500 -0.099000 0.202750
v 0.046962 -0.099000 0.199351
v 0.045399 -0.099000 0.196284
v 0.042966 -0.099000 0.193851
v 0.039899 -0.099000 0.192288
v 0.036500 -0.099000 0.191750
v -0.036500 -0.099000 0.191750
v -0.036500 -0.099000 0.213750
v -0.039899 -0.099000 0.213212
v -0.042966 -0.099000 0.211649
v -0.045399 -0.099000 0.209216
v -0.046962 -0.099000 0.206149
v -0.047500 -0.099000 0.202750
v -0.046962 -0.099000 0.199351
v -0.045399 -0.099000 0.196284
v -0.042966 -0.099000 0.193851
v -0.039899 -0.099000 0.192288
vt 1.046162 3.989919 0.000000
vt 0.889919 4.296564 0.000000
vt 1.100000 3.650000 0.000000
vt 0.646564 4.539919 0.000000
vt 1.100000 -3.650000 0.000000
vt 0.646564 -4.539919 0.000000
vt 0.889919 -4.296564 0.000000
vt 0.339919 4.696162 0.000000
vt 0.339919 -4.696162 0.000000
vt -0.000000 4.750000 0.000000
vt -0.000000 -4.750000 0.000000
vt -0.339919 -4.696162 0.000000
vt -0.339919 4.696162 0.000000
vt -0.646564 -4.539919 0.000000
vt -0.646564 4.539919 0.000000
vt -1.100000 -3.650000 0.000000
vt -1.100000 3.650000 0.000000
vt -0.889919 4.296564 0.000000
vt -1.046162 3.989919 0.000000
vt -1.046162 -3.989919 0.000000
vt -0.889919 -4.296564 0.000000
vt 1.046162 -3.989919 0.000000
vt 0.900000 0.863938 0.000000
vt -1.000000 0.863938 0.000000
vt 0.900000 0.518363 0.000000
vt -1.000000 0.518363 0.000000
vt 0.900000 0.172788 0.000000
vt -1.000000 0.172788 0.000000
vt 0.900000 -0.172788 0.000000
vt -1.000000 -0.172788 0.000000
vt 0.900000 -0.518363 0.000000
vt -1.000000 -0.518363 0.000000
vt 0.900000 -0.863938 0.000000
vt -1.000000 -0.863938 0.000000
vt 0.900000 -1.209513 0.000000
vt -1.000000 -1.209513 0.000000
vt 0.900000 -1.555088 0.000000
vt -1.000000 -1.555088 0.000000
vt 0.900000 -1.900664 0.000000
vt -1.000000 -1.900664 0.000000
vt 0.900000 -2.246239 0.000000
vt -1.000000 -2.246239 0.000000
vt 0.900000 -2.591814 0.000000
vt -1.000000 -2.591814 0.000000
vt 1.000000 3.650000 0.000000
vt -0.900000 3.650000 0.000000
vt 1.000000 -3.650000 0.000000
vt -0.900000 -3.650000 0.000000
vt 1.046162 3.989919 0.000000
vt 0.889919 4.296564 0.000000
vt 1.100000 3.650000 0.000000
vt 0.646564 4.539919 0.000000
vt 1.100000 -3.650000 0.000000
vt 0.646564 -4.539919 0.000000
vt 0.889919 -4.296564 0.000000
vt 0.339919 4.696162 0.000000
vt 0.339919 -4.696162 0.000000
vt 0.000000 4.750000 0.000000
vt 0.000000 -4.750000 0.000000
vt -0.339919 -4.696162 0.000000
vt -0.339919 4.696162 0.000000
vt -0.646564 -4.539919 0.000000
vt -0.646564 4.539919 0.000000
vt -1.100000 -3.650000 0.000000
vt -1.100000 3.650000 0.000000
vt -0.889919 4.296564 0.000000
vt -1.046162 3.989919 0.000000
vt -1.046162 -3.989919 0.000000
vt -0.889919 -4.296564 0.000000
vt 1.046162 -3.989919 0.000000
vt 0.900000 0.863938 0.000000
vt -1.000000 0.863938 0.000000
vt 0.900000 0.518363 0.000000
vt -1.000000 0.518363 0.000000
vt 0.900000 0.172788 0.000000
vt -1.000000 0.172788 0.000000
vt 0.900000 -0.172788 0.000000
vt -1.000000 -0.172788 0.000000
vt 0.900000 -0.518363 0.000000
vt -1.000000 -0.518363 0.000000
vt 0.900000 -0.863938 0.000000
vt -1.000000 -0.863938 0.000000
vt 0.900000 -1.209513 0.000000
vt -1.000000 -1.209513 0.000000
vt 0.900000 -1.555088 0.000000
vt -1.000000 -1.555088 0.000000
vt 0.900000 -1.900664 0.000000
vt -1.000000 -1.900664 0.000000
vt 0.900000 -2.246239 0.000000
vt -1.000000 -2.246239 0.000000
vt 0.900000 -2.591814 0.000000
vt -1.000000 -2.591814 0.000000
vt 0.900000 3.650000 0.000000
vt -1.000000 3.650000 0.000000
vt 0.900000 -3.650000 0.000000
vt -1.000000 -3.650000 0.000000
vn 0.000000 100.000000 -0.000000
vn 0.000000 100.000000 -0.000000
vn 0.000000 100.000000 -0.000000
vn 0.000000 100.000000 -0.000000
vn 0.000000 100.000000 -0.000000
vn 0.000000 100.000000 -0.000000
vn 0.000000 100.000000 -0.000000
vn 0.000000 100.000000 -0.000000
vn 0.000000 100.000000 -0.000000
vn 0.000000 100.000000 -0.000000
vn 0.000000 100.000000 -0.000000
vn 0.000000 100.000000 -0.000000
vn 0.000000 100.000000 -0.000000
vn 0.000000 100.000000 -0.000000
vn 0.000000 100.000000 -0.000000
vn 0.000000 100.000000 -0.000000
vn 0.000000 100.000000 -0.000000
vn 0.000000 100.000000 -0.000000
vn 0.000000 100.000000 -0.000000
vn 0.000000 100.000000 -0.000000
vn 0.000000 100.000000 -0.000000
vn 0.000000 100.000000 -0.000000
vn 0.000000 -0.000000 -100.000000
vn 0.000000 -0.000000 -100.000000
vn 30.901699 -0.000000 -95.105652
vn 30.901699 -0.000000 -95.105652
vn 58.778525 -0.000000 -80.901699
vn 58.778525 -0.000000 -80.901699
vn 80.901699 -0.000000 -58.778525
vn 80.901699 -0.000000 -58.778525
vn 95.105652 -0.000000 -30.901699
vn 95.105652 -0.000000 -30.901699
vn 100.000000 -0.000000 -0.000000
vn 100.000000 -0.000000 -0.000000
vn 95.105652 -0.000000 30.901699
vn 95.105652 -0.000000 30.901699
vn 80.901699 -0.000000 58.778525
vn 80.901699 -0.000000 58.778525
vn 58.778525 -0.000000 80.901699
vn 58.778525 -0.000000 80.901699
vn 30.901699 -0.000000 95.105652
vn 30.901699 -0.000000 95.105652
vn 0.000000 -0.000000 100.000000
vn 0.000000 -0.000000 100.000000
vn 0.000000 -0.000000 -100.000000
vn 0.000000 -0.000000 -100.000000
vn -0.000000 -100.000000 0.000000
vn -0.000000 -100.000000 0.000000
vn -0.000000 -100.000000 0.000000
vn -0.000000 -100.000000 0.000000
vn -0.000000 -100.000000 0.000000
vn -0.000000 -100.000000 0.000000
vn -0.000000 -100.000000 0.000000
vn -0.000000 -100.000000 0.000000
vn -0.000000 -100.000000 0.000000
vn -0.000000 -100.000000 0.000000
vn -0.000000 -100.000000 0.000000
vn -0.000000 -100.000000 0.000000
vn -0.000000 -100.000000 0.000000
vn -0.000000 -100.000000 0.000000
vn -0.000000 -100.000000 0.000000
vn -0.000000 -100.000000 0.000000
vn -0.000000 -100.000000 0.000000
vn -0.000000 -100.000000 0.000000
vn -0.000000 -100.000000 0.000000
vn -0.000000 -100.000000 0.000000
vn -0.000000 -100.000000 0.000000
vn -0.000000 -100.000000 0.000000
vn 0.000000 -0.000000 100.000000
vn -0.000000 0.000000 100.000000
vn -30.901699 0.000000 95.105652
vn -30.901699 0.000000 95.105652
vn -58.778525 0.000000 80.901699
vn -58.778525 0.000000 80.901699
vn -80.901699 0.000000 58.778525
vn -80.901699 0.000000 58.778525
vn -95.105652 0.000000 30.901699
vn -95.105652 0.000000 30.901699
vn -100.000000 0.000000 0.000000
vn -100.000000 0.000000 0.000000
vn -95.105652 0.000000 -30.901699
vn -95.105652 0.000000 -30.901699
vn -80.901699 0.000000 -58.778525
vn -80.901699 0.000000 -58.778525
vn -58.778525 0.000000 -80.901699
vn -58.778525 0.000000 -80.901699
vn -30.901699 0.000000 -95.105652
vn -30.901699 0.000000 -95.105652
usemtl Coating_-_Black_Oxide
f 2/1/1 3/2/2 1/3/3
f 1/3/3 3/2/2 4/4/4
f 1/3/3 4/4/4 22/5/5
f 22/5/5 4/4/4 19/6/6
f 22/5/5 19/6/6 20/7/7
f 4/4/4 5/8/8 19/6/6
f 19/6/6 5/8/8 18/9/9
f 18/9/9 5/8/8 6/10/10
f 18/9/9 6/10/10 17/11/11
f 17/11/11 6/10/10 16/12/12
f 16/12/12 6/10/10 7/13/13
f 16/12/12 7/13/13 15/14/14
f 15/14/14 7/13/13 8/15/15
f 15/14/14 8/15/15 12/16/16
f 12/16/16 8/15/15 11/17/17
f 11/17/17 8/15/15 9/18/18
f 11/17/17 9/18/18 10/19/19
f 13/20/20 14/21/21 12/16/16
f 12/16/16 14/21/21 15/14/14
f 20/7/7 21/22/22 22/5/5
f 33/23/23 11/24/24 32/25/25
f 32/25/25 11/24/24 10/26/26
f 32/25/25 10/26/26 31/27/27
f 31/27/27 10/26/26 9/28/28
f 31/27/27 9/28/28 30/29/29
f 30/29/29 9/28/28 8/30/30
f 30/29/29 8/30/30 29/31/31
f 29/31/31 8/30/30 7/32/32
f 29/31/31 7/32/32 28/33/33
f 28/33/33 7/32/32 6/34/34
f 28/33/33 6/34/34 27/35/35
f 27/35/35 6/34/34 5/36/36
f 27/35/35 5/36/36 26/37/37
f 26/37/37 5/36/36 4/38/38
f 26/37/37 4/38/38 25/39/39
f 25/39/39 4/38/38 3/40/40
f 25/39/39 3/40/40 24/41/41
f 24/41/41 3/40/40 2/42/42
f 24/41/41 2/42/42 23/43/43
f 23/43/43 2/42/42 1/44/44
f 11/45/24 33/46/23 12/47/45
f 12/47/45 33/46/23 34/48/46
f 32/49/47 31/50/48 33/51/49
f 33/51/49 31/50/48 30/52/50
f 33/51/49 30/52/50 34/53/51
f 34/53/51 30/52/50 42/54/52
f 34/53/51 42/54/52 43/55/53
f 30/52/50 29/56/54 42/54/52
f 42/54/52 29/56/54 41/57/55
f 41/57/55 29/56/54 28/58/56
f 41/57/55 28/58/56 40/59/57
f 40/59/57 28/58/56 39/60/58
f 39/60/58 28/58/56 27/61/59
f 39/60/58 27/61/59 38/62/60
f 38/62/60 27/61/59 26/63/61
f 38/62/60 26/63/61 35/64/62
f 35/64/62 26/63/61 23/65/63
f 23/65/63 26/63/61 25/66/64
f 23/65/63 25/66/64 24/67/65
f 36/68/66 37/69/67 35/64/62
f 35/64/62 37/69/67 38/62/60
f 43/55/53 44/70/68 34/53/51
f 35/71/69 22/72/70 36/73/71
f 36/73/71 22/72/70 21/74/72
f 36/73/71 21/74/72 37/75/73
f 37/75/73 21/74/72 20/76/74
f 37/75/73 20/76/74 38/77/75
f 38/77/75 20/76/74 19/78/76
f 38/77/75 19/78/76 39/79/77
f 39/79/77 19/78/76 18/80/78
f 39/79/77 18/80/78 40/81/79
f 40/81/79 18/80/78 17/82/80
f 40/81/79 17/82/80 41/83/81
f 41/83/81 17/82/80 16/84/82
f 41/83/81 16/84/82 42/85/83
f 42/85/83 16/84/82 15/86/84
f 42/85/83 15/86/84 43/87/85
f 43/87/85 15/86/84 14/88/86
f 43/87/85 14/88/86 44/89/87
f 44/89/87 14/88/86 13/90/88
f 44/89/87 13/90/88 34/91/46
f 34/91/46 13/90/88 12/92/45
f 23/93/43 1/94/44 35/95/69
f 35/95/69 1/94/44 22/96/70
# 44 vertices
# 96 texture params
# 88 normals
# 84 facets

# 1 groups
