# WaveFront *.obj file (generated by Autodesk ATF)

mtllib wrist_ball_sinister.mtl

g Body2

v -0.000000 0.000000 0.060000
v 0.000000 0.005536 0.059744
v 0.000000 0.011025 0.058978
v 0.000000 0.016420 0.057710
v 0.000000 0.021674 0.055948
v 0.000000 0.026744 0.053710
v 0.000000 0.031586 0.051013
v 0.000000 0.036158 0.047881
v 0.000000 0.040422 0.044341
v 0.000000 0.044341 0.040422
v 0.000000 0.047881 0.036158
v 0.000000 0.051013 0.031586
v 0.000000 0.053710 0.026744
v 0.000000 0.055948 0.021674
v 0.000000 0.057710 0.016420
v 0.000000 0.058978 0.011025
v 0.000000 0.059744 0.005536
v 0.000000 0.060000 -0.000000
v 0.000000 0.059744 -0.005536
v 0.000000 0.058978 -0.011025
v 0.000000 0.057710 -0.016420
v 0.000000 0.055948 -0.021674
v 0.000000 0.053710 -0.026744
v 0.000000 0.051013 -0.031586
v 0.000000 0.047881 -0.036158
v 0.000000 0.044341 -0.040422
v 0.000000 0.040422 -0.044341
v 0.000000 0.036158 -0.047881
v 0.000000 0.031586 -0.051013
v 0.000000 0.026744 -0.053710
v 0.000000 0.021674 -0.055948
v 0.000000 0.016420 -0.057710
v 0.000000 0.011025 -0.058978
v 0.000000 0.005536 -0.059744
v -0.000000 -0.000000 -0.060000
v -0.000000 -0.005536 -0.059744
v -0.000000 -0.011025 -0.058978
v -0.000000 -0.016420 -0.057710
v -0.000000 -0.021674 -0.055948
v -0.000000 -0.026744 -0.053710
v -0.000000 -0.031586 -0.051013
v -0.000000 -0.036158 -0.047881
v -0.000000 -0.040422 -0.044341
v -0.000000 -0.044341 -0.040422
v -0.000000 -0.047881 -0.036158
v -0.000000 -0.051013 -0.031586
v -0.000000 -0.053710 -0.026744
v -0.000000 -0.055948 -0.021674
v -0.000000 -0.057710 -0.016420
v -0.000000 -0.058978 -0.011025
v -0.000000 -0.059744 -0.005536
v -0.000000 -0.060000 0.000000
v -0.000000 -0.059744 0.005536
v -0.000000 -0.058978 0.011025
v -0.000000 -0.057710 0.016420
v -0.000000 -0.055948 0.021674
v -0.000000 -0.053710 0.026744
v -0.000000 -0.051013 0.031586
v -0.000000 -0.047881 0.036158
v -0.000000 -0.044341 0.040422
v -0.000000 -0.040422 0.044341
v -0.000000 -0.036158 0.047881
v -0.000000 -0.031586 0.051013
v -0.000000 -0.026744 0.053710
v -0.000000 -0.021674 0.055948
v -0.000000 -0.016420 0.057710
v -0.000000 -0.011025 0.058978
v -0.000000 -0.005536 0.059744
v 0.050000 -0.000000 0.030000
v 0.050000 -0.003836 0.029754
v 0.050000 -0.007610 0.029019
v 0.050000 -0.011258 0.027808
v 0.050000 -0.014722 0.026140
v 0.050000 -0.017943 0.024042
v 0.050000 -0.020870 0.021550
v 0.050000 -0.023455 0.018705
v 0.050000 -0.025654 0.015552
v 0.050000 -0.027432 0.012144
v 0.050000 -0.028760 0.008536
v 0.050000 -0.029615 0.004788
v 0.050000 -0.029985 0.000962
v 0.050000 -0.029861 -0.002881
v 0.050000 -0.029248 -0.006676
v 0.050000 -0.028154 -0.010361
v 0.050000 -0.026598 -0.013876
v 0.050000 -0.024605 -0.017163
v 0.050000 -0.022208 -0.020169
v 0.050000 -0.019447 -0.022843
v 0.050000 -0.016366 -0.025143
v 0.050000 -0.013017 -0.027029
v 0.050000 -0.009453 -0.028472
v 0.050000 -0.005735 -0.029447
v 0.050000 -0.001922 -0.029938
v 0.050000 0.001922 -0.029938
v 0.050000 0.005735 -0.029447
v 0.050000 0.009453 -0.028472
v 0.050000 0.013017 -0.027029
v 0.050000 0.016366 -0.025143
v 0.050000 0.019447 -0.022843
v 0.050000 0.022208 -0.020169
v 0.050000 0.024605 -0.017163
v 0.050000 0.026598 -0.013876
v 0.050000 0.028154 -0.010361
v 0.050000 0.029248 -0.006676
v 0.050000 0.029861 -0.002881
v 0.050000 0.029985 0.000962
v 0.050000 0.029615 0.004788
v 0.050000 0.028760 0.008536
v 0.050000 0.027432 0.012144
v 0.050000 0.025654 0.015552
v 0.050000 0.023455 0.018705
v 0.050000 0.020870 0.021550
v 0.050000 0.017943 0.024042
v 0.050000 0.014722 0.026140
v 0.050000 0.011258 0.027808
v 0.050000 0.007610 0.029019
v 0.050000 0.003836 0.029754
vt -5.974405 -0.553610 0.000000
vt 5.974405 -0.553610 0.000000
vt -6.000000 -0.000000 0.000000
vt 6.000000 0.000000 0.000000
vt -5.974405 0.553610 0.000000
vt 5.974405 0.553610 0.000000
vt -5.897839 1.102497 0.000000
vt 5.897839 1.102497 0.000000
vt -5.770954 1.641978 0.000000
vt 5.770954 1.641978 0.000000
vt -5.594833 2.167450 0.000000
vt 5.594833 2.167450 0.000000
vt -5.370980 2.674430 0.000000
vt 5.370980 2.674430 0.000000
vt -5.101303 3.158593 0.000000
vt 5.101303 3.158593 0.000000
vt -4.788103 3.615808 0.000000
vt 4.788103 3.615808 0.000000
vt -4.434054 4.042174 0.000000
vt 4.434054 4.042174 0.000000
vt -4.042174 4.434054 0.000000
vt 4.042174 4.434054 0.000000
vt -3.615808 4.788103 0.000000
vt 3.615808 4.788103 0.000000
vt -3.158593 5.101303 0.000000
vt 3.158593 5.101303 0.000000
vt -2.674430 5.370980 0.000000
vt 2.674430 5.370980 0.000000
vt -2.167450 5.594833 0.000000
vt 2.167450 5.594833 0.000000
vt -1.641978 5.770954 0.000000
vt 1.641978 5.770954 0.000000
vt -1.102497 5.897839 0.000000
vt 1.102497 5.897839 0.000000
vt -0.553610 5.974405 0.000000
vt 0.553610 5.974405 0.000000
vt -0.000000 6.000000 0.000000
vt 5.897839 -1.102497 0.000000
vt -5.897839 -1.102497 0.000000
vt 5.770954 -1.641978 0.000000
vt -5.770954 -1.641978 0.000000
vt 5.594833 -2.167450 0.000000
vt -5.594833 -2.167450 0.000000
vt 5.370980 -2.674430 0.000000
vt -5.370980 -2.674430 0.000000
vt 5.101303 -3.158593 0.000000
vt -5.101303 -3.158593 0.000000
vt 4.788103 -3.615808 0.000000
vt -4.788103 -3.615808 0.000000
vt 4.434054 -4.042174 0.000000
vt -4.434054 -4.042174 0.000000
vt 4.042174 -4.434054 0.000000
vt -4.042174 -4.434054 0.000000
vt 3.615808 -4.788103 0.000000
vt -3.615808 -4.788103 0.000000
vt 3.158593 -5.101303 0.000000
vt -3.158593 -5.101303 0.000000
vt 2.674430 -5.370980 0.000000
vt -2.674430 -5.370980 0.000000
vt 2.167450 -5.594833 0.000000
vt -2.167450 -5.594833 0.000000
vt 1.641978 -5.770954 0.000000
vt -1.641978 -5.770954 0.000000
vt 1.102497 -5.897839 0.000000
vt -1.102497 -5.897839 0.000000
vt 0.553610 -5.974405 0.000000
vt -0.553610 -5.974405 0.000000
vt 0.000000 -6.000000 0.000000
vt 2.975370 -0.383631 0.000000
vt 3.000000 -0.000000 0.000000
vt -2.847167 -0.945325 0.000000
vt 2.975370 0.383631 0.000000
vt 2.901885 0.760964 0.000000
vt 2.780750 1.125801 0.000000
vt 2.613956 1.472153 0.000000
vt 2.404241 1.794332 0.000000
vt 2.155048 2.087048 0.000000
vt 1.870469 2.345494 0.000000
vt 1.555178 2.565428 0.000000
vt 1.214350 2.743238 0.000000
vt 0.853583 2.876004 0.000000
vt 0.478800 2.961545 0.000000
vt 0.096155 2.998459 0.000000
vt -0.288069 2.986137 0.000000
vt -0.667563 2.924784 0.000000
vt -1.036095 2.815405 0.000000
vt -1.387615 2.659798 0.000000
vt -1.716350 2.460517 0.000000
vt -2.016903 2.220834 0.000000
vt -2.284338 1.944685 0.000000
vt -2.514264 1.636605 0.000000
vt -2.702907 1.301651 0.000000
vt -2.847167 0.945325 0.000000
vt -2.944677 -0.573476 0.000000
vt -2.944677 0.573476 0.000000
vt -2.993836 -0.192211 0.000000
vt -2.993836 0.192211 0.000000
vt -2.702907 -1.301651 0.000000
vt 2.780750 -1.125801 0.000000
vt 2.901885 -0.760964 0.000000
vt 2.613956 -1.472153 0.000000
vt -2.514264 -1.636605 0.000000
vt 2.404241 -1.794332 0.000000
vt -2.284338 -1.944685 0.000000
vt 2.155048 -2.087048 0.000000
vt -2.016903 -2.220834 0.000000
vt 1.870469 -2.345494 0.000000
vt -1.716350 -2.460517 0.000000
vt 1.555178 -2.565428 0.000000
vt -1.387615 -2.659798 0.000000
vt 1.214350 -2.743238 0.000000
vt -1.036095 -2.815405 0.000000
vt 0.853583 -2.876004 0.000000
vt -0.667563 -2.924784 0.000000
vt 0.478800 -2.961545 0.000000
vt -0.288069 -2.986137 0.000000
vt 0.096155 -2.998459 0.000000
vt -5.830952 -0.577027 0.000000
vt 0.000000 -0.415799 0.000000
vt -5.830952 0.000000 0.000000
vt -0.000000 -0.000000 0.000000
vt 0.000000 0.415799 0.000000
vt 0.000000 -0.831598 0.000000
vt -5.830952 -1.154054 0.000000
vt 0.000000 -1.247397 0.000000
vt -5.830952 -1.731082 0.000000
vt 0.000000 -1.663196 0.000000
vt 0.000000 -2.078995 0.000000
vt -5.830952 -2.308109 0.000000
vt 0.000000 -2.494794 0.000000
vt -5.830952 -2.885136 0.000000
vt 0.000000 -2.910593 0.000000
vt -0.000000 -3.326392 0.000000
vt -5.830952 -3.462163 0.000000
vt -0.000000 -3.742191 0.000000
vt -5.830952 -4.039191 0.000000
vt 0.000000 -4.157990 0.000000
vt -5.830952 -4.616218 0.000000
vt 0.000000 -4.573789 0.000000
vt 0.000000 -4.989588 0.000000
vt -5.830952 -5.193245 0.000000
vt 0.000000 -5.405387 0.000000
vt -5.830952 -5.770272 0.000000
vt 0.000000 -5.821186 0.000000
vt 0.000000 -6.236985 0.000000
vt -5.830952 -6.347299 0.000000
vt 0.000000 -6.652784 0.000000
vt -5.830952 -6.924327 0.000000
vt 0.000000 -7.068583 0.000000
vt -5.830952 -7.501354 0.000000
vt 0.000000 -7.484382 0.000000
vt 0.000000 -7.900182 0.000000
vt -5.830952 -8.078381 0.000000
vt 0.000000 -8.315981 0.000000
vt -5.830952 -8.655408 0.000000
vt 0.000000 -8.731780 0.000000
vt 0.000000 -9.147579 0.000000
vt -5.830952 -9.232436 0.000000
vt 0.000000 -9.563378 0.000000
vt -5.830952 -9.809463 0.000000
vt 0.000000 -9.979177 0.000000
vt -5.830952 -10.386490 0.000000
vt 0.000000 -10.394976 0.000000
vt 0.000000 -10.810775 0.000000
vt -5.830952 -10.963517 0.000000
vt 0.000000 -11.226574 0.000000
vt -5.830952 -11.540544 0.000000
vt 0.000000 -11.642373 0.000000
vt -5.830952 -12.117572 0.000000
vt 0.000000 -12.058172 0.000000
vt 0.000000 -12.473971 0.000000
vt -5.830952 -12.694599 0.000000
vt 0.000000 -12.889770 0.000000
vt -5.830952 -13.271626 0.000000
vt 0.000000 -13.305569 0.000000
vt 0.000000 -13.721368 0.000000
vt -5.830952 -13.848653 0.000000
vt 0.000000 -14.137167 0.000000
vt 0.000000 14.137167 0.000000
vt -5.830952 14.425681 0.000000
vt -5.830952 13.848653 0.000000
vt 0.000000 13.721368 0.000000
vt -5.830952 13.271626 0.000000
vt 0.000000 13.305569 0.000000
vt 0.000000 12.889770 0.000000
vt -5.830952 12.694599 0.000000
vt 0.000000 12.473971 0.000000
vt -5.830952 12.117572 0.000000
vt 0.000000 12.058172 0.000000
vt 0.000000 11.642373 0.000000
vt -5.830952 11.540544 0.000000
vt 0.000000 11.226574 0.000000
vt -5.830952 10.963517 0.000000
vt 0.000000 10.810775 0.000000
vt -5.830952 10.386490 0.000000
vt 0.000000 10.394976 0.000000
vt 0.000000 9.979177 0.000000
vt -5.830952 9.809463 0.000000
vt 0.000000 9.563378 0.000000
vt -5.830952 9.232436 0.000000
vt 0.000000 9.147579 0.000000
vt -5.830952 8.655408 0.000000
vt 0.000000 8.731780 0.000000
vt 0.000000 8.315981 0.000000
vt -5.830952 8.078381 0.000000
vt 0.000000 7.900182 0.000000
vt -5.830952 7.501354 0.000000
vt 0.000000 7.484382 0.000000
vt 0.000000 7.068583 0.000000
vt -5.830952 6.924327 0.000000
vt 0.000000 6.652784 0.000000
vt -5.830952 6.347299 0.000000
vt 0.000000 6.236985 0.000000
vt -5.830952 5.770272 0.000000
vt 0.000000 5.821186 0.000000
vt 0.000000 5.405387 0.000000
vt -5.830952 5.193245 0.000000
vt 0.000000 4.989588 0.000000
vt -5.830952 4.616218 0.000000
vt 0.000000 4.573789 0.000000
vt 0.000000 4.157990 0.000000
vt -5.830952 4.039191 0.000000
vt 0.000000 3.742191 0.000000
vt -5.830952 3.462163 0.000000
vt 0.000000 3.326392 0.000000
vt -5.830952 2.885136 0.000000
vt 0.000000 2.910593 0.000000
vt 0.000000 2.494794 0.000000
vt -5.830952 2.308109 0.000000
vt 0.000000 2.078995 0.000000
vt -5.830952 1.731082 0.000000
vt 0.000000 1.663196 0.000000
vt 0.000000 1.247397 0.000000
vt -5.830952 1.154054 0.000000
vt 0.000000 0.831598 0.000000
vt -5.830952 0.577027 0.000000
vn -100.000000 0.000000 -0.000000
vn -100.000000 0.000000 -0.000000
vn -100.000000 0.000000 -0.000000
vn -100.000000 0.000000 -0.000000
vn -100.000000 0.000000 -0.000000
vn -100.000000 0.000000 -0.000000
vn -100.000000 0.000000 -0.000000
vn -100.000000 0.000000 -0.000000
vn -100.000000 0.000000 -0.000000
vn -100.000000 0.000000 -0.000000
vn -100.000000 0.000000 -0.000000
vn -100.000000 0.000000 -0.000000
vn -100.000000 0.000000 -0.000000
vn -100.000000 0.000000 -0.000000
vn -100.000000 0.000000 -0.000000
vn -100.000000 0.000000 -0.000000
vn -100.000000 0.000000 -0.000000
vn -100.000000 0.000000 -0.000000
vn -100.000000 0.000000 -0.000000
vn -100.000000 0.000000 -0.000000
vn -100.000000 0.000000 -0.000000
vn -100.000000 0.000000 -0.000000
vn -100.000000 0.000000 -0.000000
vn -100.000000 0.000000 -0.000000
vn -100.000000 0.000000 -0.000000
vn -100.000000 0.000000 -0.000000
vn -100.000000 0.000000 -0.000000
vn -100.000000 0.000000 -0.000000
vn -100.000000 0.000000 -0.000000
vn -100.000000 0.000000 -0.000000
vn -100.000000 0.000000 -0.000000
vn -100.000000 0.000000 -0.000000
vn -100.000000 0.000000 -0.000000
vn -100.000000 0.000000 -0.000000
vn -100.000000 0.000000 -0.000000
vn -100.000000 0.000000 -0.000000
vn -100.000000 0.000000 -0.000000
vn -100.000000 0.000000 -0.000000
vn -100.000000 0.000000 -0.000000
vn -100.000000 0.000000 -0.000000
vn -100.000000 0.000000 -0.000000
vn -100.000000 0.000000 -0.000000
vn -100.000000 0.000000 -0.000000
vn -100.000000 0.000000 -0.000000
vn -100.000000 0.000000 -0.000000
vn -100.000000 0.000000 -0.000000
vn -100.000000 0.000000 -0.000000
vn -100.000000 0.000000 -0.000000
vn -100.000000 0.000000 -0.000000
vn -100.000000 0.000000 -0.000000
vn -100.000000 0.000000 -0.000000
vn -100.000000 0.000000 -0.000000
vn -100.000000 0.000000 -0.000000
vn -100.000000 0.000000 -0.000000
vn -100.000000 0.000000 -0.000000
vn -100.000000 0.000000 -0.000000
vn -100.000000 0.000000 -0.000000
vn -100.000000 0.000000 -0.000000
vn -100.000000 0.000000 -0.000000
vn -100.000000 0.000000 -0.000000
vn -100.000000 0.000000 -0.000000
vn -100.000000 0.000000 -0.000000
vn -100.000000 0.000000 -0.000000
vn -100.000000 0.000000 -0.000000
vn -100.000000 0.000000 -0.000000
vn -100.000000 0.000000 -0.000000
vn -100.000000 0.000000 -0.000000
vn -100.000000 0.000000 -0.000000
vn 100.000000 -0.000000 0.000000
vn 100.000000 -0.000000 0.000000
vn 100.000000 -0.000000 0.000000
vn 100.000000 -0.000000 0.000000
vn 100.000000 -0.000000 0.000000
vn 100.000000 -0.000000 0.000000
vn 100.000000 -0.000000 0.000000
vn 100.000000 -0.000000 0.000000
vn 100.000000 -0.000000 0.000000
vn 100.000000 -0.000000 0.000000
vn 100.000000 -0.000000 0.000000
vn 100.000000 -0.000000 0.000000
vn 100.000000 -0.000000 0.000000
vn 100.000000 -0.000000 0.000000
vn 100.000000 -0.000000 0.000000
vn 100.000000 -0.000000 0.000000
vn 100.000000 -0.000000 0.000000
vn 100.000000 -0.000000 0.000000
vn 100.000000 -0.000000 0.000000
vn 100.000000 -0.000000 0.000000
vn 100.000000 -0.000000 0.000000
vn 100.000000 -0.000000 0.000000
vn 100.000000 -0.000000 0.000000
vn 100.000000 -0.000000 0.000000
vn 100.000000 -0.000000 0.000000
vn 100.000000 -0.000000 0.000000
vn 100.000000 -0.000000 0.000000
vn 100.000000 -0.000000 0.000000
vn 100.000000 -0.000000 0.000000
vn 100.000000 -0.000000 0.000000
vn 100.000000 -0.000000 0.000000
vn 100.000000 -0.000000 0.000000
vn 100.000000 -0.000000 0.000000
vn 100.000000 -0.000000 0.000000
vn 100.000000 -0.000000 0.000000
vn 100.000000 -0.000000 0.000000
vn 100.000000 -0.000000 0.000000
vn 100.000000 -0.000000 0.000000
vn 100.000000 -0.000000 0.000000
vn 100.000000 -0.000000 0.000000
vn 100.000000 -0.000000 0.000000
vn 100.000000 -0.000000 0.000000
vn 100.000000 -0.000000 0.000000
vn 100.000000 -0.000000 0.000000
vn 100.000000 -0.000000 0.000000
vn 100.000000 -0.000000 0.000000
vn 100.000000 -0.000000 0.000000
vn 100.000000 -0.000000 0.000000
vn 100.000000 -0.000000 0.000000
vn 51.449576 10.965376 85.045292
vn 51.449576 7.911947 85.383501
vn 51.449576 -0.000000 85.749293
vn 51.449576 0.000000 85.749293
vn 51.449576 -7.911947 85.383501
vn 51.449576 15.756391 84.289248
vn 51.449576 21.750701 82.944850
vn 51.449576 23.466408 82.475868
vn 51.449576 32.178880 79.482456
vn 51.449576 30.976217 79.958834
vn 51.449576 38.221749 76.759619
vn 51.449576 42.078683 74.714962
vn 51.449576 45.141186 72.905518
vn 51.449576 51.287555 68.720651
vn 51.449576 51.675494 68.429413
vn 51.449576 57.768925 63.369492
vn 51.449576 59.654287 61.597949
vn 51.449576 63.369492 57.768925
vn 51.449576 67.041497 53.463809
vn 51.449576 68.429413 51.675494
vn 51.449576 73.327887 44.451796
vn 51.449576 72.905518 45.141186
vn 51.449576 76.759619 38.221749
vn 51.449576 78.410236 34.709885
vn 51.449576 79.958834 30.976217
vn 51.449576 82.205090 24.398039
vn 51.449576 82.475868 23.466408
vn 51.449576 84.289248 15.756391
vn 51.449576 84.650140 13.685578
vn 51.449576 85.383501 7.911947
vn 51.449576 85.705236 2.748400
vn 51.449576 85.749293 -0.000000
vn 51.449576 85.353055 -8.233907
vn 51.449576 85.383501 -7.911947
vn 51.449576 84.289248 -15.756391
vn 51.449576 83.599379 -19.081013
vn 51.449576 82.475868 -23.466408
vn 51.449576 80.473003 -29.614809
vn 51.449576 79.958834 -30.976217
vn 51.449576 76.759619 -38.221749
vn 51.449576 76.025263 -39.662331
vn 51.449576 72.905518 -45.141186
vn 51.449576 70.329191 -49.058599
vn 51.449576 68.429413 -51.675494
vn 51.449576 63.478315 -57.649326
vn 51.449576 63.369492 -57.768925
vn 51.449576 57.768925 -63.369492
vn 51.449576 55.585126 -65.293452
vn 51.449576 51.675494 -68.429413
vn 51.449576 46.779232 -71.865462
vn 51.449576 45.141186 -72.905518
vn 51.449576 37.205224 -77.257443
vn 51.449576 38.221749 -76.759619
vn 51.449576 30.976217 -79.958834
vn 51.449576 27.020307 -81.380859
vn 51.449576 23.466408 -82.475868
vn 51.449576 16.391717 -84.168003
vn 51.449576 15.756391 -84.289248
vn 51.449576 7.911947 -85.383501
vn 51.449576 5.493976 -85.573111
vn 51.449576 -0.000000 -85.749293
vn 51.449576 -5.493976 -85.573111
vn 51.449576 -7.911947 -85.383501
vn 51.449576 -16.391717 -84.168003
vn 51.449576 -15.756391 -84.289248
vn 51.449576 -23.466408 -82.475868
vn 51.449576 -27.020307 -81.380859
vn 51.449576 -30.976217 -79.958834
vn 51.449576 -37.205224 -77.257443
vn 51.449576 -38.221749 -76.759619
vn 51.449576 -45.141186 -72.905518
vn 51.449576 -46.779232 -71.865462
vn 51.449576 -51.675494 -68.429413
vn 51.449576 -55.585126 -65.293452
vn 51.449576 -57.768925 -63.369492
vn 51.449576 -63.478315 -57.649326
vn 51.449576 -63.369492 -57.768925
vn 51.449576 -68.429413 -51.675494
vn 51.449576 -70.329191 -49.058599
vn 51.449576 -72.905518 -45.141186
vn 51.449576 -76.025263 -39.662331
vn 51.449576 -76.759619 -38.221749
vn 51.449576 -80.473003 -29.614809
vn 51.449576 -79.958834 -30.976217
vn 51.449576 -82.475868 -23.466408
vn 51.449576 -83.599379 -19.081013
vn 51.449576 -84.289248 -15.756391
vn 51.449576 -85.353055 -8.233907
vn 51.449576 -85.383501 -7.911947
vn 51.449576 -85.749293 0.000000
vn 51.449576 -85.705236 2.748400
vn 51.449576 -85.383501 7.911947
vn 51.449576 -84.650140 13.685578
vn 51.449576 -84.289248 15.756391
vn 51.449576 -82.205090 24.398039
vn 51.449576 -82.475868 23.466408
vn 51.449576 -79.958834 30.976217
vn 51.449576 -78.410236 34.709885
vn 51.449576 -76.759619 38.221749
vn 51.449576 -73.327887 44.451796
vn 51.449576 -72.905518 45.141186
vn 51.449576 -68.429413 51.675494
vn 51.449576 -67.041497 53.463809
vn 51.449576 -63.369492 57.768925
vn 51.449576 -59.654287 61.597949
vn 51.449576 -57.768925 63.369492
vn 51.449576 -51.287555 68.720651
vn 51.449576 -51.675494 68.429413
vn 51.449576 -45.141186 72.905518
vn 51.449576 -42.078683 74.714962
vn 51.449576 -38.221749 76.759619
vn 51.449576 -32.178880 79.482456
vn 51.449576 -30.976217 79.958834
vn 51.449576 -23.466408 82.475868
vn 51.449576 -21.750701 82.944850
vn 51.449576 -15.756391 84.289248
vn 51.449576 -10.965376 85.045292
usemtl Paint_-_Metal_Flake_(Black)
f 2/1/1 34/2/2 1/3/3
f 1/3/3 34/2/2 35/4/4
f 1/3/3 35/4/4 68/5/5
f 68/5/5 35/4/4 36/6/6
f 68/5/5 36/6/6 67/7/7
f 67/7/7 36/6/6 37/8/8
f 67/7/7 37/8/8 66/9/9
f 66/9/9 37/8/8 38/10/10
f 66/9/9 38/10/10 65/11/11
f 65/11/11 38/10/10 39/12/12
f 65/11/11 39/12/12 64/13/13
f 64/13/13 39/12/12 40/14/14
f 64/13/13 40/14/14 63/15/15
f 63/15/15 40/14/14 41/16/16
f 63/15/15 41/16/16 62/17/17
f 62/17/17 41/16/16 42/18/18
f 62/17/17 42/18/18 61/19/19
f 61/19/19 42/18/18 43/20/20
f 61/19/19 43/20/20 60/21/21
f 60/21/21 43/20/20 44/22/22
f 60/21/21 44/22/22 59/23/23
f 59/23/23 44/22/22 45/24/24
f 59/23/23 45/24/24 58/25/25
f 58/25/25 45/24/24 46/26/26
f 58/25/25 46/26/26 57/27/27
f 57/27/27 46/26/26 47/28/28
f 57/27/27 47/28/28 56/29/29
f 56/29/29 47/28/28 48/30/30
f 56/29/29 48/30/30 55/31/31
f 55/31/31 48/30/30 49/32/32
f 55/31/31 49/32/32 54/33/33
f 54/33/33 49/32/32 50/34/34
f 54/33/33 50/34/34 53/35/35
f 53/35/35 50/34/34 51/36/36
f 53/35/35 51/36/36 52/37/37
f 34/2/2 2/1/1 33/38/38
f 33/38/38 2/1/1 3/39/39
f 33/38/38 3/39/39 32/40/40
f 32/40/40 3/39/39 4/41/41
f 32/40/40 4/41/41 31/42/42
f 31/42/42 4/41/41 5/43/43
f 31/42/42 5/43/43 30/44/44
f 30/44/44 5/43/43 6/45/45
f 30/44/44 6/45/45 29/46/46
f 29/46/46 6/45/45 7/47/47
f 29/46/46 7/47/47 28/48/48
f 28/48/48 7/47/47 8/49/49
f 28/48/48 8/49/49 27/50/50
f 27/50/50 8/49/49 9/51/51
f 27/50/50 9/51/51 26/52/52
f 26/52/52 9/51/51 10/53/53
f 26/52/52 10/53/53 25/54/54
f 25/54/54 10/53/53 11/55/55
f 25/54/54 11/55/55 24/56/56
f 24/56/56 11/55/55 12/57/57
f 24/56/56 12/57/57 23/58/58
f 23/58/58 12/57/57 13/59/59
f 23/58/58 13/59/59 22/60/60
f 22/60/60 13/59/59 14/61/61
f 22/60/60 14/61/61 21/62/62
f 21/62/62 14/61/61 15/63/63
f 21/62/62 15/63/63 20/64/64
f 20/64/64 15/63/63 16/65/65
f 20/64/64 16/65/65 19/66/66
f 19/66/66 16/65/65 17/67/67
f 19/66/66 17/67/67 18/68/68
f 117/69/69 69/70/70 96/71/71
f 96/71/71 69/70/70 70/72/72
f 96/71/71 70/72/72 71/73/73
f 71/73/73 72/74/74 96/71/71
f 96/71/71 72/74/74 73/75/75
f 96/71/71 73/75/75 74/76/76
f 74/76/76 75/77/77 96/71/71
f 96/71/71 75/77/77 76/78/78
f 96/71/71 76/78/78 77/79/79
f 77/79/79 78/80/80 96/71/71
f 96/71/71 78/80/80 79/81/81
f 96/71/71 79/81/81 80/82/82
f 80/82/82 81/83/83 96/71/71
f 96/71/71 81/83/83 82/84/84
f 96/71/71 82/84/84 83/85/85
f 83/85/85 84/86/86 96/71/71
f 96/71/71 84/86/86 85/87/87
f 96/71/71 85/87/87 86/88/88
f 86/88/88 87/89/89 96/71/71
f 96/71/71 87/89/89 88/90/90
f 96/71/71 88/90/90 89/91/91
f 89/91/91 90/92/92 96/71/71
f 96/71/71 90/92/92 91/93/93
f 96/71/71 91/93/93 95/94/94
f 95/94/94 91/93/93 92/95/95
f 95/94/94 92/95/95 94/96/96
f 94/96/96 92/95/95 93/97/97
f 97/98/98 115/99/99 96/71/71
f 96/71/71 115/99/99 116/100/100
f 96/71/71 116/100/100 117/69/69
f 115/99/99 97/98/98 114/101/101
f 114/101/101 97/98/98 98/102/102
f 114/101/101 98/102/102 113/103/103
f 113/103/103 98/102/102 99/104/104
f 113/103/103 99/104/104 112/105/105
f 112/105/105 99/104/104 100/106/106
f 112/105/105 100/106/106 111/107/107
f 111/107/107 100/106/106 101/108/108
f 111/107/107 101/108/108 110/109/109
f 110/109/109 101/108/108 102/110/110
f 110/109/109 102/110/110 109/111/111
f 109/111/111 102/110/110 103/112/112
f 109/111/111 103/112/112 108/113/113
f 108/113/113 103/112/112 104/114/114
f 108/113/113 104/114/114 107/115/115
f 107/115/115 104/114/114 105/116/116
f 107/115/115 105/116/116 106/117/117
f 117/118/118 2/119/119 69/120/120
f 69/120/120 2/119/119 1/121/121
f 69/120/120 1/121/121 68/122/122
f 2/119/119 117/118/118 3/123/123
f 3/123/123 117/118/118 116/124/124
f 3/123/123 116/124/124 4/125/125
f 4/125/125 116/124/124 115/126/126
f 4/125/125 115/126/126 5/127/127
f 5/127/127 115/126/126 6/128/128
f 6/128/128 115/126/126 114/129/129
f 6/128/128 114/129/129 7/130/130
f 7/130/130 114/129/129 113/131/131
f 7/130/130 113/131/131 8/132/132
f 8/132/132 113/131/131 9/133/133
f 9/133/133 113/131/131 112/134/134
f 9/133/133 112/134/134 10/135/135
f 10/135/135 112/134/134 111/136/136
f 10/135/135 111/136/136 11/137/137
f 11/137/137 111/136/136 110/138/138
f 11/137/137 110/138/138 12/139/139
f 12/139/139 110/138/138 13/140/140
f 13/140/140 110/138/138 109/141/141
f 13/140/140 109/141/141 14/142/142
f 14/142/142 109/141/141 108/143/143
f 14/142/142 108/143/143 15/144/144
f 15/144/144 108/143/143 16/145/145
f 16/145/145 108/143/143 107/146/146
f 16/145/145 107/146/146 17/147/147
f 17/147/147 107/146/146 106/148/148
f 17/147/147 106/148/148 18/149/149
f 18/149/149 106/148/148 105/150/150
f 18/149/149 105/150/150 19/151/151
f 19/151/151 105/150/150 20/152/152
f 20/152/152 105/150/150 104/153/153
f 20/152/152 104/153/153 21/154/154
f 21/154/154 104/153/153 103/155/155
f 21/154/154 103/155/155 22/156/156
f 22/156/156 103/155/155 23/157/157
f 23/157/157 103/155/155 102/158/158
f 23/157/157 102/158/158 24/159/159
f 24/159/159 102/158/158 101/160/160
f 24/159/159 101/160/160 25/161/161
f 25/161/161 101/160/160 100/162/162
f 25/161/161 100/162/162 26/163/163
f 26/163/163 100/162/162 27/164/164
f 27/164/164 100/162/162 99/165/165
f 27/164/164 99/165/165 28/166/166
f 28/166/166 99/165/165 98/167/167
f 28/166/166 98/167/167 29/168/168
f 29/168/168 98/167/167 97/169/169
f 29/168/168 97/169/169 30/170/170
f 30/170/170 97/169/169 31/171/171
f 31/171/171 97/169/169 96/172/172
f 31/171/171 96/172/172 32/173/173
f 32/173/173 96/172/172 95/174/174
f 32/173/173 95/174/174 33/175/175
f 33/175/175 95/174/174 34/176/176
f 34/176/176 95/174/174 94/177/177
f 34/176/176 94/177/177 35/178/178
f 35/179/178 94/180/177 93/181/179
f 35/179/178 93/181/179 36/182/180
f 36/182/180 93/181/179 92/183/181
f 36/182/180 92/183/181 37/184/182
f 37/184/182 92/183/181 38/185/183
f 38/185/183 92/183/181 91/186/184
f 38/185/183 91/186/184 39/187/185
f 39/187/185 91/186/184 90/188/186
f 39/187/185 90/188/186 40/189/187
f 40/189/187 90/188/186 41/190/188
f 41/190/188 90/188/186 89/191/189
f 41/190/188 89/191/189 42/192/190
f 42/192/190 89/191/189 88/193/191
f 42/192/190 88/193/191 43/194/192
f 43/194/192 88/193/191 87/195/193
f 43/194/192 87/195/193 44/196/194
f 44/196/194 87/195/193 45/197/195
f 45/197/195 87/195/193 86/198/196
f 45/197/195 86/198/196 46/199/197
f 46/199/197 86/198/196 85/200/198
f 46/199/197 85/200/198 47/201/199
f 47/201/199 85/200/198 84/202/200
f 47/201/199 84/202/200 48/203/201
f 48/203/201 84/202/200 49/204/202
f 49/204/202 84/202/200 83/205/203
f 49/204/202 83/205/203 50/206/204
f 50/206/204 83/205/203 82/207/205
f 50/206/204 82/207/205 51/208/206
f 51/208/206 82/207/205 52/209/207
f 52/209/207 82/207/205 81/210/208
f 52/209/207 81/210/208 53/211/209
f 53/211/209 81/210/208 80/212/210
f 53/211/209 80/212/210 54/213/211
f 54/213/211 80/212/210 79/214/212
f 54/213/211 79/214/212 55/215/213
f 55/215/213 79/214/212 56/216/214
f 56/216/214 79/214/212 78/217/215
f 56/216/214 78/217/215 57/218/216
f 57/218/216 78/217/215 77/219/217
f 57/218/216 77/219/217 58/220/218
f 58/220/218 77/219/217 59/221/219
f 59/221/219 77/219/217 76/222/220
f 59/221/219 76/222/220 60/223/221
f 60/223/221 76/222/220 75/224/222
f 60/223/221 75/224/222 61/225/223
f 61/225/223 75/224/222 74/226/224
f 61/225/223 74/226/224 62/227/225
f 62/227/225 74/226/224 63/228/226
f 63/228/226 74/226/224 73/229/227
f 63/228/226 73/229/227 64/230/228
f 64/230/228 73/229/227 72/231/229
f 64/230/228 72/231/229 65/232/230
f 65/232/230 72/231/229 66/233/231
f 66/233/231 72/231/229 71/234/232
f 66/233/231 71/234/232 67/235/233
f 67/235/233 71/234/232 70/236/234
f 67/235/233 70/236/234 68/122/122
f 68/122/122 70/236/234 69/120/120
# 117 vertices
# 236 texture params
# 234 normals
# 230 facets

# 1 groups
