# WaveFront *.obj file (generated by Autodesk ATF)

mtllib wrist_rot_link_sinister.mtl

g Body1

v 0.005000 0.000000 0.060000
v 0.005000 -0.005703 0.059728
v 0.005000 -0.011355 0.058916
v 0.005000 -0.016904 0.057570
v 0.005000 -0.022300 0.055702
v 0.005000 -0.027494 0.053330
v 0.005000 -0.032438 0.050475
v 0.005000 -0.037090 0.047163
v 0.005000 -0.041405 0.043424
v 0.005000 -0.045345 0.039292
v 0.005000 -0.048875 0.034803
v 0.005000 -0.051962 0.030000
v 0.005000 -0.054578 0.024925
v 0.005000 -0.056700 0.019624
v 0.005000 -0.058309 0.014146
v 0.005000 -0.059389 0.008539
v 0.005000 -0.059932 0.002855
v 0.005000 -0.059932 -0.002855
v 0.005000 -0.059389 -0.008539
v 0.005000 -0.058309 -0.014146
v 0.005000 -0.056700 -0.019624
v 0.005000 -0.054578 -0.024925
v 0.005000 -0.051962 -0.030000
v 0.005000 -0.048875 -0.034803
v 0.005000 -0.045345 -0.039292
v 0.005000 -0.041405 -0.043424
v 0.005000 -0.037090 -0.047163
v 0.005000 -0.032438 -0.050475
v 0.005000 -0.027494 -0.053330
v 0.005000 -0.022300 -0.055702
v 0.005000 -0.016904 -0.057570
v 0.005000 -0.011355 -0.058916
v 0.005000 -0.005703 -0.059728
v 0.005000 -0.000000 -0.060000
v 0.005000 0.005703 -0.059728
v 0.005000 0.011355 -0.058916
v 0.005000 0.016904 -0.057570
v 0.005000 0.022300 -0.055702
v 0.005000 0.027494 -0.053330
v 0.005000 0.032438 -0.050475
v 0.005000 0.037090 -0.047163
v 0.005000 0.041405 -0.043424
v 0.005000 0.045345 -0.039292
v 0.005000 0.048875 -0.034803
v 0.005000 0.051962 -0.030000
v 0.005000 0.054578 -0.024925
v 0.005000 0.056700 -0.019624
v 0.005000 0.058309 -0.014146
v 0.005000 0.059389 -0.008539
v 0.005000 0.059932 -0.002855
v 0.005000 0.059932 0.002855
v 0.005000 0.059389 0.008539
v 0.005000 0.058309 0.014146
v 0.005000 0.056700 0.019624
v 0.005000 0.054578 0.024925
v 0.005000 0.051962 0.030000
v 0.005000 0.048875 0.034803
v 0.005000 0.045345 0.039292
v 0.005000 0.041405 0.043424
v 0.005000 0.037090 0.047163
v 0.005000 0.032438 0.050475
v 0.005000 0.027494 0.053330
v 0.005000 0.022300 0.055702
v 0.005000 0.016904 0.057570
v 0.005000 0.011355 0.058916
v 0.005000 0.005703 0.059728
v 0.055000 0.000000 0.060000
v 0.055000 0.005703 0.059728
v 0.055000 0.011355 0.058916
v 0.055000 0.016904 0.057570
v 0.055000 0.022300 0.055702
v 0.055000 0.027494 0.053330
v 0.055000 0.032438 0.050475
v 0.055000 0.037090 0.047163
v 0.055000 0.041405 0.043424
v 0.055000 0.045345 0.039292
v 0.055000 0.048875 0.034803
v 0.055000 0.051962 0.030000
v 0.055000 0.054578 0.024925
v 0.055000 0.056700 0.019624
v 0.055000 0.058309 0.014146
v 0.055000 0.059389 0.008539
v 0.055000 0.059932 0.002855
v 0.055000 0.059932 -0.002855
v 0.055000 0.059389 -0.008539
v 0.055000 0.058309 -0.014146
v 0.055000 0.056700 -0.019624
v 0.055000 0.054578 -0.024925
v 0.055000 0.051962 -0.030000
v 0.055000 0.048875 -0.034803
v 0.055000 0.045345 -0.039292
v 0.055000 0.041405 -0.043424
v 0.055000 0.037090 -0.047163
v 0.055000 0.032438 -0.050475
v 0.055000 0.027494 -0.053330
v 0.055000 0.022300 -0.055702
v 0.055000 0.016904 -0.057570
v 0.055000 0.011355 -0.058916
v 0.055000 0.005703 -0.059728
v 0.055000 0.000000 -0.060000
v 0.055000 -0.005703 -0.059728
v 0.055000 -0.011355 -0.058916
v 0.055000 -0.016904 -0.057570
v 0.055000 -0.022300 -0.055702
v 0.055000 -0.027494 -0.053330
v 0.055000 -0.032438 -0.050475
v 0.055000 -0.037090 -0.047163
v 0.055000 -0.041405 -0.043424
v 0.055000 -0.045345 -0.039292
v 0.055000 -0.048875 -0.034803
v 0.055000 -0.051962 -0.030000
v 0.055000 -0.054578 -0.024925
v 0.055000 -0.056700 -0.019624
v 0.055000 -0.058309 -0.014146
v 0.055000 -0.059389 -0.008539
v 0.055000 -0.059932 -0.002855
v 0.055000 -0.059932 0.002855
v 0.055000 -0.059389 0.008539
v 0.055000 -0.058309 0.014146
v 0.055000 -0.056700 0.019624
v 0.055000 -0.054578 0.024925
v 0.055000 -0.051962 0.030000
v 0.055000 -0.048875 0.034803
v 0.055000 -0.045345 0.039292
v 0.055000 -0.041405 0.043424
v 0.055000 -0.037090 0.047163
v 0.055000 -0.032438 0.050475
v 0.055000 -0.027494 0.053330
v 0.055000 -0.022300 0.055702
v 0.055000 -0.016904 0.057570
v 0.055000 -0.011355 0.058916
v 0.055000 -0.005703 0.059728
vt -9.500000 -0.571199 0.000000
vt -4.500000 0.000000 0.000000
vt -9.500000 0.000000 0.000000
vt -4.500000 0.571199 0.000000
vt -9.500000 0.571199 0.000000
vt -4.500000 1.142397 0.000000
vt -9.500000 1.142397 0.000000
vt -4.500000 1.713596 0.000000
vt -9.500000 1.713596 0.000000
vt -4.500000 2.284795 0.000000
vt -9.500000 2.284795 0.000000
vt -4.500000 2.855993 0.000000
vt -9.500000 2.855993 0.000000
vt -4.500000 3.427192 0.000000
vt -9.500000 3.427192 0.000000
vt -4.500000 3.998391 0.000000
vt -9.500000 3.998391 0.000000
vt -4.500000 4.569589 0.000000
vt -9.500000 4.569589 0.000000
vt -4.500000 5.140788 0.000000
vt -9.500000 5.140788 0.000000
vt -4.500000 5.711987 0.000000
vt -9.500000 5.711987 0.000000
vt -4.500000 6.283185 0.000000
vt -9.500000 6.283185 0.000000
vt -4.500000 6.854384 0.000000
vt -9.500000 6.854384 0.000000
vt -4.500000 7.425583 0.000000
vt -9.500000 7.425583 0.000000
vt -4.500000 7.996781 0.000000
vt -9.500000 7.996781 0.000000
vt -4.500000 8.567980 0.000000
vt -9.500000 8.567980 0.000000
vt -4.500000 9.139179 0.000000
vt -9.500000 9.139179 0.000000
vt -4.500000 9.710377 0.000000
vt -9.500000 9.710377 0.000000
vt -4.500000 10.281576 0.000000
vt -9.500000 10.281576 0.000000
vt -4.500000 10.852775 0.000000
vt -9.500000 10.852775 0.000000
vt -4.500000 11.423973 0.000000
vt -9.500000 11.423973 0.000000
vt -4.500000 11.995172 0.000000
vt -9.500000 11.995172 0.000000
vt -4.500000 12.566371 0.000000
vt -9.500000 12.566371 0.000000
vt -4.500000 13.137569 0.000000
vt -9.500000 13.137569 0.000000
vt -4.500000 13.708768 0.000000
vt -9.500000 13.708768 0.000000
vt -4.500000 14.279967 0.000000
vt -9.500000 14.279967 0.000000
vt -4.500000 14.851165 0.000000
vt -9.500000 14.851165 0.000000
vt -4.500000 15.422364 0.000000
vt -9.500000 15.422364 0.000000
vt -4.500000 15.993563 0.000000
vt -9.500000 15.993563 0.000000
vt -4.500000 16.564761 0.000000
vt -9.500000 16.564761 0.000000
vt -4.500000 17.135960 0.000000
vt -9.500000 17.135960 0.000000
vt -4.500000 17.707159 0.000000
vt -9.500000 17.707159 0.000000
vt -4.500000 18.278357 0.000000
vt -9.500000 18.278357 0.000000
vt -9.500000 18.849556 0.000000
vt -4.500000 18.849556 0.000000
vt -9.500000 -18.849556 0.000000
vt -4.500000 -18.849556 0.000000
vt -9.500000 -18.278357 0.000000
vt -4.500000 -18.278357 0.000000
vt -4.500000 -17.707159 0.000000
vt -4.500000 -0.571199 0.000000
vt -9.500000 -1.142397 0.000000
vt -4.500000 -1.142397 0.000000
vt -9.500000 -1.713596 0.000000
vt -4.500000 -1.713596 0.000000
vt -9.500000 -2.284795 0.000000
vt -4.500000 -2.284795 0.000000
vt -9.500000 -2.855993 0.000000
vt -4.500000 -2.855993 0.000000
vt -9.500000 -3.427192 0.000000
vt -4.500000 -3.427192 0.000000
vt -9.500000 -3.998391 0.000000
vt -4.500000 -3.998391 0.000000
vt -9.500000 -4.569589 0.000000
vt -4.500000 -4.569589 0.000000
vt -9.500000 -5.140788 0.000000
vt -4.500000 -5.140788 0.000000
vt -9.500000 -5.711987 0.000000
vt -4.500000 -5.711987 0.000000
vt -9.500000 -6.283185 0.000000
vt -4.500000 -6.283185 0.000000
vt -9.500000 -6.854384 0.000000
vt -4.500000 -6.854384 0.000000
vt -9.500000 -7.425583 0.000000
vt -4.500000 -7.425583 0.000000
vt -9.500000 -7.996781 0.000000
vt -4.500000 -7.996781 0.000000
vt -9.500000 -8.567980 0.000000
vt -4.500000 -8.567980 0.000000
vt -9.500000 -9.139179 0.000000
vt -4.500000 -9.139179 0.000000
vt -9.500000 -9.710377 0.000000
vt -4.500000 -9.710377 0.000000
vt -9.500000 -10.281576 0.000000
vt -4.500000 -10.281576 0.000000
vt -9.500000 -10.852775 0.000000
vt -4.500000 -10.852775 0.000000
vt -9.500000 -11.423973 0.000000
vt -4.500000 -11.423973 0.000000
vt -9.500000 -11.995172 0.000000
vt -4.500000 -11.995172 0.000000
vt -9.500000 -12.566371 0.000000
vt -4.500000 -12.566371 0.000000
vt -9.500000 -13.137569 0.000000
vt -4.500000 -13.137569 0.000000
vt -9.500000 -13.708768 0.000000
vt -4.500000 -13.708768 0.000000
vt -9.500000 -14.279967 0.000000
vt -4.500000 -14.279967 0.000000
vt -9.500000 -14.851165 0.000000
vt -4.500000 -14.851165 0.000000
vt -9.500000 -15.422364 0.000000
vt -4.500000 -15.422364 0.000000
vt -9.500000 -15.993563 0.000000
vt -4.500000 -15.993563 0.000000
vt -9.500000 -16.564761 0.000000
vt -4.500000 -16.564761 0.000000
vt -9.500000 -17.135960 0.000000
vt -4.500000 -17.135960 0.000000
vt -9.500000 -17.707159 0.000000
vt 5.972832 0.570336 0.000000
vt -5.972832 0.570336 0.000000
vt 6.000000 -0.000000 0.000000
vt -6.000000 0.000000 0.000000
vt 5.972832 -0.570336 0.000000
vt -5.972832 -0.570336 0.000000
vt 5.891572 -1.135507 0.000000
vt -5.891572 -1.135507 0.000000
vt 5.756958 -1.690395 0.000000
vt -5.756958 -1.690395 0.000000
vt 5.570208 -2.229975 0.000000
vt -5.570208 -2.229975 0.000000
vt 5.333013 -2.749359 0.000000
vt -5.333013 -2.749359 0.000000
vt 5.047521 -3.243845 0.000000
vt -5.047521 -3.243845 0.000000
vt 4.716319 -3.708954 0.000000
vt -4.716319 -3.708954 0.000000
vt 4.342404 -4.140474 0.000000
vt -4.342404 -4.140474 0.000000
vt 3.929164 -4.534497 0.000000
vt -3.929164 -4.534497 0.000000
vt 3.480341 -4.887456 0.000000
vt -3.480341 -4.887456 0.000000
vt 3.000000 -5.196152 0.000000
vt -3.000000 -5.196152 0.000000
vt 2.492490 -5.457792 0.000000
vt -2.492490 -5.457792 0.000000
vt 1.962408 -5.670005 0.000000
vt -1.962408 -5.670005 0.000000
vt 1.414554 -5.830869 0.000000
vt -1.414554 -5.830869 0.000000
vt 0.853889 -5.938929 0.000000
vt -0.853889 -5.938929 0.000000
vt 0.285491 -5.993204 0.000000
vt -0.285491 -5.993204 0.000000
vt -5.891572 1.135507 0.000000
vt 5.891572 1.135507 0.000000
vt -5.756958 1.690395 0.000000
vt 5.756958 1.690395 0.000000
vt -5.570208 2.229975 0.000000
vt 5.570208 2.229975 0.000000
vt -5.333013 2.749359 0.000000
vt 5.333013 2.749359 0.000000
vt -5.047521 3.243845 0.000000
vt 5.047521 3.243845 0.000000
vt -4.716319 3.708954 0.000000
vt 4.716319 3.708954 0.000000
vt -4.342404 4.140474 0.000000
vt 4.342404 4.140474 0.000000
vt -3.929164 4.534497 0.000000
vt 3.929164 4.534497 0.000000
vt -3.480341 4.887456 0.000000
vt 3.480341 4.887456 0.000000
vt -3.000000 5.196152 0.000000
vt 3.000000 5.196152 0.000000
vt -2.492490 5.457792 0.000000
vt 2.492490 5.457792 0.000000
vt -1.962408 5.670005 0.000000
vt 1.962408 5.670005 0.000000
vt -1.414554 5.830869 0.000000
vt 1.414554 5.830869 0.000000
vt -0.853889 5.938929 0.000000
vt 0.853889 5.938929 0.000000
vt -0.285491 5.993204 0.000000
vt 0.285491 5.993204 0.000000
vt -5.972832 -0.570336 0.000000
vt 5.972832 -0.570336 0.000000
vt -6.000000 -0.000000 0.000000
vt 6.000000 0.000000 0.000000
vt -5.972832 0.570336 0.000000
vt 5.972832 0.570336 0.000000
vt -5.891572 1.135507 0.000000
vt 5.891572 1.135507 0.000000
vt -5.756958 1.690395 0.000000
vt 5.756958 1.690395 0.000000
vt -5.570208 2.229975 0.000000
vt 5.570208 2.229975 0.000000
vt -5.333013 2.749359 0.000000
vt 5.333013 2.749359 0.000000
vt -5.047521 3.243845 0.000000
vt 5.047521 3.243845 0.000000
vt -4.716319 3.708954 0.000000
vt 4.716319 3.708954 0.000000
vt -4.342404 4.140474 0.000000
vt 4.342404 4.140474 0.000000
vt -3.929164 4.534497 0.000000
vt 3.929164 4.534497 0.000000
vt -3.480341 4.887456 0.000000
vt 3.480341 4.887456 0.000000
vt -3.000000 5.196152 0.000000
vt 3.000000 5.196152 0.000000
vt -2.492490 5.457792 0.000000
vt 2.492490 5.457792 0.000000
vt -1.962408 5.670005 0.000000
vt 1.962408 5.670005 0.000000
vt -1.414554 5.830869 0.000000
vt 1.414554 5.830869 0.000000
vt -0.853889 5.938929 0.000000
vt 0.853889 5.938929 0.000000
vt -0.285491 5.993204 0.000000
vt 0.285491 5.993204 0.000000
vt 5.891572 -1.135507 0.000000
vt -5.891572 -1.135507 0.000000
vt 5.756958 -1.690395 0.000000
vt -5.756958 -1.690395 0.000000
vt 5.570208 -2.229975 0.000000
vt -5.570208 -2.229975 0.000000
vt 5.333013 -2.749359 0.000000
vt -5.333013 -2.749359 0.000000
vt 5.047521 -3.243845 0.000000
vt -5.047521 -3.243845 0.000000
vt 4.716319 -3.708954 0.000000
vt -4.716319 -3.708954 0.000000
vt 4.342404 -4.140474 0.000000
vt -4.342404 -4.140474 0.000000
vt 3.929164 -4.534497 0.000000
vt -3.929164 -4.534497 0.000000
vt 3.480341 -4.887456 0.000000
vt -3.480341 -4.887456 0.000000
vt 3.000000 -5.196152 0.000000
vt -3.000000 -5.196152 0.000000
vt 2.492490 -5.457792 0.000000
vt -2.492490 -5.457792 0.000000
vt 1.962408 -5.670005 0.000000
vt -1.962408 -5.670005 0.000000
vt 1.414554 -5.830869 0.000000
vt -1.414554 -5.830869 0.000000
vt 0.853889 -5.938929 0.000000
vt -0.853889 -5.938929 0.000000
vt 0.285491 -5.993204 0.000000
vt -0.285491 -5.993204 0.000000
vn 0.000000 -9.505604 99.547192
vn -0.000000 0.000000 100.000000
vn -0.000000 0.000000 100.000000
vn -0.000000 9.505604 99.547192
vn -0.000000 9.505604 99.547192
vn -0.000000 18.925124 98.192870
vn -0.000000 18.925124 98.192870
vn -0.000000 28.173256 95.949297
vn -0.000000 28.173256 95.949297
vn -0.000000 37.166246 92.836793
vn -0.000000 37.166246 92.836793
vn -0.000000 45.822652 88.883545
vn -0.000000 45.822652 88.883545
vn -0.000000 54.064082 84.125353
vn -0.000000 54.064082 84.125353
vn -0.000000 61.815899 78.605309
vn -0.000000 61.815899 78.605309
vn -0.000000 69.007901 72.373404
vn -0.000000 69.007901 72.373404
vn -0.000000 75.574957 65.486073
vn -0.000000 75.574957 65.486073
vn -0.000000 81.457595 58.005691
vn -0.000000 81.457595 58.005691
vn -0.000000 86.602540 50.000000
vn -0.000000 86.602540 50.000000
vn -0.000000 90.963200 41.541501
vn -0.000000 90.963200 41.541501
vn -0.000000 94.500082 32.706796
vn -0.000000 94.500082 32.706796
vn -0.000000 97.181157 23.575894
vn -0.000000 97.181157 23.575894
vn -0.000000 98.982144 14.231484
vn -0.000000 98.982144 14.231484
vn -0.000000 99.886734 4.758192
vn -0.000000 99.886734 4.758192
vn -0.000000 99.886734 -4.758192
vn -0.000000 99.886734 -4.758192
vn -0.000000 98.982144 -14.231484
vn -0.000000 98.982144 -14.231484
vn -0.000000 97.181157 -23.575894
vn -0.000000 97.181157 -23.575894
vn -0.000000 94.500082 -32.706796
vn -0.000000 94.500082 -32.706796
vn -0.000000 90.963200 -41.541501
vn -0.000000 90.963200 -41.541501
vn -0.000000 86.602540 -50.000000
vn -0.000000 86.602540 -50.000000
vn -0.000000 81.457595 -58.005691
vn -0.000000 81.457595 -58.005691
vn -0.000000 75.574957 -65.486073
vn -0.000000 75.574957 -65.486073
vn -0.000000 69.007901 -72.373404
vn -0.000000 69.007901 -72.373404
vn -0.000000 61.815899 -78.605309
vn -0.000000 61.815899 -78.605309
vn -0.000000 54.064082 -84.125353
vn -0.000000 54.064082 -84.125353
vn -0.000000 45.822652 -88.883545
vn -0.000000 45.822652 -88.883545
vn -0.000000 37.166246 -92.836793
vn -0.000000 37.166246 -92.836793
vn -0.000000 28.173256 -95.949297
vn -0.000000 28.173256 -95.949297
vn -0.000000 18.925124 -98.192870
vn -0.000000 18.925124 -98.192870
vn -0.000000 9.505604 -99.547192
vn -0.000000 9.505604 -99.547192
vn 0.000000 -0.000000 -100.000000
vn 0.000000 -0.000000 -100.000000
vn 0.000000 -9.505604 -99.547192
vn 0.000000 -9.505604 -99.547192
vn 0.000000 -18.925124 -98.192870
vn 0.000000 -9.505604 99.547192
vn 0.000000 -18.925124 98.192870
vn 0.000000 -18.925124 98.192870
vn 0.000000 -28.173256 95.949297
vn 0.000000 -28.173256 95.949297
vn 0.000000 -37.166246 92.836793
vn 0.000000 -37.166246 92.836793
vn 0.000000 -45.822652 88.883545
vn 0.000000 -45.822652 88.883545
vn 0.000000 -54.064082 84.125353
vn 0.000000 -54.064082 84.125353
vn 0.000000 -61.815899 78.605309
vn 0.000000 -61.815899 78.605309
vn 0.000000 -69.007901 72.373404
vn 0.000000 -69.007901 72.373404
vn 0.000000 -75.574957 65.486073
vn 0.000000 -75.574957 65.486073
vn 0.000000 -81.457595 58.005691
vn 0.000000 -81.457595 58.005691
vn 0.000000 -86.602540 50.000000
vn 0.000000 -86.602540 50.000000
vn 0.000000 -90.963200 41.541501
vn 0.000000 -90.963200 41.541501
vn 0.000000 -94.500082 32.706796
vn 0.000000 -94.500082 32.706796
vn 0.000000 -97.181157 23.575894
vn 0.000000 -97.181157 23.575894
vn 0.000000 -98.982144 14.231484
vn 0.000000 -98.982144 14.231484
vn 0.000000 -99.886734 4.758192
vn 0.000000 -99.886734 4.758192
vn 0.000000 -99.886734 -4.758192
vn 0.000000 -99.886734 -4.758192
vn 0.000000 -98.982144 -14.231484
vn 0.000000 -98.982144 -14.231484
vn 0.000000 -97.181157 -23.575894
vn 0.000000 -97.181157 -23.575894
vn 0.000000 -94.500082 -32.706796
vn 0.000000 -94.500082 -32.706796
vn 0.000000 -90.963200 -41.541501
vn 0.000000 -90.963200 -41.541501
vn 0.000000 -86.602540 -50.000000
vn 0.000000 -86.602540 -50.000000
vn 0.000000 -81.457595 -58.005691
vn 0.000000 -81.457595 -58.005691
vn 0.000000 -75.574957 -65.486073
vn 0.000000 -75.574957 -65.486073
vn 0.000000 -69.007901 -72.373404
vn 0.000000 -69.007901 -72.373404
vn 0.000000 -61.815899 -78.605309
vn 0.000000 -61.815899 -78.605309
vn 0.000000 -54.064082 -84.125353
vn 0.000000 -54.064082 -84.125353
vn 0.000000 -45.822652 -88.883545
vn 0.000000 -45.822652 -88.883545
vn 0.000000 -37.166246 -92.836793
vn 0.000000 -37.166246 -92.836793
vn 0.000000 -28.173256 -95.949297
vn 0.000000 -28.173256 -95.949297
vn 0.000000 -18.925124 -98.192870
vn 100.000000 0.000000 -0.000000
vn 100.000000 0.000000 -0.000000
vn 100.000000 0.000000 -0.000000
vn 100.000000 0.000000 -0.000000
vn 100.000000 0.000000 -0.000000
vn 100.000000 0.000000 -0.000000
vn 100.000000 0.000000 -0.000000
vn 100.000000 0.000000 -0.000000
vn 100.000000 0.000000 -0.000000
vn 100.000000 0.000000 -0.000000
vn 100.000000 0.000000 -0.000000
vn 100.000000 0.000000 -0.000000
vn 100.000000 0.000000 -0.000000
vn 100.000000 0.000000 -0.000000
vn 100.000000 0.000000 -0.000000
vn 100.000000 0.000000 -0.000000
vn 100.000000 0.000000 -0.000000
vn 100.000000 0.000000 -0.000000
vn 100.000000 0.000000 -0.000000
vn 100.000000 0.000000 -0.000000
vn 100.000000 0.000000 -0.000000
vn 100.000000 0.000000 -0.000000
vn 100.000000 0.000000 -0.000000
vn 100.000000 0.000000 -0.000000
vn 100.000000 0.000000 -0.000000
vn 100.000000 0.000000 -0.000000
vn 100.000000 0.000000 -0.000000
vn 100.000000 0.000000 -0.000000
vn 100.000000 0.000000 -0.000000
vn 100.000000 0.000000 -0.000000
vn 100.000000 0.000000 -0.000000
vn 100.000000 0.000000 -0.000000
vn 100.000000 0.000000 -0.000000
vn 100.000000 0.000000 -0.000000
vn 100.000000 0.000000 -0.000000
vn 100.000000 0.000000 -0.000000
vn 100.000000 0.000000 -0.000000
vn 100.000000 0.000000 -0.000000
vn 100.000000 0.000000 -0.000000
vn 100.000000 0.000000 -0.000000
vn 100.000000 0.000000 -0.000000
vn 100.000000 0.000000 -0.000000
vn 100.000000 0.000000 -0.000000
vn 100.000000 0.000000 -0.000000
vn 100.000000 0.000000 -0.000000
vn 100.000000 0.000000 -0.000000
vn 100.000000 0.000000 -0.000000
vn 100.000000 0.000000 -0.000000
vn 100.000000 0.000000 -0.000000
vn 100.000000 0.000000 -0.000000
vn 100.000000 0.000000 -0.000000
vn 100.000000 0.000000 -0.000000
vn 100.000000 0.000000 -0.000000
vn 100.000000 0.000000 -0.000000
vn 100.000000 0.000000 -0.000000
vn 100.000000 0.000000 -0.000000
vn 100.000000 0.000000 -0.000000
vn 100.000000 0.000000 -0.000000
vn 100.000000 0.000000 -0.000000
vn 100.000000 0.000000 -0.000000
vn 100.000000 0.000000 -0.000000
vn 100.000000 0.000000 -0.000000
vn 100.000000 0.000000 -0.000000
vn 100.000000 0.000000 -0.000000
vn 100.000000 0.000000 -0.000000
vn 100.000000 0.000000 -0.000000
vn -100.000000 -0.000000 0.000000
vn -100.000000 -0.000000 0.000000
vn -100.000000 -0.000000 0.000000
vn -100.000000 -0.000000 0.000000
vn -100.000000 -0.000000 0.000000
vn -100.000000 -0.000000 0.000000
vn -100.000000 -0.000000 0.000000
vn -100.000000 -0.000000 0.000000
vn -100.000000 -0.000000 0.000000
vn -100.000000 -0.000000 0.000000
vn -100.000000 -0.000000 0.000000
vn -100.000000 -0.000000 0.000000
vn -100.000000 -0.000000 0.000000
vn -100.000000 -0.000000 0.000000
vn -100.000000 -0.000000 0.000000
vn -100.000000 -0.000000 0.000000
vn -100.000000 -0.000000 0.000000
vn -100.000000 -0.000000 0.000000
vn -100.000000 -0.000000 0.000000
vn -100.000000 -0.000000 0.000000
vn -100.000000 -0.000000 0.000000
vn -100.000000 -0.000000 0.000000
vn -100.000000 -0.000000 0.000000
vn -100.000000 -0.000000 0.000000
vn -100.000000 -0.000000 0.000000
vn -100.000000 -0.000000 0.000000
vn -100.000000 -0.000000 0.000000
vn -100.000000 -0.000000 0.000000
vn -100.000000 -0.000000 0.000000
vn -100.000000 -0.000000 0.000000
vn -100.000000 -0.000000 0.000000
vn -100.000000 -0.000000 0.000000
vn -100.000000 -0.000000 0.000000
vn -100.000000 -0.000000 0.000000
vn -100.000000 -0.000000 0.000000
vn -100.000000 -0.000000 0.000000
vn -100.000000 -0.000000 0.000000
vn -100.000000 -0.000000 0.000000
vn -100.000000 -0.000000 0.000000
vn -100.000000 -0.000000 0.000000
vn -100.000000 -0.000000 0.000000
vn -100.000000 -0.000000 0.000000
vn -100.000000 -0.000000 0.000000
vn -100.000000 -0.000000 0.000000
vn -100.000000 -0.000000 0.000000
vn -100.000000 -0.000000 0.000000
vn -100.000000 -0.000000 0.000000
vn -100.000000 -0.000000 0.000000
vn -100.000000 -0.000000 0.000000
vn -100.000000 -0.000000 0.000000
vn -100.000000 -0.000000 0.000000
vn -100.000000 -0.000000 0.000000
vn -100.000000 -0.000000 0.000000
vn -100.000000 -0.000000 0.000000
vn -100.000000 -0.000000 0.000000
vn -100.000000 -0.000000 0.000000
vn -100.000000 -0.000000 0.000000
vn -100.000000 -0.000000 0.000000
vn -100.000000 -0.000000 0.000000
vn -100.000000 -0.000000 0.000000
vn -100.000000 -0.000000 0.000000
vn -100.000000 -0.000000 0.000000
vn -100.000000 -0.000000 0.000000
vn -100.000000 -0.000000 0.000000
vn -100.000000 -0.000000 0.000000
vn -100.000000 -0.000000 0.000000
usemtl Paint_-_Metal_Flake_(Aqua)
f 2/1/1 67/2/2 1/3/3
f 1/3/3 67/2/2 68/4/4
f 1/3/3 68/4/4 66/5/5
f 66/5/5 68/4/4 69/6/6
f 66/5/5 69/6/6 65/7/7
f 65/7/7 69/6/6 70/8/8
f 65/7/7 70/8/8 64/9/9
f 64/9/9 70/8/8 71/10/10
f 64/9/9 71/10/10 63/11/11
f 63/11/11 71/10/10 72/12/12
f 63/11/11 72/12/12 62/13/13
f 62/13/13 72/12/12 73/14/14
f 62/13/13 73/14/14 61/15/15
f 61/15/15 73/14/14 74/16/16
f 61/15/15 74/16/16 60/17/17
f 60/17/17 74/16/16 75/18/18
f 60/17/17 75/18/18 59/19/19
f 59/19/19 75/18/18 76/20/20
f 59/19/19 76/20/20 58/21/21
f 58/21/21 76/20/20 77/22/22
f 58/21/21 77/22/22 57/23/23
f 57/23/23 77/22/22 78/24/24
f 57/23/23 78/24/24 56/25/25
f 56/25/25 78/24/24 79/26/26
f 56/25/25 79/26/26 55/27/27
f 55/27/27 79/26/26 80/28/28
f 55/27/27 80/28/28 54/29/29
f 54/29/29 80/28/28 81/30/30
f 54/29/29 81/30/30 53/31/31
f 53/31/31 81/30/30 82/32/32
f 53/31/31 82/32/32 52/33/33
f 52/33/33 82/32/32 83/34/34
f 52/33/33 83/34/34 51/35/35
f 51/35/35 83/34/34 84/36/36
f 51/35/35 84/36/36 50/37/37
f 50/37/37 84/36/36 85/38/38
f 50/37/37 85/38/38 49/39/39
f 49/39/39 85/38/38 86/40/40
f 49/39/39 86/40/40 48/41/41
f 48/41/41 86/40/40 87/42/42
f 48/41/41 87/42/42 47/43/43
f 47/43/43 87/42/42 88/44/44
f 47/43/43 88/44/44 46/45/45
f 46/45/45 88/44/44 89/46/46
f 46/45/45 89/46/46 45/47/47
f 45/47/47 89/46/46 90/48/48
f 45/47/47 90/48/48 44/49/49
f 44/49/49 90/48/48 91/50/50
f 44/49/49 91/50/50 43/51/51
f 43/51/51 91/50/50 92/52/52
f 43/51/51 92/52/52 42/53/53
f 42/53/53 92/52/52 93/54/54
f 42/53/53 93/54/54 41/55/55
f 41/55/55 93/54/54 94/56/56
f 41/55/55 94/56/56 40/57/57
f 40/57/57 94/56/56 95/58/58
f 40/57/57 95/58/58 39/59/59
f 39/59/59 95/58/58 96/60/60
f 39/59/59 96/60/60 38/61/61
f 38/61/61 96/60/60 97/62/62
f 38/61/61 97/62/62 37/63/63
f 37/63/63 97/62/62 98/64/64
f 37/63/63 98/64/64 36/65/65
f 36/65/65 98/64/64 99/66/66
f 36/65/65 99/66/66 35/67/67
f 35/67/67 99/66/66 34/68/68
f 34/68/68 99/66/66 100/69/69
f 34/70/68 100/71/69 33/72/70
f 33/72/70 100/71/69 101/73/71
f 33/72/70 101/73/71 102/74/72
f 67/2/2 2/1/1 132/75/73
f 132/75/73 2/1/1 3/76/74
f 132/75/73 3/76/74 131/77/75
f 131/77/75 3/76/74 4/78/76
f 131/77/75 4/78/76 130/79/77
f 130/79/77 4/78/76 5/80/78
f 130/79/77 5/80/78 129/81/79
f 129/81/79 5/80/78 6/82/80
f 129/81/79 6/82/80 128/83/81
f 128/83/81 6/82/80 7/84/82
f 128/83/81 7/84/82 127/85/83
f 127/85/83 7/84/82 8/86/84
f 127/85/83 8/86/84 126/87/85
f 126/87/85 8/86/84 9/88/86
f 126/87/85 9/88/86 125/89/87
f 125/89/87 9/88/86 10/90/88
f 125/89/87 10/90/88 124/91/89
f 124/91/89 10/90/88 11/92/90
f 124/91/89 11/92/90 123/93/91
f 123/93/91 11/92/90 12/94/92
f 123/93/91 12/94/92 122/95/93
f 122/95/93 12/94/92 13/96/94
f 122/95/93 13/96/94 121/97/95
f 121/97/95 13/96/94 14/98/96
f 121/97/95 14/98/96 120/99/97
f 120/99/97 14/98/96 15/100/98
f 120/99/97 15/100/98 119/101/99
f 119/101/99 15/100/98 16/102/100
f 119/101/99 16/102/100 118/103/101
f 118/103/101 16/102/100 17/104/102
f 118/103/101 17/104/102 117/105/103
f 117/105/103 17/104/102 18/106/104
f 117/105/103 18/106/104 116/107/105
f 116/107/105 18/106/104 19/108/106
f 116/107/105 19/108/106 115/109/107
f 115/109/107 19/108/106 20/110/108
f 115/109/107 20/110/108 114/111/109
f 114/111/109 20/110/108 21/112/110
f 114/111/109 21/112/110 113/113/111
f 113/113/111 21/112/110 22/114/112
f 113/113/111 22/114/112 112/115/113
f 112/115/113 22/114/112 23/116/114
f 112/115/113 23/116/114 111/117/115
f 111/117/115 23/116/114 24/118/116
f 111/117/115 24/118/116 110/119/117
f 110/119/117 24/118/116 25/120/118
f 110/119/117 25/120/118 109/121/119
f 109/121/119 25/120/118 26/122/120
f 109/121/119 26/122/120 108/123/121
f 108/123/121 26/122/120 27/124/122
f 108/123/121 27/124/122 107/125/123
f 107/125/123 27/124/122 28/126/124
f 107/125/123 28/126/124 106/127/125
f 106/127/125 28/126/124 29/128/126
f 106/127/125 29/128/126 105/129/127
f 105/129/127 29/128/126 30/130/128
f 105/129/127 30/130/128 104/131/129
f 104/131/129 30/130/128 31/132/130
f 104/131/129 31/132/130 103/133/131
f 103/133/131 31/132/130 32/134/132
f 103/133/131 32/134/132 102/74/72
f 102/74/72 32/134/132 33/72/70
f 132/135/133 101/136/134 67/137/135
f 67/137/135 101/136/134 100/138/136
f 67/137/135 100/138/136 68/139/137
f 68/139/137 100/138/136 99/140/138
f 68/139/137 99/140/138 69/141/139
f 69/141/139 99/140/138 98/142/140
f 69/141/139 98/142/140 70/143/141
f 70/143/141 98/142/140 97/144/142
f 70/143/141 97/144/142 71/145/143
f 71/145/143 97/144/142 96/146/144
f 71/145/143 96/146/144 72/147/145
f 72/147/145 96/146/144 95/148/146
f 72/147/145 95/148/146 73/149/147
f 73/149/147 95/148/146 94/150/148
f 73/149/147 94/150/148 74/151/149
f 74/151/149 94/150/148 93/152/150
f 74/151/149 93/152/150 75/153/151
f 75/153/151 93/152/150 92/154/152
f 75/153/151 92/154/152 76/155/153
f 76/155/153 92/154/152 91/156/154
f 76/155/153 91/156/154 77/157/155
f 77/157/155 91/156/154 90/158/156
f 77/157/155 90/158/156 78/159/157
f 78/159/157 90/158/156 89/160/158
f 78/159/157 89/160/158 79/161/159
f 79/161/159 89/160/158 88/162/160
f 79/161/159 88/162/160 80/163/161
f 80/163/161 88/162/160 87/164/162
f 80/163/161 87/164/162 81/165/163
f 81/165/163 87/164/162 86/166/164
f 81/165/163 86/166/164 82/167/165
f 82/167/165 86/166/164 85/168/166
f 82/167/165 85/168/166 83/169/167
f 83/169/167 85/168/166 84/170/168
f 101/136/134 132/135/133 102/171/169
f 102/171/169 132/135/133 131/172/170
f 102/171/169 131/172/170 103/173/171
f 103/173/171 131/172/170 130/174/172
f 103/173/171 130/174/172 104/175/173
f 104/175/173 130/174/172 129/176/174
f 104/175/173 129/176/174 105/177/175
f 105/177/175 129/176/174 128/178/176
f 105/177/175 128/178/176 106/179/177
f 106/179/177 128/178/176 127/180/178
f 106/179/177 127/180/178 107/181/179
f 107/181/179 127/180/178 126/182/180
f 107/181/179 126/182/180 108/183/181
f 108/183/181 126/182/180 125/184/182
f 108/183/181 125/184/182 109/185/183
f 109/185/183 125/184/182 124/186/184
f 109/185/183 124/186/184 110/187/185
f 110/187/185 124/186/184 123/188/186
f 110/187/185 123/188/186 111/189/187
f 111/189/187 123/188/186 122/190/188
f 111/189/187 122/190/188 112/191/189
f 112/191/189 122/190/188 121/192/190
f 112/191/189 121/192/190 113/193/191
f 113/193/191 121/192/190 120/194/192
f 113/193/191 120/194/192 114/195/193
f 114/195/193 120/194/192 119/196/194
f 114/195/193 119/196/194 115/197/195
f 115/197/195 119/196/194 118/198/196
f 115/197/195 118/198/196 116/199/197
f 116/199/197 118/198/196 117/200/198
f 66/201/199 35/202/200 1/203/201
f 1/203/201 35/202/200 34/204/202
f 1/203/201 34/204/202 2/205/203
f 2/205/203 34/204/202 33/206/204
f 2/205/203 33/206/204 3/207/205
f 3/207/205 33/206/204 32/208/206
f 3/207/205 32/208/206 4/209/207
f 4/209/207 32/208/206 31/210/208
f 4/209/207 31/210/208 5/211/209
f 5/211/209 31/210/208 30/212/210
f 5/211/209 30/212/210 6/213/211
f 6/213/211 30/212/210 29/214/212
f 6/213/211 29/214/212 7/215/213
f 7/215/213 29/214/212 28/216/214
f 7/215/213 28/216/214 8/217/215
f 8/217/215 28/216/214 27/218/216
f 8/217/215 27/218/216 9/219/217
f 9/219/217 27/218/216 26/220/218
f 9/219/217 26/220/218 10/221/219
f 10/221/219 26/220/218 25/222/220
f 10/221/219 25/222/220 11/223/221
f 11/223/221 25/222/220 24/224/222
f 11/223/221 24/224/222 12/225/223
f 12/225/223 24/224/222 23/226/224
f 12/225/223 23/226/224 13/227/225
f 13/227/225 23/226/224 22/228/226
f 13/227/225 22/228/226 14/229/227
f 14/229/227 22/228/226 21/230/228
f 14/229/227 21/230/228 15/231/229
f 15/231/229 21/230/228 20/232/230
f 15/231/229 20/232/230 16/233/231
f 16/233/231 20/232/230 19/234/232
f 16/233/231 19/234/232 17/235/233
f 17/235/233 19/234/232 18/236/234
f 35/202/200 66/201/199 36/237/235
f 36/237/235 66/201/199 65/238/236
f 36/237/235 65/238/236 37/239/237
f 37/239/237 65/238/236 64/240/238
f 37/239/237 64/240/238 38/241/239
f 38/241/239 64/240/238 63/242/240
f 38/241/239 63/242/240 39/243/241
f 39/243/241 63/242/240 62/244/242
f 39/243/241 62/244/242 40/245/243
f 40/245/243 62/244/242 61/246/244
f 40/245/243 61/246/244 41/247/245
f 41/247/245 61/246/244 60/248/246
f 41/247/245 60/248/246 42/249/247
f 42/249/247 60/248/246 59/250/248
f 42/249/247 59/250/248 43/251/249
f 43/251/249 59/250/248 58/252/250
f 43/251/249 58/252/250 44/253/251
f 44/253/251 58/252/250 57/254/252
f 44/253/251 57/254/252 45/255/253
f 45/255/253 57/254/252 56/256/254
f 45/255/253 56/256/254 46/257/255
f 46/257/255 56/256/254 55/258/256
f 46/257/255 55/258/256 47/259/257
f 47/259/257 55/258/256 54/260/258
f 47/259/257 54/260/258 48/261/259
f 48/261/259 54/260/258 53/262/260
f 48/261/259 53/262/260 49/263/261
f 49/263/261 53/262/260 52/264/262
f 49/263/261 52/264/262 50/265/263
f 50/265/263 52/264/262 51/266/264
g Body2

v 0.005000 0.000000 0.060000
v 0.005000 -0.005703 0.059728
v 0.005000 -0.011355 0.058916
v 0.005000 -0.016904 0.057570
v 0.005000 -0.022300 0.055702
v 0.005000 -0.027494 0.053330
v 0.005000 -0.032438 0.050475
v 0.005000 -0.037090 0.047163
v 0.005000 -0.041405 0.043424
v 0.005000 -0.045345 0.039292
v 0.005000 -0.048875 0.034803
v 0.005000 -0.051962 0.030000
v 0.005000 -0.054578 0.024925
v 0.005000 -0.056700 0.019624
v 0.005000 -0.058309 0.014146
v 0.005000 -0.059389 0.008539
v 0.005000 -0.059932 0.002855
v 0.005000 -0.059932 -0.002855
v 0.005000 -0.059389 -0.008539
v 0.005000 -0.058309 -0.014146
v 0.005000 -0.056700 -0.019624
v 0.005000 -0.054578 -0.024925
v 0.005000 -0.051962 -0.030000
v 0.005000 -0.048875 -0.034803
v 0.005000 -0.045345 -0.039292
v 0.005000 -0.041405 -0.043424
v 0.005000 -0.037090 -0.047163
v 0.005000 -0.032438 -0.050475
v 0.005000 -0.027494 -0.053330
v 0.005000 -0.022300 -0.055702
v 0.005000 -0.016904 -0.057570
v 0.005000 -0.011355 -0.058916
v 0.005000 -0.005703 -0.059728
v 0.005000 -0.000000 -0.060000
v 0.005000 0.005703 -0.059728
v 0.005000 0.011355 -0.058916
v 0.005000 0.016904 -0.057570
v 0.005000 0.022300 -0.055702
v 0.005000 0.027494 -0.053330
v 0.005000 0.032438 -0.050475
v 0.005000 0.037090 -0.047163
v 0.005000 0.041405 -0.043424
v 0.005000 0.045345 -0.039292
v 0.005000 0.048875 -0.034803
v 0.005000 0.051962 -0.030000
v 0.005000 0.054578 -0.024925
v 0.005000 0.056700 -0.019624
v 0.005000 0.058309 -0.014146
v 0.005000 0.059389 -0.008539
v 0.005000 0.059932 -0.002855
v 0.005000 0.059932 0.002855
v 0.005000 0.059389 0.008539
v 0.005000 0.058309 0.014146
v 0.005000 0.056700 0.019624
v 0.005000 0.054578 0.024925
v 0.005000 0.051962 0.030000
v 0.005000 0.048875 0.034803
v 0.005000 0.045345 0.039292
v 0.005000 0.041405 0.043424
v 0.005000 0.037090 0.047163
v 0.005000 0.032438 0.050475
v 0.005000 0.027494 0.053330
v 0.005000 0.022300 0.055702
v 0.005000 0.016904 0.057570
v 0.005000 0.011355 0.058916
v 0.005000 0.005703 0.059728
v 0.000000 0.000000 0.060000
v 0.000000 -0.005703 0.059728
v 0.000000 -0.011355 0.058916
v 0.000000 -0.016904 0.057570
v 0.000000 -0.022300 0.055702
v 0.000000 -0.027494 0.053330
v 0.000000 -0.032438 0.050475
v 0.000000 -0.037090 0.047163
v 0.000000 -0.041405 0.043424
v 0.000000 -0.045345 0.039292
v 0.000000 -0.048875 0.034803
v 0.000000 -0.051962 0.030000
v 0.000000 -0.054578 0.024925
v 0.000000 -0.056700 0.019624
v 0.000000 -0.058309 0.014146
v 0.000000 -0.059389 0.008539
v 0.000000 -0.059932 0.002855
v 0.000000 -0.059932 -0.002855
v 0.000000 -0.059389 -0.008539
v 0.000000 -0.058309 -0.014146
v 0.000000 -0.056700 -0.019624
v 0.000000 -0.054578 -0.024925
v 0.000000 -0.051962 -0.030000
v -0.000000 -0.048875 -0.034803
v -0.000000 -0.045345 -0.039292
v -0.000000 -0.041405 -0.043424
v -0.000000 -0.037090 -0.047163
v -0.000000 -0.032438 -0.050475
v -0.000000 -0.027494 -0.053330
v -0.000000 -0.022300 -0.055702
v -0.000000 -0.016904 -0.057570
v -0.000000 -0.011355 -0.058916
v -0.000000 -0.005703 -0.059728
v -0.000000 -0.000000 -0.060000
v -0.000000 0.005703 -0.059728
v -0.000000 0.011355 -0.058916
v -0.000000 0.016904 -0.057570
v -0.000000 0.022300 -0.055702
v -0.000000 0.027494 -0.053330
v -0.000000 0.032438 -0.050475
v -0.000000 0.037090 -0.047163
v -0.000000 0.041405 -0.043424
v -0.000000 0.045345 -0.039292
v -0.000000 0.048875 -0.034803
v -0.000000 0.051962 -0.030000
v -0.000000 0.054578 -0.024925
v -0.000000 0.056700 -0.019624
v -0.000000 0.058309 -0.014146
v -0.000000 0.059389 -0.008539
v -0.000000 0.059932 -0.002855
v -0.000000 0.059932 0.002855
v -0.000000 0.059389 0.008539
v -0.000000 0.058309 0.014146
v -0.000000 0.056700 0.019624
v -0.000000 0.054578 0.024925
v -0.000000 0.051962 0.030000
v 0.000000 0.048875 0.034803
v 0.000000 0.045345 0.039292
v 0.000000 0.041405 0.043424
v 0.000000 0.037090 0.047163
v 0.000000 0.032438 0.050475
v 0.000000 0.027494 0.053330
v 0.000000 0.022300 0.055702
v 0.000000 0.016904 0.057570
v 0.000000 0.011355 0.058916
v 0.000000 0.005703 0.059728
vt 5.972832 0.570336 0.000000
vt -5.972832 0.570336 0.000000
vt 6.000000 -0.000000 0.000000
vt -6.000000 0.000000 0.000000
vt 5.972832 -0.570336 0.000000
vt -5.972832 -0.570336 0.000000
vt 5.891572 -1.135507 0.000000
vt -5.891572 -1.135507 0.000000
vt 5.756958 -1.690395 0.000000
vt -5.756958 -1.690395 0.000000
vt 5.570208 -2.229975 0.000000
vt -5.570208 -2.229975 0.000000
vt 5.333013 -2.749359 0.000000
vt -5.333013 -2.749359 0.000000
vt 5.047521 -3.243845 0.000000
vt -5.047521 -3.243845 0.000000
vt 4.716319 -3.708954 0.000000
vt -4.716319 -3.708954 0.000000
vt 4.342404 -4.140474 0.000000
vt -4.342404 -4.140474 0.000000
vt 3.929164 -4.534497 0.000000
vt -3.929164 -4.534497 0.000000
vt 3.480341 -4.887456 0.000000
vt -3.480341 -4.887456 0.000000
vt 3.000000 -5.196152 0.000000
vt -3.000000 -5.196152 0.000000
vt 2.492490 -5.457792 0.000000
vt -2.492490 -5.457792 0.000000
vt 1.962408 -5.670005 0.000000
vt -1.962408 -5.670005 0.000000
vt 1.414554 -5.830869 0.000000
vt -1.414554 -5.830869 0.000000
vt 0.853889 -5.938929 0.000000
vt -0.853889 -5.938929 0.000000
vt 0.285491 -5.993204 0.000000
vt -0.285491 -5.993204 0.000000
vt -5.891572 1.135507 0.000000
vt 5.891572 1.135507 0.000000
vt -5.756958 1.690395 0.000000
vt 5.756958 1.690395 0.000000
vt -5.570208 2.229975 0.000000
vt 5.570208 2.229975 0.000000
vt -5.333013 2.749359 0.000000
vt 5.333013 2.749359 0.000000
vt -5.047521 3.243845 0.000000
vt 5.047521 3.243845 0.000000
vt -4.716319 3.708954 0.000000
vt 4.716319 3.708954 0.000000
vt -4.342404 4.140474 0.000000
vt 4.342404 4.140474 0.000000
vt -3.929164 4.534497 0.000000
vt 3.929164 4.534497 0.000000
vt -3.480341 4.887456 0.000000
vt 3.480341 4.887456 0.000000
vt -3.000000 5.196152 0.000000
vt 3.000000 5.196152 0.000000
vt -2.492490 5.457792 0.000000
vt 2.492490 5.457792 0.000000
vt -1.962408 5.670005 0.000000
vt 1.962408 5.670005 0.000000
vt -1.414554 5.830869 0.000000
vt 1.414554 5.830869 0.000000
vt -0.853889 5.938929 0.000000
vt 0.853889 5.938929 0.000000
vt -0.285491 5.993204 0.000000
vt 0.285491 5.993204 0.000000
vt -9.500000 0.571199 0.000000
vt -10.000000 0.000000 0.000000
vt -9.500000 0.000000 0.000000
vt -10.000000 -0.571199 0.000000
vt -9.500000 -0.571199 0.000000
vt -10.000000 -1.142397 0.000000
vt -9.500000 -1.142397 0.000000
vt -10.000000 -1.713596 0.000000
vt -9.500000 -1.713596 0.000000
vt -10.000000 -2.284795 0.000000
vt -9.500000 -2.284795 0.000000
vt -10.000000 -2.855993 0.000000
vt -9.500000 -2.855993 0.000000
vt -10.000000 -3.427192 0.000000
vt -9.500000 -3.427192 0.000000
vt -10.000000 -3.998391 0.000000
vt -9.500000 -3.998391 0.000000
vt -10.000000 -4.569589 0.000000
vt -9.500000 -4.569589 0.000000
vt -10.000000 -5.140788 0.000000
vt -9.500000 -5.140788 0.000000
vt -10.000000 -5.711987 0.000000
vt -9.500000 -5.711987 0.000000
vt -10.000000 -6.283185 0.000000
vt -9.500000 -6.283185 0.000000
vt -10.000000 -6.854384 0.000000
vt -9.500000 -6.854384 0.000000
vt -10.000000 -7.425583 0.000000
vt -9.500000 -7.425583 0.000000
vt -10.000000 -7.996781 0.000000
vt -9.500000 -7.996781 0.000000
vt -10.000000 -8.567980 0.000000
vt -9.500000 -8.567980 0.000000
vt -10.000000 -9.139179 0.000000
vt -9.500000 -9.139179 0.000000
vt -10.000000 -9.710377 0.000000
vt -9.500000 -9.710377 0.000000
vt -10.000000 -10.281576 0.000000
vt -9.500000 -10.281576 0.000000
vt -10.000000 -10.852775 0.000000
vt -9.500000 -10.852775 0.000000
vt -10.000000 -11.423973 0.000000
vt -9.500000 -11.423973 0.000000
vt -10.000000 -11.995172 0.000000
vt -9.500000 -11.995172 0.000000
vt -10.000000 -12.566371 0.000000
vt -9.500000 -12.566371 0.000000
vt -10.000000 -13.137569 0.000000
vt -9.500000 -13.137569 0.000000
vt -10.000000 -13.708768 0.000000
vt -9.500000 -13.708768 0.000000
vt -10.000000 -14.279967 0.000000
vt -9.500000 -14.279967 0.000000
vt -10.000000 -14.851165 0.000000
vt -9.500000 -14.851165 0.000000
vt -10.000000 -15.422364 0.000000
vt -9.500000 -15.422364 0.000000
vt -10.000000 -15.993563 0.000000
vt -9.500000 -15.993563 0.000000
vt -10.000000 -16.564761 0.000000
vt -9.500000 -16.564761 0.000000
vt -10.000000 -17.135960 0.000000
vt -9.500000 -17.135960 0.000000
vt -10.000000 -17.707159 0.000000
vt -9.500000 -17.707159 0.000000
vt -10.000000 -18.278357 0.000000
vt -9.500000 -18.278357 0.000000
vt -9.500000 -18.849556 0.000000
vt -10.000000 -18.849556 0.000000
vt -9.500000 18.849556 0.000000
vt -10.000000 18.849556 0.000000
vt -9.500000 18.278357 0.000000
vt -10.000000 18.278357 0.000000
vt -10.000000 17.707159 0.000000
vt -10.000000 0.571199 0.000000
vt -9.500000 1.142397 0.000000
vt -10.000000 1.142397 0.000000
vt -9.500000 1.713596 0.000000
vt -10.000000 1.713596 0.000000
vt -9.500000 2.284795 0.000000
vt -10.000000 2.284795 0.000000
vt -9.500000 2.855993 0.000000
vt -10.000000 2.855993 0.000000
vt -9.500000 3.427192 0.000000
vt -10.000000 3.427192 0.000000
vt -9.500000 3.998391 0.000000
vt -10.000000 3.998391 0.000000
vt -9.500000 4.569589 0.000000
vt -10.000000 4.569589 0.000000
vt -9.500000 5.140788 0.000000
vt -10.000000 5.140788 0.000000
vt -9.500000 5.711987 0.000000
vt -10.000000 5.711987 0.000000
vt -9.500000 6.283185 0.000000
vt -10.000000 6.283185 0.000000
vt -9.500000 6.854384 0.000000
vt -10.000000 6.854384 0.000000
vt -9.500000 7.425583 0.000000
vt -10.000000 7.425583 0.000000
vt -9.500000 7.996781 0.000000
vt -10.000000 7.996781 0.000000
vt -9.500000 8.567980 0.000000
vt -10.000000 8.567980 0.000000
vt -9.500000 9.139179 0.000000
vt -10.000000 9.139179 0.000000
vt -9.500000 9.710377 0.000000
vt -10.000000 9.710377 0.000000
vt -9.500000 10.281576 0.000000
vt -10.000000 10.281576 0.000000
vt -9.500000 10.852775 0.000000
vt -10.000000 10.852775 0.000000
vt -9.500000 11.423973 0.000000
vt -10.000000 11.423973 0.000000
vt -9.500000 11.995172 0.000000
vt -10.000000 11.995172 0.000000
vt -9.500000 12.566371 0.000000
vt -10.000000 12.566371 0.000000
vt -9.500000 13.137569 0.000000
vt -10.000000 13.137569 0.000000
vt -9.500000 13.708768 0.000000
vt -10.000000 13.708768 0.000000
vt -9.500000 14.279967 0.000000
vt -10.000000 14.279967 0.000000
vt -9.500000 14.851165 0.000000
vt -10.000000 14.851165 0.000000
vt -9.500000 15.422364 0.000000
vt -10.000000 15.422364 0.000000
vt -9.500000 15.993563 0.000000
vt -10.000000 15.993563 0.000000
vt -9.500000 16.564761 0.000000
vt -10.000000 16.564761 0.000000
vt -9.500000 17.135960 0.000000
vt -10.000000 17.135960 0.000000
vt -9.500000 17.707159 0.000000
vt -5.972832 -0.570336 0.000000
vt 5.972832 -0.570336 0.000000
vt -6.000000 -0.000000 0.000000
vt 6.000000 0.000000 0.000000
vt -5.972832 0.570336 0.000000
vt 5.972832 0.570336 0.000000
vt -5.891572 1.135507 0.000000
vt 5.891572 1.135507 0.000000
vt -5.756958 1.690395 0.000000
vt 5.756958 1.690395 0.000000
vt -5.570208 2.229975 0.000000
vt 5.570208 2.229975 0.000000
vt -5.333013 2.749359 0.000000
vt 5.333013 2.749359 0.000000
vt -5.047521 3.243845 0.000000
vt 5.047521 3.243845 0.000000
vt -4.716319 3.708954 0.000000
vt 4.716319 3.708954 0.000000
vt -4.342404 4.140474 0.000000
vt 4.342404 4.140474 0.000000
vt -3.929164 4.534497 0.000000
vt 3.929164 4.534497 0.000000
vt -3.480341 4.887456 0.000000
vt 3.480341 4.887456 0.000000
vt -3.000000 5.196152 0.000000
vt 3.000000 5.196152 0.000000
vt -2.492490 5.457792 0.000000
vt 2.492490 5.457792 0.000000
vt -1.962408 5.670005 0.000000
vt 1.962408 5.670005 0.000000
vt -1.414554 5.830869 0.000000
vt 1.414554 5.830869 0.000000
vt -0.853889 5.938929 0.000000
vt 0.853889 5.938929 0.000000
vt -0.285491 5.993204 0.000000
vt 0.285491 5.993204 0.000000
vt 5.891572 -1.135507 0.000000
vt -5.891572 -1.135507 0.000000
vt 5.756958 -1.690395 0.000000
vt -5.756958 -1.690395 0.000000
vt 5.570208 -2.229975 0.000000
vt -5.570208 -2.229975 0.000000
vt 5.333013 -2.749359 0.000000
vt -5.333013 -2.749359 0.000000
vt 5.047521 -3.243845 0.000000
vt -5.047521 -3.243845 0.000000
vt 4.716319 -3.708954 0.000000
vt -4.716319 -3.708954 0.000000
vt 4.342404 -4.140474 0.000000
vt -4.342404 -4.140474 0.000000
vt 3.929164 -4.534497 0.000000
vt -3.929164 -4.534497 0.000000
vt 3.480341 -4.887456 0.000000
vt -3.480341 -4.887456 0.000000
vt 3.000000 -5.196152 0.000000
vt -3.000000 -5.196152 0.000000
vt 2.492490 -5.457792 0.000000
vt -2.492490 -5.457792 0.000000
vt 1.962408 -5.670005 0.000000
vt -1.962408 -5.670005 0.000000
vt 1.414554 -5.830869 0.000000
vt -1.414554 -5.830869 0.000000
vt 0.853889 -5.938929 0.000000
vt -0.853889 -5.938929 0.000000
vt 0.285491 -5.993204 0.000000
vt -0.285491 -5.993204 0.000000
vn 100.000000 0.000000 -0.000000
vn 100.000000 0.000000 -0.000000
vn 100.000000 0.000000 -0.000000
vn 100.000000 0.000000 -0.000000
vn 100.000000 0.000000 -0.000000
vn 100.000000 0.000000 -0.000000
vn 100.000000 0.000000 -0.000000
vn 100.000000 0.000000 -0.000000
vn 100.000000 0.000000 -0.000000
vn 100.000000 0.000000 -0.000000
vn 100.000000 0.000000 -0.000000
vn 100.000000 0.000000 -0.000000
vn 100.000000 0.000000 -0.000000
vn 100.000000 0.000000 -0.000000
vn 100.000000 0.000000 -0.000000
vn 100.000000 0.000000 -0.000000
vn 100.000000 0.000000 -0.000000
vn 100.000000 0.000000 -0.000000
vn 100.000000 0.000000 -0.000000
vn 100.000000 0.000000 -0.000000
vn 100.000000 0.000000 -0.000000
vn 100.000000 0.000000 -0.000000
vn 100.000000 0.000000 -0.000000
vn 100.000000 0.000000 -0.000000
vn 100.000000 0.000000 -0.000000
vn 100.000000 0.000000 -0.000000
vn 100.000000 0.000000 -0.000000
vn 100.000000 0.000000 -0.000000
vn 100.000000 0.000000 -0.000000
vn 100.000000 0.000000 -0.000000
vn 100.000000 0.000000 -0.000000
vn 100.000000 0.000000 -0.000000
vn 100.000000 0.000000 -0.000000
vn 100.000000 0.000000 -0.000000
vn 100.000000 0.000000 -0.000000
vn 100.000000 0.000000 -0.000000
vn 100.000000 0.000000 -0.000000
vn 100.000000 0.000000 -0.000000
vn 100.000000 0.000000 -0.000000
vn 100.000000 0.000000 -0.000000
vn 100.000000 0.000000 -0.000000
vn 100.000000 0.000000 -0.000000
vn 100.000000 0.000000 -0.000000
vn 100.000000 0.000000 -0.000000
vn 100.000000 0.000000 -0.000000
vn 100.000000 0.000000 -0.000000
vn 100.000000 0.000000 -0.000000
vn 100.000000 0.000000 -0.000000
vn 100.000000 0.000000 -0.000000
vn 100.000000 0.000000 -0.000000
vn 100.000000 0.000000 -0.000000
vn 100.000000 0.000000 -0.000000
vn 100.000000 0.000000 -0.000000
vn 100.000000 0.000000 -0.000000
vn 100.000000 0.000000 -0.000000
vn 100.000000 0.000000 -0.000000
vn 100.000000 0.000000 -0.000000
vn 100.000000 0.000000 -0.000000
vn 100.000000 0.000000 -0.000000
vn 100.000000 0.000000 -0.000000
vn 100.000000 0.000000 -0.000000
vn 100.000000 0.000000 -0.000000
vn 100.000000 0.000000 -0.000000
vn 100.000000 0.000000 -0.000000
vn 100.000000 0.000000 -0.000000
vn 100.000000 0.000000 -0.000000
vn -0.000000 9.505604 99.547192
vn -0.000000 0.000000 100.000000
vn -0.000000 0.000000 100.000000
vn 0.000000 -9.505604 99.547192
vn 0.000000 -9.505604 99.547192
vn 0.000000 -18.925124 98.192870
vn 0.000000 -18.925124 98.192870
vn 0.000000 -28.173256 95.949297
vn 0.000000 -28.173256 95.949297
vn 0.000000 -37.166246 92.836793
vn 0.000000 -37.166246 92.836793
vn 0.000000 -45.822652 88.883545
vn 0.000000 -45.822652 88.883545
vn 0.000000 -54.064082 84.125353
vn 0.000000 -54.064082 84.125353
vn 0.000000 -61.815899 78.605309
vn 0.000000 -61.815899 78.605309
vn 0.000000 -69.007901 72.373404
vn 0.000000 -69.007901 72.373404
vn 0.000000 -75.574957 65.486073
vn 0.000000 -75.574957 65.486073
vn 0.000000 -81.457595 58.005691
vn 0.000000 -81.457595 58.005691
vn 0.000000 -86.602540 50.000000
vn 0.000000 -86.602540 50.000000
vn 0.000000 -90.963200 41.541501
vn 0.000000 -90.963200 41.541501
vn 0.000000 -94.500082 32.706796
vn 0.000000 -94.500082 32.706796
vn 0.000000 -97.181157 23.575894
vn 0.000000 -97.181157 23.575894
vn 0.000000 -98.982144 14.231484
vn 0.000000 -98.982144 14.231484
vn 0.000000 -99.886734 4.758192
vn 0.000000 -99.886734 4.758192
vn 0.000000 -99.886734 -4.758192
vn 0.000000 -99.886734 -4.758192
vn 0.000000 -98.982144 -14.231484
vn 0.000000 -98.982144 -14.231484
vn 0.000000 -97.181157 -23.575894
vn 0.000000 -97.181157 -23.575894
vn 0.000000 -94.500082 -32.706796
vn 0.000000 -94.500082 -32.706796
vn 0.000000 -90.963200 -41.541501
vn 0.000000 -90.963200 -41.541501
vn 0.000000 -86.602540 -50.000000
vn 0.000000 -86.602540 -50.000000
vn 0.000000 -81.457595 -58.005691
vn 0.000000 -81.457595 -58.005691
vn 0.000000 -75.574957 -65.486073
vn 0.000000 -75.574957 -65.486073
vn 0.000000 -69.007901 -72.373404
vn 0.000000 -69.007901 -72.373404
vn 0.000000 -61.815899 -78.605309
vn 0.000000 -61.815899 -78.605309
vn 0.000000 -54.064082 -84.125353
vn 0.000000 -54.064082 -84.125353
vn 0.000000 -45.822652 -88.883545
vn 0.000000 -45.822652 -88.883545
vn 0.000000 -37.166246 -92.836793
vn 0.000000 -37.166246 -92.836793
vn 0.000000 -28.173256 -95.949297
vn 0.000000 -28.173256 -95.949297
vn 0.000000 -18.925124 -98.192870
vn 0.000000 -18.925124 -98.192870
vn 0.000000 -9.505604 -99.547192
vn 0.000000 -9.505604 -99.547192
vn 0.000000 -0.000000 -100.000000
vn 0.000000 -0.000000 -100.000000
vn -0.000000 9.505604 -99.547192
vn -0.000000 9.505604 -99.547192
vn -0.000000 18.925124 -98.192870
vn -0.000000 9.505604 99.547192
vn -0.000000 18.925124 98.192870
vn -0.000000 18.925124 98.192870
vn -0.000000 28.173256 95.949297
vn -0.000000 28.173256 95.949297
vn -0.000000 37.166246 92.836793
vn -0.000000 37.166246 92.836793
vn -0.000000 45.822652 88.883545
vn -0.000000 45.822652 88.883545
vn -0.000000 54.064082 84.125353
vn -0.000000 54.064082 84.125353
vn -0.000000 61.815899 78.605309
vn -0.000000 61.815899 78.605309
vn -0.000000 69.007901 72.373404
vn -0.000000 69.007901 72.373404
vn -0.000000 75.574957 65.486073
vn -0.000000 75.574957 65.486073
vn -0.000000 81.457595 58.005691
vn -0.000000 81.457595 58.005691
vn -0.000000 86.602540 50.000000
vn -0.000000 86.602540 50.000000
vn -0.000000 90.963200 41.541501
vn -0.000000 90.963200 41.541501
vn -0.000000 94.500082 32.706796
vn -0.000000 94.500082 32.706796
vn -0.000000 97.181157 23.575894
vn -0.000000 97.181157 23.575894
vn -0.000000 98.982144 14.231484
vn -0.000000 98.982144 14.231484
vn -0.000000 99.886734 4.758192
vn -0.000000 99.886734 4.758192
vn -0.000000 99.886734 -4.758192
vn -0.000000 99.886734 -4.758192
vn -0.000000 98.982144 -14.231484
vn -0.000000 98.982144 -14.231484
vn -0.000000 97.181157 -23.575894
vn -0.000000 97.181157 -23.575894
vn -0.000000 94.500082 -32.706796
vn -0.000000 94.500082 -32.706796
vn -0.000000 90.963200 -41.541501
vn -0.000000 90.963200 -41.541501
vn -0.000000 86.602540 -50.000000
vn -0.000000 86.602540 -50.000000
vn -0.000000 81.457595 -58.005691
vn -0.000000 81.457595 -58.005691
vn -0.000000 75.574957 -65.486073
vn -0.000000 75.574957 -65.486073
vn -0.000000 69.007901 -72.373404
vn -0.000000 69.007901 -72.373404
vn -0.000000 61.815899 -78.605309
vn -0.000000 61.815899 -78.605309
vn -0.000000 54.064082 -84.125353
vn -0.000000 54.064082 -84.125353
vn -0.000000 45.822652 -88.883545
vn -0.000000 45.822652 -88.883545
vn -0.000000 37.166246 -92.836793
vn -0.000000 37.166246 -92.836793
vn -0.000000 28.173256 -95.949297
vn -0.000000 28.173256 -95.949297
vn -0.000000 18.925124 -98.192870
vn -100.000000 -0.000000 0.000000
vn -100.000000 -0.000000 0.000000
vn -100.000000 -0.000000 0.000000
vn -100.000000 -0.000000 0.000000
vn -100.000000 -0.000000 0.000000
vn -100.000000 -0.000000 0.000000
vn -100.000000 -0.000000 0.000000
vn -100.000000 -0.000000 0.000000
vn -100.000000 -0.000000 0.000000
vn -100.000000 -0.000000 0.000000
vn -100.000000 -0.000000 0.000000
vn -100.000000 -0.000000 0.000000
vn -100.000000 -0.000000 0.000000
vn -100.000000 -0.000000 0.000000
vn -100.000000 -0.000000 0.000000
vn -100.000000 -0.000000 0.000000
vn -100.000000 -0.000000 0.000000
vn -100.000000 -0.000000 0.000000
vn -100.000000 -0.000000 0.000000
vn -100.000000 -0.000000 0.000000
vn -100.000000 -0.000000 0.000000
vn -100.000000 -0.000000 0.000000
vn -100.000000 -0.000000 0.000000
vn -100.000000 -0.000000 0.000000
vn -100.000000 -0.000000 0.000000
vn -100.000000 -0.000000 0.000000
vn -100.000000 -0.000000 0.000000
vn -100.000000 -0.000000 0.000000
vn -100.000000 -0.000000 0.000000
vn -100.000000 -0.000000 0.000000
vn -100.000000 -0.000000 0.000000
vn -100.000000 -0.000000 0.000000
vn -100.000000 -0.000000 0.000000
vn -100.000000 -0.000000 0.000000
vn -100.000000 -0.000000 0.000000
vn -100.000000 -0.000000 0.000000
vn -100.000000 -0.000000 0.000000
vn -100.000000 -0.000000 0.000000
vn -100.000000 -0.000000 0.000000
vn -100.000000 -0.000000 0.000000
vn -100.000000 -0.000000 0.000000
vn -100.000000 -0.000000 0.000000
vn -100.000000 -0.000000 0.000000
vn -100.000000 -0.000000 0.000000
vn -100.000000 -0.000000 0.000000
vn -100.000000 -0.000000 0.000000
vn -100.000000 -0.000000 0.000000
vn -100.000000 -0.000000 0.000000
vn -100.000000 -0.000000 0.000000
vn -100.000000 -0.000000 0.000000
vn -100.000000 -0.000000 0.000000
vn -100.000000 -0.000000 0.000000
vn -100.000000 -0.000000 0.000000
vn -100.000000 -0.000000 0.000000
vn -100.000000 -0.000000 0.000000
vn -100.000000 -0.000000 0.000000
vn -100.000000 -0.000000 0.000000
vn -100.000000 -0.000000 0.000000
vn -100.000000 -0.000000 0.000000
vn -100.000000 -0.000000 0.000000
vn -100.000000 -0.000000 0.000000
vn -100.000000 -0.000000 0.000000
vn -100.000000 -0.000000 0.000000
vn -100.000000 -0.000000 0.000000
vn -100.000000 -0.000000 0.000000
vn -100.000000 -0.000000 0.000000
usemtl Paint_-_Metal_Flake_(Gold)
f 134/267/265 165/268/266 133/269/267
f 133/269/267 165/268/266 166/270/268
f 133/269/267 166/270/268 198/271/269
f 198/271/269 166/270/268 167/272/270
f 198/271/269 167/272/270 197/273/271
f 197/273/271 167/272/270 168/274/272
f 197/273/271 168/274/272 196/275/273
f 196/275/273 168/274/272 169/276/274
f 196/275/273 169/276/274 195/277/275
f 195/277/275 169/276/274 170/278/276
f 195/277/275 170/278/276 194/279/277
f 194/279/277 170/278/276 171/280/278
f 194/279/277 171/280/278 193/281/279
f 193/281/279 171/280/278 172/282/280
f 193/281/279 172/282/280 192/283/281
f 192/283/281 172/282/280 173/284/282
f 192/283/281 173/284/282 191/285/283
f 191/285/283 173/284/282 174/286/284
f 191/285/283 174/286/284 190/287/285
f 190/287/285 174/286/284 175/288/286
f 190/287/285 175/288/286 189/289/287
f 189/289/287 175/288/286 176/290/288
f 189/289/287 176/290/288 188/291/289
f 188/291/289 176/290/288 177/292/290
f 188/291/289 177/292/290 187/293/291
f 187/293/291 177/292/290 178/294/292
f 187/293/291 178/294/292 186/295/293
f 186/295/293 178/294/292 179/296/294
f 186/295/293 179/296/294 185/297/295
f 185/297/295 179/296/294 180/298/296
f 185/297/295 180/298/296 184/299/297
f 184/299/297 180/298/296 181/300/298
f 184/299/297 181/300/298 183/301/299
f 183/301/299 181/300/298 182/302/300
f 165/268/266 134/267/265 164/303/301
f 164/303/301 134/267/265 135/304/302
f 164/303/301 135/304/302 163/305/303
f 163/305/303 135/304/302 136/306/304
f 163/305/303 136/306/304 162/307/305
f 162/307/305 136/306/304 137/308/306
f 162/307/305 137/308/306 161/309/307
f 161/309/307 137/308/306 138/310/308
f 161/309/307 138/310/308 160/311/309
f 160/311/309 138/310/308 139/312/310
f 160/311/309 139/312/310 159/313/311
f 159/313/311 139/312/310 140/314/312
f 159/313/311 140/314/312 158/315/313
f 158/315/313 140/314/312 141/316/314
f 158/315/313 141/316/314 157/317/315
f 157/317/315 141/316/314 142/318/316
f 157/317/315 142/318/316 156/319/317
f 156/319/317 142/318/316 143/320/318
f 156/319/317 143/320/318 155/321/319
f 155/321/319 143/320/318 144/322/320
f 155/321/319 144/322/320 154/323/321
f 154/323/321 144/322/320 145/324/322
f 154/323/321 145/324/322 153/325/323
f 153/325/323 145/324/322 146/326/324
f 153/325/323 146/326/324 152/327/325
f 152/327/325 146/326/324 147/328/326
f 152/327/325 147/328/326 151/329/327
f 151/329/327 147/328/326 148/330/328
f 151/329/327 148/330/328 150/331/329
f 150/331/329 148/330/328 149/332/330
f 198/333/331 199/334/332 133/335/333
f 133/335/333 199/334/332 200/336/334
f 133/335/333 200/336/334 134/337/335
f 134/337/335 200/336/334 201/338/336
f 134/337/335 201/338/336 135/339/337
f 135/339/337 201/338/336 202/340/338
f 135/339/337 202/340/338 136/341/339
f 136/341/339 202/340/338 203/342/340
f 136/341/339 203/342/340 137/343/341
f 137/343/341 203/342/340 204/344/342
f 137/343/341 204/344/342 138/345/343
f 138/345/343 204/344/342 205/346/344
f 138/345/343 205/346/344 139/347/345
f 139/347/345 205/346/344 206/348/346
f 139/347/345 206/348/346 140/349/347
f 140/349/347 206/348/346 207/350/348
f 140/349/347 207/350/348 141/351/349
f 141/351/349 207/350/348 208/352/350
f 141/351/349 208/352/350 142/353/351
f 142/353/351 208/352/350 209/354/352
f 142/353/351 209/354/352 143/355/353
f 143/355/353 209/354/352 210/356/354
f 143/355/353 210/356/354 144/357/355
f 144/357/355 210/356/354 211/358/356
f 144/357/355 211/358/356 145/359/357
f 145/359/357 211/358/356 212/360/358
f 145/359/357 212/360/358 146/361/359
f 146/361/359 212/360/358 213/362/360
f 146/361/359 213/362/360 147/363/361
f 147/363/361 213/362/360 214/364/362
f 147/363/361 214/364/362 148/365/363
f 148/365/363 214/364/362 215/366/364
f 148/365/363 215/366/364 149/367/365
f 149/367/365 215/366/364 216/368/366
f 149/367/365 216/368/366 150/369/367
f 150/369/367 216/368/366 217/370/368
f 150/369/367 217/370/368 151/371/369
f 151/371/369 217/370/368 218/372/370
f 151/371/369 218/372/370 152/373/371
f 152/373/371 218/372/370 219/374/372
f 152/373/371 219/374/372 153/375/373
f 153/375/373 219/374/372 220/376/374
f 153/375/373 220/376/374 154/377/375
f 154/377/375 220/376/374 221/378/376
f 154/377/375 221/378/376 155/379/377
f 155/379/377 221/378/376 222/380/378
f 155/379/377 222/380/378 156/381/379
f 156/381/379 222/380/378 223/382/380
f 156/381/379 223/382/380 157/383/381
f 157/383/381 223/382/380 224/384/382
f 157/383/381 224/384/382 158/385/383
f 158/385/383 224/384/382 225/386/384
f 158/385/383 225/386/384 159/387/385
f 159/387/385 225/386/384 226/388/386
f 159/387/385 226/388/386 160/389/387
f 160/389/387 226/388/386 227/390/388
f 160/389/387 227/390/388 161/391/389
f 161/391/389 227/390/388 228/392/390
f 161/391/389 228/392/390 162/393/391
f 162/393/391 228/392/390 229/394/392
f 162/393/391 229/394/392 163/395/393
f 163/395/393 229/394/392 230/396/394
f 163/395/393 230/396/394 164/397/395
f 164/397/395 230/396/394 231/398/396
f 164/397/395 231/398/396 165/399/397
f 165/399/397 231/398/396 166/400/398
f 166/400/398 231/398/396 232/401/399
f 166/402/398 232/403/399 167/404/400
f 167/404/400 232/403/399 233/405/401
f 167/404/400 233/405/401 234/406/402
f 199/334/332 198/333/331 264/407/403
f 264/407/403 198/333/331 197/408/404
f 264/407/403 197/408/404 263/409/405
f 263/409/405 197/408/404 196/410/406
f 263/409/405 196/410/406 262/411/407
f 262/411/407 196/410/406 195/412/408
f 262/411/407 195/412/408 261/413/409
f 261/413/409 195/412/408 194/414/410
f 261/413/409 194/414/410 260/415/411
f 260/415/411 194/414/410 193/416/412
f 260/415/411 193/416/412 259/417/413
f 259/417/413 193/416/412 192/418/414
f 259/417/413 192/418/414 258/419/415
f 258/419/415 192/418/414 191/420/416
f 258/419/415 191/420/416 257/421/417
f 257/421/417 191/420/416 190/422/418
f 257/421/417 190/422/418 256/423/419
f 256/423/419 190/422/418 189/424/420
f 256/423/419 189/424/420 255/425/421
f 255/425/421 189/424/420 188/426/422
f 255/425/421 188/426/422 254/427/423
f 254/427/423 188/426/422 187/428/424
f 254/427/423 187/428/424 253/429/425
f 253/429/425 187/428/424 186/430/426
f 253/429/425 186/430/426 252/431/427
f 252/431/427 186/430/426 185/432/428
f 252/431/427 185/432/428 251/433/429
f 251/433/429 185/432/428 184/434/430
f 251/433/429 184/434/430 250/435/431
f 250/435/431 184/434/430 183/436/432
f 250/435/431 183/436/432 249/437/433
f 249/437/433 183/436/432 182/438/434
f 249/437/433 182/438/434 248/439/435
f 248/439/435 182/438/434 181/440/436
f 248/439/435 181/440/436 247/441/437
f 247/441/437 181/440/436 180/442/438
f 247/441/437 180/442/438 246/443/439
f 246/443/439 180/442/438 179/444/440
f 246/443/439 179/444/440 245/445/441
f 245/445/441 179/444/440 178/446/442
f 245/445/441 178/446/442 244/447/443
f 244/447/443 178/446/442 177/448/444
f 244/447/443 177/448/444 243/449/445
f 243/449/445 177/448/444 176/450/446
f 243/449/445 176/450/446 242/451/447
f 242/451/447 176/450/446 175/452/448
f 242/451/447 175/452/448 241/453/449
f 241/453/449 175/452/448 174/454/450
f 241/453/449 174/454/450 240/455/451
f 240/455/451 174/454/450 173/456/452
f 240/455/451 173/456/452 239/457/453
f 239/457/453 173/456/452 172/458/454
f 239/457/453 172/458/454 238/459/455
f 238/459/455 172/458/454 171/460/456
f 238/459/455 171/460/456 237/461/457
f 237/461/457 171/460/456 170/462/458
f 237/461/457 170/462/458 236/463/459
f 236/463/459 170/462/458 169/464/460
f 236/463/459 169/464/460 235/465/461
f 235/465/461 169/464/460 168/466/462
f 235/465/461 168/466/462 234/406/402
f 234/406/402 168/466/462 167/404/400
f 264/467/463 233/468/464 199/469/465
f 199/469/465 233/468/464 232/470/466
f 199/469/465 232/470/466 200/471/467
f 200/471/467 232/470/466 231/472/468
f 200/471/467 231/472/468 201/473/469
f 201/473/469 231/472/468 230/474/470
f 201/473/469 230/474/470 202/475/471
f 202/475/471 230/474/470 229/476/472
f 202/475/471 229/476/472 203/477/473
f 203/477/473 229/476/472 228/478/474
f 203/477/473 228/478/474 204/479/475
f 204/479/475 228/478/474 227/480/476
f 204/479/475 227/480/476 205/481/477
f 205/481/477 227/480/476 226/482/478
f 205/481/477 226/482/478 206/483/479
f 206/483/479 226/482/478 225/484/480
f 206/483/479 225/484/480 207/485/481
f 207/485/481 225/484/480 224/486/482
f 207/485/481 224/486/482 208/487/483
f 208/487/483 224/486/482 223/488/484
f 208/487/483 223/488/484 209/489/485
f 209/489/485 223/488/484 222/490/486
f 209/489/485 222/490/486 210/491/487
f 210/491/487 222/490/486 221/492/488
f 210/491/487 221/492/488 211/493/489
f 211/493/489 221/492/488 220/494/490
f 211/493/489 220/494/490 212/495/491
f 212/495/491 220/494/490 219/496/492
f 212/495/491 219/496/492 213/497/493
f 213/497/493 219/496/492 218/498/494
f 213/497/493 218/498/494 214/499/495
f 214/499/495 218/498/494 217/500/496
f 214/499/495 217/500/496 215/501/497
f 215/501/497 217/500/496 216/502/498
f 233/468/464 264/467/463 234/503/499
f 234/503/499 264/467/463 263/504/500
f 234/503/499 263/504/500 235/505/501
f 235/505/501 263/504/500 262/506/502
f 235/505/501 262/506/502 236/507/503
f 236/507/503 262/506/502 261/508/504
f 236/507/503 261/508/504 237/509/505
f 237/509/505 261/508/504 260/510/506
f 237/509/505 260/510/506 238/511/507
f 238/511/507 260/510/506 259/512/508
f 238/511/507 259/512/508 239/513/509
f 239/513/509 259/512/508 258/514/510
f 239/513/509 258/514/510 240/515/511
f 240/515/511 258/514/510 257/516/512
f 240/515/511 257/516/512 241/517/513
f 241/517/513 257/516/512 256/518/514
f 241/517/513 256/518/514 242/519/515
f 242/519/515 256/518/514 255/520/516
f 242/519/515 255/520/516 243/521/517
f 243/521/517 255/520/516 254/522/518
f 243/521/517 254/522/518 244/523/519
f 244/523/519 254/522/518 253/524/520
f 244/523/519 253/524/520 245/525/521
f 245/525/521 253/524/520 252/526/522
f 245/525/521 252/526/522 246/527/523
f 246/527/523 252/526/522 251/528/524
f 246/527/523 251/528/524 247/529/525
f 247/529/525 251/528/524 250/530/526
f 247/529/525 250/530/526 248/531/527
f 248/531/527 250/530/526 249/532/528
# 264 vertices
# 532 texture params
# 528 normals
# 520 facets

# 2 groups
